<?xml version="1.0" encoding="utf-8"?>
<!-- Generator: Adobe Illustrator 26.0.1, SVG Export Plug-In . SVG Version: 6.00 Build 0)  -->
<svg version="1.1" id="Слой_1" xmlns="http://www.w3.org/2000/svg" xmlns:xlink="http://www.w3.org/1999/xlink" x="0px" y="0px"
	 viewBox="0 0 80.2 50" style="enable-background:new 0 0 80.2 50;" xml:space="preserve">
<style type="text/css">
	.st0{fill:#E84C3D;}
	.st1{fill:#3598DB;}
</style>
<g>
	<path class="st0" d="M20.9,28.6h18.7l2.9-15.9C43,9.8,45.2,9.3,45.4,8c0.2-1.3-0.5-2.1-2.6-2.1H28.4c-1.8,0-2.7,0.8-2.7,2
		c0,1.6,2.3,2.1,1.9,4.7L25.4,26l-7.8-13.7C15,7.5,12.7,5.6,8.7,5.6c-0.2,0-0.4,0-0.6,0c-3,0.1-5.3,2.7-5.2,5.7c0,0.1,0,0.1,0,0.2
		c-0.2,3.5,2.5,6.5,6,6.6c1.7,0,3.4-0.8,4.4-2.1L20.9,28.6z"/>
	<path class="st1" d="M37.5,39.5l2-10.9H20.8l6.4,10.9c2,3.4,3.6,5,5.9,5C35.4,44.5,37,43.1,37.5,39.5z"/>
	<g>
		<path class="st0" d="M56,25.1l0.4,3.6h10.5l4.4-7.4c0.5,0.8,1.4,1.3,2.4,1.3c2.1-0.1,3.8-1.9,3.7-4c0.1-1.8-1.3-3.2-3-3.3
			c-0.1,0-0.2,0-0.4,0c-2.3,0-3.5,0.9-4.9,3.5l-4.5,8l-0.4-7.4c-0.1-1.6,1.1-1.8,1.1-2.7c0-0.7-0.5-1.2-1.6-1.2h-8.5
			c-1.2,0-1.6,0.5-1.5,1.3c0.1,0.8,1.5,1,1.7,2.7l0.1,0.8l-5.1,7.3l-0.9-8.2c-0.2-1.6,1.1-1.8,1.1-2.7c0-0.7-0.5-1.2-1.5-1.2h-8.5
			c-1.2,0-1.6,0.5-1.5,1.3c0.1,0.8,1.4,0.9,1.7,2.7l1.3,9.3h11.3L56,25.1z"/>
		<path class="st1" d="M57,35.1c0.2,2.2,1.2,2.9,2.6,2.9c1.4,0,2.2-0.9,3.5-2.9l3.8-6.4H56.4L57,35.1z"/>
		<path class="st1" d="M45.5,38c1.3,0,2-0.6,3.6-2.9l4.4-6.4H42.2l0.9,6C43.3,36.9,44.2,38,45.5,38z"/>
	</g>
</g>
</svg>
