<svg xmlns="http://www.w3.org/2000/svg" viewBox="0 0 100 50"><defs><style>.cls-1{isolation:isolate;}.cls-2{mix-blend-mode:multiply;opacity:0.18;}.cls-3{fill:#fff;}.cls-4{fill:#b5046a;}.cls-5{fill:#db2878;}</style></defs><g class="cls-1"><g id="Слой_1" data-name="Слой 1"><g class="cls-2"><rect x="8.28" y="4.9" width="182.74" height="98.24"/><path d="M16.07,16.72H29.46v4.81a.09.09,0,0,1,0,.08l-.05,0h0a3.74,3.74,0,0,0-1.15-.18h0a3.83,3.83,0,0,0-.48,7.63l.42,0a3.81,3.81,0,0,0,1.21-.17h0l.06,0a.08.08,0,0,1,0,.08v4.8h-4.8a1,1,0,0,0-.8.4,1.06,1.06,0,0,0-.2.56,1,1,0,0,0,.05.35,3.2,3.2,0,0,1,.13.92c0,.11,0,.21,0,.32a2.94,2.94,0,0,1-2.57,2.53A2.86,2.86,0,0,1,19,38.18,2.9,2.9,0,0,1,18,36a2.82,2.82,0,0,1,.13-.87,1.1,1.1,0,0,0,.05-.35,1,1,0,0,0-1-1H12.36V20.43A3.72,3.72,0,0,1,16.07,16.72ZM42.59,33.77a.11.11,0,0,0,.09,0h4.8V20.43a3.72,3.72,0,0,0-3.71-3.71H30.37v4.81a1,1,0,0,1-.41.81.92.92,0,0,1-.55.19,1,1,0,0,1-.35,0,2.83,2.83,0,0,0-.87-.14,2.94,2.94,0,0,0-2.18,1,2.87,2.87,0,0,0-.72,2.28,2.92,2.92,0,0,0,2.53,2.57l.32,0a2.54,2.54,0,0,0,.91-.13,1.11,1.11,0,0,1,.36,0,1,1,0,0,1,.56.19,1,1,0,0,1,.4.81v4.79h4.81a.12.12,0,0,0,.08,0h0a.08.08,0,0,0,0-.07,3.71,3.71,0,0,1-.15-1.62,4,4,0,0,1,.38-1.24,3.81,3.81,0,0,1,6-1.15,3.8,3.8,0,0,1,1.1,4A.09.09,0,0,0,42.59,33.77Zm4.9,14.35V34.74H42.67a1,1,0,0,1-1-1.3A2.93,2.93,0,1,0,36,32.17a2.74,2.74,0,0,0,.11,1.24,1,1,0,0,1-.09.8l-.07.12a1,1,0,0,1-.81.41h-4.8v4.79a.07.07,0,0,0,0,.07.1.1,0,0,0,.1,0,3.83,3.83,0,0,1,4.94,3.22,3,3,0,0,1,0,.42,3.89,3.89,0,0,1-1,2.58,3.83,3.83,0,0,1-2.85,1.27,3.74,3.74,0,0,1-1.15-.18.11.11,0,0,0-.13.1v4.8H43.78A3.72,3.72,0,0,0,47.49,48.12Zm-35.13,0a3.71,3.71,0,0,0,3.71,3.71h13.4V47h0a1,1,0,0,1,1.3-1,2.89,2.89,0,0,0,.88.14,3,3,0,0,0,2.18-1,2.94,2.94,0,0,0,.75-2c0-.1,0-.2,0-.31A2.93,2.93,0,0,0,32,40.38a3.05,3.05,0,0,0-1.24.11,1,1,0,0,1-.9-.15,1,1,0,0,1-.41-.8h0V34.74H24.66a.09.09,0,0,0-.08,0,.08.08,0,0,0,0,.06v0a3.85,3.85,0,0,1,.17,1.21,3.22,3.22,0,0,1,0,.43,3.84,3.84,0,0,1-3.37,3.32l-.42,0A3.83,3.83,0,0,1,17.09,36h0a4,4,0,0,1,.17-1.14,0,0,0,0,0,0,0,.08.08,0,0,0,0,0,.09.09,0,0,0-.08,0H12.36Z"/><path d="M29.47,51.84V47h0a1,1,0,0,1,1.3-1,2.89,2.89,0,0,0,.88.14,3,3,0,0,0,2.18-1,2.94,2.94,0,0,0,.75-2c0-.1,0-.2,0-.31A2.93,2.93,0,0,0,32,40.38a3.05,3.05,0,0,0-1.24.11,1,1,0,0,1-1.27-.69,54.8,54.8,0,0,1-17.15,6.26v2.07a3.71,3.71,0,0,0,3.71,3.71Z"/><path d="M41.86,34.33a1,1,0,0,1-.15-.89,3,3,0,0,0-.84-3.06l-.24-.19a38.55,38.55,0,0,1-10.26,9.09v.25a.07.07,0,0,0,0,.07.1.1,0,0,0,.1,0,3.83,3.83,0,0,1,4.94,3.22,3,3,0,0,1,0,.42,3.89,3.89,0,0,1-1,2.58,3.83,3.83,0,0,1-2.85,1.27,3.74,3.74,0,0,1-1.15-.18.11.11,0,0,0-.13.1v4.8H43.78a3.72,3.72,0,0,0,3.71-3.71V34.74H42.67A1,1,0,0,1,41.86,34.33Z"/><path d="M41.48,29.69a3.8,3.8,0,0,1,1.1,4,.09.09,0,0,0,0,.08.11.11,0,0,0,.09,0h4.8V20.43a3.68,3.68,0,0,0-.76-2.23,34.42,34.42,0,0,1-5.53,11.25A2.17,2.17,0,0,1,41.48,29.69Z"/></g><rect class="cls-3" x="-1.72" y="-5.1" width="182.74" height="98.24"/><path class="cls-4" d="M6.07,6.72H19.46v4.81a.09.09,0,0,1,0,.08l-.05,0h0a3.74,3.74,0,0,0-1.15-.18h0a3.83,3.83,0,0,0-.48,7.63l.42,0a3.81,3.81,0,0,0,1.21-.17h0l.06,0a.08.08,0,0,1,0,.08v4.8h-4.8a1,1,0,0,0-.8.4,1.06,1.06,0,0,0-.2.56,1,1,0,0,0,.05.35,3.2,3.2,0,0,1,.13.92c0,.11,0,.21,0,.32a2.94,2.94,0,0,1-2.57,2.53A2.86,2.86,0,0,1,9,28.18,2.9,2.9,0,0,1,8,26a2.82,2.82,0,0,1,.13-.87,1.1,1.1,0,0,0,.05-.35,1,1,0,0,0-1-1H2.36V10.43A3.72,3.72,0,0,1,6.07,6.72ZM32.59,23.77a.11.11,0,0,0,.09.05h4.8V10.43a3.72,3.72,0,0,0-3.71-3.71H20.37v4.81a1,1,0,0,1-.41.81.92.92,0,0,1-.55.19,1,1,0,0,1-.35,0,2.83,2.83,0,0,0-.87-.14,2.94,2.94,0,0,0-2.18,1,2.87,2.87,0,0,0-.72,2.28,2.92,2.92,0,0,0,2.53,2.57l.32,0a2.54,2.54,0,0,0,.91-.13,1.11,1.11,0,0,1,.36,0,1,1,0,0,1,.56.19,1,1,0,0,1,.4.81v4.79h4.81a.12.12,0,0,0,.08,0h0a.08.08,0,0,0,0-.07,3.71,3.71,0,0,1-.15-1.62,4,4,0,0,1,.38-1.24,3.81,3.81,0,0,1,6-1.15,3.8,3.8,0,0,1,1.1,4A.09.09,0,0,0,32.59,23.77Zm4.9,14.35V24.74H32.67a1,1,0,0,1-1-1.3A2.93,2.93,0,1,0,26,22.17a2.74,2.74,0,0,0,.11,1.24,1,1,0,0,1-.09.8l-.07.12a1,1,0,0,1-.81.41h-4.8v4.79a.07.07,0,0,0,0,.07.1.1,0,0,0,.1,0,3.83,3.83,0,0,1,4.94,3.22,3,3,0,0,1,0,.42,3.89,3.89,0,0,1-1,2.58,3.83,3.83,0,0,1-2.85,1.27,3.74,3.74,0,0,1-1.15-.18.11.11,0,0,0-.13.1v4.8H33.78A3.72,3.72,0,0,0,37.49,38.12Zm-35.13,0a3.71,3.71,0,0,0,3.71,3.71h13.4V37h0a1,1,0,0,1,1.3-1,2.89,2.89,0,0,0,.88.14,3,3,0,0,0,2.18-1,2.94,2.94,0,0,0,.75-2c0-.1,0-.2,0-.31A2.93,2.93,0,0,0,22,30.38a3.05,3.05,0,0,0-1.24.11,1,1,0,0,1-.9-.15,1,1,0,0,1-.41-.8h0V24.74H14.66a.09.09,0,0,0-.08,0,.08.08,0,0,0,0,.06,0,0,0,0,0,0,0,3.85,3.85,0,0,1,.17,1.21,3.22,3.22,0,0,1,0,.43,3.84,3.84,0,0,1-3.37,3.32l-.42,0A3.83,3.83,0,0,1,7.09,26h0a4,4,0,0,1,.17-1.14,0,0,0,0,0,0,0,.08.08,0,0,0,0,0,.09.09,0,0,0-.08,0H2.36Z"/><path class="cls-5" d="M19.47,41.84V37h0a1,1,0,0,1,1.3-1,2.89,2.89,0,0,0,.88.14,3,3,0,0,0,2.18-1,2.94,2.94,0,0,0,.75-2c0-.1,0-.2,0-.31A2.93,2.93,0,0,0,22,30.38a3.05,3.05,0,0,0-1.24.11,1,1,0,0,1-1.27-.69A54.8,54.8,0,0,1,2.36,36.06v2.07a3.71,3.71,0,0,0,3.71,3.71Z"/><path class="cls-5" d="M31.86,24.33a1,1,0,0,1-.15-.89,3,3,0,0,0-.84-3.06l-.24-.19a38.55,38.55,0,0,1-10.26,9.09v.25a.07.07,0,0,0,0,.07.1.1,0,0,0,.1,0,3.83,3.83,0,0,1,4.94,3.22,3,3,0,0,1,0,.42,3.89,3.89,0,0,1-1,2.58,3.83,3.83,0,0,1-2.85,1.27,3.74,3.74,0,0,1-1.15-.18.11.11,0,0,0-.13.1v4.8H33.78a3.72,3.72,0,0,0,3.71-3.71V24.74H32.67A1,1,0,0,1,31.86,24.33Z"/><path class="cls-5" d="M31.48,19.69a3.8,3.8,0,0,1,1.1,4,.09.09,0,0,0,0,.08.11.11,0,0,0,.09.05h4.8V10.43a3.68,3.68,0,0,0-.76-2.23,34.42,34.42,0,0,1-5.53,11.25A2.17,2.17,0,0,1,31.48,19.69Z"/><path class="cls-3" d="M12.65,26.58l2-.84L12.69,30.6,7.83,28.68l2-.88a10.82,10.82,0,0,1-.71-4.09,11.06,11.06,0,0,1,.85-4,5.5,5.5,0,0,1-3-3.67,5.36,5.36,0,0,1,.38-3.73,5.52,5.52,0,0,1,6.91-2.74l1-1.95,1.67,4.95-4.95,1.68.93-1.89a2.07,2.07,0,0,0-1.37,0,2.43,2.43,0,0,0-.19,4.55.36.36,0,0,0,.51-.11A10.56,10.56,0,0,1,20.38,13,10.9,10.9,0,0,1,21.9,34.67a12.2,12.2,0,0,1-1.9.17H6.27V31.79h.4c4.4,0,8.8,0,13.2,0A7.62,7.62,0,0,0,27,27.49,7.85,7.85,0,1,0,12.24,23,7.59,7.59,0,0,0,12.65,26.58Z"/><path class="cls-3" d="M35.47,31.81v3H25.22l.28-.16A12.57,12.57,0,0,0,29,32a.64.64,0,0,1,.41-.22h5.88Z"/><path class="cls-3" d="M39.85,31.81v3H29.6l.28-.16A12.62,12.62,0,0,0,33.35,32a.6.6,0,0,1,.4-.22h5.89Z"/><path class="cls-5" d="M41.74,20.05a1.46,1.46,0,0,1,.84.25,3.53,3.53,0,0,0,1.8.78c.31,0,.47-.08.47-.25s-.29-.45-.86-.9a15.78,15.78,0,0,1-1.59-1.29A4.74,4.74,0,0,1,41,15.05a3.6,3.6,0,0,1,0-.53,11.73,11.73,0,0,1,.21-1.64,16.93,16.93,0,0,1,.57-1.8,13.94,13.94,0,0,1,1.77-3.27,2.29,2.29,0,0,1,1.82-1.08,1.79,1.79,0,0,1,1.08.37,6.64,6.64,0,0,1,1.83,2,4.92,4.92,0,0,1,.75,2.56,9.87,9.87,0,0,1-.47,2.55,19.12,19.12,0,0,1-1.07,2.89c-.25.53-.46.8-.61.8a.61.61,0,0,1-.26-.09A1.94,1.94,0,0,1,45.38,16a12.82,12.82,0,0,1,.31-1.7,11.6,11.6,0,0,0,.3-1.87c0-.22,0-.32-.13-.32s-.36.19-.66.58a7,7,0,0,0-.52.78,5.6,5.6,0,0,0-.86,2.74,1.88,1.88,0,0,0,.37,1.21,6.11,6.11,0,0,0,.8.85l.87.79c.62.57.93,1.05.93,1.43a1.7,1.7,0,0,1-.53,1.09,2.53,2.53,0,0,1-1.93.82h-.09a4.1,4.1,0,0,1-2.72-1.29c-.34-.32-.52-.55-.52-.68a.29.29,0,0,1,.13-.24A1.28,1.28,0,0,1,41.74,20.05Z"/><path class="cls-5" d="M57.23,20.23a.29.29,0,0,1,.06.19,1.27,1.27,0,0,1-.2.55,2.56,2.56,0,0,1-2.26,1.49h-.15a2.84,2.84,0,0,1-2.36-1.4,8.77,8.77,0,0,1-.79-4.32,19.14,19.14,0,0,1,.46-4,14.52,14.52,0,0,1,1.39-4C54.06,7.55,54.84,7,55.72,7a2.49,2.49,0,0,1,1,.2,5.51,5.51,0,0,1,1.85,1.31,4.1,4.1,0,0,1,1.16,2.89,8.93,8.93,0,0,1-.07.92,15.68,15.68,0,0,1-.75,3.44c-.24.72-.47,1.08-.68,1.08a.67.67,0,0,1-.24,0,1.59,1.59,0,0,1-1-.79,2.92,2.92,0,0,1-.28-1.3c0-.21,0-.51,0-.88s0-.7,0-.87a3.22,3.22,0,0,0-.08-.74c-.06-.21-.15-.32-.3-.32s-.25.1-.39.28a5.4,5.4,0,0,0-.51.89c-.09.21-.22.53-.38,1a19.34,19.34,0,0,0-1,3.62,10.37,10.37,0,0,0-.14,1.74c0,1.25.2,1.87.59,1.87s.58-.25,1-.76a1.22,1.22,0,0,1,1-.48A1,1,0,0,1,57.23,20.23Z"/><path class="cls-5" d="M64.75,22.15c0,.15-.1.22-.19.22l-.18,0a4,4,0,0,1-.75-.22.79.79,0,0,1-.38-.65l-.18-1.94L62.94,18c-.18-2.23-.27-4-.27-5.2,0-1.53.12-2.41.37-2.66A17.23,17.23,0,0,1,65.5,8a4.91,4.91,0,0,1,2.6-1c1,0,1.73.63,2.22,1.89A11.22,11.22,0,0,1,71.08,13a6,6,0,0,1-1.22,3.79,9.86,9.86,0,0,1-3,2.42c.53.78,1,1.42,1.42,1.92.1.12.21.24.32.35s.24.31.24.37-.13.26-.39.34a1.67,1.67,0,0,1-.61.13,1,1,0,0,1-.29,0A1.25,1.25,0,0,1,67.1,22l-.37-.33A12.74,12.74,0,0,1,65,19.78Q64.81,21.37,64.75,22.15Zm.54-4.69a6.76,6.76,0,0,0,2.43-2,3.9,3.9,0,0,0,1-2.11c0-.5-.31-.75-.92-.75a3,3,0,0,0-1.81.74C65.65,15.15,65.43,16.54,65.29,17.46Z"/><path class="cls-5" d="M74.19,17.89A56.45,56.45,0,0,1,74,12.24c0-1,0-2.11,0-3.25,0-.74.16-1.11.44-1.11a3.36,3.36,0,0,1,1.37.82,3.65,3.65,0,0,1,1.59,2.93A13.81,13.81,0,0,1,77.15,14c-.23,1.33-.36,2.11-.39,2.32a29.75,29.75,0,0,0-.28,3.32c0,1.05.15,1.58.46,1.58s.63-.66,1-2c.31-1,.66-2.61,1.07-4.73.35-1.87.69-3.8,1-5.8q.2-1.23.72-1.23a1.85,1.85,0,0,1,1.12.68,7.22,7.22,0,0,1,.85,1,2.1,2.1,0,0,1,.44,1,4.25,4.25,0,0,1-.22,1.06c-1,3.18-1.72,5.48-2.22,6.87a13.51,13.51,0,0,1-1.61,3.35,2.09,2.09,0,0,1-1.65.9,2.64,2.64,0,0,1-2.38-1.14A8.08,8.08,0,0,1,74.19,17.89Z"/><path class="cls-5" d="M87.33,19.33c0,.71,0,1.65.06,2.84,0,.15,0,.23-.18.23a2,2,0,0,1-.47-.07c-.58-.15-.92-.43-1-.85s-.18-.81-.24-1.19c-.18-1.06-.39-2.38-.62-4C84.54,14,84.24,11.61,84,9q0-.26,0-.3V8.48c0-.63.19-.94.56-.94a1.4,1.4,0,0,1,.4.07,6.14,6.14,0,0,1,.8.25,8.56,8.56,0,0,1,1.94,1,2.6,2.6,0,0,1,1,1.21,7.53,7.53,0,0,1,.32,1.56A12.93,12.93,0,0,0,89.08,13l.59,4.66c.11-.38.26-.83.43-1.33.38-1.05.79-2.19,1.26-3.42l1.37-3.6a12.42,12.42,0,0,1,.53-1.24c.32-.65.67-1,1-1a1.64,1.64,0,0,1,.78.29l.77.5a10.32,10.32,0,0,1,.89.63,2.22,2.22,0,0,1,1,1.51,3.89,3.89,0,0,1-.43,1.43l-.91,2c-.7,1.56-1.3,3-1.83,4.22l-.79,1.86q-.78,1.81-1,2.52c-.1.18-.2.28-.32.28a1.56,1.56,0,0,1-.76-.21c-.25-.14-.38-.3-.38-.47a12.85,12.85,0,0,1,.46-2c.34-1.33.71-2.59,1.09-3.78-1.09,2.11-2,4-2.72,5.63-.09.21-.18.31-.28.31l-.52-.11a1,1,0,0,1-.78-.78c-.35-1.11-.75-2.7-1.2-4.78C87.34,17.33,87.33,18.38,87.33,19.33Z"/><path class="cls-5" d="M43.38,41.74c0,.15-.1.22-.22.22a3,3,0,0,1-.58-.14c-.54-.16-.8-.4-.8-.72V41a1,1,0,0,0,0-.21c0-.33-.07-1.21-.2-2.62l-.18-1.89q-.09-1-.18-1.95c-.12-1.52-.19-2.57-.19-3.16a1.77,1.77,0,0,1,.09-.78A15.47,15.47,0,0,1,43.78,28a5.59,5.59,0,0,1,3-1.23,2.16,2.16,0,0,1,2.07,1.66,11.69,11.69,0,0,1,.76,4.1,6,6,0,0,1-1.56,4.09,9.22,9.22,0,0,1-2,1.73,10.93,10.93,0,0,1-2.44,1.18Q43.41,41,43.38,41.74Zm2.91-6.66a3.85,3.85,0,0,0,.88-2.2q0-.69-.81-.69a3.27,3.27,0,0,0-1.87.73c-.12.72-.22,1.43-.31,2.11l-.3,2A5.87,5.87,0,0,0,46.29,35.08Z"/><path class="cls-5" d="M52.14,37.43c-.14-1.42-.22-3.31-.22-5.66,0-1,0-2.1,0-3.24q0-1.11.45-1.11a3.35,3.35,0,0,1,1.37.81,3.7,3.7,0,0,1,1.58,2.93,13.73,13.73,0,0,1-.25,2.33c-.24,1.33-.37,2.11-.39,2.32a27.49,27.49,0,0,0-.28,3.32c0,1,.15,1.57.45,1.57s.64-.65,1-2c.3-1,.66-2.61,1.06-4.73.36-1.87.69-3.8,1-5.8Q58.16,27,58.7,27a1.85,1.85,0,0,1,1.11.67,7.18,7.18,0,0,1,.85,1.06,2.14,2.14,0,0,1,.45,1,4.36,4.36,0,0,1-.23,1.05q-1.46,4.78-2.22,6.88A13.51,13.51,0,0,1,57.05,41a2.06,2.06,0,0,1-1.65.9A2.63,2.63,0,0,1,53,40.77,8.1,8.1,0,0,1,52.14,37.43Z"/><path class="cls-5" d="M65.92,32.62a6.74,6.74,0,0,0-1,.3l-.3,0a1.14,1.14,0,0,1-.93-.68c-.32-.73-.56-1.27-.73-1.63a4.94,4.94,0,0,1-.49-1.52c0-.19.13-.38.4-.56a8.71,8.71,0,0,1,2.53-.9A34.11,34.11,0,0,1,70,26.94h.12c.37,0,.61.25.73.74a8.94,8.94,0,0,1,.12,1.8V30c0,.22,0,.39,0,.5v.1a3.49,3.49,0,0,1-.57,2q-2.73,4.13-5.07,7.81a5.86,5.86,0,0,1,1.55-.28.69.69,0,0,1,.61.46,1.72,1.72,0,0,1,.17.72c0,.13-.12.21-.35.24-.81.13-1.56.28-2.26.46a1.55,1.55,0,0,1-.34,0,.68.68,0,0,1-.26,0,3.15,3.15,0,0,1-.82-.56,1,1,0,0,1-.41-.63.28.28,0,0,1,0-.15c.16-.49.37-1,.62-1.63.15-.34.37-.88.69-1.59q1.05-2.38,2.41-5Q66.75,32.44,65.92,32.62Z"/><path class="cls-5" d="M75.75,32.62a6.74,6.74,0,0,0-1,.3l-.3,0a1.14,1.14,0,0,1-.93-.68c-.32-.73-.56-1.27-.73-1.63a4.94,4.94,0,0,1-.49-1.52c0-.19.13-.38.4-.56a8.71,8.71,0,0,1,2.53-.9,34.11,34.11,0,0,1,4.55-.72h.12c.37,0,.61.25.73.74a8.94,8.94,0,0,1,.12,1.8V30c0,.22,0,.39,0,.5v.1a3.49,3.49,0,0,1-.57,2q-2.73,4.13-5.07,7.81a5.86,5.86,0,0,1,1.55-.28.69.69,0,0,1,.61.46,1.72,1.72,0,0,1,.17.72c0,.13-.12.21-.35.24-.81.13-1.56.28-2.26.46a1.55,1.55,0,0,1-.34,0,.68.68,0,0,1-.26,0,3.15,3.15,0,0,1-.82-.56,1,1,0,0,1-.41-.63.28.28,0,0,1,0-.15c.16-.49.37-1,.62-1.63.15-.34.37-.88.69-1.59q1-2.38,2.41-5Q76.57,32.44,75.75,32.62Z"/><path class="cls-5" d="M87,41.38l-1.13.22-.55.12-.53.11-.37.07a.44.44,0,0,1-.25-.06A2,2,0,0,1,83,40.78a8.29,8.29,0,0,1-.1-1.64c0-.74,0-1.53,0-2.36s0-1.73.07-2.67c0-1.11.1-2.18.17-3.22s.15-2.06.24-3.06c.06-.77.25-1.16.57-1.16a1.28,1.28,0,0,1,.48.14,5.48,5.48,0,0,1,1.89,1.56A2.38,2.38,0,0,1,87,29.72a3.18,3.18,0,0,1-.13.81q-1.07,4.34-2,9.6a9.91,9.91,0,0,1,1.77-.23c.23,0,.41.16.54.49a1.94,1.94,0,0,1,.15.76C87.29,41.27,87.17,41.34,87,41.38Z"/><path class="cls-5" d="M89.76,29l.67-.34.75-.36c.57-.25,1.14-.48,1.73-.68a15,15,0,0,1,1.8-.52,8.64,8.64,0,0,1,1.93-.31h.09q.61,0,.81,1a6.59,6.59,0,0,1,.07.79c0,.33,0,.73,0,1.19,0,.19,0,.36,0,.51s0,.29,0,.4a2.12,2.12,0,0,1-.17.69.79.79,0,0,1-.59.35L95.17,32l-.9.18-.93.21-.42,2.16c-.12.62-.22,1.13-.29,1.55A5.92,5.92,0,0,1,94,35.93h.11a.66.66,0,0,1,.65.5A4.42,4.42,0,0,1,95,37.82c0,.22-.14.35-.42.41l-1.45.33-1,.23c-.05.3-.09.57-.12.8s-.07.42-.1.57a7.94,7.94,0,0,1,1.83-.24c.24,0,.43.15.57.47a1.64,1.64,0,0,1,.16.74c0,.14-.1.22-.31.26l-.79.18-.56.12a6.35,6.35,0,0,1-1.2.19,1.16,1.16,0,0,1-.28-.07,2,2,0,0,1-.84-.51,1.32,1.32,0,0,1-.41-.85Z"/></g></g></svg>