<svg id="Слой_1" data-name="Слой 1" xmlns="http://www.w3.org/2000/svg" viewBox="0 0 50 50"><defs><style>.cls-1{fill:#fff;}</style></defs><path class="cls-1" d="M23.06,5.23c-.53,2.07-.87,3.82-1.43,5.48C19.67,16.57,20.71,22,24.1,27c3.5,5.18,4.36,10.57,1.7,16.4a2.8,2.8,0,0,1-3,1.89c-4.84-.09-8-2.83-9.91-6.83a29.46,29.46,0,0,1-.28-25.95C14.51,8.36,17.66,5.53,23.06,5.23Z"/><path class="cls-1" d="M28.49,44.46c.56-1.86,1-3.26,1.4-4.64,1.41-4.31,1.14-8.52-1.72-12C22.82,21.18,23,14.11,25.48,6.58c.58-1.8,1.43-2.07,3-1.69a11.94,11.94,0,0,1,7.77,5.86c5.26,9,5.27,18.25.24,27.38A12.61,12.61,0,0,1,28.49,44.46Z"/></svg>