<svg id="Слой_1" data-name="Слой 1" xmlns="http://www.w3.org/2000/svg" viewBox="0 0 100 50"><defs><style>.cls-1{fill:#dc2a79;}.cls-2{fill:#1d1e1b;}</style></defs><path class="cls-1" d="M39.39,19.87c.31,0,.59-.08.85-.12l.79-.13a2,2,0,0,1,.35,0h.35a.82.82,0,0,1,.73.64.79.79,0,0,1-.29.86,2.67,2.67,0,0,1-.35.22c-.42.15-.85.3-1.29.42s-.88.28-1.3.44a1.91,1.91,0,0,1-2.51-.74A3.8,3.8,0,0,1,36.19,20a6.47,6.47,0,0,1-.12-1.56c0-.69,0-1.37,0-2s0-1.35.07-2,.07-1.44.14-2.15a14,14,0,0,1,.38-2.11c.06-.19.11-.38.16-.56a3.28,3.28,0,0,1,.2-.52,1.55,1.55,0,0,1,.66-.74,1.52,1.52,0,0,1,1-.16,1.55,1.55,0,0,1,.83.38,1.26,1.26,0,0,1,.42.84,6.06,6.06,0,0,1,.09,1c0,.34,0,.68,0,1-.06,1.16-.13,2.33-.22,3.49s-.16,2.32-.23,3.49c0,.24,0,.47,0,.7S39.4,19.61,39.39,19.87Z"/><path class="cls-1" d="M47.33,11.74a4.66,4.66,0,0,0-.46,1.46c-.07.48-.12,1-.16,1.48h1l.5,0h.5a1,1,0,0,1,.56.2.82.82,0,0,1,.28.45,1,1,0,0,1-.06.58.72.72,0,0,1-.44.39,6.5,6.5,0,0,1-.85.28c-.29.08-.57.17-.85.27l-.26.06a1.72,1.72,0,0,0-.28.08L47,18c.06.37.13.75.2,1.15a6.62,6.62,0,0,0,.86-.9c.24-.33.5-.65.76-1a1.42,1.42,0,0,1,.76-.54,1.06,1.06,0,0,1,.73,0,.88.88,0,0,1,.44.55,1.66,1.66,0,0,1-.1,1,8.8,8.8,0,0,1-.71,1.4,6.85,6.85,0,0,1-1,1.32,4,4,0,0,1-1.28.87,1.88,1.88,0,0,1-1.4,0,3.08,3.08,0,0,1-1.46-1,5.25,5.25,0,0,1-.88-1.64,9.31,9.31,0,0,1-.42-2.05,15.86,15.86,0,0,1-.08-2.17c0-.72.09-1.39.18-2a15,15,0,0,1,.33-1.61A5.74,5.74,0,0,1,44.57,10,3,3,0,0,1,46.06,8.7,3.76,3.76,0,0,1,48,8.58,4.47,4.47,0,0,1,49.13,9a7,7,0,0,1,1.07.64A2.28,2.28,0,0,1,51,10.76a2,2,0,0,1,.06.84,1.29,1.29,0,0,1-.39.71,1.22,1.22,0,0,1-.7.42,1.84,1.84,0,0,1-.8-.06,1.69,1.69,0,0,1-.5-.2c-.16-.09-.32-.18-.49-.26L47.77,12A3.83,3.83,0,0,1,47.33,11.74Z"/><path class="cls-1" d="M58.57,18.81,57,19.08l-1.58.27v.76c0,.15,0,.31,0,.47s0,.31,0,.47a1.32,1.32,0,0,1-.23.83,1.4,1.4,0,0,1-.67.55,1.76,1.76,0,0,1-.93.08,1.43,1.43,0,0,1-.8-.45,2,2,0,0,1-.57-1A6.71,6.71,0,0,1,52.12,20a13.59,13.59,0,0,1,.19-2.78,26,26,0,0,1,.61-2.72,16.2,16.2,0,0,1,.72-2,14.18,14.18,0,0,1,1-1.89,10.27,10.27,0,0,1,.72-1,4.1,4.1,0,0,1,.91-.85,3.15,3.15,0,0,1,1.22-.57,2.77,2.77,0,0,1,2.31.45,3.23,3.23,0,0,1,.87,1,5.21,5.21,0,0,1,.52,1.22,7.17,7.17,0,0,1,.25,1.29c.06.5.1,1,.11,1.51s0,1,.06,1.52l0,.68c0,.23,0,.45,0,.67,0,.85-.08,1.7-.13,2.52s-.1,1.68-.16,2.55a1.07,1.07,0,0,1-.49.91,1.37,1.37,0,0,1-1.1.12.86.86,0,0,1-.72-.76l-.21-1.27c-.08-.43-.14-.85-.2-1.27a.62.62,0,0,1,0-.23A1.22,1.22,0,0,0,58.57,18.81ZM58.39,17q-.06-1.39-.18-2.73c-.09-.88-.21-1.77-.37-2.66a9.6,9.6,0,0,0-1.39,2.62,23.07,23.07,0,0,0-.79,2.86l1.35,0Z"/><path class="cls-1" d="M69.3,10.83a5.6,5.6,0,0,1,.12-.79,2.3,2.3,0,0,1,.25-.71A1.33,1.33,0,0,1,70.9,8.6,1.53,1.53,0,0,1,72,8.9a1.71,1.71,0,0,1,.58,1,11.7,11.7,0,0,1,.17,1.52c0,.59,0,1.21,0,1.86s0,1.33-.09,2-.11,1.38-.19,2-.16,1.29-.27,1.88-.2,1.1-.31,1.53a2,2,0,0,1-.52,1,1.37,1.37,0,0,1-.83.39,1.65,1.65,0,0,1-.94-.21,2.48,2.48,0,0,1-.87-.84A12.75,12.75,0,0,1,68.05,20q-.31-.62-.6-1.2l-.51-1.07c-.15-.33-.26-.58-.35-.74s0-.08-.07-.13a.24.24,0,0,0-.11,0,1.93,1.93,0,0,1,0,.24c0,.08,0,.17,0,.26,0,.39,0,.77,0,1.15s0,.76,0,1.14,0,.56,0,.84a4.83,4.83,0,0,1-.11.84,1.35,1.35,0,0,1-.46.85,1.46,1.46,0,0,1-.86.34,1.48,1.48,0,0,1-.9-.22,1.61,1.61,0,0,1-.59-.79,3.4,3.4,0,0,1-.2-.64,3.84,3.84,0,0,1-.09-.68c-.09-1.07-.12-2.13-.12-3.19s.06-2.12.15-3.19c0-.42.1-.84.13-1.26s.08-.83.13-1.25a1.91,1.91,0,0,1,.23-.79,1.51,1.51,0,0,1,1.54-.89,1.64,1.64,0,0,1,.88.35,1.34,1.34,0,0,1,.49.84,10.83,10.83,0,0,0,.42,1.68c.2.61.41,1.23.64,1.85s.46,1.22.69,1.81.42,1.11.59,1.55a30.79,30.79,0,0,0,.22-3.38C69.22,13.2,69.25,12,69.3,10.83Z"/><path class="cls-1" d="M37.17,28.85a7.48,7.48,0,0,1,.64-1,4,4,0,0,1,.86-.83,3.71,3.71,0,0,1,2.52-.76,3.56,3.56,0,0,1,1.26.36,4.16,4.16,0,0,1,2,2.32,3.61,3.61,0,0,1,.12,1.74,2,2,0,0,1-1.12,1.63,1,1,0,0,1-.51.13.86.86,0,0,1-.43-.12.83.83,0,0,1-.28-.33,1,1,0,0,1-.11-.48,1.76,1.76,0,0,0-.25-1,1.12,1.12,0,0,0-.57-.5.8.8,0,0,0-.69.12A1.55,1.55,0,0,0,40,31c-.14.44-.27.88-.37,1.34a9.24,9.24,0,0,0-.2,1.37,7,7,0,0,0,0,1.37,5.33,5.33,0,0,0,.33,1.35,1.16,1.16,0,0,0,.75.72,1.31,1.31,0,0,0,.89-.18,3,3,0,0,0,.83-.76,4.06,4.06,0,0,0,.58-1c0-.1.07-.2.11-.29a2.55,2.55,0,0,1,.13-.29.82.82,0,0,1,.46-.44.75.75,0,0,1,.53,0,.77.77,0,0,1,.42.32.82.82,0,0,1,.15.57c0,.25,0,.52-.05.79a4,4,0,0,1-.14.78,5.57,5.57,0,0,1-2.2,3.09,3.39,3.39,0,0,1-2.2.64,3.33,3.33,0,0,1-2-1A5.65,5.65,0,0,1,36.57,37a9.84,9.84,0,0,1-.52-2.81,12,12,0,0,1,.25-2.88A10.32,10.32,0,0,1,37.17,28.85Z"/><path class="cls-1" d="M51.28,26.34a4.94,4.94,0,0,1,1.93.33,4.49,4.49,0,0,1,1.68,1.17,6.19,6.19,0,0,1,1.16,2.05,9.58,9.58,0,0,1,.52,2.51,11.24,11.24,0,0,1-.11,2.65,9,9,0,0,1-.71,2.44,5.6,5.6,0,0,1-.9,1.43,5.6,5.6,0,0,1-2.62,1.65,5.39,5.39,0,0,1-1.49.19A4.85,4.85,0,0,1,49,40.4a4.28,4.28,0,0,1-1.35-.93,5.8,5.8,0,0,1-.95-1.36,8.94,8.94,0,0,1-.62-1.61,10.1,10.1,0,0,1-.3-1.73,12.29,12.29,0,0,1,0-1.7,9.44,9.44,0,0,1,.45-2.49,6.76,6.76,0,0,1,1.09-2.1A5.65,5.65,0,0,1,49,27,5.42,5.42,0,0,1,51.28,26.34ZM49,32.82a8,8,0,0,0-.09,3,3.18,3.18,0,0,0,.77,1.66,1.49,1.49,0,0,0,1.21.45,2.16,2.16,0,0,0,1.29-.65,4.25,4.25,0,0,0,1-1.65A6.55,6.55,0,0,0,53.51,33a5.57,5.57,0,0,0-.36-1.89A3,3,0,0,0,52.41,30a1.41,1.41,0,0,0-.93-.42,1.59,1.59,0,0,0-1,.33A2.94,2.94,0,0,0,49.62,31,5.68,5.68,0,0,0,49,32.82Z"/><path class="cls-1" d="M62.17,33.23c.53.08,1,.13,1.52.17a11.81,11.81,0,0,0,1.46.05h.38a.68.68,0,0,1,.68.52.82.82,0,0,1,0,.49.49.49,0,0,1-.32.34,4.45,4.45,0,0,1-1.5.36c-.5,0-1,.07-1.51.09l-.24,0-.25,0c0,.27.07.54.11.78s.08.5.12.77.11.62.18.93.12.61.17.93a4,4,0,0,1,.05.59,1.42,1.42,0,0,1-.27.76,1.31,1.31,0,0,1-.65.47,1.56,1.56,0,0,1-.82.07,1.15,1.15,0,0,1-.68-.43,2.21,2.21,0,0,1-.37-.55c-.1-.2-.2-.4-.29-.61a7.86,7.86,0,0,1-.51-1.74c-.1-.58-.18-1.18-.25-1.79a.69.69,0,0,1,0-.2l-.48-.11a3.1,3.1,0,0,1-.47-.14,1,1,0,0,1-.47-.35,1,1,0,0,1-.2-.48.8.8,0,0,1,.08-.5,1.11,1.11,0,0,1,.39-.42,1,1,0,0,1,.5-.21A3.06,3.06,0,0,0,59,33a2,2,0,0,0,0-.23,1.55,1.55,0,0,1,0-.22c0-.58.05-1.15.07-1.73s0-1.16.06-1.73a8.27,8.27,0,0,1,.22-1.32,1.47,1.47,0,0,1,.6-.95,1.68,1.68,0,0,1,1.13-.26,6.53,6.53,0,0,1,.66.1l.64.1.77.09c.3,0,.61,0,.93,0l.94,0h.78a1.09,1.09,0,0,1,.78.27,1.33,1.33,0,0,1,.38.67,1.63,1.63,0,0,1-.05.84,1.7,1.7,0,0,1-.48.76,2,2,0,0,1-1,.47,3.1,3.1,0,0,1-1.44-.05l-.52-.14-.56-.2c-.18-.08-.36-.15-.51-.23l-.4-.21c0,.41-.06.82-.07,1.21s0,.78,0,1.14,0,.69,0,1S62.14,33,62.17,33.23Z"/><path class="cls-1" d="M72.22,33.23c.53.08,1,.13,1.52.17a11.81,11.81,0,0,0,1.46.05h.38a.68.68,0,0,1,.68.52.82.82,0,0,1,0,.49.52.52,0,0,1-.32.34,4.5,4.5,0,0,1-1.5.36c-.5,0-1,.07-1.51.09l-.24,0-.25,0c0,.27.07.54.11.78s.07.5.12.77.11.62.17.93.13.61.18.93a4,4,0,0,1,0,.59,1.51,1.51,0,0,1-.27.76,1.31,1.31,0,0,1-.65.47,1.56,1.56,0,0,1-.82.07,1.13,1.13,0,0,1-.68-.43,2.57,2.57,0,0,1-.38-.55c-.09-.2-.19-.4-.29-.61a7.83,7.83,0,0,1-.5-1.74c-.1-.58-.18-1.18-.25-1.79a.45.45,0,0,1,0-.2l-.48-.11a3.59,3.59,0,0,1-.48-.14,1.14,1.14,0,0,1-.47-.35,1.1,1.1,0,0,1-.19-.48.8.8,0,0,1,.08-.5,1.08,1.08,0,0,1,.38-.42,1.11,1.11,0,0,1,.51-.21,2.77,2.77,0,0,0,.5-.1.93.93,0,0,0,0-.23,1.5,1.5,0,0,1,0-.22c0-.58.05-1.15.06-1.73s0-1.16.07-1.73a7.26,7.26,0,0,1,.21-1.32,1.52,1.52,0,0,1,.61-.95,1.66,1.66,0,0,1,1.13-.26c.22,0,.45.06.66.1l.63.1.78.09c.3,0,.61,0,.93,0l.94,0h.78a1.09,1.09,0,0,1,.78.27,1.33,1.33,0,0,1,.38.67,1.72,1.72,0,0,1-.54,1.6,2,2,0,0,1-.94.47,3.15,3.15,0,0,1-1.45-.05l-.51-.14-.56-.2c-.19-.08-.36-.15-.51-.23l-.4-.21c0,.41-.06.82-.07,1.21s0,.78,0,1.14,0,.69.05,1S72.19,33,72.22,33.23Z"/><path class="cls-1" d="M81.69,29.75a5,5,0,0,0-.46,1.46c-.06.48-.11,1-.15,1.48h.51a4.17,4.17,0,0,0,.5,0l.49,0a2.09,2.09,0,0,1,.5,0,.9.9,0,0,1,.56.19.83.83,0,0,1,.29.46,1,1,0,0,1-.06.57.75.75,0,0,1-.45.4,7.52,7.52,0,0,1-.84.28c-.29.08-.58.16-.85.26a2.44,2.44,0,0,1-.26.06l-.28.08.18,1.1c.06.36.12.74.2,1.14a5.54,5.54,0,0,0,.85-.9c.25-.32.5-.64.77-1A1.54,1.54,0,0,1,84,34.8a1.06,1.06,0,0,1,.73.05.82.82,0,0,1,.43.55,1.49,1.49,0,0,1-.1,1,8.37,8.37,0,0,1-.7,1.41,7.12,7.12,0,0,1-1,1.32A4,4,0,0,1,82,40a1.91,1.91,0,0,1-1.41,0,3,3,0,0,1-1.45-1,5.06,5.06,0,0,1-.88-1.64,8.68,8.68,0,0,1-.43-2,17.77,17.77,0,0,1-.07-2.18,16.13,16.13,0,0,1,.18-2,15,15,0,0,1,.32-1.6A5.8,5.8,0,0,1,78.93,28a3,3,0,0,1,1.5-1.29,3.73,3.73,0,0,1,1.89-.12A5.45,5.45,0,0,1,83.5,27a7.86,7.86,0,0,1,1.06.64,2.19,2.19,0,0,1,.83,1.16,1.88,1.88,0,0,1,.06.84,1.31,1.31,0,0,1-.38.71,1.14,1.14,0,0,1-.71.41,1.94,1.94,0,0,1-.79,0,2.28,2.28,0,0,1-.51-.21l-.48-.26L82.13,30A3.28,3.28,0,0,1,81.69,29.75Z"/><path class="cls-1" d="M90.17,29.75a5,5,0,0,0-.46,1.46c-.07.48-.12,1-.15,1.48h.51a4.21,4.21,0,0,0,.5,0l.49,0a2.09,2.09,0,0,1,.5,0,.92.92,0,0,1,.56.19.89.89,0,0,1,.29.46,1,1,0,0,1-.07.57.7.7,0,0,1-.44.4,7.69,7.69,0,0,1-.85.28c-.28.08-.57.16-.84.26a2.44,2.44,0,0,1-.26.06l-.28.08.18,1.1c.06.36.12.74.19,1.14a5.2,5.2,0,0,0,.86-.9c.25-.32.5-.64.77-1a1.54,1.54,0,0,1,.76-.54,1.06,1.06,0,0,1,.73.05.82.82,0,0,1,.43.55,1.56,1.56,0,0,1-.1,1,8.37,8.37,0,0,1-.7,1.41,7.12,7.12,0,0,1-1,1.32,4.14,4.14,0,0,1-1.27.86,1.91,1.91,0,0,1-1.41,0,3,3,0,0,1-1.45-1,5.07,5.07,0,0,1-.89-1.64,9.22,9.22,0,0,1-.42-2,17.51,17.51,0,0,1,.11-4.21,12.84,12.84,0,0,1,.32-1.6A5.8,5.8,0,0,1,87.41,28a3,3,0,0,1,1.5-1.29,3.73,3.73,0,0,1,1.89-.12A5.36,5.36,0,0,1,92,27a7.38,7.38,0,0,1,1.07.64,2.24,2.24,0,0,1,.83,1.16,2,2,0,0,1,.06.84,1.27,1.27,0,0,1-.39.71,1.12,1.12,0,0,1-.7.41,1.94,1.94,0,0,1-.79,0,2.28,2.28,0,0,1-.51-.21c-.15-.09-.32-.18-.49-.26L90.61,30A3.28,3.28,0,0,1,90.17,29.75Z"/><path class="cls-1" d="M17.49,6.79c-.47,1.83-.78,3.37-1.27,4.84A15.58,15.58,0,0,0,18.41,26c3.09,4.58,3.84,9.34,1.5,14.49a2.48,2.48,0,0,1-2.64,1.67c-4.27-.08-7-2.5-8.75-6A26,26,0,0,1,8.27,13.2,10.08,10.08,0,0,1,17.49,6.79Z"/><path class="cls-2" d="M22.28,41.45c.5-1.65.84-2.89,1.24-4.1,1.25-3.81,1-7.53-1.52-10.65C17.27,20.88,17.46,14.63,19.62,8c.52-1.59,1.27-1.82,2.66-1.5a10.59,10.59,0,0,1,6.87,5.18c4.65,8,4.65,16.13.21,24.19A11.16,11.16,0,0,1,22.28,41.45Z"/></svg>