<svg id="Слой_1" data-name="Слой 1" xmlns="http://www.w3.org/2000/svg" viewBox="0 0 50 50"><defs><style>.cls-1{fill:#fff;}</style></defs><path class="cls-1" d="M4.69,23.44h0l.45.09Zm0,0h0l.45.09Zm0,0h0l.45.09Zm0,0h0l.45.09Zm0,0h0l.45.09Z"/><path class="cls-1" d="M24.07,10.56a27.31,27.31,0,0,1-.63,5.85A25.84,25.84,0,0,1,21.7,21.7a26.41,26.41,0,0,1-5.24,1.74,27.87,27.87,0,0,1-5.91.63,27.52,27.52,0,0,1-5.42-.53h0l-.43-.1.43-.1-.45.09A24.12,24.12,0,0,1,23.44,4.67h0v0A27.33,27.33,0,0,1,24.07,10.56Z"/><path class="cls-1" d="M5.12,23.54l-.45-.09h0Z"/><path class="cls-1" d="M23.44,4.66A28.25,28.25,0,0,0,17.56,4,26.88,26.88,0,0,0,6.41,6.41,26.83,26.83,0,0,0,4,17.55a27.52,27.52,0,0,0,.63,5.88h0A24.12,24.12,0,0,1,23.44,4.67h0Z"/><path class="cls-1" d="M26.55,4.68h0l-.09.45C26.49,5,26.52,4.83,26.55,4.68Zm0,0h0l-.09.45C26.49,5,26.52,4.83,26.55,4.68Zm0,0h0l-.09.45C26.49,5,26.52,4.83,26.55,4.68Zm0,0h0l-.09.45C26.49,5,26.52,4.83,26.55,4.68Zm0,0h0l-.09.45C26.49,5,26.52,4.83,26.55,4.68Z"/><path class="cls-1" d="M39.44,24.07a28.06,28.06,0,0,1-5.86-.62,26.69,26.69,0,0,1-5.29-1.75,26.41,26.41,0,0,1-1.74-5.24,27.87,27.87,0,0,1-.63-5.91,28.3,28.3,0,0,1,.53-5.42h0c0-.14.07-.29.1-.43,0,.14.07.29.1.43l-.09-.45A24.11,24.11,0,0,1,45.33,23.44h0A28.06,28.06,0,0,1,39.44,24.07Z"/><path class="cls-1" d="M26.45,5.12l.09-.45h0C26.52,4.83,26.49,5,26.45,5.12Z"/><path class="cls-1" d="M45.34,23.44A28.25,28.25,0,0,0,46,17.56,26.88,26.88,0,0,0,43.59,6.41,26.88,26.88,0,0,0,32.44,4a27.59,27.59,0,0,0-5.88.63h0A24.15,24.15,0,0,1,45.33,23.44h0Z"/><path class="cls-1" d="M45.31,26.56h0l-.45-.09Zm0,0h0l-.45-.09Zm0,0h0l-.45-.09Zm0,0h0l-.45-.09Zm0,0h0l-.45-.09Z"/><path class="cls-1" d="M25.93,39.44a27.31,27.31,0,0,1,.63-5.85A25.84,25.84,0,0,1,28.3,28.3a26.41,26.41,0,0,1,5.24-1.74,27.87,27.87,0,0,1,5.91-.63,27.52,27.52,0,0,1,5.42.53h0l.43.1-.43.1.45-.09A24.12,24.12,0,0,1,26.56,45.33h0v0A27.33,27.33,0,0,1,25.93,39.44Z"/><path class="cls-1" d="M44.88,26.46l.45.09h0Z"/><path class="cls-1" d="M26.56,45.34a28.25,28.25,0,0,0,5.88.62,26.88,26.88,0,0,0,11.15-2.37A26.83,26.83,0,0,0,46,32.45a27.52,27.52,0,0,0-.63-5.88h0A24.12,24.12,0,0,1,26.56,45.33h0Z"/><path class="cls-1" d="M23.45,45.32h0l.09-.45C23.51,45,23.48,45.17,23.45,45.32Zm0,0h0l.09-.45C23.51,45,23.48,45.17,23.45,45.32Zm0,0h0l.09-.45C23.51,45,23.48,45.17,23.45,45.32Zm0,0h0l.09-.45C23.51,45,23.48,45.17,23.45,45.32Zm0,0h0l.09-.45C23.51,45,23.48,45.17,23.45,45.32Z"/><path class="cls-1" d="M10.56,25.93a28.06,28.06,0,0,1,5.86.62,26.69,26.69,0,0,1,5.29,1.75,26.41,26.41,0,0,1,1.74,5.24,27.87,27.87,0,0,1,.63,5.91,28.3,28.3,0,0,1-.53,5.42h0c0,.14-.07.29-.1.43,0-.14-.07-.29-.1-.43l.09.45A24.11,24.11,0,0,1,4.67,26.56h0A28.06,28.06,0,0,1,10.56,25.93Z"/><path class="cls-1" d="M23.55,44.88l-.09.45h0C23.48,45.17,23.51,45,23.55,44.88Z"/><path class="cls-1" d="M4.66,26.56A28.25,28.25,0,0,0,4,32.44,26.88,26.88,0,0,0,6.41,43.59,26.88,26.88,0,0,0,17.56,46a27.59,27.59,0,0,0,5.88-.63h0A24.15,24.15,0,0,1,4.67,26.56h0Z"/></svg>