<?xml version="1.0" encoding="utf-8"?>
<!-- Generator: Adobe Illustrator 26.0.1, SVG Export Plug-In . SVG Version: 6.00 Build 0)  -->
<svg version="1.1" id="Слой_1" xmlns="http://www.w3.org/2000/svg" xmlns:xlink="http://www.w3.org/1999/xlink" x="0px" y="0px"
	 viewBox="0 0 50 50" style="enable-background:new 0 0 50 50;" xml:space="preserve">
<style type="text/css">
	.st0{fill:#20201B;}
	.st1{fill:url(#SVGID_1_);}
	.st2{fill:url(#SVGID_00000003788908535978270990000010528528643854033582_);}
	.st3{fill:#FFFFFF;}
	.st4{fill:url(#SVGID_00000027583006490036505370000008668853529272970888_);}
	.st5{fill:url(#SVGID_00000119805108825268459230000012274948040473119126_);}
	.st6{fill:url(#SVGID_00000087370497347151153760000008623955116174884522_);}
</style>
<rect x="-72.5" y="-5" class="st0" width="58" height="57.2"/>
<linearGradient id="SVGID_1_" gradientUnits="userSpaceOnUse" x1="-59.7191" y1="24.95" x2="-27.3737" y2="24.95" gradientTransform="matrix(1 0 0 -1 0 50)">
	<stop  offset="0" style="stop-color:#B2569B"/>
	<stop  offset="1" style="stop-color:#6EC5D2"/>
</linearGradient>
<rect x="-59.7" y="9.1" class="st1" width="32.3" height="31.9"/>
<linearGradient id="SVGID_00000163065210566425688660000001084694565120589738_" gradientUnits="userSpaceOnUse" x1="72.4394" y1="24.6641" x2="125.3822" y2="24.6641" gradientTransform="matrix(1 0 0 -1 0 50)">
	<stop  offset="0" style="stop-color:#B2569B"/>
	<stop  offset="1" style="stop-color:#6EC5D2"/>
</linearGradient>
<rect x="72.4" y="-0.8" style="fill:url(#SVGID_00000163065210566425688660000001084694565120589738_);" width="52.9" height="52.2"/>
<rect x="76.4" y="1.9" class="st0" width="45" height="46.4"/>
<g>
	<g>
		<g>
			<path class="st3" d="M95.2,25.7h0.4c0.2,0,0.4,0.1,0.5,0.2l7.3,7.3c0.3,0.3,0.7,0.3,1,0l7.3-7.3c0.1-0.1,0.3-0.2,0.5-0.2h0.4
				c0.4,0,0.7,0.4,0.7,0.7V44c0,0.4-0.4,0.7-0.7,0.7h-4.4c-0.4,0-0.7-0.4-0.7-0.7v-7.2c0-0.4,0.4-0.7,0.7-0.7h0.1
				c0.4,0,0.7,0.4,0.7,0.7v5.8c0,0.4,0.4,0.7,0.7,0.7h1.4c0.4,0,0.7-0.4,0.7-0.7V29.6c0-0.6-0.8-1-1.2-0.5l-6.3,6.3
				c-0.3,0.3-0.7,0.3-1,0l-6.2-6.2c-0.4-0.4-1.2-0.1-1.2,0.5v12.9c0,0.4,0.4,0.7,0.7,0.7h1.4c0.4,0,0.7-0.4,0.7-0.7v-2.9
				c0-0.4,0.4-0.7,0.7-0.7l0,0c0.4,0,0.7,0.4,0.7,0.7v4.4c0,0.4-0.4,0.7-0.7,0.7h-4.4c-0.4,0-0.7-0.4-0.7-0.7V26.5
				C94.5,26.1,94.8,25.7,95.2,25.7z"/>
		</g>
		<g>
			<path class="st3" d="M92.2,29.2L92.2,29.2c-0.6,0-1.1,0.5-1.1,1.1v2.1c0,0.6-0.5,1.1-1.1,1.1h-2.2c-0.6,0-1.1-0.5-1.1-1.1v-9
				v-2.1v-2.8v-4v-4.3V9.7V6.4c0-0.6-0.5-1.1-1.1-1.1h-0.2c-0.6,0-1.1,0.5-1.1,1.1v3.2v0.4v4.4v4v2.8v2v11.3c0,0.6,0.5,1.1,1.1,1.1
				h6.7c0.6,0,1.1-0.5,1.1-1.1v-4.4C93.3,29.6,92.9,29.2,92.2,29.2z"/>
			<path class="st3" d="M112.3,5.4H90c-0.6,0-1.1,0.5-1.1,1.1v0.1c0,0.6,0.5,1.1,1.1,1.1h20.1c0.6,0,1.1,0.5,1.1,1.1v0.5v0.4v2.1
				v0.6v2.3v0.2v6.3c0,0.6-0.5,1.1-1.1,1.1H92.2c-0.6,0-1.1-0.5-1.1-1.1v-2.2c0-0.6,0.5-1.1,1.1-1.1h11.1c0.6,0,1.1-0.5,1.1-1.1
				v-0.1c0-0.6-0.5-1.1-1.1-1.1H90.1c-0.6,0-1.1,0.5-1.1,1.1v6.8c0,0.6,0.5,1.1,1.1,1.1h22.2c0.6,0,1.1-0.5,1.1-1.1v-8.7v-0.2v-2.3
				v-0.6V9.6V9.1V6.4C113.4,5.9,112.9,5.4,112.3,5.4z"/>
		</g>
	</g>
</g>
<rect x="231.4" y="-56.1" class="st0" width="380" height="161"/>
<g>
	<g>
		<g>
			
				<linearGradient id="SVGID_00000165957543780179806580000004973405508299860379_" gradientUnits="userSpaceOnUse" x1="286.8" y1="55.5" x2="343.5" y2="55.5">
				<stop  offset="0" style="stop-color:#B2569B"/>
				<stop  offset="1" style="stop-color:#F6E724"/>
			</linearGradient>
			<path style="fill:url(#SVGID_00000165957543780179806580000004973405508299860379_);" d="M289,26.9h1.2c0.6,0,1.1,0.2,1.5,0.6
				l22,22c0.8,0.8,2.2,0.8,3,0l22-22c0.4-0.4,0.9-0.6,1.5-0.6h1.2c1.2,0,2.1,1,2.1,2.1v52.7c0,1.2-1,2.1-2.1,2.1h-13.1
				c-1.2,0-2.1-1-2.1-2.1V60c0-1.2,1-2.1,2.1-2.1h0.2c1.2,0,2.1,1,2.1,2.1v17.4c0,1.2,1,2.1,2.1,2.1h4.4c1.2,0,2.1-1,2.1-2.1V38.5
				c0-1.9-2.3-2.9-3.6-1.5l-19,18.9c-0.8,0.8-2.2,0.8-3,0l-18.8-18.8c-1.3-1.3-3.6-0.4-3.6,1.5v38.8c0,1.2,1,2.1,2.1,2.1h4.4
				c1.2,0,2.1-1,2.1-2.1v-8.6c0-1.2,1-2.1,2.1-2.1l0,0c1.2,0,2.1,1,2.1,2.1V82c0,1.2-1,2.1-2.1,2.1h-13c-1.2,0-2.1-1-2.1-2.1V29
				C286.8,27.9,287.8,26.9,289,26.9z"/>
		</g>
		<g>
			<path class="st3" d="M351.4-0.3v17.6c0,1.2,0.9,2.1,2.1,2.1h8.9c1.2,0,2.1-0.9,2.1-2.1V3.9c0-1.2-0.9-2.1-2.1-2.1h-0.1
				c-1.2,0-2.1,0.9-2.1,2.1l0,0c0,1.2-0.9,2.1-2.1,2.1h-0.4c-1.2,0-2.1-0.9-2.1-2.1v-4.2c0-1.2,0.9-2.1,2.1-2.1h9.1
				c1.2,0,2.1,0.9,2.1,2.1v21.8c0,1.2-0.9,2.1-2.1,2.1H349c-1.2,0-2.1-0.9-2.1-2.1V-0.3c0-1.2,0.9-2.1,2.1-2.1h0.2
				C350.5-2.4,351.4-1.5,351.4-0.3z"/>
			<path class="st3" d="M394.9-0.3v1.1c0,0.6-0.2,1.1-0.6,1.5L381,15.6c-1.3,1.3-0.4,3.6,1.5,3.6h10.1c1.2,0,2.1,0.9,2.1,2.1v0.1
				c0,1.2-0.9,2.1-2.1,2.1H375c-1.2,0-2.1-0.9-2.1-2.1v-3.3c0-0.6,0.2-1.1,0.6-1.5l11.2-11.2c1.3-1.3,0.4-3.6-1.5-3.6h-3.7
				c-1.2,0-2.1,0.9-2.1,2.1l0,0c0,1.2-0.9,2.1-2.1,2.1h-0.4c-1.2,0-2.1-0.9-2.1-2.1v-4.2c0-1.2,0.9-2.1,2.1-2.1h17.9
				C394-2.4,394.9-1.5,394.9-0.3z"/>
			<path class="st3" d="M421.3-0.3v1.1c0,0.6-0.2,1.1-0.6,1.5l-13.3,13.3c-1.3,1.3-0.4,3.6,1.5,3.6H419c1.2,0,2.1,0.9,2.1,2.1v0.1
				c0,1.2-0.9,2.1-2.1,2.1h-17.6c-1.2,0-2.1-0.9-2.1-2.1v-3.3c0-0.6,0.2-1.1,0.6-1.5l11.2-11.2c1.3-1.3,0.4-3.6-1.5-3.6h-3.7
				c-1.2,0-2.1,0.9-2.1,2.1l0,0c0,1.2-0.9,2.1-2.1,2.1h-0.4c-1.2,0-2.1-0.9-2.1-2.1v-4.2c0-1.2,0.9-2.1,2.1-2.1h17.9
				C420.3-2.4,421.3-1.5,421.3-0.3z"/>
			<path class="st3" d="M427.5-33.7h8.5c1.2,0,2.1,0.9,2.1,2.1v8.9c0,1.2-0.9,2.1-2.1,2.1h-0.1c-1.2,0-2.1-0.9-2.1-2.1v-4.4
				c0-1.2-0.9-2.1-2.1-2.1l0,0c-1.2,0-2.1,0.9-2.1,2.1V17c0,1.2,0.9,2.1,2.1,2.1h8.9c1.2,0,2.1-0.9,2.1-2.1V-0.6
				c0-1.2,0.9-2.1,2.1-2.1l0,0c1.2,0,2.1,0.9,2.1,2.1v22c0,1.2-0.9,2.1-2.1,2.1h-17.3c-1.2,0-2.1-0.9-2.1-2.1v-53
				C425.4-32.7,426.4-33.7,427.5-33.7z"/>
			<path class="st3" d="M453.2-2.9h17.1c1.2,0,2.1,0.9,2.1,2.1v8.9c0,1.2-0.9,2.1-2.1,2.1h-8.5c-1.2,0-2.1-0.9-2.1-2.1V7.9
				c0-1.2,0.9-2.1,2.1-2.1h4.3c1.2,0,2.1-0.9,2.1-2.1l0,0c0-1.2-0.9-2.1-2.1-2.1h-8.7c-1.2,0-2.1,0.9-2.1,2.1v13.2
				c0,1.2,0.9,2.1,2.1,2.1h8.7c1.2,0,2.1-0.9,2.1-2.1l0,0c0-1.2,0.9-2.1,2.1-2.1h0.2c1.2,0,2.1,0.9,2.1,2.1v4.6
				c0,1.2-0.9,2.1-2.1,2.1h-17.3c-1.2,0-2.1-0.9-2.1-2.1V-0.8C451.1-2,452.1-2.9,453.2-2.9z"/>
		</g>
		<g>
			<path class="st3" d="M369.1,29v21.8c0,1.2-0.9,2.1-2.1,2.1h-17.9c-1.2,0-2.1-0.9-2.1-2.1v-8.5c0-1.2,0.9-2.1,2.1-2.1h8.9
				c1.2,0,2.1,0.9,2.1,2.1l0,0c0,1.2-0.9,2.1-2.1,2.1h-4.3c-1.2,0-2.1,0.9-2.1,2.1v0.1c0,1.2,0.9,2.1,2.1,2.1h8.9
				c1.2,0,2.1-0.9,2.1-2.1V33.2c0-1.2-0.9-2.1-2.1-2.1h-8.9c-1.2,0-2.1,0.9-2.1,2.1v0.1c0,1.2-0.9,2.1-2.1,2.1h-0.4
				c-1.2,0-2.1-0.9-2.1-2.1V29c0-1.2,0.9-2.1,2.1-2.1H367C368.1,26.9,369.1,27.8,369.1,29z"/>
			<path class="st3" d="M394.8,29v21.8c0,1.2-0.9,2.1-2.1,2.1h-9c-1.2,0-2.1-0.9-2.1-2.1v-4.2c0-1.2,0.9-2.1,2.1-2.1h0.2
				c1.2,0,2.1,0.9,2.1,2.1l0,0c0,1.2,0.9,2.1,2.1,2.1l0,0c1.2,0,2.1-0.9,2.1-2.1V33.3c0-1.2-0.9-2.1-2.1-2.1h-8.9
				c-1.2,0-2.1,0.9-2.1,2.1v17.4c0,1.2-0.9,2.1-2.1,2.1h-0.2c-1.2,0-2.1-0.9-2.1-2.1V29c0-1.2,0.9-2.1,2.1-2.1h17.9
				C393.8,26.9,394.8,27.8,394.8,29z"/>
			<path class="st3" d="M420.5,29v21.8c0,1.2-0.9,2.1-2.1,2.1h-17.9c-1.2,0-2.1-0.9-2.1-2.1v-8.5c0-1.2,0.9-2.1,2.1-2.1h8.9
				c1.2,0,2.1,0.9,2.1,2.1l0,0c0,1.2-0.9,2.1-2.1,2.1h-4.3c-1.2,0-2.1,0.9-2.1,2.1v0.1c0,1.2,0.9,2.1,2.1,2.1h8.9
				c1.2,0,2.1-0.9,2.1-2.1V33.2c0-1.2-0.9-2.1-2.1-2.1h-8.9c-1.2,0-2.1,0.9-2.1,2.1v0.1c0,1.2-0.9,2.1-2.1,2.1h-0.4
				c-1.2,0-2.1-0.9-2.1-2.1V29c0-1.2,0.9-2.1,2.1-2.1h17.9C419.5,26.9,420.5,27.8,420.5,29z"/>
			<path class="st3" d="M426.1,26.5h17.3c1.2,0,2.1,0.9,2.1,2.1v13.2c0,1.2-0.9,2.1-2.1,2.1l0,0c-1.2,0-2.1-0.9-2.1-2.1V33
				c0-1.2-0.9-2.1-2.1-2.1h-8.8c-1.2,0-2.1,0.9-2.1,2.1v13.3c0,1.2,0.9,2.1,2.1,2.1h13.1c1.2,0,2.1,0.9,2.1,2.1v31
				c0,1.2-0.9,2.1-2.1,2.1h-17.3c-1.2,0-2.1-0.9-2.1-2.1V63.6c0-1.2,0.9-2.1,2.1-2.1h8.7c1.2,0,2.1,0.9,2.1,2.1V64
				c0,1.2-0.9,2.1-2.1,2.1h-4.3c-1.2,0-2.1,0.9-2.1,2.1V77c0,1.2,0.9,2.1,2.1,2.1h8.7c1.2,0,2.1-0.9,2.1-2.1V55.2
				c0-1.2-0.9-2.1-2.1-2.1h-13c-1.2,0-2.1-0.9-2.1-2.1V28.6C424,27.4,425,26.5,426.1,26.5z"/>
			<path class="st3" d="M451.7,26.4h17.1c1.2,0,2.1,0.9,2.1,2.1v8.9c0,1.2-0.9,2.1-2.1,2.1h-8.5c-1.2,0-2.1-0.9-2.1-2.1v-0.2
				c0-1.2,0.9-2.1,2.1-2.1h4.3c1.2,0,2.1-0.9,2.1-2.1l0,0c0-1.2-0.9-2.1-2.1-2.1h-8.7c-1.2,0-2.1,0.9-2.1,2.1v13.2
				c0,1.2,0.9,2.1,2.1,2.1h8.7c1.2,0,2.1-0.9,2.1-2.1l0,0c0-1.2,0.9-2.1,2.1-2.1h0.2c1.2,0,2.1,0.9,2.1,2.1v4.6
				c0,1.2-0.9,2.1-2.1,2.1h-17.3c-1.2,0-2.1-0.9-2.1-2.1V28.5C449.6,27.3,450.6,26.4,451.7,26.4z"/>
			<path class="st3" d="M497.2,29v21.8c0,1.2-0.9,2.1-2.1,2.1h-0.4c-1.2,0-2.1-0.9-2.1-2.1V33.2c0-1.2-0.9-2.1-2.1-2.1h-0.1
				c-1.2,0-2.1,0.9-2.1,2.1v4.4c0,1.2-0.9,2.1-2.1,2.1H486c-1.2,0-2.1-0.9-2.1-2.1v-4.4c0-1.2-0.9-2.1-2.1-2.1l0,0
				c-1.2,0-2.1,0.9-2.1,2.1v17.6c0,1.2-0.9,2.1-2.1,2.1h-0.2c-1.2,0-2.1-0.9-2.1-2.1V29c0-1.2,0.9-2.1,2.1-2.1h17.8
				C496.2,26.9,497.2,27.8,497.2,29z"/>
			<path class="st3" d="M503.5,26.4h17.1c1.2,0,2.1,0.9,2.1,2.1v8.9c0,1.2-0.9,2.1-2.1,2.1h-8.5c-1.2,0-2.1-0.9-2.1-2.1v-0.2
				c0-1.2,0.9-2.1,2.1-2.1h4.3c1.2,0,2.1-0.9,2.1-2.1l0,0c0-1.2-0.9-2.1-2.1-2.1h-8.7c-1.2,0-2.1,0.9-2.1,2.1v13.2
				c0,1.2,0.9,2.1,2.1,2.1h8.7c1.2,0,2.1-0.9,2.1-2.1l0,0c0-1.2,0.9-2.1,2.1-2.1h0.2c1.2,0,2.1,0.9,2.1,2.1v4.6
				c0,1.2-0.9,2.1-2.1,2.1h-17.3c-1.2,0-2.1-0.9-2.1-2.1V28.5C501.4,27.3,502.3,26.4,503.5,26.4z"/>
			<path class="st3" d="M549,29v21.8c0,1.2-0.9,2.1-2.1,2.1h-9c-1.2,0-2.1-0.9-2.1-2.1v-4.2c0-1.2,0.9-2.1,2.1-2.1h0.2
				c1.2,0,2.1,0.9,2.1,2.1l0,0c0,1.2,0.9,2.1,2.1,2.1l0,0c1.2,0,2.1-0.9,2.1-2.1V33.3c0-1.2-0.9-2.1-2.1-2.1h-8.9
				c-1.2,0-2.1,0.9-2.1,2.1v17.4c0,1.2-0.9,2.1-2.1,2.1H529c-1.2,0-2.1-0.9-2.1-2.1V29c0-1.2,0.9-2.1,2.1-2.1h17.9
				C548.1,26.9,549,27.8,549,29z"/>
			<path class="st3" d="M578.8,42.2v4.1c0,1.2-1,2.2-2.2,2.2h-8.8c-1.2,0-2.2-1-2.2-2.2v-13c0-1.2,1-2.2,2.2-2.2h4.1
				c1.2,0,2.2-1,2.2-2.2l0,0c0-1.2-1-2.2-2.2-2.2h-4.1c-1.2,0-2.2-1-2.2-2.2c0-5.6,0.1-20.4,0.1-26.1c0-1.2-1-2.2-2.2-2.2h-0.1
				c-1.2,0-2.2,1-2.2,2.2v26.1c0,1.2-1,2.2-2.2,2.2h-4.1c-1.2,0-2.2,1-2.2,2.2l0,0c0,1.2,1,2.2,2.2,2.2h4.1c1.2,0,2.2,1,2.2,2.2
				v17.3c0,1.2,1,2.2,2.2,2.2h19.8l0.1-0.1V42.2c0-1.2-1-2.2-2.2-2.2l0,0C579.8,40,578.8,41,578.8,42.2z"/>
		</g>
		<g>
			
				<linearGradient id="SVGID_00000132776249064573418960000014043227747234940557_" gradientUnits="userSpaceOnUse" x1="256.7408" y1="11.4" x2="343.6002" y2="11.4">
				<stop  offset="0" style="stop-color:#B2569B"/>
				<stop  offset="1" style="stop-color:#6EC5D2"/>
			</linearGradient>
			<path style="fill:url(#SVGID_00000132776249064573418960000014043227747234940557_);" d="M280.1,37.2L280.1,37.2
				c-1.8,0-3.3,1.5-3.3,3.3v6.4c0,1.8-1.5,3.3-3.3,3.3h-6.6c-1.8,0-3.3-1.5-3.3-3.3V19.8v-6.2V5.4v-12v-12.9v-1.6v-9.7
				c0-1.8-1.5-3.3-3.3-3.3h-0.2c-1.8,0-3.3,1.5-3.3,3.3v9.5v1.3v13.1V5.2v8.4v6v34c0,1.8,1.5,3.3,3.3,3.3h20c1.8,0,3.3-1.5,3.3-3.3
				V40.5C283.4,38.7,281.9,37.2,280.1,37.2z"/>
			
				<linearGradient id="SVGID_00000054971109633027105180000002134590717023604142_" gradientUnits="userSpaceOnUse" x1="256.316" y1="-5.2" x2="343.6002" y2="-5.2">
				<stop  offset="0" style="stop-color:#B2569B"/>
				<stop  offset="1" style="stop-color:#6EC5D2"/>
			</linearGradient>
			<path style="fill:url(#SVGID_00000054971109633027105180000002134590717023604142_);" d="M340.3-34.1h-66.8
				c-1.8,0-3.3,1.5-3.3,3.3v0.2c0,1.8,1.5,3.3,3.3,3.3h60.2c1.8,0,3.3,1.5,3.3,3.3v1.5v1.3v6.2v1.8v6.9v0.6v19.1
				c0,1.8-1.5,3.3-3.3,3.3h-53.5c-1.8,0-3.3-1.5-3.3-3.3V6.8c0-1.8,1.5-3.3,3.3-3.3h33.2c1.8,0,3.3-1.5,3.3-3.3V0
				c0-1.8-1.5-3.3-3.3-3.3h-39.6c-1.8,0-3.3,1.5-3.3,3.3v20.4c0,1.8,1.5,3.3,3.3,3.3h66.5c1.8,0,3.3-1.5,3.3-3.3V-5.8v-0.6v-6.9
				v-1.8v-6.2v-1.3v-8.3C343.6-32.6,342.1-34.1,340.3-34.1z"/>
		</g>
	</g>
</g>
<g>
	<path class="st3" d="M20.9,25.7h0.4c0.2,0,0.4,0.1,0.6,0.2l8,8c0.3,0.3,0.8,0.3,1.1,0l8-8c0.1-0.1,0.3-0.2,0.5-0.2H40
		c0.4,0,0.8,0.3,0.8,0.8c0,0,0,0,0,0v19.2c0,0.4-0.3,0.8-0.8,0.8l0,0h-4.8c-0.4,0-0.8-0.3-0.8-0.8l0,0v-7.9c0-0.4,0.3-0.8,0.8-0.8
		c0,0,0,0,0,0h0.1c0.4,0,0.8,0.3,0.8,0.8l0,0v6.4c0,0.4,0.3,0.8,0.8,0.8c0,0,0,0,0,0h1.6c0.4,0,0.8-0.4,0.8-0.8V29.9
		c0-0.4-0.3-0.8-0.8-0.8c-0.2,0-0.4,0.1-0.6,0.2L31,36.3c-0.3,0.3-0.8,0.3-1.1,0L23,29.4c-0.3-0.3-0.8-0.3-1.1,0
		c-0.1,0.1-0.2,0.3-0.2,0.5v14.2c0,0.4,0.4,0.8,0.8,0.8h1.6c0.4,0,0.8-0.3,0.8-0.8l0,0V41c0-0.4,0.4-0.8,0.8-0.8l0,0
		c0.4,0,0.8,0.3,0.8,0.8v4.8c0,0.4-0.3,0.8-0.8,0.8c0,0,0,0,0,0h-4.7c-0.4,0-0.8-0.3-0.8-0.8l0,0V26.5C20.1,26,20.5,25.7,20.9,25.7z
		"/>
	<path class="st3" d="M17.7,29.4L17.7,29.4c-0.7,0-1.2,0.5-1.2,1.2c0,0,0,0,0,0V33c0,0.7-0.5,1.2-1.2,1.2c0,0,0,0,0,0h-2.4
		c-0.7,0-1.2-0.5-1.2-1.2l0,0V4.6c0-0.7-0.5-1.2-1.2-1.2h-0.1C9.7,3.4,9.2,4,9.1,4.6c0,0,0,0,0,0v30.8c0,0.7,0.5,1.2,1.2,1.2
		c0,0,0,0,0,0h7.3c0.7,0,1.2-0.5,1.2-1.2v-4.8C18.8,30,18.3,29.5,17.7,29.4z"/>
	<path class="st3" d="M39.6,3.4H15.2C14.6,3.4,14,4,14,4.6v0.1c0,0.7,0.5,1.2,1.2,1.2h22c0.7,0,1.2,0.5,1.2,1.2c0,0,0,0,0,0v13.6
		c0,0.7-0.5,1.2-1.2,1.2H17.7c-0.7,0-1.2-0.5-1.2-1.2v-2.4c0-0.7,0.5-1.2,1.2-1.2h12.1c0.7,0,1.2-0.5,1.2-1.2v-0.1
		c0-0.7-0.5-1.2-1.2-1.2H15.4c-0.7,0-1.2,0.5-1.2,1.2v7.4c0,0.7,0.5,1.2,1.2,1.2c0,0,0,0,0,0h24.3c0.7,0,1.2-0.5,1.2-1.2
		c0,0,0,0,0,0V4.6C40.9,4,40.3,3.4,39.6,3.4C39.7,3.4,39.6,3.4,39.6,3.4z"/>
</g>
</svg>
