<?xml version="1.0" encoding="utf-8"?>
<!-- Generator: Adobe Illustrator 26.0.1, SVG Export Plug-In . SVG Version: 6.00 Build 0)  -->
<svg version="1.1" id="Слой_1" xmlns="http://www.w3.org/2000/svg" xmlns:xlink="http://www.w3.org/1999/xlink" x="0px" y="0px"
	 viewBox="0 0 595.3 282.8" style="enable-background:new 0 0 595.3 282.8;" xml:space="preserve">
<style type="text/css">
	.st0{opacity:0.61;}
	.st1{fill:#353535;}
	.st2{fill-rule:evenodd;clip-rule:evenodd;fill:#D1D1D1;}
</style>
<image style="overflow:visible;" width="3000" height="1688" xlink:href="bg-.jpg"  transform="matrix(0.2 0 0 0.2 -2.35 -27.4)">
</image>
<g class="st0">
	<path class="st1" d="M395.6,327.7h-56.5l-9.7-64.6h-68.7l-9.7,64.6h-51.4l57.1-356.4h82L395.6,327.7z"/>
</g>
<g>
	<path class="st2" d="M260.3,210.5c-1.5,1.5-1.5,3.9,0,5.4c1.5,1.5,3.9,1.5,5.4,0c1.5-1.5,1.5-3.9,0-5.4
		C264.3,209,261.8,209,260.3,210.5z"/>
	<path class="st2" d="M299.7,128.5c2.1,0,3.9-1.7,3.9-3.9c0-2.1-1.7-3.9-3.9-3.9c-2.1,0-3.9,1.7-3.9,3.9
		C295.8,126.8,297.6,128.5,299.7,128.5z"/>
	<path class="st2" d="M317,134.8c1.1,0.5,2.4-0.1,2.9-1.2s-0.1-2.4-1.2-2.9c-1.1-0.5-2.4,0.1-2.9,1.2
		C315.3,132.9,315.9,134.3,317,134.8z"/>
	<path class="st2" d="M342.7,156.3c-1.1,0.5-1.7,1.8-1.2,2.9c0.5,1.1,1.8,1.7,2.9,1.2c1.1-0.5,1.7-1.8,1.2-2.9
		S343.9,155.9,342.7,156.3z"/>
	<path class="st2" d="M341.5,193.8c-0.5,1.1,0.1,2.4,1.2,2.9c1.1,0.5,2.4-0.1,2.9-1.2c0.5-1.1-0.1-2.4-1.2-2.9
		C343.3,192.2,342,192.7,341.5,193.8z"/>
	<path class="st2" d="M317,218.3c-1.1,0.5-1.7,1.8-1.2,2.9c0.5,1.1,1.8,1.7,2.9,1.2c1.1-0.5,1.7-1.8,1.2-2.9S318.2,217.8,317,218.3z
		"/>
	<path class="st2" d="M282.4,218.3c-1.1-0.5-2.4,0.1-2.9,1.2s0.1,2.4,1.2,2.9c1.1,0.5,2.4-0.1,2.9-1.2
		C284.1,220.1,283.5,218.8,282.4,218.3z"/>
	<path class="st2" d="M256.7,196.7c1.1-0.5,1.7-1.8,1.2-2.9c-0.5-1.1-1.8-1.7-2.9-1.2c-1.1,0.5-1.7,1.8-1.2,2.9
		S255.5,197.2,256.7,196.7z"/>
	<path class="st2" d="M258,159.2c0.5-1.1-0.1-2.4-1.2-2.9c-1.1-0.5-2.4,0.1-2.9,1.2s0.1,2.4,1.2,2.9
		C256.1,160.9,257.5,160.3,258,159.2z"/>
	<path class="st2" d="M282.4,134.8c1.1-0.5,1.7-1.8,1.2-2.9c-0.5-1.1-1.8-1.7-2.9-1.2c-1.1,0.5-1.7,1.8-1.2,2.9
		C279.9,134.6,281.3,135.2,282.4,134.8z"/>
	<path class="st2" d="M339.1,142.5c1.5-1.5,1.5-3.9,0-5.4s-3.9-1.5-5.4,0s-1.5,3.9,0,5.4C335.2,144,337.6,144,339.1,142.5z"/>
	<path class="st2" d="M346.3,176.5c1.4-5.5,12.1-11,13.4-15.8c-3,4-17.2,10.6-22.2,10.4c-1.3,0-2.7-0.1-4.1-0.3
		c-0.2-1.3-0.5-2.6-0.9-3.9c1.4-0.9,3.2-2,4.7-2.6c2.6-1.1,11.8-0.7,14.3,0.7c-1.8-2.2-8.7-2.9-10.7-5.5c-0.5-3.2,4.1-8.6,3.8-11.4
		c-0.7,2.8-7,9.5-9.7,10.5c-1.6,0.6-3.5,1.1-5.2,1.4c-0.6-1.1-1.3-2.2-2-3.2c0.9-1.1,1.8-2.2,2.7-3.2c3.4-3.6,18.1-9.1,23.1-8.3
		c-4.3-2.4-15.8,1.2-20.6-1.7c-2.9-4.9,0.7-16.4-1.7-20.6c0.7,5-4.7,19.6-8.3,23.1c-0.9,0.9-2,1.8-3.2,2.7c-1.1-0.7-2.2-1.5-3.4-2.1
		c0.3-1.7,0.9-3.7,1.4-5.1c1.1-2.7,7.8-8.9,10.6-9.5c-2.8-0.3-8.2,4.1-11.5,3.7c-2.6-2-3.2-9-5.4-10.8c1.5,2.5,1.8,11.6,0.5,14.3
		c-0.7,1.5-1.8,3.2-2.7,4.7c-1.2-0.3-2.5-0.6-3.8-0.9c-0.2-1.4-0.3-2.8-0.3-4.1c-0.1-4.9,6.4-19.1,10.4-22.2
		c-4.7,1.3-10.2,12-15.8,13.4c-5.5-1.4-11-12.1-15.8-13.5c4,3,10.6,17.2,10.4,22.2c0,1.3-0.1,2.7-0.3,4.1c-1.3,0.2-2.6,0.5-3.9,0.9
		c-0.9-1.4-2-3.2-2.6-4.7c-1.1-2.6-0.7-11.8,0.7-14.3c-2.2,1.8-2.9,8.7-5.5,10.7c-3.2,0.5-8.6-4.1-11.4-3.8c2.8,0.7,9.5,7,10.5,9.7
		c0.6,1.6,1.1,3.5,1.4,5.2c-1.1,0.6-2.2,1.3-3.2,2c-1.1-0.9-2.2-1.8-3.2-2.7c-3.6-3.4-9.1-18.1-8.3-23.1c-2.4,4.3,1.2,15.8-1.7,20.6
		c-4.9,2.9-16.4-0.7-20.6,1.7c5-0.7,19.6,4.7,23.1,8.3c0.9,0.9,1.8,2,2.7,3.2c-0.7,1.1-1.5,2.2-2.1,3.4c-1.7-0.3-3.7-0.9-5.1-1.4
		c-2.7-1.1-8.9-7.8-9.5-10.6c-0.3,2.8,4.1,8.2,3.7,11.5c-2,2.6-9,3.2-10.8,5.4c2.5-1.5,11.6-1.8,14.3-0.5c1.5,0.7,3.2,1.8,4.7,2.7
		c-0.3,1.2-0.6,2.5-0.9,3.8c-1.4,0.2-2.8,0.3-4.1,0.3c-4.9,0.1-19.2-6.4-22.3-10.4c1.3,4.7,12,10.2,13.4,15.8
		c-1.4,5.5-12.1,11-13.4,15.8c3-4,17.2-10.6,22.2-10.4c1.3,0,2.7,0.1,4.1,0.3c0.2,1.3,0.5,2.6,0.9,3.9c-1.4,0.9-3.2,2-4.7,2.6
		c-2.6,1.1-11.8,0.7-14.3-0.7c1.8,2.2,8.7,2.9,10.7,5.5c0.5,3.2-4.1,8.6-3.8,11.4c0.7-2.8,7-9.5,9.7-10.5c1.6-0.6,3.5-1.1,5.2-1.4
		c0.6,1.1,1.3,2.2,2,3.2c-0.9,1.1-1.8,2.2-2.7,3.2c-3.4,3.6-18.1,9.1-23.1,8.3c4.3,2.4,15.8-1.2,20.6,1.7c2.9,4.9-0.7,16.4,1.7,20.6
		c-0.7-5,4.7-19.6,8.3-23.1c0.9-0.9,2-1.8,3.2-2.7c1.1,0.7,2.2,1.5,3.4,2.1c-0.3,1.7-0.9,3.7-1.4,5.1c-1.1,2.7-7.8,8.9-10.6,9.5
		c2.8,0.3,8.2-4.1,11.5-3.7c2.6,2,3.2,9,5.4,10.8c-1.5-2.5-1.8-11.6-0.5-14.3c0.7-1.5,1.8-3.2,2.7-4.7c1.2,0.3,2.5,0.6,3.8,0.9
		c0.2,1.4,0.3,2.8,0.3,4.1c0.1,4.9-6.4,19.1-10.4,22.2c4.7-1.3,10.2-12,15.8-13.4c5.5,1.4,11,12.1,15.8,13.4
		c-4-3-10.6-17.2-10.4-22.2c0-1.3,0.1-2.7,0.3-4.1c1.3-0.2,2.6-0.5,3.9-0.9c0.9,1.4,2,3.2,2.6,4.7c1.1,2.6,0.7,11.8-0.7,14.3
		c2.2-1.8,2.9-8.7,5.5-10.7c3.2-0.5,8.6,4.1,11.4,3.8c-2.8-0.7-9.5-7-10.5-9.7c-0.6-1.6-1.1-3.5-1.4-5.2c1.1-0.6,2.2-1.3,3.2-2
		c1.1,0.9,2.2,1.8,3.2,2.7c3.6,3.4,9.1,18.1,8.3,23.1c2.4-4.3-1.2-15.8,1.7-20.6c4.9-2.9,16.4,0.7,20.6-1.7
		c-5,0.7-19.6-4.7-23.1-8.3c-0.9-0.9-1.8-2-2.7-3.2c0.7-1.1,1.5-2.2,2.1-3.4c1.7,0.3,3.7,0.9,5.1,1.4c2.7,1.1,8.9,7.8,9.5,10.6
		c0.3-2.8-4.1-8.2-3.7-11.5c2-2.6,9-3.2,10.8-5.4c-2.5,1.5-11.6,1.8-14.3,0.5c-1.5-0.7-3.2-1.8-4.7-2.7c0.3-1.2,0.6-2.5,0.9-3.8
		c1.4-0.2,2.8-0.3,4.1-0.3c4.9-0.1,19.1,6.4,22.2,10.4C358.4,187.5,347.7,182.1,346.3,176.5z M321,200.6c1.6-1.5,2.4-4.1,1.2-8
		c-3-9.7-8.4-11.4-4-14.8c4.4-3.4-5.9-5.3-11-1.4s-5.4-7.7-10.1-4.4c0,0-5.1,5.2-3.4,10.3c1.7,5.1,8,13.9,14.1,12.4
		c6-1.5,5.8-0.7,6.6,4.5c0.5,3,4.1,3.5,6.5,1.6c-5.6,4.9-13,7.8-21,7.8c-2.4,0-4.6-0.3-6.8-0.7c0.9-2,1.6-4.3,1.3-7.2
		c-0.9-8.3-2.1-10.5-11.2-16.9c-4.9-3.4-10.6-2.6-14.8-1.1c-0.4-2-0.6-4.1-0.6-6.2c0-1.2,0.1-2.4,0.2-3.5c3-2.1,7.3-2.4,11.2,1.8
		c6.1,6.5,4.9-0.2,4.5-7.6c-0.4-7.4,4.7-5.9,5.9-11.8c0.5-2.8-0.3-6-1.4-8.7c3.6-1.4,7.4-2.2,11.4-2.2c-0.1,2.6-0.5,5.4-1.6,7.1
		c-2.5,4.1-6.7,9.8-0.3,14.5c6.5,4.7,16-2.1,23.4,4.4c7.4,6.5,6.9,3.2,7.2-3.2c0.1-1.2,0.5-2,1.4-2.4c1.4,3.7,2.2,7.6,2.2,11.7
		C331.8,186.1,327.6,194.7,321,200.6z"/>
	<path class="st2" d="M347.7,176.5c0,2.1,1.7,3.9,3.9,3.9c2.1,0,3.9-1.7,3.9-3.9c0-2.1-1.7-3.9-3.9-3.9
		C349.5,172.7,347.7,174.4,347.7,176.5z"/>
	<path class="st2" d="M333.7,210.5c-1.5,1.5-1.5,3.9,0,5.4c1.5,1.5,3.9,1.5,5.4,0c1.5-1.5,1.5-3.9,0-5.4
		C337.6,209,335.2,209,333.7,210.5z"/>
	<path class="st2" d="M299.7,224.6c-2.1,0-3.9,1.7-3.9,3.9c0,2.1,1.7,3.9,3.9,3.9c2.1,0,3.9-1.7,3.9-3.9S301.9,224.6,299.7,224.6z"
		/>
	<path class="st2" d="M251.7,176.5c0-2.1-1.7-3.9-3.9-3.9c-2.1,0-3.9,1.7-3.9,3.9c0,2.1,1.7,3.9,3.9,3.9
		C249.9,180.4,251.7,178.7,251.7,176.5z"/>
	<path class="st2" d="M265.7,142.5c1.5-1.5,1.5-3.9,0-5.4s-3.9-1.5-5.4,0s-1.5,3.9,0,5.4C261.8,144,264.3,144,265.7,142.5z"/>
</g>
</svg>
