<?xml version="1.0" encoding="utf-8"?>
<!-- Generator: Adobe Illustrator 26.0.3, SVG Export Plug-In . SVG Version: 6.00 Build 0)  -->
<svg version="1.1" id="Слой_1" xmlns="http://www.w3.org/2000/svg" xmlns:xlink="http://www.w3.org/1999/xlink" x="0px" y="0px"
	 viewBox="0 0 420 420" style="enable-background:new 0 0 420 420;" xml:space="preserve">
<style type="text/css">
	.st0{fill:#365314;}
	.st1{fill:#84CC16;}
	.st2{fill:#4D7C0F;}
	.st3{fill:#FFFFFF;}
</style>
<rect x="-6" y="-8.7" class="st0" width="432" height="437.5"/>
<g>
	<g>
		<g>
			<path class="st1" d="M-592.6,261.2h-24.6c-5.6,0-9.3-4.5-8.3-10.1l27.6-157.2c1-5.6,6.3-10.1,11.9-10.1h24.7
				c5.6,0,9.3,4.5,8.3,10.1L-580.7,251C-581.7,256.6-587,261.2-592.6,261.2z"/>
		</g>
		<g>
			<path class="st2" d="M-541.7,261.2h-24.6c-5.6,0-9.3-4.5-8.3-10.1L-547,93.9c1-5.6,6.3-10.1,11.9-10.1h24.6
				c5.6,0,9.3,4.5,8.3,10.1L-529.8,251C-530.8,256.6-536.1,261.2-541.7,261.2z"/>
		</g>
		<g>
			<path class="st1" d="M-490.8,261.2h-24.6c-5.6,0-9.3-4.5-8.3-10.1l27.6-157.2c1-5.6,6.3-10.1,11.9-10.1h24.6
				c5.6,0,9.3,4.5,8.3,10.1L-478.9,251C-479.9,256.6-485.2,261.2-490.8,261.2z"/>
		</g>
	</g>
	<g>
		<g>
			<path class="st1" d="M-213.2,134.3h-25.9c-5.9,0-9.8-4.8-8.8-10.7l29.1-165.1c1-5.9,6.6-10.7,12.5-10.7h25.9
				c5.9,0,9.8,4.8,8.8,10.7l-29,165.2C-201.7,129.6-207.3,134.3-213.2,134.3z"/>
		</g>
		<g>
			<path class="st2" d="M-159.7,134.3h-25.9c-5.9,0-9.8-4.8-8.8-10.7l29.1-165.1c1-5.9,6.6-10.7,12.5-10.7h25.9
				c5.9,0,9.8,4.8,8.8,10.7l-29.1,165.1C-148.2,129.6-153.8,134.3-159.7,134.3z"/>
		</g>
		<g>
			<path class="st1" d="M-106.2,134.3h-25.9c-5.9,0-9.8-4.8-8.8-10.7l29.1-165.1c1-5.9,6.6-10.7,12.5-10.7h25.9
				c5.9,0,9.8,4.8,8.8,10.7l-29,165.2C-94.7,129.6-100.3,134.3-106.2,134.3z"/>
		</g>
	</g>
	<g>
		<g>
			<path class="st1" d="M-417.4,83h24.1l-0.6,3.5c-0.4,2.3-1.5,4.2-3.3,5.7s-3.8,2.2-6.1,2.2H-416l-1.3,7.4h14.8l-0.6,3.5
				c-0.4,2.3-1.5,4.2-3.3,5.7s-3.8,2.2-6.1,2.2h-6.8l-1.7,9.8h9.4c2.9,0,5.3,1.1,7.2,3.3c1.9,2.2,2.6,4.8,2.1,7.8v0.2h-20.8
				c-2.9,0-5.3-1.1-7.2-3.3c-1.9-2.2-2.6-4.8-2.1-7.8l5.7-32.4c0.5-2.3,1.6-4.2,3.3-5.6C-421.7,83.8-419.7,83-417.4,83z"/>
			<path class="st1" d="M-360.5,83l9.6,51.4h-3.5c-2.3,0-4.3-0.7-6-2.1c-1.7-1.4-2.8-3.3-3.3-5.6l-0.9-4.9h-13l6.1-11.4h4.7
				l-2.2-11.1l-15.9,30.1c-0.8,1.6-2,2.8-3.5,3.7s-3.1,1.3-4.8,1.3h-6.5l25.1-46.4c0.8-1.6,2-2.8,3.5-3.7s3.1-1.3,4.8-1.3H-360.5z"
				/>
			<path class="st1" d="M-309.8,99.2h-6.5c-1.3,0-2.2-0.5-2.8-1.4c-0.6-1-0.7-2.1-0.5-3.4h-12.2l-1.5,8.6h12c2.9,0,5.3,1.1,7.2,3.3
				c1.9,2.2,2.6,4.8,2.1,7.8l-2.2,12.4c-0.5,2.3-1.6,4.2-3.3,5.6c-1.7,1.5-3.7,2.2-6,2.2h-14.9c-3,0-5.4-1.1-7.2-3.3
				c-1.8-2.2-2.6-4.8-2.1-7.8l0.9-5.1h6.5c1.3,0,2.3,0.5,3.1,1.4c0.8,1,1.1,2.1,0.9,3.4h11.4l1.5-8.6h-12c-2.9,0-5.3-1.1-7.2-3.3
				c-1.9-2.2-2.6-4.8-2.1-7.8l2.2-12.4c0.5-2.3,1.6-4.2,3.3-5.6c1.7-1.5,3.8-2.2,6.1-2.2h14.9c3,0,5.4,1.1,7.2,3.3
				c1.9,2.2,2.6,4.8,2.1,7.8L-309.8,99.2z"/>
			<path class="st1" d="M-274,87.4c2.1-3,4.7-4.4,8-4.4c0.8,0,1.6,0,2.4,0c-2.2,4.5-5.1,11.1-7.4,19.6c-0.1,0.4-0.7,2.5-1.4,5.6
				c-1.3,5.7-2.8,13.8-3.7,24.2c-3.3,1.7-6.8,1.9-9,0.7c-1.3-0.8-2.4-2.1-2.4-2.1c-1.8-2.1-2.5-4.7-2.1-7.7l2.4-13.8l-15-26.5h7.1
				c1.7,0,3.3,0.4,4.7,1.3c1.5,0.8,2.6,2,3.5,3.5l6,10.6L-274,87.4z"/>
		</g>
		<g>
			<path class="st1" d="M-395.8,142.9l-23.5,23.5l17.8,27.8h-8.4c-3.2,0-5.9-1.5-8-4.4l-9.7-15.1l-1.1,1.1l-1.9,10.6
				c-0.4,2.3-1.5,4.2-3.3,5.6c-1.7,1.5-3.8,2.2-6.1,2.2h-3.4l7.7-43.5c0.4-2.3,1.5-4.2,3.3-5.6c1.7-1.5,3.8-2.2,6.1-2.2h3.4
				l-2.4,13.5l10.7-10.7c2-1.9,4.2-2.8,6.7-2.8L-395.8,142.9L-395.8,142.9z"/>
			<path class="st1" d="M-361.9,142.9l9.6,51.4h-3.5c-2.3,0-4.3-0.7-6-2.1c-1.7-1.4-2.8-3.3-3.3-5.6l-0.9-4.9h-13l6.1-11.4h4.7
				l-2.2-11.1l-15.9,30.1c-0.8,1.6-2,2.8-3.5,3.7s-3.1,1.3-4.8,1.3h-6.5l25.1-46.4c0.8-1.6,2-2.8,3.5-3.7s3.1-1.3,4.8-1.3H-361.9z"
				/>
			<path class="st1" d="M-304.3,142.9h3.4l-7.7,43.5c-0.4,2.3-1.5,4.2-3.3,5.6c-1.7,1.5-3.8,2.2-6.1,2.2h-3.4l1-5.9l-12.2-27.3
				l-4.5,25.4c-0.4,2.3-1.5,4.2-3.3,5.6c-1.7,1.5-3.8,2.2-6.1,2.2h-3.4l7.7-43.5c0.4-2.3,1.5-4.2,3.3-5.6c1.7-1.5,3.8-2.2,6.1-2.2
				h3.4l12.2,27.3l3.4-19.4c0.4-2.3,1.5-4.2,3.3-5.6C-308.6,143.6-306.6,142.9-304.3,142.9z"/>
			<path class="st1" d="M-261.1,167.4c3.3,2.5,4.6,6.5,4,12.2c-0.2,2.5-0.9,4.8-1.9,7c-1.1,2.2-2.7,4.1-4.9,5.5
				c-2.2,1.4-5.1,2.2-8.8,2.2H-290l0.6-0.4c2.3-1.5,3.7-3.5,4.2-6.2l0.8-4.6h10.8c1.5,0,2.6-0.3,3.4-1s1.3-1.4,1.4-2.3
				c0.1-0.4,0.2-0.8,0.2-1.1s0-0.6-0.2-1c-0.1-0.4-0.3-0.7-0.7-1c-0.3-0.3-0.8-0.6-1.4-0.8s-1.4-0.3-2.4-0.3c-2.4,0-4.4,0-6,0
				s-3.1,0-4.4,0s-2.2,0-2.5,0l-1.9,10.8c-0.4,2.3-1.5,4.2-3.3,5.6c-1.7,1.5-3.8,2.2-6.1,2.2h-3.4l4.4-25c0.4-1.9,1.2-3.4,2.6-4.5
				c1.4-1.2,3-1.8,5-1.8h14.1c1.3,0,2.3-0.1,3.2-0.4c0.8-0.3,1.4-1,1.6-2.2c0.2-1.1,0.2-2.1,0-3s-0.7-1.6-1.5-2.2
				c-0.8-0.6-2-0.8-3.5-0.8h-7.9c-0.3,0-0.6,0-0.9,0c-1.6-0.1-3.2,0-4.8,0.4c-1.6,0.3-3.3,1.3-5,3l-1,1.1l1.1-5.7
				c0.6-3,2-5.5,4.3-7.3c2.3-1.9,4.9-2.8,7.9-2.8h6.8c4,0,7.2,0.9,9.8,2.7s4.3,4.1,5.4,6.9c1,2.8,1.3,5.9,0.7,9.3
				C-259.2,163.8-260,165.7-261.1,167.4z"/>
			<path class="st1" d="M-217.9,142.9l9.6,51.4h-3.5c-2.3,0-4.3-0.7-6-2.1c-1.7-1.4-2.8-3.3-3.3-5.6l-0.9-4.9h-13l6.1-11.4h4.7
				l-2.2-11.1l-15.9,30.1c-0.8,1.6-2,2.8-3.5,3.7s-3.1,1.3-4.8,1.3h-6.5l25.1-46.4c0.8-1.6,2-2.8,3.5-3.7s3.1-1.3,4.8-1.3H-217.9z"
				/>
			<path class="st1" d="M-160.3,142.9h3.4l-7.7,43.5c-0.4,2.3-1.5,4.2-3.3,5.6c-1.7,1.5-3.8,2.2-6.1,2.2h-3.4l1-5.9l-12.2-27.3
				l-4.5,25.4c-0.4,2.3-1.5,4.2-3.3,5.6c-1.7,1.5-3.8,2.2-6.1,2.2h-3.4l7.7-43.5c0.4-2.3,1.5-4.2,3.3-5.6c1.7-1.5,3.8-2.2,6.1-2.2
				h3.4l12.2,27.3l3.4-19.4c0.4-2.3,1.5-4.2,3.3-5.6C-164.7,143.6-162.6,142.9-160.3,142.9z"/>
		</g>
	</g>
</g>
<g>
	<g>
		<g>
			<path class="st3" d="M115.5,340.5H66.2c-11.2,0-18.7-9.1-16.8-20.4L104.8,5.6c1.9-11.2,12.6-20.4,23.8-20.4H178
				c11.2,0,18.7,9.1,16.8,20.4l-55.2,314.6C137.4,331.5,126.7,340.5,115.5,340.5z"/>
		</g>
		<g>
			<path class="st3" d="M217.4,340.5h-49.3c-11.2,0-18.7-9.1-16.8-20.4L206.7,5.6c1.9-11.2,12.6-20.4,23.8-20.4h49.3
				c11.2,0,18.7,9.1,16.8,20.4l-55.4,314.4C239.3,331.5,228.6,340.5,217.4,340.5z"/>
		</g>
		<g>
			<path class="st3" d="M319.3,340.5H270c-11.2,0-18.7-9.1-16.8-20.4L308.6,5.6c1.9-11.2,12.6-20.4,23.8-20.4h49.3
				c11.2,0,18.7,9.1,16.8,20.4l-55.2,314.6C341.2,331.5,330.5,340.5,319.3,340.5z"/>
		</g>
		<path class="st3" d="M324.6,289.2c-76.3-0.6-152.5-1.2-228.8-1.9c24.9-84.5,49.7-169,74.6-253.5h154.2V289.2z"/>
	</g>
	<g>
		<g>
			<g>
				<g>
					<path class="st1" d="M144.2,55h33.2l-0.9,4.4c-0.6,2.9-2.1,5.2-4.5,7c-2.4,1.8-5.2,2.7-8.4,2.7h-17.5l-1.8,9.2h20.4l-0.9,4.4
						c-0.6,2.9-2.1,5.2-4.5,7c-2.4,1.8-5.2,2.7-8.4,2.7h-9.4l-2.4,12.2h12.9c4.1,0,7.4,1.4,9.9,4.1c2.6,2.7,3.5,6,3,9.7l0,0.3h-28.6
						c-4.1,0-7.4-1.4-9.9-4.1c-2.6-2.7-3.5-6-3-9.7l7.9-40.3c0.6-2.9,2.2-5.2,4.5-7C138.2,56,141,55,144.2,55z"/>
					<path class="st1" d="M222.7,55l13.3,63.9h-4.8c-3.1,0-5.9-0.9-8.3-2.7c-2.4-1.8-3.9-4.1-4.6-7l-1.3-6.1h-17.9l8.5-14.1h6.5
						L211,75.3l-22,37.4c-1.2,1.9-2.8,3.4-4.8,4.6c-2,1.1-4.3,1.7-6.6,1.7h-9l34.6-57.7c1.2-1.9,2.8-3.4,4.8-4.5
						c2.1-1.1,4.3-1.7,6.7-1.7H222.7z"/>
					<path class="st1" d="M292.6,75.1h-8.9c-1.8,0-3.1-0.6-3.8-1.8c-0.8-1.2-1-2.6-0.7-4.2h-16.8l-2.1,10.7h16.5
						c4.1,0,7.4,1.4,9.9,4.1c2.6,2.7,3.5,6,3,9.7l-3,15.5c-0.6,2.9-2.2,5.2-4.5,7c-2.4,1.8-5.2,2.7-8.3,2.7h-20.5
						c-4.1,0-7.4-1.4-10-4.1c-2.6-2.7-3.5-6-3-9.7l1.3-6.3h8.9c1.8,0,3.2,0.6,4.3,1.8s1.5,2.6,1.3,4.2h15.7l2.1-10.7h-16.5
						c-4.1,0-7.4-1.4-9.9-4.1c-2.6-2.7-3.5-6-3-9.7l3-15.5c0.6-2.9,2.2-5.2,4.5-7c2.4-1.8,5.2-2.7,8.4-2.7H281c4.1,0,7.4,1.4,10,4.1
						c2.6,2.7,3.5,6,3,9.7L292.6,75.1z"/>
					<path class="st1" d="M342,60.5c2.9-3.7,6.5-5.5,11-5.5h10.8l-24.7,34.1l-5.6,29.8c-4.2-0.1-7.5-1.5-10-4.2
						c-2.5-2.7-3.5-5.9-2.9-9.6l3.3-17.2L303.1,55h9.8c2.4,0,4.5,0.5,6.5,1.6c2,1.1,3.6,2.5,4.8,4.4l8.3,13.2L342,60.5z"/>
				</g>
				<g>
					<path class="st1" d="M191.2,129.5l-32.5,29.3l24.6,34.6h-11.6c-4.5,0-8.2-1.8-11-5.5l-13.4-18.8l-1.5,1.3l-2.6,13.2
						c-0.6,2.9-2.1,5.2-4.5,7c-2.4,1.8-5.2,2.7-8.4,2.7h-4.7l10.6-54.1c0.6-2.9,2.1-5.2,4.5-7c2.4-1.8,5.2-2.7,8.4-2.7h4.7
						l-3.3,16.7l14.7-13.3c2.7-2.3,5.8-3.5,9.3-3.5H191.2z"/>
					<path class="st1" d="M238.1,129.5l13.3,63.9h-4.8c-3.1,0-5.9-0.9-8.3-2.7c-2.4-1.8-3.9-4.1-4.6-7l-1.3-6.1h-17.9l8.5-14.1h6.5
						l-3.1-13.8l-22,37.4c-1.2,1.9-2.8,3.4-4.8,4.5c-2,1.1-4.3,1.7-6.6,1.7h-9l34.6-57.7c1.2-1.9,2.8-3.4,4.8-4.5
						c2.1-1.1,4.3-1.7,6.7-1.7H238.1z"/>
					<path class="st1" d="M317.5,129.5h4.7l-10.6,54.1c-0.6,2.9-2.1,5.2-4.5,7c-2.4,1.8-5.2,2.7-8.4,2.7H294l1.4-7.4l-16.8-33.9
						l-6.2,31.5c-0.6,2.9-2.1,5.2-4.5,7c-2.4,1.8-5.2,2.7-8.4,2.7h-4.7l10.6-54.1c0.6-2.9,2.1-5.2,4.5-7c2.4-1.8,5.2-2.7,8.4-2.7
						h4.7l16.8,33.9l4.8-24.2c0.6-2.9,2.1-5.2,4.5-7C311.5,130.4,314.3,129.5,317.5,129.5z"/>
				</g>
			</g>
		</g>
		<path class="st1" d="M161.7,234.7c4.5,3.1,6.4,8.1,5.5,15.2c-0.3,3.1-1.2,6-2.7,8.7c-1.5,2.8-3.7,5.1-6.8,6.8
			c-3,1.8-7.1,2.7-12.2,2.7h-23.8l0.9-0.5c3.2-1.8,5.1-4.4,5.8-7.7l1.1-5.7h14.8c2,0,3.6-0.4,4.7-1.3c1.1-0.8,1.8-1.8,2-2.9
			c0.1-0.5,0.2-0.9,0.2-1.3c0-0.4-0.1-0.8-0.2-1.3c-0.2-0.5-0.5-0.9-0.9-1.3c-0.4-0.4-1.1-0.7-1.9-1c-0.8-0.3-1.9-0.4-3.3-0.4
			c-3.3,0-6.1,0-8.3,0.1c-2.2,0-4.3,0-6.1,0s-3,0-3.4,0l-2.7,13.4c-0.6,2.9-2.1,5.2-4.5,7c-2.4,1.8-5.2,2.7-8.4,2.7h-4.7l6.1-31.1
			c0.5-2.3,1.7-4.2,3.6-5.7c1.9-1.4,4.2-2.2,6.8-2.2h19.5c1.8,0,3.2-0.1,4.4-0.5c1.2-0.4,1.9-1.3,2.2-2.8c0.3-1.3,0.3-2.6-0.1-3.7
			c-0.3-1.1-1-2-2.1-2.7c-1.1-0.7-2.7-1.1-4.8-1.1h-10.9c-0.4,0-0.8,0-1.2,0c-2.2-0.1-4.4,0.1-6.6,0.5c-2.3,0.4-4.6,1.7-6.9,3.7
			l-1.3,1.4l1.5-7.1c0.8-3.7,2.8-6.8,5.9-9.1c3.1-2.4,6.7-3.5,10.8-3.5h9.3c5.5,0,10,1.1,13.5,3.3c3.5,2.2,6,5.1,7.4,8.6
			c1.4,3.5,1.7,7.4,1,11.5C164.2,230.3,163.2,232.6,161.7,234.7z"/>
		<path class="st1" d="M221.2,204.2l13.3,63.9h-4.8c-3.1,0-5.9-0.9-8.3-2.7c-2.4-1.8-3.9-4.1-4.6-7l-1.3-6.1h-17.9l8.5-14.1h6.5
			l-3.1-13.8l-22,37.4c-1.2,1.9-2.8,3.4-4.8,4.5c-2,1.1-4.3,1.7-6.6,1.7h-9l34.6-57.7c1.2-1.9,2.8-3.4,4.8-4.5
			c2.1-1.1,4.3-1.7,6.7-1.7H221.2z"/>
		<path class="st1" d="M300.6,204.2h4.7l-10.6,54.1c-0.6,2.9-2.1,5.2-4.5,7c-2.4,1.8-5.2,2.7-8.4,2.7h-4.7l1.4-7.4l-16.8-33.9
			l-6.2,31.5c-0.6,2.9-2.1,5.2-4.5,7c-2.4,1.8-5.2,2.7-8.4,2.7h-4.7l10.6-54.1c0.6-2.9,2.1-5.2,4.5-7c2.4-1.8,5.2-2.7,8.4-2.7h4.7
			l16.8,33.9l4.8-24.2c0.6-2.9,2.1-5.2,4.5-7C294.6,205.1,297.4,204.2,300.6,204.2z"/>
	</g>
</g>
<g>
	<g>
		<path class="st1" d="M-299,379.9l-17.4-0.8c-4-0.2-6.4-4.6-5.5-10l26.2-149.4c0.9-5.3,4.9-9.5,8.9-9.3l17.4,0.8
			c4,0.2,6.4,4.6,5.5,10l-26.2,149.4C-291.1,375.9-295.1,380.1-299,379.9z"/>
	</g>
	<g>
		<path class="st2" d="M-263,381.5l-17.4-0.8c-4-0.2-6.4-4.6-5.5-10l26.2-149.4c0.9-5.3,4.9-9.5,8.9-9.3l17.4,0.8
			c4,0.2,6.4,4.6,5.5,10l-26.2,149.4C-255.1,377.5-259.1,381.7-263,381.5z"/>
	</g>
	<g>
		<path class="st1" d="M-227,383.1l-17.4-0.8c-4-0.2-6.4-4.6-5.5-10l26.2-149.4c0.9-5.3,4.9-9.5,8.9-9.3l17.4,0.8
			c4,0.2,6.4,4.6,5.5,10l-26.2,149.4C-219.1,379.1-223.1,383.3-227,383.1z"/>
	</g>
</g>
</svg>
