<?xml version="1.0" encoding="utf-8"?>
<!-- Generator: Adobe Illustrator 26.0.1, SVG Export Plug-In . SVG Version: 6.00 Build 0)  -->
<svg version="1.1" id="Слой_1" xmlns="http://www.w3.org/2000/svg" xmlns:xlink="http://www.w3.org/1999/xlink" x="0px" y="0px"
	 viewBox="0 0 147 141" style="enable-background:new 0 0 147 141;" xml:space="preserve">
<style type="text/css">
	.st0{fill:#713F13;}
</style>
<g>
	<g>
		<path class="st0" d="M115.5,125.8L84.6,64c-0.5-0.9-1.8-0.9-2.2,0l-4.2,8.4c-0.2,0.3-0.2,0.8,0,1.1l18.1,35.9
			c0.4,0.8-0.2,1.8-1.1,1.8H51.9c-0.9,0-1.5-1-1.1-1.8l18.1-36c0.2-0.3,0.2-0.8,0-1.1l-4.2-8.4c-0.5-0.9-1.8-0.9-2.2,0l-31,61.9
			c-0.2,0.4-0.6,0.7-1.1,0.7H14.8c-0.7,0-1.3-0.6-1.3-1.3v-5.3c0-0.7,0.6-1.3,1.3-1.3h10.8c0.5,0,0.9-0.3,1.1-0.7l2.2-4.4
			c0.4-0.8-0.2-1.8-1.1-1.8h-7c-0.7,0-1.3-0.6-1.3-1.3v-5.2c0-0.7,0.6-1.3,1.3-1.3H33c0.5,0,0.9-0.3,1.1-0.7l32.3-64.3
			c0.4-0.8-0.2-1.8-1.1-1.8h-13c-0.7,0-1.3-0.6-1.3-1.3v-5.2c0-0.7,0.6-1.3,1.3-1.3h13c0.9,0,1.5-1,1.1-1.8l-4.7-9.1
			c-0.3-0.6,0-1.4,0.6-1.7l4.6-2.3c0.6-0.3,1.3,0,1.7,0.6l3.8,7.7c0.5,0.9,1.8,0.9,2.2,0l3.8-7.7c0.3-0.6,1-0.9,1.6-0.6l4.7,2.3
			c0.6,0.3,0.9,1,0.6,1.7l-4.7,9.5c-0.4,0.8,0.2,1.8,1.1,1.8h13c0.7,0,1.3,0.6,1.3,1.3v5.2c0,0.7-0.6,1.3-1.3,1.3h-13
			c-0.9,0-1.5,1-1.1,1.8l32.3,64.3c0.2,0.4,0.6,0.7,1.1,0.7h12.2c0.7,0,1.3,0.6,1.3,1.3v5.2c0,0.7-0.6,1.3-1.3,1.3h-7
			c-0.9,0-1.5,1-1.1,1.8l2.2,4.4c0.2,0.4,0.6,0.7,1.1,0.7h10.8c0.7,0,1.3,0.6,1.3,1.3v5.2c0,0.7-0.6,1.3-1.3,1.3h-15.7
			C116.2,126.5,115.7,126.3,115.5,125.8z M83.6,101.7l-9-17.9c-0.5-0.9-1.8-0.9-2.2,0l-9,17.9c-0.4,0.8,0.2,1.8,1.1,1.8h18
			C83.4,103.5,84,102.6,83.6,101.7z M74.7,62.2l4.2-8.4c0.2-0.3,0.2-0.8,0-1.1l-4.3-8.4c-0.5-0.9-1.8-0.9-2.2,0l-4.2,8.4
			c-0.2,0.3-0.2,0.8,0,1.1l4.2,8.4C72.9,63.1,74.2,63.1,74.7,62.2z"/>
	</g>
</g>
</svg>
