<?xml version="1.0" encoding="utf-8"?>
<!-- Generator: Adobe Illustrator 26.0.1, SVG Export Plug-In . SVG Version: 6.00 Build 0)  -->
<svg version="1.1" id="Слой_1" xmlns="http://www.w3.org/2000/svg" xmlns:xlink="http://www.w3.org/1999/xlink" x="0px" y="0px"
	 viewBox="0 0 200 200" style="enable-background:new 0 0 200 200;" xml:space="preserve">
<style type="text/css">
	.st0{fill-rule:evenodd;clip-rule:evenodd;fill:#7A7A7A;}
</style>
<g>
	<path class="st0" d="M40.1,150.6c-2.2,2.2-2.2,5.8,0,8c2.2,2.2,5.8,2.2,8,0c2.2-2.2,2.2-5.8,0-8C45.9,148.3,42.3,148.3,40.1,150.6z
		"/>
	<path class="st0" d="M98.3,29.3c3.1,0,5.7-2.5,5.7-5.7c0-3.1-2.5-5.7-5.7-5.7c-3.1,0-5.7,2.5-5.7,5.7
		C92.6,26.8,95.2,29.3,98.3,29.3z"/>
	<path class="st0" d="M123.9,38.6c1.7,0.7,3.6-0.1,4.3-1.8c0.7-1.7-0.1-3.6-1.8-4.3c-1.7-0.7-3.6,0.1-4.3,1.8
		C121.4,35.9,122.2,37.9,123.9,38.6z"/>
	<path class="st0" d="M161.9,70.5c-1.7,0.7-2.5,2.6-1.8,4.3c0.7,1.7,2.6,2.5,4.3,1.8c1.7-0.7,2.5-2.6,1.8-4.3
		C165.5,70.6,163.6,69.8,161.9,70.5z"/>
	<path class="st0" d="M160.1,125.9c-0.7,1.7,0.1,3.6,1.8,4.3c1.7,0.7,3.6-0.1,4.3-1.8c0.7-1.7-0.1-3.6-1.8-4.3
		C162.7,123.5,160.8,124.3,160.1,125.9z"/>
	<path class="st0" d="M123.9,162.1c-1.7,0.7-2.5,2.6-1.8,4.3c0.7,1.7,2.6,2.5,4.3,1.8c1.7-0.7,2.5-2.6,1.8-4.3
		C127.5,162.2,125.6,161.4,123.9,162.1z"/>
	<path class="st0" d="M72.7,162.1c-1.7-0.7-3.6,0.1-4.3,1.8c-0.7,1.7,0.1,3.6,1.8,4.3c1.7,0.7,3.6-0.1,4.3-1.8
		C75.2,164.7,74.4,162.8,72.7,162.1z"/>
	<path class="st0" d="M34.7,130.2c1.7-0.7,2.5-2.6,1.8-4.3c-0.7-1.7-2.6-2.5-4.3-1.8c-1.7,0.7-2.5,2.6-1.8,4.3
		C31.1,130.1,33,130.9,34.7,130.2z"/>
	<path class="st0" d="M36.6,74.7c0.7-1.7-0.1-3.6-1.8-4.3c-1.7-0.7-3.6,0.1-4.3,1.8c-0.7,1.7,0.1,3.6,1.8,4.3
		C33.9,77.2,35.9,76.4,36.6,74.7z"/>
	<path class="st0" d="M72.8,38.6c1.7-0.7,2.5-2.6,1.8-4.3c-0.7-1.7-2.6-2.5-4.3-1.8c-1.7,0.7-2.5,2.6-1.8,4.3
		C69.1,38.4,71.1,39.2,72.8,38.6z"/>
	<path class="st0" d="M156.6,50.1c2.2-2.2,2.2-5.8,0-8c-2.2-2.2-5.8-2.2-8,0c-2.2,2.2-2.2,5.8,0,8C150.8,52.3,154.4,52.3,156.6,50.1
		z"/>
	<path class="st0" d="M167.2,100.3C169.2,92.2,185.1,84,187,77c-4.5,5.9-25.5,15.6-32.8,15.4c-1.9,0-4-0.2-6.1-0.5
		c-0.3-1.9-0.8-3.8-1.3-5.7c2.1-1.4,4.7-2.9,6.9-3.9c3.9-1.7,17.4-1.1,21.1,1.1c-2.6-3.3-12.9-4.3-15.8-8.2
		c-0.7-4.8,6.1-12.7,5.6-16.9c-1.1,4.2-10.3,14-14.3,15.5c-2.3,0.9-5.2,1.6-7.7,2.1c-0.9-1.7-1.9-3.3-3-4.8c1.3-1.7,2.7-3.3,4-4.7
		c5-5.3,26.7-13.4,34.1-12.3c-6.3-3.6-23.3,1.8-30.5-2.5c-4.3-7.2,1.1-24.2-2.5-30.5c1,7.4-7,29-12.3,34.1c-1.4,1.3-3,2.6-4.7,4
		c-1.6-1.1-3.2-2.2-5-3.1c0.5-2.5,1.3-5.4,2.1-7.6c1.6-4,11.5-13.1,15.7-14.1c-4.2-0.5-12.1,6.1-17,5.4c-3.9-2.9-4.7-13.3-8-15.9
		c2.2,3.7,2.6,17.2,0.8,21.1c-1,2.2-2.6,4.8-4,6.9c-1.8-0.5-3.7-0.9-5.6-1.3c-0.3-2.1-0.5-4.2-0.5-6.1c-0.2-7.3,9.5-28.3,15.4-32.8
		c-7,1.9-15.1,17.8-23.3,19.8C90.2,29.4,82,13.6,75,11.6c5.9,4.5,15.6,25.5,15.4,32.8c0,1.9-0.2,4-0.5,6.1c-1.9,0.3-3.8,0.8-5.7,1.3
		c-1.4-2.1-2.9-4.7-3.9-6.9c-1.7-3.9-1.1-17.4,1.1-21.1c-3.3,2.6-4.3,12.9-8.2,15.8c-4.8,0.7-12.7-6.1-16.9-5.6
		c4.2,1.1,14,10.3,15.5,14.3c0.9,2.3,1.6,5.2,2.1,7.7c-1.7,0.9-3.3,1.9-4.8,3c-1.7-1.3-3.3-2.7-4.7-4c-5.3-5-13.4-26.7-12.3-34.1
		c-3.6,6.3,1.8,23.3-2.5,30.5c-7.2,4.3-24.2-1.1-30.5,2.5c7.4-1,29,7,34.1,12.3c1.3,1.4,2.6,3,4,4.7c-1.1,1.6-2.2,3.2-3.1,5
		c-2.5-0.5-5.4-1.3-7.6-2.1c-4-1.6-13.1-11.5-14.1-15.7c-0.5,4.2,6.1,12.1,5.4,17c-2.9,3.9-13.3,4.7-15.9,8
		c3.7-2.2,17.2-2.6,21.1-0.8c2.2,1,4.8,2.6,6.9,4c-0.5,1.8-0.9,3.7-1.3,5.6c-2.1,0.3-4.2,0.5-6.1,0.5C35.2,92.6,14.1,83,9.6,77
		c1.9,7,17.8,15.1,19.8,23.3c-2.1,8.1-17.9,16.3-19.8,23.3c4.5-5.9,25.5-15.6,32.8-15.4c1.9,0,4,0.2,6.1,0.5
		c0.3,1.9,0.8,3.8,1.3,5.7c-2.1,1.4-4.7,2.9-6.9,3.9c-3.9,1.7-17.4,1.1-21.1-1.1c2.6,3.3,12.9,4.3,15.8,8.2
		c0.7,4.8-6.1,12.7-5.6,16.9c1.1-4.2,10.3-14,14.3-15.5c2.3-0.9,5.2-1.6,7.7-2.1c0.9,1.7,1.9,3.3,3,4.8c-1.3,1.7-2.7,3.3-4,4.7
		c-5,5.3-26.7,13.4-34.1,12.3c6.3,3.6,23.3-1.8,30.5,2.5c4.3,7.2-1.1,24.2,2.5,30.5c-1-7.4,7-29,12.3-34.1c1.4-1.3,3-2.6,4.7-4
		c1.6,1.1,3.2,2.2,5,3.1c-0.5,2.5-1.3,5.4-2.1,7.6c-1.6,4-11.5,13.1-15.7,14.1c4.2,0.5,12.1-6.1,17-5.4c3.9,2.9,4.7,13.3,8,15.9
		c-2.2-3.7-2.6-17.2-0.8-21.1c1-2.2,2.6-4.8,4-6.9c1.8,0.5,3.7,0.9,5.6,1.3c0.3,2.1,0.5,4.2,0.5,6.1c0.2,7.3-9.5,28.3-15.4,32.8
		c7-1.9,15.1-17.8,23.3-19.8c8.1,2.1,16.3,17.9,23.3,19.8c-5.9-4.5-15.6-25.5-15.4-32.8c0-1.9,0.2-4,0.5-6.1
		c1.9-0.3,3.8-0.8,5.7-1.3c1.4,2.1,2.9,4.7,3.9,6.9c1.7,3.9,1.1,17.4-1.1,21.1c3.3-2.6,4.3-12.9,8.2-15.8c4.8-0.7,12.7,6.1,16.9,5.6
		c-4.2-1.1-14-10.3-15.5-14.3c-0.9-2.3-1.6-5.2-2.1-7.7c1.7-0.9,3.3-1.9,4.8-3c1.7,1.3,3.3,2.7,4.7,4c5.3,5,13.4,26.7,12.3,34.1
		c3.6-6.3-1.8-23.3,2.5-30.5c7.2-4.3,24.2,1.1,30.5-2.5c-7.4,1-29-7-34.1-12.3c-1.3-1.4-2.6-3-4-4.7c1.1-1.6,2.2-3.2,3.1-5
		c2.5,0.5,5.4,1.3,7.6,2.1c4,1.6,13.1,11.5,14.1,15.7c0.5-4.2-6.1-12.1-5.4-17c2.9-3.9,13.3-4.7,15.9-8c-3.7,2.2-17.2,2.6-21.1,0.8
		c-2.2-1-4.8-2.6-6.9-4c0.5-1.8,0.9-3.7,1.3-5.6c2.1-0.3,4.2-0.5,6.1-0.5c7.3-0.2,28.3,9.5,32.8,15.4
		C185.1,116.6,169.2,108.5,167.2,100.3z M129.8,135.9c2.3-2.2,3.6-6.1,1.8-11.8c-4.5-14.3-12.4-16.9-5.9-21.9
		c6.5-5.1-8.7-7.9-16.3-2c-7.6,5.9-8-11.4-15-6.5c0,0-7.6,7.7-5.1,15.3c2.5,7.6,11.9,20.5,20.8,18.3c8.9-2.2,8.6-1,9.7,6.6
		c0.7,4.4,6.1,5.2,9.6,2.3c-8.3,7.2-19.2,11.6-31.1,11.6c-3.5,0-6.8-0.4-10.1-1.1c1.3-2.9,2.4-6.4,1.9-10.6
		c-1.4-12.2-3.1-15.5-16.6-25c-7.3-5.1-15.7-3.9-21.9-1.7c-0.6-2.9-0.9-6-0.9-9.1c0-1.8,0.1-3.5,0.3-5.2c4.5-3.1,10.8-3.5,16.6,2.6
		c9,9.6,7.3-0.3,6.7-11.2c-0.6-11,7-8.7,8.7-17.4c0.8-4.1-0.4-8.9-2-12.9c5.3-2,11-3.2,16.9-3.2c-0.1,3.9-0.7,8-2.3,10.5
		C91.9,69.5,85.7,78,95.2,85c9.6,7,23.6-3.1,34.6,6.5c11,9.6,10.2,4.8,10.7-4.8c0.1-1.8,0.8-2.9,2.1-3.6c2.1,5.4,3.2,11.2,3.2,17.3
		C145.8,114.5,139.6,127.2,129.8,135.9z"/>
	<path class="st0" d="M169.3,100.3c0,3.1,2.5,5.7,5.7,5.7c3.1,0,5.7-2.5,5.7-5.7c0-3.1-2.5-5.7-5.7-5.7
		C171.9,94.6,169.3,97.2,169.3,100.3z"/>
	<path class="st0" d="M148.5,150.6c-2.2,2.2-2.2,5.8,0,8c2.2,2.2,5.8,2.2,8,0c2.2-2.2,2.2-5.8,0-8
		C154.4,148.3,150.8,148.3,148.5,150.6z"/>
	<path class="st0" d="M98.3,171.4c-3.1,0-5.7,2.5-5.7,5.7c0,3.1,2.5,5.7,5.7,5.7c3.1,0,5.7-2.5,5.7-5.7
		C104,173.9,101.5,171.4,98.3,171.4z"/>
	<path class="st0" d="M27.3,100.3c0-3.1-2.5-5.7-5.7-5.7c-3.1,0-5.7,2.5-5.7,5.7c0,3.1,2.5,5.7,5.7,5.7
		C24.7,106,27.3,103.5,27.3,100.3z"/>
	<path class="st0" d="M48.1,50.1c2.2-2.2,2.2-5.8,0-8c-2.2-2.2-5.8-2.2-8,0c-2.2,2.2-2.2,5.8,0,8C42.3,52.3,45.9,52.3,48.1,50.1z"/>
</g>
</svg>
