<?xml version="1.0" encoding="utf-8"?>
<!-- Generator: Adobe Illustrator 26.0.1, SVG Export Plug-In . SVG Version: 6.00 Build 0)  -->
<svg version="1.1" id="Слой_1" xmlns="http://www.w3.org/2000/svg" xmlns:xlink="http://www.w3.org/1999/xlink" x="0px" y="0px"
	 viewBox="0 0 595.3 282.8" style="enable-background:new 0 0 595.3 282.8;" xml:space="preserve">
<style type="text/css">
	.st0{clip-path:url(#SVGID_00000115494652286148599230000007445595851183502475_);fill:#FFFFFF;}
	.st1{fill:#FFFFFF;}
	.st2{clip-path:url(#SVGID_00000101812451826004067910000014867028010531648662_);}
	.st3{fill:#FAEA27;}
	.st4{fill:#FAEF85;}
	.st5{fill:#88D0EB;}
	.st6{fill:#EA85B5;}
	.st7{fill:#E82C88;}
	.st8{fill:#0FB7EB;}
	.st9{fill:#19191C;}
	.st10{display:none;}
	.st11{display:inline;}
	.st12{fill:#100E0E;}
	.st13{display:inline;fill:#100E0E;}
	.st14{clip-path:url(#SVGID_00000111876838231045231710000014301570623617001405_);}
</style>
<g>
	<defs>
		<rect id="SVGID_1_" x="-4.4" y="314.4" width="604" height="288"/>
	</defs>
	<clipPath id="SVGID_00000136397191530896353390000011192367091388591754_">
		<use xlink:href="#SVGID_1_"  style="overflow:visible;"/>
	</clipPath>
	
		<rect x="-4.4" y="314.4" style="clip-path:url(#SVGID_00000136397191530896353390000011192367091388591754_);fill:#FFFFFF;" width="604" height="288"/>
	<g style="clip-path:url(#SVGID_00000136397191530896353390000011192367091388591754_);">
		
			<image style="overflow:visible;" width="626" height="626" xlink:href="bg.jpg"  transform="matrix(0.7348 0 0 0.7348 75.6737 237.916)">
		</image>
	</g>
</g>
<rect x="-11" y="-14" class="st1" width="638" height="303"/>
<g>
	<g>
		<g>
			<g>
				<g>
					<g>
						<defs>
							<path id="SVGID_00000016040392941797503240000011042245649248139194_" d="M368.2,257.6c-4.1,0.9-8.5,0.7-12.6-0.5
								c-6.2-1.8-11.5-5.8-14.8-11.3l-45.7-75.4c-5.8-9.5-6.8-21-2.8-31.3l25.2-66.1c3.3-8.6,10.2-15.2,18.9-18l90-29.4
								c6.4-2,13.2,0,17.4,5l62.9,75.4c3.5,4.2,5.5,9.3,5.8,14.7c0.3,5.4-1.1,10.7-4.1,15.2l-45.2,69.3c-3.6,5.6-8.7,10.1-14.7,13.1
								l-74.5,37.2C372.3,256.4,370.2,257.2,368.2,257.6z"/>
						</defs>
						<clipPath id="SVGID_00000057849408223655956900000002545175283509712783_">
							<use xlink:href="#SVGID_00000016040392941797503240000011042245649248139194_"  style="overflow:visible;"/>
						</clipPath>
						<g style="clip-path:url(#SVGID_00000057849408223655956900000002545175283509712783_);">
							<path class="st3" d="M326.5,304.2c-38.2-57.4-76.2-114.8-114.4-172.2l188.4,38.1C375.9,214.7,351.2,259.4,326.5,304.2z"/>
							<polygon class="st4" points="325.6,57 212.3,132.3 400.8,170.2 							"/>
							<path class="st5" d="M527.8,115.1c-42.4,18.3-84.7,36.6-126.9,54.8l38-188.5C468.5,25.9,498.2,70.4,527.8,115.1z"/>
							<path class="st6" d="M527.8,115.1c-42.3,18.1-84.7,36.2-127.1,54.2c54.5,29.5,109,59.1,163.5,88.7
								C552.2,210.3,540.1,162.7,527.8,115.1z"/>
							<path class="st7" d="M326.1,307c69-23.2,137.9-46.3,206.8-69.5c-44.1-22.7-88-45.5-132.1-68.2
								C375.9,215.2,351,261.2,326.1,307z"/>
							<polygon class="st8" points="326,56.4 401.2,169.5 439.2,-18.8 							"/>
						</g>
					</g>
				</g>
			</g>
		</g>
		<g>
			<g>
				<g>
					<g>
						<g>
							<g>
								<g>
									<g>
										<g>
											<g>
												
													<ellipse transform="matrix(0.991 -0.1336 0.1336 0.991 -12.2401 45.2166)" class="st9" cx="330.7" cy="113.8" rx="6.3" ry="14"/>
											</g>
											<g>
												<path class="st9" d="M368.2,257.6c-4.1,0.9-8.5,0.7-12.6-0.5c-6.2-1.8-11.5-5.8-14.8-11.3l-45.7-75.4
													c-5.8-9.5-6.8-21-2.8-31.3l25.2-66.1c3.3-8.6,10.2-15.2,18.9-18l90-29.4c6.4-2,13.2,0,17.4,5l62.9,75.4
													c3.5,4.2,5.5,9.3,5.8,14.7c0.3,5.4-1.1,10.7-4.1,15.2l-45.2,69.3c-3.6,5.6-8.7,10.1-14.7,13.1l-74.5,37.2
													C372.3,256.4,370.2,257.2,368.2,257.6z M336.9,56.9l0.6,1.9c-7.6,2.5-13.7,8.2-16.5,15.8l-25.2,66.1
													c-3.5,9.3-2.6,19.4,2.5,27.9l45.7,75.4c5.9,9.6,18.3,13.3,28.4,8.2l74.5-37.2c5.4-2.7,9.9-6.7,13.2-11.8l45.1-69.4
													c5.2-7.9,4.5-18.2-1.5-25.4l-63-75.3c-3.3-3.9-8.5-5.5-13.3-3.9l-90,29.4L336.9,56.9z"/>
											</g>
											<g>
												<path class="st9" d="M348.9,249.2c-0.5,0.1-1,0.1-1.4,0.1c-2.8,0-5-2-6.2-3.8l-44.8-73.8c-5.2-8.8-9.3-18.7-4.1-31.3
													l27.2-65.6c1.2-2.8,3.7-4.6,6.6-5c3.1-0.3,5.9,0.9,7.5,3.5l57.2,83c4.2,6,4.6,13.8,0.9,20.3l-38.1,68.8l0,0
													C352.1,247.9,350.5,248.9,348.9,249.2z M325.8,72.6c-1.7,0.4-3.2,1.6-3.9,3.3l-27.2,65.6c-4.5,10.7-1.7,19.4,3.9,28.9
													l44.8,73.7c0.7,1.2,2.2,2.6,4,2.6c1.5,0,2.9-0.9,4.1-2.7l38.1-68.5c3.1-5.7,2.8-12.4-0.8-17.6l-57.2-83
													c-1.1-1.7-3.2-2.6-5.2-2.3C326.2,72.5,326.1,72.6,325.8,72.6z"/>
											</g>
											<g>
												<path class="st9" d="M369.1,256.8c-2.5,0.6-5-0.2-6.7-2.2c-2.3-2.4-2.7-5.7-1-8.6l37.9-66.6c2.9-5.1,7.3-9,12.7-11.2
													l91-38.5c1.5-0.5,3.4,0,4.5,1.4c1.2,1.4,1.3,3.1,0.6,4.4c-11,17.3-43.4,66.5-46.3,71c-3.2,4.8-8.9,8.5-9,8.8l-0.1,0.1
													L371,256.1C370.2,256.5,369.6,256.7,369.1,256.8z M503.8,132.2l-91,38.5c-4.8,2-8.8,5.5-11.4,10.1l-38,66.6
													c-1.2,2.2-0.5,4.3,0.7,5.5c1.2,1.2,3.2,2.2,5.6,0.9l81.5-40.7c0.7-0.4,5.6-3.9,8.3-7.9c2.9-4.4,35.3-53.6,46.3-70.9
													c0.3-0.3,0-0.9-0.3-1.3C504.9,132.3,504.1,132,503.8,132.2L503.8,132.2z"/>
											</g>
											<g>
												<g>
													<path class="st9" d="M409.8,159.5c-4.5,0.9-9.2-0.9-11.9-4.7l-59.7-87.9c-1.6-2.2-1.9-5.1-1-7.7
														c0.9-2.6,2.9-4.7,5.6-5.4l84.6-26.9c6.1-1.9,12.6,0,16.6,4.9l62.9,76.6c1.6,2,2.2,4.6,1.6,7.2
														c-0.6,2.6-2.4,4.6-4.8,5.6l-92.1,37.8C411.1,159.2,410.5,159.4,409.8,159.5z M429.4,29c-0.4,0.1-0.8,0.2-1.1,0.4
														l-84.5,27c-1.9,0.6-3.3,2-3.9,3.9c-0.6,1.8-0.4,3.8,0.7,5.4l59.7,87.9c2.3,3.4,6.8,4.8,10.6,3.2l92-37.7
														c1.7-0.7,2.9-2.1,3.3-3.8c0.5-1.8,0-3.6-1.1-5l-62.9-76.7C438.9,29.5,434.1,27.9,429.4,29z"/>
												</g>
												<g>
													<g>
														
															<ellipse transform="matrix(8.842065e-02 -0.9961 0.9961 8.842065e-02 336.3526 476.1949)" class="st9" cx="428.3" cy="54.3" rx="8.9" ry="13.1"/>
													</g>
													<g>
														<path class="st9" d="M443.9,59.1c-0.2,1-0.5,2-1,2.9c-0.5,0.9-1.2,1.7-2,2.5c-0.8,0.7-1.6,1.4-2.6,2
															c-0.9,0.5-1.9,1.1-2.9,1.4c-0.5,0.1-1,0.4-1.5,0.5c-0.2,0.1-0.5,0.1-0.8,0.2c-0.3,0-0.5,0.1-0.8,0.2l-0.8,0.2
															c-0.3,0-0.6,0-0.8,0.2c-0.3,0-0.6,0-0.9,0l-0.9,0c-0.3,0-0.6,0-0.9,0l-0.7,0c-0.6,0-1,0-1.7-0.1
															c-1.1-0.1-2.1-0.3-3.1-0.6c-1-0.3-2.1-0.6-3.1-1c-1-0.5-2-0.9-3-1.5s-1.9-1.3-2.7-2c-0.2-0.2-0.4-0.4-0.6-0.5
															c-0.2-0.2-0.4-0.4-0.6-0.7c-0.4-0.4-0.7-0.9-1.1-1.3c-0.1-0.2-0.3-0.5-0.4-0.8s-0.3-0.5-0.4-0.8
															c-0.3-0.5-0.5-1.1-0.7-1.7c-0.4-1.1-0.5-2.4-0.4-3.5c0.1-1.1,0.4-2.3,0.9-3.2c0.5-1,1.2-1.7,2-2.4
															c-0.6,0.8-0.9,1.7-1.2,2.6c-0.2,0.9-0.2,1.9-0.2,2.8c0.2,1.9,1.1,3.7,2.3,5c1.2,1.4,2.7,2.6,4.4,3.5
															c1.7,0.9,3.4,1.6,5.3,2c0.9,0.2,1.9,0.4,2.8,0.5c0.5,0,0.9,0.1,1.4,0.1l0.7,0c0.3,0,0.5,0,0.7,0
															c1.9-0.1,3.7-0.2,5.5-0.7c0.4-0.1,0.9-0.2,1.4-0.4c0.5-0.1,0.8-0.3,1.4-0.5c0.8-0.3,1.7-0.8,2.5-1.3
															c0.8-0.4,1.6-1.1,2.2-1.8C442.8,60.7,443.4,60,443.9,59.1z"/>
													</g>
												</g>
												<g>
													<g>
														
															<ellipse transform="matrix(8.842065e-02 -0.9961 0.9961 8.842065e-02 323.4612 560.47)" class="st9" cx="467.9" cy="103.5" rx="8.9" ry="13.1"/>
													</g>
													<g>
														<path class="st9" d="M472.4,91.6c3.6,0.1,7.3,1.4,10.4,3.9c1.5,1.4,2.9,2.9,3.7,5c0.9,2,1.2,4.3,0.7,6.6
															c-0.2,1.2-0.5,2.2-1.1,3.3c-0.5,1-1.1,2-1.8,2.8c-1.4,1.7-3.2,3-5,4.1c-0.9,0.5-1.8,0.9-2.9,1.2c-1,0.3-2,0.6-2.9,0.8
															c-2,0.4-4.1,0.6-6.1,0.4c-2-0.2-4-0.5-6-1.1c-2-0.6-3.8-1.5-5.6-2.7c-1.7-1.2-3.3-2.7-4.6-4.4
															c-0.6-0.8-1.2-1.8-1.7-2.9c-0.5-1.1-0.8-2.1-0.9-3.2c-0.3-2.2,0-4.6,0.9-6.6c0.2-0.2,0.3-0.5,0.3-0.8l0.5-0.7l0.3-0.3
															l0.3-0.3c0.2-0.2,0.3-0.5,0.5-0.6c0.2-0.2,0.4-0.4,0.5-0.6c0.2-0.2,0.4-0.4,0.5-0.6c0.4-0.4,0.8-0.7,1.2-1l0.7-0.4
															c0.2-0.1,0.4-0.3,0.7-0.4c0.4-0.3,0.9-0.5,1.3-0.6c1-0.4,1.8-0.7,2.7-1c0.5-0.1,0.9-0.2,1.3-0.3
															c0.4-0.1,1-0.1,1.4-0.2l1.3,0c0.5,0,0.9,0.1,1.4,0.1c-1.8,0.3-3.5,0.7-5.2,1.3s-3.2,1.7-4.5,2.8
															c-0.3,0.3-0.6,0.7-0.9,1c-0.2,0.1-0.3,0.3-0.4,0.5c-0.2,0.2-0.3,0.3-0.4,0.5l-0.4,0.5l-0.2,0.2l-0.2,0.2l-0.2,0.6
															c0,0.2-0.2,0.4-0.2,0.6c-0.7,1.7-0.8,3.4-0.4,5.2c0.4,1.7,1.2,3.3,2.3,4.8c1.1,1.4,2.5,2.5,3.9,3.5
															c3,1.8,6.6,2.9,10.1,3.1c3.5,0.2,7.2-0.4,10.3-2c1.6-0.8,3.1-1.8,4.2-3.2c1.2-1.3,2.1-2.8,2.5-4.6
															c0.5-1.8,0.3-3.6-0.2-5.2c-0.5-1.6-1.6-3.2-2.8-4.5C479,94.1,475.7,92.5,472.4,91.6z"/>
													</g>
												</g>
												<g>
													<g>
														
															<ellipse transform="matrix(8.842065e-02 -0.9961 0.9961 8.842065e-02 251.1287 524.0858)" class="st9" cx="411.9" cy="124.8" rx="8.9" ry="13.1"/>
													</g>
													<g>
														<path class="st9" d="M427.4,129.7c-0.2,1-0.5,2-1,2.9c-0.5,0.9-1.2,1.7-2,2.5c-0.8,0.7-1.6,1.4-2.6,2
															c-0.9,0.5-1.9,1.1-2.9,1.4c-0.5,0.1-1,0.4-1.5,0.5c-0.2,0.1-0.5,0.1-0.8,0.2s-0.5,0.1-0.8,0.2l-0.8,0.2
															c-0.3,0-0.6,0-0.8,0.2c-0.3,0-0.6,0-0.9,0l-0.9,0c-0.3,0-0.6,0-0.9,0l-0.7,0c-0.6,0-1,0-1.7-0.1
															c-1.1-0.1-2.1-0.3-3.1-0.6c-1-0.3-2.1-0.6-3.1-1c-1-0.5-2-0.9-3-1.5c-0.9-0.6-1.9-1.3-2.7-2c-0.2-0.2-0.4-0.4-0.6-0.5
															c-0.2-0.2-0.4-0.4-0.6-0.7c-0.4-0.4-0.7-0.9-1.1-1.3c-0.1-0.2-0.3-0.5-0.4-0.8c-0.1-0.2-0.3-0.5-0.4-0.8
															c-0.3-0.5-0.5-1.1-0.7-1.7c-0.4-1.1-0.5-2.4-0.4-3.5c0.1-1.1,0.4-2.3,0.9-3.2c0.5-1,1.2-1.7,2-2.4
															c-0.6,0.8-0.9,1.7-1.2,2.6c-0.2,0.9-0.2,1.9-0.2,2.8c0.2,1.9,1.1,3.7,2.3,5c1.2,1.4,2.7,2.6,4.4,3.5
															c1.7,0.9,3.4,1.6,5.3,2c0.9,0.2,1.9,0.4,2.8,0.5c0.5,0,0.9,0.1,1.4,0.1l0.7,0c0.3,0,0.5,0,0.7,0
															c1.9-0.1,3.7-0.2,5.5-0.7c0.4-0.1,0.9-0.2,1.4-0.4c0.5-0.1,0.8-0.3,1.4-0.5c0.8-0.3,1.7-0.8,2.5-1.3
															c0.8-0.4,1.6-1.1,2.2-1.8C426.4,131.3,427,130.5,427.4,129.7z"/>
													</g>
												</g>
												<g>
													<g>
														
															<ellipse transform="matrix(8.842070e-02 -0.9961 0.9961 8.842070e-02 267.1826 440.5527)" class="st9" cx="374.3" cy="74.3" rx="8.9" ry="13.1"/>
													</g>
													<g>
														<path class="st9" d="M389.7,79.1c-0.2,1-0.5,2-1,2.9c-0.5,0.9-1.2,1.7-2,2.5c-0.8,0.7-1.6,1.4-2.6,2
															c-0.9,0.5-1.9,1.1-2.9,1.4c-0.5,0.1-1,0.4-1.5,0.5c-0.2,0.1-0.5,0.1-0.8,0.2c-0.3,0-0.5,0.1-0.8,0.2l-0.8,0.2
															c-0.3,0-0.6,0-0.8,0.2c-0.3,0-0.6,0-0.9,0l-0.9,0c-0.3,0-0.6,0-0.9,0l-0.7,0c-0.6,0-1,0-1.7-0.1
															c-1.1-0.1-2.1-0.3-3.1-0.6c-1-0.3-2.1-0.6-3.1-1c-1-0.5-2-0.9-3-1.5c-0.9-0.6-1.9-1.3-2.7-2c-0.2-0.2-0.4-0.4-0.6-0.5
															c-0.2-0.2-0.4-0.4-0.6-0.7c-0.4-0.4-0.7-0.9-1.1-1.3c-0.1-0.2-0.3-0.5-0.4-0.8c-0.1-0.2-0.3-0.5-0.4-0.8
															c-0.3-0.5-0.5-1.1-0.7-1.7c-0.4-1.1-0.5-2.4-0.4-3.5c0.1-1.1,0.4-2.3,0.9-3.2c0.5-1,1.2-1.7,2-2.4
															c-0.6,0.8-0.9,1.7-1.2,2.6c-0.2,0.9-0.2,1.9-0.2,2.8c0.2,1.9,1.1,3.7,2.3,5c1.2,1.4,2.7,2.6,4.4,3.5
															c1.7,0.9,3.4,1.6,5.3,2c0.9,0.2,1.9,0.4,2.8,0.5c0.5,0,0.9,0.1,1.4,0.1l0.7,0c0.3,0,0.5,0,0.7,0
															c1.9-0.1,3.7-0.2,5.5-0.7c0.4-0.1,0.9-0.2,1.4-0.4c0.5-0.1,0.8-0.3,1.4-0.5c0.8-0.3,1.7-0.8,2.5-1.3
															c0.8-0.4,1.6-1.1,2.2-1.8C388.8,80.7,389.3,79.9,389.7,79.1z"/>
													</g>
												</g>
												<g>
													<g>
														
															<ellipse transform="matrix(8.842065e-02 -0.9961 0.9961 8.842065e-02 292.8867 498.0843)" class="st9" cx="418.6" cy="89" rx="8.9" ry="13.1"/>
													</g>
													<g>
														<path class="st9" d="M435,85.1c0.4,0.4,0.8,0.9,1.1,1.3c0.3,0.4,0.6,1,0.9,1.6c0.5,1.1,0.7,2.3,0.7,3.6
															c0,1.2-0.2,2.5-0.6,3.8c-0.1,0.4-0.2,0.6-0.3,0.9c-0.2,0.2-0.2,0.6-0.4,0.8c-0.2,0.2-0.2,0.6-0.5,0.9
															c-0.2,0.2-0.4,0.5-0.6,0.8c-0.4,0.5-0.8,0.9-1.2,1.4c-0.2,0.2-0.5,0.4-0.6,0.7c-0.2,0.1-0.5,0.4-0.7,0.6
															c-1.1,0.8-2.1,1.5-3.2,2c-1.2,0.5-2.2,1-3.4,1.2c-1.1,0.4-2.4,0.5-3.6,0.6c-1.3,0.1-2.5,0.1-3.7,0.1
															c-0.3,0-0.6-0.1-0.9-0.1c-0.3,0-0.6-0.1-0.9-0.1l-0.8-0.1c-0.2,0-0.3,0-0.5,0l-0.5,0c-0.5-0.1-1.2-0.2-1.8-0.5
															c-0.4-0.1-0.5-0.1-0.9-0.2c-0.4-0.1-0.6-0.2-0.8-0.4l-0.8-0.4c-0.2-0.2-0.6-0.2-0.8-0.4c-0.2-0.2-0.6-0.2-0.8-0.4
															l-0.7-0.5c-0.9-0.6-2-1.4-2.9-2.2c-0.8-0.9-1.6-1.8-2.3-2.8c-0.3-0.5-0.6-1-0.9-1.6c-0.1-0.2-0.2-0.6-0.3-0.8
															c-0.1-0.2-0.1-0.5-0.3-0.8l-0.2-0.9c0-0.3,0-0.6-0.2-0.8l-0.1-0.4c-0.1-0.1,0-0.3,0-0.5c0-0.3,0-0.6,0.1-0.9
															c0.6,2,1.7,3.9,3.1,5.4c0.7,0.8,1.6,1.5,2.4,2c0.5,0.3,0.9,0.5,1.4,0.9c0.4,0.2,0.9,0.5,1.3,0.7c1.9,1,3.9,1.6,6,1.9
															c2.1,0.3,4.2,0.4,6.3,0.2c2.1-0.2,4.2-0.8,6.1-1.6c1.9-0.8,3.7-2,5.2-3.6c0.8-0.7,1.3-1.6,1.8-2.5
															c0.5-0.9,0.8-1.9,1-2.9c0.2-1,0.2-2,0-3.1C435.8,87,435.4,86.1,435,85.1z"/>
													</g>
												</g>
												<g>
													<path class="st9" d="M352.7,75.9l-8.8-12.9c-0.4-0.7-0.3-1.3-0.2-1.6c0.1-0.3,0.5-1,1.2-1.2l19.5-6.2
														c-1.3,0.4-16.2,6.3-17.4,8.4C345.9,64.6,352.2,75.3,352.7,75.9z"/>
												</g>
												<g>
													<path class="st9" d="M454.1,54.6c-0.5-0.6-17.6-18.1-23.2-17.9c-5.7,0.2-32.2,6.3-32.2,6.3l30.8-9.8
														c0.2-0.1,0.5-0.1,0.8-0.2c3.2-0.7,6.4,0.4,8.6,3.1L454.1,54.6z"/>
												</g>
												<g>
													<polygon class="st9" points="456.1,69.4 440.8,63.6 437.7,65.9 													"/>
												</g>
												<g>
													<path class="st9" d="M411.3,56.7c0,0-7.5-2.7-10.1-3.6c-2.6-1-3.3,2-2.3,3l-13.6-4l-16,5.1c0,0,35.9,10.7,39,11.7
														s4.1-2.1,3.7-2.9l9.3,2.3l-7.7-6.4L411.3,56.7z"/>
												</g>
												<g>
													<path class="st9" d="M431.3,100.9l19.2,5.2c0,0-1.4-6.5,1.8-9.4l-15.4-4.1C437,92.6,435.5,97.6,431.3,100.9z"/>
												</g>
												<g>
													<path class="st9" d="M447,137.2c-12.6,5.2-25.1,10.4-37.9,15.5c-0.2,0.1-0.5,0.1-0.7,0.3c-1.8,0.5-3.8-0.4-4.8-2
														l-25.4-37.3l14.8,17.7l-5.4-10.9l8.9,10.3c0,0,5.4,7.1,11.3,7.5c5.9,0.5,14.4-2.1,14.4-2.1s-0.4,1.6-4.4,3
														c-3.9,1.4-10.5,2.3-10.5,2.3s7.7,3.6,18.3-3.4c2.9,0,5.9,0,9-0.1C438.7,137.7,442.8,137.4,447,137.2z"/>
												</g>
												<g>
													<path class="st9" d="M502,114c-0.1,0.4-0.3,0.8-0.9,1l-40.2,16.6l8-4.9l-23.7-4.6l2.8-2.9l-27.2-8.4l38.3,7.5l-2,2.4
														c0,0,10.9,2.6,20.1-3.9c0,0,9-4.5,8.9-11.8c-0.2-7.3-12.6-18.9-12.9-19.3l7.2,4.9l-12-18.5l33.5,40.8
														C502.2,113.2,502.1,113.6,502,114z"/>
												</g>
												<g>
													<polygon class="st9" points="363.6,92.1 371.5,99.3 406.7,108.6 372.9,102.8 374.9,108.8 													"/>
												</g>
											</g>
											<g>
												<g>
													<path class="st9" d="M470.3,168.9c-0.1,1.7-0.5,3.2-1.2,4.7c-0.6,1.5-1.4,2.9-2.3,4.3c-1.8,2.7-4.2,5-6.8,6.9
														s-5.5,3.5-8.6,4.4c-1.5,0.4-3.1,0.8-4.8,0.9c-0.9,0-1.6,0-2.5-0.2c-0.4-0.1-0.8-0.1-1.2-0.3c-0.4-0.1-0.8-0.3-1.1-0.6
														c1.5,0.5,3.1,0.3,4.6,0c1.5-0.3,3-0.7,4.4-1.4c2.9-1.2,5.5-2.7,8.1-4.5c2.5-1.9,4.8-4,6.8-6.3
														C467.7,174.4,469.4,171.8,470.3,168.9z"/>
												</g>
											</g>
											<g>
												<path class="st9" d="M428.4,202.4c0,0.5,0,1,0,1.5c0,0.3,0,0.5-0.1,0.8c0,0.2,0,0.5-0.2,0.7c0,0.2-0.1,0.5-0.2,0.7
													c0,0.1-0.1,0.5-0.2,0.7c-0.1,0.5-0.3,0.9-0.5,1.5c-0.9,1.8-1.9,3.6-3.1,5.2c-2.4,3.3-5.4,6.1-8.7,8.3
													c-0.9,0.5-1.7,1.1-2.6,1.7c-0.9,0.5-1.8,0.9-2.8,1.3c-1.9,0.8-3.9,1.5-6,1.7c-1.1,0.2-2.1,0.2-3.2,0.1
													c-0.5-0.1-1.1-0.1-1.7-0.4c-0.5-0.1-1.1-0.4-1.6-0.7c-0.9-0.6-1.8-1.6-2.1-2.6c-0.1-0.5-0.2-1.1-0.2-1.5
													c0-0.5,0.2-1,0.3-1.5c-0.1,0.9,0.1,1.9,0.5,2.8c0.1,0.2,0.3,0.4,0.4,0.7c0.1,0.2,0.4,0.4,0.5,0.6
													c0.4,0.4,0.8,0.6,1.2,0.8c0.8,0.4,1.8,0.6,2.9,0.6c0.9,0.1,1.9-0.1,2.9-0.3c1.9-0.3,3.7-1.1,5.5-1.8
													c1.7-0.8,3.4-1.8,5-2.9c3.2-2.2,6.2-4.7,8.6-7.7c1.2-1.4,2.4-3,3.4-4.6C427.3,206.2,428.1,204.4,428.4,202.4z"/>
											</g>
											<g>
												<path class="st9" d="M403.3,230l-30,15c-0.1,0.1-0.1,0.1-0.2,0.1c-0.3,0-0.5-0.3-0.5-0.3c-0.1-0.2-0.1-0.4,0-0.6
													l17.3-30.1l-11.1,25.1L403.3,230z"/>
											</g>
											<g>
												<path class="st9" d="M425.7,171.7c-3.8,3.1-10,7.8-12.4,9.7c-3.5,2.6-18.1,23.5-18.4,23.8l12.2-21.2
													c2.1-3.8,5.5-6.7,9.4-8.4L425.7,171.7z"/>
											</g>
											<g>
												<path class="st9" d="M489.9,147.5c-3.9,6-8.5,13.1-13.2,20.2l6.7-15.9l-27.1,7.7l32.2-13.6
													C489.4,145.6,490.4,146.7,489.9,147.5z"/>
											</g>
											<g>
												<path class="st9" d="M355.9,243.7c1.6-4.2,3.4-8.2,5.4-12.2c2-4,4.1-7.8,6.1-11.7c2.2-3.8,4.5-7.6,6.8-11.3
													c2.4-3.8,4.9-7.4,7.6-10.9c-1.6,4.2-3.4,8.2-5.4,12.2c-2,4-4.1,7.8-6.1,11.7c-2.2,3.8-4.5,7.6-6.8,11.3
													S358.7,240.1,355.9,243.7z"/>
												<path class="st9" d="M357.9,244.9c1.6-4.2,3.4-8.2,5.4-12.2c2-4,4.1-7.8,6.1-11.7c2.2-3.8,4.5-7.6,6.8-11.3
													c2.4-3.8,4.9-7.4,7.6-10.9c-1.6,4.2-3.4,8.2-5.4,12.2c-2,4-4.1,7.8-6.1,11.7c-2.2,3.8-4.5,7.6-6.8,11.3
													C363.1,237.7,360.7,241.4,357.9,244.9z"/>
												<path class="st9" d="M359.8,246.2c1.6-4.2,3.4-8.2,5.4-12.2c2-4,4.1-7.8,6.1-11.7c2.2-3.8,4.5-7.6,6.8-11.3
													c2.4-3.8,4.9-7.4,7.6-10.9c-1.6,4.2-3.4,8.2-5.4,12.2c-2,4-4.1,7.8-6.1,11.7c-2.2,3.8-4.5,7.6-6.8,11.3
													C365,239,362.6,242.7,359.8,246.2z"/>
											</g>
											<g>
												<path class="st9" d="M355.5,116.7c-9.1-11.3-18-22.8-27.1-34.1c-0.4-0.5-1.2-0.5-1.5,0.2c-4.2,8.1-8.5,16-12.7,24.1
													c-0.1,0.4-0.4,0.7-0.5,1c3.9-9.6,7.7-19.4,11.6-29.1c0.3-0.9,1.1-1.2,1.6-1.4c0.4-0.1,1.5-0.3,2.3,0.9
													C337.9,90.9,346.7,103.8,355.5,116.7z"/>
											</g>
											<g>
												<path class="st9" d="M386.1,173.6L348.8,241c-0.6,0.8-1,1.1-1.2,1.2c-0.3,0-0.9-0.2-1.3-1
													c-8.9-14.6-17.7-29.2-26.6-43.8c4.3,5.4,8.5,10.6,12.9,15.9c-1.5-3.9-2.8-7.7-4.3-11.6c3.5,5.3,7,10.6,10.6,16
													c0,0,8.7,13.2,13.5,9.1c4.9-4.1,8.2-11.9,8.2-11.9l1.1-9.4l4.7-1.8c8.4-13.9,13.1-22.5,15.5-28.1
													c0.8-1.9,2.6-5.2,2.2-9.6c-0.2-1.5-0.8-3.1-2-6.1c-1.4-3.5-2.6-5.5-6.6-13.4c-0.6-1.3-1.2-2.3-1.5-2.9
													c3.7,5.4,7.4,10.8,11.1,16.2C388.2,163.9,388.4,169.2,386.1,173.6z"/>
											</g>
											<g>
												<path class="st9" d="M308.7,179.1l-6.4-10.5c-3.6-5.9-5.7-11.2-5.7-16.7c0-2.1,0.4-4.1,2-8.7c1.6-4.9,4.2-11.8,8.2-19.9
													c-2.3,8-3.3,14.8-3.9,19.7c-0.9,8.8-2,17.6,1.8,27.4C305.8,173.1,307.1,176,308.7,179.1z"/>
											</g>
											<g>
												<polygon class="st9" points="378,150.9 362.7,155.5 377.1,148.6 												"/>
											</g>
											<g>
												<path class="st9" d="M333.1,129c-1.2,0.2-2.5,0-3.7-0.8c-2.9-2-5.3-6.9-6.1-12.6c-1.3-8.6,0.8-15.7,5-16.7l0,0
													c1.2-0.2,2.5,0,3.7,0.8c2.9,2,5.3,6.9,6.1,12.6l0,0C339.5,120.9,337.3,128.1,333.1,129L333.1,129z M328.8,101.3
													L328.8,101.3c-2.4,0.5-4.2,6.3-3.1,13.8c0.9,5.9,3.2,9.7,5,11c0.7,0.4,1.2,0.6,1.8,0.5l0,0c2.4-0.5,4.2-6.3,3.1-13.8
													l0,0c-0.9-5.9-3.2-9.7-5-11C330,101.3,329.4,101.1,328.8,101.3z"/>
											</g>
											<g>
												<path class="st9" d="M336.2,98.9c0.6,0.5,1.2,1.1,1.7,1.7c0.5,0.6,1,1.2,1.5,1.8c0.5,0.6,0.9,1.4,1.2,2.1
													c0.4,0.7,0.7,1.5,1.1,2.2c1.3,3,2,6.1,2.4,9.4c0.2,1.6,0.2,3.3,0.1,5c-0.1,1.7-0.4,3.4-1,5c-0.2,0.4-0.2,0.9-0.4,1.3
													l-0.2,0.6c0,0.2-0.2,0.4-0.4,0.7c-0.4,0.8-1,1.6-1.6,2.4c-1.2,1.6-2.9,2.9-4.9,3.6s-4.3,0.8-6.2,0.2
													c-1-0.3-1.9-0.7-2.8-1.2c-0.4-0.2-0.8-0.6-1.2-0.8c-0.5-0.3-0.7-0.6-1.1-1c-1.3-1.3-2.3-2.8-3.1-4.4
													c-0.4-0.8-0.7-1.5-1.1-2.3c-0.1-0.4-0.3-0.7-0.4-1.3c-0.1-0.4-0.3-0.7-0.4-1.1c-0.1-0.4-0.2-0.8-0.2-1.2
													c-0.1-0.4-0.2-0.8-0.2-1.2c-0.2-0.8-0.3-1.6-0.4-2.5c-0.1-0.4,0-0.9-0.1-1.3c-0.1-0.4,0-0.9-0.1-1.1
													c0-0.9,0-1.6,0.1-2.4c0-0.7,0.1-1.6,0.3-2.4c0.1-0.8,0.2-1.6,0.4-2.3c0.1-0.8,0.4-1.6,0.6-2.3c0.3-0.8,0.5-1.5,1-2.2
													c-0.8,3-1,6-0.8,9.2c0.2,1.5,0.3,3.1,0.6,4.6c0.3,1.5,0.7,3,1.2,4.5c0.5,1.5,1.2,2.9,2,4.2c0.8,1.3,1.7,2.6,2.8,3.6
													c0.3,0.3,0.6,0.5,0.9,0.7c0.3,0.3,0.5,0.4,0.9,0.6c0.7,0.4,1.4,0.7,2.1,0.8c1.5,0.5,3,0.3,4.5-0.1
													c1.5-0.5,2.7-1.4,3.6-2.7c1-1.1,1.6-2.6,2.1-4c0.5-1.4,0.8-3,1-4.4c0.1-1.6,0.3-3.1,0.2-4.5c-0.1-3-0.6-6.2-1.4-9.1
													C339.5,104.1,338.1,101.3,336.2,98.9z"/>
											</g>
											<g>
												
													<ellipse transform="matrix(0.991 -0.1336 0.1336 0.991 -18.3978 47.0148)" class="st9" cx="341.1" cy="160.6" rx="6.3" ry="14"/>
											</g>
											<g>
												<path class="st9" d="M343.4,175.8c-1.2,0.2-2.5,0-3.7-0.8c-2.9-2-5.3-6.9-6.1-12.6c-1.3-8.6,0.8-15.7,5-16.7l0,0
													c1.2-0.2,2.5,0,3.7,0.8c2.9,2,5.3,6.9,6.1,12.6l0,0C349.8,167.7,347.6,174.9,343.4,175.8L343.4,175.8z M339.1,148.1
													L339.1,148.1c-2.4,0.5-4.2,6.3-3.1,13.8c0.9,5.9,3.2,9.7,5,11c0.7,0.4,1.2,0.6,1.8,0.5l0,0c2.4-0.5,4.2-6.3,3.1-13.8
													l0,0c-0.9-5.9-3.2-9.7-5-11C340.3,148.1,339.6,147.9,339.1,148.1z"/>
											</g>
											<g>
												<path class="st9" d="M346.5,145.7c0.6,0.5,1.2,1.1,1.7,1.7s1,1.2,1.5,1.8c0.5,0.6,0.9,1.4,1.2,2.1
													c0.4,0.7,0.7,1.5,1.1,2.2c1.3,3,2,6.1,2.4,9.4c0.2,1.6,0.2,3.3,0.1,5c-0.1,1.7-0.4,3.4-1,5c-0.2,0.4-0.2,0.9-0.4,1.3
													l-0.2,0.6c0,0.2-0.2,0.4-0.4,0.7c-0.4,0.8-1,1.6-1.6,2.4c-1.2,1.6-2.9,2.9-4.9,3.6c-2,0.7-4.3,0.8-6.2,0.2
													c-1-0.3-1.9-0.7-2.8-1.2c-0.4-0.2-0.8-0.6-1.2-0.8c-0.5-0.3-0.7-0.6-1.1-1c-1.3-1.3-2.3-2.8-3.1-4.4
													c-0.4-0.8-0.7-1.5-1.1-2.3c-0.1-0.4-0.3-0.7-0.4-1.3c-0.1-0.4-0.3-0.7-0.4-1.1s-0.2-0.8-0.2-1.2s-0.2-0.8-0.2-1.2
													c-0.2-0.8-0.3-1.6-0.4-2.5c-0.1-0.4,0-0.9-0.1-1.3c-0.1-0.4,0-0.9-0.1-1.1c0-0.9,0-1.6,0.1-2.4c0-0.7,0.1-1.6,0.3-2.4
													c0.1-0.8,0.2-1.6,0.4-2.3c0.1-0.8,0.4-1.6,0.6-2.3c0.3-0.8,0.5-1.5,1-2.2c-0.8,3-1,6-0.8,9.2c0.2,1.5,0.3,3.1,0.6,4.6
													s0.7,3,1.2,4.5c0.5,1.5,1.2,2.9,2,4.2s1.7,2.6,2.8,3.6c0.3,0.3,0.6,0.5,0.9,0.7c0.3,0.3,0.5,0.4,0.9,0.6
													c0.7,0.4,1.4,0.7,2.1,0.8c1.5,0.5,3,0.3,4.5-0.1c1.5-0.5,2.7-1.4,3.6-2.7c1-1.1,1.6-2.6,2.1-4c0.5-1.5,0.8-3,1-4.4
													c0.1-1.6,0.3-3.1,0.2-4.5c-0.1-3-0.6-6.2-1.4-9.1C349.7,151,348.4,148.2,346.5,145.7z"/>
											</g>
											<g>
												
													<ellipse transform="matrix(0.991 -0.1336 0.1336 0.991 -24.4423 48.319)" class="st9" cx="347.7" cy="206.2" rx="6.3" ry="14"/>
											</g>
											<g>
												<path class="st9" d="M350.1,221.3c-1.2,0.2-2.5,0-3.7-0.8c-2.9-2-5.3-6.9-6.1-12.6c-1.3-8.6,0.8-15.7,5-16.7l0,0
													c1.2-0.2,2.5,0,3.7,0.8c2.9,2,5.3,6.9,6.1,12.6l0,0C356.5,213.2,354.3,220.5,350.1,221.3L350.1,221.3z M345.9,193.6
													L345.9,193.6c-2.4,0.5-4.2,6.3-3.1,13.8c0.9,5.9,3.2,9.7,5,11c0.7,0.4,1.2,0.6,1.8,0.5l0,0c2.4-0.5,4.2-6.3,3.1-13.8
													l0,0c-0.9-5.9-3.2-9.7-5-11C347,193.7,346.4,193.4,345.9,193.6z"/>
											</g>
											<g>
												<path class="st9" d="M353.2,191.3c0.6,0.5,1.2,1.1,1.7,1.7c0.5,0.6,1,1.2,1.5,1.8c0.5,0.6,0.9,1.4,1.2,2.1
													c0.4,0.7,0.7,1.5,1.1,2.2c1.3,3,2,6.1,2.4,9.4c0.2,1.6,0.2,3.3,0.1,5c-0.1,1.7-0.4,3.4-1,5c-0.2,0.4-0.2,0.9-0.4,1.3
													l-0.2,0.6c0,0.2-0.2,0.4-0.4,0.7c-0.4,0.8-1,1.6-1.6,2.4c-1.2,1.6-2.9,2.9-4.9,3.6c-2,0.7-4.3,0.8-6.2,0.2
													c-1-0.3-1.9-0.7-2.8-1.2c-0.4-0.2-0.8-0.6-1.2-0.8c-0.5-0.3-0.7-0.6-1.1-1c-1.3-1.3-2.3-2.8-3.1-4.4
													c-0.4-0.8-0.7-1.5-1.1-2.3c-0.1-0.4-0.3-0.7-0.4-1.3c-0.1-0.4-0.3-0.7-0.4-1.1c-0.1-0.4-0.2-0.8-0.2-1.2
													s-0.2-0.8-0.2-1.2c-0.2-0.8-0.3-1.6-0.4-2.5c-0.1-0.4,0-0.9-0.1-1.3c-0.1-0.4,0-0.9-0.1-1.1c0-0.9,0-1.6,0.1-2.4
													c0-0.7,0.1-1.6,0.3-2.4c0.1-0.8,0.2-1.6,0.4-2.3c0.1-0.8,0.4-1.6,0.6-2.3c0.3-0.8,0.5-1.5,1-2.2c-0.8,3-1,6-0.8,9.2
													c0.2,1.5,0.3,3.1,0.6,4.6c0.3,1.5,0.7,3,1.2,4.5c0.5,1.5,1.2,2.9,2,4.2c0.8,1.3,1.7,2.6,2.8,3.6
													c0.3,0.3,0.6,0.5,0.9,0.7c0.3,0.3,0.5,0.4,0.9,0.6c0.7,0.4,1.4,0.7,2.1,0.8c1.5,0.5,3,0.3,4.5-0.1
													c1.5-0.5,2.7-1.4,3.6-2.7c1-1.1,1.6-2.6,2.1-4c0.5-1.5,0.8-3,1-4.4c0.1-1.6,0.3-3.1,0.2-4.5c-0.1-3-0.6-6.2-1.4-9.1
													C356.5,196.5,355.2,193.5,353.2,191.3z"/>
											</g>
											<g>
												<polygon class="st9" points="299.9,159.7 327.7,148 301.6,163.2 												"/>
											</g>
											<g>
												<path class="st9" d="M299.7,156.9l37.8-16.5c1.9-0.8,2-3.4,0.4-4.5l-2.4-2.6c0,0-6.2,2.6-9-0.7
													c-2.8-3.3-8.8,1.1-8.5,2.2c0.8,1.9,7.4,2.7,7.4,2.7s-2.1,0.7-6.3,0.4l-18.8,8L299.7,156.9z"/>
											</g>
											<g>
												<path class="st9" d="M343.7,122l8.6-3.1l4.9,6.7l-22.3,8.9C338.6,131.2,341.5,126.9,343.7,122z"/>
											</g>
											<g>
												<path class="st9" d="M379.5,153.5l-26.1,7.9c0,0,1.5,7.3-1.5,12.8c-3,5.6-4,4.1-4,4.1s1.7,4,8.7-8.6c0,0-0.3,3.6-1.6,7
													l31.6-9.7L379.5,153.5z"/>
											</g>
											<g>
												<polygon class="st9" points="384.8,172.2 358.4,180.8 370.2,185.4 381,181.5 												"/>
											</g>
											<g>
												<polygon class="st9" points="337.9,180.3 316.5,186.2 312.8,180.6 332.9,175.1 												"/>
											</g>
											<g class="st10">
												<g class="st11">
													<path class="st12" d="M407.3,165.4c5.8-3,11.7-5.7,17.7-8.4c5.9-2.7,11.9-5.3,17.9-7.8c5.9-2.5,12-4.9,18.2-7.2
														c6.1-2.3,12.2-4.5,18.4-6.6c-5.8,3-11.7,5.7-17.7,8.4c-5.9,2.7-11.9,5.3-17.9,7.8c-6,2.4-12,4.9-18.2,7.2
														C419.6,161.1,413.5,163.3,407.3,165.4z"/>
												</g>
												<g class="st11">
													<path class="st12" d="M484.1,133.1c1.6-1.1,3.3-2,5-2.9c1.7-0.8,3.5-1.7,5.1-2.4c1.8-0.7,3.5-1.4,5.3-2
														c1.9-0.6,3.6-1.2,5.6-1.6c-1.6,1.1-3.3,2-5,2.9c-1.7,0.8-3.5,1.7-5.1,2.4c-1.8,0.7-3.5,1.4-5.3,2
														C487.8,132.1,485.9,132.8,484.1,133.1z"/>
												</g>
												<g class="st11">
													<path class="st12" d="M337.6,72.1c4.9,6.2,9.6,12.7,14.2,19.2c4.6,6.5,9.1,13,13.6,19.5c4.4,6.6,8.8,13.2,13.1,19.8
														c4.3,6.7,8.5,13.5,12.6,20.3c-4.9-6.2-9.6-12.7-14.2-19.2c-4.6-6.5-9.1-13-13.6-19.5c-4.5-6.6-8.8-13.2-13.1-19.8
														C345.7,85.7,341.5,78.9,337.6,72.1z"/>
												</g>
											</g>
											<g class="st10">
												<polygon class="st13" points="306,128.5 319.8,121.6 320.4,124.8 303.9,132.8 												"/>
											</g>
										</g>
										<path class="st9" d="M417.4,200.6c-2.9,1.1-6.3,3.2-9.5,5.8c-6,5-11.3,11.8-8.9,14.6c0.9,1,2.4,1.3,4.3,0.8
											c3.4-0.8,8-3.4,11.8-6.5c3.2-2.6,6-5.5,7.6-8.1c1.9-2.9,2.3-5.2,1.2-6.5C422.9,199.4,420.7,199.3,417.4,200.6z
											 M422.8,201.8c-0.1-0.1-0.1-0.1-0.2-0.2C422.6,201.6,422.6,201.8,422.8,201.8L422.8,201.8z"/>
										<path class="st9" d="M465,162.9c-3.2-0.4-8.7,2.2-14,6.8c-6.1,5-11.4,12.2-9.1,15.3c0.5,0.6,1.2,1.1,2.1,1.1
											c0.6,0.1,1.5,0,2.4-0.2c3.2-0.7,7.4-3.1,11.6-6.6c6.1-5,11.4-12.2,9.1-15.3C466.6,163.5,465.9,163,465,162.9z"/>
									</g>
								</g>
							</g>
						</g>
					</g>
				</g>
			</g>
		</g>
	</g>
	<g>
		<g>
			<g>
				<g>
					<g>
						<defs>
							<path id="SVGID_00000078025751557855554960000000784796717615553933_" d="M322.3,251.5c-1.6,5-4.5,9.6-8.3,13.3
								c-5.8,5.6-13.5,8.8-21.5,9l-110,2.4c-13.9,0.3-26.9-5.8-35.5-16.5l-55.7-68.5c-7.2-9-10.1-20.5-7.7-31.7l24.4-115.6
								c1.8-8.2,8.2-14.2,16.3-15.7l120.8-21c6.7-1.1,13.5-0.2,19.5,2.9c6.1,3,10.9,7.8,13.9,13.9l46.8,92.1c3.9,7.4,5.4,15.7,5,24
								l-6.3,103.8C323.6,246.3,323.1,249.1,322.3,251.5z"/>
						</defs>
						<clipPath id="SVGID_00000029733278940103745870000015755660544983763588_">
							<use xlink:href="#SVGID_00000078025751557855554960000000784796717615553933_"  style="overflow:visible;"/>
						</clipPath>
						<g style="clip-path:url(#SVGID_00000029733278940103745870000015755660544983763588_);">
							<path class="st3" d="M346.6,325.6C260.8,331,175,336.3,89.1,341.8l158.7-179.9C280.7,216.4,313.6,271,346.6,325.6z"/>
							<polygon class="st4" points="78.8,172.3 89.4,341.8 248.1,161.8 							"/>
							<path class="st5" d="M267.8-10.1c-6.7,57.2-13.3,114.4-20,171.4L67.8,2.6C134.4-1.6,201.1-5.9,267.8-10.1z"/>
							<path class="st6" d="M267.8-10.1c-6.9,57-13.8,114.2-20.7,171.2c66-40.5,132-80.9,198-121.4C386,23.1,326.9,6.4,267.8-10.1z"
								/>
							<path class="st7" d="M349.4,327.9c17.9-89,36-177.9,54-267c-52.1,33.5-104.1,66.8-156.1,100.3
								C281.3,216.7,315.4,272.3,349.4,327.9z"/>
							<polygon class="st8" points="78.4,171.5 247.7,160.8 67.8,2.3 							"/>
						</g>
					</g>
				</g>
			</g>
		</g>
		<g>
			<g>
				<g>
					<g>
						<g>
							<g>
								<g>
									<g>
										<g>
											<g>
												
													<ellipse transform="matrix(0.3798 -0.9251 0.9251 0.3798 -98.1378 258.0949)" class="st9" cx="143.4" cy="202.2" rx="7.8" ry="17.5"/>
											</g>
											<g>
												<path class="st9" d="M322.3,251.5c-1.6,5-4.5,9.6-8.3,13.3c-5.8,5.6-13.5,8.8-21.5,9l-110,2.4
													c-13.9,0.3-26.9-5.8-35.5-16.5l-55.7-68.5c-7.2-9-10.1-20.5-7.7-31.7l24.4-115.6c1.8-8.2,8.2-14.2,16.3-15.7l120.8-21
													c6.7-1.1,13.5-0.2,19.5,2.9c6.1,3,10.9,7.8,13.9,13.9l46.8,92.1c3.9,7.4,5.4,15.7,5,24l-6.3,103.8
													C323.6,246.3,323.1,249.1,322.3,251.5z M85.7,160l2.4,0.5c-2.1,9.8,0.3,19.9,6.7,27.7l55.7,68.5
													c7.8,9.6,19.4,14.9,31.7,14.7l110-2.4c14.1-0.3,25.8-11.5,26.6-25.6l6.3-103.8c0.5-7.5-1.1-14.9-4.5-21.6L273.9,26
													c-5.3-10.6-16.8-16.2-28.3-14.2L124.8,32.8c-6.3,1.1-11.2,5.8-12.5,12L88,160.5L85.7,160z"/>
											</g>
											<g>
												<path class="st9" d="M301.2,267.2c-0.2,0.6-0.5,1.1-0.8,1.6c-1.8,3-5.3,4.2-8,4.3l-107.8,2.4
													c-12.8,0.2-26.1-1.6-36.4-15.1l-54-70.3c-2.2-3-2.7-6.9-1.3-10.2c1.6-3.5,4.6-5.8,8.5-5.9l125.4-10.1
													c9.1-0.8,17.8,3.7,22.6,11.7l50.6,84.1l0,0C301.8,262.8,301.8,265.2,301.2,267.2z M95.8,181.8c-0.6,2.1-0.3,4.5,1.1,6.3
													l54,70.3c8.8,11.5,19.9,13.9,33.6,13.8l107.6-2.4c1.8,0,4.2-0.8,5.3-2.7c1-1.6,0.8-3.7-0.3-6.1L246.9,177
													c-4.2-6.9-11.7-10.7-19.5-10.1L101.9,177c-2.6,0.2-4.8,1.8-5.8,4.2C96,181.3,96,181.5,95.8,181.8z"/>
											</g>
											<g>
												<path class="st9" d="M322,250c-1,3-3.4,5.3-6.6,5.9c-4,1-7.8-0.6-9.9-4.3l-48.4-82.5c-3.7-6.3-5.1-13.5-4.2-20.7
													l15.2-122.3c0.3-1.9,2.1-3.7,4.3-4c2.2-0.5,4.2,0.5,5.1,2.1c11.8,22.7,44.9,88.4,47.9,94.3c3.2,6.4,3.7,14.9,3.9,15.2
													v0.2l-6.9,113.6C322.3,248.6,322.1,249.4,322,250z M271.3,26.6l-15.2,122.3c-0.8,6.4,0.5,13,3.9,18.6l48.2,82.7
													c1.6,2.7,4.3,3.2,6.4,2.7c2.1-0.5,4.3-2.1,4.5-5.4l6.9-113.6c0-1-0.8-8.5-3.4-13.9c-2.9-5.9-35.9-71.6-47.7-94.3
													c-0.2-0.5-1-0.5-1.6-0.5C272.2,25.5,271.3,26.1,271.3,26.6L271.3,26.6z"/>
											</g>
											<g>
												<g>
													<path class="st9" d="M242.2,145.3c-1.8,5.4-6.7,9.4-12.5,9.9l-132.3,9.6c-3.4,0.3-6.7-1.1-9-3.7
														c-2.2-2.6-3.2-6.1-2.4-9.4l23.7-108.3c1.8-7.7,7.8-13.6,15.7-14.9L247.5,8.4c3.2-0.5,6.4,0.5,8.8,2.7
														c2.4,2.2,3.5,5.4,3,8.7l-16.7,123.2C242.7,143.7,242.5,144.5,242.2,145.3z M113.3,42.6c-0.2,0.5-0.3,1-0.3,1.4
														L89.4,152.3c-0.5,2.4,0.2,4.8,1.8,6.6c1.6,1.8,3.9,2.7,6.3,2.6l132.3-9.6c5.1-0.3,9.4-4.3,10.1-9.4l16.7-123
														c0.3-2.2-0.5-4.5-2.1-5.9c-1.6-1.6-3.9-2.2-6.1-1.9L126.1,31.8C119.8,32.7,115,36.9,113.3,42.6z"/>
												</g>
												<g>
													<g>
														
															<ellipse transform="matrix(0.5746 -0.8184 0.8184 0.5746 10.8017 139.9719)" class="st9" cx="140.1" cy="59.6" rx="16.3" ry="11.1"/>
													</g>
													<g>
														<path class="st9" d="M154.9,45.8c1,0.8,1.9,1.8,2.6,2.9c0.6,1.1,1.1,2.4,1.4,3.7c0.3,1.3,0.5,2.6,0.5,4
															c0,1.3,0,2.7-0.3,4c-0.2,0.6-0.2,1.3-0.3,1.9c0,0.3-0.2,0.6-0.3,1c-0.2,0.3-0.2,0.6-0.3,1l-0.3,1
															c-0.2,0.3-0.3,0.6-0.3,1c-0.2,0.3-0.3,0.6-0.5,1l-0.5,1c-0.2,0.3-0.3,0.6-0.5,1l-0.5,0.8c-0.3,0.6-0.6,1.1-1.1,1.8
															c-0.8,1.1-1.6,2.1-2.6,3c-1,1-1.9,1.9-3,2.7c-1.1,0.8-2.2,1.6-3.5,2.2c-1.3,0.6-2.6,1.3-3.9,1.6
															c-0.3,0.2-0.6,0.2-1,0.3c-0.3,0.2-0.6,0.2-1.1,0.2c-0.6,0.2-1.4,0.2-2.1,0.3c-0.3,0-0.8,0-1.1,0c-0.3,0-0.8,0-1.1,0
															c-0.8,0-1.4-0.2-2.2-0.3c-1.4-0.3-2.9-1-4-1.8c-1.1-0.8-2.2-1.9-2.9-3c-0.8-1.1-1.1-2.4-1.3-3.7
															c0.5,1.1,1.3,2.1,2.1,2.9c0.8,0.8,1.9,1.4,2.9,1.9c2.2,1,4.6,1.1,6.9,0.6c2.2-0.5,4.5-1.3,6.6-2.6
															c2.1-1.3,3.9-2.7,5.4-4.5c0.8-0.8,1.6-1.8,2.2-2.7c0.3-0.5,0.6-1,1-1.4l0.5-0.8c0.2-0.3,0.3-0.5,0.5-0.8
															c1.1-2.1,2.1-4.2,2.7-6.4c0.2-0.5,0.3-1.1,0.5-1.8c0.2-0.6,0.2-1.1,0.3-1.8c0.2-1.1,0.2-2.4,0.2-3.5
															c0-1.1-0.2-2.4-0.5-3.5C156,47.9,155.6,46.8,154.9,45.8z"/>
													</g>
												</g>
												<g>
													<g>
														
															<ellipse transform="matrix(0.5746 -0.8184 0.8184 0.5746 53.8452 198.5621)" class="st9" cx="217.9" cy="47.5" rx="16.3" ry="11.1"/>
													</g>
													<g>
														<path class="st9" d="M207.8,35.2c2.4-3.9,6.1-7,10.7-8.8c2.4-0.8,5-1.3,7.7-1c2.7,0.3,5.4,1.4,7.5,3.4
															c1.1,1,2.1,1.9,2.9,3.2c0.8,1.1,1.4,2.4,1.9,3.7c1,2.6,1.3,5.3,1.3,8c0,1.3-0.2,2.6-0.5,3.9c-0.3,1.3-0.6,2.6-1,3.7
															c-0.8,2.4-1.9,4.8-3.4,6.9c-1.4,2.1-3,4-5,5.8c-1.9,1.8-4,3.2-6.4,4.3c-2.4,1.1-5,1.9-7.7,2.2c-1.3,0.2-2.7,0.2-4.2,0
															c-1.4-0.2-2.7-0.5-4-1c-2.6-1.1-5-2.9-6.6-5.1c-0.2-0.3-0.3-0.6-0.6-0.8l-0.5-1l-0.2-0.5l-0.2-0.5
															c-0.2-0.3-0.3-0.6-0.3-1c-0.2-0.3-0.2-0.6-0.3-1s-0.2-0.6-0.3-1c-0.2-0.6-0.3-1.3-0.3-1.9v-1c0-0.3,0-0.6,0-1
															c0-0.6,0-1.3,0.2-1.8c0.2-1.3,0.3-2.4,0.6-3.5c0.2-0.6,0.3-1.1,0.5-1.6s0.5-1.1,0.6-1.6l0.8-1.4c0.3-0.5,0.6-1,1-1.4
															c-0.8,2.1-1.4,4.2-1.8,6.4s-0.2,4.5,0.2,6.6c0.2,0.5,0.3,1.1,0.5,1.6c0,0.3,0.2,0.5,0.3,0.8c0.2,0.3,0.2,0.5,0.3,0.8
															l0.3,0.8l0.2,0.3l0.2,0.3l0.5,0.6c0.2,0.2,0.3,0.5,0.5,0.6c1.4,1.8,3.2,3,5.4,3.7c2.1,0.6,4.3,0.8,6.6,0.5
															c2.2-0.3,4.3-1.1,6.3-2.1c3.9-2.1,7.2-5.3,9.6-9c2.4-3.7,4-8,4.3-12.3c0.2-2.2,0-4.5-0.8-6.6c-0.6-2.1-1.8-4-3.4-5.6
															c-1.6-1.6-3.7-2.6-5.8-3c-2.1-0.5-4.5-0.3-6.6,0.2C214.7,29.7,210.8,32.2,207.8,35.2z"/>
													</g>
												</g>
												<g>
													<g>
														
															<ellipse transform="matrix(0.5746 -0.8184 0.8184 0.5746 -11.7097 220.2385)" class="st9" cx="206" cy="121.4" rx="16.3" ry="11.1"/>
													</g>
													<g>
														<path class="st9" d="M220.9,107.6c1,0.8,1.9,1.8,2.6,2.9c0.6,1.1,1.1,2.4,1.4,3.7c0.3,1.3,0.5,2.6,0.5,4
															c0,1.3,0,2.7-0.3,4c-0.2,0.6-0.2,1.3-0.3,1.9c0,0.3-0.2,0.6-0.3,1c-0.2,0.3-0.2,0.6-0.3,1l-0.3,1
															c-0.2,0.3-0.3,0.6-0.3,1c-0.2,0.3-0.3,0.6-0.5,1l-0.5,1c-0.2,0.3-0.3,0.6-0.5,1l-0.5,0.8c-0.3,0.6-0.6,1.1-1.1,1.8
															c-0.8,1.1-1.6,2.1-2.6,3c-1,1-1.9,1.9-3,2.7c-1.1,0.8-2.2,1.6-3.5,2.2c-1.3,0.6-2.6,1.3-3.9,1.6
															c-0.3,0.2-0.6,0.2-1,0.3s-0.6,0.2-1.1,0.2c-0.6,0.2-1.4,0.2-2.1,0.3c-0.3,0-0.8,0-1.1,0s-0.8,0-1.1,0
															c-0.8,0-1.4-0.2-2.2-0.3c-1.4-0.3-2.9-1-4-1.8c-1.1-0.8-2.2-1.9-2.9-3c-0.8-1.1-1.1-2.4-1.3-3.7
															c0.5,1.1,1.3,2.1,2.1,2.9c0.8,0.8,1.9,1.4,2.9,1.9c2.2,1,4.6,1.1,6.9,0.6c2.2-0.5,4.5-1.3,6.6-2.6
															c2.1-1.3,3.9-2.7,5.4-4.5c0.8-0.8,1.6-1.8,2.2-2.7c0.3-0.5,0.6-1,1-1.4l0.5-0.8c0.2-0.3,0.3-0.5,0.5-0.8
															c1.1-2.1,2.1-4.2,2.7-6.4c0.2-0.5,0.3-1.1,0.5-1.8c0.2-0.6,0.2-1.1,0.3-1.8c0.2-1.1,0.2-2.4,0.2-3.5
															c0-1.1-0.2-2.4-0.5-3.5C222,109.7,221.6,108.6,220.9,107.6z"/>
													</g>
												</g>
												<g>
													<g>
														
															<ellipse transform="matrix(0.5746 -0.8184 0.8184 0.5746 -52.3988 160.1888)" class="st9" cx="127.9" cy="130.5" rx="16.3" ry="11.1"/>
													</g>
													<g>
														<path class="st9" d="M142.7,116.8c1,0.8,1.9,1.8,2.6,2.9c0.6,1.1,1.1,2.4,1.4,3.7c0.3,1.3,0.5,2.6,0.5,4
															c0,1.3,0,2.7-0.3,4c-0.2,0.6-0.2,1.3-0.3,1.9c0,0.3-0.2,0.6-0.3,1c-0.2,0.3-0.2,0.6-0.3,1l-0.3,1
															c-0.2,0.3-0.3,0.6-0.3,1c-0.2,0.3-0.3,0.6-0.5,1l-0.5,1c-0.2,0.3-0.3,0.6-0.5,1l-0.5,0.8c-0.3,0.6-0.6,1.1-1.1,1.8
															c-0.8,1.1-1.6,2.1-2.6,3c-1,1-1.9,1.9-3,2.7c-1.1,0.8-2.2,1.6-3.5,2.2c-1.3,0.6-2.6,1.3-3.9,1.6
															c-0.3,0.2-0.6,0.2-1,0.3c-0.3,0.2-0.6,0.2-1.1,0.2c-0.6,0.2-1.4,0.2-2.1,0.3c-0.3,0-0.8,0-1.1,0c-0.3,0-0.8,0-1.1,0
															c-0.8,0-1.4-0.2-2.2-0.3c-1.4-0.3-2.9-1-4-1.8c-1.1-0.8-2.2-1.9-2.9-3c-0.8-1.1-1.1-2.4-1.3-3.7
															c0.5,1.1,1.3,2.1,2.1,2.9c0.8,0.8,1.9,1.4,2.9,1.9c2.2,1,4.6,1.1,6.9,0.6c2.2-0.5,4.5-1.3,6.6-2.6
															c2.1-1.3,3.9-2.7,5.4-4.5c0.8-0.8,1.6-1.8,2.2-2.7c0.3-0.5,0.6-1,1-1.4l0.5-0.8c0.2-0.3,0.3-0.5,0.5-0.8
															c1.1-2.1,2.1-4.2,2.7-6.4c0.2-0.5,0.3-1.1,0.5-1.8c0.2-0.6,0.2-1.1,0.3-1.8c0.2-1.1,0.2-2.4,0.2-3.5
															c0-1.1-0.2-2.4-0.5-3.5C143.9,118.9,143.4,117.7,142.7,116.8z"/>
													</g>
												</g>
												<g>
													<g>
														
															<ellipse transform="matrix(0.5746 -0.8184 0.8184 0.5746 -2.2087 179.3803)" class="st9" cx="171.5" cy="91.8" rx="16.3" ry="11.1"/>
													</g>
													<g>
														<path class="st9" d="M177.5,71.6c0.6-0.2,1.4-0.3,2.1-0.3s1.4,0,2.2,0c1.4,0.2,2.9,0.6,4.3,1.4c1.3,0.8,2.6,1.8,3.7,3
															c0.3,0.3,0.5,0.6,0.8,1c0.2,0.3,0.5,0.6,0.6,1c0.2,0.3,0.5,0.6,0.6,1.1c0.2,0.3,0.3,0.8,0.5,1.1
															c0.3,0.8,0.5,1.4,0.8,2.2c0.2,0.3,0.2,0.8,0.3,1.1c0,0.3,0.2,0.8,0.2,1.1c0.2,1.6,0.3,3.2,0.2,4.6
															c-0.2,1.6-0.3,3-0.8,4.5c-0.3,1.4-1,2.9-1.6,4.3c-0.6,1.4-1.4,2.7-2.2,4c-0.2,0.3-0.5,0.6-0.6,1
															c-0.2,0.3-0.5,0.6-0.6,1l-0.6,0.8c-0.2,0.2-0.2,0.3-0.3,0.5l-0.3,0.5c-0.5,0.5-1,1.1-1.6,1.6
															c-0.3,0.3-0.5,0.5-0.8,0.8c-0.3,0.3-0.6,0.5-1,0.6l-1,0.6c-0.3,0.2-0.6,0.5-1,0.6c-0.3,0.1-0.6,0.5-1,0.6l-1,0.5
															c-1.3,0.6-2.7,1.3-4.2,1.8c-1.4,0.3-2.9,0.6-4.5,0.8c-0.8,0-1.4,0-2.2,0c-0.3,0-0.8-0.2-1.1-0.2
															c-0.3,0-0.6-0.2-1.1-0.2l-1.1-0.3c-0.3-0.2-0.6-0.3-1-0.3l-0.5-0.2c-0.2,0-0.3-0.2-0.5-0.3c-0.3-0.2-0.6-0.3-1-0.6
															c2.6,0.6,5.3,0.6,7.8,0c1.3-0.3,2.6-0.8,3.7-1.3c0.6-0.3,1.1-0.6,1.8-1c0.5-0.3,1.1-0.6,1.6-1
															c2.2-1.4,4.2-3.2,5.8-5.3c1.6-2.1,3-4.3,4.2-6.7c1.2-2.4,1.8-5,2.1-7.5c0.3-2.6,0.2-5.3-0.6-7.8
															c-0.3-1.3-1-2.4-1.6-3.5c-0.6-1.1-1.6-2.1-2.6-2.9c-1-0.8-2.1-1.4-3.4-1.9C180.1,71.9,178.8,71.8,177.5,71.6z"/>
													</g>
												</g>
												<g>
													<path class="st9" d="M116.2,154.9l-19.4,1.4c-1,0-1.6-0.5-1.9-0.8c-0.3-0.3-0.8-1.1-0.5-2.1l5.4-25
														c-0.3,1.6-3.4,21.5-1.8,24C99.7,155.1,115.2,155.1,116.2,154.9z"/>
												</g>
												<g>
													<path class="st9" d="M156.4,31.9c-1,0.2-30.6,7.7-33.8,13.9c-3.4,6.3-13.3,38.8-13.3,38.8l8.7-39.4
														c0-0.3,0.2-0.6,0.3-1c1.3-3.9,4.5-6.7,8.7-7.4L156.4,31.9z"/>
												</g>
												<g>
													<polygon class="st9" points="173.7,38.9 157.8,51.9 158.4,56.7 													"/>
												</g>
												<g>
													<path class="st9" d="M132,79.5c0,0-7.5,6.4-10.2,8.7c-2.7,2.2,0.2,4.8,1.8,4.3l-12.8,12.2l-4.5,20.5
														c0,0,34-32.2,37-34.9c3-2.7,0.3-5.8-0.8-5.8l8.3-8.7l-11.7,4.3L132,79.5z"/>
												</g>
												<g>
													<path class="st9" d="M192.2,85.4l17.6-17.5c0,0-7.8-2.6-9-7.8l-14.1,14.1C186.8,74.2,191.3,78.8,192.2,85.4z"/>
												</g>
												<g>
													<path class="st9" d="M241.2,91.2c-2.2,16.8-4.5,33.6-6.9,50.6c0,0.3-0.2,0.6-0.2,1c-0.6,2.2-2.7,3.9-5.1,4l-56.2,4.2
														l28.3-5l-15.2-1l16.7-3.2c0,0,11.1-1.4,15.2-7.5c4.2-6.1,6.7-16.8,6.7-16.8s1.4,1.4,0.5,6.6s-4,12.8-4,12.8
														s8.7-6.1,7.7-21.9c1.8-3.2,3.7-6.4,5.4-9.8C236.6,100.4,238.8,95.8,241.2,91.2z"/>
												</g>
												<g>
													<path class="st9" d="M250.5,17.1c0.3,0.3,0.6,0.8,0.5,1.6l-7.2,53.8l-0.3-11.7l-19.7,22.7l-1.4-4.8L196.3,103l32-36.7
														l1.3,3.7c0,0,9.6-10.1,8.3-24.2c0,0,0.8-12.5-7.2-17c-8-4.3-28.3,1.8-29,1.9l9.8-4.8l-27.5,1.4l65-10.7
														C249.7,16.5,250.2,16.9,250.5,17.1z"/>
												</g>
												<g>
													<polygon class="st9" points="140.5,153.1 153.2,149.1 185.2,116.9 157.8,149.8 165.6,151.4 													"/>
												</g>
											</g>
											<g>
												<g>
													<path class="st9" d="M290.1,85.7c1.8,1.1,3.2,2.6,4.3,4.2c1.3,1.6,2.2,3.4,3.2,5.1c1.8,3.7,2.7,7.7,3.2,11.7
														s0.3,8.2-0.6,12c-0.5,1.9-1.1,3.9-2.1,5.8c-0.5,1-1,1.8-1.8,2.6c-0.3,0.3-0.6,0.8-1.1,1.1c-0.3,0.3-0.8,0.6-1.3,0.8
														c1.4-1.3,2.2-3.2,2.9-5c0.6-1.8,1.1-3.7,1.3-5.6c0.5-3.9,0.5-7.7,0.2-11.5c-0.5-3.9-1.3-7.7-2.6-11.2
														C294.4,91.9,292.7,88.6,290.1,85.7z"/>
												</g>
											</g>
											<g>
												<path class="st9" d="M300.2,152c0.5,0.3,1.1,0.6,1.6,1c0.3,0.2,0.5,0.3,0.8,0.6c0.2,0.2,0.5,0.3,0.6,0.6
													c0.2,0.2,0.5,0.5,0.6,0.6c0.1,0.1,0.5,0.5,0.6,0.6c0.5,0.5,0.8,1,1.3,1.4c1.4,2.1,2.7,4.3,3.7,6.6
													c2.1,4.6,3.2,9.6,3.5,14.6c0,1.3,0.2,2.6,0.2,3.9c0,1.3-0.2,2.6-0.3,3.9c-0.3,2.6-0.8,5.1-1.9,7.5
													c-0.5,1.3-1.1,2.4-1.9,3.5c-0.5,0.5-0.8,1.1-1.4,1.6c-0.5,0.5-1.1,1-1.8,1.3c-1.3,0.6-2.9,1-4.2,0.6
													c-0.6-0.2-1.3-0.5-1.8-0.8c-0.5-0.3-1-0.8-1.4-1.3c1,0.6,2.1,1.1,3.4,1.3c0.3,0,0.6,0,1,0s0.6-0.2,1-0.2
													c0.6-0.2,1.1-0.5,1.6-0.8c1-0.6,1.8-1.6,2.4-2.7c0.6-1,1.1-2.1,1.4-3.4c0.8-2.2,1.1-4.6,1.4-7c0.2-2.4,0.2-4.8,0-7.2
													c-0.3-4.8-1.3-9.6-2.9-14.1c-0.8-2.2-1.8-4.5-2.9-6.6C303.6,155.5,302.1,153.4,300.2,152z"/>
											</g>
											<g>
												<path class="st9" d="M314.3,196.4l-2.6,41.8c0,0.2,0,0.2,0,0.3c-0.2,0.3-0.6,0.3-0.6,0.3c-0.3,0-0.5-0.2-0.6-0.3
													L288.7,201l20.2,27.7L314.3,196.4z"/>
											</g>
											<g>
												<path class="st9" d="M265.3,135.7c1,6.1,2.2,15.7,2.7,19.4c0.6,5.4,14.1,34.3,14.2,34.7l-15.4-26.4
													c-2.7-4.6-3.9-10.1-3.2-15.4L265.3,135.7z"/>
											</g>
											<g>
												<path class="st9" d="M279.2,51.3c4,8,8.8,17.3,13.6,26.9l-13-17.1l-8.7,34.1l5.4-43.2C276.8,50.5,278.6,50.2,279.2,51.3
													z"/>
											</g>
											<g>
												<path class="st9" d="M299.5,256.1c-3.5-4.3-6.7-8.8-9.8-13.5c-3-4.6-5.9-9.3-8.8-13.9c-2.7-4.8-5.4-9.6-8-14.4
													c-2.6-5-5-9.9-7-15.1c3.5,4.3,6.7,8.8,9.8,13.5c3,4.6,5.9,9.3,8.8,13.9c2.7,4.8,5.4,9.6,8,14.4
													C295.1,245.9,297.5,250.8,299.5,256.1z"/>
												<path class="st9" d="M302.1,254.7c-3.5-4.3-6.7-8.8-9.8-13.5c-3-4.6-5.9-9.3-8.8-13.9c-2.7-4.8-5.4-9.6-8-14.4
													c-2.6-5-5-9.9-7-15.1c3.5,4.3,6.7,8.8,9.8,13.5c3,4.6,5.9,9.3,8.8,13.9c2.7,4.8,5.4,9.6,8,14.4
													C297.6,244.6,300,249.5,302.1,254.7z"/>
												<path class="st9" d="M304.7,253.4c-3.5-4.3-6.7-8.8-9.8-13.5c-3-4.6-5.9-9.3-8.8-13.9c-2.7-4.8-5.4-9.6-8-14.4
													c-2.6-5-5-9.9-7-15.1c3.5,4.3,6.7,8.8,9.8,13.5c3,4.6,5.9,9.3,8.8,13.9c2.7,4.8,5.4,9.6,8,14.4
													C300.2,243.3,302.6,248.3,304.7,253.4z"/>
											</g>
											<g>
												<path class="st9" d="M162,177.3c-17.9,2.7-35.9,5.3-53.8,8c-0.8,0.2-1.3,1-0.8,1.8c6.1,9.6,12,19.2,18.1,28.8
													c0.3,0.3,0.5,0.8,0.8,1.1c-8-10.2-16.2-20.5-24.2-30.7c-0.8-1-0.6-1.9-0.5-2.6c0.2-0.5,0.6-1.8,2.4-1.9
													C123.2,180.2,142.6,178.8,162,177.3z"/>
											</g>
											<g>
												<path class="st9" d="M242.7,179.7l49.5,82.3c0.5,1.1,0.5,1.8,0.5,2.1c-0.2,0.3-0.8,0.8-1.9,0.8
													c-21.3,0.5-42.6,1-63.9,1.4c8.5-1.3,16.8-2.6,25.3-4c-5.1-0.8-10.1-1.8-15.2-2.6c8-0.5,15.9-1,23.9-1.4
													c0,0,19.7-1.1,18.3-9c-1.4-7.8-7.7-16.3-7.7-16.3l-9.4-7l1-6.3c-9.8-17.8-16.2-28.2-20.7-34.3c-1.6-2.1-4-6.1-9-8.3
													c-1.8-0.8-3.9-1.1-7.8-1.6c-4.6-0.6-7.5-0.6-18.6-1.3c-1.8-0.2-3.2-0.2-4-0.2c8.2-0.6,16.3-1.3,24.5-1.9
													C233.4,171.4,239.3,174.4,242.7,179.7z"/>
											</g>
											<g>
												<path class="st9" d="M200.3,266.8l-15.4,0.3c-8.7,0.2-15.7-0.8-21.6-4.3c-2.2-1.3-4.2-3-8.2-7.5
													c-4.3-4.8-10.1-11.8-16.3-21.3c7.2,7.5,13.9,12.8,18.9,16.5c9,6.4,17.8,13.1,30.7,15.2
													C191.9,266.2,195.9,266.7,200.3,266.8z"/>
											</g>
											<g>
												<polygon class="st9" points="213.1,174.3 208.4,193.7 210,173.8 												"/>
											</g>
											<g>
												<path class="st9" d="M161.3,209.2c-0.5,1.4-1.6,2.7-3.2,3.5c-4,1.9-10.7,1.4-17.5-1.3c-10.1-4-16.5-10.7-14.9-15.9l0,0
													c0.5-1.4,1.6-2.7,3.2-3.5c4-1.9,10.7-1.4,17.5,1.3l0,0C156.5,197.2,162.9,204.1,161.3,209.2L161.3,209.2z M128.7,196.5
													L128.7,196.5c-1,2.9,4.2,8.5,13,12c6.9,2.7,12.5,2.6,15.1,1.4c0.8-0.5,1.4-1,1.6-1.6l0,0c1-2.9-4.2-8.5-13-12l0,0
													c-6.9-2.7-12.5-2.6-15.1-1.4C129.4,195.2,128.8,195.7,128.7,196.5z"/>
											</g>
											<g>
												<path class="st9" d="M130.7,187.1c1-0.3,1.9-0.6,2.9-0.8c1-0.2,1.9-0.3,2.9-0.5c1-0.2,2.1-0.2,3,0c1,0,2.1,0.2,3,0.2
													c4,0.5,7.8,1.6,11.7,3.4c1.9,0.8,3.7,1.9,5.4,3c1.8,1.1,3.4,2.6,4.8,4.2c0.3,0.5,0.8,0.8,1.1,1.3l0.5,0.6
													c0.2,0.2,0.3,0.5,0.5,0.8c0.6,1,1.1,2.1,1.6,3.2c1,2.2,1.3,5,0.8,7.5c-0.5,2.6-1.8,5.1-3.7,6.9c-1,1-1.9,1.6-3,2.2
													c-0.5,0.3-1.1,0.5-1.6,0.8c-0.6,0.3-1.1,0.3-1.8,0.6c-2.2,0.6-4.5,0.8-6.7,0.6c-1.1,0-2.1-0.2-3.2-0.3
													c-0.5-0.2-1-0.2-1.6-0.3c-0.5-0.2-1-0.2-1.4-0.3c-0.5-0.2-1-0.3-1.4-0.5s-1-0.3-1.4-0.5c-1-0.3-1.9-0.6-2.9-1.1
													c-0.5-0.2-1-0.5-1.4-0.6c-0.5-0.2-1-0.5-1.3-0.6c-1-0.5-1.8-1-2.6-1.6c-0.8-0.5-1.6-1.1-2.4-1.8
													c-0.8-0.6-1.6-1.3-2.2-1.9c-0.8-0.6-1.4-1.4-2.1-2.1c-0.6-0.8-1.3-1.4-1.8-2.4c2.7,2.7,5.9,4.8,9.4,6.6
													c1.8,0.8,3.5,1.6,5.3,2.2c1.8,0.6,3.7,1.1,5.6,1.4s3.9,0.5,5.8,0.5s3.9-0.2,5.6-0.8c0.5-0.2,1-0.3,1.3-0.5
													c0.5-0.2,0.8-0.3,1.3-0.6c0.8-0.5,1.6-1.1,2.2-1.8c1.4-1.3,2.2-3,2.7-5c0.3-1.9,0.2-3.9-0.6-5.6c-0.6-1.8-1.8-3.4-3-4.8
													c-1.3-1.4-2.7-2.7-4.2-3.9c-1.6-1.1-3.2-2.2-4.8-3c-3.4-1.8-7-3.2-10.7-4.2C138.4,186.8,134.6,186.5,130.7,187.1z"/>
											</g>
											<g>
												
													<ellipse transform="matrix(0.3798 -0.9251 0.9251 0.3798 -79.4703 322.0172)" class="st9" cx="200.4" cy="220.3" rx="7.8" ry="17.5"/>
											</g>
											<g>
												<path class="st9" d="M218.3,227.3c-0.5,1.4-1.6,2.7-3.2,3.5c-4,1.9-10.7,1.4-17.5-1.3c-10.1-4-16.5-10.7-14.9-15.9l0,0
													c0.5-1.4,1.6-2.7,3.2-3.5c4-1.9,10.7-1.4,17.5,1.3l0,0C213.5,215.3,219.9,222.2,218.3,227.3L218.3,227.3z M185.7,214.6
													L185.7,214.6c-1,2.9,4.2,8.5,13,12c6.9,2.7,12.5,2.6,15.1,1.4c0.8-0.5,1.4-1,1.6-1.6l0,0c1-2.9-4.2-8.5-13-12l0,0
													c-6.9-2.7-12.5-2.6-15.1-1.4C186.5,213.3,185.8,214,185.7,214.6z"/>
											</g>
											<g>
												<path class="st9" d="M187.8,205.2c1-0.3,1.9-0.6,2.9-0.8c1-0.2,1.9-0.3,2.9-0.5c1-0.2,2.1-0.2,3,0c1,0,2.1,0.2,3,0.2
													c4,0.5,7.8,1.6,11.7,3.4c1.9,0.8,3.7,1.9,5.4,3c1.8,1.1,3.4,2.6,4.8,4.2c0.3,0.5,0.8,0.8,1.1,1.3l0.5,0.6
													c0.2,0.2,0.3,0.5,0.5,0.8c0.6,1,1.1,2.1,1.6,3.2c1,2.2,1.3,5,0.8,7.5c-0.5,2.6-1.8,5.1-3.7,6.9c-1,1-1.9,1.6-3,2.2
													c-0.5,0.3-1.1,0.5-1.6,0.8c-0.6,0.3-1.1,0.3-1.8,0.6c-2.2,0.6-4.5,0.8-6.7,0.6c-1.1,0-2.1-0.2-3.2-0.3
													c-0.5-0.2-1-0.2-1.6-0.3c-0.5-0.2-1-0.2-1.4-0.3c-0.5-0.2-1-0.3-1.4-0.5s-1-0.3-1.4-0.5c-1-0.3-1.9-0.6-2.9-1.1
													c-0.5-0.2-1-0.5-1.4-0.6c-0.5-0.2-1-0.5-1.3-0.6c-1-0.5-1.8-1-2.6-1.6c-0.8-0.5-1.6-1.1-2.4-1.8
													c-0.8-0.6-1.6-1.3-2.2-1.9c-0.8-0.6-1.4-1.4-2.1-2.1c-0.6-0.8-1.3-1.4-1.8-2.4c2.7,2.7,5.9,4.8,9.4,6.6
													c1.8,0.8,3.5,1.6,5.3,2.2c1.8,0.6,3.7,1.1,5.6,1.4s3.9,0.5,5.8,0.5c1.9,0,3.9-0.2,5.6-0.8c0.5-0.2,1-0.3,1.3-0.5
													c0.5-0.2,0.8-0.3,1.3-0.6c0.8-0.5,1.6-1.1,2.2-1.8c1.4-1.3,2.2-3,2.7-5c0.3-1.9,0.2-3.9-0.6-5.6c-0.6-1.8-1.8-3.4-3-4.8
													c-1.3-1.4-2.7-2.7-4.2-3.9c-1.6-1.1-3.2-2.2-4.8-3c-3.4-1.8-7-3.2-10.7-4.2C195.5,205,191.6,204.6,187.8,205.2z"/>
											</g>
											<g>
												
													<ellipse transform="matrix(0.3798 -0.9251 0.9251 0.3798 -65.9314 384.7648)" class="st9" cx="254" cy="241.6" rx="7.8" ry="17.5"/>
											</g>
											<g>
												<path class="st9" d="M271.7,248.4c-0.5,1.4-1.6,2.7-3.2,3.5c-4,1.9-10.7,1.4-17.5-1.3c-10.1-4-16.5-10.7-14.9-15.9l0,0
													c0.5-1.4,1.6-2.7,3.2-3.5c4-1.9,10.7-1.4,17.5,1.3l0,0C267,236.4,273.4,243.3,271.7,248.4L271.7,248.4z M239.2,235.6
													L239.2,235.6c-1,2.9,4.2,8.5,13,12c6.9,2.7,12.5,2.6,15.1,1.4c0.8-0.5,1.4-1,1.6-1.6l0,0c1-2.9-4.2-8.5-13-12l0,0
													c-6.9-2.7-12.5-2.6-15.1-1.4C240,234.5,239.3,235,239.2,235.6z"/>
											</g>
											<g>
												<path class="st9" d="M241.2,226.3c1-0.3,1.9-0.6,2.9-0.8c1-0.2,1.9-0.3,2.9-0.5c1-0.2,2.1-0.2,3,0c1,0,2.1,0.2,3,0.2
													c4,0.5,7.8,1.6,11.7,3.4c1.9,0.8,3.7,1.9,5.4,3c1.8,1.1,3.4,2.6,4.8,4.2c0.3,0.5,0.8,0.8,1.1,1.3l0.5,0.6
													c0.2,0.2,0.3,0.5,0.5,0.8c0.6,1,1.1,2.1,1.6,3.2c1,2.2,1.3,5,0.8,7.5c-0.5,2.6-1.8,5.1-3.7,6.9c-1,1-1.9,1.6-3,2.2
													c-0.5,0.3-1.1,0.5-1.6,0.8c-0.6,0.3-1.1,0.3-1.8,0.6c-2.2,0.6-4.5,0.8-6.7,0.6c-1.1,0-2.1-0.2-3.2-0.3
													c-0.5-0.2-1-0.2-1.6-0.3c-0.5-0.2-1-0.2-1.4-0.3c-0.5-0.2-1-0.3-1.4-0.5c-0.5-0.2-1-0.3-1.4-0.5c-1-0.3-1.9-0.6-2.9-1.1
													c-0.5-0.2-1-0.5-1.4-0.6c-0.5-0.2-1-0.5-1.3-0.6c-1-0.5-1.8-1-2.6-1.6c-0.8-0.5-1.6-1.1-2.4-1.8
													c-0.8-0.6-1.6-1.3-2.2-1.9c-0.8-0.6-1.4-1.4-2.1-2.1c-0.6-0.8-1.3-1.4-1.8-2.4c2.7,2.7,5.9,4.8,9.4,6.6
													c1.8,0.8,3.5,1.6,5.3,2.2c1.8,0.6,3.7,1.1,5.6,1.4c1.9,0.3,3.9,0.5,5.8,0.5c1.9,0,3.9-0.2,5.6-0.8
													c0.5-0.2,1-0.3,1.3-0.5c0.5-0.2,0.8-0.3,1.3-0.6c0.8-0.5,1.6-1.1,2.2-1.8c1.4-1.3,2.2-3,2.7-5c0.3-1.9,0.2-3.9-0.6-5.6
													c-0.6-1.8-1.8-3.4-3-4.8c-1.3-1.4-2.7-2.7-4.2-3.9c-1.6-1.1-3.2-2.2-4.8-3c-3.4-1.8-7-3.2-10.7-4.2
													C248.9,226,244.9,225.5,241.2,226.3z"/>
											</g>
											<g>
												<polygon class="st9" points="173.8,264.3 178.5,226.8 178.6,264.6 												"/>
											</g>
											<g>
												<path class="st9" d="M170.6,262.7l5.8-51.1c0.3-2.6-2.4-4.3-4.6-3.2l-4.3,1c0,0-1.1,8.3-6.4,9.3
													c-5.3,1-4.3,10.2-2.9,10.6c2.6,0.3,7.5-6.3,7.5-6.3s-0.6,2.7-3.5,7l-3,25.3L170.6,262.7z"/>
											</g>
											<g>
												<path class="st9" d="M160.4,193.3l2.1-11.2l10.2-1.1l-4.3,29.6C167.1,204.6,164.4,198.8,160.4,193.3z"/>
											</g>
											<g>
												<path class="st9" d="M216.8,174.3l-7.7,33.1c0,0,8.8,2.9,13,9.6s1.9,6.9,1.9,6.9s5.4,0.6-3.9-14.7c0,0,3.7,2.6,6.6,6.1
													l9.3-40.2L216.8,174.3z"/>
											</g>
											<g>
												<polygon class="st9" points="240.3,180.2 233.1,214.2 245.4,204.2 248,190.1 												"/>
											</g>
											<g>
												<polygon class="st9" points="219.8,235.9 212.7,262.8 204.4,263.3 211,238.2 												"/>
											</g>
											<g class="st10">
												<g class="st11">
													<path class="st12" d="M247,151.7c0.3-8.2,1.1-16.2,1.9-24.4c0.8-8,1.8-16.2,2.7-24.2s2.2-16,3.5-24.2
														c1.3-8,2.7-16,4.3-24c-0.3,8.2-1.1,16.2-1.9,24.4c-0.8,8-1.8,16.2-2.7,24.2c-1.1,8-2.2,16-3.5,24.2
														C250.1,135.7,248.6,143.7,247,151.7z"/>
												</g>
												<g class="st11">
													<path class="st12" d="M260,48.5c-0.2-2.4-0.2-4.8,0-7.2c0.2-2.4,0.3-4.8,0.6-7c0.3-2.4,0.6-4.6,1.1-7s1-4.6,1.8-7
														c0.2,2.4,0.2,4.8,0,7.2c-0.2,2.4-0.3,4.8-0.6,7c-0.3,2.4-0.6,4.6-1.1,7S260.8,46.3,260,48.5z"/>
												</g>
												<g class="st11">
													<path class="st12" d="M102.6,168.8c9.8-1.4,19.7-2.4,29.6-3.4c9.9-1,19.7-1.8,29.6-2.6c9.9-0.6,19.7-1.3,29.6-1.8
														c9.9-0.5,19.9-0.8,29.8-1c-9.8,1.4-19.7,2.4-29.6,3.4c-9.9,1-19.7,1.8-29.6,2.6c-9.9,0.8-19.7,1.3-29.6,1.8
														C122.4,168.5,112.5,168.8,102.6,168.8z"/>
												</g>
											</g>
											<g class="st10">
												<polygon class="st13" points="143.9,238.2 145,219 148.8,220.3 147.3,243.2 												"/>
											</g>
										</g>
										<path class="st9" d="M291.4,162.7c-0.6,3.9-0.5,8.8,0.3,13.9c1.6,9.6,5.8,19.5,10.2,18.7c1.6-0.3,2.9-1.8,3.5-4.2
											c1.3-4.2,1.3-10.7,0.3-16.8c-0.8-5.1-2.2-9.9-4-13.3c-1.9-3.9-4.2-5.8-6.3-5.3C293.5,156,292,158.4,291.4,162.7z
											 M296,157.6c-0.2,0-0.2,0-0.3,0.2C295.7,157.8,295.9,157.8,296,157.6L296,157.6z"/>
										<path class="st9" d="M280.3,87.8c-2.4,3.2-3,10.7-1.4,19.4c1.6,9.8,6.1,19.9,10.9,19.4c1-0.2,1.9-0.6,2.6-1.6
											c0.5-0.6,1-1.6,1.3-2.7c1.3-3.9,1.3-9.9,0.2-16.7c-1.6-9.8-6.1-19.9-10.9-19.4C281.9,86.4,281,86.8,280.3,87.8z"/>
									</g>
								</g>
							</g>
						</g>
					</g>
				</g>
			</g>
		</g>
	</g>
</g>
</svg>
