<?xml version="1.0" encoding="utf-8"?>
<!-- Generator: Adobe Illustrator 26.0.1, SVG Export Plug-In . SVG Version: 6.00 Build 0)  -->
<svg version="1.1" id="Слой_1" xmlns="http://www.w3.org/2000/svg" xmlns:xlink="http://www.w3.org/1999/xlink" x="0px" y="0px"
	 viewBox="0 0 50 50" style="enable-background:new 0 0 50 50;" xml:space="preserve">
<style type="text/css">
	.st0{fill:#FFFFFF;}
	.st1{opacity:0.6;}
	.st2{fill:#0B0C0F;}
	.st3{opacity:0.3;}
</style>
<path class="st0" d="M36.8,25.9c2.9,0.8,5,3.3,5.3,6.2c0.1,0.7,0.2,2.7-0.9,3.5c-1.5,1.2-5-0.3-6.7-2.5s-2.3-5.9-0.8-7.1
	C34.6,25.3,36,25.7,36.8,25.9z"/>
<path class="st0" d="M40.6,33v3.5c0,3.4-4,6.4-9.5,7.5c-1.6,0.3-3.2,0.5-4.8,0.5c-7.9,0-14.3-3.5-14.3-7.9V33c0-0.7,0.2-1.4,0.5-2.1
	c1.7-3.4,7.2-5.8,13.8-5.8C34.2,25.1,40.6,28.6,40.6,33z"/>
<g class="st1">
	<path class="st0" d="M16.6,27.2L16.6,27.2l-0.7,0.4L16.6,27.2z"/>
</g>
<path class="st0" d="M41,33v3.5c0,2.2-1.5,4.3-4.4,5.9c-3.2,1.6-6.7,2.4-10.3,2.4c-3.6,0.1-7.1-0.7-10.3-2.3
	c-2.8-1.6-4.4-3.7-4.4-5.9V33c0-2.2,1.6-4.3,4.4-5.9c3.2-1.6,6.7-2.4,10.3-2.4c3.6-0.1,7.1,0.7,10.3,2.4 M26.3,25.4
	c-3.5-0.1-6.9,0.7-10,2.3c-2.6,1.4-4,3.3-4,5.3v3.5c0,2,1.4,3.9,4,5.3c3.1,1.6,6.5,2.4,10,2.3c3.5,0.1,6.9-0.7,10-2.3
	c2.6-1.4,4-3.3,4-5.3V33c0-2-1.4-3.9-4-5.3C33.2,26.1,29.8,25.3,26.3,25.4z"/>
<ellipse class="st0" cx="26.3" cy="33" rx="12.3" ry="6.8"/>
<path class="st2" d="M37.4,33c0,0.8-0.3,1.5-0.9,2.1l0,0c-0.6,0.7-1.3,1.2-2.1,1.6c-2.5,1.3-5.3,1.9-8.1,1.8c-2,0-4-0.3-5.9-0.9l0,0
	c-0.8-0.3-1.5-0.6-2.2-1c-0.3-0.1-0.5-0.3-0.8-0.5l0,0c-1.2-0.6-2-1.8-2.2-3.2c0-1.3,1.1-2.7,3-3.7c1.9-1,4-1.6,6.2-1.8
	c0.6,0,1.2-0.1,1.9-0.1s1.2,0,1.8,0.1c2.2,0.1,4.4,0.7,6.3,1.8C36.3,30.3,37.4,31.7,37.4,33z"/>
<path class="st0" d="M36.5,35.1l0.2,0.2c-0.6,0.7-1.3,1.2-2.1,1.6l-6.1-2.7c-0.1-0.1-0.3,0-0.3,0.1c0,0.1-0.1,0.1-0.1,0.2
	c0,0.1,0,0.2,0.1,0.2l1.8,1.4c-1.8,1-4,1.1-5.9,0.4l1.1-1.8c0.1-0.1,0.1-0.3-0.1-0.4c0,0,0,0-0.1,0h-0.1c-0.1,0-0.1,0-0.2,0.1
	l-4.3,3.5l0,0l-2-0.4l-0.9-1l7.1-3.1c0.2-0.1,0.2-0.3,0.2-0.5c0,0,0,0,0-0.1c-0.1-0.1-0.2-0.1-0.3-0.1h-0.1l-5.1,1.3
	c0.7-1.9,2.1-3.5,3.9-4.4l1.9,1.8c0.2,0.2,0.5,0.2,0.6,0c0.1-0.1,0.2-0.2,0.2-0.3c0-0.1,0-0.1,0-0.2l-1.3-3.3
	c0.6-0.3,1.2-0.6,1.9-0.7c0.6,0.1,1.2,0.4,1.8,0.7l-0.4,3.6c0,0.2,0.1,0.4,0.3,0.4c0,0,0,0,0,0l0,0c0.1,0,0.3-0.1,0.3-0.2l0.9-2.1
	c2.8,0.2,4.5,1.5,4.6,4.2l-4.3-0.9c-0.1,0-0.2,0-0.3,0.1C29,32.6,29,32.7,29,32.8c0,0.1,0.1,0.3,0.2,0.3L36.5,35.1z"/>
<path class="st0" d="M31.1,41.7V44c-1.6,0.3-3.2,0.5-4.8,0.5c-7.9,0-14.3-3.6-14.3-8V33c0-0.7,0.2-1.4,0.5-2.1l0,0
	C10.2,36.5,18.7,42,30,40.7c0.5-0.1,1,0.3,1.1,0.9C31.1,41.6,31.1,41.6,31.1,41.7z"/>
<path class="st0" d="M34,8l1.9,2.9c1.9,2.9,0.2,7.5-3.8,11.5c-1.2,1.1-2.4,2.1-3.7,3c-6.6,4.4-13.9,5-16.3,1.3l-1.9-2.9
	c-0.4-0.6-0.6-1.3-0.7-2c-0.5-3.7,2.8-8.8,8.3-12.5C24.3,4.9,31.6,4.3,34,8z"/>
<g class="st1">
	<path class="st0" d="M10.8,16.4L10.8,16.4c-0.1,0.2-0.2,0.5-0.4,0.7C10.5,16.9,10.6,16.7,10.8,16.4z"/>
</g>
<path class="st0" d="M28.6,25.7c-2.9,2-6.3,3.3-9.9,3.7c-0.4,0-0.7,0-1.1,0c-2.7,0-4.7-0.9-5.8-2.5L9.9,24c-1.2-1.9-1.1-4.5,0.4-7.3
	c1.8-3.1,4.2-5.8,7.3-7.7c2.9-2,6.3-3.3,9.9-3.7C30.6,5,33,5.9,34.3,7.8l1.9,2.9c1.2,1.9,1.1,4.5-0.4,7.3 M28.5,5.9
	c-0.3,0-0.7,0-1,0c-3.4,0.4-6.7,1.6-9.6,3.6c-2.9,1.9-5.3,4.4-7,7.4c-1.4,2.6-1.5,5-0.4,6.6l1.9,2.9c1.1,1.6,3.3,2.4,6.3,2.2
	c3.4-0.4,6.7-1.7,9.6-3.6c2.9-1.9,5.3-4.4,7-7.4c1.4-2.6,1.5-5,0.4-6.6l-2-2.9C32.8,6.7,30.9,5.9,28.5,5.9z"/>
<ellipse transform="matrix(0.8324 -0.5541 0.5541 0.8324 -5.1074 14.8952)" class="st0" cx="22.1" cy="15.9" rx="12.3" ry="6.8"/>
<path class="st2" d="M31.3,9.8c0.4,0.7,0.6,1.5,0.4,2.2l0,0c-0.1,0.9-0.4,1.7-0.8,2.5c-1.4,2.4-3.3,4.5-5.7,6
	c-1.7,1.1-3.5,1.9-5.4,2.5l0,0c-0.8,0.2-1.6,0.4-2.4,0.4c-0.3,0-0.6,0-0.9,0l0,0c-1.4,0.1-2.7-0.4-3.7-1.4c-0.7-1.1-0.6-2.8,0.4-4.7
	c1-1.9,2.5-3.6,4.2-4.9c0.5-0.4,1-0.8,1.5-1.1s1-0.6,1.5-0.9c1.9-1.1,4.1-1.8,6.3-2C28.9,8.1,30.5,8.7,31.3,9.8z"/>
<path class="st0" d="M31.7,12h0.2c-0.1,0.9-0.4,1.7-0.8,2.5l-6.6,1.1c-0.1,0-0.2,0.1-0.2,0.2c0,0.1,0,0.1,0,0.2
	c0.1,0.1,0.1,0.1,0.2,0.1l2.2,0.1c-1,1.8-2.7,3.1-4.7,3.6v-2.1c0-0.2-0.1-0.3-0.3-0.3c0,0,0,0-0.1,0h-0.1c-0.1,0-0.1,0.1-0.1,0.1
	L19.8,23l0,0l-1.9,0.8l-1.3-0.3l4.2-6.5c0.1-0.1,0.1-0.4-0.1-0.5c0,0-0.1,0-0.1-0.1c-0.1,0-0.2,0-0.3,0l-0.1,0.1l-3.5,4
	c-0.5-2-0.2-4.1,0.8-5.8l2.6,0.4c0.2,0.1,0.5-0.1,0.5-0.3c0-0.1,0-0.3-0.1-0.4c0-0.1-0.1-0.1-0.1-0.1l-2.9-2
	c0.3-0.6,0.7-1.2,1.2-1.6c0.6-0.2,1.2-0.4,1.9-0.4l1.6,3.3c0.1,0.2,0.3,0.2,0.5,0.1l0,0c0.1-0.1,0.2-0.2,0.1-0.4l-0.5-2.2
	c2.5-1.4,4.5-1.2,6.1,0.9l-4.1,1.6c-0.1,0-0.2,0.1-0.2,0.2c0,0.1,0,0.2,0,0.2c0.1,0.1,0.2,0.2,0.4,0.1L31.7,12z"/>
<g class="st3">
	<path class="st0" d="M30.9,20.4l1.3,1.9c-1.2,1.1-2.4,2.1-3.7,3c-6.6,4.4-13.9,5-16.3,1.3l-1.9-2.9c-0.4-0.6-0.6-1.3-0.7-2l0,0
		c1.2,5.9,11.3,5.8,20-1.6C29.9,19.9,30.5,19.9,30.9,20.4C30.8,20.4,30.9,20.4,30.9,20.4z"/>
</g>
</svg>
