<?xml version="1.0" encoding="utf-8"?>
<!-- Generator: Adobe Illustrator 26.0.1, SVG Export Plug-In . SVG Version: 6.00 Build 0)  -->
<svg version="1.1" id="Слой_1" xmlns="http://www.w3.org/2000/svg" xmlns:xlink="http://www.w3.org/1999/xlink" x="0px" y="0px"
	 viewBox="0 0 149.3 110.4" style="enable-background:new 0 0 149.3 110.4;" xml:space="preserve">
<style type="text/css">
	.st0{fill:#115E59;}
</style>
<g>
	<g>
		<g>
			<path class="st0" d="M143.2,50.9c-0.2-1.3-1.5-2.2-3-0.5c-1.5,1.8-1,0-2.4,0.7c-1.7,0.8-2,0.3-3.2-0.7c-0.7-0.5-0.8-3.5-2-1.8
				c-1.5,2.2-1.2-1-1.8-1.3c-1.5-0.7-2.5,0.5-3.2,1.2c-0.7,0.7-2.7,0.3-3.5-1.2c-0.8-1.5,0.7-2,1.2-1.3c0.5,0.7,2.2,0,1.3-1.2
				c-0.8-1.2,3-1.5,4.4-2.2c1.3-0.5,0-1.3-1.2-1.3c-1.2,0-1.8,0.2-2.4-1.2c-0.5-1.3-1.2-1-1.3-0.7c-0.3,0.3-0.7,1.3-2.4,0.2
				c-1.7-1.3,0.7-2,1.3-1.3c0.7,0.7,1.2-1.8,2.4-1.8c1.3,0,3,0.7,4.4,0.7s2,0.8,0.5,1c-1.5,0.2-1.2,1.5-0.5,2
				c0.7,0.5,1.8-1.5,2.9-0.8c1,0.7,2.2-0.3,4,0.7c1.8,1,1.8,0.2,2.7-0.2c0.8-0.3,2-0.7,1.8-1.7c0-1-2,0-2.9-1.7
				c-0.5-1.2-1.8-0.7-3.2-0.3c-1.3,0.2-2,1.5-2.5,0.5c-0.5-1,3.4-2.4,3.5-3.4c0.2-1-0.7,0.3-1.2-1c-0.3-1.3-1.2-0.8-2.4-0.8
				c-1.2,0-1.8-1-2.7-1.2c-0.8,0-1.5,1.5-3.2,1.5c-1.5,0-1-1.3-2-2.4c-1-1,0.2-2.4,1.2-0.5c0.8,1.8,1.2,1,2,0.5c0.8-0.5,1.7-1.3,3,0
				c1.3,1.3,1.2,0.2,2.2-0.2c0.8-0.5,1.2-1.3,0.5-1.3s-3.5-0.5-2-1.2c1.2-0.5,0.8-0.8,0.2-1.5c-0.5-0.5-1.2-0.2-1-0.8
				c0-0.3-0.8-1.3-1.5-1.2c-0.7,0.2-2.4,0.7-2.2-1.3c0.2-1.5-0.5-0.2-1.3-0.3c-0.8-0.2-1.3,1.5-1.8,0c-0.5-1.7-2.5,0.5-2.5,0.3
				c-0.2-0.2-0.3,1.3-1.3,1.2c-0.8-0.2-2.4,1.7-2.2,0.5c0.2-1.2-0.5,0-0.8,0c-1.3,0.2-3,1-0.5,2.9c2.5,1.7,0,1.5-1.3,2
				c-1.5,0.3-0.7,1.5-0.2,2.2c0.7,0.7-0.5,2.4-1.2,0.7c-0.7-1.7-1.2-0.7-2.2,0c-1,0.7-0.7-1-0.2-1c0.5,0,0.7,0,1.3-2
				c0.7-2-3.4-4.4-3.5-5.7c-0.2-1.3-1-2.5-1.8-1.8c-0.8,0.7-1.3,0.3-2.4-0.7c-0.8-1-1.2,0.7-1.7,0.5c-0.5-0.2-1.7-0.2-2.9,0.7
				c-3.2,2.4,0.8,1.8,1.3,2.5c1.3,1.5-0.3,2.2-1.2,1.2c-0.8-1-1-0.2-1.5-0.2c-0.5,0-1.3-0.3-1.8-0.8c-0.5-0.5-1.3-1.3-2.2-0.3
				c-0.7,1-1.5,0.5-3-0.8c-1.3-1.3-1.7-0.3-1.8,0.5s-2.2,0.7-2.7,0.8c-0.7,0.2-2,2.4-3.4-0.5c-1.3-2.9,1.2-2.9,2.9-2.5
				c1.7,0.3,0.3-2.2,2.7-2c2.4,0.2,0.7,0.7,2.9,1.3c2.2,0.7,1.2-1.3,2.9-1.3c1.7,0.2,0.7-1.2,2.9-2.5c1.3-0.7-1.8-1.8-3.5-1.5
				c-1.7,0.3-1.8-0.3-2.9-0.8c-1-0.5-2.2-0.7-3,0.2c-2.2,2.2-2,0-2-0.8c0-1-3.2-2.9-4.9-3c-1.5-0.2-4.4,2.9-5.2,1.8
				c-0.8-1-1.8-0.2-3.9,0c-2,0.2-1,1,0,1.8c1,0.8-0.7,0.8-1.3,0.7c-0.8-0.2-1.5,1,0.7,1.5c2.2,0.5,0.3,1.2-0.5,1.2
				c-0.8,0-2,0.7-3.2,2.2c-1.2,1.5-2,1.2-3.4,0.8c-1.3-0.3,0-3,0.7-2.9c0.7,0.2,2.9-1.2,2.4-2.7c-0.5-1.3-0.5-1,1.2-2.2
				c1.7-1.2,0-2.2-0.7-2.5c-0.7-0.3-2.2,1.3-2.9,0.5c-0.7-0.8-1.5-0.8-2.4-0.8c-0.8,0-0.8,1.5-2,0.5c-0.3-0.3-0.7-0.5-1-0.7
				c-0.3-0.2-1.2-0.8-1.3-0.3c-0.5,1-1.7-2.4-1.8,0c0,0.7-0.8,0.2-1.2-0.2c-0.5-0.5-1.2,0.5-1.7,0.3c-0.8-0.2-1.3,0.7-1.8,0.5
				c-0.7-0.2-2.5-2-3.4-0.2c-0.8,1.7,1.3,0.7,1.2,1.7c-0.2,1.2,1,1.8,0.3,2.7c-0.7,0.7-3.2,1.2-4.9,0c-1.7-1.3-2.5,1.2-2.9,2.4
				c-0.3,1.3,2.4,1,2.9,1.7c0.3,0.7,3.2-0.5,5,0.3s-1.5,0.7-1.7,1.3c-0.2,0.7,1.5-0.2,2,0.8c0.5,1,1.2,0,2.4,1
				c1.2,1,2.2,0.2,3.2-0.3c1-0.5,2.4,0.7,2.2,1.5c-0.2,0.7-1,0.5-1.7,1.3c-0.7,0.7-1.7-1.3-2.7,0.3c-1,1.7,2,0,2.5,1
				c0.5,1,1.3,0.8,1.7,1.2c0.2,0.3-1.5,1.5-2.7,2.2c-1,0.5-1.8,1.2-3.7,0.8s0.8-2.7-1.3-2.9c-0.7,0-2.4-0.7-2.2-1.5c0.2-1-3-4.2-4-5
				c-0.8-0.7,0.2,2.9-1,2.9c-1.3,0-2.9-2.7-5.2-4.2c-1-0.7-2.2-0.2-3.2-0.5c-0.5-0.2-1.3,1-1.5,0.5c-0.5-2.4-1.2,0.7-1.7,0.3
				c-0.5-0.5-0.8,0.8-1.5,0.3c-0.5-0.5-0.7,1-0.7,2.2c-0.2,2.2-1.2,0.8-3.5,1.3c-2.4,0.3-2.4,2.9-2.2,3.9c0.2,0.8-0.3,1.7-1.7,1.2
				c-1.3-0.5,0-1.7-1.2-2.2c-1.2-0.5-4,3.2-4,4c0,0.8,2.2-0.5,3.5,1.3c0.7,1.2,3-0.2,3.9,0.7c0.8,0.8,3.2-1,3.9-1.8
				c0.7-0.8,2.2-1,3.2-1.2c1-0.2,1.2,1.7,1.2,2.4c0,0.7,2,0.2,1.3,2c-0.3,0.7-1.2,0.7-4.2,0.8c-3.2,0.2,0.7,1.2,0.5,2
				c-0.2,0.7-2.9,0.5-3.7,1.3c-0.7,0.8,2.5,2.9,3.5,3.4c1.2,0.5,4-2.2,4.7-1.3c0.7,0.7,1,2,2.2,2.9c1.2,1,1.7,1.2,0,2.9
				C37.7,47,35,44.8,35,44.8c-1.8-0.3-2.9-1.3-3.9,0.2c-0.7,1-0.3,2.4-1.2,3c-0.8,0.7-1.7-1.3-3-1.2c-2.5,0.3-2.4-2-3.5-2.5
				c-0.7-0.2-3.2,2.2-3.2-0.7c0.2-3.5-1.8,0-2.5-0.5c-1.3-1.2-2.4,1.5-3-0.3c-0.3-0.7-1.5,0.3-2,0.7c-1.2,0.7,0,3-1.3,3
				s-0.8,0.7-1.8,1.5c-0.8,0.8,0,1.8-0.5,2.2c-0.5,0.3-0.5,1.5-0.2,1.7c0.7,0.5,0.8-2.2,1.7-0.5c0.8,1.8-2,2.2-2.5,1.5
				c-0.5-0.7-1-2.7-1.5-0.7c-0.3,1.5-2.4,2.2-2.2,2.9c0.3,1.5,2.2,0.2,3.5-0.2c1.3-0.5,1.2,1.8,1.2,3.4c0,1.5,1.7,1,2.2,1.3
				c0.5,0.3,1.2,0.8,2,1c0.8,0,1.7-1.3,0-1.7c-1.5-0.2,0-1.3-1.8-1.2s-0.7-1.5-0.3-1c0.5,0.5,2.2,0.2,3.5,0.3
				c1.3,0.2,1.7,2.2,2.9,2.2c0.7,0,1.3-0.2,1.3,0.7c0,0.8-0.7,2.2-0.2,2.2c0.3,0.2,0.5-1.3,1.5-1.7c1.2-0.3,0.8,1.7,1,2.9
				c0.2,1.2-1.2,0.2-1.3,1.7c-0.2,1.5,0.8,1,1.7,0.3c2.2-1.7,1.5,1,2.9,1.2c2.2,0.3,1.7-1.3,3-1.7c1.3-0.3,2.2-0.7,2.9-1.3
				c0.7-0.7,2-0.7,3.4,0.5c1.3,1.2,1.7,1.3,2.7,1c1.3-0.7,1,1,0.5,1.7c-0.5,0.7-3.5,0.5-5.2,0.2c-1.7-0.2-2.9,1.3-2,1.3
				c0.8,0.2,2,0.8,1,1.3s-0.7,1.3-1.7,1.3s-2-2.2-3.2,0.3c-1.2,2.5,2,4.2,4.4,3.4c2.4-0.8,3.2,0,3.5,0.8s3.2,1.7,3.2,1.7
				c1.3,2.9-1.2,0.5-2,0.3c-0.8-0.2-1.7,1.5-3.4,1.3c-1.7-0.2-2.2,0.5-1.8,0.8c0.5,0.3,1.3,1.2,0,1.8c-1.3,0.5-0.7,2.2-1.3,2.9
				c-0.7,0.7-0.3,1.8,0.8,1.8s4.2-0.2,4.7,0.5c0.5,0.8,3.5,0,3.5,0c3,0-0.2,1.8,0.2,2.7c0.3,0.8,6.4-0.2,7.7,0.5
				c1,0.7,0.2,1.8,0.3,2.7c0.5-0.2,1-0.2,1.5-0.2c0.5-0.7,0.8-1.7,0.3-2.5c-0.8-1.5,0.5-0.8,0.2-2.4c-0.3-1.5,3-2.4,4.5-2.2
				c1.5,0.2,2.7-0.3,2.5,1.3c-0.2,1.7,1.7,0.3,2.5,0.7c0.8,0.3,0.8-1.2-0.2-1.8c-1-0.7,0.8-1.7,1.5-2c0.5-0.3-1.3-1,1.8-2.2
				c3.2-1.2,5.7,0.3,8.1,2c2.4,1.7,1.3,6.4,0.7,9.1c-0.7,2.9-2,4.7-2.9,6c-0.7,1.2-1.5,2-2.5,2.5c0.3,0.7,0.7,1.5,1,2.2
				c3.7-0.2,7.6-0.3,11.8-0.3c4.4,0,8.6,0.3,12.8,0.7c0.2-0.5,0.3-1,0.5-1.5c-0.3,0-0.5,0-0.8-0.2c-1-0.7-1.2-1-1.3-1.7
				c-0.2-0.7-1.7-1.5-2.9-3c-1.2-1.5-0.8-3.9,0-5.9c0.8-2,1.5-5.2,3.5-6c2-0.8,1.3-1.8,2-2.4c0.7-0.5,1.7-1.7,2.4-0.2
				c0.7,1.5-1,0-2.2,1.2c-1.3,1,1,0.8,1.3,1.8c0.3,1,1.8,1,2.5,0.8s1.2,0.2,0.7,0.8c-0.5,0.7-0.8,1-0.7,1.8c0.2,0.8,1.5,0.7,2.4-0.2
				c0.7-0.7,0.5-0.8,1.2-0.2c0.7,0.7,0.7-0.7,1.7-1c1-0.3,0.7-0.7,1-1.3c0.3-0.7,1.3-0.5,2,0s0.2,1.8,0.5,0.8c0.3-1,1.3-0.2,1.3-0.2
				c1,1.2,1.2-0.7,2.5-0.3c2.2,0.3,2-0.2,3.2-0.7c1.2-0.5,1.2-0.7,1.8,0.5c0.7,1.2,0.7,0.7,2.7,0.8c2.2,0,3.7-2.4,4.4-3.4
				c0.7-0.8,1.3-0.8,0.8-2.9c-0.7-2-2,0.5-2.7-1.3c-0.7-1.8-2.2-0.5-2.9-2c-0.5-1.5,1.8-0.7,2.5-1c0.7-0.3,1.3,1.5,2.4,1.5
				c1,0,2.2,0.8,2.9,0.2c0.7-0.7-0.7-1.2-1.3-2.2c-0.7-1,1-1,1.7-0.3s1,0.3,2.4,0.3c1.3,0,1.8,1.7,2.4,1.2c0.5-0.7-1-1,0.5-2
				c1.5-1,1.5-0.2,2.9,0c1.3,0,1.5-2,2-3c0.5-1,0.3-1.5-0.7-2c-1-0.5-1.3,0.5-1.7-1c-0.5-1.3-1.3-1.7-2.2-1.3c-1,0.3-3.2-0.2-3-1.3
				c0-1-1.8-1.3-3-1.5c-1.2-0.2-2.4-0.2-2.7-1.3c-0.2-1-0.7-1.3-2-1.3c-1.2,0-1.5,0.3-2.5-0.8c-0.8-1.2-2.2-0.7-3.2,0.2
				c-1,0.8-0.5,1.7-1.5,2c-1.2,0.3-1.3-1.5-0.3-2.4c1-0.8,1.5-0.5,1-1.5c-0.7-1,0-0.7,0.5-1.7c0.5-1,1.5-0.3,1.7,0.8
				c0,1.2,1.8,0.7,2.7,0.5c0.8,0,2-0.5,2.2,0.5c0.2,1,1.2,0.7,2.7,0c1.5-0.7,3.2,1.3,3.9,1.3c0.7,0.2,0.3-1,1.3-1.8
				c0.7-0.7-0.7-0.3-1-1.5c-0.3-1.2,0.7-1.3,2.2-0.2c1.5,1,0.8,2,1.7,2.4c0.8,0.3,1.8,1.5,3.5,0c1.5-1.5,1.5-0.3,3.2-1.3
				c1.5-1,3.2,0,3.9-1c0.7-1,0.7-0.8,2.9,0s1.3-0.7,1.3-3.5c0-2.9,1.2-1.5,1.2-2.7S143.4,52.2,143.2,50.9z M27.2,60.6
				c-0.3,1-1,1.3-1.5,0.8c-0.7-0.5-1-0.3-1.5-0.7c-0.7-0.3,0.8-0.8,0.7-1.3c-0.3-0.2,0.2-0.5,0.2-0.5c0.7-0.2,1.3,0.5,2,0.2
				C27.6,59,27.6,59.6,27.2,60.6z M31.1,55.1c-0.8,0.5-3.7,1.3-3.9-0.7c0-0.7,1.3-0.8,2.7-0.7C31.1,53.9,31.9,54.6,31.1,55.1z
				 M36.3,62.5c-0.5,0.2-0.5-0.8-0.5-0.8C36.1,61.5,36.7,62.2,36.3,62.5z M55.8,46.9c0.7-0.2,1.8-0.2,1.3,0.3
				c-0.3,0.7-1.2,2-1.7,1.3C55,47.9,55.8,46.9,55.8,46.9z M54.8,52.9c0.5-0.3,1.3-1,1.5-0.5c0,0.5,0,1-0.3,1.7
				c-0.3,0.7-1.3,0.7-1.5,0.2C54,53.8,54.8,52.9,54.8,52.9z M54,54.1c0,0-0.5,2-1.5,1.5C51.6,55.3,53.1,53.9,54,54.1z M47.9,69
				c0-1.3-1.7,0.8-1.2-1.3c0.2-0.5,1-0.2,1.5-1.2c0.5-1,1-0.8,1.8-0.3c0.7,0.5,1.8,1.3,1.5,1.8c-0.3,0.7,1,2.7,0.5,3
				c-0.5,0.5-2.4,0-2.7-0.7C49.3,69.9,47.9,70.4,47.9,69z M48.1,71.6c0,0.7-1.3,0.5-1.5,0C46.6,71.7,48.1,70.9,48.1,71.6z
				 M47.7,58.8c0.2-0.3,1.5,0.2,1.8,0.2s0.2,1.3-0.3,1.7c-0.5,0.3-1.5,0.5-1.5,0C47.6,60.3,47.4,59.1,47.7,58.8z M49.3,41.2
				c0.5-0.7,2-0.3,2.9-0.3c0.8,0,1,1.2,0.5,1.5c-0.5,0.5-0.2,2.4-1.3,1.8C49.9,43.7,48.1,43,49.3,41.2z M49.8,49.6
				c0.7,0,0.8-1.3,1.7-1.2s1-2.2,2-1.2c1,1-1.5,1.3-1.5,3c0,1.5-2,1.2-2.2,0.7c-0.3-0.7-0.7-1-1.3-0.2c-0.7,0.8-1.8,1-1.5,0
				c0.3-1,0.3-1.3,0.3-1.3c0.2-0.5-0.7-1.3,0.2-1.3C48.4,47.5,49.1,49.6,49.8,49.6z M41,36.4c0.2-0.5,2.2,0.2,2.4-0.3
				c0.3-0.5,1-0.3,1.2,0.7c0.2,1,0.8,1,1.3,0.5c0.7-0.5,1.5-0.7,1.8,0.2c0.3,0.8,0.7,1,0,1.8c-0.7,0.7,0.8,1.8-0.3,2.2
				c-1.3,0.3-1.5-1.3-2.7-1.3c-1.2,0-2.9-0.5-2.9-1.3C42,38,40.5,37.5,41,36.4z M45.4,51.1c0,0.5,0.2,1.3-0.8,1.2
				c-1.2-0.2-2-0.5-2-1.2c0-0.7,0.8-0.8,1.5-0.8c0.7,0,1.5-1.2,1.8-0.7C46.4,50.1,45.4,50.6,45.4,51.1z M45.4,60.6
				c-0.3,0.2-2.4,0.5-2.5-0.3c0,0,2-1.8,2.5-1.8C46.2,58.6,45.7,60.5,45.4,60.6z M37.3,29.7c0.2-0.5,2,1,1.3,1.7
				C38.3,32.2,37,30.6,37.3,29.7z M39.3,41c-0.5-1-1.2-2-0.5-2.7c0.3-0.3,1.8,0,2,0.3s1.2,2.2,0.7,2.7C41.2,42,39.8,42.2,39.3,41z
				 M38.5,65c-0.3-0.5-0.2-1-0.2-1c1-0.5,1.8,0.7,1.5,1.3C39.5,66,38.7,65.7,38.5,65z M40.4,79.3c-1,1.3-2,1.2-1.2-0.2
				C39.5,78.5,41.5,78,40.4,79.3z M40.5,76.4c-1,1.3-2,1.2-1.2-0.2C39.7,75.6,41.5,75.1,40.5,76.4z M40.7,62.7
				c-0.5-0.2-0.8-0.7-0.7-1.2c0.2-0.5,0.8-0.5,1.2,0C41.4,62,41.2,62.8,40.7,62.7z M41.2,60.3c0-0.3-0.7-1.3-0.2-1.7
				c0.3-0.3,2.2,0.7,1.5,1.3C41.9,60.3,41,60.6,41.2,60.3z M43.4,77.1c0,1-1.7,1.2-1.8,0.8c-0.3-0.3-0.5-1.5,0.3-2.2
				c0.7-0.7,3.2-1,3-0.5C44.7,75.8,43.4,76.1,43.4,77.1z M45.2,63.2c-0.3-0.8-0.3,0.8-0.8,0.5c-0.7-0.3-0.7-0.2-0.7-0.7
				c0-0.3,0.5-0.7,1.3-0.7c1,0,2.4,1.5,2,1.8C46.9,64.3,45.6,64,45.2,63.2z M53.6,78.1c-0.8,0.2-2.2-0.5-0.8-0.8
				c2-0.7,0-2.2-0.7-2.4c-0.7-0.2-2-0.2-2.5-1.2s-1.8,0-1.8,0.5c0,0.5-0.5,1.3-1.3,1.2c-0.8-0.2-1,0.3-0.7-0.5
				c0.2-0.3,1.3-0.2,1.3-0.7c0-0.7,0.3-1.3,1-1.3c0.7,0,1.3-1,2.4-0.8c0.8,0.2,2,2,2.5,2.5c0.5,0.5,2.7,1.8,3.5,2.7
				c0.8,0.8,1.3,0.3,1.3,1C57.7,78.8,54.5,78,53.6,78.1z M57.3,74.3c-1.2-0.3-2-0.7-2.2-1.8c-0.2-1.2-1.5-2.7-1.2-3
				c0.3-0.5,0.7-0.7,0.8-0.8c0.3-0.7,1-1.3,1.7-0.3c0.7,1,1.5,1.5,1.5,2.4C58,71.2,58.5,74.6,57.3,74.3z M131.3,73.3
				c0.5,0.2,0.2,1-0.2,1.2c-0.3,0.3-0.7,0.2-0.7,0.2C130.1,73.9,130.9,73.1,131.3,73.3z M120.8,68c0.5-1.2,1-1.2,1.3-0.5
				c0.2,0.7,1.3,2.5,0.3,2.5c-0.8,0-0.5,1.5-1.3,0.8c-0.8-0.7-1.3-0.7-1.5-1.5C119.3,68.5,120.3,69.2,120.8,68z M116.5,69.6
				c0.3-0.3,1.2-0.5,1.5,0c0.3,0.7,0.7,0.7,1.2,0.7s0.5,0.7,0.2,1.3c-0.3,0.7,0.5,1-0.5,1.3c-1,0.3-0.7,1.3-1.5,0
				c-0.7-1.3,0-1.8-0.7-2.5C116,69.9,115.8,70.2,116.5,69.6z M113.1,74.4c0.8,0,2.5-0.2,2.4,0.7c-0.2,1-1.7,0.8-1.7,0.8
				C113.1,75.6,112.3,74.4,113.1,74.4z M121.2,45.2c0.5-0.7,0.8-0.2,0.8-0.2s0,0.3-0.2,0.5C121.5,45.7,120.8,45.9,121.2,45.2z
				 M113.3,49.1c0,0,0,0.3-0.2,0.5c-0.3,0.3-1.2,0.3-0.7-0.3C113,48.4,113.3,49.1,113.3,49.1z M112.1,36.8c0.5-0.7,0.8-0.2,0.8-0.2
				s0,0.3-0.2,0.5C112.4,37.3,111.6,37.5,112.1,36.8z M109.6,34.8c0.5-0.3,1.3-1.5,1-0.3c-0.3,1.3,1.7,0.3,0.8,1.7
				c-0.7,1.3-1.3,1.3-1.3,1.2c0-0.2,1-1.3-0.2-1.5C108.7,35.4,108.1,35.8,109.6,34.8z M108.7,46.9c0.5-0.7,0.8-0.2,0.8-0.2
				s0,0.3-0.2,0.5C109.1,47.5,108.4,47.5,108.7,46.9z M106.6,33.9c0.3-0.5,1.8,0,1.7,0.5s-0.2,2-1,1
				C106.6,34.3,105.9,34.9,106.6,33.9z M100.9,42.3c0.5-0.7,0.8-0.2,0.8-0.2s0,0.3-0.2,0.5C101.2,43,100.3,43,100.9,42.3z
				 M99.5,34.4c0-0.3,1-0.7,0.8,0c0,0.7-0.5,0.8-1.2,0.7C98.7,34.8,99.5,34.8,99.5,34.4z M100.5,41.2c-0.3,0.3-1.8,0.3-2.2,0.8
				c-0.3,0.5-2,0.5-2.2,0.2c0-0.3-0.3-0.7-0.2-1c0.3-0.3,2.7,0.2,3.2-0.3C99.5,40.1,100.9,40.8,100.5,41.2z M97.8,24.7
				c1-0.3,1.3,0.5,1.5,0.8c0.2,0.3-1.8,1.8-2.2,0.8C97,26,96.8,25,97.8,24.7z M98.2,35.4c0.5-0.3,1.3,0,0.3,0.5c-1,0.5,0.5,1,1,1.3
				c0.5,0.3,0.8,1,0.3,1s-1.2,0.7-2,0.8c-0.7,0.2-1.8-0.7-2.2-2.5C95.5,34.9,97.8,35.8,98.2,35.4z M94.3,27.5
				c-0.2-0.8,0.8-1.3,1.2-0.8s1.3,1.8,0.7,2.2c-0.7,0.3-2.2,1.8-2.9,1.2C92.8,29.2,94.5,28.2,94.3,27.5z M94.1,34.6
				c0.7,0.2,0.3,1-0.2,1.3c-0.5,0.3-1,0.2-1,0.2C92.4,35.3,93.5,34.4,94.1,34.6z M88.6,38.3c0.7,0.7-1,2.5-1.7,1.7
				C86.9,40,87.9,37.6,88.6,38.3z M89.1,55.9c0,0.8-0.7,0.8-1.3,0.5c-0.5-0.3-1-1.3-2.4-1.2c-1.3,0.2-3.7,0.7-1.7-1.7
				c0.5-0.7,1.3-1.2,2-0.7c0.7,0.5,1.2,2.2,1.7,1.7C88.1,54.1,89.1,55.1,89.1,55.9z M88.8,42.2c0.5-1,1-0.2,1-0.2s0,0.5-0.2,0.7
				C89.3,43.2,88.2,43.2,88.8,42.2z M85.2,41.3c0.5-0.3,2.9-0.7,2.7,0.2c-0.2,0.7-1.7,2-2.2,1.7C85.1,43,84.7,41.7,85.2,41.3z
				 M84.7,45c0.7-0.3,1,2,0.3,2s-2.5,0.8-2.9,1.2c-0.2,0.3-1.2,0.3-1.2,0c0-1.8,1-0.8,1.5-0.8C83.2,47.4,84,45.4,84.7,45z
				 M82.5,53.8c-0.2,0.5-0.2,1.3-1.2,1.2c-1,0-2.9,0.7-1-1.3C80.9,53.1,82.7,53.1,82.5,53.8z M79.7,33.1c0.5-0.2,0-2.7,0.5-2.5
				c0.5,0.2,1.5,1.2,2.5,1.3c1,0.2,1.3,0.7,0.5,1.2c-0.8,0.7-1.2,0.7-1.2,1.3c0,0.7-1,0.8-1.2,0.3c-0.2-0.7-0.7-1.2-1-0.5
				C79.2,34.9,78.2,33.4,79.7,33.1z M78.3,47.7c0.5,0,2.9,0.2,2.5,1.3c-0.3,1.3-1,1.5-1.5,1.5c-0.7,0-0.8-1.3-1.3-1.7
				C77.3,48.7,77.2,47.5,78.3,47.7z M78,51.9c-0.3,0.7-1,1.8-1.3,1.8c-0.5,0-0.7-0.8-1.3-1.2c-0.7-0.3-1,0-0.8-1
				c0-0.3,0.5-0.8,1.7-0.7C77.3,51.1,78.3,51.1,78,51.9z M75.5,33.3c0.7-0.8,0.2-1.5,1.3-1.3c1,0.2,0.7,1.8,0.7,2.5
				c0,0.7-1.2,0.5-1.5,1c-0.3,0.5-1,0.5-1.2-0.2C74.8,34.8,75,34.1,75.5,33.3z M74.3,47.7c1.2,0.8,1.3-0.7,2,0
				c0.5,0.7,0.2,1.5-0.5,1.8c-0.7,0.3-1.3-0.2-2.2-0.2s-0.8-0.2-0.7-0.7C73,48.2,73.1,46.9,74.3,47.7z M73,34.9
				c-0.5,0.8-0.8,1-1,1.2c0.2,0,0.3,0.2,0.5,1c0.2,1.3-0.3,2.2-0.5,2c-0.2-0.2-1.3-0.8-1.3-2.2c0-1.2,1.3-2,0.2-2.2
				c-1.2-0.2-1.3,0.5-1.3-0.7c-0.2-0.7,0-1,1.5-0.8C72.6,33.4,74,33.4,73,34.9z M65.4,23.3c1,0.2,2.9,0.7,2.7,1.7
				c-0.2,1-1,1.3-1.3,0.7c-0.3-0.7,0-1.3-1.3-1.3c-1.3,0-1.7,0.2-1.7-0.3C63.7,23.5,64.4,23,65.4,23.3z M62.7,26.2
				c0.8-0.8,0.7,0.7,2,0.7c1.3,0,3.5,0,3.5,0.8c-0.2,2,3,1.5,2.9,2.5c-0.2,1.7-2,2-2.2,2.4c-0.2,0.5-1.7,0.2-1.5,1.7
				s-1.2-0.3-1.3-0.8c-0.5-1.3,1.3-2,1-2.7c-0.3-0.7-1.5,1.2-2.2,0.5c-0.7-0.7-1.5-0.2-0.8-1.7s0.2-1.3-0.5-1.5
				C62.4,27.9,62.4,26.5,62.7,26.2z M61.2,55.4c0.2-1.5,0.7-0.3,1.3,0c0.8,0.3,2.5,0.8,0.2,1.3C62,56.9,61,56.9,61.2,55.4z
				 M67.1,64.8c0.2,1,0,1.5-0.7,1.3c-0.7-0.2-0.8,0.8-2.2,1c-1.3,0.2-2.4-1.8-2.4-2.5c0.5-0.7,2.4-0.8,3.2-1.3
				C65.7,62.8,66.9,63.7,67.1,64.8z M65.1,55.1c0.2-1.3,3-1.2,3.5-0.5c0.3,0.7,0.3,1.3-0.3,1c-0.7-0.2-1,0.2-1.5,0.3
				C66.2,56.1,65.1,55.8,65.1,55.1z M60.7,67.7c0.5-0.7,1.7,0,1.7,0c0.3,0.5,0.5,1.7-0.2,1.5C61.5,68.9,60,68.4,60.7,67.7z
				 M59.3,67.5c-0.8-0.3-1.3-1.5,0.2-1.3c1.5,0.2,0.7,1.2,0.7,1.2S59.7,67.7,59.3,67.5z M66.6,77.6c-0.7,0-1.7-1.2-2.4-1.2
				c-0.7,0-1.2,1.3-2.4,1c-1.2-0.3-1.8-1.2-1.7-2c0-0.8-0.7-1.3,0-2c0.7-0.5,1.8,1.5,2.7,0.8c0.8-0.7,1.5-0.7,2.4-0.7
				s3.7,0.5,3.5,1.7C68.8,76.8,67.2,77.5,66.6,77.6z M69.4,45.4c0,1-0.3,1.7-0.8,1.7c-0.5,0-2,0.7-2.5,0.7c-0.7,0,0,0.3-1.2-0.5
				c-1.2-0.8-0.5-0.3,0.2-1.3c0.7-1.2,1.2-0.3,2.9-1.2C69.8,44,69.4,44.3,69.4,45.4z M68.2,38.1c-0.8,0.2-1-1.3,0-1.3
				c1,0,1.5,1.7,1.5,2C69.6,39.3,69.1,38,68.2,38.1z M70.1,47.9c-0.7-0.2-0.3-0.8-0.2-1.3c0.3-0.5,0.8-0.2,0.8-0.2
				c0,0.2,0.8,1,0.7,1.3C71.1,48,70.6,48.2,70.1,47.9z M70.8,64.7c-0.3-1,0.8-2.2,1-2.5s1.2-1.7,2.2-1c0.8,0.7-0.5,1.3-0.5,2
				s0.8-0.2,1.3,1.8c0.5,2.2-1.5,0.8-2,1.5C71.6,67.9,71.3,65.7,70.8,64.7z M78.5,75.9c-1,0.7-2.2,1.3-2.9,0.7
				c-0.7-0.7-1.3-1.2-2-1.5c-0.7-0.3-0.5-2.4-0.2-2.7c0.3-0.3,1.2-0.3,1.8-0.3s2.7,0.2,3.4,1.5C79.3,75.1,79.7,75.3,78.5,75.9z
				 M78.2,66.9c-0.2-0.8-0.5-1.5,0-2.2c0.2-0.3,1.3-0.5,1.5-0.2c0.2,0.3,1.3,0.5,1.3,1.2s-1.3,0.7-1.5,1S78.3,67.9,78.2,66.9z
				 M79.8,68.9c0.7-0.7,0-1.8,1.5-0.8c1.3,1,1,2.2,0.3,2.2C81.2,70.4,78.8,70.1,79.8,68.9z M85.7,80.6c-1.3,2.2-2.9,1.2-3,0.8
				c-0.3-0.3-1.3-2.4-0.2-3.2c0.7-0.5,0.8-2,2-1C85.7,78.3,87.1,78.5,85.7,80.6z M88.8,77.1c-0.7,0-2-1.7-1.5-1.8c0.7,0,1.3-0.5,2,0
				C89.6,75.9,89.6,77.1,88.8,77.1z M88.8,71.4c-1.2-0.3-3.2,0.3-2-1c0.8-1,1.2-2.7,2.2-1.3C89.4,69.6,90.8,71.9,88.8,71.4z
				 M91.8,40c-1,0.7-1.5,0.7-2,0.5c-0.5,0-0.7,1.2-1.2,0c-0.2-0.5,2-1.3,2.7-1.3c0.7,0,1.3-1.3,1.8-0.7c0.5,0.7,0.5,2.2-0.3,2.9
				C91.4,42.5,92.4,39.5,91.8,40z M96.1,78.8c0,0.7,0,1.3-0.5,0.8c-0.5-0.3-0.3-2.4,0.3-2S96.3,78.1,96.1,78.8z M96,73.6
				c-0.7-0.3-1.5-0.2-1.8,0.3c-0.2,0.7-1.2,1.3-1.8,0.5c-0.7-0.8-0.3-2.7,1-1.8c0.7,0.5,3.2-1.3,3.5-0.8C97,72.2,96.5,74.1,96,73.6z
				 M98.2,80.3c0,0-0.3,0.3-0.7,0.2c-0.7-0.3-1-1.5,0.2-1.3C98.8,79.5,98.2,80.3,98.2,80.3z M97.3,71.4c-0.3,0-1.8-1-2.9-1
				s-1.8,0.7-2-0.3c-0.2-0.5,1-1.2,1.5-1.3s1.5-0.8,1.8-1.3c0.2-0.7,1-0.8,1.2,0.3c0.2,1.2,3,2.2,2.7,2.9
				C99.5,71.2,97.8,71.4,97.3,71.4z M99.8,81c-0.5,0.3-1.8,0.3-1.2-0.7c0.7-1,1.2,0,1.2,0S100.2,80.6,99.8,81z M99.3,73.4
				c-1.2-0.8,0-1,0-1s0.7,0,0.8,0.3C100.7,73.3,100.3,74.3,99.3,73.4z M101.2,48c-0.5,0.3-0.5-0.5-2.2,0.3c-1.5,0.8-1.7-0.3-1.3-0.8
				c0.5-1,1-1.3,1.8-1.3s2.7-0.7,2.9,0.7c0.3,1.3,1.8,3.4,1.2,3.5C101.9,51.1,101.7,47.7,101.2,48z M104.2,63.7
				c-0.3,0.3-0.5-1-1.3-0.8c-0.8,0-1.8-0.3-1.3-1.3c0,0,1.5-0.5,2.2,0.3C104.2,62.7,104.5,63.3,104.2,63.7z M104.4,48.4
				c-0.5,0-1-0.3-1-0.8s0.5-0.8,1-0.8c0.5,0,1,0.3,1,0.8C105.2,48,104.9,48.4,104.4,48.4z M105.6,49.7c-0.8-0.3,0-1.8,0.3-2.9
				c0.3-0.7,0.5-2,1.2-1c0.7,1,0.3,2,0,2.7C106.6,49.1,107.2,50.4,105.6,49.7z M107.6,61.5c-1,1-0.7,1.5-0.3,2.2
				c0.3,0.7-2.2-1.3-1-3C106.6,60.1,108.6,60.3,107.6,61.5z M109.4,59.1c-0.8,0.3-1.2,0.7-1.3,0.3c0,0,1.2-1.7,1.7-1.5
				C110.1,58.1,110.3,58.8,109.4,59.1z M113.6,52.9c-1.3-0.5-0.7,2.2-2.4,1.2c-1.7-1-1.8-1.3-1.8-2.4c0-0.8-2.7-1-0.2-2.2
				c0.7-0.3,2.2-0.5,2.2,0.3c0,0.7-2.2,1.3,0.2,1.3c2.2,0.2-1.3,1,3.2,0.7C115.3,51.9,115,53.4,113.6,52.9z M125.6,51.6
				c-0.5,0.5-2.2,1.2-2.5,0.3c-0.3-0.8-1.2,1.3-2,0.8c-0.8-0.5-3-1.3-3.2-0.5c-0.2,0.8-1,1.5-1.3,1.2c-0.3-0.5-1.8-2.2-1.3-2.5
				c0.7-0.5,0.8-1.7-0.3-1.3c-1.2,0.3-0.8-2,0-2.5c0.5-0.3,0.8-0.7,1.3,0.2c0.5,0.8,1.3-0.2,1.3-0.7c0-0.5,0.5-1.3,1-1.3
				c0.5,0,2.2,0.7,2.7,1.5c0.7,1,0.8,2.7,1.8,2.9C123.9,49.7,126.1,51.1,125.6,51.6z"/>
		</g>
	</g>
</g>
</svg>
