<?xml version="1.0" encoding="utf-8"?>
<!-- Generator: Adobe Illustrator 26.0.1, SVG Export Plug-In . SVG Version: 6.00 Build 0)  -->
<svg version="1.1" id="Слой_1" xmlns="http://www.w3.org/2000/svg" xmlns:xlink="http://www.w3.org/1999/xlink" x="0px" y="0px"
	 viewBox="0 0 173.4 110.4" style="enable-background:new 0 0 173.4 110.4;" xml:space="preserve">
<style type="text/css">
	.st0{fill:#042F2E;}
</style>
<g>
	<g>
		<g>
			<path class="st0" d="M161.3,37c-0.1-0.8-0.9-1.3-1.8-0.3c-0.9,1.1-0.6,0-1.4,0.4c-1,0.5-1.2,0.2-1.9-0.4
				c-0.4-0.3-0.5-2.1-1.2-1.1c-0.9,1.3-0.7-0.6-1.1-0.8c-0.9-0.4-1.5,0.3-1.9,0.7c-0.4,0.4-1.6,0.2-2.1-0.7
				c-0.5-0.9,0.4-1.2,0.7-0.8c0.3,0.4,1.3,0,0.8-0.7c-0.5-0.7,1.8-0.9,2.6-1.3c0.8-0.3,0-0.8-0.7-0.8c-0.7,0-1.1,0.1-1.4-0.7
				c-0.3-0.8-0.7-0.6-0.8-0.4c-0.2,0.2-0.4,0.8-1.4,0.1c-1-0.8,0.4-1.2,0.8-0.8c0.4,0.4,0.7-1.1,1.4-1.1c0.8,0,1.8,0.4,2.6,0.4
				c0.8,0,1.2,0.5,0.3,0.6c-0.9,0.1-0.7,0.9-0.3,1.2s1.1-0.9,1.7-0.5c0.6,0.4,1.3-0.2,2.4,0.4s1.1,0.1,1.6-0.1
				c0.5-0.2,1.2-0.4,1.1-1c0-0.6-1.2,0-1.7-1c-0.3-0.7-1.1-0.4-1.9-0.2c-0.8,0.1-1.2,0.9-1.5,0.3c-0.3-0.6,2-1.4,2.1-2
				c0.1-0.6-0.4,0.2-0.7-0.6c-0.2-0.8-0.7-0.5-1.4-0.5c-0.7,0-1.1-0.6-1.6-0.7c-0.5,0-0.9,0.9-1.9,0.9c-0.9,0-0.6-0.8-1.2-1.4
				c-0.6-0.6,0.1-1.4,0.7-0.3c0.5,1.1,0.7,0.6,1.2,0.3c0.5-0.3,1-0.8,1.8,0c0.8,0.8,0.7,0.1,1.3-0.1c0.5-0.3,0.7-0.8,0.3-0.8
				s-2.1-0.3-1.2-0.7c0.7-0.3,0.5-0.5,0.1-0.9c-0.3-0.3-0.7-0.1-0.6-0.5c0-0.2-0.5-0.8-0.9-0.7c-0.4,0.1-1.4,0.4-1.3-0.8
				c0.1-0.9-0.3-0.1-0.8-0.2s-0.8,0.9-1.1,0c-0.3-1-1.5,0.3-1.5,0.2c-0.1-0.1-0.2,0.8-0.8,0.7c-0.5-0.1-1.4,1-1.3,0.3
				c0.1-0.7-0.3,0-0.5,0c-0.8,0.1-1.8,0.6-0.3,1.7c1.5,1,0,0.9-0.8,1.2c-0.9,0.2-0.4,0.9-0.1,1.3c0.4,0.4-0.3,1.4-0.7,0.4
				c-0.4-1-0.7-0.4-1.3,0c-0.6,0.4-0.4-0.6-0.1-0.6s0.4,0,0.8-1.2c0.4-1.2-2-2.6-2.1-3.4c-0.1-0.8-0.6-1.5-1.1-1.1
				c-0.5,0.4-0.8,0.2-1.4-0.4c-0.5-0.6-0.7,0.4-1,0.3c-0.3-0.1-1-0.1-1.7,0.4c-1.9,1.4,0.5,1.1,0.8,1.5c0.8,0.9-0.2,1.3-0.7,0.7
				c-0.5-0.6-0.6-0.1-0.9-0.1c-0.3,0-0.8-0.2-1.1-0.5c-0.3-0.3-0.8-0.8-1.3-0.2c-0.4,0.6-0.9,0.3-1.8-0.5c-0.8-0.8-1-0.2-1.1,0.3
				c-0.1,0.5-1.3,0.4-1.6,0.5c-0.4,0.1-1.2,1.4-2-0.3c-0.8-1.7,0.7-1.7,1.7-1.5c1,0.2,0.2-1.3,1.6-1.2c1.4,0.1,0.4,0.4,1.7,0.8
				c1.3,0.4,0.7-0.8,1.7-0.8c1,0.1,0.4-0.7,1.7-1.5c0.8-0.4-1.1-1.1-2.1-0.9s-1.1-0.2-1.7-0.5c-0.6-0.3-1.3-0.4-1.8,0.1
				c-1.3,1.3-1.2,0-1.2-0.5c0-0.6-1.9-1.7-2.9-1.8c-0.9-0.1-2.6,1.7-3.1,1.1c-0.5-0.6-1.1-0.1-2.3,0c-1.2,0.1-0.6,0.6,0,1.1
				c0.6,0.5-0.4,0.5-0.8,0.4c-0.5-0.1-0.9,0.6,0.4,0.9c1.3,0.3,0.2,0.7-0.3,0.7c-0.5,0-1.2,0.4-1.9,1.3c-0.7,0.9-1.2,0.7-2,0.5
				c-0.8-0.2,0-1.8,0.4-1.7c0.4,0.1,1.7-0.7,1.4-1.6c-0.3-0.8-0.3-0.6,0.7-1.3c1-0.7,0-1.3-0.4-1.5c-0.4-0.2-1.3,0.8-1.7,0.3
				c-0.4-0.5-0.9-0.5-1.4-0.5c-0.5,0-0.5,0.9-1.2,0.3c-0.2-0.2-0.4-0.3-0.6-0.4c-0.2-0.1-0.7-0.5-0.8-0.2c-0.3,0.6-1-1.4-1.1,0
				c0,0.4-0.5,0.1-0.7-0.1c-0.3-0.3-0.7,0.3-1,0.2c-0.5-0.1-0.8,0.4-1.1,0.3c-0.4-0.1-1.5-1.2-2-0.1c-0.5,1,0.8,0.4,0.7,1
				c-0.1,0.7,0.6,1.1,0.2,1.6c-0.4,0.4-1.9,0.7-2.9,0c-1-0.8-1.5,0.7-1.7,1.4c-0.2,0.8,1.4,0.6,1.7,1c0.2,0.4,1.9-0.3,3,0.2
				c1.1,0.5-0.9,0.4-1,0.8c-0.1,0.4,0.9-0.1,1.2,0.5c0.3,0.6,0.7,0,1.4,0.6c0.7,0.6,1.3,0.1,1.9-0.2c0.6-0.3,1.4,0.4,1.3,0.9
				c-0.1,0.4-0.6,0.3-1,0.8c-0.4,0.4-1-0.8-1.6,0.2c-0.6,1,1.2,0,1.5,0.6c0.3,0.6,0.8,0.5,1,0.7c0.1,0.2-0.9,0.9-1.6,1.3
				c-0.6,0.3-1.1,0.7-2.2,0.5c-1.1-0.2,0.5-1.6-0.8-1.7c-0.4,0-1.4-0.4-1.3-0.9c0.1-0.6-1.8-2.5-2.4-3c-0.5-0.4,0.1,1.7-0.6,1.7
				c-0.8,0-1.7-1.6-3.1-2.5c-0.6-0.4-1.3-0.1-1.9-0.3c-0.3-0.1-0.8,0.6-0.9,0.3c-0.3-1.4-0.7,0.4-1,0.2c-0.3-0.3-0.5,0.5-0.9,0.2
				c-0.3-0.3-0.4,0.6-0.4,1.3c-0.1,1.3-0.7,0.5-2.1,0.8c-1.4,0.2-1.4,1.7-1.3,2.3c0.1,0.5-0.2,1-1,0.7c-0.8-0.3,0-1-0.7-1.3
				c-0.7-0.3-2.4,1.9-2.4,2.4c0,0.5,1.3-0.3,2.1,0.8c0.4,0.7,1.8-0.1,2.3,0.4c0.5,0.5,1.9-0.6,2.3-1.1c0.4-0.5,1.3-0.6,1.9-0.7
				c0.6-0.1,0.7,1,0.7,1.4s1.2,0.1,0.8,1.2c-0.2,0.4-0.7,0.4-2.5,0.5c-1.9,0.1,0.4,0.7,0.3,1.2c-0.1,0.4-1.7,0.3-2.2,0.8
				c-0.4,0.5,1.5,1.7,2.1,2c0.7,0.3,2.4-1.3,2.8-0.8c0.4,0.4,0.6,1.2,1.3,1.7c0.7,0.6,1,0.7,0,1.7c-1.1,1-2.7-0.3-2.7-0.3
				c-1.1-0.2-1.7-0.8-2.3,0.1c-0.4,0.6-0.2,1.4-0.7,1.8c-0.5,0.4-1-0.8-1.8-0.7c-1.5,0.2-1.4-1.2-2.1-1.5c-0.4-0.1-1.9,1.3-1.9-0.4
				c0.1-2.1-1.1,0-1.5-0.3c-0.8-0.7-1.4,0.9-1.8-0.2c-0.2-0.4-0.9,0.2-1.2,0.4c-0.7,0.4,0,1.8-0.8,1.8c-0.8,0-0.5,0.4-1.1,0.9
				c-0.5,0.5,0,1.1-0.3,1.3c-0.3,0.2-0.3,0.9-0.1,1c0.4,0.3,0.5-1.3,1-0.3c0.5,1.1-1.2,1.3-1.5,0.9c-0.3-0.4-0.6-1.6-0.9-0.4
				c-0.2,0.9-1.4,1.3-1.3,1.7c0.2,0.9,1.3,0.1,2.1-0.1c0.8-0.3,0.7,1.1,0.7,2c0,0.9,1,0.6,1.3,0.8c0.3,0.2,0.7,0.5,1.2,0.6
				c0.5,0,1-0.8,0-1c-0.9-0.1,0-0.8-1.1-0.7c-1.1,0.1-0.4-0.9-0.2-0.6c0.3,0.3,1.3,0.1,2.1,0.2c0.8,0.1,1,1.3,1.7,1.3
				c0.4,0,0.8-0.1,0.8,0.4c0,0.5-0.4,1.3-0.1,1.3c0.2,0.1,0.3-0.8,0.9-1c0.7-0.2,0.5,1,0.6,1.7c0.1,0.7-0.7,0.1-0.8,1
				c-0.1,0.9,0.5,0.6,1,0.2c1.3-1,0.9,0.6,1.7,0.7c1.3,0.2,1-0.8,1.8-1c0.8-0.2,1.3-0.4,1.7-0.8c0.4-0.4,1.2-0.4,2,0.3
				c0.8,0.7,1,0.8,1.6,0.6c0.8-0.4,0.6,0.6,0.3,1c-0.3,0.4-2.1,0.3-3.1,0.1c-1-0.1-1.7,0.8-1.2,0.8c0.5,0.1,1.2,0.5,0.6,0.8
				c-0.6,0.3-0.4,0.8-1,0.8c-0.6,0-1.2-1.3-1.9,0.2c-0.7,1.5,1.2,2.5,2.6,2c1.4-0.5,1.9,0,2.1,0.5c0.2,0.5,1.9,1,1.9,1
				c0.8,1.7-0.7,0.3-1.2,0.2c-0.5-0.1-1,0.9-2,0.8c-1-0.1-1.3,0.3-1.1,0.5c0.3,0.2,0.8,0.7,0,1.1c-0.8,0.3-0.4,1.3-0.8,1.7
				c-0.4,0.4-0.2,1.1,0.5,1.1c0.7,0,2.5-0.1,2.8,0.3c0.3,0.5,2.1,0,2.1,0c1.8,0-0.1,1.1,0.1,1.6c0.2,0.5,3.8-0.1,4.6,0.3
				c0.6,0.4,0.1,1.1,0.2,1.6c0.3-0.1,0.6-0.1,0.9-0.1c0.3-0.4,0.5-1,0.2-1.5c-0.5-0.9,0.3-0.5,0.1-1.4c-0.2-0.9,1.8-1.4,2.7-1.3
				c0.9,0.1,1.6-0.2,1.5,0.8c-0.1,1,1,0.2,1.5,0.4c0.5,0.2,0.5-0.7-0.1-1.1c-0.6-0.4,0.5-1,0.9-1.2c0.3-0.2-0.8-0.6,1.1-1.3
				c1.9-0.7,3.4,0.2,4.8,1.2c1.4,1,0.8,3.8,0.4,5.4c-0.4,1.7-1.2,2.8-1.7,3.6c-0.4,0.7-0.9,1.2-1.5,1.5c0.2,0.4,0.4,0.9,0.6,1.3
				c2.2-0.1,4.5-0.2,7-0.2c2.6,0,5.1,0.2,7.6,0.4c0.1-0.3,0.2-0.6,0.3-0.9c-0.2,0-0.3,0-0.5-0.1c-0.6-0.4-0.7-0.6-0.8-1
				c-0.1-0.4-1-0.9-1.7-1.8c-0.7-0.9-0.5-2.3,0-3.5c0.5-1.2,0.9-3.1,2.1-3.6c1.2-0.5,0.8-1.1,1.2-1.4s1-1,1.4-0.1
				c0.4,0.9-0.6,0-1.3,0.7c-0.8,0.6,0.6,0.5,0.8,1.1c0.2,0.6,1.1,0.6,1.5,0.5c0.4-0.1,0.7,0.1,0.4,0.5c-0.3,0.4-0.5,0.6-0.4,1.1
				c0.1,0.5,0.9,0.4,1.4-0.1c0.4-0.4,0.3-0.5,0.7-0.1c0.4,0.4,0.4-0.4,1-0.6c0.6-0.2,0.4-0.4,0.6-0.8c0.2-0.4,0.8-0.3,1.2,0
				c0.4,0.3,0.1,1.1,0.3,0.5c0.2-0.6,0.8-0.1,0.8-0.1c0.6,0.7,0.7-0.4,1.5-0.2c1.3,0.2,1.2-0.1,1.9-0.4c0.7-0.3,0.7-0.4,1.1,0.3
				c0.4,0.7,0.4,0.4,1.6,0.5c1.3,0,2.2-1.4,2.6-2c0.4-0.5,0.8-0.5,0.5-1.7c-0.4-1.2-1.2,0.3-1.6-0.8s-1.3-0.3-1.7-1.2
				c-0.3-0.9,1.1-0.4,1.5-0.6c0.4-0.2,0.8,0.9,1.4,0.9c0.6,0,1.3,0.5,1.7,0.1c0.4-0.4-0.4-0.7-0.8-1.3c-0.4-0.6,0.6-0.6,1-0.2
				c0.4,0.4,0.6,0.2,1.4,0.2c0.8,0,1.1,1,1.4,0.7c0.3-0.4-0.6-0.6,0.3-1.2c0.9-0.6,0.9-0.1,1.7,0c0.8,0,0.9-1.2,1.2-1.8
				c0.3-0.6,0.2-0.9-0.4-1.2c-0.6-0.3-0.8,0.3-1-0.6c-0.3-0.8-0.8-1-1.3-0.8c-0.6,0.2-1.9-0.1-1.8-0.8c0-0.6-1.1-0.8-1.8-0.9
				c-0.7-0.1-1.4-0.1-1.6-0.8c-0.1-0.6-0.4-0.8-1.2-0.8c-0.7,0-0.9,0.2-1.5-0.5c-0.5-0.7-1.3-0.4-1.9,0.1c-0.6,0.5-0.3,1-0.9,1.2
				c-0.7,0.2-0.8-0.9-0.2-1.4c0.6-0.5,0.9-0.3,0.6-0.9c-0.4-0.6,0-0.4,0.3-1c0.3-0.6,0.9-0.2,1,0.5c0,0.7,1.1,0.4,1.6,0.3
				c0.5,0,1.2-0.3,1.3,0.3c0.1,0.6,0.7,0.4,1.6,0c0.9-0.4,1.9,0.8,2.3,0.8c0.4,0.1,0.2-0.6,0.8-1.1c0.4-0.4-0.4-0.2-0.6-0.9
				c-0.2-0.7,0.4-0.8,1.3-0.1c0.9,0.6,0.5,1.2,1,1.4c0.5,0.2,1.1,0.9,2.1,0c0.9-0.9,0.9-0.2,1.9-0.8c0.9-0.6,1.9,0,2.3-0.6
				c0.4-0.6,0.4-0.5,1.7,0c1.3,0.5,0.8-0.4,0.8-2.1c0-1.7,0.7-0.9,0.7-1.6S161.4,37.8,161.3,37z M92.3,42.8
				c-0.2,0.6-0.6,0.8-0.9,0.5c-0.4-0.3-0.6-0.2-0.9-0.4c-0.4-0.2,0.5-0.5,0.4-0.8C90.7,42,91,41.8,91,41.8c0.4-0.1,0.8,0.3,1.2,0.1
				C92.5,41.8,92.5,42.2,92.3,42.8z M94.6,39.5c-0.5,0.3-2.2,0.8-2.3-0.4c0-0.4,0.8-0.5,1.6-0.4C94.6,38.8,95.1,39.2,94.6,39.5z
				 M97.7,43.9c-0.3,0.1-0.3-0.5-0.3-0.5C97.6,43.3,97.9,43.7,97.7,43.9z M109.3,34.6c0.4-0.1,1.1-0.1,0.8,0.2
				c-0.2,0.4-0.7,1.2-1,0.8C108.8,35.2,109.3,34.6,109.3,34.6z M108.7,38.2c0.3-0.2,0.8-0.6,0.9-0.3c0,0.3,0,0.6-0.2,1
				c-0.2,0.4-0.8,0.4-0.9,0.1C108.2,38.7,108.7,38.2,108.7,38.2z M108.2,38.9c0,0-0.3,1.2-0.9,0.9C106.8,39.6,107.7,38.8,108.2,38.9
				z M104.6,47.8c0-0.8-1,0.5-0.7-0.8c0.1-0.3,0.6-0.1,0.9-0.7c0.3-0.6,0.6-0.5,1.1-0.2c0.4,0.3,1.1,0.8,0.9,1.1
				c-0.2,0.4,0.6,1.6,0.3,1.8c-0.3,0.3-1.4,0-1.6-0.4C105.4,48.3,104.6,48.6,104.6,47.8z M104.7,49.3c0,0.4-0.8,0.3-0.9,0
				C103.8,49.4,104.7,48.9,104.7,49.3z M104.5,41.7c0.1-0.2,0.9,0.1,1.1,0.1c0.2,0,0.1,0.8-0.2,1c-0.3,0.2-0.9,0.3-0.9,0
				C104.4,42.6,104.3,41.9,104.5,41.7z M105.4,31.2c0.3-0.4,1.2-0.2,1.7-0.2c0.5,0,0.6,0.7,0.3,0.9c-0.3,0.3-0.1,1.4-0.8,1.1
				C105.8,32.7,104.7,32.3,105.4,31.2z M105.7,36.2c0.4,0,0.5-0.8,1-0.7c0.5,0.1,0.6-1.3,1.2-0.7c0.6,0.6-0.9,0.8-0.9,1.8
				c0,0.9-1.2,0.7-1.3,0.4c-0.2-0.4-0.4-0.6-0.8-0.1s-1.1,0.6-0.9,0c0.2-0.6,0.2-0.8,0.2-0.8c0.1-0.3-0.4-0.8,0.1-0.8
				C104.9,35,105.3,36.2,105.7,36.2z M100.5,28.4c0.1-0.3,1.3,0.1,1.4-0.2c0.2-0.3,0.6-0.2,0.7,0.4c0.1,0.6,0.5,0.6,0.8,0.3
				c0.4-0.3,0.9-0.4,1.1,0.1c0.2,0.5,0.4,0.6,0,1.1c-0.4,0.4,0.5,1.1-0.2,1.3c-0.8,0.2-0.9-0.8-1.6-0.8c-0.7,0-1.7-0.3-1.7-0.8
				C101.1,29.3,100.2,29,100.5,28.4z M103.1,37.1c0,0.3,0.1,0.8-0.5,0.7c-0.7-0.1-1.2-0.3-1.2-0.7c0-0.4,0.5-0.5,0.9-0.5
				c0.4,0,0.9-0.7,1.1-0.4C103.7,36.5,103.1,36.8,103.1,37.1z M103.1,42.8c-0.2,0.1-1.4,0.3-1.5-0.2c0,0,1.2-1.1,1.5-1.1
				C103.6,41.6,103.3,42.7,103.1,42.8z M98.3,24.4c0.1-0.3,1.2,0.6,0.8,1C98.9,25.9,98.1,24.9,98.3,24.4z M99.5,31.1
				c-0.3-0.6-0.7-1.2-0.3-1.6c0.2-0.2,1.1,0,1.2,0.2c0.1,0.2,0.7,1.3,0.4,1.6C100.6,31.7,99.8,31.8,99.5,31.1z M99,45.4
				c-0.2-0.3-0.1-0.6-0.1-0.6c0.6-0.3,1.1,0.4,0.9,0.8C99.6,46,99.1,45.8,99,45.4z M100.1,53.9c-0.6,0.8-1.2,0.7-0.7-0.1
				C99.6,53.4,100.8,53.1,100.1,53.9z M100.2,52.2c-0.6,0.8-1.2,0.7-0.7-0.1C99.7,51.7,100.8,51.4,100.2,52.2z M100.3,44
				c-0.3-0.1-0.5-0.4-0.4-0.7c0.1-0.3,0.5-0.3,0.7,0C100.7,43.6,100.6,44.1,100.3,44z M100.6,42.6c0-0.2-0.4-0.8-0.1-1
				c0.2-0.2,1.3,0.4,0.9,0.8C101,42.6,100.5,42.8,100.6,42.6z M101.9,52.6c0,0.6-1,0.7-1.1,0.5c-0.2-0.2-0.3-0.9,0.2-1.3
				c0.4-0.4,1.9-0.6,1.8-0.3C102.7,51.8,101.9,52,101.9,52.6z M103,44.3c-0.2-0.5-0.2,0.5-0.5,0.3c-0.4-0.2-0.4-0.1-0.4-0.4
				c0-0.2,0.3-0.4,0.8-0.4c0.6,0,1.4,0.9,1.2,1.1C104,45,103.2,44.8,103,44.3z M108,53.2c-0.5,0.1-1.3-0.3-0.5-0.5
				c1.2-0.4,0-1.3-0.4-1.4c-0.4-0.1-1.2-0.1-1.5-0.7c-0.3-0.6-1.1,0-1.1,0.3s-0.3,0.8-0.8,0.7c-0.5-0.1-0.6,0.2-0.4-0.3
				c0.1-0.2,0.8-0.1,0.8-0.4c0-0.4,0.2-0.8,0.6-0.8c0.4,0,0.8-0.6,1.4-0.5c0.5,0.1,1.2,1.2,1.5,1.5c0.3,0.3,1.6,1.1,2.1,1.6
				s0.8,0.2,0.8,0.6C110.4,53.6,108.5,53.1,108,53.2z M110.2,50.9c-0.7-0.2-1.2-0.4-1.3-1.1c-0.1-0.7-0.9-1.6-0.7-1.8
				c0.2-0.3,0.4-0.4,0.5-0.5c0.2-0.4,0.6-0.8,1-0.2c0.4,0.6,0.9,0.9,0.9,1.4C110.6,49.1,110.9,51.1,110.2,50.9z M154.2,50.3
				c0.3,0.1,0.1,0.6-0.1,0.7c-0.2,0.2-0.4,0.1-0.4,0.1C153.5,50.7,154,50.2,154.2,50.3z M148,47.2c0.3-0.7,0.6-0.7,0.8-0.3
				c0.1,0.4,0.8,1.5,0.2,1.5c-0.5,0-0.3,0.9-0.8,0.5c-0.5-0.4-0.8-0.4-0.9-0.9C147.1,47.5,147.7,47.9,148,47.2z M145.4,48.1
				c0.2-0.2,0.7-0.3,0.9,0c0.2,0.4,0.4,0.4,0.7,0.4c0.3,0,0.3,0.4,0.1,0.8c-0.2,0.4,0.3,0.6-0.3,0.8c-0.6,0.2-0.4,0.8-0.9,0
				c-0.4-0.8,0-1.1-0.4-1.5C145.1,48.3,145,48.5,145.4,48.1z M143.4,51c0.5,0,1.5-0.1,1.4,0.4c-0.1,0.6-1,0.5-1,0.5
				C143.4,51.7,142.9,51,143.4,51z M148.2,33.6c0.3-0.4,0.5-0.1,0.5-0.1s0,0.2-0.1,0.3C148.4,33.9,148,34,148.2,33.6z M143.5,35.9
				c0,0,0,0.2-0.1,0.3c-0.2,0.2-0.7,0.2-0.4-0.2C143.3,35.5,143.5,35.9,143.5,35.9z M142.8,28.6c0.3-0.4,0.5-0.1,0.5-0.1
				s0,0.2-0.1,0.3C143,28.9,142.5,29,142.8,28.6z M141.3,27.4c0.3-0.2,0.8-0.9,0.6-0.2c-0.2,0.8,1,0.2,0.5,1
				c-0.4,0.8-0.8,0.8-0.8,0.7c0-0.1,0.6-0.8-0.1-0.9C140.8,27.8,140.4,28,141.3,27.4z M140.8,34.6c0.3-0.4,0.5-0.1,0.5-0.1
				s0,0.2-0.1,0.3C141,35,140.6,35,140.8,34.6z M139.5,26.9c0.2-0.3,1.1,0,1,0.3c-0.1,0.3-0.1,1.2-0.6,0.6
				C139.5,27.1,139.1,27.5,139.5,26.9z M136.1,31.9c0.3-0.4,0.5-0.1,0.5-0.1s0,0.2-0.1,0.3C136.3,32.3,135.8,32.3,136.1,31.9z
				 M135.3,27.2c0-0.2,0.6-0.4,0.5,0c0,0.4-0.3,0.5-0.7,0.4C134.8,27.4,135.3,27.4,135.3,27.2z M135.9,31.2
				c-0.2,0.2-1.1,0.2-1.3,0.5c-0.2,0.3-1.2,0.3-1.3,0.1c0-0.2-0.2-0.4-0.1-0.6c0.2-0.2,1.6,0.1,1.9-0.2
				C135.3,30.6,136.1,31,135.9,31.2z M134.3,21.4c0.6-0.2,0.8,0.3,0.9,0.5c0.1,0.2-1.1,1.1-1.3,0.5
				C133.8,22.2,133.7,21.6,134.3,21.4z M134.5,27.8c0.3-0.2,0.8,0,0.2,0.3c-0.6,0.3,0.3,0.6,0.6,0.8c0.3,0.2,0.5,0.6,0.2,0.6
				s-0.7,0.4-1.2,0.5c-0.4,0.1-1.1-0.4-1.3-1.5C132.9,27.5,134.3,28,134.5,27.8z M132.2,23.1c-0.1-0.5,0.5-0.8,0.7-0.5
				c0.2,0.3,0.8,1.1,0.4,1.3c-0.4,0.2-1.3,1.1-1.7,0.7C131.3,24.1,132.3,23.5,132.2,23.1z M132.1,27.3c0.4,0.1,0.2,0.6-0.1,0.8
				c-0.3,0.2-0.6,0.1-0.6,0.1C131.1,27.7,131.7,27.2,132.1,27.3z M128.8,29.5c0.4,0.4-0.6,1.5-1,1C127.8,30.5,128.4,29.1,128.8,29.5
				z M129.1,40c0,0.5-0.4,0.5-0.8,0.3c-0.3-0.2-0.6-0.8-1.4-0.7c-0.8,0.1-2.2,0.4-1-1c0.3-0.4,0.8-0.7,1.2-0.4c0.4,0.3,0.7,1.3,1,1
				C128.5,38.9,129.1,39.5,129.1,40z M128.9,31.8c0.3-0.6,0.6-0.1,0.6-0.1s0,0.3-0.1,0.4C129.2,32.4,128.6,32.4,128.9,31.8z
				 M126.8,31.3c0.3-0.2,1.7-0.4,1.6,0.1c-0.1,0.4-1,1.2-1.3,1C126.7,32.3,126.5,31.5,126.8,31.3z M126.5,33.5
				c0.4-0.2,0.6,1.2,0.2,1.2c-0.4,0-1.5,0.5-1.7,0.7c-0.1,0.2-0.7,0.2-0.7,0c0-1.1,0.6-0.5,0.9-0.5
				C125.6,34.9,126.1,33.7,126.5,33.5z M125.2,38.7c-0.1,0.3-0.1,0.8-0.7,0.7c-0.6,0-1.7,0.4-0.6-0.8
				C124.2,38.3,125.3,38.3,125.2,38.7z M123.5,26.4c0.3-0.1,0-1.6,0.3-1.5c0.3,0.1,0.9,0.7,1.5,0.8c0.6,0.1,0.8,0.4,0.3,0.7
				c-0.5,0.4-0.7,0.4-0.7,0.8c0,0.4-0.6,0.5-0.7,0.2c-0.1-0.4-0.4-0.7-0.6-0.3C123.2,27.5,122.6,26.6,123.5,26.4z M122.7,35.1
				c0.3,0,1.7,0.1,1.5,0.8c-0.2,0.8-0.6,0.9-0.9,0.9c-0.4,0-0.5-0.8-0.8-1C122.1,35.7,122,35,122.7,35.1z M122.5,37.6
				c-0.2,0.4-0.6,1.1-0.8,1.1c-0.3,0-0.4-0.5-0.8-0.7c-0.4-0.2-0.6,0-0.5-0.6c0-0.2,0.3-0.5,1-0.4C122.1,37.1,122.7,37.1,122.5,37.6
				z M121,26.5c0.4-0.5,0.1-0.9,0.8-0.8c0.6,0.1,0.4,1.1,0.4,1.5c0,0.4-0.7,0.3-0.9,0.6c-0.2,0.3-0.6,0.3-0.7-0.1
				C120.6,27.4,120.7,27,121,26.5z M120.3,35.1c0.7,0.5,0.8-0.4,1.2,0c0.3,0.4,0.1,0.9-0.3,1.1c-0.4,0.2-0.8-0.1-1.3-0.1
				c-0.5,0-0.5-0.1-0.4-0.4C119.5,35.4,119.6,34.6,120.3,35.1z M119.5,27.5c-0.3,0.5-0.5,0.6-0.6,0.7c0.1,0,0.2,0.1,0.3,0.6
				c0.1,0.8-0.2,1.3-0.3,1.2c-0.1-0.1-0.8-0.5-0.8-1.3c0-0.7,0.8-1.2,0.1-1.3c-0.7-0.1-0.8,0.3-0.8-0.4c-0.1-0.4,0-0.6,0.9-0.5
				C119.3,26.6,120.1,26.6,119.5,27.5z M115,20.6c0.6,0.1,1.7,0.4,1.6,1c-0.1,0.6-0.6,0.8-0.8,0.4c-0.2-0.4,0-0.8-0.8-0.8
				S114,21.3,114,21C114,20.7,114.4,20.4,115,20.6z M113.4,22.3c0.5-0.5,0.4,0.4,1.2,0.4c0.8,0,2.1,0,2.1,0.5
				c-0.1,1.2,1.8,0.9,1.7,1.5c-0.1,1-1.2,1.2-1.3,1.4c-0.1,0.3-1,0.1-0.9,1c0.1,0.9-0.7-0.2-0.8-0.5c-0.3-0.8,0.8-1.2,0.6-1.6
				c-0.2-0.4-0.9,0.7-1.3,0.3c-0.4-0.4-0.9-0.1-0.5-1c0.4-0.9,0.1-0.8-0.3-0.9C113.2,23.3,113.2,22.5,113.4,22.3z M112.5,39.7
				c0.1-0.9,0.4-0.2,0.8,0c0.5,0.2,1.5,0.5,0.1,0.8C113,40.6,112.4,40.6,112.5,39.7z M116,45.3c0.1,0.6,0,0.9-0.4,0.8
				c-0.4-0.1-0.5,0.5-1.3,0.6c-0.8,0.1-1.4-1.1-1.4-1.5c0.3-0.4,1.4-0.5,1.9-0.8C115.2,44.1,115.9,44.6,116,45.3z M114.8,39.5
				c0.1-0.8,1.8-0.7,2.1-0.3c0.2,0.4,0.2,0.8-0.2,0.6c-0.4-0.1-0.6,0.1-0.9,0.2C115.5,40.1,114.8,39.9,114.8,39.5z M112.2,47
				c0.3-0.4,1,0,1,0c0.2,0.3,0.3,1-0.1,0.9C112.7,47.7,111.8,47.4,112.2,47z M111.4,46.9c-0.5-0.2-0.8-0.9,0.1-0.8
				c0.9,0.1,0.4,0.7,0.4,0.7S111.6,47,111.4,46.9z M115.7,52.9c-0.4,0-1-0.7-1.4-0.7c-0.4,0-0.7,0.8-1.4,0.6c-0.7-0.2-1.1-0.7-1-1.2
				c0-0.5-0.4-0.8,0-1.2c0.4-0.3,1.1,0.9,1.6,0.5c0.5-0.4,0.9-0.4,1.4-0.4c0.5,0,2.2,0.3,2.1,1C117,52.4,116.1,52.8,115.7,52.9z
				 M117.4,33.7c0,0.6-0.2,1-0.5,1s-1.2,0.4-1.5,0.4c-0.4,0,0,0.2-0.7-0.3c-0.7-0.5-0.3-0.2,0.1-0.8c0.4-0.7,0.7-0.2,1.7-0.7
				C117.6,32.9,117.4,33.1,117.4,33.7z M116.7,29.4c-0.5,0.1-0.6-0.8,0-0.8c0.6,0,0.9,1,0.9,1.2C117.5,30.1,117.2,29.3,116.7,29.4z
				 M117.8,35.2c-0.4-0.1-0.2-0.5-0.1-0.8c0.2-0.3,0.5-0.1,0.5-0.1c0,0.1,0.5,0.6,0.4,0.8C118.4,35.3,118.1,35.4,117.8,35.2z
				 M118.2,45.2c-0.2-0.6,0.5-1.3,0.6-1.5c0.1-0.2,0.7-1,1.3-0.6c0.5,0.4-0.3,0.8-0.3,1.2c0,0.4,0.5-0.1,0.8,1.1
				c0.3,1.3-0.9,0.5-1.2,0.9C118.7,47.1,118.5,45.8,118.2,45.2z M122.8,51.9c-0.6,0.4-1.3,0.8-1.7,0.4c-0.4-0.4-0.8-0.7-1.2-0.9
				c-0.4-0.2-0.3-1.4-0.1-1.6c0.2-0.2,0.7-0.2,1.1-0.2c0.4,0,1.6,0.1,2,0.9C123.3,51.4,123.5,51.5,122.8,51.9z M122.6,46.5
				c-0.1-0.5-0.3-0.9,0-1.3c0.1-0.2,0.8-0.3,0.9-0.1c0.1,0.2,0.8,0.3,0.8,0.7c0,0.4-0.8,0.4-0.9,0.6
				C123.3,46.6,122.7,47.1,122.6,46.5z M123.6,47.7c0.4-0.4,0-1.1,0.9-0.5c0.8,0.6,0.6,1.3,0.2,1.3C124.4,48.6,123,48.4,123.6,47.7z
				 M127.1,54.7c-0.8,1.3-1.7,0.7-1.8,0.5c-0.2-0.2-0.8-1.4-0.1-1.9c0.4-0.3,0.5-1.2,1.2-0.6C127.1,53.3,127.9,53.4,127.1,54.7z
				 M128.9,52.6c-0.4,0-1.2-1-0.9-1.1c0.4,0,0.8-0.3,1.2,0C129.4,51.9,129.4,52.6,128.9,52.6z M128.9,49.2c-0.7-0.2-1.9,0.2-1.2-0.6
				c0.5-0.6,0.7-1.6,1.3-0.8C129.3,48.1,130.1,49.5,128.9,49.2z M130.7,30.5c-0.6,0.4-0.9,0.4-1.2,0.3c-0.3,0-0.4,0.7-0.7,0
				c-0.1-0.3,1.2-0.8,1.6-0.8c0.4,0,0.8-0.8,1.1-0.4c0.3,0.4,0.3,1.3-0.2,1.7C130.5,32,131.1,30.2,130.7,30.5z M133.3,53.6
				c0,0.4,0,0.8-0.3,0.5c-0.3-0.2-0.2-1.4,0.2-1.2S133.4,53.2,133.3,53.6z M133.2,50.5c-0.4-0.2-0.9-0.1-1.1,0.2
				c-0.1,0.4-0.7,0.8-1.1,0.3c-0.4-0.5-0.2-1.6,0.6-1.1c0.4,0.3,1.9-0.8,2.1-0.5C133.8,49.7,133.5,50.8,133.2,50.5z M134.5,54.5
				c0,0-0.2,0.2-0.4,0.1c-0.4-0.2-0.6-0.9,0.1-0.8C134.9,54,134.5,54.5,134.5,54.5z M134,49.2c-0.2,0-1.1-0.6-1.7-0.6
				s-1.1,0.4-1.2-0.2c-0.1-0.3,0.6-0.7,0.9-0.8s0.9-0.5,1.1-0.8c0.1-0.4,0.6-0.5,0.7,0.2c0.1,0.7,1.8,1.3,1.6,1.7
				C135.3,49.1,134.3,49.2,134,49.2z M135.5,54.9c-0.3,0.2-1.1,0.2-0.7-0.4c0.4-0.6,0.7,0,0.7,0S135.7,54.7,135.5,54.9z M135.2,50.4
				c-0.7-0.5,0-0.6,0-0.6s0.4,0,0.5,0.2C136,50.3,135.8,50.9,135.2,50.4z M136.3,35.3c-0.3,0.2-0.3-0.3-1.3,0.2
				c-0.9,0.5-1-0.2-0.8-0.5c0.3-0.6,0.6-0.8,1.1-0.8s1.6-0.4,1.7,0.4c0.2,0.8,1.1,2,0.7,2.1C136.7,37.1,136.6,35.1,136.3,35.3z
				 M138.1,44.6c-0.2,0.2-0.3-0.6-0.8-0.5c-0.5,0-1.1-0.2-0.8-0.8c0,0,0.9-0.3,1.3,0.2C138.1,44,138.3,44.4,138.1,44.6z M138.2,35.5
				c-0.3,0-0.6-0.2-0.6-0.5c0-0.3,0.3-0.5,0.6-0.5c0.3,0,0.6,0.2,0.6,0.5C138.7,35.3,138.5,35.5,138.2,35.5z M138.9,36.3
				c-0.5-0.2,0-1.1,0.2-1.7c0.2-0.4,0.3-1.2,0.7-0.6c0.4,0.6,0.2,1.2,0,1.6C139.5,35.9,139.9,36.7,138.9,36.3z M140.1,43.3
				c-0.6,0.6-0.4,0.9-0.2,1.3c0.2,0.4-1.3-0.8-0.6-1.8C139.5,42.5,140.7,42.6,140.1,43.3z M141.2,41.9c-0.5,0.2-0.7,0.4-0.8,0.2
				c0,0,0.7-1,1-0.9C141.6,41.3,141.7,41.7,141.2,41.9z M143.7,38.2c-0.8-0.3-0.4,1.3-1.4,0.7c-1-0.6-1.1-0.8-1.1-1.4
				c0-0.5-1.6-0.6-0.1-1.3c0.4-0.2,1.3-0.3,1.3,0.2c0,0.4-1.3,0.8,0.1,0.8c1.3,0.1-0.8,0.6,1.9,0.4
				C144.7,37.6,144.5,38.5,143.7,38.2z M150.8,37.4c-0.3,0.3-1.3,0.7-1.5,0.2c-0.2-0.5-0.7,0.8-1.2,0.5c-0.5-0.3-1.8-0.8-1.9-0.3
				c-0.1,0.5-0.6,0.9-0.8,0.7c-0.2-0.3-1.1-1.3-0.8-1.5c0.4-0.3,0.5-1-0.2-0.8c-0.7,0.2-0.5-1.2,0-1.5c0.3-0.2,0.5-0.4,0.8,0.1
				s0.8-0.1,0.8-0.4s0.3-0.8,0.6-0.8c0.3,0,1.3,0.4,1.6,0.9c0.4,0.6,0.5,1.6,1.1,1.7C149.8,36.3,151.1,37.1,150.8,37.4z"/>
		</g>
	</g>
	<g>
		<path class="st0" d="M16.6,15.2v5.2h13v9.9h-13v5.9h14.8v10.5h-28v-42h28v10.5H16.6z"/>
		<path class="st0" d="M36.8,20.9c1.4-2.6,3.5-4.6,6-6c2.6-1.4,5.5-2.1,8.9-2.1c4.3,0,8,1.2,11,3.7c3,2.5,4.9,5.8,5.7,10.2H54.4
			c-0.5-1.7-1.5-2.6-3-2.6c-1.1,0-1.9,0.5-2.5,1.5C48.3,26.6,48,28,48,30c0,1.9,0.3,3.4,0.9,4.4c0.6,1,1.5,1.5,2.5,1.5
			c1.5,0,2.5-0.9,3-2.6h13.9c-0.8,4.3-2.7,7.7-5.7,10.2c-3,2.5-6.6,3.7-11,3.7c-3.3,0-6.3-0.7-8.9-2.1c-2.6-1.4-4.6-3.4-6-6
			c-1.4-2.6-2.2-5.6-2.2-9.1C34.6,26.5,35.4,23.5,36.8,20.9z"/>
		<path class="st0" d="M79.3,45c-2.7-1.4-4.8-3.4-6.3-6c-1.5-2.6-2.3-5.6-2.3-9.1c0-3.5,0.8-6.5,2.3-9.1c1.5-2.6,3.6-4.6,6.3-6
			c2.7-1.4,5.7-2.1,9.1-2.1c3.4,0,6.4,0.7,9.1,2.1c2.7,1.4,4.8,3.4,6.3,6c1.5,2.6,2.3,5.6,2.3,9.1c0,3.5-0.8,6.5-2.3,9.1
			c-1.5,2.6-3.6,4.6-6.3,6c-2.7,1.4-5.7,2.1-9.1,2.1C85,47.1,82,46.4,79.3,45z M91.5,34.3c0.8-1,1.2-2.4,1.2-4.3
			c0-1.9-0.4-3.3-1.2-4.3c-0.8-1-1.9-1.5-3.1-1.5c-1.2,0-2.3,0.5-3.1,1.5c-0.8,1-1.2,2.4-1.2,4.3c0,1.9,0.4,3.3,1.2,4.3
			c0.8,1,1.8,1.5,3.1,1.5C89.6,35.7,90.7,35.2,91.5,34.3z"/>
		<path class="st0" d="M4.8,71.9c1.7-3.2,4.1-5.8,7.2-7.6c3.1-1.8,6.8-2.7,11-2.7c3.6,0,6.9,0.7,9.7,2c2.9,1.4,5.2,3.3,7,5.8
			c1.8,2.5,3,5.4,3.6,8.7H29.5c-0.6-1.4-1.5-2.5-2.7-3.2c-1.2-0.8-2.5-1.2-4-1.2c-2.2,0-4,0.8-5.2,2.5c-1.3,1.7-1.9,3.9-1.9,6.7
			c0,2.8,0.6,5,1.9,6.7c1.3,1.7,3,2.5,5.2,2.5c1.5,0,2.8-0.4,4-1.2c1.2-0.8,2.1-1.8,2.7-3.2h13.9c-0.6,3.3-1.8,6.2-3.6,8.7
			c-1.8,2.5-4.1,4.4-7,5.8c-2.9,1.4-6.1,2-9.7,2c-4.2,0-7.9-0.9-11-2.7c-3.1-1.8-5.5-4.3-7.2-7.6C3.1,90.8,2.3,87.1,2.3,83
			S3.1,75.1,4.8,71.9z"/>
		<path class="st0" d="M49.2,66.1c-1.4-1.2-2.1-2.8-2.1-4.6c0-1.9,0.7-3.5,2.1-4.7c1.4-1.2,3.2-1.9,5.5-1.9c2.3,0,4.1,0.6,5.5,1.9
			c1.4,1.2,2.1,2.8,2.1,4.7c0,1.9-0.7,3.4-2.1,4.6c-1.4,1.2-3.2,1.8-5.5,1.8C52.4,67.9,50.6,67.3,49.2,66.1z M61.3,70.6V104H48.1
			V70.6H61.3z"/>
		<path class="st0" d="M67.2,78.2c1.2-2.6,2.9-4.6,4.9-5.9c2.1-1.4,4.4-2,7.1-2c2.2,0,4,0.4,5.6,1.3c1.6,0.9,2.8,2.1,3.6,3.6v-15
			h13.2V104H88.4v-4.6c-0.8,1.5-2,2.8-3.6,3.6c-1.6,0.9-3.4,1.3-5.6,1.3c-2.6,0-5-0.7-7.1-2c-2.1-1.4-3.7-3.3-4.9-5.9
			c-1.2-2.6-1.8-5.6-1.8-9.2C65.4,83.8,66,80.7,67.2,78.2z M87.1,83.2c-0.9-1-2.1-1.5-3.5-1.5c-1.4,0-2.6,0.5-3.5,1.5
			c-0.9,1-1.4,2.4-1.4,4.1c0,1.8,0.5,3.2,1.4,4.1c0.9,1,2.1,1.5,3.5,1.5c1.4,0,2.6-0.5,3.5-1.5c0.9-1,1.4-2.4,1.4-4.1
			C88.5,85.5,88,84.2,87.1,83.2z"/>
		<path class="st0" d="M139.7,89.6h-21.2c0.2,2.9,1.4,4.3,3.6,4.3c1.4,0,2.4-0.7,3.1-2h13.9c-0.5,2.4-1.5,4.5-3,6.4
			c-1.5,1.9-3.4,3.4-5.7,4.4c-2.3,1.1-4.9,1.6-7.6,1.6c-3.3,0-6.3-0.7-8.9-2.1c-2.6-1.4-4.6-3.4-6-6c-1.4-2.6-2.2-5.6-2.2-9.1
			c0-3.5,0.7-6.5,2.2-9.1c1.4-2.6,3.5-4.6,6-6c2.6-1.4,5.5-2.1,8.9-2.1c3.3,0,6.3,0.7,8.9,2c2.6,1.4,4.6,3.3,6,5.8
			c1.4,2.5,2.2,5.5,2.2,8.9C139.8,87.9,139.8,88.8,139.7,89.6z M126.5,83.9c0-1.1-0.4-1.9-1.1-2.5c-0.7-0.6-1.6-0.9-2.7-0.9
			c-2.3,0-3.7,1.1-4.1,3.4H126.5z"/>
	</g>
</g>
</svg>
