<svg id="Слой_1" data-name="Слой 1" xmlns="http://www.w3.org/2000/svg" viewBox="0 0 50 50"><defs><style>.cls-1{fill:#fec844;}.cls-2{fill:#252525;}.cls-3{fill:#fa7afd;}.cls-4{fill:#fefdfd;}</style></defs><path class="cls-1" d="M43.82,37.42a3.83,3.83,0,0,1-.54-3.92h0a4.45,4.45,0,0,0,.66-1.9h0a.23.23,0,0,0,0-.14.36.36,0,0,0,.1-.38,6.51,6.51,0,0,0,.58-2.24s.05-.06,0-.1c-1.89-.06-2-.27-2.29-2.19a32.4,32.4,0,0,1,0-6.15,3.26,3.26,0,0,1,.52-2.28,7.88,7.88,0,0,0-1-1.94h0a21.62,21.62,0,0,0-3.52-4.27A21.38,21.38,0,0,0,33.7,8.49a10,10,0,0,0-4.28-1.44,3.6,3.6,0,0,0,.66.3,3.6,3.6,0,0,1-.66-.3l-.15,0h0c-.11-.24-.35-.25-.57-.3a22,22,0,0,0-6.87-.13,1.24,1.24,0,0,0-1,.43l0,0a.48.48,0,0,1-.28.2.48.48,0,0,0,.28-.2c-.29,0-.59,0-.83.21-.27,0-.55-.08-.78.13h0a5.21,5.21,0,0,0-2,.73,3.27,3.27,0,0,0-1.48.61,2,2,0,0,1-.06.39,2,2,0,0,0,.06-.39c-.61.33-1.33.48-1.76,1.1l-1,.7h0c-.12,0-.22,0-.2.19l0,0h0a4.43,4.43,0,0,0-2.06,1.74c-.24,0-.33.14-.35.35-.25.07-.44.2-.36.51-.37,0-.44.26-.51.53h0a.17.17,0,0,0-.18.18h0A2,2,0,0,0,8.47,15c-.45.7-.59,1.61-1.4,2.06h0a.38.38,0,0,1-.21.55c-.06.1-.29.19,0,.31a1.82,1.82,0,0,1,1,1.92c0,1.8.09,3.6,0,5.39,0,.93.25,2-.33,2.77a1.33,1.33,0,0,0,0,1.7,4.83,4.83,0,0,0,1.06,1.95h0A2.59,2.59,0,0,0,10,33.19h0a.72.72,0,0,0,.54.35,6.83,6.83,0,0,0,3.74,1.27,1.76,1.76,0,0,0,.65-.14l3.56,1.59a1.56,1.56,0,0,1,.92.73,1.56,1.56,0,0,0-.92-.73A2.75,2.75,0,0,1,15.33,36a1.38,1.38,0,0,0-.72-.22A12.8,12.8,0,0,1,11,34.85a5.79,5.79,0,0,1-2.37-1.66,12.46,12.46,0,0,1-1.91-4.11,1.58,1.58,0,0,0-.62-1,1.41,1.41,0,0,0-.91-.16c0,.83.05,1.73.15,2.69.07.67.16,1.31.27,1.91a6.35,6.35,0,0,0-1.25,1.18h0c-.37.09-.51.39-.65.7a.17.17,0,0,0,0,.12l-.17.23v0l-.19.17a6.54,6.54,0,0,0-1.56,3,.47.47,0,0,1,.14.08.47.47,0,0,0-.14-.08,3.06,3.06,0,0,0-.48,1.3h0a2,2,0,0,0,.92,2,2.12,2.12,0,0,0,2.61-1c.79-.44,1.58-.89,2.39-1.29,1.3-.62,1.6-.55,2.58.46a.41.41,0,0,0,.15.07l.87.7-.17.15a9.7,9.7,0,0,0,4.12,3.18,4.42,4.42,0,0,0,2.1,1.19,2.42,2.42,0,0,0,1.42.5,4.3,4.3,0,0,0,1.65.69c3.69,1.19,7.32.55,11-.32a15.35,15.35,0,0,0,7.42-4.31c.33-.34.55-.4,1-.09a21.28,21.28,0,0,1,3.07,2.7h0c.71,1.16,1.57,1.89,2.06,1.7s.66-.75,1-1.88c0-.19.11-.36.16-.54l.05,0A9.32,9.32,0,0,0,43.82,37.42ZM8.67,14.93a1.2,1.2,0,0,0,.39-.2A1.2,1.2,0,0,1,8.67,14.93Zm.66-1,.18-.18h0Zm.69-.71a.33.33,0,0,0,.28-.08A.33.33,0,0,1,10,13.23Zm5.9,16.29Zm2.59-12.28ZM1.62,38.86a.27.27,0,0,1,0-.14A.27.27,0,0,0,1.62,38.86Zm18-27.19a.18.18,0,0,0-.2-.12A.18.18,0,0,1,19.65,11.67Zm-.21,24.47L19.5,36h0Zm1.4-4c-.86,0-1.28-.4-1.31-1.31a1.13,1.13,0,0,1,1.18-1.05A1.25,1.25,0,0,1,22,31,1.22,1.22,0,0,1,20.84,32.19ZM24,46a5,5,0,0,0,.77-.08A5,5,0,0,1,24,46Zm1.61-.34-.27.1.27-.1Zm0,0c.1,0,.2-.11.3-.12C25.81,45.5,25.71,45.59,25.61,45.61Zm2.41-12a3.21,3.21,0,0,1-2.92,2.92,3.77,3.77,0,0,1-3-1.79,2.68,2.68,0,0,1-.24-1.42.91.91,0,0,1,1-.87H25v0c.67,0,1.33,0,2,0C27.88,32.47,28.1,32.74,28,33.61Zm1.6-1.39a1.32,1.32,0,0,1-1.45-1.15,1.26,1.26,0,0,1,1.16-1.23,1.07,1.07,0,0,1,1.26,1.08C30.61,31.58,30.13,32.23,29.62,32.22Zm2.05,9.58Zm7.15-24.34.06-.15h0Z"/><path class="cls-1" d="M44.87,23c-.33,9.48-8.9,19-20,19-10.9,0-19.79-9.28-20-19A19.23,19.23,0,0,1,13.52,7.2,20,20,0,0,1,24.9,4,19.92,19.92,0,0,1,38.44,8.54C38.87,8.92,45.17,14.58,44.87,23Z"/><path class="cls-2" d="M47.92,20.9c-.3-1.29-.76-2.43-2.34-2.59a.63.63,0,0,1-.59-.62,14,14,0,0,0-1.18-3.75A16.86,16.86,0,0,0,33.38,4.38a19,19,0,0,0-4.81-.66c-1.19-.09-2.39,0-3.58-.08a19.9,19.9,0,0,0-8.73,1.11A16.14,16.14,0,0,0,9.16,10a18.32,18.32,0,0,0-3.35,7.18,1.14,1.14,0,0,1-1,1c-1.91.43-2.7.65-2.57,2.54,0,.05-.06.1-.08.15,0,1.67.05,3.33.08,5,0,.28,0,.56,0,.84,0,.91.16,1.27.73,1.5H7.38A1.35,1.35,0,0,1,7.52,28c.58-.81.3-1.84.33-2.77.06-1.79,0-3.59,0-5.39a1.82,1.82,0,0,0-1-1.92c-.25-.12,0-.21,0-.31s-.07-.45.21-.55h0a3.41,3.41,0,0,1,.06-.85,16.4,16.4,0,0,1,5.24-7.86,18.09,18.09,0,0,1,5.6-3,17,17,0,0,1,4.44-.46,51.66,51.66,0,0,1,7.36,0,15,15,0,0,1,4.94,1.31,16.27,16.27,0,0,1,6.69,5.65,15.32,15.32,0,0,1,2.15,5.58c.12.54-.24.62-.62.71a3.26,3.26,0,0,0-.52,2.28,32.4,32.4,0,0,0,0,6.15c.28,1.92.4,2.13,2.29,2.19.65-.09,1.29-.22,1.94-.28a.94.94,0,0,0,1-.78A7.07,7.07,0,0,0,48,26C47.94,24.33,47.93,22.61,47.92,20.9ZM4.16,26.29c0,.21-.09.31-.31.3s-.21-.23-.21-.38c0-1,0-2,0-2.93h0c0-1,0-1.9,0-2.85,0-.22,0-.53.26-.57s.3.3.31.51A33.45,33.45,0,0,1,4.16,26.29Zm42.12.55c-.46,0-.43-.54-.43-.89,0-1.6,0-3.2,0-4.8a2.07,2.07,0,0,1,0-.43c.05-.3-.26-.82.24-.84s.36.56.38.85c0,.95,0,1.89,0,2.84h0c0,.8,0,1.61,0,2.41C46.58,26.32,46.69,26.83,46.28,26.84Z"/><path class="cls-3" d="M48,26c0-1.71,0-3.43,0-5.14a1.18,1.18,0,0,1,1.26,1.28c0,.71.14,1.43.13,2.14C49.29,25.55,49.16,25.71,48,26Z"/><path class="cls-3" d="M2.11,20.87c0,1.67.05,3.33.08,5C1.36,26,1,25.6.81,24.75a10.24,10.24,0,0,1-.08-2.47A1.31,1.31,0,0,1,2.11,20.87Z"/><path class="cls-2" d="M25,32.44c.67,0,1.33,0,2,0,.9,0,1.12.3,1,1.17a3.21,3.21,0,0,1-2.92,2.92,3.77,3.77,0,0,1-3-1.79,2.68,2.68,0,0,1-.24-1.42.91.91,0,0,1,1-.87H25Zm.11,3.42a2.24,2.24,0,0,0,1.8-1c.14-.2.39-.42.21-.68a.73.73,0,0,0-.81-.36,2.79,2.79,0,0,0-1.74,1c-.15.22-.45.44-.31.75S24.79,35.82,25.1,35.86Z"/><path class="cls-2" d="M30.59,30.92c0,.66-.46,1.31-1,1.3a1.32,1.32,0,0,1-1.45-1.15,1.26,1.26,0,0,1,1.16-1.23A1.07,1.07,0,0,1,30.59,30.92Z"/><path class="cls-2" d="M22,31a1.22,1.22,0,0,1-1.12,1.19c-.86,0-1.28-.4-1.31-1.31a1.13,1.13,0,0,1,1.18-1.05A1.25,1.25,0,0,1,22,31Z"/><path class="cls-3" d="M46.58,23.57c0,.8,0,1.61,0,2.41,0,.34.11.85-.3.86s-.43-.54-.43-.89c0-1.6,0-3.2,0-4.8a2.07,2.07,0,0,1,0-.43c.05-.3-.26-.82.24-.84s.36.56.38.85c0,.95,0,1.89,0,2.84Z"/><path class="cls-3" d="M3.64,23.28c0-1,0-1.9,0-2.85,0-.22,0-.53.26-.57s.3.3.31.51a33.45,33.45,0,0,1,0,5.92c0,.21-.09.31-.31.3s-.21-.23-.21-.38c0-1,0-2,0-2.93Z"/><path class="cls-4" d="M7.08,17.05a.38.38,0,0,1-.21.55C6.87,17.39,6.8,17.15,7.08,17.05Z"/><path class="cls-3" d="M25.1,35.86c-.31,0-.68,0-.85-.3s.16-.53.31-.75a2.79,2.79,0,0,1,1.74-1,.73.73,0,0,1,.81.36c.18.26-.07.48-.21.68A2.24,2.24,0,0,1,25.1,35.86Z"/></svg>