<svg id="Слой_1" data-name="Слой 1" xmlns="http://www.w3.org/2000/svg" viewBox="0 0 189.89 100"><defs><style>.cls-1{fill:#00e6cd;}.cls-2{fill:#fec844;}.cls-3{fill:#252525;}.cls-4{fill:#fa7afd;}.cls-5{fill:#fefdfd;}</style></defs><path class="cls-1" d="M29.75,24A25.06,25.06,0,0,0,23.24,21a20.83,20.83,0,0,0-5.75-.9,13.71,13.71,0,0,0-2.95.3,13,13,0,0,0-2.47.77,8,8,0,0,0-1.88,1.11A5.47,5.47,0,0,0,9,23.54a4.77,4.77,0,0,0-.84,2.51,9,9,0,0,0,.34,1.84c.22.86,1.14,1.81,2.76,2.84a21.18,21.18,0,0,0,6.82,2.59,50.78,50.78,0,0,0,11.08,1h.54V50.68H17a15.31,15.31,0,0,1-5.54-1.32,14.51,14.51,0,0,1-4.92-3.55,18.08,18.08,0,0,1-3.53-6,24.49,24.49,0,0,1-1.36-8.64,27.77,27.77,0,0,1,.5-5.14,28.44,28.44,0,0,1,1.49-5.13,24.28,24.28,0,0,1,2.44-4.66,18.59,18.59,0,0,1,3.41-3.81,15.61,15.61,0,0,1,4.35-2.57,14.24,14.24,0,0,1,5.25-.94H29.75Z"/><path class="cls-1" d="M31.84,8.9H48.15v8c0,.3.1.85.23,1.63a10.49,10.49,0,0,0,.71,2.4,6.35,6.35,0,0,0,1.53,2.18,3.71,3.71,0,0,0,2.63.94,5.41,5.41,0,0,0,3.43-.94,5.68,5.68,0,0,0,1.7-2.16A7.08,7.08,0,0,0,59,18.56c0-.78.06-1.34.06-1.67v-8h8.41v7.19a13.33,13.33,0,0,1-1.52,6.28,13.62,13.62,0,0,1-4.29,4.81q-1.35.87-2.34,1.56c-.67.46-1.29.88-1.84,1.24v20.7H41.21V29.52c-.48-.31-1-.64-1.53-1l-1.86-1.25a12.83,12.83,0,0,1-4.44-4.85,13.58,13.58,0,0,1-1.54-6.36Z"/><path class="cls-1" d="M69.61,8.9H77.8a8.72,8.72,0,0,1,4.08.83,7.83,7.83,0,0,1,2.7,2.41,18.45,18.45,0,0,1,2,3.8q.91,2.25,2.18,5a11.9,11.9,0,0,0,2.78,4.33,3.46,3.46,0,0,0,2.53,1.11,1.88,1.88,0,0,0,1.48-1,4.19,4.19,0,0,0,.57-2.28c0-.08,0-.36,0-.82s0-1,0-1.71,0-1.45,0-2.3,0-1.71,0-2.57c0-1,0-2.12,0-3.25V8.9l39.36,0V17l-31,0V50.68h-6a5.18,5.18,0,0,1-3.15-1.06,11.9,11.9,0,0,1-2.66-2.83,26.73,26.73,0,0,1-2.24-4q-1-2.23-1.92-4.56t-1.72-4.5c-.54-1.45-1.07-2.73-1.59-3.85a13,13,0,0,0-1.54-2.63,1.68,1.68,0,0,0-1.61-.8.74.74,0,0,0-.57.69,5.41,5.41,0,0,0,0,1.51,15.37,15.37,0,0,0,.38,2c.18.71.37,1.4.58,2.07s.41,1.28.61,1.84.35,1,.46,1.25c.39,1.12.7,2,.94,2.76a18.63,18.63,0,0,1,.54,2,9,9,0,0,1,.23,1.65c0,.53,0,1.16.07,1.88s0,1.61,0,2.66,0,2.38,0,4H69.61ZM107,50.68V19.56h28.4v5.9l-1.88,0-2.59,0c-.92,0-1.86,0-2.81.1a15.74,15.74,0,0,0-2.53.38,5.81,5.81,0,0,0-1.8.73,1.21,1.21,0,0,0-.6,1.21,3.63,3.63,0,0,0,.25,1.07,2.26,2.26,0,0,0,.69.92,3.87,3.87,0,0,0,1.32.67,7.51,7.51,0,0,0,2.13.31h2.72v3.94h-.44a2.12,2.12,0,0,1-.44,0c-.28,0-.59,0-.94,0s-.71,0-1.07,0a6.78,6.78,0,0,0-2.67.29,3,3,0,0,0-1.36.9,1.58,1.58,0,0,0-.36,1.11,1.23,1.23,0,0,0,.38.88,2.61,2.61,0,0,0,1.84.67H135.4V50.68Z"/><path class="cls-1" d="M137.49,50.68V8.9h32.63v8l-2.18-.09c-.89,0-1.85,0-2.88,0-1.29,0-2.6,0-3.94.13a26.25,26.25,0,0,0-3.63.45,8.05,8.05,0,0,0-2.64,1,1.82,1.82,0,0,0-1,1.54v.17a4.44,4.44,0,0,0,.33,1.43,3.32,3.32,0,0,0,.94,1.23,5,5,0,0,0,1.78.87,11,11,0,0,0,2.85.37h3.55v5.32h-.56a4.55,4.55,0,0,1-.61-.05c-.36,0-.78,0-1.25,0s-.95,0-1.43-.06a1.84,1.84,0,0,0-.39,0h-.4A6.32,6.32,0,0,0,155,30a2.58,2.58,0,0,0-1.23,2.05V50.68Z"/><path class="cls-1" d="M188.19,8.81v7.76c0,.27,0,.51,0,.73a11.32,11.32,0,0,1-.34,2c-.17.63-.39,1.31-.67,2.05s-.62,1.6-1,2.57-.88,2.18-1.4,3.6a5.38,5.38,0,0,0-.38,2,4,4,0,0,0,.17,1.25,17.89,17.89,0,0,0,1,2.95l1.17,2.7a25.65,25.65,0,0,1,1,2.74,12.15,12.15,0,0,1,.53,3.07c.05,1,.06,2.07,0,3.37s0,3,0,5.12h-16v-9a11.47,11.47,0,0,1,.57-2.82c.29-.88.62-1.75,1-2.6s.73-1.71,1.11-2.59a19.43,19.43,0,0,0,.94-2.82A4.37,4.37,0,0,0,176,29.6a5.54,5.54,0,0,0-.38-2c-.5-1.34-1-2.49-1.36-3.43s-.75-1.8-1.05-2.54a21,21,0,0,1-.69-2,10.34,10.34,0,0,1-.33-1.86v-9Z"/><path class="cls-1" d="M2.46,53.06H23.69a12.79,12.79,0,0,1,5.68,1.17,11.21,11.21,0,0,1,3.92,3.11,12.07,12.07,0,0,1,2.1,4.19,16.89,16.89,0,0,1,.6,4.33c0,.3,0,1-.09,1.94a14.55,14.55,0,0,1-1,3.92,14.78,14.78,0,0,1-2.52,4.42,12.28,12.28,0,0,1-4,3.11,11.73,11.73,0,0,1-5.32,1.17A14.82,14.82,0,0,1,20.4,80a.79.79,0,0,0-.29-.11.68.68,0,0,1-.25-.07v18.3H2.46ZM21.12,64.55a2.49,2.49,0,0,0-.05.46v.45a6.83,6.83,0,0,0,.68,3.24,4.52,4.52,0,0,0,.92,1.13,2,2,0,0,0,1.33.49,2.18,2.18,0,0,0,1.36-.45,4.08,4.08,0,0,0,1.53-2.14,10.9,10.9,0,0,0,.54-2.63,2.22,2.22,0,0,0,0-.43v-.43A6.6,6.6,0,0,0,26.75,61a4.22,4.22,0,0,0-.92-1.17,2,2,0,0,0-1.33-.5,2.61,2.61,0,0,0-1.35.41,4.2,4.2,0,0,0-1.51,2.18A11.52,11.52,0,0,0,21.12,64.55Z"/><path class="cls-1" d="M55.69,53.15V63.43q0,4.09,0,7.28a40.68,40.68,0,0,0,.34,5.34,7.66,7.66,0,0,0,1.11,3.29,2.64,2.64,0,0,0,2.32,1.13,2.43,2.43,0,0,0,2.14-1.27,10.16,10.16,0,0,0,1.21-3.15,25,25,0,0,0,.57-4c.09-1.42.13-2.72.13-3.89v-15h8.61v31.1a12.1,12.1,0,0,1-1.44,6,13.5,13.5,0,0,1-3.81,4.35,17.24,17.24,0,0,1-5.36,2.66,22.41,22.41,0,0,1-6.15.94h-.77a22.58,22.58,0,0,1-6-.9,16.47,16.47,0,0,1-5.2-2.54,12.79,12.79,0,0,1-3.65-4.22,12.1,12.1,0,0,1-1.38-5.9V53.15Z"/><path class="cls-1" d="M74.31,98.13V90.19a12.06,12.06,0,0,1,1.24-5.41A23.79,23.79,0,0,1,78.66,80a49.45,49.45,0,0,1,4-4.31c1.44-1.37,2.79-2.7,4-4a26.74,26.74,0,0,0,3.11-3.81,6.77,6.77,0,0,0,1.24-3.77,1.6,1.6,0,0,0-.67-1.36A5.05,5.05,0,0,0,88.55,62a14.6,14.6,0,0,0-2.71-.34c-1,0-2.1-.07-3.24-.07l-2.41,0c-1.22,0-3.06,0-5.52,0V53.11l30.6,0v8a1.87,1.87,0,0,1-.09.32,1.74,1.74,0,0,1-.13.36c-.06.12-.12.26-.18.41L96.26,72.89a3.17,3.17,0,0,0-.34.39c-.11.13-.22.26-.34.38v0a17.16,17.16,0,0,0-1.94,2.73,6.2,6.2,0,0,0-.9,3.13,1.87,1.87,0,0,0,.41,1.22,1.37,1.37,0,0,0,1.12.5,16.51,16.51,0,0,0,1.78-.14l2.51-.27,2.72-.27c.92-.09,1.74-.13,2.46-.13s1.23,0,1.89,0l2.08,0V98.13Z"/><path class="cls-1" d="M110.05,98.13V90.19a12.06,12.06,0,0,1,1.24-5.41A24.23,24.23,0,0,1,114.4,80a51,51,0,0,1,4-4.31c1.45-1.37,2.79-2.7,4-4a28.19,28.19,0,0,0,3.11-3.81,6.85,6.85,0,0,0,1.24-3.77,1.61,1.61,0,0,0-.68-1.36,5.05,5.05,0,0,0-1.85-.76,14.59,14.59,0,0,0-2.7-.34c-1,0-2.11-.07-3.25-.07l-2.41,0c-1.22,0-3.06,0-5.52,0V53.11l30.6,0v8a1.87,1.87,0,0,1-.09.32,1.74,1.74,0,0,1-.13.36c-.06.12-.12.26-.18.41L132,72.89a4.32,4.32,0,0,0-.34.39,4,4,0,0,1-.34.38v0a17.13,17.13,0,0,0-1.93,2.73,6.12,6.12,0,0,0-.91,3.13,1.87,1.87,0,0,0,.41,1.22,1.39,1.39,0,0,0,1.13.5,16.69,16.69,0,0,0,1.78-.14l2.5-.27L137,80.6c.91-.09,1.73-.13,2.45-.13s1.23,0,1.9,0l2.07,0V98.13Z"/><path class="cls-1" d="M160.8,53.06V59.6c-.06,1-.11,1.9-.16,2.84a6.61,6.61,0,0,1-1,3,35.51,35.51,0,0,0-2.35,5,38.83,38.83,0,0,0-1.64,5.41,31.15,31.15,0,0,0-.75,5.21,15.3,15.3,0,0,0,.34,4.42,6.52,6.52,0,0,0,1.62,3.06A4.17,4.17,0,0,0,160,89.66a10.46,10.46,0,0,0,8.41-3.72,10,10,0,0,0,1.78-3.09,8.27,8.27,0,0,0,.54-2.52h16.95v17.8H145.79V53.06Zm2.89,25.47V53.06h24v4.51c-.54,0-1.33,0-2.35,0a25.66,25.66,0,0,0-3,.09,11.14,11.14,0,0,0-2.61.52c-.74.26-1.08.67-1,1.24a2.29,2.29,0,0,0,.68,1.51,3.66,3.66,0,0,0,2.52.7h2.08v3h-.68c-.21,0-.44,0-.7,0s-.52,0-.79-.07a5.23,5.23,0,0,0-2,.23,2.17,2.17,0,0,0-1,.68,1.19,1.19,0,0,0-.24.83,1,1,0,0,0,.27.65,1.81,1.81,0,0,0,1.39.54h7.49V78.53Z"/><path class="cls-2" d="M62.42,20.51a2.11,2.11,0,0,1-.3-2.17h0a2.48,2.48,0,0,0,.36-1.06h0a.09.09,0,0,0,0-.07.2.2,0,0,0,.05-.21,3.6,3.6,0,0,0,.32-1.25s0,0,0-.05c-1,0-1.12-.15-1.27-1.21a16.89,16.89,0,0,1,0-3.41,1.77,1.77,0,0,1,.29-1.26,4.6,4.6,0,0,0-.58-1.07h0a12.24,12.24,0,0,0-2-2.37,11.9,11.9,0,0,0-2.59-1.9,5.51,5.51,0,0,0-2.37-.79,2.06,2.06,0,0,0,.37.16,2.06,2.06,0,0,1-.37-.16l-.08,0h0c-.07-.13-.2-.14-.32-.17a12.42,12.42,0,0,0-3.8-.07.69.69,0,0,0-.55.24h0a.24.24,0,0,1-.15.1.24.24,0,0,0,.15-.1.58.58,0,0,0-.46.11c-.15,0-.3,0-.43.07h0a2.87,2.87,0,0,0-1.1.41,1.78,1.78,0,0,0-.82.33.69.69,0,0,1,0,.22.69.69,0,0,0,0-.22c-.33.19-.74.27-1,.62l-.55.38h0c-.07,0-.12,0-.11.11v0h0a2.5,2.5,0,0,0-1.15,1c-.13,0-.18.08-.19.2s-.24.11-.2.28c-.2,0-.24.14-.28.29h0c-.06,0-.09,0-.1.1h0a1.11,1.11,0,0,0-.47.59c-.25.38-.33.88-.78,1.14h0a.21.21,0,0,1-.12.3c0,.06-.16.1,0,.17a1,1,0,0,1,.55,1.06c0,1,0,2,0,3,0,.52.14,1.09-.18,1.53a.74.74,0,0,0,0,1,2.64,2.64,0,0,0,.58,1.08h0a1.47,1.47,0,0,0,.79.85h0a.39.39,0,0,0,.3.2,3.76,3.76,0,0,0,2.07.7,1,1,0,0,0,.36-.07l2,.88a.88.88,0,0,1,.51.4.88.88,0,0,0-.51-.4,1.53,1.53,0,0,1-1.76-.17.63.63,0,0,0-.39-.13,7.07,7.07,0,0,1-2-.48,3.39,3.39,0,0,1-1.31-.92,6.84,6.84,0,0,1-1.06-2.28.94.94,0,0,0-.34-.58.81.81,0,0,0-.51-.08c0,.46,0,1,.09,1.49,0,.37.09.72.14,1.05a3.91,3.91,0,0,0-.69.66h0a.58.58,0,0,0-.35.4.06.06,0,0,0,0,.06l-.1.13h0l-.1.09a3.64,3.64,0,0,0-.87,1.63l.08.05-.08-.05a1.79,1.79,0,0,0-.26.72h0a1.1,1.1,0,0,0,.51,1.1A1.16,1.16,0,0,0,40.77,22c.44-.24.87-.49,1.33-.71.71-.35.88-.31,1.42.25a.25.25,0,0,0,.09,0l.48.39-.1.08a5.37,5.37,0,0,0,2.29,1.76,2.37,2.37,0,0,0,1.16.66,1.33,1.33,0,0,0,.78.28,2.46,2.46,0,0,0,.92.38A11,11,0,0,0,55.2,25a8.49,8.49,0,0,0,4.12-2.39.35.35,0,0,1,.55-.05,11.62,11.62,0,0,1,1.7,1.5h0c.4.64.87,1.05,1.15.95s.36-.42.53-1c0-.1.06-.2.09-.3l0,0A5.15,5.15,0,0,0,62.42,20.51ZM43,8.05a.53.53,0,0,0,.21-.11A.53.53,0,0,1,43,8.05Zm.36-.54.1-.1h0Zm.38-.4a.22.22,0,0,0,.16,0A.22.22,0,0,1,43.69,7.11Zm3.27,9Zm1.44-6.8ZM39,21.31a.24.24,0,0,1,0-.08A.24.24,0,0,0,39,21.31ZM49,6.24a.1.1,0,0,0-.11-.06A.1.1,0,0,1,49,6.24ZM48.91,19.8l0-.08h0Zm.78-2.19c-.48,0-.71-.22-.73-.72a.64.64,0,0,1,.66-.59.7.7,0,0,1,.69.65A.68.68,0,0,1,49.69,17.61Zm1.75,7.63a3,3,0,0,0,.42,0A3,3,0,0,1,51.44,25.24Zm.89-.19-.15.05.15-.05Zm0,0c.05,0,.11-.06.17-.07S52.38,25,52.33,25.05Zm1.34-6.65A1.79,1.79,0,0,1,52.05,20a2.09,2.09,0,0,1-1.67-1,1.46,1.46,0,0,1-.14-.79.5.5,0,0,1,.56-.48H52c.37,0,.73,0,1.1,0S53.71,17.92,53.67,18.4Zm.88-.77a.74.74,0,0,1-.8-.64.7.7,0,0,1,.64-.68.6.6,0,0,1,.7.6C55.1,17.28,54.83,17.63,54.55,17.63Zm1.14,5.31Zm4-13.49,0-.08h0Z"/><path class="cls-2" d="M63,12.53A11.32,11.32,0,0,1,51.94,23.07,11.2,11.2,0,0,1,40.88,12.53a10.66,10.66,0,0,1,4.75-8.76A11.15,11.15,0,0,1,51.94,2a11,11,0,0,1,7.5,2.52A11,11,0,0,1,63,12.53Z"/><path class="cls-3" d="M64.69,11.36c-.17-.72-.42-1.35-1.3-1.43a.37.37,0,0,1-.33-.35,7.49,7.49,0,0,0-.65-2.08,9.33,9.33,0,0,0-5.78-5.29A10.8,10.8,0,0,0,54,1.84c-.66-.05-1.32,0-2,0a11.18,11.18,0,0,0-4.84.61,8.92,8.92,0,0,0-3.93,2.9,10.17,10.17,0,0,0-1.86,4,.62.62,0,0,1-.58.56c-1.05.24-1.49.36-1.42,1.41,0,0,0,.05,0,.08l0,2.77c0,.16,0,.31,0,.47,0,.5.09.7.4.83h2.46l.08-.13c.32-.44.16-1,.18-1.53,0-1,0-2,0-3a1,1,0,0,0-.55-1.06c-.14-.07,0-.11,0-.17s0-.25.12-.3h0a1.79,1.79,0,0,1,0-.47A9.05,9.05,0,0,1,45,4.4a10.13,10.13,0,0,1,3.1-1.67,9.65,9.65,0,0,1,2.46-.25,27.65,27.65,0,0,1,4.07,0,8.08,8.08,0,0,1,2.74.73,9,9,0,0,1,3.71,3.13,8.5,8.5,0,0,1,1.19,3.09c.06.29-.14.34-.34.39a1.77,1.77,0,0,0-.29,1.26,16.89,16.89,0,0,0,0,3.41c.15,1.06.22,1.18,1.27,1.21.35,0,.71-.12,1.07-.15a.53.53,0,0,0,.54-.43,3.62,3.62,0,0,0,.2-.91C64.7,13.26,64.69,12.31,64.69,11.36Zm-24.24,3c0,.12-.05.18-.17.17s-.12-.13-.12-.21V12.68h0V11.1c0-.12,0-.3.15-.31s.16.16.17.27A18.9,18.9,0,0,1,40.45,14.34Zm23.33.31c-.26,0-.24-.3-.24-.49,0-.89,0-1.78,0-2.66a1,1,0,0,1,0-.24c0-.17-.14-.45.13-.46s.2.3.21.47c0,.52,0,1,0,1.57h0c0,.44,0,.89,0,1.33C64,14.36,64,14.64,63.78,14.65Z"/><path class="cls-4" d="M64.71,14.21c0-1,0-1.9,0-2.85a.65.65,0,0,1,.7.71c0,.39.07.79.07,1.18C65.45,13.93,65.38,14,64.71,14.21Z"/><path class="cls-4" d="M39.31,11.34c0,.93,0,1.85,0,2.77-.46.05-.69-.15-.77-.62a5.72,5.72,0,0,1,0-1.37A.72.72,0,0,1,39.31,11.34Z"/><path class="cls-3" d="M52,17.75c.37,0,.73,0,1.1,0s.62.17.58.65A1.79,1.79,0,0,1,52.05,20a2.09,2.09,0,0,1-1.67-1,1.46,1.46,0,0,1-.14-.79.5.5,0,0,1,.56-.48H52Zm.06,1.9a1.23,1.23,0,0,0,1-.56c.08-.11.22-.24.12-.38a.39.39,0,0,0-.45-.2,1.55,1.55,0,0,0-1,.55c-.08.13-.25.25-.17.42S51.88,19.62,52.05,19.65Z"/><path class="cls-3" d="M55.09,16.91c0,.37-.26.72-.54.72a.74.74,0,0,1-.8-.64.7.7,0,0,1,.64-.68A.6.6,0,0,1,55.09,16.91Z"/><path class="cls-3" d="M50.31,17a.68.68,0,0,1-.62.66c-.48,0-.71-.22-.73-.72a.64.64,0,0,1,.66-.59A.7.7,0,0,1,50.31,17Z"/><path class="cls-4" d="M64,12.84c0,.44,0,.89,0,1.33,0,.19.06.47-.17.48s-.24-.3-.24-.49c0-.89,0-1.78,0-2.66a1,1,0,0,1,0-.24c0-.17-.14-.45.13-.46s.2.3.21.47c0,.52,0,1,0,1.57Z"/><path class="cls-4" d="M40.16,12.68V11.1c0-.12,0-.3.15-.31s.16.16.17.27a18.9,18.9,0,0,1,0,3.28c0,.12-.05.18-.17.17s-.12-.13-.12-.21V12.68Z"/><path class="cls-5" d="M42.07,9.23a.21.21,0,0,1-.12.3C42,9.42,41.91,9.28,42.07,9.23Z"/><path class="cls-4" d="M52.05,19.65c-.17,0-.38,0-.47-.17s.09-.29.17-.42a1.55,1.55,0,0,1,1-.55.39.39,0,0,1,.45.2c.1.14,0,.27-.12.38A1.23,1.23,0,0,1,52.05,19.65Z"/></svg>