<svg id="Слой_1" data-name="Слой 1" xmlns="http://www.w3.org/2000/svg" viewBox="0 0 100 50"><defs><style>.cls-1,.cls-2{fill:#db2878;}.cls-2{font-size:29.16px;font-family:KomikaTitle-Tall, Komika Title - Tall;}</style></defs><path class="cls-1" d="M17.36,33.26l5.79-4.59a9.62,9.62,0,0,0,.41-2.44l-7,5.39a2.47,2.47,0,0,1-2.4.36L5.86,28.85A10,10,0,0,0,7,31.07l6.87,2.72a3.56,3.56,0,0,0,3.53-.53Z"/><path class="cls-1" d="M17.5,35.78l5.34-4.23a9.05,9.05,0,0,0,.37-2.25l-6.47,5a2.26,2.26,0,0,1-2.2.33L6.9,31.71a8.89,8.89,0,0,0,1,2l6.33,2.5a3.26,3.26,0,0,0,3.25-.48Z"/><path class="cls-1" d="M17.73,38s3.66-2.91,4.91-3.89A8.4,8.4,0,0,0,23,32L17,36.57a2.09,2.09,0,0,1-2,.3L8,34.22A8.15,8.15,0,0,0,8.9,36.1l5.83,2.31a3.18,3.18,0,0,0,1.56.18A3.11,3.11,0,0,0,17.73,38Z"/><path class="cls-1" d="M17.38,20.32,23,15.86l.3-.23a3.87,3.87,0,0,0-1.43-1l-7.58-3a3.92,3.92,0,0,0-3.9.57L4,17.3a4,4,0,0,0-1.08,1.35l7,2.77,1.33-1.05a4.6,4.6,0,0,1,4.53-.67Z"/><path class="cls-1" d="M17.12,30.8l6.38-5.06A11.11,11.11,0,0,0,24,23.06L16.21,29a2.75,2.75,0,0,1-2.64.39L4.45,25.94a10.76,10.76,0,0,0,1.21,2.44l7.56,3a4,4,0,0,0,2,.23A3.93,3.93,0,0,0,17.12,30.8Z"/><path class="cls-1" d="M14.92,26.14,24.25,19c0-.43.05-.85.07-1.27a4,4,0,0,0-.62-1.58l-9.47,7.51a.33.33,0,0,1-.32.05L2.68,19.24a3.88,3.88,0,0,0-.13,1.69c.14.4.28.8.43,1.2l11,4.15A1,1,0,0,0,14.92,26.14Z"/><path class="cls-1" d="M15.82,28.49,24,22.18c.06-.73.12-1.53.17-2.35l-8.89,6.82a1.59,1.59,0,0,1-1.56.23L3.27,22.93c.29.77.57,1.52.85,2.2l9.68,3.65A2.09,2.09,0,0,0,15.82,28.49Z"/><path class="cls-1" d="M27.06,31.4c-.12,1-.23,1.94-.34,2.91a1,1,0,0,1-.19.55q-.12.15-.45,0c-.23-.11-.45-.2-.64-.27a1.58,1.58,0,0,1-.53-.38,1.6,1.6,0,0,1-.33-.71,4.23,4.23,0,0,1,0-1.12c0-.37.06-.88.11-1.53s.11-1.37.18-2.18S25,27,25,26.09s.16-1.82.25-2.72.18-1.78.28-2.62.19-1.6.29-2.27.21-1.21.32-1.65a1.75,1.75,0,0,1,.33-.8c.5-.4,1-.78,1.56-1.15a6.53,6.53,0,0,1,1.59-.79,2.53,2.53,0,0,1,1.49,0,2.24,2.24,0,0,1,1.24,1.09,17.05,17.05,0,0,1,.82,1.71,10.88,10.88,0,0,1,.6,2.3,9.91,9.91,0,0,1,.11,1.36,3.73,3.73,0,0,1-.15,1.09,8.22,8.22,0,0,1-1.4,3,14.78,14.78,0,0,1-2.44,2.59c.2.43.43.89.68,1.39s.5,1,.77,1.49.53,1,.79,1.43.51.87.74,1.22a1.46,1.46,0,0,1,.27.73A1.12,1.12,0,0,1,33,34c-.15.26-.28.41-.4.45l-.42.15a.92.92,0,0,1-.66.09,1.67,1.67,0,0,1-.84-.63c-.21-.29-.45-.64-.72-1.07s-.56-.88-.85-1.38-.57-1-.85-1.56-.54-1.09-.77-1.62C27.3,29.43,27.17,30.43,27.06,31.4Zm1.42-10.08q-.19,1.3-.45,2.85a6.91,6.91,0,0,0,1.55-1.31,9.58,9.58,0,0,0,1.12-1.55,7.54,7.54,0,0,0,.64-1.47,2.38,2.38,0,0,0,.11-1.06.82.82,0,0,0-.89-.62,2.46,2.46,0,0,0-.78.16,2.81,2.81,0,0,0-.9.56C28.74,19.64,28.61,20.45,28.48,21.32Z"/><path class="cls-1" d="M36.93,15c.42-.16.86-.31,1.31-.45a11.2,11.2,0,0,1,1.41-.36A11.9,11.9,0,0,1,41.09,14c.46,0,.75.29.89.91a5.77,5.77,0,0,1,.23.91c0,.27.1.57.16.9a1.64,1.64,0,0,1,0,.75.58.58,0,0,1-.44.27l-1.52.3c-.52.1-1.08.23-1.65.38-.11.66-.22,1.35-.33,2.08S38.17,22,38,22.81a5.44,5.44,0,0,1,.77-.14c.25,0,.52-.05.79-.06a.77.77,0,0,1,.56.1,1.24,1.24,0,0,1,.35.62,6.65,6.65,0,0,1,.25.92c.07.3.12.62.18.95a1.53,1.53,0,0,1,0,.74.78.78,0,0,1-.43.33c-.52.18-1.05.35-1.6.51s-1.06.35-1.57.56c-.07.52-.14,1-.2,1.5l-.21,1.44a7.44,7.44,0,0,1,1.19-.34c.39-.08.8-.14,1.24-.2a.69.69,0,0,1,.56.1,1.09,1.09,0,0,1,.36.62q.16.49.27,1c.07.31.14.62.2.94a1.81,1.81,0,0,1,0,.73.67.67,0,0,1-.43.33c-.57.22-1.16.45-1.77.67l-1.72.65c-.37.18-.65.22-.84.11a1.58,1.58,0,0,1-.48-.42c-.15-.19-.29-.39-.43-.59a9.18,9.18,0,0,1-.47-.79,3,3,0,0,1-.34-.88A4.46,4.46,0,0,1,34.22,31l1.57-15.45Q36.3,15.27,36.93,15Z"/><path class="cls-1" d="M50.07,17.72l-1.16.2c-.17,1.26-.34,2.59-.52,4s-.35,2.82-.53,4.24-.35,2.85-.5,4.25-.3,2.75-.43,4a.94.94,0,0,1-.12.51.29.29,0,0,1-.28.11,1.14,1.14,0,0,1-.41-.16l-.52-.29a3.62,3.62,0,0,1-.52-.35,2,2,0,0,1-.38-.44,2,2,0,0,1-.21-.63,3.29,3.29,0,0,1,0-.89c0-.82.11-1.81.2-3S44.9,27,45,25.72s.26-2.5.4-3.74.29-2.37.42-3.38q-.35.11-.69.18a3.63,3.63,0,0,0-.56.19.61.61,0,0,1-.5.05,1.12,1.12,0,0,1-.43-.57,6.46,6.46,0,0,1-.44-1.15c-.13-.45-.23-.84-.32-1.15a1.12,1.12,0,0,1,0-.64.64.64,0,0,1,.31-.27q.7-.24,1.59-.45c.6-.13,1.21-.26,1.82-.37s1.23-.21,1.82-.29S49.53,14,50,14a.83.83,0,0,1,.52.13.92.92,0,0,1,.3.4,5.65,5.65,0,0,1,.42,1,10.46,10.46,0,0,1,.28,1.1,1.7,1.7,0,0,1,0,.67c0,.12-.18.2-.43.24Z"/><path class="cls-1" d="M54.06,31.4c-.12,1-.23,1.94-.34,2.91a1.16,1.16,0,0,1-.18.55c-.09.1-.24.1-.46,0s-.44-.2-.63-.27a1.61,1.61,0,0,1-.54-.38,1.85,1.85,0,0,1-.33-.71,4.71,4.71,0,0,1,0-1.12c0-.37.07-.88.11-1.53s.11-1.37.18-2.18S52,27,52,26.09s.16-1.82.25-2.72.18-1.78.28-2.62.19-1.6.3-2.27.21-1.21.32-1.65a1.78,1.78,0,0,1,.32-.8c.5-.4,1-.78,1.56-1.15a6.53,6.53,0,0,1,1.59-.79,2.53,2.53,0,0,1,1.49,0,2.25,2.25,0,0,1,1.25,1.09q.42.78.81,1.71a11.47,11.47,0,0,1,.61,2.3,11.62,11.62,0,0,1,.1,1.36,3.73,3.73,0,0,1-.15,1.09,8.37,8.37,0,0,1-1.39,3,15.23,15.23,0,0,1-2.45,2.59c.2.43.43.89.68,1.39s.5,1,.77,1.49.53,1,.79,1.43.51.87.74,1.22a1.46,1.46,0,0,1,.27.73A1.12,1.12,0,0,1,60,34c-.15.26-.28.41-.4.45l-.42.15a.92.92,0,0,1-.66.09,1.67,1.67,0,0,1-.84-.63c-.21-.29-.45-.64-.72-1.07s-.56-.88-.85-1.38-.57-1-.85-1.56-.54-1.09-.77-1.62C54.3,29.43,54.18,30.43,54.06,31.4Zm1.42-10.08c-.13.87-.28,1.82-.44,2.85a6.86,6.86,0,0,0,1.54-1.31,9.58,9.58,0,0,0,1.12-1.55,7,7,0,0,0,.64-1.47,2.24,2.24,0,0,0,.11-1.06.81.81,0,0,0-.88-.62,2.47,2.47,0,0,0-.79.16,3,3,0,0,0-.9.56C55.74,19.64,55.61,20.45,55.48,21.32Z"/><path class="cls-1" d="M69.57,17.05a11.59,11.59,0,0,1,.36,1.69,31.9,31.9,0,0,1,.16,3.67,34.93,34.93,0,0,1-.28,4.07,30.19,30.19,0,0,1-.75,3.94,14,14,0,0,1-1.25,3.25,3,3,0,0,1-1.14,1.11,2.22,2.22,0,0,1-1.39.13,5.61,5.61,0,0,1-1.06-.33,3,3,0,0,1-1-.7,7.15,7.15,0,0,1-.7-1A4.8,4.8,0,0,1,62,31.57a15.88,15.88,0,0,1-.4-2.58,25.48,25.48,0,0,1-.07-2.92c0-1,.13-2,.27-3.05a29.46,29.46,0,0,1,.58-3,20.82,20.82,0,0,1,.87-2.7,11.73,11.73,0,0,1,1.17-2.21,2.61,2.61,0,0,1,1-.85,1.56,1.56,0,0,1,1.1-.14,4.55,4.55,0,0,1,1.31.56,3.57,3.57,0,0,1,1,1A4.83,4.83,0,0,1,69.57,17.05Zm-3.2,1.15a7.33,7.33,0,0,0-.65,1.48c-.21.62-.41,1.32-.61,2.09s-.35,1.54-.47,2.28-.22,1.55-.28,2.38-.08,1.62-.07,2.34a10.62,10.62,0,0,0,.17,1.85c.09.51.24.83.45.95s.37.06.58-.21a4.29,4.29,0,0,0,.62-1.24,17,17,0,0,0,.57-2c.17-.8.33-1.68.45-2.62.11-.74.19-1.55.25-2.41s.07-1.67.07-2.43a12.83,12.83,0,0,0-.14-1.92c-.08-.53-.2-.83-.37-.92S66.59,17.83,66.37,18.2Z"/><path class="cls-1" d="M79,23.15a.42.42,0,0,1-.45.09,2,2,0,0,1-1.3-.94,4.36,4.36,0,0,1-.51-1.87c0-.15,0-.3,0-.43s0-.29,0-.46,0-.3,0-.45,0-.3,0-.45-.06-.51-.09-.7-.09-.31-.18-.35-.36,0-.58.38a6.83,6.83,0,0,0-.69,1.43q-.35.93-.69,2.19c-.23.84-.42,1.72-.59,2.64-.15.77-.26,1.57-.34,2.41s-.1,1.61-.09,2.33a11.33,11.33,0,0,0,.17,1.84,1.42,1.42,0,0,0,.43,1,.38.38,0,0,0,.5-.07A3,3,0,0,0,75,31a9.16,9.16,0,0,0,.49-1.24c.16-.48.3-1,.44-1.57a1.23,1.23,0,0,1-1.21-.53,4.76,4.76,0,0,1-.66-2,1,1,0,0,1,0-.49.53.53,0,0,1,.21-.29,1.27,1.27,0,0,1,.35-.17l.45-.12a8.84,8.84,0,0,1,1-.31l.88-.22a1.05,1.05,0,0,1,.71,0,1.17,1.17,0,0,1,.5.59,5.43,5.43,0,0,1,.31.64l.27.64a3.25,3.25,0,0,1,.25,1A5.7,5.7,0,0,1,78.91,28a21.24,21.24,0,0,1-1,3.88,8.91,8.91,0,0,1-1.35,2.49,2,2,0,0,1-2.2.72,4.94,4.94,0,0,1-2-1.13,4.68,4.68,0,0,1-.68-1,5.43,5.43,0,0,1-.49-1.37A12.79,12.79,0,0,1,70.7,29a23.92,23.92,0,0,1,0-3.05,31,31,0,0,1,.38-3.24,27.54,27.54,0,0,1,.71-3.16,20.09,20.09,0,0,1,1-2.78,10,10,0,0,1,1.27-2.16,1.6,1.6,0,0,1,1-.68,2.21,2.21,0,0,1,1,0,4.08,4.08,0,0,1,1.27.55,3.93,3.93,0,0,1,1.08,1,3.86,3.86,0,0,1,.6,1.24,8,8,0,0,1,.28,1.54c0,.31.05.66.05,1.05s0,.77,0,1.16,0,.76,0,1.12,0,.66-.07.9A1.67,1.67,0,0,1,79,23.15Z"/><path class="cls-1" d="M82.54,15q.63-.24,1.32-.45a11.2,11.2,0,0,1,1.41-.36A11.9,11.9,0,0,1,86.71,14c.45,0,.74.29.88.91a7.33,7.33,0,0,1,.24.91q.08.41.15.9a1.64,1.64,0,0,1,0,.75.58.58,0,0,1-.44.27l-1.51.3c-.53.1-1.08.23-1.66.38-.11.66-.22,1.35-.33,2.08s-.23,1.49-.37,2.3a5.44,5.44,0,0,1,.77-.14c.26,0,.52-.05.8-.06a.75.75,0,0,1,.55.1,1.17,1.17,0,0,1,.35.62,6.72,6.72,0,0,1,.26.92c.06.3.12.62.17.95a1.41,1.41,0,0,1,0,.74.78.78,0,0,1-.43.33q-.78.27-1.59.51c-.54.17-1.07.35-1.58.56-.06.52-.13,1-.2,1.5l-.21,1.44a7.26,7.26,0,0,1,1.2-.34c.38-.08.79-.14,1.23-.2a.72.72,0,0,1,.57.1,1.22,1.22,0,0,1,.36.62c.1.33.19.65.26,1l.21.94a1.76,1.76,0,0,1,0,.73.68.68,0,0,1-.42.33l-1.77.67-1.73.65c-.37.18-.65.22-.83.11a1.51,1.51,0,0,1-.49-.42c-.15-.19-.29-.39-.43-.59s-.29-.47-.47-.79a3.29,3.29,0,0,1-.34-.88A4.5,4.5,0,0,1,79.84,31L81.4,15.51Q81.91,15.27,82.54,15Z"/><path class="cls-1" d="M94.27,20.18c.22-1.89.44-3.6.64-5.12.06-.4.15-.65.28-.74s.32-.09.57,0l.33.14a1.4,1.4,0,0,1,.28.17l.3.24.38.37a1.52,1.52,0,0,1,.41.78,3.08,3.08,0,0,1,0,.95c-.09.73-.2,1.54-.31,2.43s-.22,1.83-.34,2.83-.22,2-.33,3.05-.22,2.08-.33,3.1-.22,2-.31,3-.19,1.85-.27,2.67-.31.91-.8.7a4.22,4.22,0,0,1-.65-.3,6.74,6.74,0,0,1-.65-.4,2.56,2.56,0,0,1-.84-1.6c-.12-.54-.25-1.15-.38-1.85s-.26-1.45-.38-2.23-.25-1.61-.37-2.45-.24-1.68-.35-2.5c-.11,1-.22,2-.34,3s-.23,2-.33,2.95-.2,1.84-.29,2.68S90,33.64,90,34.29c0,.31-.09.51-.18.57s-.25,0-.48-.08l-.67-.33A1.77,1.77,0,0,1,88,33.9a1.41,1.41,0,0,1-.38-.67,3.61,3.61,0,0,1,0-1.08c0-.47.08-1.1.15-1.91s.14-1.72.23-2.74.19-2.09.31-3.23.23-2.26.35-3.37.24-2.17.36-3.17.24-1.87.35-2.61a1.21,1.21,0,0,1,.33-.79.55.55,0,0,1,.57,0l.86.45a4.88,4.88,0,0,1,.87.62,1.47,1.47,0,0,1,.53.68,5.08,5.08,0,0,1,.23,1.21c0,.41.1.95.17,1.63s.14,1.4.23,2.2.19,1.62.28,2.48.19,1.7.29,2.49C93.85,24.05,94,22.07,94.27,20.18Z"/><text class="cls-2" transform="translate(36.32 -9.27)">RETROGEN</text></svg>