<?xml version="1.0" encoding="utf-8"?>
<!-- Generator: Adobe Illustrator 26.0.3, SVG Export Plug-In . SVG Version: 6.00 Build 0)  -->
<svg version="1.1" id="Слой_1" xmlns="http://www.w3.org/2000/svg" xmlns:xlink="http://www.w3.org/1999/xlink" x="0px" y="0px"
	 viewBox="0 0 365 79" style="enable-background:new 0 0 365 79;" xml:space="preserve">
<style type="text/css">
	.st0{fill:#9CA8BF;}
</style>
<g>
	<path class="st0" d="M34.7,53.1h9l13.5-13.8L43.7,25.5H16.8L8,16.2h40.1l22.4,23l-22.4,23H34.7V53.1z M30.2,62.3V30H19v32.2
		L30.2,62.3L30.2,62.3z"/>
	<path class="st0" d="M119.9,25.5l-8.6-9.2h33.2l13.4,13.9l-6.7,6.9h-13.4l6.7-6.9l-4.5-4.6L119.9,25.5z M133.3,62.5h-11.2V30.1
		h11.2V62.5z M137.8,41.8V51h9L158,62.5h13.4l-20.2-20.7H137.8z"/>
	<path class="st0" d="M160.2,62.5V16.4h11.2v46.1H160.2z M180.4,34.8l17.9-18.4h13.4l-22.4,23l22.4,23h-13.4L180.4,44h-4.5v-9.2
		H180.4z"/>
	<path class="st0" d="M84,25.5H70.6l-8.7-9.2h26.6l44.8,46.1h-13.4L84,25.5z M72.8,30.1v32.2H84V50.8h20.2l-9-9.2H84V30.1H72.8z"/>
	<path class="st0" d="M231.5,53.1h9l13.4-13.8l-13.4-13.8h-26.9l-8.8-9.2H245l22.4,23l-22.4,23h-13.5V53.1z M227,62.3V30h-11.2v32.2
		L227,62.3L227,62.3z"/>
	<path class="st0" d="M267.4,25.5l-8.6-9.2h62.4l-9,9.2H267.4z M269.6,62.3h40.3l-9-9.2h-20.1V44H292l9-9.2h-20.2v-4.6h-11.2
		L269.6,62.3z"/>
	<path class="st0" d="M323.4,16.3V37l20.2-20.7H357l-44.8,46V16.2L323.4,16.3z"/>
	<polygon class="st0" points="356.7,35.3 356.7,62.8 330.1,62.8 338.2,54.5 348.6,54.5 348.6,43.6 	"/>
</g>
</svg>
