<svg id="Слой_1" data-name="Слой 1" xmlns="http://www.w3.org/2000/svg" viewBox="0 0 100 100"><defs><style>.cls-1{fill:#fd4d8b;}.cls-2{fill:#fff;}.cls-3{fill:#1e1e1e;}</style></defs><rect class="cls-1" x="-2.72" y="-2.35" width="111.3" height="104.43"/><path class="cls-2" d="M73.36,53.53l-9.94.37.34-15.23h0l0-1.45A28.9,28.9,0,0,0,52.7,13.74l0,0a28.07,28.07,0,0,0-38.39,3A28.85,28.85,0,0,0,36.14,65.06l1.43,0h0l16.94-.63.34,9.35a19.32,19.32,0,0,0,19.9,18.77h0A19.39,19.39,0,0,0,93.27,72.3h0A19.34,19.34,0,0,0,73.36,53.53ZM34.94,55A19.32,19.32,0,0,1,15,36.18h0A19.39,19.39,0,0,1,33.56,16h0a18.89,18.89,0,0,1,10,2.44v0c.5.27,1,.56,1.45.87a19.55,19.55,0,0,1,2,1.6l0-.05a19.58,19.58,0,0,1,6.72,15.25l-.4,18.12ZM69.15,66.78c.72-1.61.56-2.15,1.25-2.69.85-.66,12.77,5.25,13.62,6q-1.08,5.11-2.15,10.25L75.6,81.93a13.31,13.31,0,0,1-5.55-1.55,6.15,6.15,0,0,1-2.57-2A5.87,5.87,0,0,1,67,73.52l.15-1.19a6.72,6.72,0,0,1,.16-1.86C67.62,68.93,68.29,68.7,69.15,66.78Z"/><path class="cls-2" d="M40,30.2A10.74,10.74,0,0,1,50.65,40.88V51.56H40A10.62,10.62,0,0,1,29.29,40.88,10.67,10.67,0,0,1,40,30.2Zm6.39,10.68a6.39,6.39,0,0,0-10.91-4.52,6.33,6.33,0,0,0,0,9A6.08,6.08,0,0,0,40,47.3h6.39Z"/><path class="cls-3" d="M76.41,85A10.65,10.65,0,0,1,65.8,74.38V63.77H76.41A10.55,10.55,0,0,1,87,74.38,10.6,10.6,0,0,1,76.41,85ZM70.06,74.38A6.33,6.33,0,1,0,76.41,68H70.06Z"/></svg>