<svg id="Слой_1" data-name="Слой 1" xmlns="http://www.w3.org/2000/svg" viewBox="0 0 2124.12 1288.45"><defs><style>.cls-1{fill:#fff;}.cls-2{fill:none;}.cls-3{fill:#fd4d8b;}</style></defs><path class="cls-1" d="M517.68,395.41q56.1,0,95.57,39.89,39.9,39.48,39.9,95.57V666.34H517.68q-56.1,0-96-39.47-39.48-39.9-39.48-96t39.48-95.57Q461.57,395.4,517.68,395.41Zm81,135.46q0-33.64-23.69-57.34t-57.34-23.69q-33.66,0-57.35,23.69-24.1,23.69-24.1,57.34t24.1,57.35q23.69,24.1,57.35,24.1h81Z"/><path class="cls-1" d="M1371.15,354.17a35.62,35.62,0,0,1-51,0,34.87,34.87,0,0,1-10.76-25.51,35.36,35.36,0,0,1,10.76-25.92,36.61,36.61,0,0,1,51,0,35.36,35.36,0,0,1,10.76,25.92A34.87,34.87,0,0,1,1371.15,354.17Zm-51.43,52.23V666.34h51.82V406.4Z"/><path class="cls-1" d="M1525.24,276.43h51.83V666.34h-51.83Z"/><path class="cls-1" d="M1866.41,562.68H1819a73.28,73.28,0,0,0,27.91,37.08,75.54,75.54,0,0,0,45.45,14.75h130v51.83h-130q-53.82,0-92.1-37.87-37.87-38.28-37.87-92.1t37.87-91.7q38.28-38.26,92.1-38.27t91.7,38.27q38.26,37.89,38.27,91.7v25.92H1866.41Zm25.91-104A77,77,0,0,0,1846.87,473,75.47,75.47,0,0,0,1819,510.46h146.72A75.52,75.52,0,0,0,1937.77,473,77,77,0,0,0,1892.32,458.63Z"/><path class="cls-1" d="M1448.13,818.89q53.83,0,91.7,38.27,38.28,37.89,38.27,91.7v130h-52.22v-130q0-32.29-22.73-55t-55-22.72q-32.3,0-55,22.72-23.13,22.73-23.13,55v130h-51.83v-130q0-53.82,37.88-91.7Q1394.3,818.9,1448.13,818.89Z"/><path class="cls-1" d="M1840.49,871.12a26.32,26.32,0,0,0-18.74,7.57,26,26,0,0,0,0,36.68,26.32,26.32,0,0,0,18.74,7.57h103.66q32.3,0,55.42,22.73,22.73,22.73,22.72,55t-22.72,55.42q-23.13,22.73-55.42,22.72h-181.8V1027h181.8a25,25,0,0,0,18.34-7.57,26.38,26.38,0,0,0,7.57-18.74,25.86,25.86,0,0,0-25.91-25.92H1840.49q-32.29,0-55.42-22.72-22.72-22.72-22.72-55t22.72-55.42q23.13-22.73,55.42-22.72h181.8v52.23Z"/><path class="cls-2" d="M909.48,822.89c-8.8,6.87-6.77,13.71-15.93,34.19-10.86,24.27-19.32,27.19-23.87,46.8a83.24,83.24,0,0,0-2,23.53q-.93,7.56-1.87,15.13c-1.32,4-10.83,34,6.55,61,15.51,24.07,46,35.82,76.23,28.77l106.22-3.92q13.7-65,27.38-130C1071.39,889.45,920.16,814.55,909.48,822.89Z"/><path class="cls-2" d="M613.92,275.21c-.11.21-.24.42-.35.63a245.16,245.16,0,0,0-25.73-20.38q-9-5.9-18.46-11c.06-.15.13-.29.19-.44A239.63,239.63,0,0,0,442.19,213h0c-134.55,5-239.69,119.6-234.84,256h0c4.85,136.43,117.86,243,252.41,238L694,698.37l5.11-229.82A248.07,248.07,0,0,0,613.92,275.21Z"/><path class="cls-2" d="M909.48,822.89c-8.8,6.87-6.77,13.71-15.93,34.19-10.86,24.27-19.32,27.19-23.87,46.8a83.24,83.24,0,0,0-2,23.53q-.93,7.56-1.87,15.13c-1.32,4-10.83,34,6.55,61,15.51,24.07,46,35.82,76.23,28.77l106.22-3.92q13.7-65,27.38-130C1071.39,889.45,920.16,814.55,909.48,822.89Z"/><path class="cls-2" d="M613.92,275.21c-.11.21-.24.42-.35.63a245.16,245.16,0,0,0-25.73-20.38q-9-5.9-18.46-11c.06-.15.13-.29.19-.44A239.63,239.63,0,0,0,442.19,213h0c-134.55,5-239.69,119.6-234.84,256h0c4.85,136.43,117.86,243,252.41,238L694,698.37l5.11-229.82A248.07,248.07,0,0,0,613.92,275.21Z"/><path class="cls-3" d="M1199.42,927.06h0a247.35,247.35,0,0,0-124-206.46C1069.3,739.49,1032,754,986.85,754c-37.42,0-88.85-18.52-89.47-38.9-.17-5.48,3.28-13.22,19.54-22.86l-96,1.42,4.3-193.14h.13l.41-18.41A366.58,366.58,0,0,0,684.9,184.4l.32-.3c-64.79-52-147.37-81.94-236.26-78.66C352.84,109,263.82,150.28,198.3,221.71S98.6,386.16,102.07,483.62C109,677.79,265,831.46,454.21,835.39a37.74,37.74,0,0,1-2.07-12.25c0-31.57,40.06-57.15,89.47-57.15s89.47,25.58,89.47,57.15a37.69,37.69,0,0,1-.53,6.2l77.4-2.86,4.22,118.58c4.85,136.43,117.86,243,252.41,238h0C1099.13,1178.12,1204.27,1063.49,1199.42,927.06ZM699.15,468.55,694,698.37,459.76,707c-134.55,5-247.56-101.6-252.41-238h0C202.5,332.57,307.64,217.94,442.19,213h0A239.63,239.63,0,0,1,569.57,244c-.06.15-.13.29-.19.44q9.48,5.1,18.46,11a245.16,245.16,0,0,1,25.73,20.38c.11-.21.24-.42.35-.63A248.07,248.07,0,0,1,699.15,468.55Zm355.68,559.8L980.28,1052c-46.83,6.17-90-13.7-107.9-48.53-12.91-25.08-8.88-50.46-6.55-61q.95-7.56,1.87-15.13a83.24,83.24,0,0,1,2-23.53c4.55-19.61,13-22.53,23.87-46.8,9.16-20.48,7.13-27.32,15.93-34.19,10.68-8.34,161.91,66.56,172.73,75.45Q1068.51,963.35,1054.83,1028.35Z"/><path class="cls-1" d="M1120.25,666.34q0,53.82-38.28,92.1-37.87,37.88-91.7,37.87-46.63,0-82.92-29.9-35.49-29.1-44.26-74.15h53.83a77.81,77.81,0,0,0,73.35,52.22q32.29,0,55-23.12,22.73-22.73,22.73-55V640.43q-34.29,25.92-77.75,25.91-53.82,0-92.09-37.87-37.89-38.28-37.88-92.1t37.88-91.7q38.27-38.26,92.09-38.27h130ZM1068,458.63H990.27q-32.28,0-55,22.72-23.13,22.72-23.13,55t23.13,55q22.72,23.13,55,23.12t55-23.12q22.73-22.73,22.73-55Z"/><path class="cls-1" d="M651.38,786.59a130.29,130.29,0,0,0-28.82-33.12q-36.27-29.9-82.93-29.9-6.9,0-13.54.63a116.71,116.71,0,0,0-35.48,7.7c-22.5,8.73-36.12,22.14-43.05,29.07q-37.89,37.89-37.88,91.7v259.94h51.83V981.22H564.86V928.58H461.51V852.67a85.24,85.24,0,0,1,.49-9h.47q3-26,22.15-45.15,22.72-23.12,55-23.12a75.56,75.56,0,0,1,45.45,14.75,78.79,78.79,0,0,1,17.26,17,72.63,72.63,0,0,1,11.13,23.23l53.35-2.71A124,124,0,0,0,651.38,786.59Z"/><path class="cls-1" d="M985.63,1088q-55.73,0-94.94-39.63-39.63-39.23-39.63-94.94V818.89H985.63q55.74,0,95.36,39.21,39.23,39.63,39.22,95.36T1081,1048.4Q1041.36,1088,985.63,1088ZM905.14,953.46q0,33.43,23.53,57t57,23.53q33.45,0,57-23.53,23.94-23.52,23.94-57t-23.94-57q-23.53-23.94-57-23.94H905.14Z"/></svg>