<svg id="Слой_1" data-name="Слой 1" xmlns="http://www.w3.org/2000/svg" viewBox="0 0 50 50"><defs><style>.cls-1{fill:#fff;}</style></defs><path class="cls-1" d="M22.33,9.2A18.2,18.2,0,0,0,16,12.36a19,19,0,0,0-6.05,6.73,17.13,17.13,0,0,0-1.55,4.54L5,41.39H24.69a17.46,17.46,0,0,0,8.69-2.77A18.27,18.27,0,0,0,41,27.35c.58-2.67.66-3.07,2.19-10.37.74-3.52,1.42-6.4,1.89-8.29-2.56,0-4.63,0-6,0-4.61,0-7.24-.16-11.42,0A24.15,24.15,0,0,0,22.33,9.2ZM33.59,28.39h-6.1v6.1h-5.9v-6.1h-6.1v-5.9h6.1v-6.1h5.9v6.1h6.09Z"/></svg>