<?xml version="1.0" encoding="utf-8"?>
<!-- Generator: Adobe Illustrator 26.0.1, SVG Export Plug-In . SVG Version: 6.00 Build 0)  -->
<svg version="1.1" id="Слой_1" xmlns="http://www.w3.org/2000/svg" xmlns:xlink="http://www.w3.org/1999/xlink" x="0px" y="0px"
	 viewBox="0 0 409.6 355.4" style="enable-background:new 0 0 409.6 355.4;" xml:space="preserve">
<style type="text/css">
	.st0{fill:#EEE31E;}
	.st1{fill:#2BB195;}
	.st2{fill:#E63662;}
</style>
<g>
	<path class="st0" d="M124.1,336.1c-23,0-45.9,0.2-68.9-0.1c-15.7-0.1-23-7.5-23.2-23c-0.2-14.3-0.4-28.6,0.1-42.8
		c0.4-15,7.8-22,22.8-22.1c30.3-0.1,60.7,0,91,0.2c15,0.1,21.5,6.5,23.3,21.9c1.7,15.2,11.2,24.9,26.8,27.1
		c15.1,2.2,21.3,8.6,20.6,21.1c-0.7,12.2-8,18-23.5,18.1c-23,0.1-45.9,0-68.9,0C124.1,336.4,124.1,336.2,124.1,336.1z"/>
	<path class="st1" d="M275.6,171.8c3.3,6,2.8,12.6,2.4,19c-5.1,7.8-11.2,14.4-21.3,14.8c-8.2,0.3-16.4,0.5-24.6,0.1
		c-14-0.7-28.6,3.1-41.8-4.9c-2.8-4.8-6-9.4-7-15.1c-4.1-22.3-14.4-33.7-30.4-33.8c-15.9-0.1-27.1,12.4-30.7,33.7
		c-1.9,11.2-8.7,17.5-20.3,17.9c-11.7,0.4-18.3-5.8-20.6-16.9c-0.8-3.8-1.4-7.6-2.1-11.4c2.7-7.5,1.3-15.3,1.2-22.9
		c-0.2-33.7-3-43.7,40-42.4c26.4,0.3,52.7,0.5,79.1,0.7c18.5,0.2,24.5,5.5,26.6,24.1c0.7,6.3,2.6,11.8,7.9,15.6
		c4.7,6.8,11.6,10.4,19.4,10.7C262.7,161.4,269.7,165.1,275.6,171.8z"/>
	<path class="st2" d="M120.4,109.8c-43.1-1.3-40.3,8.7-40,42.4c0.1,7.6,1.5,15.4-1.2,22.9c-4.5-11.7-13.1-17.3-25.5-18.8
		c-15.8-1.8-21.5-8.9-21.7-25.2c-0.2-29-0.4-58-0.4-87c0-18.3,6.8-25.1,25-25.2c13.4-0.1,26.9-0.1,40.3,0
		c17.1,0.1,23.4,5.8,23.7,23.3C121,64.8,120.5,87.3,120.4,109.8z"/>
	<path class="st0" d="M190.3,200.8c13.2,8,27.8,4.2,41.8,4.9c8.2,0.4,16.4,0.3,24.6-0.1c10.1-0.4,16.2-7,21.3-14.8
		c0.3,41.4,0.8,82.8,0.8,124.3c0,11.9-8.4,19.9-19.3,20.4c-10.6,0.5-18.4-6.6-20.6-18.9c-3.6-20.3-10-26.3-31.3-29.6
		c-10.1-1.6-17.1-7.3-17.4-17.7C189.7,246.5,190.2,223.6,190.3,200.8z"/>
	<path class="st1" d="M207.2,71.4c-15.2,0-30.3,0.2-45.5,0c-16.3-0.2-28.2-11.4-28.2-26c0-14.3,12.2-26.1,28.1-26.3
		c29.9-0.3,59.8-0.3,89.7,0c17,0.2,27.5,10.6,27.5,26.2c0,15.5-10.7,25.9-27.5,26.1C236.6,71.6,221.9,71.4,207.2,71.4z"/>
	<path class="st1" d="M339.5,336.5c-5.2,0-10.4,0.1-15.6,0c-13.2-0.3-21.3-7-22.4-18.5c-1.2-13.2,4.7-22.7,17.5-24.6
		c13.7-2.1,27.7-2.1,41.4,0.1c12.6,2,18.6,11.7,17.4,24.8c-1,10.8-9.1,17.8-21.4,18.2C350.8,336.7,345.2,336.5,339.5,336.5z"/>
	<path class="st0" d="M275.6,171.8c-5.9-6.6-12.8-10.4-22.1-10.8c-7.8-0.3-14.7-3.9-19.4-10.7c7.3-0.2,14.7-0.6,22-0.4
		C271.2,150.4,276.5,156.5,275.6,171.8z"/>
</g>
</svg>
