<svg id="Слой_1" data-name="Слой 1" xmlns="http://www.w3.org/2000/svg" viewBox="0 0 50 50"><defs><style>.cls-1{font-size:14.03px;}.cls-1,.cls-2,.cls-3{fill:#fff;}.cls-1,.cls-3{font-family:THEJACKMARRON, THE JACK MARRON;}.cls-3{font-size:28.16px;}</style></defs><text class="cls-1" transform="matrix(1, 0, 0, 1, 78.16, 20.33)">5</text><path class="cls-2" d="M5.3,22.72a3.11,3.11,0,0,1,.56-2,2.91,2.91,0,0,1,.51-.54l5.16-3.88.3.89Q15.22,27.09,18.62,37a5,5,0,0,0,5.08,3.52.44.44,0,0,1,.24.06c-.49.37-1,.77-1.48,1.11a2.72,2.72,0,0,1-3.78-.68q-6.39-8.5-12.77-17l-.3-.4Z"/><path class="cls-2" d="M43.9,11.13a3.24,3.24,0,0,0-.33-1.4,2.75,2.75,0,0,0-2.71-1.48L27,8.48a4.74,4.74,0,0,0-1.25.11,2.75,2.75,0,0,0-2,2.93Q23.86,22,24,32.46a9.91,9.91,0,0,0,.12,1.08A2.82,2.82,0,0,0,27,35.41l14.4-.22a2.73,2.73,0,0,0,2.82-2.93Q44.09,21.7,43.9,11.13Z"/><path class="cls-2" d="M21.54,10.67c.11,7.27.26,14.49.31,21.72a5.1,5.1,0,0,0,4.25,5.14l.17.07c-.51.18-.95.32-1.38.48a3.76,3.76,0,0,1-1.81.32,2.92,2.92,0,0,1-2.44-2.09L17.12,26l-3.27-9.57a2.76,2.76,0,0,1,.66-3.05,2.72,2.72,0,0,1,.91-.6C17.45,12.05,19.48,11.37,21.54,10.67Z"/><text class="cls-3" transform="translate(28.03 30.6) rotate(-0.23)">5</text></svg>