<svg id="Слой_1" data-name="Слой 1" xmlns="http://www.w3.org/2000/svg" viewBox="0 0 100 50"><defs><style>.cls-1{fill:#db2878;}.cls-2{font-size:14.03px;fill:#1d1e1b;font-family:THEJACKMARRON, THE JACK MARRON;}</style></defs><path class="cls-1" d="M23.22,30.36a4.85,4.85,0,0,1-.12,1.76,2,2,0,0,1-.75,1.19,5.42,5.42,0,0,1-2.15.62l-.6.11a1.46,1.46,0,0,0-1.11.64,2.41,2.41,0,0,0-.18,1.19q0,.74,0,1.17h0a2.87,2.87,0,0,1-.22,1.62,1.08,1.08,0,0,1-.79.56,4.81,4.81,0,0,1-1.08,0l-.56,0c-.31,0-.54-.28-.68-.83a9.07,9.07,0,0,1-.25-1.95c0-.75,0-1.42,0-2a10.57,10.57,0,0,1,.08-1.17c0-.54,0-1.06,0-1.57,0-1.24,0-2.24,0-3v0h0a6.69,6.69,0,0,1,.07-1.53,1.93,1.93,0,0,1,.28-.73.6.6,0,0,1,.3-.22,9.35,9.35,0,0,1,.95-.08h.29a13,13,0,0,1,2.36,0,6.94,6.94,0,0,1,2,.51,3.72,3.72,0,0,1,1.61,1.31A4,4,0,0,1,23.22,30.36Zm-4.34,1.25a1.24,1.24,0,0,0,1.06-.44,1.94,1.94,0,0,0,.5-1.18.89.89,0,0,0-.43-.88,2.82,2.82,0,0,0-1-.24l-.26,0c-.4,0-.64.05-.73.29A1.92,1.92,0,0,0,18,30c0,.17,0,.33,0,.48a1.71,1.71,0,0,0,.13.79C18.22,31.44,18.48,31.55,18.88,31.61Z"/><path class="cls-1" d="M26.54,28.34a3.33,3.33,0,0,1,1.16-.14,2.49,2.49,0,0,1,1.06.22c.2.14.28.6.23,1.36s-.15,1.62-.3,2.58-.31,1.82-.45,2.56q-.15.8-.21,1.14c0,.25.17.42.57.49a7.86,7.86,0,0,0,1.4.13,9.39,9.39,0,0,1,1.63.17c.46.1.68.32.66.67s-.5.8-1.19,1a10,10,0,0,1-2.43.52,23.78,23.78,0,0,1-2.52.15c-.45,0-.75-.35-.89-1.06a10.62,10.62,0,0,1-.17-2.59c0-1,.12-2.06.25-3.08s.31-2.24.56-3.65A.88.88,0,0,1,26.54,28.34Z"/><path class="cls-1" d="M42.74,38.06a1.09,1.09,0,0,1-.84,1.18,2.48,2.48,0,0,1-1.64,0c-.07,0-.18-.11-.34-.3a3.32,3.32,0,0,1-.51-1A9.77,9.77,0,0,1,39,36c0-.09,0-.14,0-.14,0-.22-.24-.34-.64-.38h-.09a3.66,3.66,0,0,0-.58,0,.55.55,0,0,0-.42.27h0a.63.63,0,0,0-.08.22,4.33,4.33,0,0,0-.21,1.24,3.07,3.07,0,0,1-.27,1.35,1.33,1.33,0,0,1-1.24.59h-.06a1.09,1.09,0,0,1-.69,0,.78.78,0,0,1-.47-.47,5,5,0,0,1-.12-3,26.11,26.11,0,0,1,1.23-3.49,20.22,20.22,0,0,0,.94-2.48,2,2,0,0,1,1.33-1.37,4.35,4.35,0,0,1,1.85-.15,1.83,1.83,0,0,1,1.21.72,2.88,2.88,0,0,1,.58,1.63,16.59,16.59,0,0,0,1.42,7.11A.72.72,0,0,1,42.74,38.06Zm-5.11-4.8a3,3,0,0,0,.5.07.78.78,0,0,0,.53-.12c.15-.1.22-.31.2-.63a4.11,4.11,0,0,0-.47-1.43c-.17.26-.31.5-.42.7s-.21.4-.3.61a1.94,1.94,0,0,0-.16.53Q37.48,33.22,37.63,33.26Z"/><path class="cls-1" d="M53.75,28.66c.12.08.21.36.29.83A9.36,9.36,0,0,1,53.93,32h0a.2.2,0,0,0,0,.07c-.11.83-.18,1.66-.23,2.49a16.22,16.22,0,0,1-.41,3.19,1.74,1.74,0,0,1-1.42,1.5,2.48,2.48,0,0,1-1.38-.52,8.66,8.66,0,0,1-1.28-1,4.06,4.06,0,0,1-.57-.62c-.22-.29-.43-.58-.64-.89s-.46-.69-.74-1.14a6.37,6.37,0,0,0-.19,1.76c0,.24,0,.47,0,.71h0a2.6,2.6,0,0,1-.19,1.24c-.13.25-.49.4-1.07.46a1.35,1.35,0,0,1-.6-.06.87.87,0,0,1-.38-.25,1.12,1.12,0,0,1-.19-.33,2.09,2.09,0,0,1-.09-.41,20.73,20.73,0,0,1-.19-4.59,24.6,24.6,0,0,1,.42-3.24,4.64,4.64,0,0,1,.44-1.3,1.32,1.32,0,0,1,1-.8,5.89,5.89,0,0,1,.68,0,1.22,1.22,0,0,1,1.18.87c0,.2.12.42.18.67l.23.84c.18.62.41,1.28.69,2a17,17,0,0,0,.81,1.8c.26.48.44.69.54.61a1.51,1.51,0,0,0,.16-.63c0-.33.07-.7.09-1.1s.05-.9.07-1.5c0-.14,0-.28,0-.41,0-.61.11-1.22.2-1.82a1.94,1.94,0,0,1,.44-1.05,1.25,1.25,0,0,1,1.1-.33,2.23,2.23,0,0,1,.45.09,2.93,2.93,0,0,1,.39.16A1,1,0,0,1,53.75,28.66Z"/><path class="cls-1" d="M65.24,28.66a1.52,1.52,0,0,1,.29.83A9.82,9.82,0,0,1,65.42,32h0a.2.2,0,0,0,0,.07c-.11.83-.19,1.66-.23,2.49a16.16,16.16,0,0,1-.42,3.19,1.73,1.73,0,0,1-1.41,1.5A2.48,2.48,0,0,1,62,38.71a8.66,8.66,0,0,1-1.28-1,4.06,4.06,0,0,1-.57-.62c-.22-.29-.43-.58-.65-.89S59,35.49,58.73,35a6.75,6.75,0,0,0-.18,1.76c0,.24,0,.47,0,.71h0a2.6,2.6,0,0,1-.19,1.24c-.13.25-.49.4-1.08.46a1.39,1.39,0,0,1-.6-.06.9.9,0,0,1-.37-.25,1.12,1.12,0,0,1-.19-.33,3.08,3.08,0,0,1-.1-.41,21.32,21.32,0,0,1-.18-4.59,24.6,24.6,0,0,1,.42-3.24,4.34,4.34,0,0,1,.44-1.3,1.32,1.32,0,0,1,1-.8,5.89,5.89,0,0,1,.68,0,1.22,1.22,0,0,1,1.18.87c.05.2.11.42.18.67s.14.54.23.84a19.84,19.84,0,0,0,.69,2,17,17,0,0,0,.81,1.8c.26.48.44.69.54.61a1.69,1.69,0,0,0,.16-.63c0-.33.07-.7.09-1.1s0-.9.07-1.5c0-.14,0-.28,0-.41,0-.61.11-1.22.2-1.82A1.94,1.94,0,0,1,63,28.48a1.24,1.24,0,0,1,1.1-.33,2.55,2.55,0,0,1,.45.09,2.93,2.93,0,0,1,.39.16A1.06,1.06,0,0,1,65.24,28.66Z"/><path class="cls-1" d="M74.34,28.92a2.33,2.33,0,0,1,.37.41.7.7,0,0,1,.06.56.51.51,0,0,1-.32.35,1.23,1.23,0,0,1-.46.05,1.37,1.37,0,0,0-1.15.43,2.21,2.21,0,0,0-.42,1.17c-.09.58-.17,1.17-.26,1.75s-.2,1.29-.28,2c0,.1,0,.22,0,.36a3.6,3.6,0,0,0,0,.36q0,.16.09.18a1.94,1.94,0,0,1,1.17.66.92.92,0,0,1,0,.84,2,2,0,0,1-.74.7,6,6,0,0,1-1.58.43,19.06,19.06,0,0,1-3,.09c-.42-.05-.67-.18-.74-.37a.84.84,0,0,1,0-.64,2.51,2.51,0,0,1,.31-.57l.13-.18a1.64,1.64,0,0,1,.25-.21,2.81,2.81,0,0,0,1.14-1.65,7.42,7.42,0,0,0,.11-2,8.14,8.14,0,0,1,.1-1.92.4.4,0,0,0-.17-.48,1.82,1.82,0,0,0-.57-.2,1.89,1.89,0,0,1-.44-.13,1.6,1.6,0,0,1-.53-.34.7.7,0,0,1-.23-.57.94.94,0,0,1,.26-.57,1.15,1.15,0,0,1,.57-.34l1-.29a8.87,8.87,0,0,1,3.5-.59A2.84,2.84,0,0,1,74.34,28.92Z"/><path class="cls-1" d="M85.77,28.66a1.52,1.52,0,0,1,.29.83A9.82,9.82,0,0,1,86,32h0a.2.2,0,0,0,0,.07c-.11.83-.19,1.66-.23,2.49a16.94,16.94,0,0,1-.42,3.19,1.73,1.73,0,0,1-1.42,1.5,2.48,2.48,0,0,1-1.37-.52,9.37,9.37,0,0,1-1.29-1,3.62,3.62,0,0,1-.56-.62c-.22-.29-.44-.58-.65-.89s-.46-.69-.74-1.14a6.75,6.75,0,0,0-.18,1.76c0,.24,0,.47,0,.71h0a2.73,2.73,0,0,1-.19,1.24c-.14.25-.49.4-1.08.46a1.39,1.39,0,0,1-.6-.06.84.84,0,0,1-.37-.25,1.17,1.17,0,0,1-.2-.33,2.09,2.09,0,0,1-.09-.41,21.32,21.32,0,0,1-.18-4.59,26.81,26.81,0,0,1,.41-3.24,4.69,4.69,0,0,1,.45-1.3,1.31,1.31,0,0,1,1-.8,6,6,0,0,1,.69,0,1.22,1.22,0,0,1,1.18.87c0,.2.11.42.18.67s.14.54.23.84a19.64,19.64,0,0,0,.68,2c.29.72.56,1.31.81,1.8s.44.69.54.61a1.51,1.51,0,0,0,.16-.63c0-.33.08-.7.1-1.1s.05-.9.07-1.5c0-.14,0-.28,0-.41,0-.61.1-1.22.2-1.82a1.87,1.87,0,0,1,.44-1.05,1.23,1.23,0,0,1,1.1-.33,2.55,2.55,0,0,1,.45.09,2.39,2.39,0,0,1,.38.16A1,1,0,0,1,85.77,28.66Z"/><path class="cls-1" d="M96.05,32A1.82,1.82,0,0,1,97,33a3.16,3.16,0,0,1,.08,1.48c0,.34-.09.69-.13,1.05a16,16,0,0,1-.24,1.69h0s0,0,0,0h0l0,.05h0l0,0h0a.59.59,0,0,0,0,.08h0a.35.35,0,0,1,0,.08h0l-.07.11h0l-.09.11a0,0,0,0,1,0,0h0L96.2,38h0l-.14.12h0a1.4,1.4,0,0,1-.18.13l-.19.13h0s0,0,0,0l-.47.26h0a5.66,5.66,0,0,1-.59.22h0a8,8,0,0,1-2.56.33,4.43,4.43,0,0,1-1.87-.35,3.26,3.26,0,0,1-1.44-1.19A4.21,4.21,0,0,1,88,36.27a4.7,4.7,0,0,1-.12-.75c0-.2,0-.31,0-.33h0a8.66,8.66,0,0,1,.53-4,5.82,5.82,0,0,1,1.09-1.86,3.33,3.33,0,0,1,1.91-1,13.28,13.28,0,0,1,3.77-.14,2.32,2.32,0,0,1,.77.17.75.75,0,0,1,.45.67,1.05,1.05,0,0,1,.06.33,1,1,0,0,1-.32.71,1.74,1.74,0,0,1-.53.35,3.82,3.82,0,0,1-.91.27,9.83,9.83,0,0,1-1.38.13H93a4.17,4.17,0,0,0-.77.1,2.65,2.65,0,0,0-.83.36,1.3,1.3,0,0,0-.52.74,6.51,6.51,0,0,0-.19,2,5.36,5.36,0,0,0,.12,1.11,2.48,2.48,0,0,0,.34.8,2.65,2.65,0,0,0,.44.3,1.81,1.81,0,0,0,.55.15,2.42,2.42,0,0,0,.79,0c1-.12,1.51-.53,1.61-1.23,0-.45-.09-.71-.37-.79a4,4,0,0,0-.91-.05,1.26,1.26,0,0,1-.77-.15.92.92,0,0,1-.37-.8v-.11h0v0a2.28,2.28,0,0,1,.16-.74.92.92,0,0,1,.48-.42,3,3,0,0,1,.75-.21,8.21,8.21,0,0,1,1-.1A2.69,2.69,0,0,1,96.05,32Z"/><path class="cls-1" d="M3.69,17.71a1.54,1.54,0,0,1,.28-1,2.11,2.11,0,0,1,.25-.27l2.57-1.93.15.44,3.39,9.91a2.48,2.48,0,0,0,2.53,1.76.16.16,0,0,1,.12,0c-.25.18-.48.38-.74.55a1.35,1.35,0,0,1-1.88-.34C8.23,24,6.12,21.18,4,18.35l-.15-.2Z"/><path class="cls-1" d="M13.08,23.1c0-.18-.05-.36-.06-.54q-.07-5.22-.16-10.44a1.37,1.37,0,0,1,1-1.46,2.56,2.56,0,0,1,.62-.05l6.92-.11a1.35,1.35,0,0,1,1.35.73,1.54,1.54,0,0,1,.17.7q.09,5.27.16,10.53a1.36,1.36,0,0,1-1.41,1.46L14.5,24A1.41,1.41,0,0,1,13.08,23.1Z"/><path class="cls-1" d="M11.78,11.7c.06,3.62.13,7.22.16,10.82a2.55,2.55,0,0,0,2.12,2.57l.08,0-.69.24a1.85,1.85,0,0,1-.9.16,1.45,1.45,0,0,1-1.21-1c-.59-1.71-1.17-3.43-1.76-5.14L8,14.57a1.37,1.37,0,0,1,.33-1.52,1.32,1.32,0,0,1,.45-.3C9.74,12.39,10.76,12.05,11.78,11.7Z"/><text class="cls-2" transform="matrix(1, 0, 0, 1, 15.02, 21.63)">5</text><path class="cls-1" d="M33.84,15.05a5.08,5.08,0,0,1-.12,1.76A2,2,0,0,1,33,18a5.59,5.59,0,0,1-2.15.62l-.6.1a1.46,1.46,0,0,0-1.11.65,2.41,2.41,0,0,0-.18,1.19c0,.49,0,.88,0,1.16h0a3,3,0,0,1-.22,1.63,1.08,1.08,0,0,1-.79.56,4.88,4.88,0,0,1-1.09,0l-.55,0c-.31,0-.54-.28-.68-.84a9.49,9.49,0,0,1-.26-1.94c0-.75,0-1.42,0-2a10.57,10.57,0,0,1,.08-1.17c0-.54,0-1.06,0-1.57,0-1.24,0-2.24,0-3v0h0a6.16,6.16,0,0,1,.07-1.53,1.93,1.93,0,0,1,.28-.73.54.54,0,0,1,.3-.22,9.35,9.35,0,0,1,1-.08h.29a14,14,0,0,1,2.35,0,6.94,6.94,0,0,1,2,.52,3.72,3.72,0,0,1,1.61,1.31A4,4,0,0,1,33.84,15.05ZM29.5,16.3a1.27,1.27,0,0,0,1.06-.44,1.93,1.93,0,0,0,.49-1.18.87.87,0,0,0-.42-.88,2.61,2.61,0,0,0-1-.24l-.25,0c-.4,0-.65.05-.73.28a2,2,0,0,0-.09.87c0,.17,0,.33,0,.48a1.61,1.61,0,0,0,.13.79Q28.89,16.21,29.5,16.3Z"/><path class="cls-1" d="M39.65,23.89a7.84,7.84,0,0,1-1.14-.43,6.38,6.38,0,0,1-1.73-2A6.17,6.17,0,0,1,36,18.21a6,6,0,0,1,1.34-3.53,6.51,6.51,0,0,1,1.9-1.58,1.5,1.5,0,0,1,.56-.15A6,6,0,0,1,41.4,13a2.92,2.92,0,0,1,.45.18,4.5,4.5,0,0,1,.94.63,4.58,4.58,0,0,1,1,1.27,6.31,6.31,0,0,1,.71,2.15,11.07,11.07,0,0,1-.65,4.22,3.93,3.93,0,0,1-.42.78,3.71,3.71,0,0,1-1.36,1.26A4.08,4.08,0,0,1,39.65,23.89Zm-.49-5.53v.47a5.1,5.1,0,0,0,.1.81,2.52,2.52,0,0,0,.27.8h0a1.1,1.1,0,0,0,.9.65.78.78,0,0,0,.68-.22,1.8,1.8,0,0,0,.37-.58l.06-.13a2.73,2.73,0,0,0,.24-2,8.29,8.29,0,0,0-.74-1.82c-.2-.37-.37-.74-.54-1.12a8.57,8.57,0,0,0-.95,1.53A4.48,4.48,0,0,0,39.16,18.36Z"/><path class="cls-1" d="M55,21.8a.82.82,0,0,1,.41.69.68.68,0,0,1-.26.53,1.94,1.94,0,0,1-1.06.32,2.51,2.51,0,0,1-1.38-.44,15.5,15.5,0,0,1-1.43-1c-.44-.36-.94-.82-1.51-1.36,0,.3-.08.54-.09.72a4.81,4.81,0,0,0,0,.52q0,.25,0,.66c-.13.78-.38,1.24-.74,1.38l-.14.06A3.93,3.93,0,0,1,48,24a1.58,1.58,0,0,1-.56-.06,1.18,1.18,0,0,1-.37-.15,1.38,1.38,0,0,1-.26-.23,5,5,0,0,1-.27-1.94,18.38,18.38,0,0,0,.16-2.1c0-.56,0-1.11,0-1.66,0-.89,0-1.77.07-2.66a2.74,2.74,0,0,1,1.8-2.5.72.72,0,0,1,1,.27A3.26,3.26,0,0,1,50,14.35a7.89,7.89,0,0,1,0,1.75,9,9,0,0,0,1.09-1.31c.34-.47.68-.9,1-1.3a2.6,2.6,0,0,1,1-.78,3.76,3.76,0,0,1,.72-.17,1.34,1.34,0,0,1,.69.06l.14.08.08.05h0a.84.84,0,0,1,.31.65.87.87,0,0,1-.29.68l-2.75,3.87a.46.46,0,0,0-.08.3.46.46,0,0,0,.11.27Z"/><path class="cls-1" d="M58.11,23.51c-.45-.27-.72-.9-.79-1.9a17.71,17.71,0,0,1,.11-3.36q.23-1.86.51-3.3a15.3,15.3,0,0,1,.4-1.69q.07-.15.42-.24a5.73,5.73,0,0,1,.84-.13h2.28c.6,0,1.15,0,1.67,0a5.88,5.88,0,0,1,1.07.11.69.69,0,0,1,.46.67v0a1.53,1.53,0,0,1-.3,1,1.6,1.6,0,0,1-.83.58,9.45,9.45,0,0,1-1,.24,3.36,3.36,0,0,1-1,0,1,1,0,0,0-.92.36,1.25,1.25,0,0,0-.36.86.58.58,0,0,0,.5.6,2.72,2.72,0,0,0,.79.07,1.73,1.73,0,0,0,.52-.16l.61-.21a1.57,1.57,0,0,1,.86,0,.79.79,0,0,1,.52.61.83.83,0,0,1-.24.86,2,2,0,0,1-.89.36l-.62.16a8,8,0,0,0-1,.15,3.34,3.34,0,0,0-.71.26.88.88,0,0,0-.43.47,1.78,1.78,0,0,0-.07.83,1,1,0,0,0,.39.68,1.38,1.38,0,0,0,1.1.07l.11,0,.06,0h0a7.25,7.25,0,0,1,1-.19,1.89,1.89,0,0,1,1,.12.88.88,0,0,1,.32.74,1.69,1.69,0,0,1-.26.94,2.35,2.35,0,0,1-.59.51,5.75,5.75,0,0,1-1.22.25,14.35,14.35,0,0,1-1.8.1c-.39-.05-.77-.11-1.16-.18l-1.19-.18-.17,0h-.06Z"/><path class="cls-1" d="M74.54,19.61c.2.18.48.44.83.79a13.23,13.23,0,0,1,1,1.05,2.17,2.17,0,0,1,.49.83,3,3,0,0,1-.54.75,4.79,4.79,0,0,1-.61.55,2.89,2.89,0,0,1-.35.23,1.21,1.21,0,0,1-.93-.48,8.9,8.9,0,0,1-.79-1.1,7.19,7.19,0,0,0-.82-1.13l-.5-.45a2.34,2.34,0,0,0-.4-.27,1.28,1.28,0,0,0-.29-.12.52.52,0,0,0-.21,0,.34.34,0,0,0-.15.06.39.39,0,0,0-.08.1.83.83,0,0,0,0,.12c0,.28,0,.7-.08,1.23a4.34,4.34,0,0,1-.4,1.69.81.81,0,0,1-.64.49,2.53,2.53,0,0,1-.83-.12l-.2-.05q-.1,0-.27-.24a2.33,2.33,0,0,1-.27-.87,10,10,0,0,1,0-1.85,27.26,27.26,0,0,1,.46-3.19c0-.14.08-.28.12-.44a.69.69,0,0,0,.05-.13l0-.3a.37.37,0,0,0-.21-.35c-.21-.11-.35-.12-.44,0a.81.81,0,0,0-.2.37,1.59,1.59,0,0,1-.12.27.39.39,0,0,1-.19.17Q65.66,14,69.32,13.07a6.35,6.35,0,0,1,5.87.89q2.64,1.95,0,3.83c-1,.63-1.28,1.19-.84,1.65h0A1.33,1.33,0,0,0,74.54,19.61Zm-3.07-2.4a5.27,5.27,0,0,0,1.46-.36,1.19,1.19,0,0,0,.75-1.21.78.78,0,0,0-.38-.6,1.12,1.12,0,0,0-.68-.16c-.55,0-.89.25-1,.61a2.92,2.92,0,0,0-.14,1.16A5.09,5.09,0,0,1,71.47,17.21Z"/></svg>