<svg id="Слой_1" data-name="Слой 1" xmlns="http://www.w3.org/2000/svg" viewBox="0 0 141.73 141.73"><defs><style>.cls-1{fill:#fff;}</style></defs><path class="cls-1" d="M116,27.63c-4.57-5.52-10.67-9.54-19.2-12.65A61.18,61.18,0,0,0,58.51,13.9c-14.5,4.49-26,14.49-33.38,28.92a98.79,98.79,0,0,0-11,44.68c0,12.74,2.85,24.14,7.79,31.25,6.09,8.79,9.39,11.65,15,11.65,2.78,0,6.13-.72,10.67-1.76l1.91-.44c26.48-6,62.27-15.42,67.36-27,.49-1.12,1-2.27,1.54-3.44,5.58-12.4,12.54-27.83,7.76-47.86C123.72,40.13,120.54,33.05,116,27.63Zm8.62,37.79c0,.7,0,1.38-.07,2s-.09,1.25-.13,1.82c-.1,1.15-.18,2.14-.31,2.95s-.2,1.46-.27,1.89l-.09.67,0-.68c0-.44,0-1.08.07-1.9s0-1.81.05-3c0-.57,0-1.17,0-1.81s0-1.31-.05-2-.07-1.42-.12-2.17c0-.38-.05-.76-.07-1.15,0-.19,0-.39,0-.58l-.06-.6c-.09-.79-.18-1.61-.27-2.44s-.24-1.68-.37-2.54-.32-1.72-.48-2.6c-.07-.44-.19-.88-.29-1.32l-.3-1.33c-.22-.88-.48-1.76-.72-2.65s-.55-1.77-.85-2.64c-.62-1.75-1.27-3.48-2-5.13s-1.58-3.25-2.43-4.76c-.46-.75-.88-1.49-1.34-2.19l-.67-1-.68-1c-.93-1.3-1.84-2.5-2.74-3.57a47.48,47.48,0,0,0-4.66-4.87c-.61-.55-1.1-1-1.44-1.24s-.54-.41-.54-.41.21.11.58.35.92.59,1.57,1.09,1.45,1.1,2.31,1.87A37.8,37.8,0,0,1,111,27.19c.49.51,1,1.07,1.48,1.65.25.28.49.59.74.9s.5.61.74.94a46.36,46.36,0,0,1,2.91,4.21,51.4,51.4,0,0,1,2.59,4.83A54.56,54.56,0,0,1,121.6,45c.3.9.58,1.81.85,2.71s.5,1.82.71,2.73.41,1.81.56,2.71.3,1.79.42,2.67.21,1.74.3,2.59.11,1.68.16,2.49c0,.2,0,.4,0,.6s0,.4,0,.6c0,.39,0,.78,0,1.16C124.68,64,124.7,64.71,124.66,65.42ZM40.5,127.15c-.48.08-.93.18-1.43.25a7.5,7.5,0,0,1-1.49.09,9.35,9.35,0,0,1-2.78-.56,14.25,14.25,0,0,1-4.37-2.63,23.37,23.37,0,0,1-3-3.06,31.72,31.72,0,0,1-1.95-2.62c-.51-.75-.87-1.37-1.11-1.79s-.36-.65-.36-.65.54.88,1.63,2.32c.55.72,1.23,1.57,2.08,2.49a26.86,26.86,0,0,0,3.06,2.84,14.39,14.39,0,0,0,4.24,2.37,8.68,8.68,0,0,0,2.55.43,8.42,8.42,0,0,0,1.33-.1l1.4-.28c1.9-.38,3.83-.83,5.81-1.27l6-1.41,11.79-2.82,10.29-2.44,7.29-1.68,2-.46.72-.16-.71.22-2,.59c-1.73.5-4.21,1.23-7.19,2.05q-2.25.63-4.83,1.32c-1.71.46-3.52,1-5.39,1.43s-3.81,1-5.79,1.48l-6,1.46c-2,.48-4,.94-6,1.38S42.4,126.8,40.5,127.15ZM21.28,109.09a48,48,0,0,1-2.79-11.35s10.63,9.16,41.42,2.05c26.22-6.07,35.67-12,48.08-25C108,74.77,94.89,106.53,21.28,109.09Zm90.08-33.78q-.15.48-.3.93l-.14.45-.16.43-.63,1.6c-.2.5-.37,1-.56,1.4L109,81.28c-.32.71-.59,1.25-.77,1.62l-.27.57s.06-.21.19-.6.29-1,.53-1.71c.12-.36.25-.77.4-1.21l.4-1.44c.29-1,.63-2.18.9-3.46.15-.64.32-1.3.45-2s.26-1.41.39-2.14.21-1.5.31-2.28c0-.38.09-.77.15-1.17s.05-.8.07-1.2,0-.81.08-1.22,0-.82,0-1.24c0-.83,0-1.67-.08-2.51L111.69,60c0-.42-.12-.84-.18-1.26l0-.1c0,.19,0,.37,0,.56a27.59,27.59,0,0,1-2.52,9.32,34.27,34.27,0,0,1-5.33,8,47.47,47.47,0,0,1-7,6.44,62.72,62.72,0,0,1-7.86,5A84.13,84.13,0,0,1,80.5,92c-2.76,1.14-5.52,2.14-8.27,3s-5.44,1.58-8.09,2.24A116.82,116.82,0,0,1,49,100a68.63,68.63,0,0,1-13,.3,48.17,48.17,0,0,1-9.86-1.76,39.1,39.1,0,0,1-6-2.32c-.66-.33-1.17-.59-1.5-.78l-.51-.28.52.26c.34.18.85.42,1.52.73a41.09,41.09,0,0,0,6,2.14,48,48,0,0,0,9.81,1.5,73.41,73.41,0,0,0,12.87-.55,116.12,116.12,0,0,0,15-3c2.62-.7,5.3-1.46,8-2.34s5.43-1.88,8.15-3A73.13,73.13,0,0,0,95.78,82a45.51,45.51,0,0,0,6.81-6.28,32.72,32.72,0,0,0,5.1-7.72,26.5,26.5,0,0,0,2.43-8.88,6.82,6.82,0,0,0-.71-4.17,6.17,6.17,0,0,0-3.28-2.56,16.7,16.7,0,0,0-4.36-.94,38,38,0,0,0-4.53-.15c-3,.06-6,.34-8.95.66-5.88.68-11.56,1.52-17,2.07-2.71.27-5.36.48-7.93.55-1.29,0-2.56,0-3.79,0l-3.63,0c-4.75,0-9.1-.08-13-.13l-10-.12-8.7-.13L33,54l10-.12c3.86,0,8.21-.1,13-.13l3.63,0c1.24,0,2.49,0,3.76-.06,2.54-.1,5.16-.34,7.86-.66,5.39-.62,11-1.56,17-2.26,3-.35,6-.66,9.07-.74a40.86,40.86,0,0,1,4.68.12,17.88,17.88,0,0,1,4.71,1,8.78,8.78,0,0,1,2.21,1.19A6.74,6.74,0,0,1,110.36,54a.5.5,0,0,1,0-.13c-.16-.39-.31-.79-.47-1.18l-.23-.59-.27-.56a24.33,24.33,0,0,0-2.49-4.24l-.72-.94c-.25-.31-.52-.6-.76-.89L105,45l-.39-.41c-.27-.27-.52-.54-.79-.8a37,37,0,0,0-3.2-2.68c-1.07-.74-2.07-1.4-3-1.92s-1.75-1-2.45-1.27-1.25-.57-1.63-.71S93,37,93,37l.62.14c.4.09,1,.24,1.73.48a28.51,28.51,0,0,1,5.85,2.7,27.88,27.88,0,0,1,3.51,2.55,25.13,25.13,0,0,1,3.38,3.51c.28.32.51.69.77,1s.51.7.73,1.08l.69,1.13c.21.39.4.79.6,1.19l.3.6.25.63.51,1.25c.13.43.27.86.41,1.3l.2.65c.07.21.11.44.16.66L113,57.2a5.09,5.09,0,0,1,.12.66l.09.67c.06.45.13.89.18,1.34s.05.89.08,1.33l0,.67c0,.22,0,.44,0,.66,0,.44,0,.87,0,1.31s0,.86,0,1.29l-.12,1.26-.12,1.25c-.07.4-.13.8-.21,1.2-.14.79-.25,1.58-.45,2.32L112,73.32C111.78,74,111.56,74.67,111.36,75.31ZM87.61,68.4c.19,1.17.43,2.38.6,3.62a22.66,22.66,0,0,1,.26,3.78A15,15,0,0,1,88,79.49a13.68,13.68,0,0,1-1.37,3.21c-.29.47-.59.92-.89,1.33s-.63.79-1,1.14a15.57,15.57,0,0,1-1.88,1.75,16.41,16.41,0,0,1-1.59,1.15c-.45.3-.82.51-1.08.65l-.38.22.32-.3c.22-.19.53-.48.92-.85s.84-.83,1.35-1.37A24.14,24.14,0,0,0,84,84.52a16.77,16.77,0,0,0,1.47-2.44,13.86,13.86,0,0,0,1-3,15.11,15.11,0,0,0,.35-3.33,28.38,28.38,0,0,0-.27-3.52c-.16-1.2-.37-2.4-.53-3.62a14.52,14.52,0,0,1-.09-3.73c0-.16,0-.31.08-.47s.08-.34.12-.46c.09-.3.18-.55.26-.82.18-.53.35-1,.51-1.54.34-1,.68-1.95,1-2.82.63-1.73,1.18-3.17,1.59-4.16s.65-1.57.65-1.57l-.36,1.66c-.24,1.05-.59,2.54-1,4.33C88.5,60,88.27,60.92,88,62c-.12.51-.25,1-.39,1.57-.06.26-.14.55-.19.8a2.7,2.7,0,0,0-.06.36c0,.13,0,.26,0,.39A14.45,14.45,0,0,0,87.61,68.4ZM55,57.92h.44c1.94-.08,3.87-.19,5.78-.31.95-.08,1.89-.14,2.82-.23l2.75-.26L68.11,57c-8.31,5-27.67,18.7-36.5,41.43a14.11,14.11,0,0,1-3-.63S37.56,68,55,57.92ZM69.81,56l-3.1.19L64,56.34l-2.81.13c-1.15,0-2.31.07-3.47.09.65-.28,1.3-.53,2-.76,0,0,8.06,0,12.38-1C72,54.78,71.22,55.18,69.81,56Zm-25.56.6H34.19l-3.95.07c-1.18,0-2.21.08-3,.11l-2,.11-.7,0,.69.11c.45.06,1.12.15,2,.24s1.87.2,3,.3l1.87.14c.66,0,1.36.09,2.08.12l2.26.11,2.42.08,2.56.07h1.41C37.43,63.93,24,80.13,24,96.68c0,0-1.9-.31-5.54-2.62,0,0-2.12-19.77,5.24-38.26H45S44.74,56.07,44.25,56.58Zm-1-18.18h.08l1.87,0,2,0c1.33,0,2.7,0,4.09.06l2.1.06h1c.35,0,.72,0,1,0,1.34-.06,2.73-.17,4.1-.35s2.7-.36,4-.59,2.54-.46,3.73-.7l3.34-.72,2.81-.66c.84-.2,1.57-.38,2.17-.54l1.88-.49-.47.2-1.34.53-2.09.78c-.81.3-1.74.62-2.75,1l-1.57.51-1.71.52c-1.17.35-2.41.7-3.7,1s-2.65.64-4,.9-2.8.47-4.28.63c-.37,0-.71,0-1.06.08l-.53,0h-.56l-2.1.06c-1,0-2.05,0-3.05.05-.75,0-1.5-.08-2.23-.1l-2-.06-1.87,0c-1.21,0-2.36,0-3.42,0-2.13.06-3.9.22-5.14.38s-2,.33-2,.33.7.21,1.93.46a48.31,48.31,0,0,0,5.1.76c.61.07,1.26.12,1.92.17a58.5,58.5,0,0,0-4.86,10.42H25.15C43.43,6.79,83.9,14.64,83.9,14.64,63.11,15.71,50.39,28,43.28,38.4ZM88,25.93a28,28,0,0,1,4.55-1.19,21.47,21.47,0,0,1,4.57-.28,18.16,18.16,0,0,1,4.21.7,17.57,17.57,0,0,1,3.54,1.45c.52.27,1,.58,1.45.86s.87.59,1.23.89.73.57,1,.86a10.48,10.48,0,0,1,.82.77c.25.24.46.45.64.64l.45.5.37.42-.41-.38-.49-.45-.69-.59c-.25-.22-.55-.45-.87-.69s-.68-.51-1.07-.77-.82-.52-1.26-.8-.94-.52-1.46-.75a18.26,18.26,0,0,0-7.53-1.77,21,21,0,0,0-4.36.35,27.32,27.32,0,0,0-4.38,1.19,36.22,36.22,0,0,0-4.18,1.83c-.67.34-1.31.7-2,1.08s-1.32.74-2,1.05a42.15,42.15,0,0,1-3.89,1.67c-1.26.47-2.46.87-3.58,1.21l-1.61.47-1.46.38c-.92.23-1.72.42-2.39.55-1.33.29-2.1.41-2.1.41s.75-.21,2-.62l2.33-.74c.89-.3,1.9-.64,3-1s2.26-.85,3.48-1.36,2.49-1.09,3.76-1.76c.64-.32,1.25-.7,1.9-1.07s1.32-.77,2-1.12A33.18,33.18,0,0,1,88,25.93Z"/></svg>