<svg id="Слой_1" data-name="Слой 1" xmlns="http://www.w3.org/2000/svg" viewBox="0 0 283.46 141.73"><defs><style>.cls-1{fill:#db2878;}.cls-2{fill:#1d1e1b;}</style></defs><path class="cls-1" d="M80.23,62.92c-1.5-6.27-3.54-10.81-6.42-14.29S67,42.51,61.49,40.51a39.27,39.27,0,0,0-24.59-.68c-9.3,2.87-16.7,9.29-21.41,18.55A63.29,63.29,0,0,0,8.4,87c0,8.18,1.83,15.48,5,20,3.91,5.64,6,7.47,9.59,7.47a33.1,33.1,0,0,0,6.84-1.13l1.23-.28c17-3.88,39.94-9.89,43.2-17.31l1-2.21C78.83,85.67,83.3,75.77,80.23,62.92ZM58.72,46.77a13.89,13.89,0,0,1,2.93-.17,11.33,11.33,0,0,1,5,1.37c.34.18.64.38.94.56s.55.37.79.57a7.48,7.48,0,0,1,.65.55,6.52,6.52,0,0,1,.53.49c.16.16.3.29.41.42s.21.23.29.32l.24.26-.26-.24-.32-.29-.44-.38c-.16-.14-.35-.29-.56-.44s-.44-.32-.69-.49-.52-.33-.8-.51-.61-.34-.94-.49a12.15,12.15,0,0,0-2.23-.8,12.65,12.65,0,0,0-2.6-.34,14.17,14.17,0,0,0-2.8.23,16.75,16.75,0,0,0-2.81.77,23.55,23.55,0,0,0-2.68,1.16c-.43.23-.84.45-1.26.7s-.84.47-1.27.67a24.89,24.89,0,0,1-2.49,1.07c-.81.31-1.58.56-2.3.78l-1,.3-.93.25-1.54.35c-.85.18-1.34.26-1.34.26l1.31-.39L44,52.83c.57-.19,1.22-.41,1.92-.67s1.45-.54,2.23-.87,1.6-.7,2.41-1.13c.42-.21.81-.45,1.23-.69s.84-.49,1.28-.71a21.88,21.88,0,0,1,2.75-1.22A18,18,0,0,1,58.72,46.77ZM53.19,40.3c-13.34.68-21.5,8.57-26.06,15.24h.06l1.19,0h1.26c.85,0,1.72,0,2.62,0l1.34,0h1.33c.86,0,1.76-.11,2.63-.22s1.74-.24,2.57-.38,1.63-.3,2.39-.46,1.48-.31,2.14-.46l1.81-.42,1.38-.34L49.06,53l-.3.13c-.2.08-.48.2-.86.34l-1.34.5c-.52.19-1.11.4-1.76.61l-1,.33-1.09.34c-.75.22-1.55.44-2.38.65s-1.7.41-2.59.58-1.8.3-2.74.4c-.24,0-.46,0-.69,0l-.34,0H33.6l-1.34,0-2,0L28.87,57l-1.25,0-1.2,0c-.78,0-1.51,0-2.2,0-1.36,0-2.49.15-3.29.25s-1.26.21-1.26.21.45.14,1.24.3,1.91.35,3.27.49l1.24.1A36.83,36.83,0,0,0,22.3,65H15.5C27.23,35.26,53.19,40.3,53.19,40.3ZM53,105.46l-1.29.38c-1.11.32-2.7.79-4.61,1.32L44,108l-3.46.92-3.71,1-3.84.94c-1.29.3-2.58.6-3.85.88s-2.54.55-3.76.77l-.92.17a6.11,6.11,0,0,1-.95.05,5.87,5.87,0,0,1-1.79-.36,9.39,9.39,0,0,1-2.8-1.68,16.5,16.5,0,0,1-1.91-2c-.51-.63-.92-1.21-1.25-1.69s-.55-.87-.71-1.14l-.23-.42s.35.56,1.05,1.49c.35.46.79,1,1.33,1.59a17.82,17.82,0,0,0,2,1.83,9.23,9.23,0,0,0,2.71,1.51,5.33,5.33,0,0,0,1.64.28,6.07,6.07,0,0,0,.85-.06l.9-.18c1.22-.24,2.46-.53,3.73-.82l3.84-.9,7.56-1.81,6.6-1.57,4.68-1.07,1.31-.3.47-.1ZM72.15,71.85c0,.28,0,.56,0,.83s0,.54-.08.81,0,.54-.07.8-.09.52-.14.77c-.09.51-.16,1-.29,1.49s-.22.94-.33,1.39-.27.86-.4,1.27c-.06.21-.13.4-.19.6l-.09.29-.11.27c-.14.36-.27.71-.4,1s-.24.63-.36.9l-.34.74c-.21.46-.38.8-.5,1l-.17.37.12-.39c.08-.25.19-.63.34-1.09.08-.24.16-.5.26-.78s.16-.59.26-.92c.18-.66.4-1.4.58-2.23.09-.41.2-.83.28-1.27s.17-.9.25-1.38.14-1,.2-1.45l.09-.76V74c-1.32,2-2.68,7.09-4.08,7.58-4.2,5.62-17.52,18-53.93,19.28a30.5,30.5,0,0,1-1.79-7.28s6.82,5.88,26.57,1.31c16.82-3.89,22.88-7.69,30.84-16A14.19,14.19,0,0,1,67,81.6c1.33-.54,2.69-5.71,4.09-7.67l0-.52c0-.25,0-.52.05-.78s0-.53,0-.79c0-.53,0-1.07-.06-1.61L71,69.42c0-.27-.07-.54-.11-.81v-.06l0,.35a18,18,0,0,1-1.62,6A22,22,0,0,1,65.82,80a30.29,30.29,0,0,1-4.5,4.13,41,41,0,0,1-5,3.24A53.73,53.73,0,0,1,51,89.92c-1.77.73-3.55,1.37-5.31,1.91s-3.49,1-5.19,1.44a76.06,76.06,0,0,1-9.7,1.79,44.75,44.75,0,0,1-8.33.19,31.16,31.16,0,0,1-6.33-1.13,24,24,0,0,1-3.85-1.49L12,92.47h0l-.11-.06-.52-.28L11,92S9.87,78.56,14.59,66.7l.37-1,5.58-.09L27,65.48c2.47,0,5.26-.07,8.31-.08l2.33,0c.79,0,1.59,0,2.41,0,1.63-.06,3.31-.22,5-.42,3.46-.4,7.09-1,10.88-1.46,1.89-.22,3.83-.42,5.81-.47a25.16,25.16,0,0,1,3,.08,11.48,11.48,0,0,1,3,.64,5.76,5.76,0,0,1,1.42.77,4.22,4.22,0,0,1,1,1l0-.08c-.1-.25-.2-.51-.29-.76l-.15-.37-.18-.37a16.07,16.07,0,0,0-1.59-2.71l-.47-.61c-.16-.2-.33-.38-.49-.57l-.24-.28-.25-.26L66,59a21.65,21.65,0,0,0-2.06-1.71c-.68-.48-1.32-.9-1.92-1.24s-1.12-.61-1.56-.81-.81-.37-1-.46L59,54.62l.4.08c.25.06.63.16,1.1.31a18.44,18.44,0,0,1,3.76,1.73,18.23,18.23,0,0,1,2.25,1.64,16,16,0,0,1,2.17,2.25c.18.21.33.44.49.66s.33.45.47.7l.44.72c.14.25.26.51.39.77l.19.38.16.4.33.81c.08.28.17.55.26.83l.13.42c0,.14.07.28.1.42l.19.85a3.21,3.21,0,0,1,.07.43l.06.43c0,.29.09.57.12.86s0,.57,0,.85l0,.43c0,.14,0,.28,0,.42S72.15,71.58,72.15,71.85Zm7.18,1c0,.45,0,.88,0,1.3s-.06.8-.09,1.16c-.06.74-.11,1.37-.19,1.9s-.14.93-.18,1.21l-.06.42,0-.43c0-.28,0-.69,0-1.22s0-1.16,0-1.89c0-.37,0-.75,0-1.16s0-.84,0-1.29,0-.91-.08-1.4c0-.24,0-.48,0-.73l0-.38c0-.12,0-.25,0-.38,0-.5-.11-1-.16-1.56s-.16-1.08-.24-1.63-.21-1.11-.31-1.67c-.05-.28-.13-.56-.19-.84s-.13-.57-.19-.86c-.14-.56-.31-1.13-.46-1.7s-.36-1.13-.55-1.69a32.66,32.66,0,0,0-1.31-3.29c-.48-1.07-1-2.09-1.56-3.06-.29-.47-.56-1-.85-1.4l-.43-.67L72,51c-.59-.83-1.18-1.61-1.76-2.29a31.47,31.47,0,0,0-3-3.13c-.39-.35-.7-.61-.92-.79l-.34-.26.37.22c.23.16.58.38,1,.7s.93.71,1.48,1.2,1.16,1.06,1.78,1.73c.32.33.63.68,1,1L72,50c.15.2.32.39.47.61a30.36,30.36,0,0,1,1.86,2.7A33.54,33.54,0,0,1,76,56.38a35.27,35.27,0,0,1,1.37,3.36c.19.58.37,1.16.55,1.74s.31,1.16.45,1.75.26,1.16.36,1.73.2,1.15.27,1.72.14,1.12.19,1.66.07,1.08.11,1.6c0,.13,0,.26,0,.38s0,.26,0,.39,0,.5,0,.74C79.35,71.94,79.36,72.41,79.33,72.87Z"/><path class="cls-2" d="M67.45,64.5a11.36,11.36,0,0,0-2.8-.6,28,28,0,0,0-2.9-.1c-1.94,0-3.86.22-5.74.43-3.78.43-7.42,1-10.9,1.32-1.74.18-3.44.32-5.09.36-.83,0-1.64,0-2.43,0l-2.33,0c-3,0-5.84,0-8.31-.08-4.61-.06-4.64-.08-6.41-.08-2.33,0-4.23,0-5.45.09l-.17.45-.18.55,13.51-.12-.5.5h-.11l-1.7,0H21.3c-.93,0-1.78,0-2.53,0l-2,.07-1.26.07-.45,0,.44.07,1.26.16,1.95.18q.57.06,1.2.09c.42,0,.87.07,1.33.09l1.45.06,1.56,0,1.63,0h.91c-3.45,3.75-12,14.13-12,24.75l-.65-.19A13.73,13.73,0,0,1,11,91.25c0,.09,0,.19,0,.3s0,.22,0,.32c.32.18.76.41,1.28.67A26.31,26.31,0,0,0,16.23,94a26.77,26.77,0,0,0,6.27.89,47.47,47.47,0,0,0,8.25-.35,75.76,75.76,0,0,0,9.6-1.92c1.68-.45,3.41-.94,5.14-1.5s3.48-1.21,5.22-1.94a47.18,47.18,0,0,0,10.1-5.71,29.19,29.19,0,0,0,4.36-4,21.19,21.19,0,0,0,3.28-5A17,17,0,0,0,70,68.82a4.41,4.41,0,0,0-.45-2.68A4,4,0,0,0,67.45,64.5ZM19.65,94a8.44,8.44,0,0,1-1.9-.41S23.47,74.5,34.64,68.06h.29c1.24,0,2.48-.12,3.7-.2l1.82-.14,1.76-.17.85-.08C37.73,70.68,25.31,79.45,19.65,94Zm24.5-27.21-2,.12L40.4,67c-.6,0-1.2.06-1.81.09l-2.22.06c.42-.18.84-.35,1.26-.49A46.19,46.19,0,0,0,45.58,66S45.05,66.3,44.15,66.82ZM56.94,66c-.15.67-.38,1.63-.66,2.78l-.45,1.85c-.08.33-.17.66-.26,1,0,.17-.09.35-.12.51s0,.16,0,.24a1.94,1.94,0,0,0,0,.24,9.39,9.39,0,0,0,.17,2.14c.13.75.28,1.53.39,2.32a14,14,0,0,1,.17,2.43,9.21,9.21,0,0,1-.33,2.36A8.53,8.53,0,0,1,54.91,84c-.18.3-.37.59-.57.86a8.87,8.87,0,0,1-.61.72,10.23,10.23,0,0,1-1.21,1.13,11.88,11.88,0,0,1-1,.74c-.29.19-.53.33-.69.42l-.25.14.21-.2.59-.54c.25-.24.54-.53.86-.88a12.12,12.12,0,0,0,1-1.22,9.91,9.91,0,0,0,1-1.57,8.69,8.69,0,0,0,.66-1.9,10,10,0,0,0,.22-2.14,17.77,17.77,0,0,0-.18-2.26c-.1-.76-.23-1.53-.33-2.32a9.08,9.08,0,0,1-.06-2.39c0-.1,0-.2.05-.3s0-.22.08-.29l.16-.53c.12-.34.22-.67.33-1,.22-.64.44-1.25.63-1.81.41-1.11.76-2,1-2.67s.42-1,.42-1S57.09,65.33,56.94,66Z"/><path class="cls-1" d="M87,68.41l5.31-28,9.45-.22-.09.36L102.76,42l-1.58,8.45L109.76,40l10.54-.25-.36.42,1.22,1.33-11.36,14,6.27,13.63-10.13.23L104.73,68h-.28L99.76,57.93,97.58,69.62l-9,.21L87.33,68.4Zm5.87-27.27-5,26.52,8-.18,5-26.53ZM94,42.52l6-.14L95.38,66.94l-6,.14Zm5.72,13.41L105,67.26l8.72-.2-6-13,11-13.48-8.72.2-9.59,11.72Zm1.85-2.31L111,42.13l5.9-.14-9.81,12,5.7,12.51-7.18.17L101,56.77Z"/><path class="cls-1" d="M115.85,67.74l14.08-28.19,12.76-.3.06.46L143.87,41l3.5,27.46-9.68.23-1.21-1.43h-.32l-.91-8-3.5.08-4.6,9.61-9.63.22-1.21-1.42Zm14.26-10.56,5.68-.13,1.08,9.47,8.45-.19L142,40l-11.67.27L126.4,48l8.76-.2,0,1.72-9.72.23L117.06,67l8.41-.19Zm1.27-15.53,10.18-.24,3.07,24.39L137.9,66,137,57.61l-.7-.8v-.32l-6.5.15-4.68,9.61-6.09.14,7.51-15.22,9.9-.23V48.4l-.7-.76,0-.36-7.32.17Z"/><path class="cls-1" d="M148.56,67l3.28-17.4h-.09l-1.17-1.43h-.41L154.05,39l21.71-.51a3.58,3.58,0,0,1,2.31.72,4.79,4.79,0,0,1,1.52,1.92l.43.54a5.41,5.41,0,0,1,1.12,2.2,6.1,6.1,0,0,1,.08,2.59l-4,21.32-9.08.21-1.22-1.43h-.36l3.28-17.39-7.82.18.56.67-3.39,18.17-9,.21L148.92,67Zm4.09-17.82-3.2,17.07,8-.19L160.64,49Zm1.16,1.38,6.05-.14L157,65.51l-6,.14ZM171,47l-3.52,18.81,8-.18,3.88-20.73a6,6,0,0,0,0-2.11,5.05,5.05,0,0,0-.7-1.83,4,4,0,0,0-1.31-1.29,3.15,3.15,0,0,0-1.74-.46l-21.12.5-3.27,7.75Zm1.33.56-.7-.84,0-.28-18.58.43,2.5-5.78,20.8-.48a2.87,2.87,0,0,1,1.61.46,4.49,4.49,0,0,1,.81,3.84L175,65.09l-6,.14Z"/><path class="cls-1" d="M179.54,66.26l3.28-17.4h-.09l-1.17-1.43h-.41L185,38.27l21.71-.51a3.58,3.58,0,0,1,2.31.72,4.79,4.79,0,0,1,1.52,1.92l.43.54a5.41,5.41,0,0,1,1.12,2.2,6.1,6.1,0,0,1,.08,2.59l-.93,5a2.83,2.83,0,0,1-.7,1.26c-.38.45-.74.85-1.06,1.19a8.81,8.81,0,0,1,.62,1.23,2.23,2.23,0,0,1,.21,1.16l-1,5.07a6.85,6.85,0,0,1-.85,2.33,9.43,9.43,0,0,1-1.57,2.06,8.55,8.55,0,0,1-2,1.5,4.71,4.71,0,0,1-2.17.62l-21.67.51-1.22-1.43ZM201.62,48l-18,.42-3.2,17.07L201.6,65a4.36,4.36,0,0,0,1.94-.55,6.9,6.9,0,0,0,1.79-1.36,9.41,9.41,0,0,0,1.39-1.89,7.37,7.37,0,0,0,.79-2.11l.93-5.07a1.72,1.72,0,0,0-.23-1l-.55-1.14-.14-.23a2.35,2.35,0,0,0,.35-.42c.33-.34.64-.7.95-1.09a2.53,2.53,0,0,0,.55-.94l.93-5a6,6,0,0,0,0-2.11,5.05,5.05,0,0,0-.7-1.83A4,4,0,0,0,208.31,39a3.14,3.14,0,0,0-1.73-.46L185.45,39l-3.27,7.76,19.76-.46Zm1-2.3L184,46.15l2.5-5.78,20.81-.49a3,3,0,0,1,1.6.47,4.49,4.49,0,0,1,.81,3.84l-.92,5a2.47,2.47,0,0,1-.38.6,8.52,8.52,0,0,1-.64.75l-.13.18-.18.19s0,.06-.13.09a2.4,2.4,0,0,1-.58.65l.57.85c.15.27.3.55.43.85a1,1,0,0,1,.1.68L207,59.12a8.09,8.09,0,0,1-.71,1.93A7.3,7.3,0,0,1,205,62.76,7.2,7.2,0,0,1,203.42,64a3.82,3.82,0,0,1-1.74.49l-19.76.46,2.87-15.11,18-.42.49-2.56-.7-.84ZM190.19,59,201,58.76l.53-2.65-.7-.85,0-.27-11.09.26-.56,2.92h.27Zm-.3-1.4.32-1.83,10-.23-.32,1.83Z"/><path class="cls-1" d="M208.2,65.59,222.28,37.4,235,37.1l.06.46,1.12,1.29,3.5,27.46-9.68.23-1.21-1.43h-.32l-.91-8-3.5.09-4.6,9.6-9.63.23-1.21-1.43ZM222.46,55l5.68-.13,1.08,9.47,8.45-.19-3.34-26.33-11.67.27-3.91,7.77,8.76-.2,0,1.72-9.72.23-8.42,17.2,8.41-.2Zm1.27-15.53,10.18-.23L237,63.65l-6.73.16-.87-8.35-.7-.8v-.32l-6.5.15-4.68,9.61-6.09.14L218.91,49l9.9-.24V46.25l-.7-.76,0-.36-7.32.17Z"/><path class="cls-1" d="M240.91,64.83l3.28-17.39h-.09L242.93,46h-.41l3.88-9.18,21.71-.5a3.57,3.57,0,0,1,2.31.71A4.79,4.79,0,0,1,271.94,39l.43.54a5.47,5.47,0,0,1,1.12,2.2,6.1,6.1,0,0,1,.08,2.59l-4,21.32-9.08.21-1.22-1.43h-.36L262.18,47l-7.82.18.57.67L251.53,66l-9,.21-1.22-1.43ZM245,47l-3.2,17.07,8-.18L253,46.82Zm1.16,1.38,6.05-.14-2.88,15.11-6,.14Zm17.15-3.53-3.52,18.8,8-.18,3.88-20.73a6,6,0,0,0,0-2.11,5.05,5.05,0,0,0-.7-1.83,4.1,4.1,0,0,0-1.31-1.28,3,3,0,0,0-1.73-.46l-21.13.49-3.27,7.76Zm1.33.56-.7-.85,0-.27-18.58.43,2.5-5.79,20.81-.48a2.86,2.86,0,0,1,1.6.46,4.49,4.49,0,0,1,.81,3.84l-3.8,20.18-6,.14Z"/><path class="cls-1" d="M106.21,100.66l-.37-.45q-.14-2-.36-3.81a22.15,22.15,0,0,0-.77-3.57,3,3,0,0,0-1.27-.16l-3.32.08-1.78,9.54-9,.21-1.21-1.42h-.37L91,83.69h-.09l-1.17-1.42h-.41l3.88-9.18,21.71-.51a3.62,3.62,0,0,1,2.32.72,4.87,4.87,0,0,1,1.52,1.92l.42.53A5.54,5.54,0,0,1,120.3,78a6.11,6.11,0,0,1,.08,2.59l-1,5.39a8.76,8.76,0,0,1-.42,1.31,11,11,0,0,1-.76,1.49,11.83,11.83,0,0,1-1,1.39,4.08,4.08,0,0,1-1.18,1,21.81,21.81,0,0,1,.8,4.89,57.2,57.2,0,0,1,0,5.86l-9.18.22-1.26-1.43Zm0-4.66c.14,1.25.25,2.56.34,3.92l8.45-.2a37.41,37.41,0,0,0,0-5.61,20.86,20.86,0,0,0-1-4.91,2.32,2.32,0,0,0,1.21-.66,7.68,7.68,0,0,0,1.06-1.3,8.85,8.85,0,0,0,.8-1.52,7.71,7.71,0,0,0,.45-1.33l1-5.38a5.82,5.82,0,0,0,0-2.12,5,5,0,0,0-.7-1.82,4.1,4.1,0,0,0-1.3-1.29,3.2,3.2,0,0,0-1.74-.46l-21.13.49-3.27,7.76,19.76-.46-.32,1.74-18,.41-3.2,17.08,8-.19,1.78-9.54,3.86-.09c1.85,0,2.91.52,3.18,1.7A22,22,0,0,1,106.17,96ZM93,84.65l18-.42.48-2.56-.7-.85,0-.27L92.21,81l2.5-5.78,20.81-.49a2.85,2.85,0,0,1,1.6.47,4.49,4.49,0,0,1,.82,3.84l-1,5.39a4.7,4.7,0,0,1-.4,1.16,7.45,7.45,0,0,1-.85,1.41,7.13,7.13,0,0,1-1.18,1.21,2.83,2.83,0,0,1-1.33.62,20.11,20.11,0,0,1,1.12,5,41.06,41.06,0,0,1,.13,5.34l-6.77.16q-.14-1.59-.33-3.15a20,20,0,0,0-.68-3.19,2.61,2.61,0,0,0-.48-.9l-.23-.27c-.43-1.29-1.61-1.91-3.55-1.87l-4.4.1-1.83,9.55-6,.14Z"/><path class="cls-1" d="M133.32,72.16l-.08.37,1.12,1.38-1.66,8.81-.63,0,.51.67-3.39,18.16-9,.21L119,100.36h-.36l3.52-18.53.68,0-.28-.31h-.36L124,72.38ZM122.74,82.54l-3.19,17.08,7.9-.19,3.2-17.07Zm1.17,1.39,6-.14L127,98.9,121,99Zm.61-10.84-1.45,7.72,7.9-.18,1.46-7.72Zm1.17,1.39,5.95-.14-1.09,5.75-6,.14Z"/><path class="cls-1" d="M133.17,81.26,137,72.08l21.72-.51a3.58,3.58,0,0,1,2.31.72,4.87,4.87,0,0,1,1.52,1.92l.42.53A5.39,5.39,0,0,1,164.13,77a5.9,5.9,0,0,1,.09,2.58l-2.84,14.93a7.2,7.2,0,0,1-.85,2.34A9.43,9.43,0,0,1,159,98.86a8.6,8.6,0,0,1-2,1.5,4.64,4.64,0,0,1-2.16.62l-21.67.5-1.22-1.42h-.36l3.28-17.4h-.1l-1.16-1.42Zm4.3-8.47-3.27,7.76L154,80.09,151.9,91.18l-10,.24,1.74-9.36-8,.18-3.19,17.08,21.17-.5a4.25,4.25,0,0,0,1.94-.54,6.9,6.9,0,0,0,1.79-1.36,9.58,9.58,0,0,0,1.39-1.9,7.16,7.16,0,0,0,.79-2.11L162.32,78a6,6,0,0,0,0-2.12,5.09,5.09,0,0,0-.71-1.82,4,4,0,0,0-1.3-1.29,3.15,3.15,0,0,0-1.74-.46Zm-.66,10.84,6-.14L141.23,92h.28l.7.85L153,92.57l2.27-11.92-.7-.85,0-.27L136.05,80l2.5-5.78,20.8-.49a2.88,2.88,0,0,1,1.61.47,4.49,4.49,0,0,1,.81,3.84L159,92.93a7.44,7.44,0,0,1-.7,1.92A6.94,6.94,0,0,1,157,96.56a6.41,6.41,0,0,1-1.6,1.22,3.78,3.78,0,0,1-1.74.5l-19.76.46Zm8.76-.53-1.41,7.54,7.13-.17,1.54-8.22-7.82.19Z"/><path class="cls-1" d="M165.73,82l-1.17-1.42h-.41L168,71.36l27-.63-.08.36,1.16,1.38-1.65,8.82h-.68l.56.67L192.7,90.6H192l.61.72-1.66,8.81-26.8.62-1.22-1.42h-.36L165.82,82Zm25.19,6.51,1.42-7.53-25.72.59L163.43,98.6l25.71-.6,1.46-7.72-17.72.42.32-1.83Zm-18.14-.13-.57,2.93h.28l.7.85,16.58-.39-1.09,5.76L164.92,98l2.87-15.11,23.76-.56-1.05,5.57Zm19.88-9.14,1.46-7.71-25.67.59-3.27,7.76Zm-23.13-5.73,23.8-.56-1.09,5.76L167,79.24Z"/><path class="cls-1" d="M211.74,98.2l-.38-.45c-.09-1.36-.21-2.63-.36-3.8a22.45,22.45,0,0,0-.76-3.58,3.33,3.33,0,0,0-1.28-.15l-3.32.08-1.77,9.54-9,.21-1.22-1.43h-.36l3.27-17.39h-.09l-1.17-1.43h-.4l3.87-9.18,21.72-.5a3.58,3.58,0,0,1,2.31.72,4.77,4.77,0,0,1,1.52,1.91l.42.54a5.35,5.35,0,0,1,1.12,2.2,5.8,5.8,0,0,1,.08,2.59l-1,5.39a8.68,8.68,0,0,1-.42,1.3,8.81,8.81,0,0,1-.76,1.5,12.88,12.88,0,0,1-1,1.38,4.16,4.16,0,0,1-1.19,1,21.17,21.17,0,0,1,.8,4.89,57.2,57.2,0,0,1,0,5.86l-9.18.21-1.26-1.42Zm0-4.66c.13,1.26.25,2.57.34,3.93l8.45-.2a37.35,37.35,0,0,0,0-5.61,20.76,20.76,0,0,0-1-4.91,2.24,2.24,0,0,0,1.21-.67,7.15,7.15,0,0,0,1.06-1.29,10.14,10.14,0,0,0,.81-1.52,8.5,8.5,0,0,0,.44-1.33l1-5.39a5.76,5.76,0,0,0,0-2.11,4.88,4.88,0,0,0-.7-1.83,4.07,4.07,0,0,0-1.3-1.28,3.07,3.07,0,0,0-1.74-.46l-21.12.49-3.28,7.76,19.77-.46-.33,1.73-18,.42-3.19,17.07,8-.18,1.78-9.54,3.86-.09c1.85,0,2.91.52,3.18,1.7A23.07,23.07,0,0,1,211.7,93.54ZM198.5,82.19l18-.42.49-2.55-.71-.85,0-.27-18.58.43,2.51-5.79,20.8-.48a2.9,2.9,0,0,1,1.6.46,4.48,4.48,0,0,1,.82,3.85l-1,5.38a4.71,4.71,0,0,1-.41,1.17,7.24,7.24,0,0,1-.85,1.41A6.77,6.77,0,0,1,220,85.74a2.84,2.84,0,0,1-1.32.62,20.92,20.92,0,0,1,1.12,5,39.38,39.38,0,0,1,.12,5.34l-6.77.16c-.08-1.06-.19-2.11-.32-3.16a18.91,18.91,0,0,0-.69-3.18,2.44,2.44,0,0,0-.48-.9l-.23-.27c-.42-1.29-1.6-1.92-3.54-1.87l-4.41.1-1.82,9.54-6,.14Z"/><path class="cls-1" d="M224.23,97.91,226,88.74l4.27-.1,0,0a.24.24,0,0,1,0-.14l-.66-.8a4.28,4.28,0,0,1-1.16-1.2,7.28,7.28,0,0,1-.76-1.53,6.76,6.76,0,0,1-.38-1.6,5.19,5.19,0,0,1,0-1.48l1-5.39a8.67,8.67,0,0,1,.9-2.36A10.37,10.37,0,0,1,230.76,72a8.21,8.21,0,0,1,2.06-1.54,4.86,4.86,0,0,1,2.25-.62l21.9-.51-.08.36L258.06,71l-1.66,8.82L252,80a8.28,8.28,0,0,1,.7.75,5.74,5.74,0,0,1,.57.85l.56.67A5.85,5.85,0,0,1,255,84.56a5.31,5.31,0,0,1,.13,2.31l-.45,2.33-.68,0,.56.67-.49,2.42a7.2,7.2,0,0,1-.85,2.34,9.61,9.61,0,0,1-1.57,2,8.94,8.94,0,0,1-2,1.51,4.63,4.63,0,0,1-2.17.61l-21.66.51-1.22-1.43Zm22.06-1.24a4.26,4.26,0,0,0,1.92-.54A7.66,7.66,0,0,0,250,94.77a8.85,8.85,0,0,0,1.41-1.9,7.12,7.12,0,0,0,.8-2.11l.36-1.92-26,.61-1.46,7.71Zm-19.68-.09,1.09-5.75,24-.56-.08.5a7.39,7.39,0,0,1-.73,1.93,7.18,7.18,0,0,1-1.27,1.71A7.6,7.6,0,0,1,248,95.63a3.54,3.54,0,0,1-1.67.49Zm9.7-16.68.32-1.73,18-.42L256.08,70l-21.17.5a4.11,4.11,0,0,0-1.92.54,7.64,7.64,0,0,0-1.79,1.36,9.06,9.06,0,0,0-1.41,1.88,7,7,0,0,0-.79,2.13l-1,5.38a4.86,4.86,0,0,0,0,1.82,5.83,5.83,0,0,0,.68,1.87A4.85,4.85,0,0,0,230,87a2.64,2.64,0,0,0,1.76.57l21.17-.49.33-1.69a4.64,4.64,0,0,0,0-1.81,6.08,6.08,0,0,0-.75-1.9A4.76,4.76,0,0,0,251,80.18a3.65,3.65,0,0,0-2.17-.57Zm-6.06-2.49a6.3,6.3,0,0,1,.7-2,8.21,8.21,0,0,1,1.3-1.75,7.31,7.31,0,0,1,1.63-1.25,4,4,0,0,1,1.79-.49l19.62-.46-1.09,5.75-18,.42-.53,2.83H236l.7.84,12.9-.3a3.64,3.64,0,0,1,2.11.59,5,5,0,0,1,.9,1.91,4.42,4.42,0,0,1,.09,1.89l-.2,1.14L231.84,87a2.69,2.69,0,0,1-2.21-1.13,4.79,4.79,0,0,1-.47-1.58,4.39,4.39,0,0,1,.08-1.51Z"/></svg>