<svg id="Слой_1" data-name="Слой 1" xmlns="http://www.w3.org/2000/svg" viewBox="0 0 100 50"><defs><style>.cls-1{fill:#db2878;}.cls-2{fill:#1d1e1b;}</style></defs><path class="cls-1" d="M4.48,24h0l.31.06Zm0,0h0l.31.06Zm0,0h0l.31.06Zm0,0h0l.31.06Zm0,0h0l.31.06Z"/><path class="cls-2" d="M18,15a19.4,19.4,0,0,1-.43,4.08,18.36,18.36,0,0,1-1.22,3.69A18.18,18.18,0,0,1,12.68,24a19.19,19.19,0,0,1-4.12.44,19.36,19.36,0,0,1-3.77-.37h0L4.48,24l.3-.07L4.47,24A16.79,16.79,0,0,1,17.54,10.94h0v0A19.4,19.4,0,0,1,18,15Z"/><path class="cls-1" d="M4.78,24.09,4.47,24h0Z"/><path class="cls-1" d="M17.54,10.94a18.94,18.94,0,0,0-4.1-.44,18.72,18.72,0,0,0-7.76,1.65A18.76,18.76,0,0,0,4,19.92,19.66,19.66,0,0,0,4.46,24h0A16.79,16.79,0,0,1,17.54,10.94Z"/><path class="cls-1" d="M19.71,11h0c0,.11-.05.21-.07.31C19.67,11.15,19.69,11.05,19.71,11Zm0,0h0c0,.11-.05.21-.07.31C19.67,11.15,19.69,11.05,19.71,11Zm0,0h0c0,.11-.05.21-.07.31C19.67,11.15,19.69,11.05,19.71,11Zm0,0h0c0,.11-.05.21-.07.31C19.67,11.15,19.69,11.05,19.71,11Zm0,0h0c0,.11-.05.21-.07.31C19.67,11.15,19.69,11.05,19.71,11Z"/><path class="cls-2" d="M28.69,24.46A19.4,19.4,0,0,1,24.61,24a18.36,18.36,0,0,1-3.69-1.22,18.06,18.06,0,0,1-1.21-3.66A19.68,19.68,0,0,1,19.27,15a19.46,19.46,0,0,1,.37-3.78h0c0-.1.05-.2.07-.3,0,.1.05.2.07.3l-.06-.31A16.85,16.85,0,0,1,32.8,24h0A19.56,19.56,0,0,1,28.69,24.46Z"/><path class="cls-1" d="M19.64,11.25c0-.1.05-.2.07-.31h0C19.69,11.05,19.67,11.15,19.64,11.25Z"/><path class="cls-1" d="M32.8,24a19.59,19.59,0,0,0,.44-4.1,18.8,18.8,0,0,0-1.65-7.77,19.19,19.19,0,0,0-11.87-1.21h0A16.85,16.85,0,0,1,32.8,24Z"/><path class="cls-1" d="M32.78,26.2h0l-.32-.06Zm0,0h0l-.32-.06Zm0,0h0l-.32-.06Zm0,0h0l-.32-.06Zm0,0h0l-.32-.06Z"/><path class="cls-2" d="M19.28,35.17a19.4,19.4,0,0,1,.43-4.08,18.92,18.92,0,0,1,1.22-3.68,18.18,18.18,0,0,1,3.65-1.21,19.19,19.19,0,0,1,4.12-.44,18.61,18.61,0,0,1,3.77.37h0l.3.07-.3.06.31-.06A16.82,16.82,0,0,1,19.72,39.28h0A19.56,19.56,0,0,1,19.28,35.17Z"/><path class="cls-1" d="M32.48,26.13l.32.06h0Z"/><path class="cls-1" d="M19.72,39.28a19.59,19.59,0,0,0,4.1.43,18.72,18.72,0,0,0,7.76-1.65,18.72,18.72,0,0,0,1.65-7.76,19.59,19.59,0,0,0-.43-4.1h0A16.85,16.85,0,0,1,19.72,39.28Z"/><path class="cls-1" d="M17.55,39.26v0h0c0-.11.05-.21.07-.32C17.59,39.06,17.57,39.16,17.55,39.26Zm0,0v0h0c0-.11.05-.21.07-.32C17.59,39.06,17.57,39.16,17.55,39.26Zm0,0v0h0c0-.11.05-.21.07-.32C17.59,39.06,17.57,39.16,17.55,39.26Zm0,0v0h0c0-.11.05-.21.07-.32C17.59,39.06,17.57,39.16,17.55,39.26Zm0,0v0h0c0-.11.05-.21.07-.32C17.59,39.06,17.57,39.16,17.55,39.26Z"/><path class="cls-2" d="M8.57,25.76a19.4,19.4,0,0,1,4.08.43,17.75,17.75,0,0,1,3.69,1.22,18,18,0,0,1,1.21,3.65A19.19,19.19,0,0,1,18,35.18,19.36,19.36,0,0,1,17.62,39h0c0,.1-.05.2-.07.3,0-.1-.05-.2-.07-.3l.06.31A16.82,16.82,0,0,1,4.46,26.19h0A19.56,19.56,0,0,1,8.57,25.76Z"/><path class="cls-1" d="M17.62,39c0,.11,0,.21-.07.32h0v0C17.57,39.16,17.59,39.06,17.62,39Z"/><path class="cls-1" d="M4.46,26.2A19.49,19.49,0,0,0,4,30.29a18.57,18.57,0,0,0,1.65,7.77,18.73,18.73,0,0,0,7.77,1.65,19.66,19.66,0,0,0,4.1-.43h0A16.85,16.85,0,0,1,4.46,26.19h0Z"/><path class="cls-1" d="M40.44,22.29c-.19,0-.46,0-.59-.19a.88.88,0,0,1-.1-.47c0-.28,0-.59,0-.79,0-.75.07-1.54.07-2.32,0-.34,0-.67,0-1s-.6-.47-.81-.59a2.73,2.73,0,0,1-.88-.81,7.4,7.4,0,0,1-.81-4v-.62a1.37,1.37,0,0,1,.32-1,.47.47,0,0,1,.33-.11,6.74,6.74,0,0,1,.93.16l1.23,0h.12a.66.66,0,0,1,.4.08.38.38,0,0,1,.15.36c0,.09,0,.18,0,.26-.07.59-.11,1.18-.16,1.75a2.17,2.17,0,0,0,0,.36,2.41,2.41,0,0,0,.25,1.14c.08.19.48.62.72.59,1.19,0,1.35-1.19,1.35-2.21,0-.33,0-.66,0-.9s0-.54,0-.78v-.17a.86.86,0,0,1,0-.28c.09-.15.37-.17.56-.17H44a6.21,6.21,0,0,0,.89-.05,4.56,4.56,0,0,1,.62,0,1.15,1.15,0,0,1,.77.18.87.87,0,0,1,.21.65,5.69,5.69,0,0,1-.08.78c-.09,1.52-.26,4-2.79,5.13-.15.09-.53.16-.6.35a1.07,1.07,0,0,0,0,.25c0,.21,0,.45,0,.66,0,.48.22,1.88.22,2.85,0,.47,0,.85-.19.95a1.54,1.54,0,0,1-.78.17,2.78,2.78,0,0,1-.58,0A7.66,7.66,0,0,1,40.44,22.29Z"/><path class="cls-1" d="M49.63,22.1C47.7,21.27,46.7,19,46.7,16.28a12.47,12.47,0,0,1,.19-2.08c.57-3.35,2.09-3.78,3.76-4,.33,0,.66-.07,1-.07,2.38,0,4.23,1.3,4.77,4.67a6.48,6.48,0,0,1,.08,1A10,10,0,0,1,56,18.56,6.2,6.2,0,0,1,54.78,21,4.78,4.78,0,0,1,52,22.34a5.87,5.87,0,0,1-.74.05A4.34,4.34,0,0,1,49.63,22.1ZM49.81,17a3.29,3.29,0,0,0,.2.93,2,2,0,0,0,1.54,1.25c.74,0,1.14-.61,1.37-1.21a4.63,4.63,0,0,0,.38-1.82,4,4,0,0,0-.38-1.74c-.21-.52-1-1.4-1.63-1.26-1.19.26-1.54,1.79-1.54,3A5.21,5.21,0,0,0,49.81,17Z"/><path class="cls-1" d="M61.16,22.11A5.34,5.34,0,0,1,59,21.25a4.09,4.09,0,0,1-1.45-2.42,15.36,15.36,0,0,1-.3-3.23c0-.39,0-.77,0-1.15,0-1,.16-2,.16-3,0-.28,0-.7.22-.85a.76.76,0,0,1,.38-.09c.19,0,.38,0,.59,0s.55,0,.88,0a1.33,1.33,0,0,1,1,.32.67.67,0,0,1,.16.52c0,.49,0,.95,0,1.42a15.51,15.51,0,0,0-.15,2.17A10.29,10.29,0,0,0,60.71,17a5.49,5.49,0,0,0,.54,1.84.84.84,0,0,0,.65.43c.9,0,1-1.44,1.06-2.11.12-1.23.27-2.47.27-3.71,0-.31,0-.63,0-.94s-.09-.89-.12-1.36a1.55,1.55,0,0,1,0-.31.6.6,0,0,1,.05-.24.45.45,0,0,1,.38-.12h.9a6.23,6.23,0,0,0,1-.06h.24a1.09,1.09,0,0,1,1,.46c.16.23.09.59.11.87a13,13,0,0,1,.07,1.4c0,.32,0,.65,0,1-.05,2.64-.1,6.62-2.83,7.72a4.35,4.35,0,0,1-1,.31,6.86,6.86,0,0,1-.92.07A4.53,4.53,0,0,1,61.16,22.11Z"/><path class="cls-1" d="M73.29,22.5c-.17-.21-.12-.68-.16-.94-.19-1.07-.5-3-1.93-2.92-.24,0-.16.61-.17.78a4.47,4.47,0,0,0,0,.74c0,.37,0,.76,0,1.13,0,.12,0,.27,0,.41a1,1,0,0,1-.06.36.41.41,0,0,1-.34.28c-.49.05-1,.05-1.54.05-.16,0-.52.07-.79.07a.62.62,0,0,1-.33-.07c-.16-.15-.14-.45-.18-.66s0-.31,0-.46c0-.52.09-1.06.09-1.56v-1c0-1.92,0-3.86.2-5.77.06-.56.07-1.14.16-1.7,0-.19,0-.38.09-.53s.57-.23.84-.24c.59,0,1.21-.09,1.78-.16a3,3,0,0,1,.42,0c.32,0,.63,0,1,.06,1.22.1,2.95.31,3.57,1.5a2.18,2.18,0,0,1,.23,1,4.67,4.67,0,0,1-.23,1.31A4.15,4.15,0,0,1,74.79,16c-.19.17-.36.35-.55.5,0,0-.17.12-.17.17s.31.18.36.21a3.72,3.72,0,0,1,1,.69A6,6,0,0,1,76.62,21a6,6,0,0,1,0,.66.82.82,0,0,1-.12.55,1.6,1.6,0,0,1-.9.28,5,5,0,0,1-.86.05,6,6,0,0,0-.86,0c-.11,0-.25.05-.38.05A.44.44,0,0,1,73.29,22.5Zm-2.46-7c1.4,0,2.2-.23,2.2-1.82,0-.19,0-.43,0-.67-.19-.29-.5-.42-1.31-.42-.26,0-.53,0-.9,0Z"/><path class="cls-1" d="M40.61,39.25c-1.88-.08-2.88-1.41-3.23-3.23,0-.71-.06-1.36-.06-2,0-3.81,1-6,4.62-6.56a3.1,3.1,0,0,1,.44,0,4.56,4.56,0,0,1,1.78.35c.24.14.55.33.62.6a1,1,0,0,1,0,.18,7.33,7.33,0,0,1-.27,1.14A3,3,0,0,1,44.26,31a.36.36,0,0,1-.29.12,2.36,2.36,0,0,1-.59-.12,3.55,3.55,0,0,0-.76-.08,3,3,0,0,0-.81.1,1.71,1.71,0,0,0-1,1.18,7.6,7.6,0,0,0-.27,2,3.89,3.89,0,0,0,.27,1.61,1.09,1.09,0,0,0,1,.69,3.44,3.44,0,0,0,2-1,1.74,1.74,0,0,1,.7-.29c.16,0,.28.09.37.36A12.17,12.17,0,0,1,45,37.32a2.1,2.1,0,0,1,.05.43.78.78,0,0,1-.09.4,1.38,1.38,0,0,1-.52.41,4.29,4.29,0,0,1-2.07.74c-.28,0-.57.06-.85.06A4.47,4.47,0,0,1,40.61,39.25Z"/><path class="cls-1" d="M49,39.29c-.19,0-.46,0-.58-.19a.8.8,0,0,1-.11-.47c0-.28.06-.59.06-.79,0-.75.06-1.54.06-2.32a8.27,8.27,0,0,0-.05-1c0-.26-.6-.47-.81-.59a2.73,2.73,0,0,1-.88-.81,7.4,7.4,0,0,1-.81-4v-.62a1.37,1.37,0,0,1,.33-1,.46.46,0,0,1,.32-.11,7.27,7.27,0,0,1,.94.16l1.22,0h.12a.66.66,0,0,1,.4.08.39.39,0,0,1,.16.36c0,.09,0,.18,0,.26-.07.59-.1,1.18-.15,1.75a2.17,2.17,0,0,0,0,.36,2.54,2.54,0,0,0,.24,1.14c.09.19.48.62.72.59,1.2,0,1.35-1.19,1.35-2.21,0-.33,0-.66,0-.9s0-.54,0-.78v-.17a.66.66,0,0,1,0-.28c.08-.15.36-.17.55-.17h.52a6.16,6.16,0,0,0,.88,0,4.56,4.56,0,0,1,.62,0,1.2,1.2,0,0,1,.78.18.91.91,0,0,1,.21.65A5.59,5.59,0,0,1,55,29c-.09,1.52-.26,4-2.78,5.13-.16.09-.54.16-.61.35a2.06,2.06,0,0,0,0,.26c0,.2,0,.44,0,.65,0,.48.23,1.88.23,2.85a1.5,1.5,0,0,1-.19,1,1.57,1.57,0,0,1-.78.17,2.83,2.83,0,0,1-.59,0A7.66,7.66,0,0,1,49,39.29Z"/><path class="cls-1" d="M62.44,39.2a1.56,1.56,0,0,1-.76-.12A2.64,2.64,0,0,1,61,37.94c-.44-.85-1.68-3.82-2.34-5,0,.78.3,4.06.23,4.86a2,2,0,0,1-.23,1c-.17.24-.44.23-.69.24a9.9,9.9,0,0,1-1.43.09c-.24,0-.48,0-.62-.28a2,2,0,0,1,0-.83c0-.6-.06-1.21-.07-1.81,0-.95,0-1.9,0-2.85s0-1.92,0-2.85c0-.6,0-1.24.06-1.8,0-.13,0-.26,0-.38a.58.58,0,0,1,0-.29c0-.12.19-.43.34-.48a1.4,1.4,0,0,1,.56-.11c.43,0,.93.14,1.29.16a1.56,1.56,0,0,1,.71.15A3.25,3.25,0,0,1,60,29.18,15.54,15.54,0,0,0,61.49,32c0-.84,0-1.09,0-1.93,0-.66,0-1.12.06-1.59a1,1,0,0,1,.2-.74,1.08,1.08,0,0,1,.83-.26c.4,0,.8.07,1.09.07s.55,0,.66.26a2,2,0,0,1,0,.55,5,5,0,0,1,0,.79c0,.57,0,1.18,0,1.68,0,1.88.1,3.75.1,5.61,0,.42.06.83.06,1.25a4.05,4.05,0,0,1,0,.48,1.71,1.71,0,0,1-.08.57c-.18.4-.64.48-1.11.48S62.66,39.2,62.44,39.2Z"/><path class="cls-1" d="M65.79,39a.85.85,0,0,1-.17-.62c0-.59-.05-1.25-.05-1.88,0-2.09.05-4.19.2-6.26,0-.55.11-1.05.11-1.6A1,1,0,0,1,66,28a.77.77,0,0,1,.6-.17h1.13a6.75,6.75,0,0,0,.91-.05,14.67,14.67,0,0,1,1.92-.12,9.68,9.68,0,0,1,1.22.07,1.5,1.5,0,0,1,.9.26.74.74,0,0,1,.12.45c0,.22,0,.48,0,.65s0,.42,0,.64a.55.55,0,0,1-.19.49,1,1,0,0,1-.5.1c-.55,0-1,0-1.6-.05-.14.12-1.47.05-1.52.19a.43.43,0,0,0,0,.17c0,.19.07.42.07.5s0,.36,0,.56a.48.48,0,0,0,.08.34.24.24,0,0,0,.19.07,2,2,0,0,0,.31,0c.73,0,1.26-.12,1.66-.12a.93.93,0,0,1,.59.12c.14.08.15.26.15.39,0,.35,0,.73,0,1.06,0,.08,0,.19,0,.27a.79.79,0,0,1,0,.3c-.07.22-.39.26-.86.26s-.86,0-1.38,0l-.31,0c-.09,0-.16,0-.18.05a.41.41,0,0,0,0,.21c0,.16,0,.34,0,.45s0,.34,0,.55a.81.81,0,0,0,.08.45c0,.07.3.09.59.09s.85,0,1,0h1.62a.61.61,0,0,1,.49.16.31.31,0,0,1,.1.26c0,.12,0,.26,0,.36a1.62,1.62,0,0,0,0,.31c0,.24,0,.48,0,.73a2.17,2.17,0,0,1,0,.36c0,.22-.12.41-.35.48a5.22,5.22,0,0,1-1.28.19,29.48,29.48,0,0,1-3,.16,9.58,9.58,0,0,1-1.12,0c-.21,0-.52,0-.81,0A1,1,0,0,1,65.79,39Z"/><path class="cls-1" d="M74.1,39.15a.61.61,0,0,1-.14-.47c0-.77,0-1.47,0-2.19v-.81A53.53,53.53,0,0,1,74.22,30a11.85,11.85,0,0,0,.07-1.33,1.92,1.92,0,0,1,.19-1c.09-.14.33-.16.52-.18.47-.06.93-.08,1.29-.13a2.23,2.23,0,0,1,.37,0c.33,0,.69,0,1,.05.72.07,1.45.07,2.19.14a3.85,3.85,0,0,1,1.38.17.63.63,0,0,1,.31.54,1.79,1.79,0,0,1,0,.46c0,.31,0,.64,0,.94a.8.8,0,0,1-.21.58,1.13,1.13,0,0,1-.74.18h-.52c-.47,0-1,0-1.44-.05-.1,0-.39-.05-.62-.05s-.24,0-.26.09a.76.76,0,0,0,0,.15c0,.47,0,.9-.06,1.37,0,0,0,.13,0,.22s0,.19.08.23h.09l.29,0c.16,0,.47,0,.78,0s.78.07.78.4-.11.36-.11.59,0,.43,0,.67a.86.86,0,0,1-.95,1c-.21,0-.43,0-.61,0a.75.75,0,0,0-.24,0c-.08,0-.15,0-.15.11a.65.65,0,0,0,0,.19c0,.91.14,2.17.14,3.1a.82.82,0,0,1-.17.59c-.19.18-.73.18-1,.23a4.8,4.8,0,0,1-.87,0c-.31,0-.64,0-1,0-.14,0-.26,0-.4,0A.33.33,0,0,1,74.1,39.15Z"/><path class="cls-1" d="M82.31,39.36a1.07,1.07,0,0,1-.1-.66V37.13c0-2.16.15-4.08.2-6.24,0-.91,0-1.79,0-2.69,0-.28,0-.49.37-.52a4.93,4.93,0,0,1,.71-.05,5.07,5.07,0,0,1,1.36.17,1.32,1.32,0,0,1,.64.31,1.28,1.28,0,0,1,.12.62c0,.66,0,1.3,0,2,0,1.44-.07,2.63-.12,4.08,0,.66,0,1.3-.06,2,0,.4,0,.84,0,1.29a2.19,2.19,0,0,1-.14.83c-.08.21-.28.26-.47.31a8,8,0,0,1-1.1.25,6.33,6.33,0,0,1-.88.1A.73.73,0,0,1,82.31,39.36Z"/><path class="cls-1" d="M93.36,39.2c-.24,0-.57,0-.76-.12a2.85,2.85,0,0,1-.69-1.14c-.43-.85-1.67-3.82-2.33-5,0,.78.3,4.06.23,4.86a2,2,0,0,1-.23,1c-.17.24-.45.23-.69.24a10,10,0,0,1-1.43.09c-.25,0-.49,0-.63-.28a2.24,2.24,0,0,1,0-.83c0-.6,0-1.21-.07-1.81,0-.95,0-1.9,0-2.85s0-1.92,0-2.85c0-.6,0-1.24,0-1.8a2.41,2.41,0,0,0,0-.38.58.58,0,0,1,0-.29c0-.12.2-.43.35-.48a1.38,1.38,0,0,1,.55-.11c.44,0,.94.14,1.3.16a1.56,1.56,0,0,1,.71.15,3.25,3.25,0,0,1,1.19,1.4A16.12,16.12,0,0,0,92.41,32c0-.84,0-1.09,0-1.93,0-.66,0-1.12,0-1.59a1.07,1.07,0,0,1,.21-.74,1.08,1.08,0,0,1,.83-.26c.4,0,.79.07,1.09.07s.55,0,.65.26a2,2,0,0,1,0,.55,6.7,6.7,0,0,1,0,.79c0,.57,0,1.18,0,1.68,0,1.88.1,3.75.1,5.61,0,.42,0,.83,0,1.25a4,4,0,0,1,0,.48,1.48,1.48,0,0,1-.09.57c-.17.4-.64.48-1.1.48S93.59,39.2,93.36,39.2Z"/></svg>