<?xml version="1.0" encoding="utf-8"?>
<!-- Generator: Adobe Illustrator 26.0.3, SVG Export Plug-In . SVG Version: 6.00 Build 0)  -->
<svg version="1.1" id="Слой_1" xmlns="http://www.w3.org/2000/svg" xmlns:xlink="http://www.w3.org/1999/xlink" x="0px" y="0px"
	 viewBox="0 0 420 420" style="enable-background:new 0 0 420 420;" xml:space="preserve">
<style type="text/css">
	.st0{fill:#7F1D1D;}
	.st1{fill:#EF4444;}
	.st2{fill:#DC2626;}
	.st3{opacity:0.6;}
	.st4{fill:#FFFFFF;}
	.st5{opacity:0.3;}
</style>
<rect x="-6" y="-8.7" class="st0" width="432" height="437.5"/>
<g>
	<g>
		<path class="st1" d="M185.8,135.2c6.7,2.5,12.4,11.2,13.1,21.4c0.2,2.5,0.6,9.1-2.2,12.1c-3.8,4.1-12.2-1-16.4-8.6
			c-4.3-7.7-5.7-20.3-2-24.4C180.4,133.1,183.8,134.3,185.8,135.2z"/>
		<g>
			<g>
				<path class="st2" d="M198.1,156.5v12c0,11.8-9.7,21.9-23.3,25.6c-3.7,1-7.7,1.5-11.8,1.5c-19.4,0-35.1-12.2-35.1-27.2v-12
					c0-2.5,0.4-4.9,1.2-7.2c4.1-11.6,17.7-20.1,33.9-20.1C182.4,129.3,198.1,141.5,198.1,156.5z"/>
			</g>
			<g class="st3">
				<path class="st4" d="M139.2,136.5c0,0,0,0.1,0.1,0.1c-0.6,0.4-1.2,0.8-1.8,1.2C138,137.4,138.6,136.9,139.2,136.5z"/>
			</g>
			<g>
				<path class="st2" d="M198.9,156.5v12c0,7.7-3.8,14.8-10.6,20.3c-6.8,5.2-15.7,8.1-25.2,8.1s-18.4-2.9-25.2-8.1
					c-6.9-5.3-10.6-12.5-10.6-20.3v-12c0-7.7,3.8-14.8,10.6-20.3c6.8-5.2,15.7-8.1,25.2-8.1s18.4,2.9,25.2,8.1 M163,130.5
					c-9.2,0-17.9,2.8-24.5,7.8c-6.3,4.9-9.8,11.4-9.8,18.2v12c0,6.9,3.5,13.3,9.8,18.2c6.6,5,15.2,7.8,24.5,7.8s17.9-2.8,24.5-7.8
					c6.3-4.9,9.8-11.4,9.8-18.2v-12c0-6.9-3.5-13.3-9.8-18.2C180.9,133.2,172.2,130.5,163,130.5z"/>
			</g>
			<g>
				<ellipse class="st1" cx="163" cy="156.5" rx="30.2" ry="23.3"/>
			</g>
			<g>
				<path class="st4" d="M190.1,156.5c0,2.5-0.7,4.8-2.2,7.2l0,0c-1.2,2-3,3.9-5.1,5.6c-5.2,4.1-12.3,6.3-19.9,6.3
					c-5.2,0-10.1-1-14.4-3.1l0,0c-1.9-0.9-3.8-1.9-5.4-3.3c-0.6-0.5-1.2-1-1.8-1.5l0,0c-3.5-3.3-5.4-7.3-5.4-11.2
					c0-4.5,2.7-9.2,7.3-12.8c4.2-3.2,9.4-5.3,15.3-6c1.5-0.2,3.1-0.3,4.6-0.3c1.4,0,2.9,0.1,4.3,0.2c5.9,0.7,11.4,2.8,15.6,6
					C187.5,147.2,190.1,152,190.1,156.5z"/>
			</g>
			<g>
				<path class="st1" d="M188,163.6l0.4,0.5c-1.2,2-3,3.9-5.1,5.6l-15.1-9.4c-0.3-0.2-0.6-0.1-0.8,0.2c-0.1,0.2-0.2,0.4-0.2,0.6
					c0,0.3,0.1,0.6,0.3,0.8l4.4,4.6c-5.3,3.4-9.6,3.7-14.4,1.2l2.8-6c0.2-0.5,0.1-1.2-0.4-1.4c-0.1,0-0.1,0-0.2,0
					c-0.1,0-0.3,0.1-0.4,0.2l-10.6,11.9l0,0l-5-1.3l-2.3-3.5l17.3-10.5c0.5-0.3,0.6-1.2,0.3-1.8c-0.2-0.3-0.4-0.4-0.6-0.4
					c-0.1,0-0.1,0-0.2,0l-12.5,4.6c1.2-6.8,5.5-12.2,9.6-15.1l4.6,6.1c0.4,0.6,1.1,0.6,1.5,0c0.2-0.3,0.4-0.7,0.4-1.1
					c0-0.2,0-0.4-0.1-0.6l-3.3-11.3c0,0,3.1-2.5,4.6-2.5c1.4,0,4.3,2.4,4.3,2.4l-1.1,12.5c-0.1,0.7,0.3,1.3,0.7,1.3h0.1
					c0.3,0,0.7-0.3,0.8-0.7l2-7.3c6.9,0.8,11,5.1,11.2,14.3l-10.6-3.2c-0.2-0.1-0.5,0-0.7,0.3c-0.2,0.2-0.2,0.5-0.2,0.7
					c0,0.4,0.2,0.9,0.5,1L188,163.6z"/>
			</g>
			<g>
				<path class="st2" d="M174.8,186.3v7.9c-3.7,1-7.7,1.5-11.8,1.5c-19.4,0-35.1-12.2-35.1-27.2v-12c0-2.5,0.4-4.9,1.2-7.2l0,0
					c-5.6,19.1,15.2,38.2,42.9,33.5C173.4,182.6,174.8,184.2,174.8,186.3z"/>
			</g>
			<g>
				<path class="st2" d="M181.8,70.5l4.7,10c4.7,9.8,0.5,25.8-9.3,39.4c-2.7,3.7-5.7,7.3-9.2,10.4c-16.2,15.1-34,17.1-39.9,4.6
					l-4.7-10c-1-2-1.5-4.4-1.8-7c-1.2-12.8,6.8-30.4,20.3-43C158,60,175.9,58,181.8,70.5z"/>
			</g>
			<g class="st3">
				<path class="st4" d="M124.9,99.5c0,0,0.1,0,0.1,0.1c-0.4,0.8-0.7,1.6-1,2.5C124.3,101.2,124.6,100.4,124.9,99.5z"/>
			</g>
			<g>
				<path class="st2" d="M168.5,131.3c-7.9,7.4-16.5,12-24.2,12.8c-0.9,0.1-1.8,0.2-2.7,0.2c-6.6,0-11.6-3.1-14.2-8.7l-4.7-10
					c-3.1-6.5-2.8-15.4,0.9-25.2c3.6-9.6,9.8-18.9,17.8-26.3c7.9-7.4,16.5-12,24.2-12.8c7.9-0.9,13.8,2.2,16.9,8.5l4.7,10
					c3.1,6.5,2.8,15.4-0.9,25.2 M168.3,63.4c-0.8,0-1.6,0-2.6,0.1c-7.4,0.8-15.8,5.3-23.4,12.5c-7.7,7.2-13.8,16.2-17.2,25.5
					c-3.4,9-3.7,17.2-1,22.8l4.7,10c2.7,5.7,8.2,8.4,15.5,7.6c7.4-0.8,15.8-5.3,23.4-12.5c7.7-7.2,13.8-16.2,17.2-25.5
					c3.4-9,3.7-17.2,1-22.8l-4.7-10C178.8,66.1,174.3,63.4,168.3,63.4z"/>
			</g>
			<g>
				
					<ellipse transform="matrix(0.6123 -0.7907 0.7907 0.6123 -18.0377 158.5491)" class="st1" cx="152.6" cy="97.7" rx="35.2" ry="20"/>
			</g>
			<g>
				<path class="st4" d="M175.2,76.7c0.9,2,1.3,4.6,1,7.6l0,0c-0.2,2.7-0.9,5.5-2,8.6c-2.8,7.5-7.8,14.8-14,20.7
					c-4.3,4-8.9,7-13.2,8.7l0,0c-1.9,0.7-3.9,1.2-5.8,1.4c-0.7,0.1-1.4,0.1-2.2,0.1l0,0c-4.2-0.1-7.4-1.8-8.9-5.1
					c-1.8-3.8-1.4-9.7,1-16.3c2.2-5.9,5.7-11.8,10.2-16.8c1.2-1.3,2.5-2.7,3.8-3.9c1.2-1.1,2.5-2.2,3.7-3.1c5.2-4,10.5-6.5,15.4-7.1
					C169.3,71.1,173.3,72.9,175.2,76.7z"/>
			</g>
			<g>
				<path class="st1" d="M176.2,84.3l0.5,0.1c-0.2,2.7-0.9,5.5-2,8.6l-16.3,3.9c-0.3,0.1-0.5,0.4-0.6,0.8c0,0.2,0,0.5,0.1,0.7
					c0.1,0.2,0.3,0.4,0.5,0.4l5.4,0.4c-3.1,7-6.6,10.5-11.6,12.3l-0.1-7.2c0-0.6-0.4-1.1-0.8-0.9c-0.1,0-0.1,0.1-0.2,0.1
					c-0.1,0.1-0.2,0.3-0.3,0.5l-4.1,18.1l0,0l-4.7,2.8l-3.3-1.1l10.5-22.2c0.3-0.6,0.1-1.5-0.5-1.7c-0.2-0.1-0.5,0-0.7,0.1
					c-0.1,0.1-0.1,0.1-0.2,0.2l-8.6,13.6c-1.6-6.7-0.2-14.4,2-20l6.2,1.4c0.6,0.2,1.1-0.3,1.3-1.1c0.1-0.4,0-0.9-0.2-1.2
					c-0.1-0.2-0.2-0.3-0.3-0.4l-7.2-6.9c0,0,1.6-4.4,2.9-5.6c1.2-1.1,4.5-1.3,4.5-1.3l4,11.2c0.2,0.6,0.7,0.8,1.1,0.5
					c0,0,0.1,0,0.1-0.1c0.3-0.3,0.4-0.8,0.4-1.2l-1.1-7.7c6-4.7,11.2-4.3,14.9,3.3l-10.1,5.5c-0.2,0.1-0.4,0.4-0.5,0.7
					c0,0.3,0,0.6,0.1,0.8c0.2,0.4,0.5,0.6,0.8,0.4L176.2,84.3z"/>
			</g>
			<g class="st5">
				<path class="st2" d="M174.2,113.4l3.2,6.6c-2.7,3.7-5.7,7.3-9.2,10.4c-16.2,15.1-34,17.1-39.9,4.6l-4.7-10c-1-2-1.5-4.4-1.8-7
					l0,0c2.9,20.3,27.6,20,48.9-5.4C171.7,111.3,173.3,111.6,174.2,113.4z"/>
			</g>
		</g>
	</g>
	<g>
		<path class="st1" d="M348.6,135.2c6.7,2.5,12.4,11.2,13.1,21.4c0.2,2.5,0.6,9.1-2.2,12.1c-3.8,4.1-12.2-1-16.4-8.6
			c-4.3-7.7-5.7-20.3-2-24.4C343.2,133.1,346.6,134.3,348.6,135.2z"/>
		<g>
			<g>
				<path class="st2" d="M360.9,156.5v12c0,11.8-9.7,21.9-23.3,25.6c-3.7,1-7.7,1.5-11.8,1.5c-19.4,0-35.1-12.2-35.1-27.2v-12
					c0-2.5,0.4-4.9,1.2-7.2c4.1-11.6,17.7-20.1,33.9-20.1C345.2,129.3,360.9,141.5,360.9,156.5z"/>
			</g>
			<g class="st3">
				<path class="st4" d="M302,136.5c0,0,0,0.1,0.1,0.1c-0.6,0.4-1.2,0.8-1.8,1.2C300.8,137.4,301.4,136.9,302,136.5z"/>
			</g>
			<g>
				<path class="st2" d="M361.6,156.5v12c0,7.7-3.8,14.8-10.6,20.3c-6.8,5.2-15.7,8.1-25.2,8.1c-9.5,0-18.4-2.9-25.2-8.1
					c-6.9-5.3-10.6-12.5-10.6-20.3v-12c0-7.7,3.8-14.8,10.6-20.3c6.8-5.2,15.7-8.1,25.2-8.1c9.5,0,18.4,2.9,25.2,8.1 M325.8,130.5
					c-9.2,0-17.9,2.8-24.5,7.8c-6.3,4.9-9.8,11.4-9.8,18.2v12c0,6.9,3.5,13.3,9.8,18.2c6.6,5,15.2,7.8,24.5,7.8
					c9.3,0,17.9-2.8,24.5-7.8c6.3-4.9,9.8-11.4,9.8-18.2v-12c0-6.9-3.5-13.3-9.8-18.2C343.7,133.2,335,130.5,325.8,130.5z"/>
			</g>
			<g>
				<ellipse class="st1" cx="325.8" cy="156.5" rx="30.2" ry="23.3"/>
			</g>
			<g>
				<path class="st4" d="M352.9,156.5c0,2.5-0.7,4.8-2.2,7.2l0,0c-1.2,2-3,3.9-5.1,5.6c-5.2,4.1-12.3,6.3-19.9,6.3
					c-5.2,0-10.1-1-14.4-3.1l0,0c-1.9-0.9-3.8-1.9-5.4-3.3c-0.6-0.5-1.2-1-1.8-1.5l0,0c-3.5-3.3-5.4-7.3-5.4-11.2
					c0-4.5,2.7-9.2,7.3-12.8c4.2-3.2,9.4-5.3,15.3-6c1.5-0.2,3.1-0.3,4.6-0.3c1.4,0,2.9,0.1,4.3,0.2c5.9,0.7,11.4,2.8,15.6,6
					C350.3,147.2,352.9,152,352.9,156.5z"/>
			</g>
			<g>
				<path class="st1" d="M350.8,163.6l0.4,0.5c-1.2,2-3,3.9-5.1,5.6l-15.1-9.4c-0.3-0.2-0.6-0.1-0.8,0.2c-0.1,0.2-0.2,0.4-0.2,0.6
					c0,0.3,0.1,0.6,0.3,0.8l4.4,4.6c-5.3,3.4-9.6,3.7-14.4,1.2l2.8-6c0.2-0.5,0.1-1.2-0.4-1.4c-0.1,0-0.1,0-0.2,0s-0.3,0.1-0.4,0.2
					l-10.6,11.9l0,0l-5-1.3l-2.3-3.5l17.3-10.5c0.5-0.3,0.6-1.2,0.3-1.8c-0.2-0.3-0.4-0.4-0.6-0.4c-0.1,0-0.1,0-0.2,0l-12.5,4.6
					c1.2-6.8,5.5-12.2,9.6-15.1l4.6,6.1c0.4,0.6,1.1,0.6,1.5,0c0.2-0.3,0.4-0.7,0.4-1.1c0-0.2,0-0.4-0.1-0.6l-3.3-11.3
					c0,0,3.1-2.5,4.6-2.5c1.4,0,4.3,2.4,4.3,2.4l-1.1,12.5c-0.1,0.7,0.3,1.3,0.7,1.3h0.1c0.3,0,0.7-0.3,0.8-0.7l2-7.3
					c6.9,0.8,11,5.1,11.2,14.3l-10.6-3.2c-0.2-0.1-0.5,0-0.7,0.3c-0.2,0.2-0.2,0.5-0.2,0.7c0,0.4,0.2,0.9,0.5,1L350.8,163.6z"/>
			</g>
			<g>
				<path class="st2" d="M337.6,186.3v7.9c-3.7,1-7.7,1.5-11.8,1.5c-19.4,0-35.1-12.2-35.1-27.2v-12c0-2.5,0.4-4.9,1.2-7.2l0,0
					c-5.6,19.1,15.2,38.2,42.9,33.5C336.2,182.6,337.6,184.2,337.6,186.3z"/>
			</g>
			<g>
				<path class="st2" d="M344.6,70.5l4.7,10c4.7,9.8,0.5,25.8-9.3,39.4c-2.7,3.7-5.7,7.3-9.2,10.4c-16.2,15.1-34,17.1-39.9,4.6
					l-4.7-10c-1-2-1.5-4.4-1.8-7c-1.2-12.8,6.8-30.4,20.3-43C320.8,60,338.7,58,344.6,70.5z"/>
			</g>
			<g class="st3">
				<path class="st4" d="M287.7,99.5c0,0,0.1,0,0.1,0.1c-0.4,0.8-0.7,1.6-1,2.5C287.1,101.2,287.4,100.4,287.7,99.5z"/>
			</g>
			<g>
				<path class="st2" d="M331.3,131.3c-7.9,7.4-16.5,12-24.2,12.8c-0.9,0.1-1.8,0.2-2.7,0.2c-6.6,0-11.6-3.1-14.2-8.7l-4.7-10
					c-3.1-6.5-2.8-15.4,0.9-25.2c3.6-9.6,9.8-18.9,17.8-26.3c8-7.4,16.5-12,24.2-12.8c7.9-0.9,13.8,2.2,16.9,8.5l4.7,10
					c3.1,6.5,2.8,15.4-0.9,25.2 M331,63.4c-0.8,0-1.6,0-2.6,0.1c-7.4,0.8-15.8,5.3-23.4,12.5c-7.7,7.2-13.8,16.2-17.2,25.5
					c-3.4,9-3.7,17.2-1,22.8l4.7,10c2.7,5.7,8.2,8.4,15.5,7.6c7.4-0.8,15.8-5.3,23.4-12.5c7.7-7.2,13.8-16.2,17.2-25.5
					c3.4-9,3.7-17.2,1-22.8l-4.7-10C341.6,66.1,337.1,63.4,331,63.4z"/>
			</g>
			<g>
				
					<ellipse transform="matrix(0.6123 -0.7907 0.7907 0.6123 45.0113 287.2476)" class="st1" cx="315.4" cy="97.7" rx="35.2" ry="20"/>
			</g>
			<g>
				<path class="st4" d="M338,76.7c0.9,2,1.3,4.6,1,7.6l0,0c-0.2,2.7-0.9,5.5-2,8.6c-2.8,7.5-7.8,14.8-14,20.7
					c-4.3,4-8.9,7-13.2,8.7l0,0c-1.9,0.7-3.9,1.2-5.8,1.4c-0.7,0.1-1.4,0.1-2.2,0.1l0,0c-4.2-0.1-7.4-1.8-8.9-5.1
					c-1.8-3.8-1.4-9.7,1-16.3c2.2-5.9,5.7-11.8,10.2-16.8c1.2-1.3,2.5-2.7,3.8-3.9c1.2-1.1,2.5-2.2,3.7-3.1c5.2-4,10.5-6.5,15.4-7.1
					C332.1,71.1,336.1,72.9,338,76.7z"/>
			</g>
			<g>
				<path class="st1" d="M339,84.3l0.5,0.1c-0.2,2.7-0.9,5.5-2,8.6l-16.3,3.9c-0.3,0.1-0.5,0.4-0.6,0.8c0,0.2,0,0.5,0.1,0.7
					s0.3,0.4,0.5,0.4l5.4,0.4c-3.1,7-6.6,10.5-11.6,12.3l-0.1-7.2c0-0.6-0.4-1.1-0.8-0.9c-0.1,0-0.1,0.1-0.2,0.1
					c-0.1,0.1-0.2,0.3-0.3,0.5l-4.1,18.1l0,0l-4.7,2.8l-3.3-1.1l10.5-22.2c0.3-0.6,0.1-1.5-0.5-1.7c-0.2-0.1-0.5,0-0.7,0.1
					c-0.1,0.1-0.1,0.1-0.2,0.2l-8.6,13.6c-1.6-6.7-0.2-14.4,2-20l6.2,1.4c0.6,0.2,1.1-0.3,1.3-1.1c0.1-0.4,0-0.9-0.2-1.2
					c-0.1-0.2-0.2-0.3-0.3-0.4l-7.2-6.9c0,0,1.6-4.4,2.9-5.6c1.2-1.1,4.5-1.3,4.5-1.3l4,11.2c0.2,0.6,0.7,0.8,1.1,0.5
					c0,0,0.1,0,0.1-0.1c0.3-0.3,0.4-0.8,0.4-1.2l-1.1-7.7c6-4.7,11.2-4.3,14.9,3.3l-10.1,5.5c-0.2,0.1-0.4,0.4-0.5,0.7
					c0,0.3,0,0.6,0.1,0.8c0.2,0.4,0.5,0.6,0.8,0.4L339,84.3z"/>
			</g>
			<g class="st5">
				<path class="st2" d="M337,113.4l3.2,6.6c-2.7,3.7-5.7,7.3-9.2,10.4c-16.2,15.1-34,17.1-39.9,4.6l-4.7-10c-1-2-1.5-4.4-1.8-7l0,0
					c2.9,20.3,27.6,20,48.9-5.4C334.4,111.3,336.1,111.6,337,113.4z"/>
			</g>
		</g>
	</g>
	<g>
		<path class="st1" d="M66.1,55.3c1.1-1.4,3.4-2.6,6.9-3.3c2.2-0.4,4.8-1,7.8-1.6c2.5-0.6,4.8-0.8,7-0.8c6,0,11.5,2,16.4,6.1
			c4.3,3.6,7.1,7.5,8.3,11.7c0.7,2.6,1.1,5,1.1,7.3c0,3.9-1.2,7.7-3.8,11.3c-1.6,2.4-5.3,3.9-11,4.5c-5.9,0.7-9.8,1.9-11.6,3.6
			c-1.7,1.7-2.8,4.5-3.2,8.3c-0.2,3.2-0.5,6.5-0.8,9.6c-0.6,3.4-2.2,5.4-4.4,6.3l-0.3,0.1c-3.4,1.2-6,1.8-8.2,1.8
			c-3.3,0-5.7-1.4-7.4-4.2c-5.3-9.2-7.9-19-7.9-29.4C55.2,74.8,58.9,64.3,66.1,55.3z M95.7,65.4c-1.4-2.4-3.3-3.6-5.6-3.6
			c-1.2,0-2.7,0.3-4.2,0.9c-0.7,0.2-2.2,1-4.4,2.3c-1.5,0.9-3,2-4.1,3.6c-1.2,1.7-1.7,3.4-1.7,5.1c0,2.4,1.2,4.2,3.7,5.3
			c1,0.6,2.3,0.8,3.6,0.8c1.8,0,3.9-0.6,6.3-1.9c2.2-1.1,4-2.5,5.4-4.1c1.4-1.6,2.3-3.3,2.3-4.9C96.8,67.8,96.4,66.6,95.7,65.4z"/>
		<path class="st1" d="M212.8,113c-2.9-4.4-5.1-9.8-6.8-16.2c-1.6-6.1-2.5-11.9-2.5-17.3c0-13.2,4.3-21.1,13-23.7
			c3.3-0.9,5.7-1.4,7.5-1.4c1.6,0,3.4,0.4,5.1,1.1c1.7,0.7,3.5,3.9,4.9,9.4c1.4,5,3.2,7.6,5.4,7.6c2.2,0,3.9-2.3,5.2-6.8
			c1.4-5.1,3-8.1,4.4-8.9c3.9-2,6.8-3.1,8.6-3.1c1.7,0,3.3,0.6,4.8,1.7c3.6,2.8,6.2,6.9,8,12.4c1.5,4.5,2.3,9.4,2.3,14.8
			c0,6.2-0.9,12.1-2.9,17.2c-2.3,6.2-5.6,10.9-10,14c-1.8,1.2-3.7,1.8-5.5,1.8c-1.8,0-3.9-0.6-6.1-1.8c-1.6-0.9-2.5-2.6-2.5-4.8
			c0-1.8,0.6-4.6,1.9-8.3c1.3-3.7,1.9-6.5,1.9-8.1c0-2.5-1.1-3.7-3.3-3.7c-1,0-2.3,2-3.6,6c-1.3,4-2.8,6-4.3,6
			c-1.5,0-2.8-2.3-3.9-6.7c-1.1-4.5-2.6-6.6-4.4-6.2c-2.4,0.4-3.5,2.2-3.5,5.3c0,1.6,0.2,3.7,0.7,6c1.2,5.9,1.8,9.5,1.8,10.8
			c0,3.1-1.1,5-3.3,5.7c-1.9,0.7-3.9,1-5.7,1C217,117,214.4,115.7,212.8,113z"/>
		<path class="st1" d="M56,134.2c0.2-0.8,1.7-2,4.7-3.9c3-1.8,6.9-2.8,11.6-2.8h10.6c6.7,0,12.2,1.3,16.5,3.9
			c4.1,2.5,7.5,6.3,10.3,11.7c3.6,6.7,5.4,13,5.4,18.9c0,5.4-2.4,11.6-7.2,18.4c-6,8.8-11.2,14-15.4,15.8c-3,1.2-9.7,1.8-20.3,1.8
			c-10.3,0-15.8-1.4-16.1-4.3c-1-8.8-1.7-14.9-2-18.4c-0.6-6.5-0.9-12.2-0.9-17.2C53.4,149.5,54.4,141.5,56,134.2z M70.1,148.4
			c-1,5.1-1.5,9.4-1.5,12.7c0,1.7,0.1,4.2,0.2,7.6s0.2,5.9,0.2,7.6c0,2.9,1.4,4.3,4.3,4.3c2.6,0,5.5-1,8.8-3.1
			c3.1-1.9,5.3-4.1,6.9-6.5c1.5-2.4,2.3-5.2,2.3-8.5c0-3.1-0.2-5.4-0.7-7.1c-0.6-2.3-1.8-4.2-3.6-5.8c-3.6-3.2-7.5-4.8-11.7-4.8
			C72.3,144.7,70.6,145.9,70.1,148.4z"/>
		<path class="st1" d="M273.2,191.1c-3.1,3.6-7.1,5.3-11.9,5.3c-0.3,0-0.8,0-1.3-0.1c-5.7-0.3-9.2-4.2-10.5-11.8
			c-1.7-9.5-3.1-14.9-4-16.4c-0.4-0.5-1.1-0.8-2.4-0.8c-1.8,0-3.3,0.4-4.2,1.1c0,0.3,0,0.6,0.1,0.9l0.6,0.2c-1.7,0.8-2.6,2.5-2.6,5
			c0,0.9,0.5,3.9,1.3,9c0.4,2.2,0.6,4,0.6,5.5c0,1.7-0.3,3.3-0.8,4.4c-0.8,1.6-2.9,3-6.2,4c-1.9,0.6-3.7,0.9-5.3,0.9
			c-3.5,0-6-1.5-7.9-4.5c-5.5-9.5-8.2-19.7-8.2-30.5c0-12.6,3.8-23.4,11.4-32.7c1.2-1.5,3.7-2.7,7.3-3.4c7.6-1.7,12.6-2.6,15.2-2.6
			c3.1,0,6,0.5,9,1.5c5.5,2,10.1,5.5,13.7,10.3c2.8,3.9,4.2,8.6,4.2,14.1c0,4.1-1.3,8-3.9,11.7c-1,1.5-1.5,2.9-1.5,4.1
			c0,0.8,0.4,1.9,1.2,3.4c1.8,3,2.9,4.9,3.1,5.8C271.1,182.3,272.1,187.4,273.2,191.1z M246.7,137.5c-1.9,0-5,1.1-9,3.4
			c-1.5,0.8-3,2.2-4.2,3.9s-1.8,3.5-1.8,5.1c0,1.1,0.3,2.3,1,3.2c1.5,2.3,3.7,3.4,6.5,3.4c2.3,0,4.5-0.7,7-2.2
			c5.1-3.1,7.7-6.1,7.7-9.3c0-1.2-0.4-2.5-1.1-3.6C251.1,138.8,249.1,137.5,246.7,137.5z"/>
	</g>
	<g>
		<path class="st1" d="M71.1,214.2c1.1-1.4,3.4-2.6,6.9-3.3c2.3-0.4,4.8-1,7.8-1.6c2.5-0.6,4.8-0.8,7-0.8c6,0,11.5,2,16.4,6.1
			c4.3,3.6,7.1,7.5,8.3,11.7c0.7,2.6,1.1,5,1.1,7.3c0,3.9-1.2,7.7-3.8,11.3c-1.6,2.4-5.3,3.9-11,4.5c-5.9,0.7-9.8,1.9-11.6,3.6
			c-1.7,1.7-2.8,4.5-3.2,8.3c-0.3,3.2-0.5,6.5-0.8,9.6c-0.6,3.4-2.2,5.4-4.4,6.3l-0.3,0.1c-3.3,1.2-6,1.8-8.2,1.8
			c-3.3,0-5.7-1.4-7.4-4.2c-5.3-9.2-7.9-19-7.9-29.4C60.1,233.7,63.7,223.2,71.1,214.2z M100.6,224.5c-1.4-2.4-3.4-3.6-5.6-3.6
			c-1.2,0-2.7,0.3-4.2,0.9c-0.7,0.2-2.2,1-4.4,2.3c-1.5,0.9-3,2-4,3.6c-1.2,1.7-1.8,3.4-1.8,5.1c0,2.4,1.2,4.2,3.7,5.3
			c1,0.6,2.3,0.8,3.6,0.8c1.8,0,3.9-0.6,6.3-1.9c2.2-1.1,4-2.5,5.4-4.1c1.4-1.6,2.3-3.3,2.3-4.9
			C101.7,226.7,101.3,225.6,100.6,224.5z"/>
		<path class="st1" d="M145.2,209.9c2,0,4.1,0.3,6.2,1c6.7,2.3,10,5,10,8.5c0,2-1.8,6.3-5.6,12.9c-3.8,6.6-5.6,11.3-5.6,14.1
			c0,2.2,0.6,4.1,1.9,5.8c2.4,3,5.8,4.5,10.5,4.5c1.7,0,6-0.6,12.7-1.8c3-0.6,5.4-0.8,7.2-0.8c1.4,0,2.8,0.2,4.1,0.6
			c3.4,1,5.1,3.3,5.1,6.9c0,3-0.9,5.9-2.7,8.9c-1.5,2.6-4.1,4.5-7.7,5.8c-3.2,0.9-6.3,1.7-9.5,2.8c-1.8,0.6-3.5,0.9-4.8,0.9
			c-0.7,0-2.4-0.2-5.1-0.6c-6.8-0.9-14.4-1.9-23-3c-3.8-0.4-6.6-3.9-8.2-10.2c-1-4.2-1.6-8.9-1.6-14.3c0-14.5,3-27.3,9-38.4
			C139.6,211,141.8,209.9,145.2,209.9z"/>
		<path class="st1" d="M215.8,277.9c-7.5-1.8-11.3-7.4-11.3-16.8c0-8.9,3.1-18.1,9.3-27.5c6.5-9.8,13.9-15.8,22.2-17.9
			c3-0.7,6.6-1.1,10.8-1.1h1.7c8.6,0,16.7,5,24.2,14.9c7.1,9.5,10.6,19,10.6,28.8c0,8.6-3.4,14.3-10.1,17.1c-5.1,2-8.7,3.1-10.5,3.1
			c-4,0-6.5-1.2-7.5-3.7c-0.5-1.2-0.7-2.7-0.7-4.5c0-0.7,0.1-2,0.4-4v-3.1c0-3.8-1.1-6.2-3.4-7.3c-2.7-1.2-4.8-1.7-6.6-1.7
			c-1.3,0-2.9,0.3-4.5,0.9c-2.2,0.9-3.3,2.9-3.3,5.8c0,0.9,0.1,2.2,0.3,3.5c0.4,3.3,0.6,5.3,0.6,6.1c0,2.9-0.8,4.9-2.6,6.2
			c-2.7,2-5.6,3-8.9,3c-1.5,0-3.3-0.2-5.1-0.6C221.1,279.2,219.2,278.7,215.8,277.9z M233.8,234.6c0,1.9,1,3.4,3,4.4
			c1.6,0.7,3.5,1.1,5.6,1.1c2.3,0,4.3-0.4,6.2-1.3c2.4-1,3.8-2.6,4.3-4.4c0.1-0.4,0.2-0.8,0.2-1.1c0-1.4-0.6-2.9-1.7-4.3
			c-1.1-1.4-2.5-2.6-3.8-3.3c-1.4-0.7-2.8-1.1-4.2-1.1c-0.7,0-1.4,0.1-2.4,0.3C236.2,225.9,233.8,229.2,233.8,234.6z"/>
		<path class="st1" d="M302.7,273.2c-6.1-9.2-9.1-19-9.1-29.3c0-10.6,3.6-18.6,10.6-23.8c2-1.4,4.2-2.2,6.7-2.2
			c1.1,0,3.3,0.3,6.5,0.9c3.2,0.6,5.6,3.3,7.6,8c1.1,3.7,2.3,7.4,3.3,11.2c2,5.3,4.2,7.9,6.6,7.9c0.7,0,1.5-0.2,2.4-0.5
			c1.5-0.6,2.4-1.9,2.4-4.1c0-1.4-0.2-3.1-0.7-5.1c-1.2-5-1.8-8.1-1.8-9.2c0-2.5,0.7-4.2,2.2-5.3c3.4-2.6,6.6-3.8,9.6-3.8
			c5,0,8.6,5.2,10.9,15.6c0.9,4.6,1.4,9.4,1.4,14.1c0,5-0.5,9.6-1.4,13.8c-1.3,5.9-3.4,9.9-6.1,12.1c-1,0.8-2.3,1.8-3.7,3
			c-1,0.7-2,1.1-3.2,1.1c-1.4,0-3.7-0.5-6.7-1.5c-3.2-1-6-3.7-8.4-7.9c-0.6-1-2.6-4.9-5.8-11.5c-1.9-3.9-3.6-5.8-4.9-5.8
			c-0.9,0-1.8,0.7-2.8,2c-0.6,0.8-0.8,1.6-0.8,2.5c0,0.6,1.4,3.4,4.3,8.3c1.3,2.4,2,4.6,2,6.7c0,0.7-0.1,1.4-0.3,2.4
			c-0.9,3.9-3.8,5.8-8.9,5.8C308.9,278.7,305,276.9,302.7,273.2z"/>
	</g>
</g>
</svg>
