<?xml version="1.0" encoding="utf-8"?>
<!-- Generator: Adobe Illustrator 26.0.1, SVG Export Plug-In . SVG Version: 6.00 Build 0)  -->
<svg version="1.1" id="Слой_1" xmlns="http://www.w3.org/2000/svg" xmlns:xlink="http://www.w3.org/1999/xlink" x="0px" y="0px"
	 viewBox="0 0 71.7 35.5" style="enable-background:new 0 0 71.7 35.5;" xml:space="preserve">
<style type="text/css">
	.st0{fill:#F59E0B;}
	.st1{fill:#FFFFFF;}
</style>
<g>
	<g>
		<path class="st0" d="M6.5,20.8l1.9-0.2l1.9-0.2l3.8-0.4l7.7-0.8c2.6-0.3,5.1-0.5,7.7-0.8l7.7-0.8l7.7-0.8c2.6-0.2,5.1-0.5,7.7-0.8
			l7.7-0.7l3.8-0.4l1.9-0.2l1.9-0.2l-1.9,0.2l-1.9,0.2l-3.8,0.4l-7.7,0.8c-2.6,0.3-5.1,0.5-7.7,0.8l-7.6,0.9l-7.7,0.8
			c-2.6,0.2-5.1,0.5-7.7,0.8l-7.7,0.8l-3.8,0.4l-2,0L6.5,20.8z"/>
		<path class="st0" d="M3.7,21.6l1.9-0.2l1.9-0.2l3.8-0.4L19,20c2.6-0.3,5.1-0.5,7.7-0.8l7.7-0.8l7.7-0.8c2.6-0.2,5.1-0.5,7.7-0.8
			l7.7-0.7l3.8-0.4l1.9-0.2l1.9-0.2l-1.9,0.2l-1.9,0.2l-3.8,0.4l-7.7,0.8c-2.6,0.3-5.1,0.5-7.7,0.8l-7.7,0.9l-7.7,0.8
			c-2.6,0.2-5.1,0.5-7.7,0.8L11.4,21l-3.8,0.4l-1.9,0.2L3.7,21.6z"/>
		<path class="st0" d="M0.8,22.7l1.9-0.2l1.9-0.2l3.8-0.4l7.7-0.8c2.6-0.3,5.1-0.5,7.7-0.8l7.7-0.8l7.7-0.8c2.6-0.2,5.1-0.5,7.7-0.8
			l7.7-0.7l3.8-0.4l1.9-0.2l1.9-0.2l-1.8,0.1l-1.9,0.3l-3.8,0.4L47,17.9c-2.6,0.3-5.1,0.5-7.7,0.8l-7.7,0.8l-7.7,0.8
			c-2.6,0.2-5.1,0.5-7.7,0.8l-7.7,0.7l-3.8,0.4l-1.9,0.2L0.8,22.7z"/>
		<path class="st0" d="M-2,23.5l1.9-0.2l1.9-0.2l3.8-0.4l7.7-0.8c2.6-0.3,5.1-0.5,7.7-0.8l7.7-0.8l7.7-0.8c2.6-0.2,5.1-0.5,7.7-0.8
			l7.7-0.7l3.8-0.4l1.9-0.2l1.9-0.2l-1.9,0.2l-1.9,0.2L51.8,18l-7.7,0.8c-2.6,0.3-5.1,0.5-7.7,0.8l-7.7,0.8L21,21.2
			c-2.6,0.2-5.1,0.5-7.7,0.8l-7.7,0.7l-3.8,0.4l-1.9,0.2L-2,23.5z"/>
		<path class="st0" d="M0.6,24.2L2.5,24l1.9-0.3l3.8-0.4l7.7-0.8c2.6-0.3,5.1-0.5,7.7-0.8l7.7-0.8l7.7-0.8c2.6-0.2,5.1-0.5,7.7-0.8
			l7.7-0.7l3.8-0.4l1.9-0.2l1.9-0.2l-1.9,0.2l-1.9,0.2l-3.8,0.5l-7.7,0.8c-2.6,0.3-5.1,0.5-7.7,0.8l-7.6,0.8L23.7,22
			c-2.6,0.2-5.1,0.5-7.7,0.8l-7.7,0.7l-3.9,0.4L2.5,24L0.6,24.2z"/>
		<path class="st0" d="M3.2,24.8l1.9-0.2L7,24.4l3.8-0.4l7.7-0.8c2.6-0.3,5.1-0.5,7.7-0.8l7.7-0.8l7.7-0.8c2.6-0.2,5.1-0.5,7.7-0.8
			l7.7-0.7l3.8-0.4l1.9-0.2l1.9-0.2l-1.9,0.2l-1.9,0.2L57,19.3l-7.6,0.8c-2.6,0.3-5.1,0.5-7.7,0.8L34,21.7l-7.7,0.8
			c-2.6,0.2-5.1,0.5-7.7,0.8L10.9,24l-3.8,0.4l-1.9,0.2L3.2,24.8z"/>
		<path class="st0" d="M5.8,25.5l1.9-0.2L9.6,25l3.8-0.4l7.7-0.8c2.6-0.3,5.1-0.5,7.7-0.8l7.7-0.8l7.7-0.8c2.6-0.2,5.1-0.5,7.7-0.8
			l7.7-0.7l3.8-0.4l1.9-0.2l1.9-0.2l-1.8,0.2l-1.9,0.2L59.7,20L52,20.8c-2.6,0.3-5.1,0.5-7.7,0.8l-7.7,0.8l-7.7,0.8
			c-2.6,0.2-5.1,0.5-7.7,0.8l-7.7,0.8l-3.8,0.4l-1.9,0.2L5.8,25.5z"/>
		<path class="st0" d="M2.5,26.8l1.9-0.2l1.9-0.2l3.8-0.4l7.7-0.8c2.6-0.3,5.1-0.5,7.7-0.8l7.7-0.8l7.7-0.8c2.6-0.2,5.1-0.5,7.7-0.8
			l7.7-0.7l3.8-0.4l1.9-0.2l1.9-0.2l-1.9,0.2l-1.9,0.2l-3.8,0.4l-7.7,0.8c-2.6,0.3-5.1,0.5-7.7,0.8l-7.6,0.8l-7.7,0.8
			c-2.6,0.2-5.1,0.5-7.7,0.8l-7.7,0.8l-3.8,0.3l-2,0.2L2.5,26.8z"/>
		<path class="st0" d="M-0.8,28.2L1.1,28L3,27.8l3.8-0.4l7.7-0.8c2.6-0.3,5.1-0.5,7.7-0.8l7.7-0.8l7.7-0.8c2.6-0.2,5.1-0.5,7.7-0.8
			l7.7-0.7l3.8-0.4l1.9-0.2l1.9-0.2L58.8,22l-1.9,0.2L53,22.7l-7.7,0.8c-2.6,0.3-5.1,0.5-7.7,0.8L29.9,25l-7.7,0.8
			c-2.6,0.2-5.1,0.5-7.7,0.8l-7.7,0.7L3,27.8L1.1,28L-0.8,28.2z"/>
		<path class="st0" d="M-4.1,29.5l1.9-0.2l1.9-0.2l3.8-0.4l7.7-0.8c2.6-0.3,5.1-0.5,7.7-0.8l7.7-0.8l7.7-0.8
			c2.6-0.2,5.1-0.5,7.7-0.8l7.7-0.7l3.8-0.4l1.9-0.2l1.9-0.2l-1.9,0.2l-1.9,0.2L49.8,24L42,24.8c-2.6,0.3-5.1,0.5-7.7,0.8l-7.7,0.8
			l-7.7,0.8c-2.6,0.2-5.1,0.5-7.7,0.8l-7.6,0.8l-3.8,0.4l-1.9,0.2L-4.1,29.5z"/>
		<path class="st0" d="M2,29.5l1.9-0.2L5.8,29l3.8-0.4l7.8-0.9c2.6-0.3,5.1-0.5,7.7-0.8l7.7-0.8l7.7-0.8c2.6-0.2,5.1-0.5,7.7-0.8
			l7.7-0.7l3.8-0.4l1.9-0.2l1.9-0.2l-1.9,0.2l-1.9,0.2L56,23.9l-7.7,0.8c-2.6,0.3-5.1,0.5-7.7,0.8l-7.7,0.8L25.1,27
			c-2.6,0.2-5.1,0.5-7.7,0.8l-7.7,0.9l-3.8,0.4L4,29.4L2,29.5z"/>
		<path class="st0" d="M8.2,29.5l1.9-0.2L12,29l3.8-0.4l7.7-0.8c2.6-0.3,5.1-0.5,7.7-0.8l7.7-0.8l7.7-0.8c2.6-0.2,5.1-0.5,7.7-0.8
			L62,24l3.8-0.4l1.9-0.2l1.9-0.2l-1.9,0.2l-1.9,0.2L62,24l-7.7,0.8c-2.6,0.3-5.1,0.5-7.7,0.8l-7.7,0.8l-7.7,0.8
			c-2.6,0.2-5.1,0.5-7.7,0.8l-7.6,0.8L12,29.2l-1.9,0.2L8.2,29.5z"/>
		<path class="st0" d="M14.3,29.5l1.9-0.2l1.9-0.2l3.8-0.4l7.7-0.8c2.6-0.3,5.1-0.5,7.7-0.8l7.7-0.8l7.7-0.8
			c2.6-0.2,5.1-0.5,7.7-0.8l7.7-0.7l3.8-0.4l1.9-0.2l1.9-0.2l-1.9,0.2l-1.9,0.2L68.1,24l-7.7,0.8c-2.6,0.3-5.1,0.5-7.7,0.8L45,26.3
			l-7.6,0.9c-2.6,0.2-5.1,0.5-7.7,0.8L22,28.8l-3.8,0.4l-1.9,0.2L14.3,29.5z"/>
		<path class="st0" d="M11,30.8l1.9-0.2l1.9-0.2l3.8-0.4l7.7-0.8c2.6-0.3,5.1-0.5,7.7-0.8l7.7-0.8l7.7-0.8c2.6-0.2,5.1-0.5,7.7-0.8
			l7.7-0.7l3.8-0.4l1.9-0.2l1.9-0.2l-1.9,0.2l-1.9,0.2l-3.8,0.4L57.1,26c-2.6,0.3-5.1,0.5-7.7,0.8l-7.6,0.9l-7.7,0.8
			c-2.6,0.2-5.1,0.5-7.7,0.8L18.7,30l-3.8,0.4L13,30.7L11,30.8z"/>
		<path class="st0" d="M7.7,32l1.9-0.2l1.9-0.2l3.8-0.4l7.7-0.8c2.6-0.3,5.1-0.5,7.7-0.8l7.7-0.8l7.7-0.8c2.6-0.2,5.1-0.5,7.7-0.8
			l7.7-0.7l3.8-0.4l1.9-0.2l1.9-0.2l-1.9,0.2L65.4,26l-3.8,0.4l-7.7,0.8c-2.6,0.3-5.1,0.5-7.7,0.8l-7.7,0.8l-7.7,0.9
			c-2.6,0.2-5.1,0.5-7.7,0.8l-7.7,0.7l-3.8,0.4l-1.9,0.2L7.7,32z"/>
		<path class="st0" d="M16,32.2l1.2-0.1l1.2-0.1l2.4-0.3c1.6-0.2,3.2-0.3,4.7-0.5c1.6-0.2,3.2-0.3,4.7-0.5l4.7-0.5l4.7-0.4
			c1.6-0.1,3.2-0.3,4.7-0.4c1.6-0.1,3.2-0.3,4.7-0.4l2.4-0.2l1.2-0.1l1.2-0.1l-1.2,0.1l-1.2,0.1l-2.4,0.3c-1.6,0.2-3.2,0.3-4.7,0.5
			c-1.6,0.2-3.2,0.3-4.7,0.5L35,30.6L30.2,31c-1.6,0.1-3.2,0.3-4.7,0.4c-1.6,0.1-3.2,0.3-4.7,0.4l-2.4,0.2l-1.2,0.1L16,32.2z"/>
		<path class="st0" d="M21.9,32.7l1.2-0.1l1.2-0.1l2.4-0.3c1.6-0.2,3.2-0.3,4.7-0.5c1.6-0.2,3.2-0.3,4.7-0.5l4.7-0.5l4.7-0.4
			c1.6-0.1,3.2-0.3,4.7-0.4c1.6-0.1,3.2-0.3,4.7-0.4l2.4-0.2l1.2-0.1l1.2-0.1l-1.2,0.1l-1.1,0.1L55,29.5c-1.6,0.2-3.2,0.3-4.7,0.5
			c-1.6,0.2-3.2,0.3-4.7,0.5L40.9,31l-4.7,0.4c-1.6,0.1-3.2,0.3-4.7,0.4c-1.6,0.1-3.2,0.3-4.7,0.4l-2.4,0.2l-1.2,0.1L21.9,32.7z"/>
	</g>
	<g>
		<g>
			<g>
				<path class="st0" d="M45.6,7.8L45.6,7.8h0.5l0,0l1.1-2l0,0c0.6,0.7,1.2,1.5,1.7,2.2c0.2,0.3,0.4,0.5,0.6,0.8l1.2,1.5l0.2,0.3
					l0,0h0.4l0,0l0,0L47,5l0,0l0,0l0,0L45.6,7.8L45.6,7.8z"/>
				<path class="st0" d="M36.8,21.8l0.1-0.2c0.3-0.4,0.6-0.9,0.8-1.4l1-1.6c0.3-0.4,0.6-1,1-1.6l1-1.6l0.5-0.8l0.5-0.8
					c0.7-1.3,1.3-2.3,1.9-3.3l0,0l0,0l0,0c-0.6,0.9-1.2,1.9-2,3.2l-0.5,0.8l-0.5,0.8l-1,1.6c-0.3,0.6-0.7,1.2-1,1.6l-1,1.6
					c-0.3,0.4-0.5,0.9-0.8,1.4l-0.1,0.2c-0.1,0.2-0.2,0.4-0.3,0.6c-0.2,0.3-0.4,0.7-0.6,1L35.5,23c-0.3-0.3-0.6-0.6-0.8-0.9l0,0l0,0
					l0,0c0.3,0.3,0.5,0.6,0.8,0.9l0.3,0.4l0,0l0,0l0,0l0,0c0.2-0.3,0.4-0.7,0.6-1C36.6,22.2,36.7,22,36.8,21.8z"/>
				<path class="st0" d="M35.3,21.1C35.3,21.2,35.3,21.2,35.3,21.1C35.3,21.2,35.3,21.2,35.3,21.1C35.3,21.2,35.3,21.2,35.3,21.1
					l2.1-2.9c-0.1,0.4-0.2,0.9-0.3,1.3l0,0l0,0l0,0c0.2-0.6,0.4-1.1,0.6-1.7l0.4-0.5L38,18l0,0l0,0l0,0l0.4-1.1l0.4-0.6l-0.1,0.9
					l0,0l0,0l0,0l0.4-1.3l0.5-0.8l-0.2,1l0,0l0,0l0,0l0.4-1.5l0,0l0.6-0.9c0,0.3-0.1,0.7-0.1,1l0,0l0,0l0,0c0.1-0.5,0.3-1,0.4-1.4
					l0.4-0.6l-0.1,1l0,0l0,0l0,0l0.4-1.5l0.4-0.5l-0.1,0.6l0,0l0,0l0,0l0.3-1.1l3.4-4.8l0.1-0.2l0,0l0,0l0,0L44,8l0,0l0.1,0.2
					l-0.2-0.1l0,0l0,0l-0.3,0.3l0,0l0.1,0.3l0,0l0,0l0,0L43.4,9l0,0l0.1,0.3l-0.2-0.2l0,0l0,0l-0.2,0.3l0,0l0.1,0.3L43,9.5l0,0l0,0
					l-0.2,0.3l0,0l0.1,0.3l-0.2-0.2l0,0l0,0l-0.2,0.3l0,0l0.1,0.4l-0.2-0.2l0,0l0,0l-0.6,0.3l0,0l0.1,0.4l-0.3-0.2l0,0l0,0l-0.2,0.3
					l0,0l0.2,0.4l-0.3-0.3l0,0l0,0l-0.2,0.2l0,0l0.2,0.4L41,11.8l0,0l0,0l0,0L40.8,12l0,0l0.2,0.4l-0.3-0.3l0,0l0,0l0,0l-0.2,0.2
					l0,0l0.2,0.5l-0.3-0.3l0,0l0,0l0,0l-0.2,0.2l0,0l0.2,0.5l-0.3-0.3l0,0l0,0l0,0l-0.2,0.2l0,0l0.2,0.5l-0.7-0.1l0,0l0,0l0,0
					l-0.2,0.2l0,0l0.2,0.5L39,13.8l0,0l0,0l0,0L38.8,14l0,0l0.3,0.6l-0.4-0.4l0,0l0,0l0,0l-0.3,0.4l0,0l0.3,0.6l-0.4-0.4l0,0l0,0
					l0,0L38.1,15l0,0l0.3,0.6L38,15.2l0,0l0,0l0,0l-0.2,0.2l0,0l0.3,0.6l-0.4-0.5l0,0l0,0l0,0l-0.5,0.3l0,0l0.3,0.6L37,15.9l0,0l0,0
					l0,0l-0.2,0.2l0,0l0.3,0.7l-0.5-0.5l0,0l0,0l0,0l-0.2,0.2l0,0l0.4,0.7l-0.5-0.5l0,0l0,0l0,0l-0.2,0.2l0,0l0.4,0.7L36,17.1l0,0
					l0,0l0,0l-0.2,0.2l0,0l0.4,0.7l-0.7-0.2l0,0l0,0l0,0L35.3,18l0,0l0.4,0.8l-0.5-0.6l0,0l0,0l0,0L35,18.4l0,0l0.4,0.8l-0.6-0.6
					l0,0l0,0l0,0l-0.2,0.2l0,0l0.4,0.8l-0.6-0.6l0,0l0,0l0,0l-0.2,0.2l0,0l0.4,0.8l-0.6-0.6l0,0l0,0l0,0l-0.3,0.4l0,0l0.5,0.8
					l-0.6-0.7l0,0l0,0L33.4,20l0,0l1,1.2l0,0l0,0l0,0l2.5-2.8L35.3,21.1z"/>
				<path class="st0" d="M53.6,14L53.6,14l0.7,0.9c0.3,0.4,0.6,0.8,0.9,1.2l0,0h0.4l0,0l0,0l0,0L54.1,14l0,0H53.6L53.6,14z"/>
				<path class="st0" d="M51.2,11L51.2,11l0.7,1l0,0h0.4l0,0l0,0l-0.7-0.9l0,0L51.2,11L51.2,11z"/>
				<path class="st0" d="M52,12L52,12l0.7,0.9l0,0h0.4l0,0l0,0L52.4,12l0,0H52L52,12z"/>
				<path class="st0" d="M52.8,13.1L52.8,13.1l0.2,0.3l0.3,0.5l0,0h0.4l0,0l0,0l-0.6-0.8l0,0H52.8C52.9,13.1,52.8,13.1,52.8,13.1z"
					/>
				<path class="st1" d="M61.5,23.8l-5.7-7.4l0,0h-0.2h-0.2l0,0l0,0c0.1,0.2,0.3,0.4,0.4,0.6c-0.2-0.2-0.3-0.4-0.5-0.6l0,0H55h-1.2
					l0,0l0,0c0.1,0.3,0.2,0.6,0.4,0.9c-0.2-0.3-0.3-0.6-0.5-0.9l0,0h-2.3h-3h3h2.4H55h0.1l0,0l0,0c-0.3-0.4-0.6-0.7-0.9-1.1l-0.8-1
					l0,0h-6h4.7l0,0l0,0L52,13.9l0.2,0.4l0,0h1l0,0l0,0L53,13.9l-0.3-0.4l0,0l-1.8-0.1l1.7-0.1l0,0l0,0l-0.7-0.9l0,0h-0.8l0,0l0,0
					l0.1,0.4L51,12.4l0,0l0,0h-0.6h1.5l0,0l0,0l-0.7-1l0,0h-1.5h1.4l0,0l0,0l-0.2-0.2l-1.2-1.5c-0.2-0.3-0.4-0.5-0.6-0.8
					c-0.5-0.7-1.1-1.4-1.7-2.2l0,0l0,0l0,0l-1.1,1.8l0,0l0,0h0.5h-0.6l0,0l-0.3,0.6l0.3-0.5l0,0l0,0h-0.5l0,0l-0.4,0.7l0,0l0,0h0.5
					l0,0l0,0l0,0l0,0h0.6h-0.6l0,0l0,0l0,0h-0.6l0,0l-0.6,0.4l0,0l0,0l2.1,0.1L44.4,10l0,0l-8,13.7l0,0l0,0L61.5,23.8L61.5,23.8
					L61.5,23.8z M45,15c0.8,0,1.6,0,2.4,0c0.7,0,1.6,0,2.4,0c0.6,0,1.2,0,1.7,0c-0.5,0-1.1,0-1.6,0l0,0l0,0v0.6L49.8,15l0,0l0,0
					c-0.7,0-1.3,0-1.8,0l0,0l0,0c0,0.2,0,0.4,0,0.6c0-0.2-0.1-0.4-0.1-0.6l0,0h-0.4C46.6,15.1,45.8,15.1,45,15c-0.5,0.1-1.1,0-1.7,0
					C43.8,15,44.4,15,45,15z M58,23.5L57.6,23l0,0l0,0l0,0L58,23.5h-9.4v-0.8l0,0l0,0l0,0l-0.2,0.7h-5.7l0.1-0.7l0,0l0,0l0,0
					l-0.2,0.7h-5.8l5.6-9.6L41,17.1l-0.2,0.4l0,0l0,0l4.4,0.1l0,0l0.2-0.6l-0.1,0.6l0,0l0,0l6.3,0.1h-4.2l0,0l-0.1,0.5v-0.4l0,0
					L43.1,18l0,0c-0.1,0.1-0.1,0.3-0.2,0.4c0-0.1,0.1-0.3,0.1-0.4l0,0l0,0h-2.3l0,0l-2.5,5l0,0l0,0l0,0l1.7-2.9h1.7
					c-0.1,0.4-0.2,0.7-0.4,1.1l0,0l0,0l0,0c0.2-0.4,0.3-0.7,0.5-1.1h4l-0.1,0.5l0,0l0,0l0,0l0.2-0.5l6.6-0.1l0,0l0,0L40,19.8
					l0.5-0.9h16.9l1.6,2L43.4,21l0,0l0,0l11.9,0.1l0.7,1l0,0l0,0l0,0l-0.5-1h3.5l0.9,1.2h-8.1c0-0.2,0-0.4-0.1-0.6l0,0l0,0l0,0
					c0,0.2,0,0.4,0,0.6l-12,0.1l0,0l0,0l20.5,0.1l0.8,1L58,23.5z"/>
			</g>
			<g>
				<path class="st0" d="M52.1,10.8L52.1,10.8l-5-6.5L32.5,20l3.2,4.1l26.8,0.2L52.1,10.8L52.1,10.8L52.1,10.8z M47.2,5.1l4.2,5.6
					H51l-0.2-0.3L49.6,9c-0.8-1-1.5-2-2.3-3V5.8V6l-1.1,1.9c0,0,0,0,0,0.1h-0.5L47.2,5.1z M46,8c-0.1,0.3-0.3,0.5-0.5,0.8H45
					l0.4-0.7L46,8z M33.2,20.1l0.1-0.2l0.7,0.8l-0.5-1l0.2-0.2l0.7,0.8l-0.5-1l0.2-0.2l0.7,0.7l-0.5-0.9l0.2-0.2l0.7,0.7l-0.5-0.9
					l0.2-0.2l0.7,0.7l-0.5-0.9l0.3-0.4l0.6,0.7l-0.5-0.9l0.2-0.2l0.6,0.7l-0.4-0.8l0.2-0.2l0.6,0.6l-0.4-0.9l0.2-0.2l0.6,0.6
					l-0.4-0.8l0.2-0.2l0.6,0.6L37.1,16l0.2-0.2l0.5,0.6l-0.4-0.7l0.2-0.2l0.5,0.5l-0.4-0.7l0.2-0.2l0.5,0.5l-0.3-0.7l0.2-0.2
					l0.5,0.5l-0.3-0.7l0.2-0.2l0.5,0.5l-0.2-1l0.2-0.2l0.5,0.4l-0.3-0.6l0.2-0.2l0.4,0.4l-0.3-0.6l0.2-0.2l0.4,0.4l-0.2-0.6l0.2-0.2
					l0.4,0.4l-0.2-0.5l0.2-0.2l0.4,0.3L41,11.8l0.2-0.2l0.4,0.3l-0.1-0.7l0.2-0.3l0.3,0.3l-0.1-0.5l0.2-0.3l0.4,0.3l-0.2-0.4
					l0.2-0.3l0.3,0.3L42.5,10l0.2-0.3L43,9.9l-0.1-0.4l0.2-0.3l0.3,0.2L43.3,9l0.2-0.3l0.2,0.2l-0.1-0.3L44,8.3l0.2,0.2l-0.1-0.3
					l1.7-1.8l-0.1,0.2l-3.4,4.8L42,12.5l0.1-0.7l-0.4,0.6l-0.4,1.4l0.2-1l-0.5,0.7c-0.1,0.5-0.3,1-0.4,1.4c0-0.3,0.1-0.7,0.1-1.1
					l-0.7,0.9l0,0l-0.1,0.5l-0.3,1l0.2-1V15l-0.6,0.8l-0.4,1.3l0.2-1l-0.5,0.7L38,18.1l0.1-0.8l-0.4,0.6c-0.2,0.6-0.4,1.2-0.6,1.7
					c0.1-0.4,0.2-0.9,0.3-1.4l-2.1,3l1.6-2.8l-2.7,3L33.2,20.1z M35.8,23.5L35.8,23.5c-0.4-0.5-0.8-0.9-1.1-1.4
					C35,22.5,35.4,23,35.8,23.5c0.3-0.6,0.6-1.2,0.9-1.7c0.3-0.5,0.6-1.1,0.9-1.6l1-1.6c0.3-0.5,0.6-1.1,1-1.6l1-1.6l0.5-0.8
					l0.5-0.8c0.6-1.1,1.3-2.1,2-3.2c-0.6,1.1-1.2,2.2-1.9,3.3l-0.5,0.8l-0.5,0.8l-1,1.6c-0.3,0.5-0.6,1.1-1,1.6l-1,1.6
					c-0.3,0.5-0.6,1.1-1,1.6C36.5,22.5,36.2,23,35.8,23.5L35.8,23.5z M61.4,23.8l-25.1-0.2l8-13.7l2.8-0.1l-2.6-0.1L45,9h0.6
					c-0.1,0.3-0.3,0.5-0.4,0.8c0.2-0.3,0.3-0.5,0.5-0.8l1-0.1h-0.9c0.2-0.3,0.3-0.5,0.5-0.8h0.9h-0.9l0,0l1.1-1.8c0.7,1,1.5,2,2.3,3
					l1.2,1.5l0.2,0.2l-2,0.1l2.2,0.1l0.7,1l-2.1,0.1h1.2l0,0l0.3,0.6l-0.1-0.6h0.8l0,0l0.7,0.9l-2.3,0.1l2.5,0.1l0.3,0.4l0.3,0.4h-1
					l-0.3-0.6l0.2,0.6l-7.4,0.1l8.7,0.1l0.8,1c0.3,0.4,0.6,0.7,0.9,1.1h-0.1h-1.2h-2.4h-4.9l4.9,0.1h2.3c0.2,0.4,0.5,0.9,0.7,1.3
					c-0.2-0.4-0.4-0.9-0.6-1.3l0,0h1.2h0.3c0.4,0.5,0.9,1.1,1.3,1.7c-0.4-0.5-0.8-1.1-1.2-1.7H56h0.2L61.4,23.8z M55.6,16.1
					L55.6,16.1h-0.4c-0.3-0.4-0.6-0.8-0.9-1.2L53.6,14H54L55.6,16.1z M53.9,14h-0.4l-0.3-0.5L53,13.2h0.4L53.9,14z M53.1,13h-0.4
					L52,12.1h0.4L53.1,13z M52.3,11.9h-0.4l-0.7-1h0.4L52.3,11.9z"/>
				<path class="st0" d="M39.9,19.8l12.5,0.1L45.8,20l-0.2,0.5l0.1-0.5h-4.1c-0.2,0.4-0.3,0.7-0.5,1.1c0.1-0.4,0.2-0.7,0.4-1.1h-1.8
					L38,22.9l2.5-5H41h2c0,0.2-0.1,0.4-0.1,0.6c0.1-0.2,0.2-0.4,0.3-0.6l4.2-0.1v0.7l0.1-0.7l5.6-0.1l-7.8-0.1l0.1-0.8L45,17.6
					l-4-0.1h-0.4l0.2-0.4l1.5-3.7l-5.8,9.9h5.8l0.2-0.7l-0.1,0.7h5.7l0.1-0.8v0.8h9.3l-0.3-0.6l0.4,0.6h3l-0.8-1l-20.5-0.1l12.1-0.1
					c0-0.2,0-0.4,0-0.6c0,0.2,0.1,0.4,0.1,0.6h8.2l-1-1.2h-3.5l0.5,1l-0.7-1L43.4,21l15.5-0.1l-1.6-2c-5.8,0-15.5,0-16.9,0
					L39.9,19.8z"/>
				<path class="st0" d="M47.4,15.1c0.1,0,0.2,0,0.3,0c0.1,0.3,0.1,0.6,0.1,0.9c0-0.3,0-0.6,0-0.9c0.6,0,1.2,0,1.8,0l0.2,0.9
					l-0.1-0.9c0.7,0,1.5,0,2.3-0.1c-0.8,0-1.6,0-2.4-0.1s-1.6,0-2.4,0s-1.6,0-2.4,0c-0.8,0-1.6,0-2.4,0.1c0.8,0,1.6,0,2.4,0.1
					C45.8,15.1,46.6,15.1,47.4,15.1z"/>
			</g>
		</g>
		<g>
			<g>
				<path class="st0" d="M30.9,7.2L30.9,7.2h0.6l0,0l1.4-2.4l0,0c0.7,0.9,1.4,1.8,2.1,2.6c0.2,0.3,0.5,0.6,0.7,0.9l1.4,1.8l0.3,0.4
					l0,0h0.4l0,0l0,0l-5.1-6.6l0,0l0,0l0,0L30.9,7.2L30.9,7.2z"/>
				<path class="st0" d="M20.5,24l0.2-0.3c0.3-0.5,0.7-1.1,1-1.6l1.2-1.9c0.3-0.5,0.7-1.2,1.1-1.9l1.1-1.9l0.6-1l0.6-1
					c0.9-1.5,1.6-2.7,2.2-3.9l0,0l0,0l0,0c-0.7,1.1-1.4,2.3-2.4,3.8l-0.6,0.9l-0.6,1l-1.2,1.9c-0.4,0.7-0.8,1.4-1.1,1.9l-1.1,1.9
					c-0.3,0.5-0.6,1.1-1,1.6l-0.1,0.4c-0.1,0.2-0.3,0.4-0.4,0.7c-0.2,0.4-0.5,0.8-0.7,1.2L19,25.5c-0.3-0.4-0.7-0.7-1-1.1l0,0l0,0
					l0,0c0.3,0.4,0.6,0.8,0.9,1.1l0.4,0.5l0,0l0,0l0,0l0,0c0.2-0.4,0.5-0.8,0.8-1.2C20.3,24.3,20.4,24.2,20.5,24z"/>
				<path class="st0" d="M18.6,23.2L18.6,23.2L18.6,23.2C18.7,23.2,18.7,23.2,18.6,23.2l2.5-3.5c-0.1,0.5-0.2,1-0.3,1.5l0,0l0,0l0,0
					c0.2-0.7,0.5-1.4,0.7-2.1l0.5-0.6l-0.1,0.9l0,0l0,0l0,0l0.4-1.4l0.5-0.7l-0.2,1l0,0l0,0l0,0l0.5-1.6l0.6-0.9L23.5,17l0,0l0,0
					l0,0l0.5-1.7l0,0l0.7-1c-0.1,0.4-0.1,0.8-0.2,1.2l0,0l0,0l0,0c0.1-0.6,0.3-1.1,0.5-1.7l0.5-0.7l-0.2,1.2l0,0l0,0l0,0l0.5-1.7
					l0.5-0.6l-0.1,0.7l0,0l0,0l0,0l0.4-1.3l4-5.7l0.1-0.2l0,0l0,0l0,0l-2,2.2l0,0L28.8,8l-0.2-0.1l0,0l0,0l-0.3,0.3l0,0l0.1,0.3
					l-0.2-0.2l0,0l0,0l0.1,0.5l0,0L28.4,9l-0.2-0.2l0,0l0,0l-0.3,0.3l0,0L28,9.5l-0.3-0.2l0,0l0,0l-0.3,0.4l0,0l0.1,0.4l-0.3-0.2
					l0,0l0,0l-0.3,0.3l0,0l0.2,0.4l-0.3-0.3l0,0l0,0l-0.3,0.3l0,0l0.2,0.5l-0.3-0.3l0,0l0,0l-0.3,0.3l0,0l0.2,0.5l-0.3-0.3l0,0l0,0
					l-0.3,0.3l0,0l0.2,0.5l-0.5,0l0,0l0,0l0,0l-0.3,0.3l0,0l0.2,0.5l-0.4-0.4l0,0l0,0l0,0l-0.3,0.3l0,0l0.2,0.6L24.5,13l0,0l0,0l0,0
					l-0.3,0.3l0,0l0.3,0.6L24,13.8l0,0l0,0l0,0L23.7,14l0,0l0.3,0.6l-0.4-0.4l0,0l0,0l0,0l-0.3,0.3l0,0l0.3,0.6l-0.5-0.4l0,0l0,0
					l0,0L22.8,15l0,0l0.3,0.7l-0.5-0.5l0,0l0,0l0,0l-0.3,0.3l0,0l0.3,0.7l-0.5-0.5l0,0l0,0l0,0L21.8,16l0,0l0.3,0.7l-0.5-0.5l0,0
					l0,0l0,0l-0.2,0.4l0,0l0.4,0.7l-0.5-0.5l0,0l0,0l0,0l-0.2,0.3l0,0l0.4,0.8l-0.6-0.6l0,0l0,0l0,0l-0.4,0.4l0,0l0.4,0.8l-0.7-1
					l0,0l0,0l0,0L20,17.8l0,0l0.4,0.8L19.8,18l0,0l0,0l0,0l-0.4,0.3l0,0l0.4,0.8l-0.6-0.6l0,0l0,0l0,0L19,18.8l0,0l0.5,0.9L18.9,19
					l0,0l0,0l0,0l-0.2,0.3l0,0l0.5,0.9l-0.8-0.6l0,0l0,0l0,0l-0.2,0.3l0,0l0.5,0.9L18,20.1l0,0l0,0l0,0l-0.2,0.3l0,0l0.5,0.9
					l-0.7-0.7l0,0l0,0l0,0l-0.2,0.3l0,0l0.5,1l-0.7-0.8l0,0l0,0l0,0L17,21.4l0,0l0.5,1l-0.7-0.8l0,0l0,0l-0.2,0.2l0,0l1.1,1.5l0,0
					l0,0l0,0l3-3.4L18.6,23.2z"/>
				<path class="st0" d="M40.4,14.6L40.4,14.6l0.8,1.1c0.3,0.5,0.7,0.9,1,1.4l0,0h0.5l0,0l0,0l0,0l-1.9-2.5l0,0H40.4L40.4,14.6z"/>
				<path class="st0" d="M37.6,10.9L37.6,10.9l0.9,1.2l0,0H39l0,0l0,0L38.2,11l0,0L37.6,10.9L37.6,10.9z"/>
				<path class="st0" d="M38.6,12.2L38.6,12.2l0.8,1.1l0,0h0.4l0,0l0,0l-0.8-1l0,0h-0.4C38.6,12.2,38.6,12.2,38.6,12.2z"/>
				<path class="st0" d="M39.6,13.5L39.6,13.5l0.3,0.4l0.4,0.5l0,0h0.5l0,0l0,0l-0.7-0.9l0,0H39.6L39.6,13.5z"/>
				<path class="st1" d="M49.8,26.2L43,17.4l0,0h-0.2h-0.3l0,0l0,0c0.2,0.2,0.3,0.5,0.5,0.7c-0.2-0.2-0.4-0.5-0.6-0.7l0,0h-0.3h-1.5
					l0,0l0,0c0.1,0.4,0.3,0.7,0.4,1.1c-0.2-0.4-0.4-0.7-0.6-1.1l0,0h-2.7l-3.6-0.1h3.6h2.9h1.4h0.1l0,0l0,0c-0.3-0.4-0.7-0.9-1-1.3
					l-0.9-1.2l0,0l-7.1-0.1h5.6l0,0l0,0l-0.1-0.5l0.3,0.5l0,0h1.2l0,0l0,0l-0.3-0.4l-0.4-0.8l0,0l-2.2-0.1l2-0.1l0,0l0,0l-0.8-1.1
					l0,0h-1l0,0l0,0l0.1,0.5l-0.2-0.5l0,0l0,0h-0.7l1.7-0.1l0,0l0,0l-1-1.3l0,0h-1.8l1.7-0.1l0,0l0,0L37,10.4l-1.4-1.8
					c-0.2-0.3-0.5-0.6-0.7-0.9c-0.6-0.8-1.3-1.7-2-2.6l0,0l0,0l0,0l-1.3,2.2l0,0l0,0h0.6h-0.7l0,0L31.1,8l0.4-0.6l0,0l0,0h-0.6l0,0
					l-0.5,0.9l0,0l0,0H31l0,0l0,0l0,0l0,0h0.7H31l0,0l0,0l0,0h-0.7l0,0l-0.5,0.9l0,0l0,0l2.5,0.1l-2.9,0.4l0,0l-9.5,16.3l0,0l0,0
					L49.8,26.2L49.8,26.2C49.8,26.2,49.8,26.2,49.8,26.2z M30.2,15.9c1,0,1.9,0,2.8,0c0.9,0,1.9,0,2.8,0c0.7,0,1.4,0,2.1,0
					c-0.6,0-1.3,0-1.9,0l0,0l0,0l0.1,0.8l-0.2-0.8l0,0l0,0c-0.8,0-1.5,0-2.2,0l0,0l0,0c0,0.2,0,0.5,0,0.7c0-0.2-0.1-0.5-0.1-0.7l0,0
					h-0.4C32.2,16,31.2,16,30.2,15.9c-0.7,0.1-1.4,0.1-2,0C28.9,15.9,29.6,15.9,30.2,15.9z M45.7,25.8l-0.5-0.7l0,0l0,0l0,0l0.3,0.7
					h-11v-1l0,0l0,0l0,0l-0.1,1l-7-0.1l0.1-0.8l0,0l0,0l0,0l-0.3,0.8h-6.8l6.7-11.4l-1.7,4l-0.3,0.4l0,0l0,0l5.2,0.1l0,0l0.2-0.7
					l-0.1,0.7l0,0l0,0L38,19l-5,0.1l0,0l-0.1,0.5v-0.5l0,0l-5.1,0.1l0,0c-0.1,0.2-0.1,0.3-0.2,0.5c0-0.2,0.1-0.3,0.1-0.5l0,0l0,0
					h-2.8l0,0L22,25.1l0,0l0,0l0,0l2-3.5h2c-0.1,0.4-0.3,0.9-0.4,1.3l0,0l0,0l0,0c0.2-0.4,0.4-0.9,0.6-1.3H31l-0.1,0.6l0,0l0,0l0,0
					l0.2-0.6l7.8-0.1l0,0l0,0L24,21.4l0.6-1.1h20.1l1.9,2.4l-18.2,0.1l0,0l0,0l14.2,0.1l0.8,1.2l0,0l0,0l0,0l-0.6-1.2H47l1.1,1.4
					h-9.6c0-0.2-0.1-0.5-0.1-0.7l0,0l0,0l0,0c0,0.2,0,0.5,0,0.7L24,24.3l0,0l0,0l24.3,0.4l0.9,1.2L45.7,25.8z"/>
			</g>
			<g>
				<path class="st0" d="M38.7,10.6L38.7,10.6l-6-7.8l-17.3,19l3.8,4.9L51.1,27L38.7,10.6L38.7,10.6L38.7,10.6z M32.8,4l5.1,6.6
					h-0.4l-0.3-0.4l-1.4-1.8C34.9,7.2,34,6.1,33,4.8l-0.1-0.1v0.1l-1.3,2.2c0,0,0,0,0,0.1H31L32.8,4z M31.5,7.5
					c-0.2,0.3-0.4,0.6-0.5,1h-0.6l0.5-0.9L31.5,7.5z M16.2,21.8l0.2-0.2l0.9,0.9l-0.6-1.2l0.2-0.3l0.8,0.9l-0.6-1.2l0.2-0.3l0.8,0.9
					l-0.6-1.1l0.2-0.3l0.8,0.9l-0.6-1.1l0.2-0.3l0.8,0.8l-0.6-1.1l0.2-0.3l0.8,0.8l-0.5-1l0.2-0.3l0.7,0.8l-0.5-1l0.2-0.3l0.7,0.7
					l-0.5-1l0.2-0.3l0.7,0.7L20,17l0.2-0.3l0.7,0.7l-0.5-0.9l0.2-0.3l0.7,0.7L21,16l0.3-0.3l0.6,0.6l-0.4-0.9l0.3-0.3l0.6,0.6
					L22,14.9l0.3-0.3l0.6,0.6l-0.4-0.8l0.3-0.3l0.6,0.6L23,13.9l0.3-0.3l0.5,0.5l-0.3-0.7l0.3-0.3l0.5,0.5L24,12.9l0.3-0.3l0.5,0.5
					l-0.1-0.3l0.3-0.3l0.5,0.4l-0.3-0.7l0.3-0.3l0.4,0.4l-0.3-0.5l0.3-0.3l0.4,0.4L26,11.2l0.3-0.3l0.4,0.4l-0.3-0.6l0.3-0.3
					l0.4,0.3l-0.2-0.5l0.3-0.3l0.4,0.3l-0.2-0.5l0.3-0.3L28,9.8l-0.2-0.5L28.1,9l0.3,0.2l-0.1-0.4l0.3-0.3l0.3,0.2l-0.1-0.4L29.1,8
					l0.3,0.2l-0.2-0.4l2-2.2l-0.1,0.2L27,11.4l-0.4,1.3l0.1-0.8l-0.5,0.7l-0.5,1.7l0.2-1.3l-0.6,0.8c-0.2,0.6-0.3,1.1-0.5,1.7
					c0-0.4,0.1-0.8,0.2-1.3l-0.8,1.1l0,0L24,15.9L23.7,17l0.2-1.2v-0.2l-0.7,1l-0.5,1.6l0.2-1.2l-0.5,1L22,19.4l0.2-1l-0.5,0.7
					c-0.2,0.7-0.4,1.4-0.7,2.1c0.1-0.5,0.2-1.1,0.4-1.6l-2.6,3.5l1.9-3.4l-3.3,3.7L16.2,21.8z M19.3,25.8L19.3,25.8
					c-0.5-0.6-0.9-1.1-1.3-1.6C18.4,24.8,18.9,25.2,19.3,25.8c0.4-0.7,0.7-1.4,1.1-2c0.4-0.6,0.7-1.3,1.1-1.9l1.1-1.9
					c0.4-0.6,0.8-1.3,1.1-1.9l1.2-1.9l0.6-1l0.6-0.9c0.8-1.3,1.6-2.5,2.4-3.8c-0.7,1.3-1.5,2.6-2.2,3.9l-0.6,1l-0.6,1L24,18.3
					c-0.4,0.6-0.8,1.3-1.1,1.9l-1.2,1.9c-0.4,0.6-0.8,1.3-1.2,1.9C20.1,24.5,19.7,25.2,19.3,25.8L19.3,25.8z M49.8,26.2L19.9,26
					l9.6-16.3l3.4-0.1l-3.2-0.1l0.5-0.9h0.7c-0.2,0.3-0.3,0.6-0.5,0.9c0.2-0.3,0.4-0.6,0.6-0.9l1.2-0.1l-1.1-0.1
					c0.2-0.3,0.4-0.6,0.6-1l1.1-0.1l-1-0.1l0,0l1.3-2.1c0.9,1.2,1.8,2.4,2.7,3.5l1.4,1.8l0.2,0.3L35,10.8l2.6,0.1l0.9,1.2L36,12.2
					h1.5l0,0l0.3,0.7l-0.4-0.7h1l0,0l0.8,1.1l-2.8,0.1l2.9,0.1l0.4,0.5l0.3,0.4h-1.2l-0.2-0.7l0.2,0.7l-8.9,0.1l10.3,0.1l0.9,1.2
					c0.3,0.4,0.7,0.9,1,1.3H42h-1.4h-2.9h-5.8l5.8,0.1h2.7c0.3,0.5,0.5,1.1,0.9,1.6c-0.2-0.5-0.5-1-0.7-1.6l0,0H42h0.4
					c0.5,0.7,1,1.3,1.6,2c-0.5-0.7-1-1.3-1.5-2h0.3H43L49.8,26.2z M42.8,17.1L42.8,17.1h-0.5c-0.3-0.5-0.7-0.9-1-1.4l-0.8-1.1H41
					L42.8,17.1z M40.8,14.5h-0.5L39.9,14l-0.3-0.4h0.5L40.8,14.5z M39.9,13.2h-0.4l-0.8-1.1h0.5L39.9,13.2z M38.9,12h-0.4l-0.9-1.1
					h0.5L38.9,12z"/>
				<path class="st0" d="M24.1,21.5l15,0.1l-7.8,0.1l-0.2,0.7l0.1-0.6h-4.8c-0.2,0.4-0.4,0.9-0.6,1.3c0.2-0.4,0.3-0.9,0.4-1.3h-2.1
					l-2,3.5l3-5.9h0.3h2.3c-0.1,0.2-0.1,0.5-0.2,0.8c0.1-0.3,0.2-0.5,0.3-0.8l5.1-0.1v0.8l0.1-0.8l6.7-0.1l-9.2-0.1l0.2-1l-0.3,1
					L25.7,19h-0.5l0.2-0.5l1.8-4.4l-6.8,11.8h6.9l0.3-0.8l-0.1,0.8h6.8l0.1-1v1h11.1l-0.3-0.7l0.5,0.7h3.6l-1-1.2l-24.5-0.1
					l14.4-0.1c0-0.2,0-0.5,0-0.7c0,0.2,0.1,0.5,0.1,0.7H48L46.9,23h-4.2l0.6,1.2L42.5,23l-14.1-0.1l18.4-0.1l-1.9-2.4
					c-6.9,0-18.4,0-20.1,0L24.1,21.5z"/>
				<path class="st0" d="M33.1,16c0.1,0,0.3,0,0.4,0c0.1,0.3,0.1,0.7,0.2,1.1c0-0.3,0-0.7,0-1.1c0.7,0,1.5,0,2.2,0l0.3,1.1L36.2,16
					c0.9,0,1.8,0,2.7-0.1c-0.9,0-1.9-0.1-2.8-0.1c-0.9,0-1.9,0-2.8,0c-0.9,0-1.9,0-2.8,0c-0.9,0-1.9,0-2.8,0.1
					c0.9,0,1.9,0.1,2.8,0.1C31.2,16,32.1,16,33.1,16z"/>
			</g>
		</g>
		<g>
			<g>
				<path class="st0" d="M19.1,12.5L19.1,12.5h0.5l0,0l1.1-2l0,0c0.6,0.7,1.2,1.5,1.7,2.2c0.2,0.3,0.4,0.5,0.6,0.8l1.2,1.5l0.2,0.3
					l0,0h0.4l0,0l0,0l-4.3-5.6l0,0l0,0l0,0L19.1,12.5C19.1,12.5,19.1,12.5,19.1,12.5z"/>
				<path class="st0" d="M10.4,26.5l0.1-0.2c0.3-0.4,0.6-0.9,0.8-1.4l1-1.6c0.3-0.4,0.6-1,1-1.6l1-1.6l0.5-0.8l0.5-0.8
					c0.7-1.3,1.3-2.3,1.9-3.3l0,0l0,0l0,0c-0.6,0.9-1.2,1.9-2,3.2l-0.5,0.8L14.2,20l-1,1.6c-0.3,0.6-0.7,1.2-1,1.6l-1,1.6
					c-0.3,0.4-0.5,0.9-0.8,1.4l-0.1,0.2c-0.1,0.2-0.2,0.4-0.3,0.6c-0.2,0.3-0.4,0.7-0.6,1l-0.3-0.3c-0.3-0.3-0.6-0.6-0.8-0.9l0,0
					l0,0l0,0c0.3,0.3,0.5,0.6,0.8,0.9l0.3,0.4l0,0l0,0l0,0l0,0c0.2-0.3,0.4-0.7,0.6-1C10.2,26.8,10.3,26.7,10.4,26.5z"/>
				<path class="st0" d="M8.8,25.8L8.8,25.8L8.8,25.8C8.8,25.8,8.9,25.8,8.8,25.8l2.1-2.9c-0.1,0.4-0.2,0.9-0.3,1.3l0,0l0,0l0,0
					c0.2-0.6,0.4-1.1,0.6-1.7l0.4-0.5l-0.1,0.7l0,0l0,0l0,0l0.4-1.1l0.4-0.6l-0.1,0.7l0,0l0,0l0,0l0.4-1.3l0.5-0.8l-0.2,1l0,0l0,0
					l0,0l0.4-1.5l0,0l0.6-0.9c0,0.3-0.1,0.7-0.1,1l0,0l0,0l0,0c0.1-0.5,0.3-1,0.4-1.4l0.4-0.6l-0.1,1l0,0l0,0l0,0l0.4-1.5l0.4-0.5
					l-0.1,0.6l0,0l0,0l0,0l0.3-1.1l3.4-4.8l0.1-0.2l0,0l0,0l0,0l-1.7,1.8l0,0l0.1,0.2l-0.2-0.1l0,0l0,0l-0.3,0.3l0,0l0.1,0.3
					l-0.2-0.1l0,0l0,0l-0.2,0.3l0,0l0.1,0.3l-0.2-0.2l0,0l0,0l-0.2,0.3l0,0l0.1,0.3l0,0.1l0,0l0,0l-0.2,0.3l0,0l0.1,0.3L16,14.8l0,0
					l0,0L15.8,15l0,0l0.1,0.4l-0.2-0.2l0,0l0,0l-0.3,0.2l0,0l0.1,0.4l-0.3-0.2l0,0l0,0L15,15.9l0,0l0.2,0.4L14.9,16l0,0l0,0
					l-0.2,0.2l0,0l0.2,0.4l-0.3-0.3l0,0l0,0l0,0l-0.2,0.2l0,0l0.2,0.4l-0.3-0.3l0,0l0,0l0,0l-0.2,0.2l0,0l0.2,0.5l-0.3-0.3l0,0l0,0
					l0,0l-0.6,0.5l0,0l0.2,0.5l-0.3-0.3l0,0l0,0l0,0L13.1,18l0,0l0.2,0.5l-0.4-0.4l0,0l0,0l0,0l-0.2,0.2l0,0l0.2,0.5l-0.4-0.4l0,0
					l0,0l0,0l-0.2,0.4l0,0l0.3,0.6L12.2,19l0,0l0,0l0,0L12,19.2l0,0l0.3,0.6l-0.4-0.4l0,0l0,0l0,0l-0.2,0.2l0,0l0.3,0.6l-0.6-0.4
					l0,0l0,0l0,0L11.2,20l0,0l0.3,0.6l-0.4-0.5l0,0l0,0l0,0l-0.2,0.2l0,0l0.3,0.6l-0.5-0.5l0,0l0,0l0,0l-0.3,0.5l0,0l0.3,0.7
					l-0.5-0.5l0,0l0,0l0,0L10,21.3l0,0l0.4,0.7l-0.5-0.5l0,0l0,0l0,0l-0.3,0.3l0,0l0.4,0.7L9.5,22l0,0l0,0l0,0l-0.2,0.2l0,0l0.4,0.7
					l-0.5-0.6l0,0l0,0l0,0L9,22.5l0,0l0.4,0.8l-0.5-0.6l0,0l0,0l0,0L8.4,23l0,0l0.4,0.8l-0.6-0.6l0,0l0,0l0,0L8,23.5l0,0l0.4,0.8
					l-0.5-0.5l0,0l0,0l0,0L7.7,24l0,0l0.4,0.8l-0.6-0.6l0,0l0,0l0,0l-0.2,0.2l0,0l0.5,0.8l-0.6-0.7l0,0l0,0l-0.3,0.3l0,0l1,1.2l0,0
					l0,0l0,0l2.5-2.8L8.8,25.8z"/>
				<path class="st0" d="M27.1,18.8L27.1,18.8l0.7,0.9c0.3,0.4,0.6,0.8,0.9,1.2l0,0h0.4l0,0l0,0l0,0l-1.5-2.1l0,0H27.1
					C27.1,18.6,27.1,18.6,27.1,18.8z"/>
				<path class="st0" d="M24.7,15.5L24.7,15.5l0.7,1l0,0h0.4l0,0l0,0l-0.7-0.9l0,0L24.7,15.5L24.7,15.5z"/>
				<path class="st0" d="M25.6,16.6L25.6,16.6l0.7,0.9l0,0h0.4l0,0l0,0L26,16.6l0,0H25.6L25.6,16.6z"/>
				<path class="st0" d="M26.4,17.8L26.4,17.8l0.2,0.3l0.3,0.5l0,0h0.5l0,0l0,0l-0.6-0.8l0,0H26.4L26.4,17.8z"/>
				<path class="st1" d="M35,28.5l-5.7-7.4l0,0h-0.2h-0.2l0,0l0,0c0.1,0.2,0.3,0.4,0.4,0.6c-0.2-0.2-0.3-0.4-0.5-0.6l0,0h-0.3h-1.2
					l0,0l0,0c0.1,0.3,0.2,0.6,0.4,0.9c-0.2-0.3-0.3-0.6-0.5-0.9l0,0h-2.3h-3h3h2.4h1.2h0.1l0,0l0,0c-0.3-0.4-0.6-0.7-0.9-1.1l-0.8-1
					l0,0h-6h4.7l0,0l0,0l-0.1-0.4l0.2,0.4l0,0h1l0,0l0,0l-0.3-0.4l-0.1-0.8l0,0h-1.9l1.7-0.1l0,0l0,0l-0.7-1l0,0h-0.8l0,0l0,0
					l0.1,0.4l-0.3-0.4l0,0l0,0h-0.6h1.5l0,0l0,0l-0.7-1l0,0h-1.5h1.4l0,0l0,0l-0.2-0.2l-1.2-1.5c-0.2-0.3-0.4-0.5-0.6-0.8
					c-0.5-0.7-1.1-1.4-1.7-2.2l0,0l0,0l0,0l-1.1,1.8l0,0l0,0h0.5h-0.6l0,0l-0.3,0.6l0.3-0.5l0,0l0,0h-0.5l0,0l-0.4,0.7l0,0l0,0h0.5
					l0,0l0,0l0,0l0,0h0.6h-0.6l0,0l0,0l0,0h-0.6l0,0l-0.5,0.8l0,0l0,0l2.1,0.1L18,14.5l0,0l-8,13.7l0,0l0,0L35,28.5
					C35,28.5,35,28.5,35,28.5L35,28.5z M18.6,19.6c0.8,0,1.6,0,2.4,0c0.7,0,1.6,0,2.4,0c0.6,0,1.2,0,1.7,0c-0.5,0-1.1,0-1.6,0l0,0
					l0,0v0.6l-0.2-0.5l0,0l0,0c-0.7,0-1.3,0-1.8,0l0,0l0,0c0,0.2,0,0.4,0,0.6c0-0.2-0.1-0.4-0.1-0.6l0,0h-0.3
					C20.2,19.8,19.4,19.8,18.6,19.6c-0.5,0.1-1.1,0-1.7,0C17.4,19.8,18,19.8,18.6,19.6z M31.6,28.2l-0.4-0.6l0,0l0,0l0,0l0.3,0.6
					h-9.3v-0.8l0,0l0,0l0,0l-0.1,0.8h-5.7l0.1-0.7l0,0l0,0l0,0l-0.2,0.7h-5.8l5.6-9.6l-1.6,3.2l-0.2,0.4l0,0l0,0l4.4,0.1l0,0
					l0.2-0.6l-0.1,0.6l0,0l0,0l6.3,0.1l-4.2,0.1l0,0l-0.1,0.5v-0.4l0,0l-4.2,0.1l0,0c-0.1,0.1-0.1,0.3-0.2,0.4
					c0-0.1,0.1-0.3,0.1-0.4l0,0l0,0h-2.3l0,0l-2.5,5l0,0l0,0l0,0l1.7-2.9h1.7c-0.1,0.4-0.2,0.7-0.4,1.1l0,0l0,0l0,0
					c0.2-0.4,0.3-0.7,0.5-1.1h4l-0.1,0.5l0,0l0,0l0,0l0.2-0.5l6.6-0.1l0,0l0,0l-12.5-0.1l0.5-0.9h16.9l1.6,2l-15.5,0.1l0,0l0,0
					l11.9,0.1l0.7,1l0,0l0,0l0,0l-0.5-1h3.5l0.9,1.2h-8.1c0-0.2,0-0.4-0.1-0.6l0,0l0,0l0,0c0,0.2,0,0.4,0,0.6l-12.1,0.1l0,0l0,0
					l20.5,0.1l0.8,1L31.6,28.2z"/>
			</g>
			<g>
				<path class="st0" d="M25.7,15.4L25.7,15.4l-5-6.5L6.1,24.8l3.2,4.1L36.1,29L25.7,15.4L25.7,15.4z M20.7,9.9l4.3,5.6h-0.4
					L24.4,15l-1.2-1.5c-0.8-1-1.5-2-2.3-3v-0.1v0.1l-1.1,1.9c0,0,0,0,0,0.1h-0.5L20.7,9.9z M19.6,12.6c-0.1,0.3-0.3,0.5-0.5,0.8
					h-0.5l0.4-0.7L19.6,12.6z M6.8,24.8l0.1-0.2l0.7,0.8l-0.5-1l0.2-0.2L8,24.9l-0.5-1l0.2-0.2l0.7,0.7l-0.5-0.9l0.2-0.2L8.8,24
					l-0.5-0.9l0.2-0.2l0.7,0.7l-0.5-0.9l0.2-0.2l0.6,0.7L9,22.3l0.2-0.2l0.6,0.7L9.4,22l0.2-0.2l0.6,0.6l-0.4-0.8l0.2-0.2l0.6,0.6
					l-0.4-0.8l0.2-0.2l0.6,0.6l-0.4-0.8l0.2-0.2l0.5,0.6L11,20.5l0.2-0.2l0.5,0.5l-0.2-1.2l0.2-0.2l0.5,0.5l-0.3-0.7L12,19l0.5,0.5
					l-0.3-0.7l0.2-0.2l0.5,0.5l-0.3-0.6l0.2-0.2l0.5,0.4l-0.3-0.6l0.2-0.2l0.4,0.4l-0.2-0.8l0.2-0.2l0.4,0.4l-0.2-0.6l0.2-0.2
					l0.4,0.4l-0.2-0.6l0.2-0.2l0.4,0.3l-0.2-0.5l0.2-0.2l0.4,0.3L15,15.9l0.2-0.3l0.3,0.3l-0.1-0.5l0.2-0.3l0.3,0.3l-0.2-0.4
					l0.2-0.3l0.3,0.3L16,14.7l0.2-0.3l0.3,0.2l-0.1-0.4l0.2-0.3l0.3,0.2l0-0.3l0.2-0.3l0.2,0.2l-0.1-0.3l0.3-0.3l0.2,0.2L17.6,13
					l1.7-1.8l-0.1,0.2l-3.4,4.8l-0.3,1.1l0.1-0.7l-0.4,0.6l-0.4,1.5l0.1-1.1L14.4,18c-0.1,0.5-0.3,1-0.4,1.4c0-0.3,0.1-0.7,0.1-1.1
					l-0.7,0.9l0,0v0.6l-0.3,1l0.2-1v-0.1l-0.6,0.8l-0.4,1.2l0.2-1L12,21.5l-0.4,1.2l0.1-0.8l-0.4,0.6c-0.2,0.6-0.4,1.2-0.6,1.7
					c0.1-0.4,0.2-0.9,0.3-1.4l-2.1,3l1.6-2.8l-2.7,3L6.8,24.8z M9.4,28.2L9.4,28.2c-0.4-0.5-0.8-0.9-1.1-1.4
					C8.6,27.2,9,27.7,9.4,28.2c0.3-0.6,0.6-1.2,0.9-1.7s0.6-1.1,0.9-1.6l1-1.6c0.3-0.5,0.6-1.1,1-1.6l1-1.6l0.5-0.8l0.5-0.8
					c0.6-1.1,1.3-2.1,2-3.2c-0.6,1.1-1.2,2.2-1.9,3.3l-0.5,0.8l-0.5,0.8l-1,1.6c-0.3,0.5-0.6,1.1-1,1.6l-1,1.6
					c-0.3,0.5-0.6,1.1-1,1.6C10,27,9.7,27.5,9.4,28.2L9.4,28.2z M35,28.5L9.9,28.2l8-13.7l2.8-0.1L18,14.3l0.5-0.8h0.6
					c-0.1,0.3-0.3,0.5-0.4,0.8c0.2-0.3,0.3-0.5,0.5-0.8l1-0.1h-0.9c0.2-0.3,0.3-0.5,0.5-0.8h0.9h-0.9l0,0l1.1-1.8c0.7,1,1.5,2,2.3,3
					l1.2,1.5l0.2,0.2l-2,0.1l2.2,0.1l0.7,1l-2.1,0.1h1.2l0,0l0.3,0.6l-0.1-0.6h0.8l0,0l0.7,0.9l-2.5,0l2.5,0.1l0.3,0.4l0.3,0.4h-1
					L25.6,18l0.2,0.6l-7.4,0.1l8.7,0.1l0.8,1c0.3,0.4,0.6,0.7,0.9,1.1h-0.1h-1.2h-2.4h-4.9l4.9,0.1h2.3c0.2,0.4,0.5,0.9,0.7,1.3
					c-0.2-0.4-0.4-0.9-0.6-1.3l0,0h1.2h0.3c0.4,0.5,0.9,1.1,1.3,1.7c-0.4-0.5-0.8-1.1-1.2-1.7h0.2h0.2L35,28.5z M29.1,20.9
					L29.1,20.9h-0.4c-0.3-0.4-0.6-0.8-0.9-1.2l-0.7-0.9h0.4L29.1,20.9z M27.4,18.5H27L26.7,18l-0.3-0.3h0.4L27.4,18.5z M26.7,17.5
					h-0.4l-0.7-0.9H26L26.7,17.5z M25.8,16.5h-0.4l-0.7-1h0.4L25.8,16.5z"/>
				<path class="st0" d="M13.4,24.5L26,24.5h-6.6L19.2,25l0.1-0.5h-4.1c-0.2,0.4-0.3,0.7-0.5,1.1c0.1-0.4,0.2-0.7,0.4-1.1h-1.8
					l-1.7,2.9l2.5-5h0.4h2c0,0.2-0.1,0.4-0.1,0.6c0.1-0.2,0.2-0.4,0.3-0.6l4.2-0.1v0.7l0.1-0.7l5.6-0.1l-7.8-0.1l0.1-0.8l-0.3,0.8
					l-4-0.1h-0.4l0.2-0.4l1.5-3.7l-5.8,9.9h5.8l0.2-0.7L16,27.9h5.7l0.1-0.8v0.8h9.3l-0.3-0.6l0.4,0.6h3l-0.8-1l-20.6-0.1L25,26.7
					c0-0.2,0-0.4,0-0.6c0,0.2,0.1,0.4,0.1,0.6h8.2l-1-1.2h-3.5l0.5,1l-0.7-1l-11.9-0.1l15.5-0.1l-1.6-2c-5.8,0-15.5,0-16.9,0
					L13.4,24.5z"/>
				<path class="st0" d="M20.9,19.9c0.1,0,0.2,0,0.3,0c0.1,0.3,0.1,0.6,0.1,0.9c0-0.3,0-0.6,0-0.9c0.6,0,1.2,0,1.8,0l0.2,0.9l0.1-1
					c0.7,0,1.5,0,2.3-0.1c-0.8,0-1.6,0-2.4-0.1c-0.8,0-1.6,0-2.4,0s-1.6,0-2.4,0s-1.6,0-2.4,0.1c0.8,0,1.6,0,2.4,0.1
					C19.4,19.9,20.1,19.9,20.9,19.9z"/>
			</g>
		</g>
	</g>
</g>
</svg>
