<?xml version="1.0" encoding="utf-8"?>
<!-- Generator: Adobe Illustrator 26.0.1, SVG Export Plug-In . SVG Version: 6.00 Build 0)  -->
<svg version="1.1" id="Слой_1" xmlns="http://www.w3.org/2000/svg" xmlns:xlink="http://www.w3.org/1999/xlink" x="0px" y="0px"
	 viewBox="0 0 152.2 56.6" style="enable-background:new 0 0 152.2 56.6;" xml:space="preserve">
<style type="text/css">
	.st0{fill:#F59E0B;}
	.st1{fill:#FFFFFF;}
</style>
<g>
	<g>
		<path class="st0" d="M13.1,31l1.9-0.2l1.9-0.2l3.8-0.4l7.7-0.8c2.6-0.3,5.1-0.5,7.7-0.8l7.7-0.8l7.7-0.8c2.6-0.2,5.1-0.5,7.7-0.8
			l7.7-0.7l3.8-0.4l1.9-0.2l1.9-0.2l-1.9,0.2l-1.9,0.2l-3.8,0.4l-7.7,0.8c-2.6,0.3-5.1,0.5-7.7,0.8L43.9,28l-7.7,0.8
			c-2.6,0.2-5.1,0.5-7.7,0.8l-7.7,0.8L17,30.8l-2,0L13.1,31z"/>
		<path class="st0" d="M10.3,31.9l1.9-0.2l1.9-0.2l3.8-0.4l7.7-0.8c2.6-0.3,5.1-0.5,7.7-0.8l7.7-0.8l7.7-0.8
			c2.6-0.2,5.1-0.5,7.7-0.8l7.7-0.7l3.8-0.4l1.9-0.2l1.9-0.2l-1.9,0.2L67.9,26l-3.8,0.4l-7.7,0.8c-2.6,0.3-5.1,0.5-7.7,0.8L41,28.9
			l-7.7,0.8c-2.6,0.2-5.1,0.5-7.7,0.8L18,31.2l-3.8,0.4l-1.9,0.2L10.3,31.9z"/>
		<path class="st0" d="M7.4,32.9l1.9-0.2l1.9-0.2l3.8-0.4l7.7-0.8c2.6-0.3,5.1-0.5,7.7-0.8l7.7-0.8l7.7-0.8c2.6-0.2,5.1-0.5,7.7-0.8
			l7.7-0.7L65,27l1.9-0.2l1.9-0.2L67,26.7L65.1,27l-3.8,0.4l-7.7,0.8c-2.6,0.3-5.1,0.5-7.7,0.8l-7.7,0.8l-7.7,0.8
			c-2.6,0.2-5.1,0.5-7.7,0.8l-7.7,0.7l-3.8,0.4l-1.9,0.2L7.4,32.9z"/>
		<path class="st0" d="M4.6,33.8l1.9-0.2l1.9-0.2l3.8-0.4l7.7-0.8c2.6-0.3,5.1-0.5,7.7-0.8l7.7-0.8l7.7-0.8c2.6-0.2,5.1-0.5,7.7-0.8
			l7.7-0.7l3.8-0.4l1.9-0.2l1.9-0.2l-1.9,0.2l-1.9,0.2l-3.8,0.4l-7.7,0.8c-2.6,0.3-5.1,0.5-7.7,0.8l-7.7,0.8l-7.7,0.8
			c-2.6,0.2-5.1,0.5-7.7,0.8L12.2,33l-3.8,0.4l-1.9,0.2L4.6,33.8z"/>
		<path class="st0" d="M7.2,34.5l1.9-0.2L11,34l3.8-0.4l7.7-0.8c2.6-0.3,5.1-0.5,7.7-0.8l7.7-0.8l7.7-0.8c2.6-0.2,5.1-0.5,7.7-0.8
			l7.7-0.7l3.8-0.4l1.9-0.2l1.9-0.2l-1.9,0.2l-1.9,0.2L61,29l-7.7,0.8c-2.6,0.3-5.1,0.5-7.7,0.8L38,31.4l-7.7,0.8
			c-2.6,0.2-5.1,0.5-7.7,0.8l-7.7,0.7L11,34.1l-1.9,0.2L7.2,34.5z"/>
		<path class="st0" d="M9.8,35.1l1.9-0.2l1.9-0.2l3.8-0.4l7.7-0.8c2.6-0.3,5.1-0.5,7.7-0.8l7.7-0.8l7.7-0.8c2.6-0.2,5.1-0.5,7.7-0.8
			l7.7-0.7l3.8-0.4l1.9-0.2l1.9-0.2L69.3,29l-1.9,0.2l-3.8,0.4L56,30.4c-2.6,0.3-5.1,0.5-7.7,0.8L40.6,32l-7.7,0.8
			c-2.6,0.2-5.1,0.5-7.7,0.8l-7.7,0.7l-3.8,0.4l-1.9,0.2L9.8,35.1z"/>
		<path class="st0" d="M12.4,35.7l1.9-0.2l1.9-0.2l3.8-0.4l7.7-0.8c2.6-0.3,5.1-0.5,7.7-0.8l7.7-0.8l7.7-0.8
			c2.6-0.2,5.1-0.5,7.7-0.8l7.7-0.7l3.8-0.4l1.9-0.2l1.9-0.2L72,29.6l-1.9,0.2l-3.8,0.4L58.6,31c-2.6,0.3-5.1,0.5-7.7,0.8l-7.7,0.8
			l-7.7,0.8c-2.6,0.2-5.1,0.5-7.7,0.8L20.1,35l-3.8,0.4l-1.9,0.2L12.4,35.7z"/>
		<path class="st0" d="M9.1,37.1l1.9-0.2l1.9-0.2l3.8-0.4l7.7-0.8c2.6-0.3,5.1-0.5,7.7-0.8l7.7-0.8l7.7-0.8c2.6-0.2,5.1-0.5,7.7-0.8
			l7.7-0.7l3.8-0.4l1.9-0.2l1.9-0.2L68.6,31l-1.9,0.2l-3.8,0.4l-7.7,0.8c-2.6,0.3-5.1,0.5-7.7,0.8L39.9,34l-7.7,0.8
			c-2.6,0.2-5.1,0.5-7.7,0.8l-7.7,0.8L13,36.7l-2,0.2L9.1,37.1z"/>
		<path class="st0" d="M5.8,38.4l1.9-0.2L9.6,38l3.8-0.4l7.7-0.8c2.6-0.3,5.1-0.5,7.7-0.8l7.7-0.8l7.7-0.8c2.6-0.2,5.1-0.5,7.7-0.8
			l7.7-0.7l3.8-0.4l1.9-0.2l1.9-0.2l-1.9,0.2l-1.9,0.2l-3.8,0.4l-7.7,0.8c-2.6,0.3-5.1,0.5-7.7,0.8l-7.7,0.8l-7.7,0.8
			c-2.6,0.2-5.1,0.5-7.7,0.8l-7.7,0.7L9.6,38l-1.9,0.2L5.8,38.4z"/>
		<path class="st0" d="M2.5,39.7l1.9-0.2l1.9-0.2l3.8-0.4l7.7-0.8c2.6-0.3,5.1-0.5,7.7-0.8l7.7-0.8l7.7-0.8c2.6-0.2,5.1-0.5,7.7-0.8
			l7.7-0.7l3.8-0.4l1.9-0.2l1.9-0.2L62,33.6l-1.9,0.2l-3.8,0.4L48.6,35c-2.6,0.3-5.1,0.5-7.7,0.8l-7.7,0.8l-7.7,0.8
			c-2.6,0.2-5.1,0.5-7.7,0.8L10.2,39l-3.8,0.4l-1.9,0.2L2.5,39.7z"/>
		<path class="st0" d="M8.6,39.7l1.9-0.2l1.9-0.2l3.8-0.4L24,38c2.6-0.3,5.1-0.5,7.7-0.8l7.7-0.8l7.7-0.8c2.6-0.2,5.1-0.5,7.7-0.8
			l7.7-0.7l3.8-0.4l1.9-0.2l1.9-0.2l-1.9,0.2l-1.9,0.2l-3.8,0.4l-7.7,0.8c-2.6,0.3-5.1,0.5-7.7,0.8l-7.7,0.8l-7.7,0.8
			c-2.6,0.2-5.1,0.5-7.7,0.8L16.3,39l-3.8,0.4l-1.9,0.2L8.6,39.7z"/>
		<path class="st0" d="M14.8,39.7l1.9-0.2l1.9-0.2l3.8-0.4l7.7-0.8c2.6-0.3,5.1-0.5,7.7-0.8l7.7-0.8l7.7-0.8
			c2.6-0.2,5.1-0.5,7.7-0.8l7.7-0.7l3.8-0.4l1.9-0.2l1.9-0.2l-1.9,0.2l-1.9,0.2l-3.8,0.4L60.9,35c-2.6,0.3-5.1,0.5-7.7,0.8l-7.7,0.8
			l-7.7,0.8c-2.6,0.2-5.1,0.5-7.7,0.8L22.5,39l-3.9,0.4l-1.9,0.2L14.8,39.7z"/>
		<path class="st0" d="M20.9,39.7l1.9-0.2l1.9-0.2l3.8-0.4l7.7-0.8c2.6-0.3,5.1-0.5,7.7-0.8l7.7-0.8l7.7-0.8
			c2.6-0.2,5.1-0.5,7.7-0.8l7.7-0.7l3.8-0.4l1.9-0.2l1.9-0.2l-1.9,0.2l-1.9,0.2l-3.8,0.4L67,35c-2.6,0.3-5.1,0.5-7.7,0.8l-7.7,0.8
			L44,37.5c-2.6,0.2-5.1,0.5-7.7,0.8L28.6,39l-3.8,0.4l-1.9,0.2L20.9,39.7z"/>
		<path class="st0" d="M17.6,41l1.9-0.2l1.9-0.2l3.8-0.4l7.7-0.8c2.6-0.3,5.1-0.5,7.7-0.8l7.7-0.8L56,37c2.6-0.2,5.1-0.5,7.7-0.8
			l7.7-0.7l3.8-0.4l1.9-0.2l1.9-0.2l-1.9,0.2l-1.9,0.2l-3.8,0.4l-7.7,0.8c-2.6,0.3-5.1,0.5-7.7,0.8L48.4,38l-7.7,0.8
			c-2.6,0.2-5.1,0.5-7.7,0.8l-7.7,0.7l-3.8,0.4l-1.9,0.2L17.6,41z"/>
		<path class="st0" d="M14.3,42.3l1.9-0.2l1.9-0.2l3.8-0.4l7.7-0.8c2.6-0.3,5.1-0.5,7.7-0.8l7.7-0.8l7.7-0.8
			c2.6-0.2,5.1-0.5,7.7-0.8l7.7-0.7l3.8-0.4l1.9-0.2l1.9-0.2l-1.9,0.2L72,36.3l-3.8,0.4l-7.7,0.8c-2.6,0.3-5.1,0.5-7.7,0.8l-7.7,0.8
			L37.4,40c-2.6,0.2-5.1,0.5-7.7,0.8L22,41.5l-3.8,0.4l-1.9,0.2L14.3,42.3z"/>
		<path class="st0" d="M22.6,42.5l1.2-0.1l1.2-0.1l2.4-0.3c1.6-0.2,3.2-0.3,4.7-0.5c1.6-0.2,3.2-0.3,4.7-0.5l4.7-0.5l4.7-0.4
			c1.6-0.1,3.2-0.3,4.7-0.4c1.6-0.1,3.2-0.3,4.7-0.4l2.4-0.2l1.2-0.1l1.2-0.1L59.2,39L58,39.1l-2.4,0.3c-1.6,0.2-3.2,0.3-4.7,0.5
			c-1.6,0.2-3.2,0.3-4.7,0.5l-4.7,0.5l-4.7,0.4c-1.6,0.1-3.2,0.3-4.7,0.4c-1.6,0.1-3.2,0.3-4.7,0.4L25,42.3l-1.2,0.1L22.6,42.5z"/>
		<path class="st0" d="M28.5,42.9l1.2-0.1l1.2-0.1l2.4-0.3c1.6-0.2,3.2-0.3,4.7-0.5c1.6-0.2,3.2-0.3,4.7-0.5l4.7-0.5l4.7-0.4
			c1.6-0.1,3.2-0.3,4.7-0.4c1.6-0.1,3.2-0.3,4.7-0.4l2.4-0.2l1.2-0.1l1.2-0.1l-1.2,0.1L64,39.5l-2.4,0.3c-1.6,0.2-3.2,0.3-4.7,0.5
			c-1.6,0.2-3.2,0.3-4.7,0.5l-4.7,0.5l-4.7,0.4c-1.6,0.1-3.2,0.3-4.7,0.4c-1.6,0.1-3.2,0.3-4.7,0.4L31,42.7l-1.2,0.1L28.5,42.9z"/>
	</g>
	<g>
		<g>
			<g>
				<path class="st0" d="M52.2,18.1L52.2,18.1h0.5l0,0l1.1-2l0,0c0.6,0.7,1.2,1.5,1.7,2.2c0.2,0.3,0.4,0.5,0.6,0.8l1.2,1.5l0.2,0.3
					l0,0h0.4l0,0l0,0l-4.3-5.6l0,0l0,0l0,0L52.2,18.1L52.2,18.1z"/>
				<path class="st0" d="M43.4,32.1l0.1-0.2c0.3-0.4,0.6-0.9,0.8-1.4l1-1.6c0.3-0.4,0.6-1,1-1.6l1-1.6l0.5-0.8l0.5-0.8
					c0.7-1.3,1.3-2.3,1.9-3.3l0,0l0,0l0,0c-0.6,0.9-1.2,1.9-2,3.2l-0.5,0.8l-0.5,0.8l-1,1.6c-0.3,0.6-0.7,1.2-1,1.6l-1,1.6
					c-0.3,0.4-0.5,0.9-0.8,1.4L43.3,32c-0.1,0.2-0.2,0.4-0.3,0.6c-0.2,0.3-0.4,0.7-0.6,1l-0.3-0.3c-0.3-0.3-0.6-0.6-0.8-0.9l0,0l0,0
					l0,0c0.3,0.3,0.5,0.6,0.8,0.9l0.3,0.4l0,0l0,0l0,0l0,0c0.2-0.3,0.4-0.7,0.6-1C43.2,32.5,43.3,32.3,43.4,32.1z"/>
				<path class="st0" d="M41.9,31.4C41.9,31.5,41.9,31.5,41.9,31.4C41.9,31.5,41.9,31.5,41.9,31.4C41.9,31.5,41.9,31.5,41.9,31.4
					l2.1-2.9c-0.1,0.4-0.2,0.9-0.3,1.3l0,0l0,0l0,0c0.2-0.6,0.4-1.1,0.6-1.7l0.4-0.5l-0.1,0.7l0,0l0,0l0,0l0.4-1.1l0.4-0.6l-0.1,0.9
					l0,0l0,0l0,0l0.4-1.3l0.5-0.8l-0.2,1l0,0l0,0l0,0l0.4-1.5l0,0L47,24c0,0.3-0.1,0.7-0.1,1l0,0l0,0l0,0c0.1-0.5,0.3-1,0.4-1.4
					l0.4-0.6l-0.1,1l0,0l0,0l0,0l0.4-1.5l0.4-0.5l-0.1,0.6l0,0l0,0l0,0l0.3-1.1l3.4-4.8l0.1-0.2l0,0l0,0l0,0l-1.6,1.8l0,0l0.1,0.2
					l-0.2-0.1l0,0l0,0l-0.3,0.3l0,0l0.1,0.3l0,0l0,0l0,0L50,19.3l0,0l0.1,0.3l-0.2-0.2l0,0l0,0l-0.2,0.3l0,0l0.1,0.3l-0.2-0.2l0,0
					l0,0l-0.2,0.3l0,0l0.1,0.3l-0.2-0.2l0,0l0,0l-0.2,0.3l0,0l0.1,0.4L49,20.7l0,0l0,0L48.4,21l0,0l0.1,0.4l-0.3-0.2l0,0l0,0
					L48,21.5l0,0l0.2,0.4l-0.3-0.3l0,0l0,0l-0.2,0.2l0,0l0.2,0.4L47.6,22l0,0l0,0l0,0l-0.2,0.2l0,0l0.2,0.4l-0.3-0.3l0,0l0,0l0,0
					l-0.2,0.2l0,0l0.2,0.5L47,22.7l0,0l0,0l0,0l-0.2,0.2l0,0l0.2,0.5l-0.3-0.3l0,0l0,0l0,0l-0.2,0.2l0,0l0.2,0.5L46,23.7l0,0l0,0
					l0,0l-0.2,0.2l0,0l0.2,0.5L45.6,24l0,0l0,0l0,0l-0.2,0.2l0,0l0.3,0.6l-0.4-0.4l0,0l0,0l0,0L45,24.8l0,0l0.3,0.6L44.9,25l0,0l0,0
					l0,0l-0.2,0.2l0,0l0.3,0.6l-0.4-0.4l0,0l0,0l0,0l-0.2,0.2l0,0l0.3,0.6l-0.4-0.5l0,0l0,0l0,0L43.8,26l0,0l0.3,0.6l-0.5-0.5l0,0
					l0,0l0,0l-0.2,0.2l0,0l0.3,0.7l-0.5-0.5l0,0l0,0l0,0L43,26.7l0,0l0.4,0.7l-0.5-0.5l0,0l0,0l0,0l-0.2,0.2l0,0l0.4,0.7l-0.5-0.5
					l0,0l0,0l0,0l-0.2,0.2l0,0l0.4,0.7L42.1,28l0,0l0,0l0,0l-0.2,0.2l0,0l0.4,0.8l-0.5-0.6l0,0l0,0l0,0l-0.2,0.2l0,0l0.4,0.8
					l-0.6-0.6l0,0l0,0l0,0L41.2,29l0,0l0.4,0.8L41,29.2l0,0l0,0l0,0l-0.2,0.2l0,0l0.4,0.8l-0.6-0.6l0,0l0,0l0,0L40.3,30l0,0l0.5,0.8
					l-0.6-0.7l0,0l0,0L40,30.3l0,0l1,1.2l0,0l0,0l0,0l2.5-2.8L41.9,31.4z"/>
				<path class="st0" d="M60.2,24.3L60.2,24.3l0.7,0.9c0.3,0.4,0.6,0.8,0.9,1.2l0,0h0.4l0,0l0,0l0,0l-1.6-2.1l0,0H60.2L60.2,24.3z"
					/>
				<path class="st0" d="M57.8,21.2L57.8,21.2l0.7,1l0,0h0.4l0,0l0,0l-0.7-0.9l0,0L57.8,21.2L57.8,21.2z"/>
				<path class="st0" d="M58.6,22.3L58.6,22.3l0.7,0.9l0,0h0.4l0,0l0,0L59,22.3l0,0H58.6L58.6,22.3z"/>
				<path class="st0" d="M59.4,23.4L59.4,23.4l0.2,0.3l0.3,0.5l0,0h0.4l0,0l0,0l-0.6-0.8l0,0H59.4C59.5,23.4,59.4,23.4,59.4,23.4z"
					/>
				<path class="st1" d="M68.1,34.1l-5.7-7.4l0,0h-0.2H62l0,0l0,0c0.1,0.2,0.3,0.4,0.4,0.6c-0.2-0.2-0.3-0.4-0.5-0.6l0,0h-0.3h-1.2
					l0,0l0,0c0.1,0.3,0.2,0.6,0.4,0.9c-0.2-0.3-0.3-0.6-0.5-0.9l0,0H58h-3h3h2.4h1.2h0.1l0,0l0,0c-0.3-0.4-0.6-0.7-0.9-1.1l-0.8-1
					l0,0h-6h4.7l0,0l0,0l-0.1-0.4l0.2,0.4l0,0h1l0,0l0,0l-0.3-0.4l-0.3-0.4l0,0l-1.8-0.1l1.7-0.1l0,0l0,0l-0.7-0.9l0,0h-0.8l0,0l0,0
					l0.1,0.4l-0.2-0.4l0,0l0,0h-0.6h1.5l0,0l0,0l-0.7-1l0,0h-1.5h1.4l0,0l0,0l-0.2-0.2L56.2,20c-0.2-0.3-0.4-0.5-0.6-0.8
					c-0.5-0.7-1.1-1.4-1.7-2.2l0,0l0,0l0,0l-1.1,1.8l0,0l0,0h0.5h-0.6l0,0l-0.3,0.6l0.3-0.5l0,0l0,0h-0.5l0,0l-0.4,0.7l0,0l0,0h0.5
					l0,0l0,0l0,0l0,0h0.6h-0.6l0,0l0,0l0,0h-0.6l0,0L51.1,20l0,0l0,0l2.1,0.1L51,20.2l0,0l-8,13.7l0,0l0,0L68.1,34.1L68.1,34.1
					L68.1,34.1z M51.6,25.3c0.8,0,1.6,0,2.4,0c0.7,0,1.6,0,2.4,0c0.6,0,1.2,0,1.7,0c-0.5,0-1.1,0-1.6,0l0,0l0,0v0.6l-0.2-0.6l0,0
					l0,0c-0.7,0-1.3,0-1.8,0l0,0l0,0c0,0.2,0,0.4,0,0.6c0-0.2-0.1-0.4-0.1-0.6l0,0H54C53.2,25.4,52.4,25.4,51.6,25.3
					c-0.5,0.1-1.1,0-1.7,0C50.4,25.3,51,25.3,51.6,25.3z M64.6,33.8l-0.4-0.6l0,0l0,0l0,0L64.6,33.8h-9.4V33l0,0l0,0l0,0L55,33.7
					h-5.7l0.1-0.7l0,0l0,0l0,0l-0.2,0.7h-5.8l5.6-9.6l-1.4,3.3l-0.2,0.4l0,0l0,0l4.4,0.1l0,0l0.2-0.6l-0.1,0.6l0,0l0,0l6.3,0.1H54
					l0,0l-0.1,0.5v-0.4l0,0l-4.2,0.1l0,0c-0.1,0.1-0.1,0.3-0.2,0.4c0-0.1,0.1-0.3,0.1-0.4l0,0l0,0h-2.3l0,0l-2.5,5l0,0l0,0l0,0
					l1.7-2.9h1.7c-0.1,0.4-0.2,0.7-0.4,1.1l0,0l0,0l0,0c0.2-0.4,0.3-0.7,0.5-1.1h4l-0.1,0.5l0,0l0,0l0,0l0.2-0.5l6.6-0.1l0,0l0,0
					L46.6,30l0.5-0.9H64l1.6,2L50,31.2l0,0l0,0l11.9,0.1l0.7,1l0,0l0,0l0,0l-0.5-1h3.5l0.9,1.2h-8.1c0-0.2,0-0.4-0.1-0.6l0,0l0,0
					l0,0c0,0.2,0,0.4,0,0.6l-12,0.1l0,0l0,0l20.5,0.1l0.8,1L64.6,33.8z"/>
			</g>
			<g>
				<path class="st0" d="M58.7,21L58.7,21l-5-6.5L39.1,30.3l3.2,4.1l26.8,0.2L58.7,21L58.7,21L58.7,21z M53.8,15.4L58,21h-0.4
					l-0.2-0.3l-1.2-1.5c-0.8-1-1.5-2-2.3-3v-0.1v0.1l-1.1,1.9c0,0,0,0,0,0.1h-0.5L53.8,15.4z M52.6,18.3c-0.1,0.3-0.3,0.5-0.5,0.8
					h-0.5l0.4-0.7L52.6,18.3z M39.8,30.4l0.1-0.2l0.7,0.8l-0.5-1l0.2-0.2l0.7,0.8l-0.5-1l0.2-0.2l0.7,0.7l-0.5-0.9l0.2-0.2l0.7,0.7
					l-0.5-0.9l0.2-0.2l0.7,0.7l-0.5-0.9L42,28l0.6,0.7l-0.5-0.9l0.2-0.2l0.6,0.7l-0.4-0.8l0.2-0.2l0.6,0.6L42.9,27l0.2-0.2l0.6,0.6
					l-0.4-0.8l0.2-0.2l0.6,0.6l-0.4-0.8l0.2-0.2l0.5,0.6L44,25.9l0.2-0.2l0.5,0.5l-0.4-0.7l0.2-0.2l0.5,0.5l-0.3-0.7l0.2-0.2
					l0.5,0.5l-0.3-0.7l0.2-0.2l0.5,0.5l-0.2-1l0.2-0.2l0.5,0.4L46,23.6l0.2-0.2l0.4,0.4l-0.3-0.6l0.2-0.2l0.4,0.4l-0.2-0.6l0.2-0.2
					l0.4,0.4l-0.2-0.5l0.2-0.2l0.4,0.3l-0.2-0.5l0.2-0.2l0.4,0.3L48,21.5l0.2-0.3l0.3,0.3L48.4,21l0.2-0.3L49,21l-0.2-0.4l0.2-0.3
					l0.3,0.3l-0.2-0.4l0.2-0.3l0.3,0.2l-0.1-0.4l0.2-0.3l0.3,0.2l-0.1-0.4l0.2-0.3l0.2,0.2l-0.1-0.3l0.3-0.3l0.2,0.2l-0.1-0.3
					l1.7-1.8l-0.1,0.2l-3.4,4.8l-0.3,1.1l0.1-0.7l-0.4,0.6L47.8,24l0.2-1l-0.5,0.7c-0.1,0.5-0.3,1-0.4,1.4c0-0.3,0.1-0.7,0.1-1.1
					l-0.7,0.9l0,0l-0.1,0.5l-0.3,1l0.2-1v-0.1l-0.6,0.8l-0.4,1.3l0.2-1L45,27.1l-0.4,1.2l0.1-0.8l-0.4,0.6c-0.2,0.6-0.4,1.2-0.6,1.7
					c0.1-0.4,0.2-0.9,0.3-1.4l-2.1,3l1.6-2.8l-2.7,3L39.8,30.4z M42.4,33.8L42.4,33.8c-0.4-0.5-0.8-0.9-1.1-1.4
					C41.6,32.8,42,33.2,42.4,33.8c0.3-0.6,0.6-1.2,0.9-1.7c0.3-0.5,0.6-1.1,0.9-1.6l1-1.6c0.3-0.5,0.6-1.1,1-1.6l1-1.6l0.5-0.8
					l0.5-0.8c0.6-1.1,1.3-2.1,2-3.2c-0.6,1.1-1.2,2.2-1.9,3.3L47.8,25l-0.5,0.8l-1,1.6c-0.3,0.5-0.6,1.1-1,1.6l-1,1.6
					c-0.3,0.5-0.6,1.1-1,1.6C43.1,32.7,42.8,33.2,42.4,33.8L42.4,33.8z M68,34.1l-25.1-0.2l8-13.7l2.8-0.1L51.1,20l0.5-0.8h0.6
					c-0.1,0.3-0.3,0.5-0.4,0.8c0.2-0.3,0.3-0.5,0.5-0.8l1-0.1h-0.9c0.2-0.3,0.3-0.5,0.5-0.8h0.9h-0.9l0,0l1.1-1.8c0.7,1,1.5,2,2.3,3
					l1.2,1.5l0.2,0.2l-2,0.1l2.2,0.1l0.7,1l-2.1,0.1h1.2l0,0l0.3,0.6l-0.1-0.6h0.8l0,0l0.7,0.9l-2.3,0.1l2.5,0.1l0.3,0.4l0.3,0.4h-1
					l-0.3-0.6l0.2,0.6l-7.4,0.1l8.7,0.1l0.8,1c0.3,0.4,0.6,0.7,0.9,1.1H62h-1.2h-2.4h-4.9l4.9,0.1h2.3c0.2,0.4,0.5,0.9,0.7,1.3
					c-0.2-0.4-0.4-0.9-0.6-1.3l0,0H62h0.3c0.4,0.5,0.9,1.1,1.3,1.7c-0.4-0.5-0.8-1.1-1.2-1.7h0.2h0.2L68,34.1z M62.2,26.4L62.2,26.4
					h-0.4c-0.3-0.4-0.6-0.8-0.9-1.2l-0.7-0.9h0.4L62.2,26.4z M60.5,24.2h-0.4l-0.3-0.5l-0.2-0.3H60L60.5,24.2z M59.7,23.2h-0.4
					l-0.7-0.9H59L59.7,23.2z M58.9,22.1h-0.4l-0.7-1h0.4L58.9,22.1z"/>
				<path class="st0" d="M46.5,30L59,30.1l-6.6,0.1l-0.2,0.5l0.1-0.5h-4.1c-0.2,0.4-0.3,0.7-0.5,1.1c0.1-0.4,0.2-0.7,0.4-1.1h-1.8
					l-1.7,2.9l2.5-5h0.4h2c0,0.2-0.1,0.4-0.1,0.6c0.1-0.2,0.2-0.4,0.3-0.6l4.2-0.1v0.7L54,28l5.6-0.1l-7.8-0.1l0.1-0.8l-0.3,0.8
					l-4-0.1h-0.4l0.2-0.4l1.5-3.7l-5.8,9.9h5.8l0.2-0.7L49,33.5h5.7l0.1-0.8v0.8h9.3l-0.3-0.6l0.4,0.6h3l-0.8-1l-20.5-0.1L58,32.3
					c0-0.2,0-0.4,0-0.6c0,0.2,0.1,0.4,0.1,0.6h8.2l-1-1.2h-3.5l0.5,1l-0.7-1L50,31.2l15.5-0.1l-1.6-2c-5.8,0-15.5,0-16.9,0L46.5,30z
					"/>
				<path class="st0" d="M54,25.4c0.1,0,0.2,0,0.3,0c0.1,0.3,0.1,0.6,0.1,0.9c0-0.3,0-0.6,0-0.9c0.6,0,1.2,0,1.8,0l0.2,0.9l-0.1-0.9
					c0.7,0,1.5,0,2.3-0.1c-0.8,0-1.6,0-2.4-0.1s-1.6,0-2.4,0s-1.6,0-2.4,0c-0.8,0-1.6,0-2.4,0.1c0.8,0,1.6,0,2.4,0.1
					C52.4,25.4,53.2,25.4,54,25.4z"/>
			</g>
		</g>
		<g>
			<g>
				<path class="st0" d="M37.5,17.5L37.5,17.5h0.6l0,0l1.4-2.4l0,0c0.7,0.9,1.4,1.8,2.1,2.6c0.2,0.3,0.5,0.6,0.7,0.9l1.4,1.8
					l0.3,0.4l0,0h0.4l0,0l0,0l-5.1-6.6l0,0l0,0l0,0L37.5,17.5L37.5,17.5z"/>
				<path class="st0" d="M27.1,34.2l0.2-0.3c0.3-0.5,0.7-1.1,1-1.6l1.2-1.9c0.3-0.5,0.7-1.2,1.1-1.9l1.1-1.9l0.6-1l0.6-1
					c0.9-1.5,1.6-2.7,2.2-3.9l0,0l0,0l0,0c-0.7,1.1-1.4,2.3-2.4,3.8l-0.6,0.9l-0.6,1l-1.2,1.9c-0.4,0.7-0.8,1.4-1.1,1.9l-1.1,1.9
					c-0.3,0.5-0.6,1.1-1,1.6L27,34.1c-0.1,0.2-0.3,0.4-0.4,0.7c-0.2,0.4-0.5,0.8-0.7,1.2l-0.3-0.3c-0.3-0.4-0.7-0.7-1-1.1l0,0l0,0
					l0,0c0.3,0.4,0.6,0.8,0.9,1.1l0.4,0.5l0,0l0,0l0,0l0,0c0.2-0.4,0.5-0.8,0.8-1.2C26.9,34.6,27,34.4,27.1,34.2z"/>
				<path class="st0" d="M25.2,33.4L25.2,33.4L25.2,33.4C25.3,33.4,25.3,33.4,25.2,33.4l2.5-3.5c-0.1,0.5-0.2,1-0.3,1.5l0,0l0,0l0,0
					c0.2-0.7,0.5-1.4,0.7-2.1l0.5-0.6l-0.1,0.9l0,0l0,0l0,0l0.4-1.4l0.5-0.7l-0.2,1l0,0l0,0l0,0l0.5-1.6l0.6-0.9l-0.2,1.2l0,0l0,0
					l0,0l0.5-1.7l0,0l0.7-1c-0.1,0.4-0.1,0.8-0.2,1.2l0,0l0,0l0,0c0.1-0.6,0.3-1.1,0.5-1.7l0.5-0.7l-0.2,1.2l0,0l0,0l0,0l0.5-1.7
					l0.5-0.6l-0.1,0.7l0,0l0,0l0,0l0.4-1.3l4-5.7l0.1-0.2l0,0l0,0l0,0l-2,2.2l0,0l0.1,0.3l-0.2-0.1l0,0l0,0l-0.3,0.3l0,0l0.1,0.3
					l-0.2-0.2l0,0l0,0l0.1,0.5l0,0l0.1,0.3l-0.2-0.2l0,0l0,0l-0.3,0.3l0,0l0.1,0.4l-0.3-0.2l0,0l0,0L34,20l0,0l0.1,0.4l-0.3-0.2l0,0
					l0,0l-0.3,0.3l0,0l0.2,0.4l-0.3-0.3l0,0l0,0l-0.3,0.3l0,0l0.2,0.5L33,21.1l0,0l0,0l-0.3,0.3l0,0l0.2,0.5l-0.3-0.3l0,0l0,0
					l-0.3,0.3l0,0l0.2,0.5l-0.5,0l0,0l0,0l0,0l-0.3,0.3l0,0l0.2,0.5l-0.4-0.4l0,0l0,0l0,0l-0.3,0.3l0,0l0.2,0.6L31,23.3l0,0l0,0l0,0
					l-0.3,0.3l0,0l0.3,0.6L30.6,24l0,0l0,0l0,0l-0.3,0.3l0,0l0.3,0.6l-0.4-0.4l0,0l0,0l0,0l-0.3,0.3l0,0l0.3,0.6L29.7,25l0,0l0,0
					l0,0l-0.3,0.3l0,0l0.3,0.7l-0.5-0.5l0,0l0,0l0,0l-0.3,0.3l0,0l0.3,0.7L28.7,26l0,0l0,0l0,0l-0.3,0.3l0,0l0.3,0.7l-0.5-0.5l0,0
					l0,0l0,0L28,26.9l0,0l0.4,0.7l-0.5-0.5l0,0l0,0l0,0l-0.2,0.3l0,0l0.4,0.8l-0.6-0.6l0,0l0,0l0,0L27.1,28l0,0l0.4,0.8l-0.7-1l0,0
					l0,0l0,0l-0.2,0.3l0,0l0.4,0.8l-0.6-0.6l0,0l0,0l0,0L26,28.6l0,0l0.4,0.8l-0.6-0.6l0,0l0,0l0,0l-0.2,0.3l0,0l0.5,0.9l-0.6-0.7
					l0,0l0,0l0,0l-0.2,0.3l0,0l0.5,0.9L25,29.9l0,0l0,0l0,0l-0.2,0.3l0,0l0.5,0.9l-0.7-0.7l0,0l0,0l0,0l-0.2,0.3l0,0l0.5,0.9
					l-0.7-0.7l0,0l0,0l0,0L24,31.2l0,0l0.5,1l-0.7-0.8l0,0l0,0l0,0l-0.2,0.3l0,0l0.5,1l-0.7-0.8l0,0l0,0l-0.2,0.2l0,0l1.1,1.5l0,0
					l0,0l0,0l3-3.4L25.2,33.4z"/>
				<path class="st0" d="M47,24.9L47,24.9l0.8,1.1c0.3,0.5,0.7,0.9,1,1.4l0,0h0.5l0,0l0,0l0,0l-1.9-2.5l0,0H47L47,24.9z"/>
				<path class="st0" d="M44.2,21.1L44.2,21.1l0.9,1.2l0,0h0.4l0,0l0,0l-0.8-1.1l0,0L44.2,21.1L44.2,21.1z"/>
				<path class="st0" d="M45.2,22.5L45.2,22.5l0.8,1.1l0,0h0.4l0,0l0,0l-0.8-1l0,0h-0.4C45.2,22.5,45.2,22.5,45.2,22.5z"/>
				<path class="st0" d="M46.2,23.8L46.2,23.8l0.3,0.4l0.4,0.5l0,0h0.5l0,0l0,0l-0.7-0.9l0,0H46.2L46.2,23.8z"/>
				<path class="st1" d="M56.4,36.5l-6.8-8.9l0,0h-0.2h-0.3l0,0l0,0c0.2,0.2,0.3,0.5,0.5,0.7c-0.2-0.2-0.4-0.5-0.6-0.7l0,0h-0.3
					h-1.5l0,0l0,0c0.1,0.4,0.3,0.7,0.4,1.1c-0.2-0.4-0.4-0.7-0.6-1.1l0,0h-2.7l-3.6-0.1h3.6h2.9h1.4h0.1l0,0l0,0
					c-0.3-0.4-0.7-0.9-1-1.3L46.8,25l0,0l-7.1-0.1h5.6l0,0l0,0l-0.1-0.5l0.3,0.5l0,0h1.2l0,0l0,0l-0.3-0.4L46,23.7l0,0l-2.2-0.1
					l2-0.1l0,0l0,0L45,22.4l0,0h-1l0,0l0,0l0.1,0.5l-0.2-0.5l0,0l0,0h-0.7l1.7-0.1l0,0l0,0l-1-1.3l0,0h-1.8l1.7-0.1l0,0l0,0
					l-0.2-0.3l-1.4-1.8c-0.2-0.3-0.5-0.6-0.7-0.9c-0.6-0.8-1.3-1.7-2-2.6l0,0l0,0l0,0l-1.3,2.2l0,0l0,0h0.6h-0.7l0,0l-0.4,0.7
					l0.4-0.6l0,0l0,0h-0.6l0,0L37,18.5l0,0l0,0h0.6l0,0l0,0l0,0l0,0h0.7h-0.7l0,0l0,0l0,0h-0.7l0,0l-0.5,0.9l0,0l0,0l2.5,0.1
					L36,19.9l0,0l-9.5,16.3l0,0l0,0L56.4,36.5L56.4,36.5C56.4,36.4,56.4,36.5,56.4,36.5z M36.8,26.1c1,0,1.9,0,2.8,0
					c0.9,0,1.9,0,2.8,0c0.7,0,1.4,0,2.1,0c-0.6,0-1.3,0-1.9,0l0,0l0,0l0.1,0.8l-0.2-0.8l0,0l0,0c-0.8,0-1.5,0-2.2,0l0,0l0,0
					c0,0.2,0,0.5,0,0.7c0-0.2-0.1-0.5-0.1-0.7l0,0h-0.4C38.8,26.2,37.8,26.2,36.8,26.1c-0.7,0.1-1.4,0.1-2,0
					C35.5,26.1,36.2,26.1,36.8,26.1z M52.3,36.1l-0.5-0.7l0,0l0,0l0,0l0.3,0.7h-11v-1l0,0l0,0l0,0l-0.1,1L34,36l0.1-0.8l0,0l0,0l0,0
					L33.8,36H27l6.7-11.4l-1.7,4L31.7,29l0,0l0,0l5.2,0.1l0,0l0.2-0.7L37,29.1l0,0l0,0l7.5,0.1l-5,0.1l0,0l-0.1,0.5v-0.5l0,0
					l-5.1,0.1l0,0c-0.1,0.2-0.1,0.3-0.2,0.5c0-0.2,0.1-0.3,0.1-0.5l0,0l0,0h-2.8l0,0l-2.9,5.9l0,0l0,0l0,0l2-3.5h2
					c-0.1,0.4-0.3,0.9-0.4,1.3l0,0l0,0l0,0c0.2-0.4,0.4-0.9,0.6-1.3h4.8l-0.1,0.6l0,0l0,0l0,0l0.2-0.6l7.8-0.1l0,0l0,0l-14.9-0.1
					l0.6-1.1h20.1l1.9,2.4L34.9,33l0,0l0,0l14.2,0.1l0.8,1.2l0,0l0,0l0,0l-0.6-1.2h4.2l1.1,1.4H45c0-0.2-0.1-0.5-0.1-0.7l0,0l0,0
					l0,0c0,0.2,0,0.5,0,0.7l-14.3,0.1l0,0l0,0L54.9,35l0.9,1.2L52.3,36.1z"/>
			</g>
			<g>
				<path class="st0" d="M45.3,20.9L45.3,20.9l-6-7.8L22,32.1l3.8,4.9l31.9,0.2L45.3,20.9L45.3,20.9L45.3,20.9z M39.4,14.3l5.1,6.6
					h-0.4l-0.3-0.4l-1.4-1.8c-0.9-1.2-1.8-2.4-2.8-3.6L39.5,15v0.1l-1.3,2.2c0,0,0,0,0,0.1h-0.6L39.4,14.3z M38.1,17.7
					c-0.2,0.3-0.4,0.6-0.5,1H37l0.5-0.9L38.1,17.7z M22.8,32.1l0.2-0.2l0.9,0.9l-0.6-1.2l0.2-0.3l0.8,0.9L23.7,31l0.2-0.3l0.8,0.9
					l-0.6-1.1l0.2-0.3l0.8,0.9L24.5,30l0.2-0.3l0.8,0.8l-0.6-1.1l0.2-0.3l0.8,0.8l-0.5-1l0.2-0.3l0.7,0.8l-0.5-1l0.2-0.3l0.7,0.7
					l-0.5-1l0.2-0.3l0.7,0.7l-0.5-1l0.2-0.3l0.7,0.7L27,26.7l0.2-0.3l0.7,0.7l-0.4-0.9l0.3-0.3l0.6,0.6L28,25.6l0.3-0.3l0.6,0.6
					l-0.4-0.8l0.3-0.3l0.6,0.6L29,24.6l0.3-0.3l0.6,0.6l-0.4-0.8l0.3-0.3l0.5,0.5L30,23.6l0.3-0.3l0.5,0.5l-0.3-0.7l0.3-0.3l0.5,0.5
					L31.2,23l0.3-0.3l0.5,0.4l-0.3-0.7l0.3-0.3l0.4,0.4L32.1,22l0.3-0.3l0.4,0.4l-0.2-0.6l0.3-0.3l0.4,0.4L33,21l0.3-0.3l0.4,0.3
					l-0.2-0.5l0.3-0.3l0.4,0.3L34,20l0.3-0.3l0.3,0.3l-0.2-0.5l0.3-0.3l0.3,0.2L34.9,19l0.3-0.3l0.3,0.2l-0.1-0.4l0.3-0.3l0.3,0.2
					L35.8,18l2-2.2L37.7,16l-4.1,5.6l-0.4,1.3l0.1-0.8l-0.5,0.7l-0.5,1.7l0.2-1.3L31.9,24c-0.2,0.6-0.3,1.1-0.5,1.7
					c0-0.4,0.1-0.8,0.2-1.3l-0.8,1.1l0,0l-0.2,0.6l-0.3,1.1l0.2-1.2v-0.2l-0.7,1l-0.5,1.6l0.2-1.2l-0.5,1l-0.4,1.4l0.2-1l-0.5,0.7
					c-0.2,0.7-0.4,1.4-0.7,2.1c0.1-0.5,0.2-1.1,0.4-1.6l-2.6,3.5l1.9-3.4L24,33.6L22.8,32.1z M25.9,36.1L25.9,36.1
					c-0.5-0.6-0.9-1.1-1.3-1.6C25,35,25.5,35.5,25.9,36.1c0.4-0.7,0.7-1.4,1.1-2c0.4-0.6,0.7-1.3,1.1-1.9l1.1-1.9
					c0.4-0.6,0.8-1.3,1.1-1.9l1.2-1.9l0.6-1l0.6-0.9c0.8-1.3,1.6-2.5,2.4-3.8c-0.7,1.3-1.5,2.6-2.2,3.9l-0.6,1l-0.6,1l-1.1,1.9
					c-0.4,0.6-0.8,1.3-1.1,1.9l-1.2,1.9c-0.4,0.6-0.8,1.3-1.2,1.9C26.7,34.8,26.3,35.4,25.9,36.1L25.9,36.1z M56.4,36.5l-29.9-0.2
					L36.1,20l3.4-0.1l-3.2-0.1l0.5-0.9h0.7c-0.2,0.3-0.3,0.6-0.5,0.9c0.2-0.3,0.4-0.6,0.6-0.9l1.2-0.1l-1.1-0.1
					c0.2-0.3,0.4-0.6,0.6-1l1.1-0.1l-1-0.1l0,0l1.3-2.1c0.9,1.2,1.8,2.4,2.7,3.5l1.4,1.8L44,21l-2.4,0.1l2.6,0.1l0.9,1.2l-2.5,0.1
					h1.5l0,0l0.3,0.7L44,22.5h1l0,0l0.8,1.1L43,23.7l2.9,0.1l0.4,0.5l0.3,0.4h-1.2L45.2,24l0.2,0.7l-8.9,0.1l10.3,0.1l0.9,1.2
					c0.3,0.4,0.7,0.9,1,1.3h-0.1h-1.4h-2.9h-5.8l5.8,0.1H47c0.3,0.5,0.5,1.1,0.9,1.6c-0.2-0.5-0.5-1-0.7-1.6l0,0h1.4H49
					c0.5,0.7,1,1.3,1.6,2c-0.5-0.7-1-1.3-1.5-2h0.3h0.2L56.4,36.5z M49.4,27.4L49.4,27.4h-0.5c-0.3-0.5-0.7-0.9-1-1.4l-0.8-1.1h0.5
					L49.4,27.4z M47.4,24.7h-0.5l-0.4-0.5l-0.3-0.4h0.5L47.4,24.7z M46.5,23.5h-0.4l-0.8-1.1h0.5L46.5,23.5z M45.5,22.3h-0.4
					l-0.9-1.1h0.5L45.5,22.3z"/>
				<path class="st0" d="M30.7,31.7l15,0.1l-7.8,0.1l-0.2,0.7l0.1-0.6H33c-0.2,0.4-0.4,0.9-0.6,1.3c0.2-0.4,0.3-0.9,0.4-1.3h-2.1
					l-2,3.5l3-5.9H32h2.3c-0.1,0.2-0.1,0.5-0.2,0.8c0.1-0.3,0.2-0.5,0.3-0.8l5.1-0.1v0.8l0.1-0.8l6.7-0.1l-9.2-0.1l0.2-1l-0.3,1
					l-4.7-0.1h-0.5l0.2-0.5l1.8-4.4L27,36.1h6.9l0.3-0.8l-0.1,0.8h6.8l0.1-1v1h11.1l-0.3-0.7l0.5,0.7h3.6l-1-1.2l-24.5-0.1l14.4-0.1
					c0-0.2,0-0.5,0-0.7c0,0.2,0.1,0.5,0.1,0.7h9.7l-1.1-1.5h-4.2l0.6,1.2l-0.8-1.2L35,33.1L53.4,33l-1.9-2.4c-6.9,0-18.4,0-20.1,0
					L30.7,31.7z"/>
				<path class="st0" d="M39.7,26.2c0.1,0,0.3,0,0.4,0c0.1,0.3,0.1,0.7,0.2,1.1c0-0.3,0-0.7,0-1.1c0.7,0,1.5,0,2.2,0l0.3,1.1
					l-0.1-1.1c0.9,0,1.8,0,2.7-0.1c-0.9,0-1.9-0.1-2.8-0.1c-0.9,0-1.9,0-2.8,0c-0.9,0-1.9,0-2.8,0c-0.9,0-1.9,0-2.8,0.1
					c0.9,0,1.9,0.1,2.8,0.1C37.8,26.2,38.7,26.2,39.7,26.2z"/>
			</g>
		</g>
		<g>
			<g>
				<path class="st0" d="M25.7,22.8L25.7,22.8h0.5l0,0l1.1-2l0,0c0.6,0.7,1.2,1.5,1.7,2.2c0.2,0.3,0.4,0.5,0.6,0.8l1.2,1.5l0.2,0.3
					l0,0h0.4l0,0l0,0L27.1,20l0,0l0,0l0,0L25.7,22.8C25.7,22.7,25.7,22.7,25.7,22.8z"/>
				<path class="st0" d="M17,36.8l0.1-0.2c0.3-0.4,0.6-0.9,0.8-1.4l1-1.6c0.3-0.4,0.6-1,1-1.6l1-1.6l0.5-0.8l0.5-0.8
					c0.7-1.3,1.3-2.3,1.9-3.3l0,0l0,0l0,0c-0.6,0.9-1.2,1.9-2,3.2l-0.5,0.8l-0.5,0.8l-1,1.6c-0.3,0.6-0.7,1.2-1,1.6l-1,1.6
					c-0.3,0.4-0.5,0.9-0.8,1.4l-0.1,0.2c-0.1,0.2-0.2,0.4-0.3,0.6c-0.2,0.3-0.4,0.7-0.6,1L15.7,38c-0.3-0.3-0.6-0.6-0.8-0.9l0,0l0,0
					l0,0c0.3,0.3,0.5,0.6,0.8,0.9l0.3,0.4l0,0l0,0l0,0l0,0c0.2-0.3,0.4-0.7,0.6-1C16.8,37.1,16.9,36.9,17,36.8z"/>
				<path class="st0" d="M15.4,36.1L15.4,36.1L15.4,36.1C15.4,36.1,15.5,36.1,15.4,36.1l2.1-2.9c-0.1,0.4-0.2,0.9-0.3,1.3l0,0l0,0
					l0,0c0.2-0.6,0.4-1.1,0.6-1.7l0.4-0.5L18.1,33l0,0l0,0l0,0l0.4-1.1l0.4-0.6L18.8,32l0,0l0,0l0,0l0.4-1.3l0.5-0.8l-0.2,1l0,0l0,0
					l0,0l0.4-1.5l0,0l0.6-0.9c0,0.3-0.1,0.7-0.1,1l0,0l0,0l0,0c0.1-0.5,0.3-1,0.4-1.4l0.4-0.6l-0.1,1l0,0l0,0l0,0l0.4-1.5l0.4-0.5
					l-0.1,0.6l0,0l0,0l0,0l0.3-1.1l3.4-4.8l0.1-0.2l0,0l0,0l0,0l-1.7,1.8l0,0L24,23l-0.2-0.1l0,0l0,0l-0.3,0.3l0,0l0.1,0.3l-0.2-0.1
					l0,0l0,0l-0.2,0.3l0,0l0.1,0.3l-0.2-0.2l0,0l0,0l-0.2,0.3l0,0l0.1,0.3l0,0.1l0,0l0,0l-0.2,0.3l0,0l0.1,0.3L22.6,25l0,0l0,0
					l-0.2,0.3l0,0l0.1,0.4l-0.2-0.2l0,0l0,0L22,25.7l0,0l0.1,0.4l-0.3-0.2l0,0l0,0l-0.2,0.3l0,0l0.2,0.4l-0.3-0.3l0,0l0,0l-0.2,0.2
					l0,0l0.2,0.4l-0.3-0.3l0,0l0,0l0,0L21,26.8l0,0l0.2,0.4l-0.3-0.3l0,0l0,0l0,0l-0.2,0.2l0,0l0.2,0.5l-0.3-0.3l0,0l0,0l0,0
					L20,27.8l0,0l0.2,0.5L19.9,28l0,0l0,0l0,0l-0.2,0.2l0,0l0.2,0.5l-0.4-0.4l0,0l0,0l0,0l-0.2,0.2l0,0l0.2,0.5l-0.4-0.4l0,0l0,0
					l0,0L18.9,29l0,0l0.3,0.6l-0.4-0.4l0,0l0,0l0,0l-0.2,0.2l0,0l0.3,0.6l-0.4-0.4l0,0l0,0l0,0l-0.2,0.2l0,0l0.3,0.6L18,30l0,0l0,0
					l0,0l-0.2,0.2l0,0l0.3,0.6l-0.4-0.5l0,0l0,0l0,0l-0.2,0.2l0,0l0.3,0.6l-0.5-0.5l0,0l0,0l0,0L17,31.1l0,0l0.3,0.7l-0.5-0.5l0,0
					l0,0l0,0l-0.2,0.2l0,0l0.4,0.7l-0.5-0.5l0,0l0,0l0,0L16.2,32l0,0l0.4,0.7l-0.5-0.5l0,0l0,0l0,0l-0.2,0.2l0,0l0.4,0.7l-0.5-0.6
					l0,0l0,0l0,0l-0.2,0.2l0,0l0.4,0.8l-0.5-0.6l0,0l0,0l0,0L15,33.3l0,0l0.4,0.8l-0.6-0.6l0,0l0,0l0,0l-0.2,0.2l0,0l0.4,0.8
					L14.5,34l0,0l0,0l0,0l-0.2,0.2l0,0l0.4,0.8l-0.6-0.6l0,0l0,0l0,0l-0.2,0.2l0,0l0.5,0.8l-0.6-0.7l0,0l0,0L13.5,35l0,0l1,1.2l0,0
					l0,0l0,0l2.5-2.8L15.4,36.1z"/>
				<path class="st0" d="M33.7,29L33.7,29l0.7,0.9c0.3,0.4,0.6,0.8,0.9,1.2l0,0h0.4l0,0l0,0l0,0L34.2,29l0,0H33.7
					C33.7,28.9,33.7,28.9,33.7,29z"/>
				<path class="st0" d="M31.3,25.8L31.3,25.8l0.7,1l0,0h0.4l0,0l0,0l-0.7-0.9l0,0L31.3,25.8L31.3,25.8z"/>
				<path class="st0" d="M32.2,26.9L32.2,26.9l0.7,0.9l0,0h0.4l0,0l0,0l-0.7-0.9l0,0H32.2L32.2,26.9z"/>
				<path class="st0" d="M33,28L33,28l0.2,0.3l0.3,0.5l0,0H34l0,0l0,0L33.4,28l0,0H33L33,28z"/>
				<path class="st1" d="M41.6,38.7l-5.7-7.4l0,0h-0.2h-0.2l0,0l0,0c0.1,0.2,0.3,0.4,0.4,0.6c-0.2-0.2-0.3-0.4-0.5-0.6l0,0h-0.3
					h-1.2l0,0l0,0c0.1,0.3,0.2,0.6,0.4,0.9c-0.2-0.3-0.3-0.6-0.5-0.9l0,0h-2.3h-3h3h2.4h1.2h0.1l0,0l0,0c-0.3-0.4-0.6-0.7-0.9-1.1
					l-0.8-1l0,0h-6h4.7l0,0l0,0l-0.1-0.4l0.2,0.4l0,0h1l0,0l0,0L33,28.8L32.9,28l0,0H31l1.7-0.1l0,0l0,0l-0.7-1l0,0h-0.8l0,0l0,0
					l0.1,0.4L31,26.9l0,0l0,0h-0.6h1.5l0,0l0,0l-0.7-1l0,0h-1.5h1.4l0,0l0,0l-0.2-0.2l-1.2-1.5c-0.2-0.3-0.4-0.5-0.6-0.8
					c-0.5-0.7-1.1-1.4-1.7-2.2l0,0l0,0l0,0L26.3,23l0,0l0,0h0.5h-0.6l0,0l-0.3,0.6l0.3-0.5l0,0l0,0h-0.5l0,0l-0.4,0.7l0,0l0,0h0.5
					l0,0l0,0l0,0l0,0h0.6h-0.6l0,0l0,0l0,0h-0.6l0,0l-0.5,0.8l0,0l0,0l2.1,0.1l-2.2,0.1l0,0l-8,13.7l0,0l0,0L41.6,38.7
					C41.6,38.8,41.6,38.8,41.6,38.7L41.6,38.7z M25.2,29.9c0.8,0,1.6,0,2.4,0c0.7,0,1.6,0,2.4,0c0.6,0,1.2,0,1.7,0
					c-0.5,0-1.1,0-1.6,0l0,0l0,0v0.6L29.9,30l0,0l0,0c-0.7,0-1.3,0-1.8,0l0,0l0,0c0,0.2,0,0.4,0,0.6c0-0.2-0.1-0.4-0.1-0.6l0,0h-0.3
					C26.8,30,26,30,25.2,29.9c-0.5,0.1-1.1,0-1.7,0C24,30,24.6,30,25.2,29.9z M38.2,38.4l-0.4-0.6l0,0l0,0l0,0l0.3,0.6h-9.3v-0.8
					l0,0l0,0l0,0l-0.1,0.8H23l0.1-0.7l0,0l0,0l0,0l-0.2,0.7h-5.8l5.6-9.6L21.1,32l-0.2,0.4l0,0l0,0l4.4,0.1l0,0l0.2-0.6l-0.1,0.6
					l0,0l0,0l6.3,0.1l-4.2,0.1l0,0l-0.1,0.5v-0.4l0,0l-4.2,0.1l0,0c-0.1,0.1-0.1,0.3-0.2,0.4c0-0.1,0.1-0.3,0.1-0.4l0,0l0,0h-2.3
					l0,0l-2.5,5l0,0l0,0l0,0L20,35h1.7c-0.1,0.4-0.2,0.7-0.4,1.1l0,0l0,0l0,0c0.2-0.4,0.3-0.7,0.5-1.1h4l-0.1,0.5l0,0l0,0l0,0
					l0.2-0.5l6.6-0.1l0,0l0,0L20,34.8l0.5-0.9h16.9l1.6,2L23.5,36l0,0l0,0l11.9,0.1l0.7,1l0,0l0,0l0,0l-0.5-1h3.5l0.9,1.2h-8.1
					c0-0.2,0-0.4-0.1-0.6l0,0l0,0l0,0c0,0.2,0,0.4,0,0.6l-12.1,0.1l0,0l0,0l20.5,0.1l0.8,1L38.2,38.4z"/>
			</g>
			<g>
				<path class="st0" d="M32.3,25.6L32.3,25.6l-5-6.5L12.7,35l3.2,4.1l26.8,0.2L32.3,25.6L32.3,25.6z M27.3,20.1l4.3,5.6h-0.4
					L31,25.3l-1.2-1.5c-0.8-1-1.5-2-2.3-3v-0.1v0.1l-1.1,1.9c0,0,0,0,0,0.1h-0.5L27.3,20.1z M26.2,22.9c-0.1,0.3-0.3,0.5-0.5,0.8
					h-0.5l0.4-0.7L26.2,22.9z M13.4,35l0.1-0.2l0.7,0.8l-0.5-1l0.2-0.2l0.7,0.8l-0.5-1l0.2-0.2l0.7,0.7l-0.5-0.9l0.2-0.2l0.7,0.7
					l-0.5-0.9l0.2-0.2l0.7,0.7L15.3,33l0.2-0.2l0.6,0.7l-0.5-0.9l0.2-0.2l0.6,0.7L16,32.3l0.2-0.2l0.6,0.6l-0.4-0.8l0.2-0.2l0.6,0.6
					l-0.4-0.8l0.2-0.2l0.6,0.6l-0.4-0.8l0.2-0.2l0.5,0.6l-0.4-0.7l0.2-0.2l0.5,0.5L18,29.9l0.2-0.2l0.5,0.5l-0.3-0.7l0.2-0.2
					l0.5,0.5l-0.3-0.7l0.2-0.2l0.5,0.5l-0.3-0.6l0.2-0.2l0.5,0.4l-0.3-0.6l0.2-0.2l0.4,0.4L20,27.8l0.2-0.2l0.4,0.4l-0.2-0.6
					l0.2-0.2l0.4,0.4L20.8,27l0.2-0.2l0.4,0.3l-0.2-0.5l0.2-0.2l0.4,0.3l-0.2-0.5l0.2-0.3l0.3,0.3L22,25.7l0.2-0.3l0.3,0.3l-0.2-0.4
					l0.2-0.3l0.3,0.3l-0.2-0.4l0.2-0.3l0.3,0.2L23,24.4l0.2-0.3l0.3,0.2l0-0.3l0.2-0.3l0.2,0.2l-0.1-0.3l0.3-0.3l0.2,0.2l-0.1-0.3
					l1.7-1.8l-0.1,0.2l-3.4,4.8l-0.3,1.1l0.1-0.7l-0.4,0.6l-0.4,1.5l0.1-1.1L21,28.3c-0.1,0.5-0.3,1-0.4,1.4c0-0.3,0.1-0.7,0.1-1.1
					L20,29.5l0,0v0.6l-0.3,1l0.2-1V30l-0.6,0.8L18.9,32l0.2-1l-0.5,0.7l-0.4,1.2l0.1-0.8l-0.4,0.6c-0.2,0.6-0.4,1.2-0.6,1.7
					c0.1-0.4,0.2-0.9,0.3-1.4l-2.1,3l1.6-2.8l-2.7,3L13.4,35z M16,38.4L16,38.4c-0.4-0.5-0.8-0.9-1.1-1.4
					C15.2,37.4,15.6,37.9,16,38.4c0.3-0.6,0.6-1.2,0.9-1.7s0.6-1.1,0.9-1.6l1-1.6c0.3-0.5,0.6-1.1,1-1.6l1-1.6l0.5-0.8l0.5-0.8
					c0.6-1.1,1.3-2.1,2-3.2c-0.6,1.1-1.2,2.2-1.9,3.3l-0.5,0.8l-0.5,0.8l-1,1.6c-0.3,0.5-0.6,1.1-1,1.6l-1,1.6
					c-0.3,0.5-0.6,1.1-1,1.6C16.6,37.3,16.3,37.8,16,38.4L16,38.4z M41.6,38.7l-25.1-0.2l8-13.7l2.8-0.1l-2.7-0.1l0.5-0.8h0.6
					c-0.1,0.3-0.3,0.5-0.4,0.8c0.2-0.3,0.3-0.5,0.5-0.8l1-0.1h-0.9c0.2-0.3,0.3-0.5,0.5-0.8h0.9h-0.9l0,0l1.1-1.8c0.7,1,1.5,2,2.3,3
					l1.2,1.5l0.2,0.2l-2,0.1l2.2,0.1l0.7,1L30,27.1h1.2l0,0l0.3,0.6l-0.1-0.6h0.8l0,0l0.7,0.9l-2.5,0l2.5,0.1l0.3,0.4l0.3,0.4h-1
					l-0.3-0.6l0.2,0.6L25,29l8.7,0.1l0.8,1c0.3,0.4,0.6,0.7,0.9,1.1h-0.1h-1.2h-2.4h-4.9l4.9,0.1H34c0.2,0.4,0.5,0.9,0.7,1.3
					c-0.2-0.4-0.4-0.9-0.6-1.3l0,0h1.2h0.3c0.4,0.5,0.9,1.1,1.3,1.7c-0.4-0.5-0.8-1.1-1.2-1.7h0.2h0.2L41.6,38.7z M35.7,31.1
					L35.7,31.1h-0.4c-0.3-0.4-0.6-0.8-0.9-1.2L33.7,29h0.4L35.7,31.1z M34,28.8h-0.4l-0.3-0.5L33,28h0.4L34,28.8z M33.3,27.8h-0.4
					l-0.7-0.9h0.4L33.3,27.8z M32.4,26.8H32l-0.7-1h0.4L32.4,26.8z"/>
				<path class="st0" d="M20,34.7l12.6,0.1H26l-0.2,0.5l0.1-0.5h-4.1c-0.2,0.4-0.3,0.7-0.5,1.1c0.1-0.4,0.2-0.7,0.4-1.1h-1.8
					l-1.7,2.9l2.5-5h0.4h2c0,0.2-0.1,0.4-0.1,0.6c0.1-0.2,0.2-0.4,0.3-0.6l4.2-0.1v0.7l0.1-0.7l5.6-0.1l-7.8-0.1l0.1-0.8l-0.3,0.8
					l-4-0.1h-0.4l0.2-0.4l1.5-3.7l-5.8,9.9h5.8l0.2-0.7l-0.1,0.7h5.7l0.1-0.8v0.8h9.3l-0.3-0.6l0.4,0.6h3l-0.8-1L19.4,37l12.1-0.1
					c0-0.2,0-0.4,0-0.6c0,0.2,0.1,0.4,0.1,0.6h8.2l-1-1.2h-3.5l0.5,1l-0.7-1l-11.9-0.1l15.5-0.1l-1.6-2c-5.8,0-15.5,0-16.9,0
					L20,34.7z"/>
				<path class="st0" d="M27.5,30.1c0.1,0,0.2,0,0.3,0c0.1,0.3,0.1,0.6,0.1,0.9c0-0.3,0-0.6,0-0.9c0.6,0,1.2,0,1.8,0l0.2,0.9l0.1-1
					c0.7,0,1.5,0,2.3-0.1c-0.8,0-1.6,0-2.4-0.1c-0.8,0-1.6,0-2.4,0s-1.6,0-2.4,0s-1.6,0-2.4,0.1c0.8,0,1.6,0,2.4,0.1
					C26,30.1,26.7,30.1,27.5,30.1z"/>
			</g>
		</g>
	</g>
</g>
<g>
	<g>
		<path class="st0" d="M67.5,12.7l1.3-0.7v1.6V15l-1.3-0.8l-1.3-0.7L67.5,12.7z M67.5,16.1l-1.3,0.8v-1.5v-1.6l1.3,0.7l1.3,0.8
			L67.5,16.1z M67.5,16.5l1.3-0.7v1.6v1.5L67.5,18l-1.3-0.7L67.5,16.5z M67.5,19.9l-1.3,0.8v-1.5v-1.6l1.3,0.7l1.3,0.8L67.5,19.9z
			 M67.5,20.2l1.3-0.7V21v1.5l-1.3-0.8L66.3,21L67.5,20.2z M67.5,23.6l-1.3,0.8v-1.5v-1.6l1.3,0.7l1.3,0.8L67.5,23.6z M67.5,24
			l1.3-0.7v1.6v1.5l-1.3-0.8l-1.3-0.7L67.5,24z M67.5,27.4l-1.3,0.8v-1.5v-1.6l1.3,0.7l1.3,0.8L67.5,27.4z M70.6,10.8l1.3-0.7v1.6
			v1.5l-1.3-0.8l-1.3-0.7L70.6,10.8z M70.6,14.3L69.3,15v-1.5V12l1.3,0.7l1.3,0.8L70.6,14.3z M70.6,18.3l1.3-0.7v1.6v1.5l-1.3-0.8
			l-1.3-0.7L70.6,18.3z M73.6,12.4l-1.3,0.8v-1.5v-1.6l1.3,0.7l1.3,0.8L73.6,12.4z M73.6,16.5l1.3-0.7v1.6v1.5L73.6,18l-1.3-0.7
			L73.6,16.5z M73.6,19.9l-1.3,0.8v-1.5v-1.6l1.3,0.7l1.3,0.8L73.6,19.9z M76.6,14.3L75.3,15v-1.5V12l1.3,0.7l1.3,0.8L76.6,14.3z
			 M76.6,14.6l1.3-0.7v1.6V17l-1.3-0.8l-1.3-0.7L76.6,14.6z M76.6,18l-1.3,0.8v-1.5v-1.6l1.3,0.7l1.3,0.8L76.6,18z"/>
		<path class="st0" d="M80.4,12.7l1.3-0.7v1.5V15l-1.3-0.8l-1.3-0.7L80.4,12.7z M80.4,16.1l-1.3,0.8v-1.6v-1.5l1.3,0.7l1.3,0.8
			L80.4,16.1z M80.4,16.4l1.3-0.7v1.5v1.6L80.4,18l-1.3-0.7L80.4,16.4z M83.5,17.9l-1.3,0.8v-1.6v-1.5l1.3,0.7l1.3,0.8L83.5,17.9z
			 M83.5,18.3l1.3-0.7v1.5v1.6l-1.3-0.8l-1.3-0.7L83.5,18.3z M83.5,21.7l-1.3,0.8V21v-1.5l1.3,0.7l1.3,0.8L83.5,21.7z M83.5,22.1
			l1.3-0.7v1.5v1.6l-1.3-0.8L82.2,23L83.5,22.1z M83.5,25.5l-1.3,0.8v-1.6v-1.5l1.3,0.7l1.3,0.8L83.5,25.5z M83.5,25.8l1.3-0.7v1.5
			v1.6l-1.3-0.8l-1.3-0.7L83.5,25.8z M86.5,16.4l1.3-0.7v1.5v1.6L86.5,18l-1.3-0.7L86.5,16.4z M86.5,19.8l-1.3,0.8V19v-1.6l1.3,0.7
			l1.3,0.8L86.5,19.8z M89.5,10.8l1.3-0.7v1.5v1.6l-1.3-0.8l-1.3-0.7L89.5,10.8z M89.5,14.2L88.2,15v-1.6v-1.5l1.3,0.7l1.3,0.8
			L89.5,14.2z M89.5,14.6l1.3-0.7v1.5V17l-1.3-0.8l-1.3-0.7L89.5,14.6z M89.5,17.9l-1.3,0.8v-1.6v-1.5l1.3,0.7l1.3,0.8L89.5,17.9z"
			/>
		<path class="st0" d="M93.4,12.7l1.3-0.7v1.6V15l-1.3-0.8l-1.3-0.7L93.4,12.7z M93.4,16.1l-1.3,0.8v-1.5v-1.6l1.3,0.7l1.3,0.8
			L93.4,16.1z M93.4,16.5l1.3-0.7v1.6v1.5L93.4,18l-1.3-0.7L93.4,16.5z M93.4,19.9l-1.3,0.8v-1.5v-1.6l1.3,0.7l1.3,0.8L93.4,19.9z
			 M93.4,20.2l1.3-0.7V21v1.5l-1.3-0.8L92.1,21L93.4,20.2z M93.4,23.6l-1.3,0.8v-1.5v-1.6l1.3,0.7l1.3,0.8L93.4,23.6z M93.4,24
			l1.3-0.7v1.6v1.5l-1.3-0.8l-1.3-0.7L93.4,24z M93.4,27.4l-1.3,0.8v-1.5v-1.6l1.3,0.7l1.3,0.8L93.4,27.4z M96.3,10.8l1.3-0.7v1.6
			v1.5l-1.3-0.8L95,11.7L96.3,10.8z M96.3,14.3L95.1,15v-1.5V12l1.3,0.7l1.3,0.8L96.3,14.3z M96.3,18.3l1.3-0.7v1.6v1.5l-1.3-0.8
			L95,19.2L96.3,18.3z M96.3,21.8L95,22.6V21v-1.6l1.3,0.7l1.3,0.8L96.3,21.8z M99.4,12.4l-1.3,0.8v-1.5v-1.6l1.3,0.7l1.3,0.8
			L99.4,12.4z M99.4,16.5l1.3-0.7v1.6v1.5L99.4,18l-1.3-0.7L99.4,16.5z M99.4,19.9l-1.3,0.8v-1.5v-1.6l1.3,0.7l1.3,0.8L99.4,19.9z
			 M99.4,20.2l1.3-0.7V21v1.5l-1.3-0.8L98.1,21L99.4,20.2z M102.4,14.3l-1.3,0.8v-1.5V12l1.3,0.7l1.3,0.8L102.4,14.3z M102.4,14.6
			l1.3-0.7v1.6V17l-1.3-0.8l-1.3-0.7L102.4,14.6z M102.4,18l-1.3,0.8v-1.5v-1.6l1.3,0.7l1.3,0.8L102.4,18z M102.4,21.8l-1.3,0.8V21
			v-1.6l1.3,0.7l1.3,0.8L102.4,21.8z M102.4,22.1l1.3-0.7V23v1.5l-1.3-0.8l-1.3-0.7L102.4,22.1z M102.4,25.5l-1.3,0.8v-1.5v-1.6
			l1.3,0.7l1.3,0.8L102.4,25.5z"/>
		<path class="st0" d="M106.3,12.7l1.3-0.7v1.6V15l-1.3-0.8l-1.3-0.7L106.3,12.7z M106.3,16.1l-1.3,0.8v-1.5v-1.6l1.3,0.7l1.3,0.8
			L106.3,16.1z M106.3,16.5l1.3-0.7v1.6v1.5l-1.3-0.8l-1.3-0.7L106.3,16.5z M106.3,19.9l-1.3,0.8v-1.5v-1.6l1.3,0.7l1.3,0.8
			L106.3,19.9z M106.3,20.2l1.3-0.7V21v1.5l-1.3-0.8L105,21L106.3,20.2z M106.3,23.6l-1.3,0.8v-1.5v-1.6l1.3,0.7l1.3,0.8L106.3,23.6
			z M106.3,24l1.3-0.7v1.6v1.5l-1.3-0.8l-1.3-0.7L106.3,24z M106.3,27.4l-1.3,0.8v-1.5v-1.6l1.3,0.7l1.3,0.8L106.3,27.4z
			 M109.2,10.8l1.3-0.7v1.6v1.5l-1.3-0.8l-1.3-0.7L109.2,10.8z M109.2,14.3L108,15v-1.5V12l1.3,0.7l1.3,0.8L109.2,14.3z M109.2,22.1
			l1.3-0.7V23v1.5l-1.3-0.8l-1.3-0.7L109.2,22.1z M112.2,12.4l-1.3,0.8v-1.5v-1.6l1.3,0.7l1.3,0.8L112.2,12.4z M112.2,20.2l1.3-0.7
			V21v1.5l-1.3-0.8L111,21L112.2,20.2z M112.2,23.6l-1.3,0.8v-1.5v-1.6l1.3,0.7l1.3,0.8L112.2,23.6z M115.3,14.3L114,15v-1.5V12
			l1.3,0.7l1.3,0.8L115.3,14.3z M115.3,14.6l1.3-0.7v1.6V17l-1.3-0.8l-1.3-0.7L115.3,14.6z M115.3,18l-1.3,0.8v-1.5v-1.6l1.3,0.7
			l1.3,0.8L115.3,18z M115.3,18.3l1.3-0.7v1.6v1.5l-1.3-0.8l-1.3-0.7L115.3,18.3z M115.3,21.8l-1.3,0.8V21v-1.6l1.3,0.7l1.3,0.8
			L115.3,21.8z M115.3,22.1l1.3-0.7V23v1.5l-1.3-0.8L114,23L115.3,22.1z M115.3,25.5l-1.3,0.8v-1.5v-1.6l1.3,0.7l1.3,0.8L115.3,25.5
			z"/>
		<path class="st0" d="M119.2,12.7l1.3-0.7v1.6V15l-1.3-0.8l-1.3-0.7L119.2,12.7z M119.2,16.1l-1.3,0.8v-1.5v-1.6l1.3,0.7l1.3,0.8
			L119.2,16.1z M119.2,16.5l1.3-0.7v1.6v1.5l-1.3-0.8l-1.3-0.7L119.2,16.5z M119.2,19.9l-1.3,0.8v-1.5v-1.6l1.3,0.7l1.3,0.8
			L119.2,19.9z M119.2,20.2l1.3-0.7V21v1.5l-1.3-0.8l-1.3-0.7L119.2,20.2z M119.2,23.6l-1.3,0.8v-1.5v-1.6l1.3,0.7l1.3,0.8
			L119.2,23.6z M119.2,24l1.3-0.7v1.6v1.5l-1.3-0.8l-1.3-0.7L119.2,24z M119.2,27.4l-1.3,0.8v-1.5v-1.6l1.3,0.7l1.3,0.8L119.2,27.4z
			 M122.2,14.3l-1.3,0.8v-1.5V12l1.3,0.7l1.3,0.8L122.2,14.3z M122.2,14.6l1.3-0.7v1.6V17l-1.3-0.8l-1.3-0.7L122.2,14.6z
			 M125.1,12.7l1.3-0.7v1.6V15l-1.3-0.8l-1.3-0.7L125.1,12.7z M125.1,16.1l-1.3,0.8v-1.5v-1.6l1.3,0.7l1.3,0.8L125.1,16.1z
			 M128.2,10.8l1.3-0.7v1.6v1.5l-1.3-0.8l-1.3-0.7L128.2,10.8z M128.2,14.3l-1.3,0.8v-1.5V12l1.3,0.7l1.3,0.8L128.2,14.3z
			 M128.2,14.6l1.3-0.7v1.6V17l-1.3-0.8l-1.3-0.7L128.2,14.6z M128.2,18l-1.3,0.8v-1.5v-1.6l1.3,0.7l1.3,0.8L128.2,18z M128.2,18.3
			l1.3-0.7v1.6v1.5l-1.3-0.8l-1.3-0.7L128.2,18.3z M128.2,21.8l-1.3,0.8V21v-1.6l1.3,0.7l1.3,0.8L128.2,21.8z M128.2,22.1l1.3-0.7
			V23v1.5l-1.3-0.8l-1.3-0.7L128.2,22.1z M128.2,25.5l-1.3,0.8v-1.5v-1.6l1.3,0.7l1.3,0.8L128.2,25.5z"/>
		<path class="st0" d="M132,10.8l1.3-0.7v1.6v1.5l-1.3-0.8l-1.3-0.7L132,10.8z M132,14.3l-1.3,0.8v-1.5V12l1.3,0.7l1.3,0.8L132,14.3
			z M132,14.6l1.3-0.7v1.6V17l-1.3-0.8l-1.3-0.7L132,14.6z M132,18l-1.3,0.8v-1.5v-1.6l1.3,0.7l1.3,0.8L132,18z M132,18.3l1.3-0.7
			v1.6v1.5l-1.3-0.8l-1.3-0.7L132,18.3z M132,21.8l-1.3,0.8V21v-1.6l1.3,0.7l1.3,0.8L132,21.8z M132,22.1l1.3-0.7V23v1.5l-1.3-0.8
			l-1.3-0.7L132,22.1z M132,25.5l-1.3,0.8v-1.5v-1.6L132,24l1.3,0.8L132,25.5z"/>
		<path class="st0" d="M135.9,12.7l1.3-0.7v1.6V15l-1.3-0.8l-1.3-0.7L135.9,12.7z M135.9,16.1l-1.3,0.8v-1.5v-1.6l1.3,0.7l1.3,0.8
			L135.9,16.1z M135.9,16.5l1.3-0.7v1.6v1.5l-1.3-0.8l-1.3-0.7L135.9,16.5z M135.9,19.9l-1.3,0.8v-1.5v-1.6l1.3,0.7l1.3,0.8
			L135.9,19.9z M135.9,20.2l1.3-0.7V21v1.5l-1.3-0.8l-1.3-0.7L135.9,20.2z M135.9,23.6l-1.3,0.8v-1.5v-1.6l1.3,0.7l1.3,0.8
			L135.9,23.6z M135.9,24l1.3-0.7v1.6v1.5l-1.3-0.8l-1.3-0.7L135.9,24z M138.9,10.8l1.3-0.7v1.6v1.5l-1.3-0.8l-1.3-0.7L138.9,10.8z
			 M138.9,14.3l-1.3,0.8v-1.5V12l1.3,0.7l1.3,0.8L138.9,14.3z M138.9,18l-1.3,0.8v-1.5v-1.6l1.3,0.7l1.3,0.8L138.9,18z M138.9,18.3
			l1.3-0.7v1.6v1.5l-1.3-0.8l-1.3-0.7L138.9,18.3z M138.9,21.8l-1.3,0.8V21v-1.6l1.3,0.7l1.3,0.8L138.9,21.8z M138.9,25.8l1.3-0.7
			v1.6v1.5l-1.3-0.8l-1.3-0.7L138.9,25.8z M141.9,12.4l-1.3,0.8v-1.5v-1.6l1.3,0.7l1.3,0.8L141.9,12.4z M141.9,24l1.3-0.7v1.6v1.5
			l-1.3-0.8l-1.3-0.7L141.9,24z M141.9,27.4l-1.3,0.8v-1.5v-1.6l1.3,0.7l1.3,0.8L141.9,27.4z M144.9,14.3l-1.3,0.8v-1.5V12l1.3,0.7
			l1.3,0.8L144.9,14.3z M144.9,14.6l1.3-0.7v1.6V17l-1.3-0.8l-1.3-0.7L144.9,14.6z M144.9,18l-1.3,0.8v-1.5v-1.6l1.3,0.7l1.3,0.8
			L144.9,18z M144.9,18.3l1.3-0.7v1.6v1.5l-1.3-0.8l-1.3-0.7L144.9,18.3z M144.9,21.8l-1.3,0.8V21v-1.6l1.3,0.7l1.3,0.8L144.9,21.8z
			 M144.9,22.1l1.3-0.7V23v1.5l-1.3-0.8l-1.3-0.7L144.9,22.1z M144.9,25.5l-1.3,0.8v-1.5v-1.6l1.3,0.7l1.3,0.8L144.9,25.5z"/>
	</g>
	<g>
		<path class="st0" d="M67.5,34.9l1.3-0.8v1.6v1.5l-1.3-0.8l-1.3-0.7L67.5,34.9z M68.9,37.5l-1.3,0.7L66.3,39v-1.5V36l1.3,0.8
			L68.9,37.5z M67.5,38.7l1.3-0.8v1.6V41l-1.3-0.8l-1.3-0.7L67.5,38.7z M68.9,45.1l-1.3,0.7l-1.3,0.8v-1.5v-1.6l1.3,0.8L68.9,45.1z
			 M67.5,46.2l1.3-0.8V47v1.5l-1.3-0.8L66.2,47L67.5,46.2z M69.3,33.8l1.3-0.7l1.3-0.8v1.6v1.5l-1.3-0.8L69.3,33.8z M70.6,36.4
			l-1.3,0.8v-1.5v-1.6l1.3,0.8l1.3,0.7L70.6,36.4z M70.6,40.2L69.3,41v-1.5v-1.6l1.3,0.8l1.3,0.7L70.6,40.2z M69.3,41.3l1.3-0.7
			l1.3-0.8v1.6v1.5L70.6,42L69.3,41.3z M69.3,48.8l1.3-0.7l1.3-0.8v1.6v1.5l-1.3-0.8L69.3,48.8z M74.9,33.8l-1.3,0.7l-1.3,0.8v-1.5
			v-1.6l1.3,0.8L74.9,33.8z M73.6,34.9l1.3-0.8v1.6v1.5l-1.3-0.8l-1.3-0.7L73.6,34.9z M74.9,41.3L73.6,42l-1.3,0.8v-1.5v-1.6
			l1.3,0.8L74.9,41.3z M73.6,42.4l1.3-0.8v1.6v1.5l-1.3-0.8l-1.3-0.7L73.6,42.4z M73.6,46.2l1.3-0.8V47v1.5l-1.3-0.8L72.3,47
			L73.6,46.2z M74.9,48.8l-1.3,0.7l-1.3,0.8v-1.5v-1.6l1.3,0.8L74.9,48.8z M76.6,36.4l-1.3,0.8v-1.5v-1.6l1.3,0.8l1.3,0.7L76.6,36.4
			z M76.6,43.9l-1.3,0.8v-1.5v-1.6l1.3,0.8l1.3,0.7L76.6,43.9z M75.3,45.1l1.3-0.7l1.3-0.8v1.6v1.5l-1.3-0.8L75.3,45.1z M76.6,47.7
			l-1.3,0.8V47v-1.6l1.3,0.8l1.3,0.7L76.6,47.7z"/>
		<path class="st0" d="M80.4,34.9l1.3-0.7v1.6v1.5l-1.3-0.8l-1.3-0.7L80.4,34.9z M80.4,38.3l-1.3,0.8v-1.5V36l1.3,0.7l1.3,0.8
			L80.4,38.3z M83.5,33l1.3-0.7v1.6v1.5l-1.3-0.8l-1.3-0.7L83.5,33z M83.5,36.4l-1.3,0.8v-1.5v-1.6l1.3,0.7l1.3,0.8L83.5,36.4z
			 M83.5,36.8l1.3-0.7v1.6v1.5l-1.3-0.8l-1.3-0.7L83.5,36.8z M83.5,40.2L82.2,41v-1.5v-1.6l1.3,0.7l1.3,0.8L83.5,40.2z M83.5,40.5
			l1.3-0.7v1.6v1.5l-1.3-0.8l-1.3-0.7L83.5,40.5z M83.5,43.9l-1.3,0.8v-1.5v-1.6l1.3,0.7l1.3,0.8L83.5,43.9z M83.5,44.3l1.3-0.7v1.6
			v1.5l-1.3-0.8l-1.3-0.7L83.5,44.3z M83.5,47.7l-1.3,0.8V47v-1.6l1.3,0.7l1.3,0.8L83.5,47.7z M83.5,48l1.3-0.7v1.6v1.5l-1.3-0.8
			l-1.3-0.7L83.5,48z M86.5,34.6l-1.3,0.8v-1.6v-1.6l1.3,0.7l1.3,0.8L86.5,34.6z M86.5,34.9l1.3-0.7v1.6v1.5l-1.3-0.8l-1.3-0.7
			L86.5,34.9z M89.5,36.4l-1.3,0.8v-1.5v-1.6l1.3,0.7l1.3,0.8L89.5,36.4z"/>
		<path class="st0" d="M93.4,34.9l1.3-0.7v1.6v1.5l-1.3-0.8l-1.3-0.7L93.4,34.9z M93.4,38.3l-1.3,0.8v-1.5V36l1.3,0.7l1.3,0.8
			L93.4,38.3z M93.4,38.6l1.3-0.7v1.6V41l-1.3-0.8l-1.3-0.7L93.4,38.6z M93.4,42.1l-1.3,0.8v-1.5v-1.6l1.3,0.7l1.3,0.8L93.4,42.1z
			 M93.4,42.4l1.3-0.7v1.6v1.5L93.4,44l-1.3-0.7L93.4,42.4z M93.4,45.8l-1.3,0.8v-1.5v-1.6l1.3,0.7l1.3,0.8L93.4,45.8z M93.4,46.1
			l1.3-0.7V47v1.5l-1.3-0.8L92.1,47L93.4,46.1z M96.3,33l1.3-0.7v1.6v1.5l-1.3-0.8L95,33.9L96.3,33z M96.3,36.4L95,37.2v-1.5v-1.6
			l1.3,0.7l1.3,0.8L96.3,36.4z M96.3,48l1.3-0.7v1.6v1.5l-1.3-0.8L95,48.9L96.3,48z M99.4,34.6l-1.3,0.8v-1.6v-1.6l1.3,0.7l1.3,0.8
			L99.4,34.6z M99.4,46.1l1.3-0.7V47v1.5l-1.3-0.8L98.1,47L99.4,46.1z M99.4,49.6l-1.3,0.8v-1.5v-1.6l1.3,0.7l1.3,0.8L99.4,49.6z
			 M102.4,36.4l-1.3,0.8v-1.5v-1.6l1.3,0.7l1.3,0.8L102.4,36.4z M102.4,36.8l1.3-0.7v1.6v1.5l-1.3-0.8l-1.3-0.7L102.4,36.8z
			 M102.4,40.2l-1.3,0.8v-1.5v-1.6l1.3,0.7l1.3,0.8L102.4,40.2z M102.4,40.5l1.3-0.7v1.6v1.5l-1.3-0.8l-1.3-0.7L102.4,40.5z
			 M102.4,43.9l-1.3,0.8v-1.5v-1.6l1.3,0.7l1.3,0.8L102.4,43.9z M102.4,44.3l1.3-0.7v1.6v1.5l-1.3-0.8l-1.3-0.7L102.4,44.3z
			 M102.4,47.7l-1.3,0.8V47v-1.6l1.3,0.7l1.3,0.8L102.4,47.7z"/>
		<path class="st0" d="M106.3,34.9l1.3-0.7v1.6v1.5l-1.3-0.8l-1.3-0.7L106.3,34.9z M106.3,38.3l-1.3,0.8v-1.5V36l1.3,0.7l1.3,0.8
			L106.3,38.3z M106.3,38.6l1.3-0.7v1.6V41l-1.3-0.8l-1.3-0.7L106.3,38.6z M106.3,42.1l-1.3,0.8v-1.5v-1.6l1.3,0.7l1.3,0.8
			L106.3,42.1z M106.3,42.4l1.3-0.7v1.6v1.5l-1.3-0.8l-1.3-0.7L106.3,42.4z M106.3,45.8l-1.3,0.8v-1.5v-1.6l1.3,0.7l1.3,0.8
			L106.3,45.8z M106.3,46.1l1.3-0.7V47v1.5l-1.3-0.8L105,47L106.3,46.1z M106.3,49.6l-1.3,0.8v-1.5v-1.6l1.3,0.7l1.3,0.8L106.3,49.6
			z M109.2,33l1.3-0.7v1.6v1.5l-1.3-0.8l-1.3-0.7L109.2,33z M109.2,36.4l-1.3,0.8v-1.5v-1.6l1.3,0.7l1.3,0.8L109.2,36.4z
			 M109.2,40.5l1.3-0.7v1.6v1.5l-1.3-0.8l-1.3-0.7L109.2,40.5z M109.2,43.9l-1.3,0.8v-1.5v-1.6l1.3,0.7l1.3,0.8L109.2,43.9z
			 M112.2,34.6l-1.3,0.8v-1.6v-1.6l1.3,0.7l1.3,0.8L112.2,34.6z M112.2,38.6l1.3-0.7v1.6V41l-1.3-0.8l-1.3-0.7L112.2,38.6z
			 M112.2,42.1l-1.3,0.8v-1.5v-1.6l1.3,0.7l1.3,0.8L112.2,42.1z M112.2,42.4l1.3-0.7v1.6v1.5l-1.3-0.8l-1.3-0.7L112.2,42.4z
			 M115.3,36.4l-1.3,0.8v-1.5v-1.6l1.3,0.7l1.3,0.8L115.3,36.4z M115.3,36.8l1.3-0.7v1.6v1.5l-1.3-0.8l-1.3-0.7L115.3,36.8z
			 M115.3,40.2L114,41v-1.5v-1.6l1.3,0.7l1.3,0.8L115.3,40.2z M115.3,43.9l-1.3,0.8v-1.5v-1.6l1.3,0.7l1.3,0.8L115.3,43.9z
			 M115.3,44.3l1.3-0.7v1.6v1.5l-1.3-0.8l-1.3-0.7L115.3,44.3z M115.3,47.7l-1.3,0.8V47v-1.6l1.3,0.7l1.3,0.8L115.3,47.7z"/>
		<path class="st0" d="M119.2,33l1.3-0.7v1.6v1.5l-1.3-0.8l-1.3-0.7L119.2,33z M119.2,36.4l-1.3,0.8v-1.5v-1.6l1.3,0.7l1.3,0.8
			L119.2,36.4z M119.2,36.8l1.3-0.7v1.6v1.5l-1.3-0.8l-1.3-0.7L119.2,36.8z M119.2,40.2l-1.3,0.8v-1.5v-1.6l1.3,0.7l1.3,0.8
			L119.2,40.2z M119.2,40.5l1.3-0.7v1.6v1.5l-1.3-0.8l-1.3-0.7L119.2,40.5z M119.2,43.9l-1.3,0.8v-1.5v-1.6l1.3,0.7l1.3,0.8
			L119.2,43.9z M119.2,44.3l1.3-0.7v1.6v1.5l-1.3-0.8l-1.3-0.7L119.2,44.3z M119.2,47.7l-1.3,0.8V47v-1.6l1.3,0.7l1.3,0.8
			L119.2,47.7z"/>
		<path class="st0" d="M123,34.9l1.3-0.7v1.6v1.5l-1.3-0.8l-1.3-0.7L123,34.9z M123,38.3l-1.3,0.8v-1.5V36l1.3,0.7l1.3,0.8L123,38.3
			z M123,38.6l1.3-0.7v1.6V41l-1.3-0.8l-1.3-0.7L123,38.6z M123,42.4l1.3-0.7v1.6v1.5L123,44l-1.3-0.7L123,42.4z M123,45.8l-1.3,0.8
			v-1.5v-1.6l1.3,0.7l1.3,0.8L123,45.8z M123,46.1l1.3-0.7V47v1.5l-1.3-0.8l-1.3-0.7L123,46.1z M126,33l1.3-0.7v1.6v1.5l-1.3-0.8
			l-1.3-0.7L126,33z M126,36.4l-1.3,0.8v-1.5v-1.6l1.3,0.7l1.3,0.8L126,36.4z M126,40.2l-1.3,0.8v-1.5v-1.6l1.3,0.7l1.3,0.8
			L126,40.2z M126,43.9l-1.3,0.8v-1.5v-1.6l1.3,0.7l1.3,0.8L126,43.9z M126,48l1.3-0.7v1.6v1.5l-1.3-0.8l-1.3-0.7L126,48z M129,34.6
			l-1.3,0.8v-1.6v-1.6L129,33l1.3,0.8L129,34.6z M129,34.9l1.3-0.7v1.6v1.5l-1.3-0.8l-1.3-0.7L129,34.9z M129,46.1l1.3-0.7V47v1.5
			l-1.3-0.8l-1.3-0.7L129,46.1z M129,49.6l-1.3,0.8v-1.5v-1.6L129,48l1.3,0.8L129,49.6z M132,36.4l-1.3,0.8v-1.5v-1.6l1.3,0.7
			l1.3,0.8L132,36.4z M132,47.7l-1.3,0.8V47v-1.6l1.3,0.7l1.3,0.8L132,47.7z"/>
		<path class="st0" d="M135.9,34.9l1.3-0.8v1.6v1.5l-1.3-0.8l-1.3-0.7L135.9,34.9z M137.3,37.5l-1.3,0.7l-1.3,0.8v-1.5V36l1.3,0.8
			L137.3,37.5z M135.9,38.7l1.3-0.8v1.6V41l-1.3-0.8l-1.3-0.7L135.9,38.7z M137.3,45.1l-1.3,0.7l-1.3,0.8v-1.5v-1.6l1.3,0.8
			L137.3,45.1z M135.9,46.2l1.3-0.8V47v1.5l-1.3-0.8l-1.3-0.7L135.9,46.2z M137.6,33.8l1.3-0.7l1.3-0.8v1.6v1.5l-1.3-0.8L137.6,33.8
			z M138.9,36.4l-1.3,0.8v-1.5v-1.6l1.3,0.8l1.3,0.7L138.9,36.4z M138.9,40.2l-1.3,0.8v-1.5v-1.6l1.3,0.8l1.3,0.7L138.9,40.2z
			 M137.6,41.3l1.3-0.7l1.3-0.8v1.6v1.5l-1.3-0.8L137.6,41.3z M137.6,48.8l1.3-0.7l1.3-0.8v1.6v1.5l-1.3-0.8L137.6,48.8z
			 M143.2,33.8l-1.3,0.7l-1.3,0.8v-1.5v-1.6l1.3,0.8L143.2,33.8z M141.9,34.9l1.3-0.8v1.6v1.5l-1.3-0.8l-1.3-0.7L141.9,34.9z
			 M143.2,41.3l-1.3,0.7l-1.3,0.8v-1.5v-1.6l1.3,0.8L143.2,41.3z M141.9,42.4l1.3-0.8v1.6v1.5l-1.3-0.8l-1.3-0.7L141.9,42.4z
			 M141.9,46.2l1.3-0.8V47v1.5l-1.3-0.8l-1.3-0.7L141.9,46.2z M143.2,48.8l-1.3,0.7l-1.3,0.8v-1.5v-1.6l1.3,0.8L143.2,48.8z
			 M144.9,36.4l-1.3,0.8v-1.5v-1.6l1.3,0.8l1.3,0.7L144.9,36.4z M144.9,43.9l-1.3,0.8v-1.5v-1.6l1.3,0.8l1.3,0.7L144.9,43.9z
			 M143.6,45.1l1.3-0.7l1.3-0.8v1.6v1.5l-1.3-0.8L143.6,45.1z M144.9,47.7l-1.3,0.8V47v-1.6l1.3,0.8l1.3,0.7L144.9,47.7z"/>
	</g>
</g>
</svg>
