<?xml version="1.0" encoding="utf-8"?>
<!-- Generator: Adobe Illustrator 26.0.3, SVG Export Plug-In . SVG Version: 6.00 Build 0)  -->
<svg version="1.1" id="Слой_1" xmlns="http://www.w3.org/2000/svg" xmlns:xlink="http://www.w3.org/1999/xlink" x="0px" y="0px"
	 viewBox="0 0 420 420" style="enable-background:new 0 0 420 420;" xml:space="preserve">
<style type="text/css">
	.st0{fill:#431407;}
	.st1{fill:#DC2626;}
	.st2{fill:#FFFFFF;}
	.st3{fill:#FECACA;}
	.st4{fill:#EF4444;}
	.st5{fill:#7F1D1D;}
</style>
<rect x="-6" y="-8.7" class="st0" width="432" height="437.5"/>
<g>
	<g>
		<g>
			<g>
				<path class="st1" d="M164.4,187.8c-1.2,45.5,34.9,80.1,80.4,81.2s83.3-34.8,84.5-80.3c0.8-31.9-17.3-62-41.3-73.6l-41.1,73.2
					C246.9,188.2,164.5,187.2,164.4,187.8z"/>
			</g>
		</g>
		<g>
			<path class="st2" d="M67,197.4l-1.1,15.5l-11.1-0.7v-5.9l-4.2-0.2l-0.7,27l5.9-0.2l0.2-7.4l11.4,0.6l-0.7,12l-4.8,5.2l-23.3,0.5
				l-1.6-41.3l4.8-5.8L67,197.4z"/>
			<path class="st2" d="M70.1,203.2l6.1-5.8H101l-1.2,41.5l-6.4,4.6L71.2,244L70.1,203.2z M83.3,206l-0.5,28.7l4.9-0.1l0.4-28.5
				L83.3,206z"/>
			<path class="st2" d="M108.5,196.6l25,0.5l-1.1,13.4l-11.1-0.7v-3.9l-4.3-0.2l-0.2,7.4l16.2,11.2v2.3l0.4,11.6l-4.8,5.7l-25-0.5
				l1.1-13.4l11.1,0.7v3.9l4.2,0.2l0.2-4.1l-15.8-12.3l-0.7-16.1L108.5,196.6z"/>
			<path class="st2" d="M134.5,201.1l3.8-3.7h25.4l-0.7,10.5l-6.8-0.2l-0.8,35.7l-12.6,0.3l0.1-35.9l-8.2,0.2L134.5,201.1z"/>
			<path class="st2" d="M181.9,203.2l6.1-5.8h24.8l-1.2,41.5l-6.4,4.5L183,244L181.9,203.2z M195.1,206.1l-0.5,28.7l4.9-0.1
				l0.4-28.5L195.1,206.1z"/>
			<path class="st2" d="M220.3,197.1l25,0.5l-0.7,14.1l-11.4-0.7v-4.6l-4.3-0.2l-0.3,11.8l13.3-0.1l-0.3,10.7h-13.4l-0.4,15.3
				l-11,0.2l-1.4-41.4L220.3,197.1z"/>
		</g>
		<g>
			<g>
				<path class="st3" d="M257.1,191.8l13.5-22l8.9-2.2l30.9,20.4l0.5,8.2l-5.9,9.9l-5.9,10.1L257.1,191.8z M272.1,184.7l25.1,16.3
					l2.6-4.5l-25-16L272.1,184.7z"/>
				<path class="st3" d="M277.9,157.5l4.9-7.6l9.2-14.3l11.6,8.1l-6.7,9.5l-3.6-1.9l-2.6,3.6l8.8,5.8l5.5-8.9l9.7,5.6l-5.9,9.5
					l7,4.1l2.1-3.9l-3.4-2.5l5.5-9.6l9.1,5.1l1,5.4l-12.7,20.9l-2.7-1.8l-34.5-19.6L277.9,157.5z"/>
				<path class="st3" d="M347.4,137.5l-13.5,21.7l-40.5-26.5l6.6-10.4l33.9,20.3l1.3-3.1l-3.5-2.2l5.6-10.3l8.6,4.5L347.4,137.5z"/>
				<path class="st3" d="M324.1,83.6l44.7,19.7l-7.5,12l-11-5.2l-1.9,4.5l8.7,7.5l-5.9,10.8l-32.8-28.6l-1.7-8L324.1,83.6z
					 M330.9,100.2l10.2,8.6l1.5-2.5L330.9,100.2z"/>
				<path class="st3" d="M328.4,75.7l8.2-12l16.8,5.7l-12.9-12.1l7.8-12.8l19.5,25.4L382.6,80l-6.7,11.3l-14.1-8.8L328.4,75.7z"/>
			</g>
		</g>
	</g>
	<path class="st4" d="M152.7,100.2c-18.2,19-30.9,47.5-32,77.9l112.1,2.9L152.7,100.2z"/>
	<g>
		<polygon class="st5" points="185.6,119.3 260.8,145 268.5,131.5 161.9,95.1 		"/>
		<polygon class="st5" points="216.3,150.8 250.8,162.6 258.5,149.1 192.6,126.5 		"/>
		<path class="st5" d="M173.2,52.2l117.6,40.2l7.7-13.5l-105.2-36C186.3,45.6,179.6,48.7,173.2,52.2z"/>
		<path class="st5" d="M200.1,40.5l100.6,34.3l7.7-13.5L229,34.2C219.1,35.3,209.5,37.4,200.1,40.5z"/>
		<path class="st5" d="M248.2,33.3c-2.6-0.1-5.2-0.1-7.7,0l70.3,24l4.5-8C295.5,38.6,272.1,33.9,248.2,33.3z"/>
		<path class="st5" d="M142.1,74.8l12.8,13l115.9,39.6l7.7-13.5L148.1,69.5C146.1,71.2,144,73,142.1,74.8z"/>
		<polygon class="st5" points="242.4,177.4 248.5,166.6 223.4,158 		"/>
		<path class="st5" d="M152.3,66l128.5,43.9l7.7-13.5L168,55.3C162.4,58.5,157.2,62.2,152.3,66z"/>
	</g>
</g>
</svg>
