<?xml version="1.0" encoding="utf-8"?>
<!-- Generator: Adobe Illustrator 26.0.1, SVG Export Plug-In . SVG Version: 6.00 Build 0)  -->
<svg version="1.1" id="Слой_1" xmlns="http://www.w3.org/2000/svg" xmlns:xlink="http://www.w3.org/1999/xlink" x="0px" y="0px"
	 viewBox="0 0 174.1 135" style="enable-background:new 0 0 174.1 135;" xml:space="preserve">
<style type="text/css">
	.st0{fill-rule:evenodd;clip-rule:evenodd;fill:#FFFFFF;}
	.st1{fill-rule:evenodd;clip-rule:evenodd;fill:#18181B;}
</style>
<g>
	<path class="st0" d="M175,109.5c0.3,0,0-0.7,0.6-0.5c1.4,1.4,2.5,3.2,4,4.5c0.1,2.3,3.2,3.6,3.6,5.4c0.1,0.5-0.3,1.4-0.5,1.3
		c-0.6-0.1-1.5-2.2-1.9-2.8C179.1,114.6,176.8,111.9,175,109.5z"/>
	<path class="st0" d="M173.8,110c0.1,0,0.2,0.1,0.3,0.3c0,1-1.3,1.5-2,2.1c-1.5,1.3-3.2,2.5-4.7,3.9c-0.7,0.7-1.1,1.7-2.2,1.8
		c-0.1-1.1,1-1.6,1.6-2.2C169,113.8,171.5,111.8,173.8,110z"/>
	<path class="st0" d="M167,110.3c-2.7,0.9-4.7,2.4-7.5,3.2c0.1-0.6,0-1.3-0.2-1.9C161.9,111.2,164.3,110.6,167,110.3z"/>
	<path class="st0" d="M175.3,111.7c-3.2,2.3-6.3,4.8-9.2,7.5c-0.2-1.3,1.1-1.6,1.8-2.1c2.2-1.7,4.6-3.8,6.9-5.4c0-0.1,0.2,0,0.2-0.2
		C175,111.5,175.1,111.7,175.3,111.7z"/>
	<path class="st0" d="M176,113c-2.9,2.1-5.6,4.5-8.2,7c-0.3,0.3-0.5,1-1.1,0.8c-0.6-0.8,0.2-1,0.5-1.3c2.5-2.3,5.7-4.6,8.2-7
		C175.8,112.3,175.7,112.9,176,113z"/>
	<path class="st0" d="M158.7,111.8c0.4,0.6,0.3,2.5-0.7,2.5C157.5,113.2,157.7,111.9,158.7,111.8z"/>
	<path class="st0" d="M176.6,113.9c0.4,0.8-0.4,1.1-0.8,1.3c-2.9,2.3-5.7,4.7-8.3,7.3c-0.8-1.1,0.8-2.4,1.5-3
		c2.3-1.9,5.5-3.9,7.3-5.8C176.5,113.7,176.6,113.8,176.6,113.9z"/>
	<path class="st0" d="M156.8,112.5c0.2,0.9,0.3,2.4-0.9,2.3c0.1-0.6,0.1-1.3,0-1.9C156.2,112.7,156.7,112.8,156.8,112.5z"/>
	<path class="st0" d="M177.3,115.1c0.3,0,0.2,0.4,0.5,0.4c-2.6,2.3-4.5,5.3-8.3,6.6c0.3-0.8,0.9-1.4,1.6-1.9
		C173.3,118.6,175.3,116.9,177.3,115.1z"/>
	<path class="st0" d="M154.8,113.3c0.2,0.8,0.4,2.4-0.7,2.3c0-0.6,0-1.3,0-1.9C154.3,113.6,154.7,113.6,154.8,113.3z"/>
	<path class="st0" d="M152.8,114.3c0.4,0.4,0.6,2.4-0.3,2.2C152.6,115.8,152.2,114.6,152.8,114.3z"/>
	<path class="st0" d="M150.3,115.7c0.2,0.7,0.2,1.5-0.1,2.1C149.8,117.1,149.8,116,150.3,115.7z"/>
	<path class="st0" d="M148.8,116.4c0.3,0.7,0.2,1.4-0.1,2C148.6,117.8,148.6,117.1,148.8,116.4z"/>
	<path class="st0" d="M144.4,118.9c0.3,0.3,0.4,1.3-0.2,1.1c0-0.2-0.1-0.5-0.3-0.5C143.9,119.2,144.4,119.3,144.4,118.9z"/>
	<path class="st0" d="M167.9,113c0,0.4-0.7,1.3-1.4,1C166.8,113.5,167.6,113.4,167.9,113z"/>
	<path class="st0" d="M178.6,125.9c0.2,0.7-1,1-1.6,1.3C177,126.7,178.2,126.4,178.6,125.9z"/>
	<path class="st0" d="M175,109.5c0.3,0,0-0.7,0.6-0.5c1.4,1.4,2.5,3.2,4,4.5c0.1,2.3,3.2,3.6,3.6,5.4c0.1,0.5-0.3,1.4-0.5,1.3
		c-0.6-0.1-1.5-2.2-1.9-2.8C179.1,114.6,176.8,111.9,175,109.5z"/>
	<path class="st0" d="M173.8,110c0.1,0,0.2,0.1,0.3,0.3c0,1-1.3,1.5-2,2.1c-1.5,1.3-3.2,2.5-4.7,3.9c-0.7,0.7-1.1,1.7-2.2,1.8
		c-0.1-1.1,1-1.6,1.6-2.2C169,113.8,171.5,111.8,173.8,110z"/>
	<path class="st0" d="M167,110.3c-2.7,0.9-4.7,2.4-7.5,3.2c0.1-0.6,0-1.3-0.2-1.9C161.9,111.2,164.3,110.6,167,110.3z"/>
	<path class="st0" d="M175.3,111.7c-3.2,2.3-6.3,4.8-9.2,7.5c-0.2-1.3,1.1-1.6,1.8-2.1c2.2-1.7,4.6-3.8,6.9-5.4c0-0.1,0.2,0,0.2-0.2
		C175,111.5,175.1,111.7,175.3,111.7z"/>
	<path class="st0" d="M176,113c-2.9,2.1-5.6,4.5-8.2,7c-0.3,0.3-0.5,1-1.1,0.8c-0.6-0.8,0.2-1,0.5-1.3c2.5-2.3,5.7-4.6,8.2-7
		C175.8,112.3,175.7,112.9,176,113z"/>
	<path class="st0" d="M158.7,111.8c0.4,0.6,0.3,2.5-0.7,2.5C157.5,113.2,157.7,111.9,158.7,111.8z"/>
	<path class="st0" d="M176.6,113.9c0.4,0.8-0.4,1.1-0.8,1.3c-2.9,2.3-5.7,4.7-8.3,7.3c-0.8-1.1,0.8-2.4,1.5-3
		c2.3-1.9,5.5-3.9,7.3-5.8C176.5,113.7,176.6,113.8,176.6,113.9z"/>
	<path class="st0" d="M156.8,112.5c0.2,0.9,0.3,2.4-0.9,2.3c0.1-0.6,0.1-1.3,0-1.9C156.2,112.7,156.7,112.8,156.8,112.5z"/>
	<path class="st0" d="M177.3,115.1c0.3,0,0.2,0.4,0.5,0.4c-2.6,2.3-4.5,5.3-8.3,6.6c0.3-0.8,0.9-1.4,1.6-1.9
		C173.3,118.6,175.3,116.9,177.3,115.1z"/>
	<path class="st0" d="M154.8,113.3c0.2,0.8,0.4,2.4-0.7,2.3c0-0.6,0-1.3,0-1.9C154.3,113.6,154.7,113.6,154.8,113.3z"/>
	<path class="st0" d="M152.8,114.3c0.4,0.4,0.6,2.4-0.3,2.2C152.6,115.8,152.2,114.6,152.8,114.3z"/>
	<path class="st0" d="M150.3,115.7c0.2,0.7,0.2,1.5-0.1,2.1C149.8,117.1,149.8,116,150.3,115.7z"/>
	<path class="st0" d="M148.8,116.4c0.3,0.7,0.2,1.4-0.1,2C148.6,117.8,148.6,117.1,148.8,116.4z"/>
	<path class="st0" d="M144.4,118.9c0.3,0.3,0.4,1.3-0.2,1.1c0-0.2-0.1-0.5-0.3-0.5C143.9,119.2,144.4,119.3,144.4,118.9z"/>
	<path class="st0" d="M167.9,113c0,0.4-0.7,1.3-1.4,1C166.8,113.5,167.6,113.4,167.9,113z"/>
	<path class="st0" d="M178.6,125.9c0.2,0.7-1,1-1.6,1.3C177,126.7,178.2,126.4,178.6,125.9z"/>
	<path class="st1" d="M15.3,106.1c-0.5,2-3.1,4.7-1.8,6.6c1.4,2.3,11.8-0.4,16.2-0.4c7,0,14.2,0.7,21,2.3c0.5-1.3,1.1-0.7,1.6-0.7
		c2.5,0,5,0,7.5,0.4c4.5,0.7,9,2,14.2,2.5c12.9,1.3,27.1,1.8,39.3,3.4c2.7,0.4,5.6,0.4,7.7,0.9c1.4,0.4,2.7,1.3,4.1,1.8
		c1.4,0.5,2.7,1.6,4.5,1.4c2.7-0.7,5.2-1.8,7.4-3.2c2.9-1.4,5.6-2.3,7.7-3.2c3.4-2,6.8-4.1,10-6.5c3.2-2.3,8.1-5,8.1-8.6
		c0-0.4-0.4-0.4-0.4-0.7c-0.2,0-0.4,0-0.2-0.2c2-9,0.2-16-1.1-21.9c-0.5-2.3-0.9-4.8-1.4-7.2c-2.2-8.6-5.4-16.9-9.5-24.8
		c-2-3.9-1.8-9.9-3.9-13.3c-0.4-0.5-1.4-1.1-2.3-2c-0.9-0.9-0.9-2-1.4-2.7c-2-2-5.6-3.1-8.6-4.1c-15.6-6.6-34.3-8.6-49.9-15.3
		c-4.7-2-9.5-3.6-14.4-4.8c-1.8-0.7-3.8-1.1-5.7-0.9c-4.5,0.9-10.2,5.2-14.7,7.7c-7.7,4.5-12.6,9.2-20.6,12.4
		c-2.2,0.9-8.4,1.8-9.9,3.1c-1.3,2.2-2.2,4.3-2.7,6.8c-0.2,1.4,0.9,2.5,1.1,3.8c0,3.6-0.4,7.2-0.9,10.6c-1.3,10.6-1.6,21.2-1.1,31.8
		c0.2,6.3,0.5,11.8,0.2,18.8C15.5,101.6,15.5,103.7,15.3,106.1z"/>
	<path class="st0" d="M153.7,103.2c0,0.7,1.4,0.2,0.9,1.4c-3.4,2.9-7.5,5-10.8,7.9c-5-0.2-8.6,6.3-12.6,7c-1.3,0.2-3.1-0.9-2.9-1.4
		c0.4-1.3,5.2-2.9,6.6-3.6C141.6,111.3,147.9,106.6,153.7,103.2z"/>
	<path class="st0" d="M152.8,100.5c-0.2,0.4-0.4,0.5-0.7,0.7c-2.3,0-3.1-3.1-4.1-4.8c-2.3-3.6-4.7-7.7-7.5-11.3
		c-1.4-1.8-3.6-2.9-3.6-5.2c2.5,0,3.4,2.5,4.7,4.1C145.4,88.8,149.2,94.9,152.8,100.5z"/>
	<path class="st0" d="M153.7,85.4c-1.4-6.3-4.3-10.9-5.6-17.2c1.4,0.2,2.9,0.2,4.3-0.2C152.8,73.8,153.5,79.3,153.7,85.4z"/>
	<path class="st0" d="M148.6,103.2c-4.1-7.7-10-15.1-14.7-21.9c2.7-0.2,3.2,2.7,4.3,4.3c3.2,5.2,7.4,10.9,10.6,16.3
		c0.4,0,0,0.5,0.5,0.5C149.2,102.6,148.8,102.8,148.6,103.2z"/>
	<path class="st0" d="M145.8,104.6c-4.3-6.5-8.4-13.5-13.6-19.6c-0.5-0.7-2-1.3-1.4-2.7c2-1.3,2.3,0.5,2.9,1.4
		c4.5,5.9,9,13.5,13.6,19.6C147.2,104.3,146.1,104.1,145.8,104.6z"/>
	<path class="st0" d="M152,66.8c-1.4,0.7-5.6,0.2-5.2-2.2C149.2,63.9,152,64.4,152,66.8z"/>
	<path class="st0" d="M143.6,105.9c-1.8,0.7-2.3-1.3-2.7-2c-4.3-7-9.2-13.6-14.4-19.9c2.5-1.4,5,2.3,6.3,4.1
		c3.8,5.4,7.5,12.9,11.3,17.2C144,105.5,143.8,105.7,143.6,105.9z"/>
	<path class="st0" d="M150.8,62.4c-2,0.4-5.4,0.2-4.8-2.3c1.4,0.2,2.9,0.4,4.1,0.4C150.4,61,150.2,62.1,150.8,62.4z"/>
	<path class="st0" d="M145.4,82.4c0,0.5-0.4,0.5-0.4,0.4c-4.1-0.5-4.1-4.8-7.7-5.9c-1.1,0-0.7,1.1-1.4,1.3c-2.3-0.5-4.3,1.8-5.9,0.2
		c-0.9,0.5,0.2,1.3-0.5,1.6c-10,3.8-24,3.9-30.9,10.8c-1.6,0.2-3.2,0.2-4.8,0c-3.8-7.4-4.3-17.6-11.8-21.4c-0.2-1.8-1.4-2.7-2-4.1
		c0.4-1.1,0.5-2.2,0.5-3.2c12.4-4.8,19.9-14.4,30-21.4c5.9-1.4,12.7-2,18.3-3.8c5.4,5.2,6.8,14,9,22.1
		C139.8,66.8,142.5,74.6,145.4,82.4z M127.6,73c0.2,1.4,0.7,2.5,3.4,1.8C133.9,72,130.1,70.5,127.6,73z M121.7,65
		c1.4-0.4,2.5-1.8,2.3-3.2l0,0C123.1,56.5,115.6,66.6,121.7,65L121.7,65z M117,70.3c0.4-0.9-0.4-0.7-0.4-1.3c-1.3,0-2.5,0.5-3.4,1.6
		c-1.1,3.9,4.3,3.1,5.6,0.2C119.2,69.8,117.9,70,117,70.3L117,70.3z M114.9,56.5c0.2,1.1,2,1.1,3.4,0.4c0.2-0.2,0.2-0.5,0.4-0.5
		C119.7,53.3,115.1,54.2,114.9,56.5L114.9,56.5z M113.8,44.7c1.4,1.8,2.5,3.9,5,4.7C119.2,45.9,116.1,45.8,113.8,44.7L113.8,44.7z
		 M110.8,47.4c0.2,3.8,3.1,4.8,5.2,6.6C116.7,50.6,113.5,48.6,110.8,47.4z M106.8,49.3c1.1,3.2,3.2,6.1,6.1,8.1
		C113.1,53.7,110.6,50.2,106.8,49.3L106.8,49.3z M105.6,52.8c0,3.4,2.3,4.8,3.8,6.8c0.4,0,0.7-0.4,0.9-0.7
		C108.8,56.9,107.4,54.5,105.6,52.8L105.6,52.8z M97.1,68.5c-1.3,0.9-1.6,2.7-0.5,3.2c0.9,0,1.6-0.4,2.3-0.7
		C99.8,69.4,99.6,67.5,97.1,68.5L97.1,68.5z M94.1,65.7c1.8,0,2.3-1.6,3.8-2.5C101.3,54.2,88,65.7,94.1,65.7L94.1,65.7z M88,62.8
		c0.4,2,2.5,2.3,3.9,3.1C91.2,64.2,90.8,62.3,88,62.8L88,62.8z M85.1,64.1c0.9,2.2,2.9,3.9,5,4.7C90.5,66.4,87.4,64.1,85.1,64.1
		L85.1,64.1z"/>
	<path class="st0" d="M140.9,107c0,0.7-0.9,0.4-1.1,0.9c-4.5-6.3-10.8-10.9-12.7-19.6c1.6,0.9,2.9,2.3,3.8,3.9
		C133.9,96.9,137.1,102.8,140.9,107z"/>
	<path class="st0" d="M149.4,58c-1.8,0.4-5.4,0.4-5-2.2c1.3,0.4,2.9,0.4,4.1,0.4C149,56.7,148.8,57.6,149.4,58z"/>
	<path class="st0" d="M137.7,108.6c-0.4,0.7-1.4,0.9-2,1.4c-3.1-3.8-6.8-7.9-9.9-11.8c0-0.2-0.2-0.4-0.2-0.5c-2-3.8-2-8.8-5.2-11.8
		c-0.2,4.1,2.9,6.5,2.7,9.9c0.7,1.4,2.5,2.9,1.6,5.2c0.7,0,1.1-0.5,1.1-1.3c3.1,3.4,5,7.5,8.3,10.8c-2.3,1.1-4.5,3.1-6.6,3.4
		c-3.1-0.5-5.9-1.4-8.4-2.9c-1.1-0.7-0.9-2.2-1.8-2.3c0.2-0.5,1.1-0.4,1.1-0.9c-1.4-7.4-5.6-12.2-7.9-18.8c1.1,0,1.3-0.7,2.3-0.7
		c2.3,7.2,5.6,13.5,8.1,20.3c1.3-4.1-0.9-7.7-2.3-10.9c-1.4-3.2-3.2-6.6-4.7-9.5c0.5-0.9,2-0.9,3.1-1.3c1.8,5.9,3.9,11.5,6.5,17.2
		c-0.4-6.1-2.3-12-5.6-17.2c2.3-1.3,5-1.8,7.4-2.9c0.7,2.2,1.1,4.3,1.1,6.5c-0.5,1.4-0.5-0.7-2,0c-0.2,2.9,3.9,3.6,3.4,7.7
		c0.5,0,0.7-0.5,0.7-0.9C132.1,100.1,134.1,105,137.7,108.6z M125.1,104.4c1.3,2.7,3.4,5,6.1,6.5
		C129.6,108.4,127.5,106.2,125.1,104.4z"/>
	<path class="st0" d="M147.9,53.1c-0.9,0.7-5.4,0.9-4.8-1.1C144.3,52.4,147.2,51.7,147.9,53.1z"/>
	<path class="st0" d="M145.2,47.2c-1.6,0.4-3.2,0.2-4.7-0.5C142,45.9,144.7,46.1,145.2,47.2z"/>
	<path class="st0" d="M143.8,43.8c-1.4,0.5-3.2,0.2-4.5-0.7C140.9,43.1,142.5,43.2,143.8,43.8z"/>
	<path class="st0" d="M139.1,33.7c-0.7,0.5-3.1,0.7-2.3-0.7c0.5,0,1.1,0,1.3-0.5C138.9,32.5,138.4,33.6,139.1,33.7z"/>
	<path class="st0" d="M119.6,115c-5.4,0.2-10.8-1.6-16.7-1.6c1.4-2,2-4.3,1.6-6.8c-2.3,1.1-2.2,4.8-2.2,6.6
		c-6.8-0.7-13.1-1.4-19.7-2.3c-0.2-0.9,3.1-3.9,4.5-5.4c6.3-0.4,11.3-1.6,14.9-5.2c4.3,2.9,7.5,6.8,12.7,8.8
		C114.9,111.6,117.4,113.6,119.6,115z M99.5,105.2c-2,0-1.6,2.3-0.4,2.3C98.9,106.2,99.6,106.1,99.5,105.2L99.5,105.2z"/>
	<path class="st0" d="M111.5,101c-0.2,0.7-0.4,0.4-0.7,0.4c-0.9-1.3-2.2-2.3-3.6-3.1c0.9-3.1-1.4-5-2.7-7c0.7-0.5,1.4-0.9,2.3-1.1
		C107.7,94,109.3,97.6,111.5,101z"/>
	<path class="st0" d="M122.8,34.3c-5.4,2-9.7,1.3-14.2,3.2s-8.1,6.3-11.7,9.3c-7,6.1-14.5,11.3-22.4,15.8c-4.3,0.2-8.6,1.3-12.6,3.2
		c-2-4.5,2.5-14.7-0.4-18.3c1.1-1.6,0.7-3.8-0.9-4.8c2.3-7,2-14.5-0.9-21.4c5-2.3,10.2-4.5,15.4-6.3c3.2,2.3,6.6,4.3,10.2,5.7
		c-2.9,1.6-6.3,2.7-9.3,4.3c-1.1,0,0-2.3-1.6-1.8c-2.9,0.5-2,2.9-2.3,3.9c-1.3,0.7-2.5,0.9-3.8,0.9c-0.5,1.3,0.9,1.1,1.8,1.1
		c-2.3,2.7,0.4,4.3,2.2,3.9c1.6-0.4,2.7-2,2.5-3.6c-0.2-0.7-0.4-1.3-0.9-1.6c4.1-0.5,9.5-5.4,13.8-5.7c2.3-0.2,6.3,2.5,8.4,3.4
		C104.8,28.7,114.5,31.9,122.8,34.3z M83.3,40.4c1.6-0.9,2.5-2.7,2-4.5C83.3,30.5,76.1,43.4,83.3,40.4L83.3,40.4z M81.7,28.2
		c-1.1,0.9-1.4,2.5-0.7,3.8C84,32.5,85.5,26.6,81.7,28.2L81.7,28.2z M69.7,43.8c3.2,1.6,7,2.5,10.6,2.3c0.2-0.2,0.4-0.4,0.4-0.5
		C77.9,44.3,73.6,41.6,69.7,43.8L69.7,43.8z M69.1,47c3.2,2,6.8,2.9,10.6,2.9c0-0.4,0.2-0.5,0.2-0.9C76.1,48.6,73.6,45.9,69.1,47
		L69.1,47z M69.7,50.4c1.4,1.6,5,1.4,7.5,2C76.5,50.1,72.5,49.9,69.7,50.4L69.7,50.4z M68.6,54.2c1.1,2,4.3,1.8,7.4,1.8
		c0-0.4,0.2-0.5,0.2-0.9C74,54.5,71.5,53.3,68.6,54.2z"/>
	<path class="st0" d="M102.5,95.8c-1.4,0-2.7-0.7-3.6-1.8c0.5-0.5,1.6,0,2.3-0.7C101.4,94.2,102.5,94.7,102.5,95.8z"/>
	<path class="st0" d="M99.8,98c-2.7,3.8-8.1,1.8-12.2,3.4c0.7-2,1.8-3.6,2.7-5.4C93,97.1,96.8,97.3,99.8,98z"/>
	<path class="st0" d="M72.9,13.8c-4.8,1.8-9.5,3.9-14.4,5.9C62.5,17.2,68.2,13.5,72.9,13.8z"/>
	<path class="st0" d="M67.9,12.6c-3.2,1.8-7.4,2.9-10.6,4.7c-1.1,0-0.9-0.9-1.1-1.6c-1.4,0.5,0.2,1.1,0,2.2
		c-9.5,5.6-18.5,11.3-30.9,14.2c6.1-5.7,14.9-8.1,22.6-12.4c2.3-1.3,4.8-3.6,7-4.5C59.1,13.3,63.6,13.6,67.9,12.6z"/>
	<path class="st0" d="M56.7,20.5c-1.8,1.4-3.8,2.3-5.9,3.1C52.8,22.1,54.6,21.2,56.7,20.5z"/>
	<path class="st0" d="M20.5,99.2c0.7-5-0.2-8.6-0.2-13.1C24.1,86.5,23.5,95.6,20.5,99.2z"/>
	<path class="st0" d="M23.2,84.5c-2.3,0-3.2-3.1-3.2-5.7C22.8,78.2,23.7,81.3,23.2,84.5z"/>
	<path class="st0" d="M23.2,75.9c-1.1,0.5-3.1-1.8-3.1-3.8C21.9,72.5,23,74.1,23.2,75.9z"/>
	<path class="st0" d="M22.7,69.1c-3.4,0.2-0.4-8.4-0.2-11.5C22.5,61.4,22.5,65.1,22.7,69.1z"/>
	<path class="st0" d="M147.4,86.9c-0.7-0.2-2.7-1.8-2-3.4C146.5,84.2,146.7,86,147.4,86.9z"/>
	<path class="st0" d="M135.9,30.1c-8.6,2.3-13.5-1.6-18.8-3.8L103.9,21C114.7,23.3,125.5,26.4,135.9,30.1z"/>
	<path class="st0" d="M116.7,107.5c-1.4,0.4-2-2.3-2.3-3.8C115.3,103.9,115.6,106.6,116.7,107.5z"/>
	<path class="st0" d="M109.5,92.6c0.2,0.4-1.8-2.3-1.4-2.9C109.2,90.1,109.2,91.5,109.5,92.6z"/>
	<path class="st0" d="M106.6,97.3c-1.3,0.7-1.3-1.6-2.3-2C105.4,94.9,105.7,96.9,106.6,97.3z"/>
	<path class="st0" d="M50.5,103c-3.9-1.1-3.6-9-4.5-14c-0.9-4.7-1.8-8.3-2.5-12.7c-2.3,0.9-0.7,4.3-0.5,5.9
		c0.9,5.6,2.3,12.2,3.6,17.6c-3.1-2.2-2.3-7.2-3.1-11.1c-0.7-3.8-1.8-7.4-3.1-10.8c-2,1.6-0.4,3.6,0,5c1.4,5.2,2.3,10.6,2.7,16
		c1.1,1.1,0.5,3.9,1.6,5c0.9-0.5,0.4-2,0.2-2.3c2.7,1.4,5.2,5.2,7.5,7.7c-4.1,0-8.3-1.8-10.9-4.8c-1.4-1.6-3.9-3.2-4.5-4.8
		c-0.4-2-0.5-3.9-0.5-5.9c-0.9-5.4-2.3-10.8-2.9-16.3C31.8,80,33.2,84.9,34,89c0.7,4.1,2,7.4,1.4,10.8c0.4,1.3,1.6,1.8,1.3,3.4
		c1.3-0.5,1.8,0,2.7,1.3c-1.3,0.2-3.2-0.9-4.5-1.1c0.7-10.2-3.2-17.4-3.1-26.6c-0.5-0.5-1.1-0.5-2,0c0.2-3.1-0.5-5.2-0.4-8.4
		c4.1,2.3,10,2.9,14,5.2c0.9-0.4-0.5-0.4,0-1.1c8.8,1.3,19.7-3.8,29.4-4.1c0.9,2.3,3.2,3.2,5,4.5c-0.4,3.8,2,5,3.2,7.4
		c-0.2,6.3,3.9,8.4,6.1,12.6c-1.6,5.2-4.8,9-5.4,15.3c-3.6,4.5-9,2.7-14.9,2.3c-3.9-0.2-7.5-0.4-10.6-0.5c-2.2-3.1-6.3-4.1-5.2-10
		c1.3,0.4,1.4,1.8,1.3,3.4c0.7,0.4,1.1-1.3,0.5-1.1c1.4,0,2.5,1.1,2.5,2.5c0,0.2,0,0.4,0,0.5c2-0.9,2,1.1,3.4,1.3
		c0.5-4.1,0.5-8.3,0-12.4c2.3-1.1,2.9,5.2,2,8.1c1.3-1.1,1.3-3.9,1.3-5.2c1.6-0.7,2.5,3.1,4.5,3.6c-0.9-2.7-2.3-5.4-4.3-7.5
		c0-6.5-1.4-11.5-1.4-17.9c-1.6,0.5-1.3,2.3-1.4,3.1c-0.5,4.3,1.8,8.8,0.7,12.7c-2,0.9-1.3-2-1.4-2.9c-0.4-3.6-1.1-8.6-1.8-12
		c-2.2,2-1.4,5.6-1.1,7.9c0.5,6.8,1.6,14.4,2.5,21.2c-2.7-1.4-1.8-5.9-2.2-9.9c-0.5-6.6-2-13.3-2.9-19.6c-2.7,1.3-1.3,4.5-1.1,6.3
		c0.7,6.3,2,13.3,3.1,19c-0.7,1.1-1.6-1.1-2.3-1.4c0-6.6-0.7-13.3-2.3-19.6c-0.4-2-0.9-3.8-1.8-5.6c-1.1,3.9,0.4,7.9,0.9,11.7
		S51,94,51.5,97.8c-2.3-7-2.9-15.4-4.8-22.6c-2,1.8-0.7,4.3-0.5,5.9c0.9,5.4,2.3,11.3,2.9,16.9C49.6,98.9,49.4,101.4,50.5,103z
		 M78.6,100.1c-0.2-3.2-1.4-6.3-3.4-8.6c-1.1-1.6-2-4.1-4.5-4.3c-1.1,1.6,0.7,2.7,1.3,3.4c1.6,2.2,2.9,4.5,4.1,7
		c0.5,1.3,0.9,2.9,2.3,3.4C78.6,101,78.6,100.7,78.6,100.1z M76.5,81.6c0.4,0,0.5,0.4,0.5-0.4c-1.8-1.8-0.9-6.1-3.8-6.8
		C73.6,77.5,75.6,79,76.5,81.6L76.5,81.6z M71.6,101c-0.4-2.7-1.4-5.4-3.4-7.4c-1.3-1.6-2.3-3.8-4.7-4.1c0,2.5,2,4.1,3.4,6.1
		c1.8,1.8,3.1,3.9,3.9,6.3C71.1,101.4,71.6,101.4,71.6,101L71.6,101z M67.2,79.1c-0.4,2.3,3.6,2.9,5,2.3
		C70.2,80.8,70.4,78.2,67.2,79.1L67.2,79.1z M66.6,75c0.5,2.3,3.1,2.7,5,3.8C71.5,76.1,69.5,75,66.6,75L66.6,75z M37,75.5
		c-1.8,4.8-0.4,9,0.4,13.1c0.4,2,0.7,4.1,1.1,6.1c0.4,2,0.9,3.8,1.8,5.6C40.8,91.9,39.7,83.4,37,75.5L37,75.5z"/>
	<path class="st0" d="M58.2,47.2c-3.6-4.1-6.6-8.6-11.5-11.7c-0.4,1.8,1.6,2.5,2.5,3.6l3.1,3.4c2.3,2.2,4.1,4.8,5,7.9
		c-0.9,0.7-1.4-0.5-1.8-1.1C51.9,45.4,48,40,42.6,37.7c4.7,5.6,9.9,10.4,14.2,16.3c-0.4,0.9-0.4,1.8-0.2,2.7c-5-5-9-11.1-15.1-15.3
		c0.2,2,2,3.2,3.4,4.7c3.9,4.3,7.9,9.3,11.8,13.6c-0.2,1.6,0.7,2,0.2,3.9c-4.7-6.3-10.2-12-16.3-16.9C46,54.2,53.2,61,58.5,67.5
		c-2.3-0.2-5,1.4-7.4,1.1c-1.3-0.2-3.1-3.1-4.1-4.1c-3.8-4.5-7.9-8.4-12.6-11.7c3.9,6.1,10.8,10.8,14.5,16.2l-3.8,0.5
		c-1.8-2.7-3.8-5-5.9-7.2c-2-2.5-4.5-4.7-7.4-5.9c0.2,3.1,3.8,4.5,5.7,6.8c2.2,2,3.9,4.3,5.6,6.8c-2.3-0.2-3.6-2.3-5-3.8
		s-2.5-3.4-4.7-3.4c0,2.7,3.8,3.8,5,6.1c-3.1,0.4-5.9-1.4-9.7-1.1c-0.2-11.5,1.1-24-2.5-32.5c10.2-3.9,21-7.4,30.5-12
		c5.4,2.5,0.2,15.6,0,22.4C56.9,46.5,58.2,46.1,58.2,47.2z M53.7,66.9c0,0.4,0.4,0.2,0.4-0.4c-3.8-5.7-8.4-10.9-13.8-15.4
		c-1.4-1.8-3.6-3.2-5.7-3.8C40.6,54.2,46.9,60.8,53.7,66.9z M51,36.4c-2.5-1.6-4.1-7-8.1-5.6c2.3,2.3,5,4.5,7.9,6.5
		C51,37,51,36.6,51,36.4z"/>
	<path class="st0" d="M34,101.7c-1.6,1.3-2.2-2.2-3.8-2c-2.2,0.9,1.6,1.6-0.2,2.2c-1.1-0.5-2.2-0.9-3.2-1.1c0.4-3.1,1.3-5.6,1.8-8.4
		c0.9,0.5,0.7,2,1.6,2.3c-0.2-4.5-1.3-8.3-0.5-13.5C31.4,87.7,31.8,95.6,34,101.7z"/>
	<path class="st1" d="M56.4,86.7c2.9,0,5.7,0.4,8.4,0.9c0.2-0.5,0.4-0.4,0.7-0.4c1.1,0,2,0,3.1,0.2c1.8,0.4,3.6,0.9,5.7,1.1
		c5.2,0.5,10.8,0.7,15.8,1.4c1.1,0.2,2.3,0.2,3.1,0.4c0.5,0.2,1.1,0.4,1.8,0.7c0.7,0.2,1.1,0.7,1.8,0.5c1.1-0.4,2-0.7,3.1-1.3
		c1.3-0.5,2.3-0.9,3.1-1.3c1.4-0.7,2.7-1.6,3.9-2.7c1.3-0.9,3.2-2,3.2-3.4c0-0.2-0.2-0.2-0.2-0.4s-0.2,0-0.2,0
		c0.5-2.9,0.4-5.9-0.4-8.8c-0.2-0.9-0.4-2-0.5-2.9c-0.9-3.4-2.2-6.8-3.8-10c-0.7-1.6-0.7-3.9-1.6-5.4c-0.2-0.2-0.5-0.5-0.9-0.9
		s-0.4-0.9-0.5-1.1c-1.1-0.7-2.2-1.3-3.4-1.6c-6.3-2.7-13.8-3.4-20.1-6.1c-2-0.7-3.8-1.4-5.7-2c-0.7-0.4-1.4-0.4-2.3-0.4
		c-2.2,0.7-4.1,1.8-5.9,3.1c-2.7,2-5.4,3.6-8.3,5c-1.4,0.4-2.7,0.7-3.9,1.3c-0.5,0.9-0.9,1.8-1.1,2.7c0,0.5,0.4,1.1,0.4,1.6
		c0,1.4-0.2,2.9-0.4,4.3c-0.5,4.3-0.7,8.4-0.4,12.7c0,2.5,0.2,4.7,0,7.5c0,0.9,0,1.8,0,2.7c-0.2,0.7-1.3,1.8-0.7,2.7
		C50.3,87.7,54.6,86.7,56.4,86.7z"/>
	<path class="st0" d="M62.3,81.3c2,0,3.9,0.2,5.9,0.7c0.2-0.4,0.4-0.2,0.4-0.2c0.7,0,1.4,0,2.3,0.2c1.3,0.2,2.5,0.5,3.9,0.7
		c3.6,0.4,7.5,0.5,10.9,0.9c0.7,0.2,1.6,0.2,2.3,0.4c0.7,0.2,0.7,0.4,1.3,0.5c0.4,0.2,0.7,0.5,1.3,0.4c0.7-0.2,1.4-0.5,2.2-0.9
		c0.7-0.4,1.6-0.7,2.3-0.9c0.9-0.5,2-1.1,2.9-1.8c0.9-0.5,2.3-1.4,2.3-2.3c0,0-0.2,0-0.2-0.2s-0.2,0,0,0c0.4-2,0.2-4.1-0.4-6.1
		c-0.2-0.7-0.4-1.4-0.4-2c-0.5-2.3-1.4-4.7-2.7-7c-0.5-1.1-0.5-2.7-1.1-3.8c0-0.2-0.4-0.4-0.5-0.5c-0.2-0.2-0.2-0.5-0.4-0.7
		c-0.7-0.5-1.6-0.9-2.3-1.3c-4.3-1.8-9.5-2.3-14-4.3c-1.3-0.5-2.7-1.1-3.9-1.4c-0.5-0.2-1.1-0.4-1.6-0.4c-1.4,0.5-2.9,1.3-4.1,2.3
		C67,54.9,65,56.2,63,57.1c-0.9,0.2-1.8,0.5-2.7,0.9c-0.4,0.5-0.5,1.3-0.7,2c0,0.4,0.4,0.7,0.4,1.1c0,1.1,0,2-0.2,3.1
		c-0.4,2.9-0.4,5.9-0.4,8.8c0,1.8,0.2,3.2,0,5.2c0,0.5,0,1.3,0,1.8c-0.2,0.5-0.9,1.3-0.5,1.8C58.4,82.2,61.1,81.3,62.3,81.3z"/>
</g>
</svg>
