<?xml version="1.0" encoding="utf-8"?>
<!-- Generator: Adobe Illustrator 26.0.1, SVG Export Plug-In . SVG Version: 6.00 Build 0)  -->
<svg version="1.1" id="Слой_1" xmlns="http://www.w3.org/2000/svg" xmlns:xlink="http://www.w3.org/1999/xlink" x="0px" y="0px"
	 viewBox="0 0 269.6 217.3" style="enable-background:new 0 0 269.6 217.3;" xml:space="preserve">
<style type="text/css">
	.st0{fill:#EB5C55;}
	.st1{fill:#1C1C1C;}
	.st2{opacity:0.6;fill:#B72425;enable-background:new    ;}
	.st3{fill:#464545;}
	.st4{fill:#FFFFFF;}
	.st5{fill:#AF1B3B;}
	.st6{fill:#EB5977;}
	.st7{fill:#BBDCEB;}
	.st8{fill:#8BB0CC;}
	.st9{fill:#F294A4;}
	.st10{fill:#5C5B5B;}
	.st11{fill:#7A797B;}
	.st12{fill:#3F3F3F;}
</style>
<g>
	<path class="st0" d="M134.8,55.5c-13.9-64.4-115-70-115,17.7c0,74.7,115,136.8,115,136.8s115-62.1,115-136.8
		C249.7-14.5,148.7-8.9,134.8,55.5z"/>
	<g>
		<g>
			<path class="st0" d="M133,30.3c-4.7-21.8-38.9-23.7-38.9,6c0,25.3,38.9,46.3,38.9,46.3s38.9-21,38.9-46.3
				C171.9,6.6,137.7,8.5,133,30.3z"/>
			<path class="st1" d="M153.1,14c9.5,0,18.8,6.9,18.8,22.3c0,25.3-38.9,46.3-38.9,46.3S94,61.6,94,36.3c0-15.4,9.2-22.3,18.8-22.3
				c9.7,0,18.1,6.8,20.1,16.3C134.9,20.8,143.3,14,153.1,14 M112.8,12.7c-5.2-0.1-10.3,2-13.9,5.8c-4,4.2-6.2,10.4-6.2,17.9
				c0,6,2.1,12.3,6.3,18.6c3.3,5,7.9,10,13.6,15c6.1,5.2,12.7,9.9,19.7,13.8l0.6,0.3l0.6-0.3c7-4,13.6-8.6,19.7-13.8
				c5.7-5,10.3-10,13.6-15c4.2-6.3,6.3-12.6,6.3-18.6c0-7.5-2.1-13.6-6.2-17.9c-3.6-3.8-8.7-5.9-13.9-5.8c-4.8,0-9.5,1.6-13.3,4.5
				c-3,2.3-5.4,5.3-6.8,8.8c-1.5-3.5-3.8-6.5-6.8-8.8C122.4,14.3,117.7,12.7,112.8,12.7L112.8,12.7z"/>
			<path class="st2" d="M133,32v-1.7c-2-9.7-10.7-16.5-20.6-16.3C119.9,14.5,128.7,20.6,133,32z"/>
			<path class="st2" d="M151.6,14c8.5,0.6,16.4,7.3,16.4,21.2c0,24-37,41.5-37,41.5s-36.5-17.2-37-41c0,0.2,0,0.4,0,0.6
				c0,25.3,38.9,46.3,38.9,46.3s38.9-21,38.9-46.3C171.9,20,161.6,13.2,151.6,14z"/>
			<path class="st3" d="M96.4,41.2c-3.3-22.7,14.9-31,26.3-22.4C114.3,14.1,96.7,20.7,96.4,41.2z"/>
			<path class="st0" d="M188,138.4c0-7,3.1-8.4,5.2-8.4c2.1,0,5.2,1.4,5.2,8.4s-2.3,16.9-5.2,16.9C190.3,155.3,188,145.4,188,138.4z
				"/>
			<path class="st1" d="M193.2,128.6c-1.7,0-3.4,0.8-4.5,2.1c-1.3,1.6-2.1,4-2.1,7.8c0,3.9,0.6,7.7,1.6,11.5c0.4,1.6,1,3.1,1.8,4.5
				c0.7,1.3,1.7,2.4,3.2,2.4s2.5-1.2,3.3-2.4c0.8-1.4,1.4-3,1.8-4.5c1-3.7,1.6-7.6,1.6-11.5c0-3.7-0.8-6.2-2.1-7.8
				C196.6,129.3,194.9,128.6,193.2,128.6z M193.2,131.5c0.9,0,1.7,0.4,2.3,1.1c0.7,0.9,1.4,2.6,1.4,5.9c0,3.6-0.5,7.2-1.5,10.7
				c-0.3,1.3-0.9,2.6-1.5,3.8c-0.2,0.4-0.5,0.7-0.8,0.9c-0.3-0.3-0.6-0.6-0.8-0.9c-0.7-1.2-1.2-2.5-1.5-3.8
				c-0.9-3.5-1.4-7.1-1.5-10.7c0-3.3,0.7-5,1.5-5.9C191.5,131.8,192.3,131.4,193.2,131.5z"/>
			<path class="st0" d="M161.6,138.4c0-7,3.1-8.4,5.2-8.4s5.2,1.4,5.2,8.4s-2.3,16.9-5.2,16.9C164,155.3,161.6,145.4,161.6,138.4
				L161.6,138.4z"/>
			<path class="st1" d="M166.8,128.6c-1.7,0-3.4,0.7-4.5,2.1c-1.3,1.6-2.2,4-2.2,7.8c0,3.9,0.6,7.7,1.6,11.5c0.4,1.6,1,3.1,1.8,4.5
				c0.7,1.3,1.7,2.4,3.2,2.4s2.5-1.2,3.2-2.4c0.8-1.4,1.4-2.9,1.8-4.5c1-3.7,1.6-7.6,1.6-11.5c0-3.7-0.8-6.2-2.1-7.8
				C170.2,129.3,168.6,128.6,166.8,128.6z M166.8,131.5c0.9,0,1.7,0.4,2.3,1.1c0.7,0.9,1.5,2.6,1.5,5.9c0,3.6-0.5,7.2-1.5,10.7
				c-0.3,1.3-0.9,2.6-1.5,3.8c-0.2,0.4-0.5,0.7-0.8,0.9c-0.3-0.3-0.6-0.6-0.8-0.9c-0.6-1.2-1.2-2.5-1.5-3.8
				c-0.9-3.5-1.4-7.1-1.5-10.7c0-3.3,0.7-5,1.5-5.9C165.1,131.8,166,131.4,166.8,131.5L166.8,131.5z"/>
			<path class="st0" d="M214.1,103.7c-2-6.7,0.5-8.9,2.6-9.5c2-0.6,5.4-0.2,7.4,6.5s2.7,16.9-0.1,17.7S216.1,110.4,214.1,103.7z"/>
			<path class="st1" d="M216.2,93.6c-1.7,0.5-3,1.7-3.7,3.3c-0.8,1.9-0.9,4.5,0.2,8c1.2,3.7,2.8,7.2,4.8,10.5
				c0.8,1.4,1.9,2.7,3.1,3.8c1,1,2.3,1.8,3.8,1.3c1.5-0.5,2.1-1.8,2.5-3.2c0.3-1.6,0.5-3.2,0.4-4.9c-0.1-3.9-0.7-7.7-1.8-11.4
				c-1.1-3.6-2.6-5.7-4.3-6.8C219.7,93.3,217.9,93,216.2,93.6L216.2,93.6L216.2,93.6z M217.1,96.3c0.8-0.3,1.8-0.2,2.5,0.3
				c0.9,0.6,2.1,2.1,3.1,5.2c1,3.5,1.6,7,1.7,10.7c0.1,1.4-0.1,2.8-0.3,4.1c-0.1,0.4-0.2,0.8-0.5,1.1c-0.4-0.1-0.7-0.4-1-0.6
				c-1-1-1.8-2.1-2.5-3.2c-1.9-3.1-3.4-6.4-4.5-9.8c-1-3.1-0.8-5-0.3-6C215.5,97.2,216.2,96.6,217.1,96.3L217.1,96.3z"/>
			<path class="st0" d="M137.4,100.4c2.7-6.5,6-6.6,8-5.8s4.3,3.3,1.6,9.7c-2.7,6.4-8.6,14.7-11.3,13.6
				C133.1,116.9,134.7,106.8,137.4,100.4L137.4,100.4z"/>
			<path class="st1" d="M145.9,93.3c-1.6-0.7-3.4-0.6-5,0.2c-1.8,0.9-3.5,2.9-5,6.3c-1.4,3.6-2.4,7.4-2.9,11.2
				c-0.2,1.6-0.3,3.3-0.1,4.9c0.2,1.4,0.6,2.8,2.1,3.4s2.8-0.1,3.9-0.9c1.3-1,2.4-2.2,3.4-3.5c2.4-3.1,4.3-6.4,5.8-10
				c1.4-3.4,1.6-6,1-8C148.7,95.3,147.5,93.9,145.9,93.3L145.9,93.3z M144.8,96c0.8,0.3,1.5,1,1.7,1.9c0.3,1.1,0.3,3-0.9,6
				c-1.4,3.3-3.2,6.4-5.5,9.3c-0.8,1.1-1.8,2.1-2.9,3c-0.3,0.3-0.7,0.4-1.1,0.6c-0.2-0.3-0.3-0.7-0.4-1.2c-0.1-1.4-0.1-2.8,0.1-4.1
				c0.5-3.6,1.4-7.1,2.8-10.5c1.3-3,2.6-4.3,3.6-4.9C143.1,95.6,144,95.6,144.8,96L144.8,96z"/>
			<path class="st1" d="M180,63.1c-22.5,0-40.8,18.3-40.8,40.8s18.3,40.8,40.8,40.8s40.8-18.3,40.8-40.8c0,0,0,0,0,0l0,0
				C220.7,81.3,202.5,63.1,180,63.1z M180,67.7c19.9,0,36.1,16.2,36.1,36.1S200,139.9,180,139.9s-36.1-16.2-36.1-36.1c0,0,0,0,0,0
				l0,0C143.9,83.9,160,67.7,180,67.7C179.9,67.7,179.9,67.7,180,67.7L180,67.7z"/>
			<path class="st4" d="M141.6,103.8c0-21.2,17.2-38.5,38.4-38.5s38.5,17.2,38.5,38.4s-17.2,38.5-38.4,38.5c-10.2,0-20-4-27.2-11.2
				C145.6,123.8,141.6,114,141.6,103.8z"/>
			<path class="st4" d="M146.5,101.8c0-19.6,15.9-35.6,35.6-35.6s35.6,15.9,35.6,35.6s-15.9,35.6-35.6,35.6
				c-9.4,0-18.5-3.7-25.1-10.4C150.2,120.3,146.5,111.3,146.5,101.8z"/>
			<path class="st0" d="M141.6,103.8c0.3,21.2,17.7,38.2,38.9,37.9c20.8-0.3,37.7-17.1,37.9-37.9l0,0H141.6z"/>
			<path class="st0" d="M146.6,103.8c1.1,19.6,17.8,34.6,37.4,33.6c18.1-1,32.6-15.4,33.6-33.6H146.6z"/>
			<path class="st1" d="M180,64.8c-21.6,0-39,17.5-39,39s17.5,39,39,39s39-17.5,39-39l0,0C219,82.3,201.6,64.8,180,64.8z M180,66
				c20.9,0,37.9,17,37.9,37.9s-17,37.9-37.9,37.9s-37.9-17-37.9-37.9l0,0l0,0C142.1,82.9,159.1,66,180,66C180,66,180,66,180,66
				L180,66z"/>
			<path class="st1" d="M192.4,89.9c3.3,0,6,2.6,6,5.9l0,0v3c-0.1,3.3-2.9,5.9-6.2,5.8c-3.2-0.1-5.7-2.6-5.8-5.8v-3
				C186.4,92.6,189.1,89.9,192.4,89.9L192.4,89.9L192.4,89.9z"/>
			<path class="st4" d="M188.9,94.2c0-1.1,0.9-2,2-2s2,0.9,2,2s-0.9,2-2,2S188.9,95.3,188.9,94.2z"/>
			<path class="st1" d="M167.7,89.9c3.3,0,6,2.7,6,6l0,0v3c0,3.3-2.7,6-6,6c-3.3,0-6-2.7-6-6v-3C161.7,92.6,164.3,89.9,167.7,89.9
				L167.7,89.9L167.7,89.9L167.7,89.9z"/>
			<path class="st4" d="M164.2,94.2c0-1.1,0.9-2,2-2s2,0.9,2,2s-0.9,2-2,2l0,0C165,96.1,164.2,95.3,164.2,94.2z"/>
			<path class="st5" d="M173.6,106.6c-0.7,0-1.3,0.6-1.3,1.3l0,0v1.5c0.1,4.3,3.7,7.6,7.9,7.5c4.1-0.1,7.4-3.4,7.5-7.5l0,0v-1.5
				c0-0.7-0.6-1.3-1.3-1.3H173.6z"/>
			<path class="st6" d="M180,111.9c-2.2,0-4.3,1-5.8,2.6c2.8,3.2,7.6,3.6,10.8,0.8c0,0,0,0,0,0c0.3-0.2,0.5-0.5,0.8-0.8
				C184.4,112.8,182.2,111.9,180,111.9L180,111.9z"/>
			<path class="st4" d="M173.6,106.6c-0.7,0-1.3,0.6-1.3,1.3l0,0v1.3c4.9,2.3,10.5,2.3,15.4,0v-1.3c0-0.7-0.6-1.3-1.3-1.3H173.6
				L173.6,106.6z"/>
			<path class="st7" d="M185.6,106.6v2.1c0,0.8-0.1,1.3-0.6,1.6c0.9-0.3,1.8-0.6,2.7-1V108c0-0.7-0.6-1.3-1.3-1.3L185.6,106.6
				L185.6,106.6z"/>
			<path class="st7" d="M173.6,106.6c-0.7,0-1.3,0.6-1.3,1.3l0,0v1.3c1.7,0.8,3.5,1.3,5.3,1.6c-0.9-0.2-1.2-1.1-1.2-2.2v-2.1
				L173.6,106.6z"/>
			<path class="st8" d="M174.4,106.6v2.1c0,0.8,0.1,1.3,0.6,1.6c-0.9-0.3-1.8-0.6-2.7-1V108c0-0.7,0.6-1.3,1.3-1.3L174.4,106.6
				L174.4,106.6z"/>
			<path class="st1" d="M173.6,106.1c-1,0-1.9,0.9-1.9,1.9v1.5c-0.1,4.6,3.5,8.4,8.1,8.5c4.6,0.1,8.4-3.5,8.5-8.1c0-0.2,0-0.3,0-0.5
				V108c0-1-0.9-1.9-1.9-1.9H173.6z M186.4,107.2c0.4,0,0.7,0.3,0.7,0.7v0v1.5c0,3.9-3.2,7.1-7.1,7.1s-7.1-3.2-7.1-7.1V108
				c0-0.4,0.3-0.7,0.7-0.7l0,0L186.4,107.2L186.4,107.2z"/>
			<path class="st1" d="M187.7,109c-4.9,2.4-10.6,2.4-15.5,0l-0.3,0.5c5.1,2.5,10.9,2.5,16,0L187.7,109z"/>
			<path class="st9" d="M180.8,114c0-0.3,0.2-0.5,0.4-0.6c0.3-0.2,0.6-0.3,0.9-0.3c0.7,0,1.3,0.4,1.3,0.9c0,0.5-0.6,0.9-1.3,0.9
				c-0.3,0-0.6-0.1-0.9-0.3C181,114.5,180.8,114.2,180.8,114L180.8,114z"/>
			<path class="st1" d="M216.2,121.9l-0.6-0.1l1-7.7l0.6,0.1L216.2,121.9z"/>
			<path class="st1" d="M180.6,50c-3.7,0.2-7.4,0.2-11.5,0.5c-5.4,0.4-9.3,2.1-11.8,4.6c-2.3,2.4-3.5,5.6-3.5,8.9
				c0,5.5,3.4,9.8,8.1,12.1c4.7,2.3,10.7,2.9,16.8,2c0.6-0.1,1.3-0.2,1.8-0.3v-4c-0.8,0.2-1.7,0.3-2.4,0.5
				c-5.5,0.8-10.8,0.2-14.5-1.6c-3.7-1.8-5.9-4.5-5.9-8.5c-0.1-2.3,0.7-4.5,2.3-6.1c1.7-1.7,4.5-3.1,9.3-3.4
				c3.8-0.3,7.4-0.3,11.2-0.6L180.6,50z"/>
			<path class="st1" d="M191.1,48.5c-3.9,0.9-7.8,1.4-11.8,1.6V54c3.1-0.1,6.2-0.5,9.2-1l-1.2,3.2h2.8c3.8,0,7.5-0.6,11.2-1.7
				c-2.9,11.4-12.4,17.7-22.1,19.5v4c12-2.1,24.6-10.5,26.6-26.1l0.4-3.2l-3,1.1c-3.3,1-6.8,1.8-10.3,2.2l0.3-0.9l1.3-3.5
				L191.1,48.5z"/>
			<path class="st10" d="M191.6,50.4c-8.3,2-14.7,1.5-22.3,2.1c-10.2,0.7-13.5,6.1-13.5,11.5c0,19.1,44.3,17.3,48.2-12.4
				c0,0-7.5,2.6-13.8,2.6L191.6,50.4L191.6,50.4z"/>
			<path class="st11" d="M191.6,50.4c-8.3,2-14.7,1.5-22.3,2.1c-5.8,0.4-9.4,2.4-11.3,4.9c5.4,9.3,35.8,7.6,46.1-5.8
				c0,0-7.5,2.6-13.8,2.6L191.6,50.4L191.6,50.4z"/>
			<path class="st12" d="M204,51.6c-5.2,19.4-40.9,26.9-47.9,9.8c-0.2,0.9-0.3,1.7-0.3,2.6C155.8,83.1,200.1,81.3,204,51.6z"/>
			<path class="st1" d="M180.6,51.5c-3.7,0.2-7.4,0.2-11.4,0.5c-5.2,0.4-8.7,2-10.9,4.2c-2,2.1-3.1,4.9-3.1,7.8
				c0,5,2.9,8.6,7.3,10.7c4.3,2.1,10.1,2.8,16,1.9c0.7-0.1,1.4-0.2,2.1-0.4v-1c-0.7,0.2-1.5,0.3-2.2,0.4c-5.7,0.9-11.3,0.2-15.4-1.8
				c-4.1-2-6.7-5.3-6.7-9.8c-0.1-2.6,0.9-5.2,2.8-7.1c2-2,5.2-3.5,10.3-3.9c3.9-0.3,7.5-0.3,11.3-0.6L180.6,51.5L180.6,51.5z"/>
			<path class="st1" d="M191.4,49.9c-4,0.9-8.1,1.5-12.1,1.6v1c3.9-0.2,7.7-0.6,11.5-1.5l-1.3,3.6h0.7c5.9,0,12.1-2,13.2-2.4
				c-2.2,13.7-13.2,21.2-24.1,23.2v1c11.5-2,23.2-10.1,25.2-24.8l0.1-0.8l-0.8,0.3c0,0-6.9,2.3-12.9,2.5l1.1-3l0.3-0.9L191.4,49.9z"
				/>
			<path class="st0" d="M95.7,137.2c0-6.8,3-8.1,5-8.1c2.1,0,5,1.3,5,8.1c0,6.8-2.2,16.4-5,16.4S95.7,144.1,95.7,137.2z"/>
			<path class="st1" d="M100.8,127.7c-1.7,0-3.3,0.7-4.4,2c-1.3,1.5-2.1,3.9-2.1,7.5c0,3.8,0.5,7.5,1.5,11.1c0.4,1.5,1,3,1.7,4.4
				c0.7,1.2,1.7,2.3,3.2,2.3c1.5,0,2.5-1.1,3.2-2.3c0.8-1.4,1.4-2.9,1.8-4.4c1-3.6,1.5-7.4,1.5-11.2c0-3.6-0.8-6-2.1-7.5
				C104.1,128.4,102.5,127.7,100.8,127.7L100.8,127.7L100.8,127.7z M100.8,130.6c0.9,0,1.7,0.3,2.2,1c0.7,0.8,1.4,2.5,1.4,5.7
				c0,3.5-0.5,7-1.4,10.4c-0.3,1.3-0.8,2.5-1.5,3.7c-0.2,0.3-0.4,0.7-0.7,0.9c-0.3-0.2-0.6-0.6-0.7-0.9c-0.6-1.2-1.1-2.4-1.5-3.7
				c-0.9-3.4-1.4-6.9-1.4-10.4c0-3.2,0.7-4.8,1.4-5.7C99.1,130.9,99.9,130.5,100.8,130.6L100.8,130.6L100.8,130.6z"/>
			<path class="st0" d="M70.2,137.2c0-6.8,3-8.1,5-8.1s5.1,1.4,5.1,8.1s-2.3,16.4-5,16.4S70.2,144.1,70.2,137.2z"/>
			<path class="st1" d="M75.3,127.7c-1.7,0-3.3,0.7-4.4,2c-1.3,1.5-2.1,3.9-2.1,7.5c0,3.8,0.5,7.5,1.5,11.1c0.4,1.5,1,3,1.8,4.4
				c0.7,1.2,1.7,2.3,3.2,2.3c1.5,0,2.5-1.1,3.2-2.3c0.8-1.4,1.4-2.9,1.7-4.4c1-3.6,1.5-7.4,1.5-11.2c0-3.6-0.8-6-2.1-7.5
				C78.5,128.4,76.9,127.7,75.3,127.7L75.3,127.7z M75.3,130.6c0.9,0,1.7,0.3,2.2,1c0.7,0.8,1.4,2.5,1.4,5.7c0,3.5-0.5,7-1.4,10.4
				c-0.3,1.3-0.8,2.5-1.5,3.7c-0.2,0.3-0.4,0.7-0.7,0.9c-0.3-0.2-0.6-0.6-0.7-0.9c-0.6-1.2-1.1-2.4-1.5-3.7
				c-0.9-3.4-1.4-6.9-1.4-10.4c0-3.2,0.7-4.8,1.4-5.7C73.6,130.9,74.4,130.5,75.3,130.6z"/>
			<path class="st0" d="M121.1,103.6c-2-6.5,0.5-8.6,2.5-9.2c2-0.6,5.2-0.2,7.2,6.3c2,6.5,2.6,16.4-0.1,17.2
				C128,118.7,123,110.1,121.1,103.6L121.1,103.6z"/>
			<path class="st1" d="M123.1,93.8c-1.6,0.5-2.9,1.7-3.6,3.2c-0.8,1.8-0.9,4.4,0.2,7.8c1.1,3.6,2.7,7,4.7,10.2
				c0.8,1.4,1.8,2.6,2.9,3.7c1,0.9,2.2,1.7,3.7,1.3c1.4-0.4,2-1.8,2.4-3.1c0.3-1.6,0.5-3.1,0.4-4.7c-0.1-3.7-0.7-7.5-1.8-11.1
				c-1-3.4-2.5-5.5-4.2-6.6C126.5,93.6,124.7,93.3,123.1,93.8L123.1,93.8z M123.9,96.5c0.8-0.3,1.7-0.2,2.4,0.3c0.9,0.6,2.1,2,3,5
				c1,3.4,1.5,6.8,1.6,10.3c0.1,1.3-0.1,2.7-0.3,4c-0.1,0.4-0.2,0.7-0.5,1.1c-0.4-0.1-0.7-0.3-1-0.6c-0.9-0.9-1.8-2-2.5-3.1
				c-1.8-3-3.3-6.2-4.4-9.5c-0.9-3-0.7-4.8-0.3-5.8C122.4,97.4,123.1,96.8,123.9,96.5L123.9,96.5z"/>
			<path class="st0" d="M46.7,100.4c2.6-6.3,5.8-6.4,7.8-5.6c2,0.8,4.1,3.2,1.6,9.4c-2.6,6.3-8.4,14.3-10.9,13.2
				C42.5,116.4,44.1,106.7,46.7,100.4z"/>
			<path class="st1" d="M55,93.6c-1.6-0.6-3.3-0.6-4.8,0.2c-1.8,0.9-3.4,2.8-4.8,6.2c-1.4,3.5-2.4,7.1-2.8,10.9
				c-0.2,1.6-0.2,3.2-0.1,4.7c0.2,1.4,0.6,2.8,2.1,3.3s2.7-0.1,3.8-0.9c1.2-1,2.4-2.1,3.3-3.4c2.3-3,4.2-6.2,5.7-9.7
				c1.4-3.3,1.6-5.8,0.9-7.7C57.7,95.5,56.5,94.2,55,93.6L55,93.6z M53.9,96.2c0.8,0.3,1.4,1,1.7,1.8c0.3,1,0.3,2.9-0.9,5.8
				c-1.4,3.2-3.2,6.3-5.3,9c-0.8,1.1-1.7,2-2.8,2.9c-0.3,0.2-0.7,0.4-1,0.5c-0.2-0.3-0.3-0.7-0.3-1.1c-0.1-1.3-0.1-2.6,0.1-4
				c0.5-3.5,1.3-6.9,2.6-10.1c1.2-2.9,2.5-4.2,3.5-4.7C52.2,95.8,53.1,95.8,53.9,96.2L53.9,96.2z"/>
			<path class="st1" d="M88,64.3c-21.8,0-39.5,17.7-39.5,39.5c0,21.8,17.7,39.5,39.5,39.5s39.5-17.7,39.5-39.5l0,0l0,0
				C127.5,82,109.8,64.3,88,64.3z M88,68.8c19.3,0,35,15.7,35,35s-15.7,35-35,35s-35-15.7-35-35l0,0c0-19.3,15.6-35,34.9-35
				C87.9,68.8,87.9,68.8,88,68.8L88,68.8z"/>
			<path class="st0" d="M124.7,102.9c0,1.6-0.2,19.5-10.7,24.6c-7.5,3.6-11.6-3.4-26.7-3.2c-14.2,0.2-17.9,6.5-24.9,3.2
				c-10.5-4.9-10.7-23.1-10.7-24.6c0-2.1,0.2-19,10.7-24.6c6.2-3.3,9.4,0.8,24.6,0.9c16.7,0.2,20.3-4.7,27.1-0.9
				C124.4,84.1,124.7,100.8,124.7,102.9z"/>
			<path class="st4" d="M88.4,67.2c-16,0-30.2,10.1-35.5,25.2h70.9C118.6,77.3,104.4,67.2,88.4,67.2z"/>
			<path class="st4" d="M86.5,68.1c-15.2,0-28.6,9.8-33.2,24.3h66.3C115,77.9,101.6,68.1,86.5,68.1z"/>
			<path class="st4" d="M52.7,116.7c3.9,7.5,9.8,13.8,17.2,18c5.6,3.3,12.1,5.2,18.6,5.3c3.5,0.1,7.1-0.4,10.5-1.4
				c6.7-2.1,12.7-6.1,17.2-11.5c2.6-3.1,4.8-6.6,6.4-10.4H52.7z"/>
			<path class="st4" d="M54.5,116.8c8.3,18.1,29.7,26.1,47.9,17.9c7.9-3.6,14.2-10,17.9-17.9H54.5z"/>
			<path class="st1" d="M88,65.9c-20.9,0-37.8,16.9-37.8,37.8s16.9,37.8,37.8,37.8s37.8-16.9,37.8-37.8l0,0l0,0
				C125.8,82.9,108.9,66,88,65.9z M88,67.1c20.3,0,36.7,16.4,36.7,36.7c0,20.3-16.4,36.7-36.7,36.7c-20.3,0-36.7-16.4-36.7-36.7l0,0
				C51.3,83.5,67.7,67.1,88,67.1C88,67.1,88,67.1,88,67.1L88,67.1z"/>
			<path class="st1" d="M100,90.3c3.2,0,5.8,2.6,5.8,5.8l0,0V99c0,3.2-2.6,5.8-5.8,5.8s-5.8-2.6-5.8-5.8c0,0,0,0,0,0v-2.9
				C94.2,92.9,96.8,90.3,100,90.3L100,90.3L100,90.3z"/>
			<path class="st4" d="M96.6,94.4c0-1,0.9-1.8,1.9-1.8c1,0,1.8,0.9,1.8,1.9c0,0.5-0.2,0.9-0.5,1.2c-0.7,0.7-1.9,0.7-2.6,0l0,0
				C96.8,95.4,96.6,94.9,96.6,94.4z"/>
			<path class="st1" d="M76.1,90.3c3.2,0,5.8,2.5,5.8,5.7c0,0,0,0,0,0V99c0,3.2-2.6,5.8-5.8,5.8s-5.8-2.6-5.8-5.8l0,0v-2.9
				C70.3,92.9,72.9,90.3,76.1,90.3L76.1,90.3L76.1,90.3z"/>
			<path class="st4" d="M72.7,94.4c0-1,0.8-1.9,1.8-1.9c1,0,1.9,0.8,1.9,1.8s-0.8,1.9-1.8,1.9c-0.5,0-1-0.2-1.4-0.6
				C72.9,95.4,72.7,94.9,72.7,94.4z"/>
			<path class="st5" d="M81.8,106.5c-0.7,0-1.3,0.6-1.3,1.3l0,0v1.4c0.2,4.1,3.6,7.3,7.8,7.1c3.9-0.2,7-3.3,7.1-7.1v-1.4
				c0-0.7-0.6-1.3-1.3-1.3H81.8z"/>
			<path class="st6" d="M88,111.6c-2.2,0-4.2,0.9-5.6,2.6c2.7,3.1,7.4,3.4,10.5,0.7l0,0c0.2-0.2,0.5-0.5,0.7-0.7
				C92.2,112.5,90.2,111.6,88,111.6z"/>
			<path class="st4" d="M81.8,106.5c-0.7,0-1.3,0.6-1.3,1.3l0,0v1.3c4.7,2.3,10.2,2.3,14.9,0v-1.3c0-0.7-0.6-1.3-1.3-1.3H81.8z"/>
			<path class="st7" d="M93.5,106.5v2c0,0.7-0.1,1.2-0.6,1.6c0.9-0.3,1.8-0.6,2.6-1v-1.3c0-0.7-0.6-1.3-1.3-1.3H93.5L93.5,106.5z"/>
			<path class="st7" d="M81.8,106.5c-0.7,0-1.3,0.6-1.3,1.3l0,0v1.3c1.6,0.8,3.3,1.3,5.1,1.5c-0.9-0.2-1.1-1.1-1.1-2.1v-2
				L81.8,106.5L81.8,106.5z"/>
			<path class="st8" d="M82.5,106.5v2c0,0.7,0.1,1.2,0.6,1.6c-0.9-0.3-1.8-0.6-2.6-1v-1.3c0-0.7,0.6-1.3,1.3-1.3H82.5L82.5,106.5z"
				/>
			<path class="st1" d="M81.8,105.9c-1,0-1.8,0.8-1.8,1.8v1.4c0,4.4,3.6,8,8,8c4.4,0,8-3.6,8-8v-1.4c0-1-0.8-1.8-1.8-1.8H81.8z
				 M94.2,107.1c0.4,0,0.7,0.3,0.7,0.7l0,0v1.5c0.1,3.8-2.9,7-6.7,7.1c-3.8,0.1-7-2.9-7.1-6.7c0-0.1,0-0.3,0-0.4v-1.4
				c0-0.4,0.3-0.7,0.7-0.7l0,0L94.2,107.1L94.2,107.1z"/>
			<path class="st1" d="M95.5,108.8c-4.7,2.3-10.3,2.3-15,0l-0.2,0.5c4.9,2.4,10.6,2.4,15.5,0L95.5,108.8z"/>
			<path class="st9" d="M88.8,113.6c0-0.3,0.1-0.5,0.4-0.6c0.3-0.2,0.6-0.3,0.9-0.3c0.7,0,1.2,0.4,1.2,0.9c0,0.5-0.6,0.9-1.2,0.9
				c-0.3,0-0.6-0.1-0.9-0.3C89,114,88.9,113.8,88.8,113.6L88.8,113.6z"/>
			<path class="st1" d="M80.8,51.6v3.7c3.6,0.2,7.1,0.3,10.8,0.6c4.6,0.3,7.4,1.7,9,3.3c1.5,1.6,2.3,3.7,2.2,5.9
				c0,3.9-2.1,6.5-5.7,8.3c-3.6,1.8-8.8,2.4-14.1,1.6c-0.8-0.1-1.6-0.3-2.4-0.5v3.9c0.6,0.1,1.2,0.2,1.8,0.3
				c5.9,0.9,11.7,0.3,16.3-2c4.5-2.2,7.8-6.3,7.8-11.7c0.1-3.2-1.2-6.3-3.4-8.6c-2.4-2.5-6.2-4.1-11.5-4.4
				C87.9,51.8,84.3,51.8,80.8,51.6L80.8,51.6z"/>
			<path class="st1" d="M67.1,49.3l1.2,3.4l0.3,0.8c-3.4-0.4-6.7-1.2-9.9-2.2l-2.9-1l0.4,3.1c2,15.1,14.2,23.4,25.8,25.3v-3.9
				c-9.4-1.8-18.6-7.9-21.3-18.9c3.5,1.1,7.2,1.6,10.8,1.7h2.7l-1.2-3.1c2.9,0.5,5.9,0.8,8.9,1v-3.8c-3.8-0.1-7.7-0.6-11.4-1.5
				L67.1,49.3z"/>
			<path class="st10" d="M70.1,52l1.3,3.6c-6.2,0-13.4-2.5-13.4-2.5c3.8,28.8,46.7,30.6,46.7,12c0-5.2-3.2-10.4-13.1-11.1
				C84.3,53.5,78.1,54,70.1,52z"/>
			<path class="st11" d="M70.1,52l1.3,3.6c-6.2,0-13.4-2.5-13.4-2.5c10,13,39.5,14.7,44.7,5.6c-2-2.5-5.4-4.4-11-4.8
				C84.3,53.5,78.1,54,70.1,52z"/>
			<path class="st12" d="M58.1,53.1c3.8,28.8,46.7,30.6,46.7,12c0-0.9-0.1-1.7-0.3-2.5C97.7,79.2,63.1,71.9,58.1,53.1z"/>
			<path class="st1" d="M80.8,53V54c3.6,0.2,7.1,0.3,10.9,0.5c4.9,0.3,8,1.8,9.9,3.7c1.8,1.8,2.8,4.3,2.7,6.9c0,4.4-2.5,7.6-6.5,9.6
				c-4,1.9-9.4,2.6-14.9,1.7c-0.7-0.1-1.4-0.2-2.1-0.4v1c0.7,0.1,1.3,0.3,2,0.4c5.7,0.9,11.2,0.3,15.4-1.8c4.2-2.1,7-5.6,7-10.4
				c0.1-2.8-1-5.6-2.9-7.6c-2.1-2.1-5.5-3.7-10.5-4C87.9,53.3,84.4,53.3,80.8,53z"/>
			<path class="st1" d="M69.4,51.4l0.3,0.8l1.1,2.9c-5.9-0.2-12.5-2.4-12.5-2.4l-0.7-0.3l0.1,0.8c1.9,14.3,13.3,22.1,24.4,24v-1
				c-10.5-1.9-21.2-9.2-23.3-22.5c1.1,0.4,7,2.3,12.8,2.3h0.6l-1.3-3.5c3.7,0.8,7.4,1.3,11.1,1.4v-0.9c-4-0.1-7.9-0.7-11.8-1.6
				L69.4,51.4z"/>
		</g>
	</g>
</g>
</svg>
