<svg id="Слой_1" data-name="Слой 1" xmlns="http://www.w3.org/2000/svg" viewBox="0 0 420 420"><defs><style>.cls-1{fill:#e53835;}.cls-2{fill:#31b39f;}.cls-3{fill:#e40f2a;}.cls-4{fill:#ed6d1d;}.cls-5{fill:#c51162;}.cls-6{fill:#76b82a;}.cls-7{fill:#d51116;}</style></defs><rect class="cls-1" x="-8.14" y="-7.04" width="432" height="437.5"/><path class="cls-2" d="M197.06,204.16a5.18,5.18,0,0,0,.85-1.45l-1.11-.27a2.94,2.94,0,0,1-.71,1.16h0l.92.61Z"/><path class="cls-2" d="M198.13,200.72l-1.17.17a3.4,3.4,0,0,1-.11,1.42l1.12.23A4.05,4.05,0,0,0,198.13,200.72Z"/><path class="cls-2" d="M196.43,199.42a3.77,3.77,0,0,1,.5,1.33l1.18-.21a4.88,4.88,0,0,0-.66-1.72Z"/><path class="cls-2" d="M195.33,205.33l-.61-.93a3.38,3.38,0,0,1-1.18.1l.25,1.06A3.93,3.93,0,0,0,195.33,205.33Z"/><path class="cls-2" d="M196.05,197.4l-.71.91a3.49,3.49,0,0,1,1,1l1-.62A5.06,5.06,0,0,0,196.05,197.4Z"/><path class="cls-2" d="M196.87,204.34l-.91-.64a3,3,0,0,1-1.12.65l.63.92A3.94,3.94,0,0,0,196.87,204.34Z"/><path class="cls-2" d="M193.43,204.47a2.89,2.89,0,0,1-1-.33l-.17,1.07a4.52,4.52,0,0,0,1.37.34Z"/><path class="cls-2" d="M191.11,202.73a3,3,0,0,1-.16-.7l-.94.26a4,4,0,0,0,.3,1Z"/><path class="cls-2" d="M190.94,202a2.38,2.38,0,0,1-.05-.26,2.73,2.73,0,0,1,0-.41l-.95-.1a3.56,3.56,0,0,0-.05.47,4.25,4.25,0,0,0,.07.53Z"/><path class="cls-2" d="M192.15,205.15l.2-1.05a2.59,2.59,0,0,1-.71-.56l-.54.91a3.65,3.65,0,0,0,.74.55C191.94,205.06,192.05,205.1,192.15,205.15Z"/><path class="cls-2" d="M191.57,203.48a2.77,2.77,0,0,1-.42-.68l-.8.61a4,4,0,0,0,.67,1Z"/><path class="cls-2" d="M188.92,199.24l1.14.65a3.89,3.89,0,0,1,.68-.89l-.86-1A4.85,4.85,0,0,0,188.92,199.24Z"/><path class="cls-2" d="M188.34,200.86l1.34.19A3.83,3.83,0,0,1,190,200l-1.16-.62A5.24,5.24,0,0,0,188.34,200.86Z"/><path class="cls-2" d="M195.17,198.53l-.55.7a2.05,2.05,0,0,1,.8.65l.72-.45A3,3,0,0,0,195.17,198.53Z"/><path class="cls-2" d="M192.54,203.11a2.72,2.72,0,0,1-.4-.43l-.41.69a2.54,2.54,0,0,0,.65.58Z"/><path class="cls-2" d="M192.11,202.64a1.65,1.65,0,0,1-.21-.42l-.57.44a2.27,2.27,0,0,0,.36.65Z"/><path class="cls-2" d="M193.23,203.48a2.16,2.16,0,0,1-.64-.33l-.13.84a2.74,2.74,0,0,0,.93.3Z"/><path class="cls-2" d="M194.59,204.19l-.43-.66a1.87,1.87,0,0,1-.85,0l.18.77A3.14,3.14,0,0,0,194.59,204.19Z"/><path class="cls-2" d="M191.08,197.13a4.8,4.8,0,0,0-1.09.75l.83,1.05a3.74,3.74,0,0,1,.94-.69l-.41-1.23Z"/><path class="cls-2" d="M190,201.09l1,.13a2.34,2.34,0,0,1,.18-.64l-.84-.45A3.59,3.59,0,0,0,190,201.09Z"/><path class="cls-2" d="M191.77,201.76a1.63,1.63,0,0,1,0-.38l-.69-.07a1.63,1.63,0,0,0,0,.38c0,.08,0,.15,0,.23Z"/><path class="cls-2" d="M191.88,202.18a2.38,2.38,0,0,1-.11-.38l-.63.18a3.74,3.74,0,0,0,.16.62Z"/><path class="cls-2" d="M193.08,199a2.35,2.35,0,0,1,1.45.16l.53-.72a3.28,3.28,0,0,0-1.9-.33Z"/><path class="cls-2" d="M195.76,203.56l-.65-.46a1.72,1.72,0,0,1-.86.41l.44.64A3,3,0,0,0,195.76,203.56Z"/><path class="cls-2" d="M193.19,197.83a3.55,3.55,0,0,1,1.29.11,3.14,3.14,0,0,1,.73.31l.7-1a4.69,4.69,0,0,0-2.6-.73Z"/><path class="cls-2" d="M191.86,198.17a3.9,3.9,0,0,1,1.2-.33l.08-1.28a4.72,4.72,0,0,0-1.64.39Z"/><path class="cls-2" d="M196.73,200.93l-.83.12a2.33,2.33,0,0,1-.09,1l.83.17A3.1,3.1,0,0,0,196.73,200.93Z"/><path class="cls-2" d="M196.22,199.54l-.73.42a2.33,2.33,0,0,1,.39,1l.83-.15a2.92,2.92,0,0,0-.07-.39A3.82,3.82,0,0,0,196.22,199.54Z"/><path class="cls-2" d="M193.71,205.92a3.86,3.86,0,0,1-1.5-.34L192,207a6.22,6.22,0,0,0,2,.37Z"/><path class="cls-2" d="M182.71,199.1c-.09.31-.16.62-.22.93l2.73.38a1.37,1.37,0,0,1,0-.19,7.68,7.68,0,0,1,.84-2.31l-2.37-1.26A9.56,9.56,0,0,0,182.71,199.1Z"/><path class="cls-2" d="M187.84,202.72a.3.3,0,0,0,0-.1,5.14,5.14,0,0,1,0-1.66l-1.9-.21a7.4,7.4,0,0,0,0,2.44Z"/><path class="cls-2" d="M188.46,204.63a5.94,5.94,0,0,1-.58-1.74l-1.9.54a8.21,8.21,0,0,0,.87,2.35Z"/><path class="cls-2" d="M186.51,193.47l1.61,2a8.67,8.67,0,0,1,2.3-1.28l-.81-2.44A11.51,11.51,0,0,0,186.51,193.47Z"/><path class="cls-2" d="M183.89,196.35l2.33,1.34a7.85,7.85,0,0,1,1.71-2l-1.69-2A10.86,10.86,0,0,0,183.89,196.35Z"/><path class="cls-2" d="M190.67,194.14a8.18,8.18,0,0,1,2.64-.45l.15-2.55a10.78,10.78,0,0,0-3.52.53Z"/><path class="cls-2" d="M189.76,206.32a5.8,5.8,0,0,1-1.21-1.52L187,206a8.67,8.67,0,0,0,1.68,2Z"/><path class="cls-2" d="M202.61,203.84l-2.21-.53a6.43,6.43,0,0,1-1.3,2.3l1.88,1.24A9.36,9.36,0,0,0,202.61,203.84Z"/><path class="cls-2" d="M200.76,207.1l-1.83-1.29c-.06.07-.11.15-.18.22a6.51,6.51,0,0,1-1.85,1.29l1.25,1.79A8.37,8.37,0,0,0,200.76,207.1Z"/><path class="cls-2" d="M193.51,194.34l-.16,1.77a4.61,4.61,0,0,1,1,.09,5.43,5.43,0,0,1,1.87.71l1-1.38a6,6,0,0,0-1.25-.67A6.47,6.47,0,0,0,193.51,194.34Z"/><path class="cls-2" d="M203,200l-2.3.34a7.22,7.22,0,0,1-.23,2.7l2.22.46A9.57,9.57,0,0,0,203,200Z"/><path class="cls-2" d="M191.7,207.51a6.39,6.39,0,0,1-1.8-1l-1,1.76a7.91,7.91,0,0,0,2.44,1.4Z"/><path class="cls-2" d="M197.87,209.27l-1.2-1.85a6.36,6.36,0,0,1-2.33.52l.47,2.07A9.29,9.29,0,0,0,197.87,209.27Z"/><path class="cls-2" d="M194.51,210.05l-.4-2.1a6.62,6.62,0,0,1-2.21-.37l-.33,2.13a7.3,7.3,0,0,0,1.05.25A11.16,11.16,0,0,0,194.51,210.05Z"/><path class="cls-2" d="M186,200.37s0,.1,0,.15l1.89.27a5.55,5.55,0,0,1,.59-1.64l-1.69-.89A6.52,6.52,0,0,0,186,200.37Z"/><path class="cls-2" d="M192.08,205.52a4.53,4.53,0,0,1-1.15-.79l-.75,1.27a5.67,5.67,0,0,0,1.62,1Z"/><path class="cls-2" d="M188.33,202.6l1.34-.33a4.07,4.07,0,0,1-.06-.61,4.43,4.43,0,0,1,.06-.51l-1.36-.14a5,5,0,0,0,0,1.54A.09.09,0,0,0,188.33,202.6Z"/><path class="cls-2" d="M190.84,204.63a4.4,4.4,0,0,1-.75-1l-1.13.87a5.33,5.33,0,0,0,1.09,1.39Z"/><path class="cls-2" d="M190,203.51a4,4,0,0,1-.35-1.12l-1.32.37a5.58,5.58,0,0,0,.52,1.57Z"/><path class="cls-2" d="M191.37,196.51a5.24,5.24,0,0,1,1.79-.4l.11-1.76a7.4,7.4,0,0,0-2.41.45Z"/><path class="cls-2" d="M188.58,196.09l1.14,1.45a5.57,5.57,0,0,1,1.48-1l-.56-1.69A7.64,7.64,0,0,0,188.58,196.09Z"/><path class="cls-2" d="M197.41,195.67,196.34,197a4.71,4.71,0,0,1,1.36,1.42l1.41-.89A6.66,6.66,0,0,0,197.41,195.67Z"/><path class="cls-2" d="M186.85,198.05l1.66.95a6.11,6.11,0,0,1,1.08-1.35l-1.2-1.42A7.67,7.67,0,0,0,186.85,198.05Z"/><path class="cls-2" d="M190.31,200l.83.47a2.24,2.24,0,0,1,.38-.58l-.61-.72A3.32,3.32,0,0,0,190.31,200Z"/><path class="cls-2" d="M200.11,200.43l-1.63.24a5.05,5.05,0,0,1-.16,1.94l1.6.33A6.44,6.44,0,0,0,200.11,200.43Z"/><path class="cls-2" d="M197.81,198.61a5.28,5.28,0,0,1,.65,1.87l1.61-.29a7.19,7.19,0,0,0-.83-2.41Z"/><path class="cls-2" d="M199.85,203.18l-1.57-.38a4.55,4.55,0,0,1-1,1.64l1.3.86A5.86,5.86,0,0,0,199.85,203.18Z"/><path class="cls-2" d="M198.34,205.61a1.42,1.42,0,0,0,.12-.13l-1.27-.91a4.4,4.4,0,0,1-1.52,1l.9,1.29A6.18,6.18,0,0,0,198.34,205.61Z"/><path class="cls-2" d="M196.36,206.94l-.85-1.32a5.45,5.45,0,0,1-1.28.31c-.12,0-.24,0-.36,0l.34,1.48A6,6,0,0,0,196.36,206.94Z"/><path class="cls-2" d="M194.63,201.86a1,1,0,0,0,0-.63l-.79.11s0,.09,0,.13a.86.86,0,0,1,0,.23Z"/><path class="cls-3" d="M378,167.94a195.65,195.65,0,0,0-19.37-62.64L319.7,127.89a145.77,145.77,0,0,1,14.6,48Z"/><path class="cls-4" d="M288.18,221l29.42,6c.06-.24.13-.47.18-.7a131,131,0,0,0,3.34-43.51l-30.28,4.42a96.71,96.71,0,0,1-1.31,28C289.14,217.16,288.68,219.08,288.18,221Z"/><path class="cls-4" d="M280.36,150.72a103.07,103.07,0,0,1,8.08,21.95,106.82,106.82,0,0,1,2,11.13l30.17-5.47a131.94,131.94,0,0,0-13.35-43.25Z"/><path class="cls-5" d="M415.65,161.12l45.81-8.3A273.5,273.5,0,0,0,445.7,89.75a280.06,280.06,0,0,0-12.18-27.9L390.63,86.73A216.65,216.65,0,0,1,415.65,161.12Z"/><path class="cls-5" d="M414,230.77q-1.52,7.68-3.64,15.16l44.33,9a267.45,267.45,0,0,0,7.81-92.84l-45.87,6.69A206.29,206.29,0,0,1,414,230.77Z"/><path class="cls-5" d="M378.62,67.63q4.26,6,8.07,12.32l42.4-26.59a283.63,283.63,0,0,0-60.61-76.19L334.33,20.79A197.41,197.41,0,0,1,378.62,67.63Z"/><path class="cls-6" d="M114.06,220.79a82.35,82.35,0,0,1-.42-27.75l-24.9-2.66a102.2,102.2,0,0,0-1.28,17.28,106.28,106.28,0,0,0,1.85,19.19Z"/><path class="cls-4" d="M61,131.66a137.85,137.85,0,0,0-9,17.4,141.31,141.31,0,0,0-9.78,31.1l35.94,5.09a111.71,111.71,0,0,1,14.3-36.94Z"/><path class="cls-2" d="M192.86,200.43h0l0-.44a1.46,1.46,0,0,0-.44.29l.06.21A.82.82,0,0,1,192.86,200.43Z"/><path class="cls-2" d="M192.09,200.79a.76.76,0,0,1,.09-.09l0,0A.67.67,0,0,0,192.09,200.79Z"/><path class="cls-2" d="M191,199.14l.58.73a2.75,2.75,0,0,1,.59-.48l-.3-.87A3.74,3.74,0,0,0,191,199.14Z"/><path class="cls-2" d="M193.71,202.84l-.27-.42-.08,0a1.4,1.4,0,0,1-.29.09l.05.22A1.56,1.56,0,0,0,193.71,202.84Z"/><path class="cls-6" d="M116.17,182a73.83,73.83,0,0,1,7.7-17.07l-21.58-11.43a100.6,100.6,0,0,0-12.93,33.31l24.73,3.5A75.33,75.33,0,0,1,116.17,182Z"/><path class="cls-2" d="M192.52,200.5l-.07-.18a2,2,0,0,0-.26.25s0,0,0,.06l.05.05A1.05,1.05,0,0,1,192.52,200.5Z"/><path class="cls-2" d="M193,202.48a1,1,0,0,1-.18,0l.22.16Z"/><path class="cls-5" d="M330.61,414.86l-28.09-43.51a191.81,191.81,0,0,1-54.41,15.89q-6,.87-12.08,1.33l7.79,33.72h72.26Q323.51,418.77,330.61,414.86Z"/><path class="cls-5" d="M158.16,383.55a179.4,179.4,0,0,1-57.67-26.12L77.34,396.52a239.15,239.15,0,0,0,40.41,25.77h33Z"/><path class="cls-5" d="M229.4,389c-5.72.25-11.42.24-17.07,0a184,184,0,0,1-48-3.94l-5.78,37.28h77.3Z"/><path class="cls-2" d="M193.09,202.73a1.3,1.3,0,0,1-.33-.23l-.07,0-.08.57a2.11,2.11,0,0,0,.6.3Z"/><path class="cls-2" d="M192.66,202.48a1.13,1.13,0,0,1-.32-.13l-.16.27a1.56,1.56,0,0,0,.38.39Z"/><path class="cls-2" d="M194.1,203.43l-.35-.54a1.43,1.43,0,0,1-.61-.14l.14.62A2.25,2.25,0,0,0,194.1,203.43Z"/><path class="cls-2" d="M192,202.08a1.27,1.27,0,0,1-.15-.31,1.51,1.51,0,0,0,.07.37Z"/><path class="cls-2" d="M191.11,201.25l.69.1a2.37,2.37,0,0,1,.09-.36l-.62-.33A2.34,2.34,0,0,0,191.11,201.25Z"/><path class="cls-2" d="M195,203l-.5-.35a1.44,1.44,0,0,1-.7.22l.36.51A1.88,1.88,0,0,0,195,203Z"/><path class="cls-2" d="M192.31,202.33a.94.94,0,0,1-.26-.23l-.09.08a1.38,1.38,0,0,0,.19.41Z"/><path class="cls-2" d="M194.82,200.35a1.48,1.48,0,0,1,.38.72l.55-.1a2.32,2.32,0,0,0-.41-.92Z"/><path class="cls-2" d="M195.66,202.17l-.58-.14c0,.08-.07.17-.12.25a1.27,1.27,0,0,1-.37.36l.5.33A2.22,2.22,0,0,0,195.66,202.17Z"/><path class="cls-2" d="M193.06,199.19l-.06.66a1.68,1.68,0,0,1,1,0l.4-.55A2.2,2.2,0,0,0,193.06,199.19Z"/><path class="cls-2" d="M192.21,199.36A2.92,2.92,0,0,1,193,199l0-.9a4.28,4.28,0,0,0-1.09.33Z"/><path class="cls-2" d="M194.52,199.35l-.41.53a1.88,1.88,0,0,1,.66.41l.51-.32A2.08,2.08,0,0,0,194.52,199.35Z"/><path class="cls-2" d="M191.3,200.6l.61.36a1.76,1.76,0,0,1,.17-.37l-.44-.52A2.28,2.28,0,0,0,191.3,200.6Z"/><path class="cls-2" d="M195.71,202.06a2.08,2.08,0,0,0,.06-1l-.55.08a1.68,1.68,0,0,1-.1.81l.58.12Z"/><path class="cls-2" d="M194.91,202.24A1,1,0,0,0,195,202l-.38-.09a1.06,1.06,0,0,1-.46.43l.39.26A1.3,1.3,0,0,0,194.91,202.24Z"/><path class="cls-2" d="M193.1,200.48a.86.86,0,0,1,.36.17l.22-.3a1,1,0,0,0-.38,0A1.76,1.76,0,0,0,193.1,200.48Z"/><path class="cls-2" d="M194.47,202.65l-.39-.28a1.06,1.06,0,0,1-.58.06l.28.41A1.4,1.4,0,0,0,194.47,202.65Z"/><path class="cls-2" d="M193.74,200.36l-.25.31a.78.78,0,0,1,.24.27l.55-.34A1,1,0,0,0,193.74,200.36Z"/><path class="cls-2" d="M194.07,202.36l-.39-.27a1.14,1.14,0,0,1-.25.24l.06.09A1,1,0,0,0,194.07,202.36Z"/><path class="cls-2" d="M193.7,202.06l.44.28a1,1,0,0,0,.46-.43l-.75-.17A1,1,0,0,1,193.7,202.06Z"/><path class="cls-2" d="M193.36,202.37l.07,0,0-.05Z"/><path class="cls-2" d="M199.82,197.45a7.18,7.18,0,0,1,.87,2.62l2.29-.41a9.47,9.47,0,0,0-1.1-3.41Z"/><path class="cls-2" d="M194.33,200.63l-.58.34a1,1,0,0,1,.12.34l.79-.14a.19.19,0,0,0,0-.08,1.3,1.3,0,0,0-.08-.17l-.09-.13Z"/><path class="cls-2" d="M193,200l-.05.47.12,0a1.42,1.42,0,0,1,.64-.14l.28-.4A1.6,1.6,0,0,0,193,200Z"/><path class="cls-2" d="M193.75,200.34a1,1,0,0,1,.56.24l.38-.24a1.73,1.73,0,0,0-.64-.38Z"/><path class="cls-2" d="M192.45,200.16a1.66,1.66,0,0,1,.49-.29l0-.65a2.5,2.5,0,0,0-.72.3Z"/><path class="cls-2" d="M195.13,201.16l-.44.06a1,1,0,0,1-.05.64l.38.08A1.47,1.47,0,0,0,195.13,201.16Z"/><path class="cls-2" d="M191.67,200l.43.54s0,0,0,0a2.26,2.26,0,0,1,.29-.32l-.21-.63A2.81,2.81,0,0,0,191.67,200Z"/><path class="cls-2" d="M194.36,200.62s.07.12.12.17l.09.13c0,.06.08.09.1.16a.22.22,0,0,1,0,.08l.44-.08a1.5,1.5,0,0,0-.37-.69Z"/><path class="cls-2" d="M196.6,202.4l-.83-.2a2,2,0,0,1-.57.84l.66.44A2.75,2.75,0,0,0,196.6,202.4Z"/><path class="cls-2" d="M181.57,260.7a59.21,59.21,0,0,1-18.71-8.58L153.48,268A77.76,77.76,0,0,0,178,279.29Z"/><path class="cls-6" d="M208.37,281.1l-3.68-18.87a61.38,61.38,0,0,1-21.1-1.05l-2.91,18.75A77.55,77.55,0,0,0,208.37,281.1Z"/><path class="cls-6" d="M238,271.39,227.33,254.9a62.69,62.69,0,0,1-20.53,7l4.33,18.74A80.5,80.5,0,0,0,238,271.39Z"/><path class="cls-6" d="M262.58,250.93l-16.39-11.62a63.26,63.26,0,0,1-13.13,12.06c-1.25.87-2.54,1.67-3.83,2.44L240.46,270A87,87,0,0,0,262.58,250.93Z"/><path class="cls-2" d="M138.81,214.73a55.34,55.34,0,0,1-.23-19l-17.2-1.83a74.55,74.55,0,0,0,.43,25Z"/><path class="cls-6" d="M278.22,222l-20.12-4.84a65.13,65.13,0,0,1-10.53,20.36l16.85,11.1A82.49,82.49,0,0,0,278.22,222Z"/><path class="cls-2" d="M151.32,266.41l9.91-15.48a57.41,57.41,0,0,1-13.71-14.6l-14.28,11A76.56,76.56,0,0,0,151.32,266.41Z"/><path class="cls-2" d="M131.86,245.12l14.6-10.45a60.25,60.25,0,0,1-6.24-14.13c-.4-1.31-.73-2.62-1-3.94l-16.88,4.76a77.65,77.65,0,0,0,4.26,13.51A76.81,76.81,0,0,0,131.86,245.12Z"/><path class="cls-6" d="M250.46,127.9l-13.64,17.43a72.08,72.08,0,0,1,15.3,19l18.25-11.44A93.6,93.6,0,0,0,250.46,127.9Z"/><path class="cls-6" d="M280.3,213.39a88.28,88.28,0,0,0,1.11-24.82l-20.79,3a67.33,67.33,0,0,1,.07,11.8,61.58,61.58,0,0,1-2,11.55L279,219.1C279.53,217.22,280,215.32,280.3,213.39Z"/><path class="cls-4" d="M102.83,87.53l21.36,27.05a112.6,112.6,0,0,1,34.25-16.2L147.73,66.29A149.18,149.18,0,0,0,102.83,87.53Z"/><path class="cls-4" d="M63.77,127.34,94.54,145c.3-.45.57-.92.87-1.37a113.41,113.41,0,0,1,25.69-26.84L98.77,90.46A148.41,148.41,0,0,0,63.77,127.34Z"/><path class="cls-4" d="M177.91,61.29a139.32,139.32,0,0,0-25.44,3.76l9.58,32.4a109.53,109.53,0,0,1,13.28-2.38,103.62,103.62,0,0,1,23.79-.27l1.95-33.14A135.2,135.2,0,0,0,177.91,61.29Z"/><path class="cls-4" d="M276.28,94.92,256.63,120a102.31,102.31,0,0,1,22.09,27.61l26.46-16.58A136.93,136.93,0,0,0,276.28,94.92Z"/><path class="cls-6" d="M201.79,105.61l-2.11,22.67A69.68,69.68,0,0,1,235,143.72L248,125.81a92,92,0,0,0-46.23-20.2Z"/><path class="cls-6" d="M112.47,139.64a102.68,102.68,0,0,0-8.29,10.91l21.14,12.15a79.06,79.06,0,0,1,18.27-19.34l-15.48-18.28A97.88,97.88,0,0,0,112.47,139.64Z"/><path class="cls-2" d="M164.32,246.1l6.84-10.71a40.11,40.11,0,0,1-8.83-9.31c-.18-.25-.32-.51-.48-.76l-9.91,7.61a54.35,54.35,0,0,0,12.38,13.17Z"/><path class="cls-2" d="M185.1,242.18a39.43,39.43,0,0,1-12.83-6l-6.49,11a53.25,53.25,0,0,0,16.87,7.8Z"/><path class="cls-2" d="M203.54,256.34,201,243.25a42.86,42.86,0,0,1-14.51-.71l-2,12.9A53.55,53.55,0,0,0,203.54,256.34Z"/><path class="cls-2" d="M205.82,256A55.84,55.84,0,0,0,224,249.72l-7.34-11.36a45,45,0,0,1-14.21,4.7l3,13Z"/><path class="cls-3" d="M29.47,84.94c-3.94,5.34-7.57,10.82-10.94,16.41l31.23,17.94a159.57,159.57,0,0,1,19.34-24,164.47,164.47,0,0,1,19.37-17L63.32,48.6A212,212,0,0,0,29.47,84.94Z"/><path class="cls-2" d="M241,235.65l-11.28-8a43.14,43.14,0,0,1-11.79,10l7.74,11.13A59.56,59.56,0,0,0,241,235.65Z"/><path class="cls-2" d="M123.56,184.33a69.56,69.56,0,0,0-1.75,7.11l17.1,2.42a54.54,54.54,0,0,1,6.69-17.39l-15-7.93A69.06,69.06,0,0,0,123.56,184.33Z"/><path class="cls-2" d="M161.13,224.18a39.67,39.67,0,0,1-4.91-12.37l-11.69,3.29A52.94,52.94,0,0,0,151,231.44Z"/><path class="cls-6" d="M130.89,123.06l14.82,18.76a78.45,78.45,0,0,1,23.46-11.27l-7.35-22A102.83,102.83,0,0,0,130.89,123.06Z"/><path class="cls-2" d="M156,210.52a39.56,39.56,0,0,1-.14-13l-11.9-1.27a52.46,52.46,0,0,0,.26,17.14Z"/><path class="cls-2" d="M197.54,151.15A48.5,48.5,0,0,1,222,161.53l9-12.28A62.77,62.77,0,0,0,199,135.42Z"/><path class="cls-6" d="M165.07,107.66l6.58,22.23a72.6,72.6,0,0,1,20.3-2.18c1.76,0,3.49.15,5.22.31l1.34-22.79A99.37,99.37,0,0,0,165.07,107.66Z"/><path class="cls-2" d="M232.61,150.71l-9.33,11.92a47.9,47.9,0,0,1,5.21,5.34,45.84,45.84,0,0,1,5.38,7.8l12.58-7.89a61.82,61.82,0,0,0-8.9-12.41C236,153.76,234.3,152.2,232.61,150.71Z"/><path class="cls-2" d="M254.06,192.56l-14.37,2.1a46.23,46.23,0,0,1-1.26,16.15l14,2.85A59.58,59.58,0,0,0,254.06,192.56Z"/><path class="cls-2" d="M251.86,215.68,238,212.34a41.4,41.4,0,0,1-3.91,9,43.24,43.24,0,0,1-3.36,5.07l11.6,7.63A56.49,56.49,0,0,0,251.86,215.68Z"/><path class="cls-6" d="M281.06,185.51a92.66,92.66,0,0,0-9.23-29.84l-18.58,10.78a68.91,68.91,0,0,1,7.12,22.81Z"/><path class="cls-2" d="M234.66,177.23A49.11,49.11,0,0,1,239.51,193l14.3-2.59a64.54,64.54,0,0,0-6.36-20.64Z"/><path class="cls-6" d="M176.41,287.76a82.59,82.59,0,0,1-27.24-12.53l-13.63,23a110.55,110.55,0,0,0,35.75,16.39Z"/><path class="cls-7" d="M24.88,183.57l-34.56-3.69a225.68,225.68,0,0,0,.78,71l34.62-8.48A173.68,173.68,0,0,1,24.88,183.57Z"/><path class="cls-7" d="M43.88,294.18a179.23,179.23,0,0,1-17-46L-7.6,257.94A237.62,237.62,0,0,0,10,311.47c2.41,5.21,5,10.3,7.79,15.28L49.58,304C47.6,300.78,45.69,297.53,43.88,294.18Z"/><path class="cls-7" d="M52.87,309.07l-31.4,24.14a234.58,234.58,0,0,0,49.8,58.36l24.15-37.76A180.2,180.2,0,0,1,52.87,309.07Z"/><path class="cls-4" d="M96.64,275.43l-30,23.1A163.33,163.33,0,0,0,105,338.84l20.84-32.59A126.18,126.18,0,0,1,96.64,275.43Z"/><path class="cls-7" d="M-8.54,173l34.44,4.88a162.73,162.73,0,0,1,20.81-53.78L15.06,107.32A212.46,212.46,0,0,0-8.54,173Z"/><path class="cls-3" d="M339.34,305.34l-34.53-24.48a130,130,0,0,1-35.47,30.62l23.67,34A179.06,179.06,0,0,0,339.34,305.34Z"/><path class="cls-5" d="M408.11,253.23A196.53,196.53,0,0,1,371.32,319L411,345.12a260.67,260.67,0,0,0,41.19-81.31Z"/><path class="cls-5" d="M308.86,368.31,338.2,410.5a254.47,254.47,0,0,0,67.23-58.31l-39-27.63A199.23,199.23,0,0,1,308.86,368.31Z"/><path class="cls-4" d="M150.41,320.48a119.7,119.7,0,0,1-21.09-11.73l-19.76,33.36a161.39,161.39,0,0,0,52,23.74l7.42-39A116.55,116.55,0,0,1,150.41,320.48Z"/><path class="cls-3" d="M173.24,327.88l-6.1,39.27c.81.17,1.62.36,2.43.52a171.49,171.49,0,0,0,56,1.47l-7.74-39.68A128.53,128.53,0,0,1,173.24,327.88Z"/><path class="cls-3" d="M222.23,328.76l9.11,39.48a179.39,179.39,0,0,0,39.47-11.44,177.51,177.51,0,0,0,17-8.27l-22.46-34.78A138.77,138.77,0,0,1,222.23,328.76Z"/><path class="cls-2" d="M131.93,166.5l14.64,8.41A52.56,52.56,0,0,1,159,161.53L148.4,149A69.61,69.61,0,0,0,131.93,166.5Z"/><path class="cls-6" d="M215.37,317,210,289.61a88.64,88.64,0,0,1-30.68-1.15l-4.2,27.09A114.66,114.66,0,0,0,215.37,317Z"/><path class="cls-6" d="M132.4,296l14.39-22.5a89.52,89.52,0,0,1-20-21.24l-20.7,15.91A109.91,109.91,0,0,0,132.4,296Z"/><path class="cls-6" d="M258.19,302.69l-15.4-23.84a95,95,0,0,1-29.71,10.3l6.29,27.24A124.67,124.67,0,0,0,258.19,302.69Z"/><path class="cls-4" d="M294,273.17l-23.81-16.88a93.73,93.73,0,0,1-24.6,21l16.24,23.35A124.88,124.88,0,0,0,294,273.17Z"/><path class="cls-6" d="M125.24,249.85a84.53,84.53,0,0,1-10.62-26.33l-24.57,6.92a112.88,112.88,0,0,0,14,34.55Z"/><path class="cls-4" d="M78,229.61a118.94,118.94,0,0,1-.61-40.43L41.3,185.32a157.64,157.64,0,0,0,.88,53.07Z"/><path class="cls-4" d="M63.63,293.93l30.75-22a120,120,0,0,1-15-35.9c-.2-.82-.35-1.63-.53-2.44l-35.61,10A160.54,160.54,0,0,0,54.7,277.34,154.61,154.61,0,0,0,63.63,293.93Z"/><path class="cls-3" d="M315.05,119.43c.78,1.32,1.54,2.66,2.28,4l38.23-24A198.84,198.84,0,0,0,314,46.8L285.4,83.28A151.78,151.78,0,0,1,315.05,119.43Z"/><path class="cls-4" d="M253.92,117.71,272.74,91.9a133.62,133.62,0,0,0-66.9-29.67l-3.08,33A103.25,103.25,0,0,1,253.92,117.71Z"/><path class="cls-3" d="M202,46.74,204.75-1a186,186,0,0,0-69.16,9l12.5,42.21A159.46,159.46,0,0,1,202,46.74Z"/><path class="cls-3" d="M308.85,42.37a185,185,0,0,0-32.6-21.9A163.65,163.65,0,0,0,211.69-.38l-4.46,47.76a148.55,148.55,0,0,1,74.24,32.54Z"/><path class="cls-3" d="M371.91,244.53,329.6,234.36a130,130,0,0,1-21.84,42.81l35.42,23.31A177.91,177.91,0,0,0,371.91,244.53Z"/><path class="cls-4" d="M316.43,231.19l-29.16-7a92.24,92.24,0,0,1-15.09,29.55l24.46,16.1A118.34,118.34,0,0,0,316.43,231.19Z"/><path class="cls-3" d="M378.88,207.79a181.18,181.18,0,0,0-.15-33.43l-43.9,6.41a143.88,143.88,0,0,1-3.94,48.93l42.76,8.73A172.28,172.28,0,0,0,378.88,207.79Z"/><path class="cls-3" d="M93,75a162.28,162.28,0,0,1,49.87-23.43L129,10.29A214.39,214.39,0,0,0,68.62,44.23Z"/><path class="cls-2" d="M164.28,185.08l7,4a25.25,25.25,0,0,1,5.71-6.33l-5.05-6A34.2,34.2,0,0,0,164.28,185.08Z"/><path class="cls-2" d="M181.34,204.31a12,12,0,0,1,0-4.05l-3.9-.41a17,17,0,0,0,0,5.42Z"/><path class="cls-2" d="M182.92,208.6a13.69,13.69,0,0,1-1.22-2.78c-.11-.37-.2-.74-.28-1.11l-3.88,1.09a16.83,16.83,0,0,0,2,5.2Z"/><path class="cls-2" d="M170.22,198.29l5.57.79a17,17,0,0,1,2.08-5.52L172.94,191A22.21,22.21,0,0,0,170.22,198.29Z"/><path class="cls-2" d="M190.36,214.56a13.37,13.37,0,0,1-4-2.06l-2.15,3.62a17.58,17.58,0,0,0,5.36,2.71Z"/><path class="cls-2" d="M183.72,215.76l2.26-3.53a12.5,12.5,0,0,1-2.86-3.26l-3.27,2.51A17.75,17.75,0,0,0,183.72,215.76Z"/><path class="cls-2" d="M186.64,180.53l1.5,5.06a16.64,16.64,0,0,1,5.68-.64l.3-5.18A22.23,22.23,0,0,0,186.64,180.53Z"/><path class="cls-2" d="M179.13,184.13l3.39,4.29a18.13,18.13,0,0,1,5.08-2.66l-1.68-5A23.74,23.74,0,0,0,179.13,184.13Z"/><path class="cls-2" d="M174.48,188.7a17.59,17.59,0,0,0-1.1,1.61l4.81,2.76a17.88,17.88,0,0,1,3.88-4.3l-3.54-4.17A21.55,21.55,0,0,0,174.48,188.7Z"/><path class="cls-2" d="M206.08,184.59,203,188.54a15.48,15.48,0,0,1,3.61,4.33l4.16-2.61A20.26,20.26,0,0,0,206.08,184.59Z"/><path class="cls-2" d="M194.24,186.54l-.33,3.6a11.06,11.06,0,0,1,5.66,2.13l2.1-2.87a13,13,0,0,0-2.31-1.42A13.66,13.66,0,0,0,194.24,186.54Z"/><path class="cls-2" d="M206.86,193.37a16.4,16.4,0,0,1,1.69,5.28l4.72-.86a21,21,0,0,0-2.16-6.89Z"/><path class="cls-2" d="M213.37,198.5l-4.74.69a15.11,15.11,0,0,1-.41,5.44l4.6.94A20.24,20.24,0,0,0,213.37,198.5Z"/><path class="cls-2" d="M194.87,179.84l-.48,5.16a15.85,15.85,0,0,1,5.64,1.64,14.19,14.19,0,0,1,2.5,1.56l3-4.08a21.06,21.06,0,0,0-8-3.84A20.6,20.6,0,0,0,194.87,179.84Z"/><path class="cls-2" d="M209,212.93l-3.8-2.69c-.15.17-.28.36-.45.53a14.15,14.15,0,0,1-3.55,2.7l2.55,3.68A18.93,18.93,0,0,0,209,212.93Z"/><path class="cls-2" d="M200.46,218.62a21.21,21.21,0,0,0,2.69-1.18l-2.42-3.73a14.15,14.15,0,0,1-4.75,1.38l1,4.34A18.33,18.33,0,0,0,200.46,218.62Z"/><path class="cls-2" d="M196.36,219.5l-.85-4.36a14,14,0,0,1-4.71-.46l-.67,4.32A17.43,17.43,0,0,0,196.36,219.5Z"/><path class="cls-2" d="M212.64,206.25l-4.59-1.1a13.72,13.72,0,0,1-2.52,4.69l3.88,2.56A18.54,18.54,0,0,0,212.64,206.25Z"/><path class="cls-2" d="M206.72,204.83l-3.2-.77a10.18,10.18,0,0,1-1.79,3.28l2.68,1.77A12.52,12.52,0,0,0,206.72,204.83Z"/><path class="cls-2" d="M178.15,196.83a19.89,19.89,0,0,0-.65,2.49l3.9.55a12,12,0,0,1,1.38-3.71l-3.46-1.83A14.63,14.63,0,0,0,178.15,196.83Z"/><path class="cls-2" d="M202.07,189.72l-2.18,2.78a10.64,10.64,0,0,1,2.62,2.93l2.87-1.79A14.36,14.36,0,0,0,202.07,189.72Z"/><path class="cls-2" d="M179.58,193.87l3.39,1.95a12.32,12.32,0,0,1,2.56-3L183.1,190A15.31,15.31,0,0,0,179.58,193.87Z"/><path class="cls-2" d="M186.2,206.25a8.29,8.29,0,0,1-.95-2.62l-2.69.76a12.19,12.19,0,0,0,1.34,3.5Z"/><path class="cls-2" d="M193.81,191.16l-.24,2.54a7.25,7.25,0,0,1,4,1.31l1.42-1.94c-.26-.18-.48-.38-.76-.55A9.39,9.39,0,0,0,193.81,191.16Z"/><path class="cls-2" d="M186.64,211.2l1.59-2.48a9,9,0,0,1-1.9-2.22l-2.24,1.72A12.55,12.55,0,0,0,186.64,211.2Z"/><path class="cls-2" d="M183.51,189.67l2.31,2.93a11.78,11.78,0,0,1,3.44-1.86l-1.16-3.46A16.74,16.74,0,0,0,183.51,189.67Z"/><path class="cls-2" d="M188.59,187.13l1,3.5a12,12,0,0,1,2.27-.47,11,11,0,0,1,1.62,0l.21-3.6A15.18,15.18,0,0,0,188.59,187.13Z"/><path class="cls-2" d="M185.19,203.37a9.32,9.32,0,0,1,0-2.69l-2.77-.3a11.17,11.17,0,0,0,.05,3.65Z"/><path class="cls-2" d="M206.89,204.27a12.8,12.8,0,0,0,.38-4.88l-3.32.48a10.23,10.23,0,0,1-.33,3.82l3.24.67Z"/><path class="cls-2" d="M183.8,170.94l2.19,7.39c.46-.13.91-.28,1.38-.38a23.45,23.45,0,0,1,6.89-.43l.44-7.54A31.27,31.27,0,0,0,183.8,170.94Z"/><path class="cls-2" d="M202.68,195.79a8.9,8.9,0,0,1,.59,1.2,9.89,9.89,0,0,1,.64,2.5l3.29-.6a14.71,14.71,0,0,0-1.58-4.81Z"/><path class="cls-2" d="M191.15,210.38a9.55,9.55,0,0,1-2.69-1.48L187,211.45a11.48,11.48,0,0,0,3.63,2Z"/><path class="cls-2" d="M204.1,209.47l-2.62-1.86a9,9,0,0,1-2.18,1.85c-.22.14-.44.24-.67.36l1.78,2.55A13.16,13.16,0,0,0,204.1,209.47Z"/><path class="cls-2" d="M195.27,213.92l-.59-3a9.44,9.44,0,0,1-3.23-.41l-.47,3a8.36,8.36,0,0,0,1,.23A11.8,11.8,0,0,0,195.27,213.92Z"/><path class="cls-2" d="M200,212.58l-1.68-2.6a9.22,9.22,0,0,1-3.31.91l.69,3A13.3,13.3,0,0,0,200,212.58Z"/><path class="cls-2" d="M220.36,166.36l-6.49,8.28a33,33,0,0,1,7.35,9.06l8.68-5.44A45.46,45.46,0,0,0,220.36,166.36Z"/><path class="cls-2" d="M187.52,229.45a27.94,27.94,0,0,1-8.73-4.23l-4.5,7.6a34,34,0,0,0,11.55,5.45Z"/><path class="cls-2" d="M173.3,232.05l4.72-7.38a27.83,27.83,0,0,1-6.35-6.9L165,222.94A37.52,37.52,0,0,0,173.3,232.05Z"/><path class="cls-2" d="M214.35,234.8l-5.08-7.88a30.87,30.87,0,0,1-9.81,3.24l2.07,9A40.79,40.79,0,0,0,214.35,234.8Z"/><path class="cls-2" d="M200.21,239.28l-1.75-9a28.27,28.27,0,0,1-6.63,0,26.86,26.86,0,0,1-3.36-.61l-1.38,8.86A36.49,36.49,0,0,0,200.21,239.28Z"/><path class="cls-2" d="M172.83,176.16l4.84,6.12a25.34,25.34,0,0,1,7.52-3.74l-2.44-7.31A33.61,33.61,0,0,0,172.83,176.16Z"/><path class="cls-2" d="M144.21,194.61,156,196.28a37.23,37.23,0,0,1,4.48-11.91l-10.36-5.49A47.3,47.3,0,0,0,144.21,194.61Z"/><path class="cls-2" d="M171.19,217a26.66,26.66,0,0,1-2.13-4.4,26.36,26.36,0,0,1-1.18-4.06l-8.07,2.28a37.17,37.17,0,0,0,4.49,11.11Z"/><path class="cls-2" d="M167.69,207.65a26.34,26.34,0,0,1-.11-8.85l-8.22-.88c-.08.49-.14,1-.19,1.47a33.82,33.82,0,0,0,.39,10.25Z"/><path class="cls-2" d="M150.32,147.65l10.12,12.82c1-.72,2.07-1.42,3.16-2.07a51.83,51.83,0,0,1,13-5.69l-5-15.14A71.36,71.36,0,0,0,150.32,147.65Z"/><path class="cls-2" d="M197.1,155.93l-1,10.87a32.23,32.23,0,0,1,13.11,4.47A31.31,31.31,0,0,1,213,173.9l6.22-8.53a41.79,41.79,0,0,0-15.65-8.13A44.7,44.7,0,0,0,197.1,155.93Z"/><path class="cls-2" d="M156.28,170.89a45.3,45.3,0,0,0-5.23,6.59l10.12,5.82a35.27,35.27,0,0,1,7.88-8.71l.61-.46-7.35-8.67A46.3,46.3,0,0,0,156.28,170.89Z"/><path class="cls-2" d="M226.24,225.16l-7.86-5.57a30.78,30.78,0,0,1-8.21,6.82l5.36,7.7A40.24,40.24,0,0,0,226.24,225.16Z"/><path class="cls-2" d="M173.75,137l4.52,15.28a52.27,52.27,0,0,1,17.55-1.3l.93-15.77A68,68,0,0,0,173.75,137Z"/><path class="cls-2" d="M221.78,184.7a33.58,33.58,0,0,1,3.4,10.93l9.94-1.8a44.65,44.65,0,0,0-4.51-14.25Z"/><path class="cls-2" d="M230.32,219.22a39.29,39.29,0,0,0,3.41-7.9l-9.58-2.3a29.86,29.86,0,0,1-5.08,9.74l8.05,5.3A35.87,35.87,0,0,0,230.32,219.22Z"/><path class="cls-2" d="M235.29,195.3l-9.95,1.45a31.44,31.44,0,0,1-.91,11.2l9.72,2A40.49,40.49,0,0,0,235.29,195.3Z"/><path class="cls-2" d="M207.72,224.53l-3.49-5.41a20.47,20.47,0,0,1-6.82,2.12l1.42,6.16A28,28,0,0,0,207.72,224.53Z"/><path class="cls-2" d="M178.94,222l.52.39,3.25-5.09a18.17,18.17,0,0,1-4.28-4.77l-4.67,3.6c.56.86,1.16,1.72,1.75,2.45A33.56,33.56,0,0,0,178.94,222Z"/><path class="cls-2" d="M172.79,214.6c.16.28.34.57.52.87l4.81-3.44a19.46,19.46,0,0,1-2.17-5.78l-5.63,1.59a22.76,22.76,0,0,0,.58,2.3A32.42,32.42,0,0,0,172.79,214.6Z"/><path class="cls-2" d="M188,226.77l1.17-6.15a19.12,19.12,0,0,1-6-2.9l-3.08,5.22a30.59,30.59,0,0,0,2.8,1.8A24.38,24.38,0,0,0,188,226.77Z"/><path class="cls-2" d="M163.61,164.48l7,8.91a36,36,0,0,1,11-5.36l-3.52-10.54A48.88,48.88,0,0,0,163.61,164.48Z"/><path class="cls-2" d="M199.28,193.28l-1.49,1.9a7.15,7.15,0,0,1,1.25,1.16,6.94,6.94,0,0,1,.62.88l2-1.27A10.06,10.06,0,0,0,199.28,193.28Z"/><path class="cls-2" d="M175.84,205.66a22.76,22.76,0,0,1-.32-2.4,16.54,16.54,0,0,1,.16-3.6l-5.62-.6a24.63,24.63,0,0,0,.11,8Z"/><path class="cls-2" d="M197.92,227.54l-1.21-6.22a20.5,20.5,0,0,1-6.86-.53l-1,6.21A26.13,26.13,0,0,0,197.92,227.54Z"/><path class="cls-2" d="M159.55,196.78l8.21,1.16a25.58,25.58,0,0,1,3.08-8.1l-7.17-3.8A32,32,0,0,0,159.55,196.78Z"/><path class="cls-2" d="M195.08,177.59a23.5,23.5,0,0,1,11.72,4.77l4.26-5.85a29.7,29.7,0,0,0-15.28-6.42Z"/><path class="cls-2" d="M211.88,177.19l-4.46,5.68a23.3,23.3,0,0,1,5.16,6.25l6-3.75A30.88,30.88,0,0,0,211.88,177.19Z"/><path class="cls-2" d="M179.71,157.09l3.14,10.61a36.49,36.49,0,0,1,12-1l.64-10.9A47.11,47.11,0,0,0,179.71,157.09Z"/><path class="cls-2" d="M213,189.81a23.59,23.59,0,0,1,2.37,7.61l6.87-1.25a30.32,30.32,0,0,0-3.17-9.88Z"/><path class="cls-2" d="M222.33,197.19l-6.88,1a22.22,22.22,0,0,1-.62,7.79l6.68,1.36A27.78,27.78,0,0,0,222.33,197.19Z"/><path class="cls-2" d="M221.22,208.31l-6.6-1.58a19.52,19.52,0,0,1-2.45,5.21c-.36.53-.74,1.05-1.13,1.54l5.54,3.64A27.72,27.72,0,0,0,221.22,208.31Z"/><path class="cls-2" d="M215.37,218.59c.21-.23.39-.48.59-.71l-5.4-3.83a20.75,20.75,0,0,1-5.69,4.73l3.69,5.31A26,26,0,0,0,215.37,218.59Z"/><path class="cls-2" d="M194.57,200.92l-.09-.13Z"/></svg>