<?xml version="1.0" encoding="utf-8"?>
<!-- Generator: Adobe Illustrator 26.0.3, SVG Export Plug-In . SVG Version: 6.00 Build 0)  -->
<svg version="1.1" id="Слой_1" xmlns="http://www.w3.org/2000/svg" xmlns:xlink="http://www.w3.org/1999/xlink" x="0px" y="0px"
	 viewBox="0 0 420 420" style="enable-background:new 0 0 420 420;" xml:space="preserve">
<style type="text/css">
	.st0{fill:#431407;}
	.st1{fill:#31B39F;}
	.st2{fill:#9A3412;}
	.st3{fill:#ED6D1D;}
	.st4{fill:#76B82A;}
	.st5{fill:#E40F2A;}
</style>
<rect x="-6" y="-8.7" class="st0" width="432" height="437.5"/>
<g>
	<g>
		<path class="st1" d="M279.8,167.9c-0.5-0.3-1-0.6-1.5-0.8v1.1c0.5,0.1,0.9,0.4,1.2,0.8l0,0l0.7-1L279.8,167.9z"/>
		<path class="st1" d="M276.1,166.9v1.3c0.5-0.1,1-0.1,1.5,0V167C277.1,166.8,276.6,166.8,276.1,166.9z"/>
		<path class="st1" d="M274.3,168.7c0.4-0.3,0.9-0.5,1.4-0.6v-1.2c-0.7,0.1-1.3,0.4-1.8,0.7L274.3,168.7z"/>
		<path class="st1" d="M281,169.9l-0.9,0.6c0.1,0.4,0.1,0.9,0,1.3h1.1C281.3,171.2,281.2,170.5,281,169.9z"/>
		<path class="st1" d="M272.7,169.1l1,0.8c0.2-0.4,0.6-0.8,1-1.1l-0.7-1C273.5,168.1,273,168.6,272.7,169.1z"/>
		<path class="st1" d="M279.9,168.2l-0.6,1c0.3,0.3,0.5,0.7,0.6,1.1l1-0.4C280.8,169.2,280.4,168.6,279.9,168.2z"/>
		<path class="st1" d="M280.2,171.8v1h1.1v-1.4L280.2,171.8z"/>
		<path class="st1" d="M278.4,174.2c-0.3,0-0.5,0.1-0.8,0v1c0.3,0,0.7,0,1,0L278.4,174.2z"/>
		<path class="st1" d="M277.6,174.4h-0.7v1c0,0,0,0,0.5,0c0.2,0,0.4,0,0.5,0L277.6,174.4z"/>
		<path class="st1" d="M280.9,173.1h-1.1c-0.1,0.3-0.3,0.6-0.5,0.8l1,0.5l0.5-0.8L280.9,173.1z"/>
		<path class="st1" d="M279.2,173.7c-0.2,0.2-0.4,0.3-0.7,0.4l0.6,0.9c0.4-0.2,0.7-0.4,1-0.7L279.2,173.7z"/>
		<path class="st1" d="M274.5,176.6l0.7-1.1c-0.4-0.2-0.7-0.5-1-0.8l-1,1C273.6,176,274,176.3,274.5,176.6z"/>
		<path class="st1" d="M276.4,177.2v-1.4c-0.4,0.1-0.8,0.1-1.1,0l-0.6,1.2C275.2,177.2,275.8,177.2,276.4,177.2z"/>
		<path class="st1" d="M273.8,170l0.8,0.6c0.1-0.3,0.4-0.7,0.7-0.9l-0.5-0.8C274.4,169.3,274.1,169.6,273.8,170z"/>
		<path class="st1" d="M278.7,172.7c0,0,0,0,0,0.4h0.8l0.6-0.6L278.7,172.7z"/>
		<path class="st1" d="M278.3,173.2c0,0,0,0-0.4,0l0.4,0.6c0.2,0,0.5,0,0.7,0L278.3,173.2z"/>
		<path class="st1" d="M279.1,172c0.1,0.2,0.1,0.5,0,0.7h0.9v-1L279.1,172z"/>
		<path class="st1" d="M279.8,170.5l-0.6,0.4v0.9h0.8C280,171.4,280,171,279.8,170.5z"/>
		<path class="st1" d="M272.4,174.4l0.9,1.1l1-0.9l-0.7-0.9l-1.3,0.5L272.4,174.4z"/>
		<path class="st1" d="M276.7,175.4v-1c-0.2,0.1-0.5,0.1-0.7,0l-0.4,0.9C275.9,175.4,276.3,175.4,276.7,175.4z"/>
		<path class="st1" d="M277.3,173.6L277.3,173.6v0.7h0.6L277.3,173.6z"/>
		<path class="st1" d="M277.8,173.5L277.8,173.5v0.7c0,0,0.4,0,0.6,0L277.8,173.5z"/>
		<path class="st1" d="M274.4,172.2c-0.2-0.5-0.2-1,0-1.5l-0.8-0.6c-0.2,0.7-0.1,1.4,0,2L274.4,172.2z"/>
		<path class="st1" d="M279.2,169.3l-0.5,0.7c0.3,0.2,0.4,0.5,0.5,0.9l0.7-0.5C279.7,170,279.5,169.7,279.2,169.3z"/>
		<path class="st1" d="M273.2,172.2c-0.1-0.5-0.1-0.9,0-1.4v-0.7l-1.1-0.8c-0.5,0.8-0.8,1.8-0.7,2.7L273.2,172.2z"/>
		<path class="st1" d="M273.6,173.5v-1.3h-1.3c-0.1,0.6-0.1,1.2,0,1.7L273.6,173.5z"/>
		<path class="st1" d="M276.3,168.3v0.9c0.3,0,0.7-0.1,1,0v-0.9C277,168.3,276.7,168.3,276.3,168.3z"/>
		<path class="st1" d="M275,168.9l0.5,0.8c0.3-0.1,0.7-0.1,1,0v-0.9l0,0L275,168.9z"/>
		<path class="st1" d="M281.7,171.5c0.1,0.5,0.1,1.1,0,1.6h1.5c0.3-0.7,0.4-1.4,0.4-2.1L281.7,171.5z"/>
		<path class="st1" d="M274.6,183.1h1l0.4-2.9l0,0c-0.9-0.1-1.7-0.4-2.5-0.8l-1.3,2.5C272.9,182.4,273.7,182.9,274.6,183.1z"/>
		<path class="st1" d="M278.4,177.6L278.4,177.6c-0.6,0.1-1.2,0.1-1.7,0v2c0.8,0.2,1.7,0.1,2.5,0L278.4,177.6z"/>
		<path class="st1" d="M280.4,177c-0.6,0.3-1.2,0.5-1.8,0.6l0.6,2c0.9-0.2,1.7-0.5,2.5-1L280.4,177z"/>
		<path class="st1" d="M268.7,178.9l2.2-1.7c-0.6-0.7-1.1-1.5-1.4-2.4l-2.5,0.9C267.3,176.8,267.9,177.9,268.7,178.9z"/>
		<path class="st1" d="M271.8,182l1.4-2.5c-0.8-0.5-1.5-1.1-2.1-1.8l-2.1,1.9C269.8,180.5,270.7,181.3,271.8,182z"/>
		<path class="st1" d="M269.3,174.8c-0.3-0.9-0.5-1.8-0.5-2.8l-3.1,0.1c0,1.2,0.2,2.5,0.7,3.7L269.3,174.8z"/>
		<path class="st1" d="M282.2,175.6c-0.4,0.5-1,1-1.5,1.3l1.3,1.5c0.8-0.5,1.5-1.1,2.1-1.8L282.2,175.6z"/>
		<path class="st1" d="M279.3,162.1l-0.5,2.4c0.9,0.3,1.8,0.7,2.5,1.4l1.3-2C281.6,163,280.5,162.5,279.3,162.1z"/>
		<path class="st1" d="M283,164l-1.4,1.9l0,0c0.5,0.6,1,1.2,1.3,1.9l1.9-1.3C284.4,165.6,283.8,164.7,283,164z"/>
		<path class="st1" d="M269.5,171.9h1.8V171c0.2-0.7,0.4-1.4,0.7-2l-1.5-1l-0.7,1.3C269.6,170.1,269.5,171,269.5,171.9z"/>
		<path class="st1" d="M275.3,161.8v2.4c1-0.2,1.9-0.2,2.9-0.1l0.4-2.3C277.5,161.6,276.4,161.6,275.3,161.8z"/>
		<path class="st1" d="M283.2,173.5c-0.2,0.7-0.5,1.4-1,1.9l1.9,1c0.6-0.8,1.1-1.7,1.3-2.6L283.2,173.5z"/>
		<path class="st1" d="M285.2,167l-2,1.3c0.4,0.8,0.6,1.6,0.7,2.4l2.2-0.9C285.9,168.9,285.6,167.9,285.2,167z"/>
		<path class="st1" d="M286,170.5l-2.2,0.5c0.1,0.7,0.2,1.5,0,2.3h2.3v-1L286,170.5z"/>
		<path class="st1" d="M275.9,179.6L275.9,179.6v-1.9c-0.6-0.1-1.2-0.3-1.8-0.6l-0.9,1.8C274.1,179.4,275,179.6,275.9,179.6z"/>
		<path class="st1" d="M281.3,173.1c-0.2,0.4-0.5,0.9-0.9,1.2l1.3,0.8c0.4-0.5,0.8-1.1,1-1.7L281.3,173.1z"/>
		<path class="st1" d="M278.3,177.1v-1.4c-0.2,0-0.4,0.1-0.6,0c-0.2,0-0.4,0-0.5,0v1.5c0.6,0.1,1.1,0.1,1.7,0L278.3,177.1z"/>
		<path class="st1" d="M280.4,174.5c-0.3,0.3-0.6,0.6-1,0.8l0.9,1.2c0.5-0.3,1-0.7,1.5-1.2L280.4,174.5z"/>
		<path class="st1" d="M279.2,175.4c-0.4,0.2-0.7,0.3-1.1,0.5v1.3c0.6-0.1,1.1-0.3,1.7-0.6L279.2,175.4z"/>
		<path class="st1" d="M271.8,174.1c-0.2-0.6-0.4-1.3-0.5-1.9h-1.8c-0.1,0.8-0.1,1.7,0,2.5L271.8,174.1z"/>
		<path class="st1" d="M271.4,177l1.5-1.2c-0.4-0.5-0.8-1-1.1-1.6l-1.7,0.6C270.4,175.7,270.9,176.4,271.4,177z"/>
		<path class="st1" d="M270.8,167.7l1.4,1.1c0.3-0.6,0.9-1.1,1.5-1.4l-1-1.5C272,166.4,271.3,167,270.8,167.7z"/>
		<path class="st1" d="M273.6,178.8l0.9-1.8c-0.5-0.3-1-0.7-1.4-1.1l-1.5,1.3C272.2,177.9,272.8,178.4,273.6,178.8z"/>
		<path class="st1" d="M275.5,175.2l0.5-0.9h-0.6l-0.8,0.6C274.9,175,275.2,175.1,275.5,175.2z"/>
		<path class="st1" d="M275.8,164.8v1.7c0.7-0.1,1.3-0.2,2,0v-1.7C277.1,164.7,276.4,164.7,275.8,164.8z"/>
		<path class="st1" d="M273.9,167.2c0.6-0.3,1.3-0.6,2-0.7v-1.7c-0.9,0.2-1.7,0.5-2.5,0.9L273.9,167.2z"/>
		<path class="st1" d="M278.6,165.1v1.7c0.7,0.2,1.3,0.5,1.8,1l0.8-1.4C280.5,165.7,279.6,165.2,278.6,165.1z"/>
		<path class="st1" d="M281.3,166.6L281.3,166.6l-0.9,1.4c0.5,0.4,0.8,1,1.1,1.6l1.4-1C282.4,167.8,281.9,167.1,281.3,166.6z"/>
		<path class="st1" d="M283.1,168.6l-1.4,0.9c0.1,0.4,0.1,0.9,0,1.3v0.4h1.6C283.4,170.4,283.3,169.5,283.1,168.6z"/>
		<path class="st1" d="M277.4,170.6c-0.2-0.1-0.4-0.1-0.6,0v0.8l0,0L277.4,170.6z"/>
		<path class="st2" d="M238.1-21.6C215.2-18.2,193-10.9,172.6,0l24.5,40.4c15.7-8.3,32.7-13.8,50.2-16.3L238.1-21.6z"/>
		<path class="st3" d="M295.7,71.7l5.7-31.1c-0.2,0-0.5,0-0.7,0c-15-3.5-30.5-4.3-45.9-2.6l5.2,31.7c9.8-1.2,19.7-0.9,29.5,0.8
			C291.7,70.8,293.7,71.2,295.7,71.7z"/>
		<path class="st3" d="M221.9,81.3c7.3-3.9,14.9-7,22.9-9.2c3.8-0.9,7.7-1.7,11.7-2.3l-6.4-31.6c-15.8,2.3-31.1,7.3-45.3,14.8
			L221.9,81.3z"/>
		<path class="st1" d="M275.9,172.5L275.9,172.5h-0.4l0,0l0,0H275.9z"/>
		<path class="st1" d="M276.4,173.2L276.4,173.2L276.4,173.2z"/>
		<path class="st1" d="M274.5,174.4l0.7-0.6c-0.2-0.2-0.3-0.4-0.4-0.6h-1C273.9,173.6,274.1,174.1,274.5,174.4z"/>
		<path class="st1" d="M278.4,171.5H278l0,0l0,0H278.4z"/>
		<path class="st1" d="M276,172.8L276,172.8L276,172.8L276,172.8z"/>
		<path class="st1" d="M278.1,172.2L278.1,172.2L278.1,172.2z"/>
		<path class="st1" d="M278.3,172.1L278.3,172.1L278.3,172.1h0.6v-0.6L278.3,172.1z"/>
		<path class="st1" d="M278.1,172.6L278.1,172.6L278.1,172.6v-0.4V172.6z"/>
		<path class="st1" d="M279,171.1h-0.5v0.6h0.7L279,171.1z"/>
		<path class="st1" d="M277.7,173.3L277.7,173.3c0.1,0,0.3,0,0.4,0H277.7z"/>
		<path class="st1" d="M276.8,174.3v-0.7l0,0V174.3C276.8,174.2,276.8,174.2,276.8,174.3z"/>
		<path class="st1" d="M278.6,170v0.5c0,0.3,0,0.5,0,0.8l0.5-0.4C279,170.5,278.8,170.2,278.6,170z"/>
		<path class="st1" d="M277.9,172.9L277.9,172.9L277.9,172.9h0.4H277.9z"/>
		<path class="st1" d="M275.8,170c0.3-0.1,0.5-0.1,0.8,0v-0.6c-0.3,0.1-0.7,0.3-1,0.5L275.8,170z"/>
		<path class="st1" d="M277.7,169.4v0.6l0,0c0.1,0,0.3,0,0.4,0v-0.5C278,169.5,277.8,169.5,277.7,169.4z"/>
		<path class="st1" d="M274.4,172.2h0.9c-0.1-0.3-0.1-0.7,0-1l-0.5-0.4C274.5,171.2,274.4,171.7,274.4,172.2z"/>
		<path class="st1" d="M274.4,173.2v-0.9h-1v1.1L274.4,173.2z"/>
		<path class="st1" d="M274.4,170.7l0.6,0.4c0.1-0.3,0.2-0.5,0.4-0.7v-0.5C275,170,274.6,170.3,274.4,170.7z"/>
		<path class="st1" d="M276.1,174.1v-0.7l0,0l-0.5,0.5L276.1,174.1z"/>
		<path class="st1" d="M277.6,169.4c-0.3-0.1-0.7-0.1-1,0v0.5c0.3-0.1,0.6-0.1,0.9,0L277.6,169.4z"/>
		<path class="st1" d="M277.8,170L277.8,170v0.4c0,0.1,0,0.3,0,0.4l0,0C277.9,170.6,277.9,170.2,277.8,170z"/>
		<path class="st1" d="M276,172.2L276,172.2L276,172.2v0.4V172.2z"/>
		<path class="st1" d="M278.2,170.7v0.4c0,0,0,0.4,0,0.6h0.4L278.2,170.7z"/>
		<path class="st1" d="M275.8,171.5L275.8,171.5L275.8,171.5V171V171.5z"/>
		<path class="st1" d="M277.9,171.1v0.4l0,0l0,0C277.9,171.5,278,171.4,277.9,171.1z"/>
		<path class="st1" d="M277.6,171.5V171c0-0.1,0-0.3,0-0.4V171.5L277.6,171.5z"/>
		<path class="st1" d="M278,171.9L278,171.9z"/>
		<path class="st1" d="M272.6,165.2c0.9-0.5,1.8-0.8,2.8-0.9l-0.5-2.4c-1.2,0.2-2.5,0.6-3.6,1.2L272.6,165.2z"/>
		<path class="st1" d="M276.1,170.9v0.6l0,0v-0.9l0,0l0,0l0,0V170.9z"/>
		<path class="st1" d="M275.5,172.3h0.5l0,0v-0.6h-0.4C275.5,171.9,275.5,172.1,275.5,172.3z"/>
		<path class="st1" d="M275.8,171.5c-0.1-0.2-0.1-0.4,0-0.6l0,0C275.7,171.1,275.7,171.3,275.8,171.5L275.8,171.5z"/>
		<path class="st1" d="M275.6,172.9v-0.5h-1.2v0.8L275.6,172.9z"/>
		<path class="st1" d="M276.6,170L276.6,170c0.2-0.1,0.4-0.1,0.6,0l0,0C277.1,169.9,276.8,169.9,276.6,170z"/>
		<path class="st1" d="M275.5,173.7l0.6-0.4l0,0l0,0h-0.7L275.5,173.7z"/>
		<path class="st1" d="M276.1,170.9L276.1,170.9L276.1,170.9L276.1,170.9L276.1,170.9c-0.2,0-0.5,0-0.7,0H276.1z"/>
		<path class="st1" d="M277.9,168.5v0.9c0.3,0.1,0.6,0.3,0.9,0.6l0.4-0.7C278.9,168.9,278.4,168.6,277.9,168.5z"/>
		<path class="st4" d="M339.6,183.1c-1.6,7-4.5,13.7-8.4,19.8l16.6,9.4c5.3-8.1,9.2-17,11.4-26.4L339.6,183.1z"/>
		<path class="st4" d="M360.5,154.5l-19.9,4.2c1.1,7.4,0.9,14.9-0.6,22.2l19.7,2.8C361.8,174.1,362,164.2,360.5,154.5z"/>
		<path class="st4" d="M349.7,123.5l-17.3,11.6c3.8,6.6,6.4,13.9,7.7,21.4l19.7-4.9C358.2,141.7,354.7,132.2,349.7,123.5z"/>
		<path class="st4" d="M327.6,98.1l-11.9,17.7c5,3.9,9.3,8.4,13,13.6c0.9,1.3,1.8,2.6,2.6,4l16.8-12.1
			C342.7,112.4,335.7,104.6,327.6,98.1z"/>
		<path class="st4" d="M296.9,82.2l-4.7,21.2c7.8,2.3,15.1,5.9,21.6,10.7l11.3-17.7C316.7,90,307.1,85.2,296.9,82.2z"/>
		<path class="st4" d="M198.5,113.2l18.6,14.2c5.6-6.6,12.2-12.2,19.7-16.5l-12.4-18.6C214.6,97.8,205.9,104.9,198.5,113.2z"/>
		<path class="st4" d="M287.8,80.2c-8.7-1.4-17.5-1.7-26.2-0.6l3.6,21.8c4.1-0.4,8.3-0.5,12.4-0.2s8.2,0.9,12.2,1.9l4-21.4
			C291.8,81,289.8,80.5,287.8,80.2z"/>
		<path class="st3" d="M163.3,86.7l26.6,20.2c8.1-9.5,17.7-17.6,28.6-23.8l-18-27.5C186.4,63.8,173.9,74.3,163.3,86.7z"/>
		<path class="st4" d="M176,164.9l23.9,1.8c1.5-13.7,6.9-26.7,15.5-37.5l-19-13.3C185.1,130,178.1,147,176,164.9L176,164.9z"/>
		<path class="st1" d="M320,179.8c-1.2,4.9-3.2,9.5-6,13.7l11.7,6.6c3.6-5.4,6.3-11.3,7.9-17.6L320,179.8z"/>
		<path class="st1" d="M334.5,160.2l-13.7,3c0.7,5.1,0.5,10.3-0.5,15.3l13.7,1.8C335.4,173.7,335.6,166.8,334.5,160.2z"/>
		<path class="st1" d="M334.1,157.7c-1.2-6.7-3.5-13.1-6.9-19l-11.8,7.9c2.5,4.6,4.3,9.7,5.3,14.8l13.6-3.4L334.1,157.7z"/>
		<path class="st1" d="M312,121.1l-8.5,12c4.3,3.4,7.9,7.5,10.7,12.2l12-8.4C322.4,130.9,317.6,125.5,312,121.1z"/>
		<path class="st1" d="M224,168.5c1-9.5,4.6-18.5,10.4-26l-13.2-9.2c-7.8,9.7-12.6,21.5-14,33.9L224,168.5z"/>
		<path class="st1" d="M222.9,131.6l12.7,9.6c3.8-4.6,8.4-8.4,13.6-11.4l-8.5-13c-4.7,2.6-9,5.9-12.8,9.6
			C226,128,224.4,129.7,222.9,131.6z"/>
		<path class="st1" d="M266.4,108.2l2.6,15.1c5.7-0.6,11.4-0.3,17,1l2.8-14.7C281.4,107.7,273.8,107.3,266.4,108.2z"/>
		<path class="st1" d="M290.7,110l-3.2,14.7c3.3,1,6.5,2.3,9.5,3.9c1.9,1,3.7,2.2,5.4,3.5l7.8-12.4
			C304.4,115.4,297.7,112.1,290.7,110z"/>
		<path class="st4" d="M258.5,79.9c-10.9,1.6-21.5,5.1-31.3,10.3l11.7,19.3c7.4-4.1,15.5-6.8,23.9-8L258.5,79.9z"/>
		<path class="st1" d="M250.7,129c5.2-2.7,10.7-4.6,16.5-5.5l-2.7-15c-7.6,1.1-14.9,3.5-21.6,7.1L250.7,129z"/>
		<path class="st3" d="M368.1,188c-2.4,10.3-6.7,20.1-12.7,28.9l24.6,13.9c7.8-11.5,13.5-24.4,16.8-37.9L368.1,188z"/>
		<path class="st5" d="M383.4,16.2l-25,36.8c13.1,10.2,24.2,22.6,32.9,36.7l35.4-25.6C415,45.9,400.4,29.6,383.4,16.2z"/>
		<path class="st5" d="M403.1,214.7c-3.2,7.9-7.3,15.4-12,22.4l35.3,20.1c11.2-16.8,19.3-35.5,24-55.2l-41.2-7.1
			C407.7,201.8,405.7,208.3,403.1,214.7z"/>
		<path class="st5" d="M410.3,139l41.4-10.3c-2.7-14.2-7-28.1-12.8-41.4c-2.7-5.9-5.7-11.7-9.1-17.3l-36.1,24.3
			C401.7,108.2,407.3,123.3,410.3,139z"/>
		<path class="st5" d="M410.8,191.2l41.4,5.3c2.6-13.9,3.6-28.1,3-42.3c-0.3-6.5-0.9-13-1.9-19.4l-41.6,9.5
			C414,159.9,413.7,175.8,410.8,191.2z"/>
		<path class="st3" d="M398.1,146.5l-28.7,6.1c1.7,10.7,1.5,21.7-0.6,32.4l28.3,3.8C400,174.9,400.3,160.5,398.1,146.5z"/>
		<path class="st3" d="M382.2,101.7l-24.8,16.7c5.5,9.6,9.4,20.1,11.4,31l28.5-7.1C394.6,128,389.5,114.3,382.2,101.7z"/>
		<path class="st3" d="M350.4,64.6l-17,25.4c9,7.2,16.6,15.9,22.6,25.8l24.2-17.9C372.3,85.1,362.2,73.9,350.4,64.6z"/>
		<path class="st2" d="M188.3,45.5c1.4-0.9,2.8-1.7,4.1-2.5L166.3,3.3c-20.6,11.7-39,26.9-54.6,44.7l39,29.4
			C161.5,64.9,174.2,54.1,188.3,45.5z"/>
		<path class="st3" d="M187.7,109.9l-27.5-19.3c-16.3,20.4-26.7,45-29.9,71l35,2.6C167.6,144.3,175.3,125.5,187.7,109.9z"/>
		<path class="st2" d="M107.3,53.5c-8.7,10.8-16.2,22.4-22.4,34.8c-11.5,21.1-18.5,44.3-20.6,68.2l50.3,3.8
			c3.4-28.8,14.8-56,32.8-78.8L107.3,53.5z"/>
		<path class="st5" d="M318.8-16.8L309,27.9c16.4,4.5,31.8,12,45.4,22.1l23.9-37.7C360.3-0.9,340.2-10.7,318.8-16.8z"/>
		<path class="st3" d="M305.9,41.8L299,72.6c11.3,3.2,21.9,8.4,31.4,15.3l16.5-26.5C334.5,52.4,320.6,45.8,305.9,41.8z"/>
		<path class="st5" d="M280-23.4c-11.6-0.9-23.3-0.6-35,0.7l7.7,46c17.2-1.9,34.7-0.8,51.5,3.2l8.1-45
			C301.7-21.1,290.9-22.8,280-23.4z"/>
		<path class="st1" d="M260.3,202.8l4.1-7.4c-2.6-1.6-4.9-3.6-6.8-5.9l-6.2,5.4C253.9,198,256.9,200.7,260.3,202.8z"/>
		<path class="st1" d="M280.2,184.5c-1.4,0.2-2.9,0.2-4.3,0.1l0.1,4.1c1.9,0.2,3.8,0.2,5.7-0.1L280.2,184.5z"/>
		<path class="st1" d="M284.7,182.8c-0.9,0.6-1.9,1-2.9,1.3c-0.4,0-0.8,0.1-1.1,0l1.2,4c1.9-0.4,3.7-1.1,5.4-2.2L284.7,182.8z"/>
		<path class="st1" d="M274.1,196.3l0.8-5.9c-2.1-0.3-4-1-5.8-2.1l-2.6,5.3C268.8,195,271.4,195.9,274.1,196.3z"/>
		<path class="st1" d="M290.8,174.8c-0.4,1.5-1.1,2.9-2,4.2l3.8,2.2c1.3-1.7,2.2-3.7,2.8-5.7L290.8,174.8z"/>
		<path class="st1" d="M292.1,181.8l-3.8-2.3c-0.9,1.2-2.1,2.2-3.4,3l2.7,3.4C289.3,184.8,290.8,183.4,292.1,181.8z"/>
		<path class="st1" d="M255.1,179.1l5.3-1.7c-0.7-1.9-0.9-4-0.8-6l-5.5,0.1C254,174.1,254.4,176.7,255.1,179.1z"/>
		<path class="st1" d="M259,187.2l4.5-3.7c-1.3-1.6-2.2-3.4-2.9-5.3l-5.3,1.8C256.2,182.6,257.4,185,259,187.2z"/>
		<path class="st1" d="M263.9,192c0.5,0.4,1.1,0.8,1.7,1.1l2.9-5c-1.8-1.1-3.3-2.4-4.6-4l-4.3,3.8
			C260.8,189.4,262.3,190.8,263.9,192z"/>
		<path class="st1" d="M259,158.9l4.3,3.2c1.2-1.6,2.7-2.9,4.5-3.9l-2.8-4.3C262.6,155.1,260.6,156.9,259,158.9z"/>
		<path class="st1" d="M261.3,171.2l3.8-0.1c0.1-2.2,0.9-4.2,2.2-6l-3.1-2.1c-0.6,0.8-1,1.6-1.4,2.5
			C261.9,167.3,261.4,169.3,261.3,171.2z"/>
		<path class="st1" d="M268.2,157.8c1.7-0.9,3.6-1.5,5.6-1.9l-1.1-5c-2.5,0.4-5,1.2-7.2,2.4L268.2,157.8z"/>
		<path class="st1" d="M273.5,150.9l0.8,5c1.9-0.2,3.9-0.1,5.8,0.3l0.9-4.8C278.5,150.7,276,150.6,273.5,150.9z"/>
		<path class="st1" d="M254.2,170.4l5.4,0.3c0.3-3.2,1.4-6.2,3.2-8.8l-4.3-3.1c-1.9,2.6-3.2,5.6-3.9,8.8
			C254.4,168.6,254.3,169.5,254.2,170.4z"/>
		<path class="st1" d="M288.8,155.3l-2.8,4l0.6,0.5c1.1,1,2.1,2.3,2.9,3.6l3.9-2.7C292.2,158.6,290.6,156.8,288.8,155.3z"/>
		<path class="st1" d="M294.9,164.1c-0.3-1-0.8-1.9-1.3-2.8l-3.9,2.6c0.8,1.5,1.4,3.2,1.6,5l4.5-1.1
			C295.6,166.5,295.3,165.2,294.9,164.1z"/>
		<path class="st1" d="M295.9,168.4l-4.6,1c0.2,1.7,0.1,3.4-0.3,5l4.6,0.6C296,172.8,296.1,170.6,295.9,168.4z"/>
		<path class="st1" d="M281.6,151.5l-1,4.8c1.8,0.5,3.5,1.4,5,2.5l2.5-4.1C286.2,153.3,284,152.2,281.6,151.5z"/>
		<path class="st1" d="M280.3,157.8l-0.7,3.4c1.3,0.4,2.4,1,3.4,1.8l1.9-2.8C283.5,159,281.9,158.2,280.3,157.8z"/>
		<path class="st1" d="M272.4,188c0.9,0,1.8,0.5,2.6,0.6l0.4-4.1c-1.4-0.3-2.7-0.7-3.9-1.4l-1.9,3.7
			C270.6,187.3,271.5,187.7,272.4,188z"/>
		<path class="st1" d="M264.4,163l3,2.2c0.8-1.1,1.8-2.1,3-2.8l-2-3C266.9,160.3,265.6,161.5,264.4,163z"/>
		<path class="st1" d="M269.3,186.6l2-3.6c-1.2-0.7-2.3-1.6-3.2-2.6l-2.9,2.6C266.3,184.3,267.7,185.6,269.3,186.6z"/>
		<path class="st1" d="M282.1,179.3c-0.8,0.5-1.7,0.9-2.7,1l0.8,2.9c1.3-0.3,2.5-0.8,3.6-1.5L282.1,179.3z"/>
		<path class="st1" d="M266.2,171.6h2.6c0-1.5,0.5-3,1.3-4.2l-2-1.4l-0.6,0.8C266.6,168.2,266.2,169.9,266.2,171.6z"/>
		<path class="st1" d="M287.4,178.5l-2.7-1.6c-0.7,0.8-1.5,1.4-2.3,2l1.9,2.3C285.5,180.5,286.5,179.6,287.4,178.5z"/>
		<path class="st1" d="M264.8,182.4l3-2.4c-0.9-1.1-1.5-2.3-2-3.6l-3.6,1.3C262.8,179.4,263.7,181,264.8,182.4z"/>
		<path class="st1" d="M262,177.2l3.7-1.1c-0.1-0.8-0.1-1.6,0-2.4c-0.1-0.6-0.1-1.2,0-1.7l-3.8,0.1
			C261.6,173.7,261.7,175.5,262,177.2z"/>
		<path class="st1" d="M279.2,180.4c-1,0.2-1.9,0.2-2.9,0.1l0.1,3c1.3,0.2,2.6,0.2,3.8-0.1L279.2,180.4z"/>
		<path class="st1" d="M279.6,157.6c-1.7-0.4-3.4-0.5-5.1-0.3l0.5,3.5c1.3-0.2,2.7-0.3,4-0.1l0.7-3.4L279.6,157.6z"/>
		<path class="st1" d="M245.1,182.6l7.7-2.4v-1.5c-0.6-2.4-0.8-4.8-0.7-7.2l-7.9-0.3C243.9,175,244.1,178.8,245.1,182.6z"/>
		<path class="st1" d="M270.8,162.2c0.4-0.2,0.8-0.5,1.3-0.6c0.8-0.4,1.7-0.6,2.6-0.7l-0.7-3.5c-1.8,0.3-3.5,0.9-5,1.8L270.8,162.2z
			"/>
		<path class="st1" d="M286.4,174c-0.3,1.1-0.8,2-1.5,2.9l2.7,1.6c0.9-1.1,1.6-2.4,2-3.8L286.4,174z"/>
		<path class="st1" d="M285.2,160.5l-1.9,2.7c0.7,0.7,1.4,1.4,2,2.2v0.7l2.7-1.9C287.3,162.8,286.4,161.6,285.2,160.5z"/>
		<path class="st1" d="M290.1,169.7l-3.1,0.7c0,1.1-0.1,2.3-0.4,3.4l3.2,0.5v-1.1C290,172,290.1,170.9,290.1,169.7z"/>
		<path class="st1" d="M288.6,164.7l-2.8,1.8c0.6,1.1,0.9,2.3,1,3.5l3.1-0.8C289.8,167.6,289.3,166.1,288.6,164.7z"/>
		<path class="st1" d="M239.5,144.5l8.9,6.7c2.6-3.2,5.8-5.9,9.4-8l-5.9-8.6C247.2,137.1,243.1,140.5,239.5,144.5z"/>
		<path class="st1" d="M306.6,177.5c-0.9,3.2-2.4,6.1-4.3,8.8l8,4.6c2.6-3.7,4.5-7.8,5.5-12.3L306.6,177.5z"/>
		<path class="st1" d="M309.8,192.4l-7.9-4.7c-2,2.6-4.4,4.9-7.1,6.8l5.5,6.9C303.9,198.9,307.1,195.8,309.8,192.4z"/>
		<path class="st1" d="M311.7,149.1l-8.2,5.5c1.8,3.2,3,6.6,3.6,10.2l9.5-2.4C315.7,157.8,314,153.3,311.7,149.1z"/>
		<path class="st1" d="M316.6,163.9l-9.4,2c0.3,2.3,0.3,4.7,0.1,7c-0.1,1.2-0.3,2.4-0.6,3.6l9.4,1.5
			C317.2,173.4,317.4,168.6,316.6,163.9z"/>
		<path class="st1" d="M250.8,194l6.5-5.2c-1.8-2.4-3.2-5-4.1-7.9l-7.6,2.8C246.7,187.4,248.5,190.9,250.8,194z"/>
		<path class="st1" d="M293.8,194.9c-1.4,0.9-3,1.7-4.6,2.3c-1.4,0.6-2.8,1-4.3,1.4l2.5,8.7c4.1-1,8-2.7,11.6-4.9L293.8,194.9z"/>
		<path class="st1" d="M283.7,198.8c-3.1,0.6-6.2,0.6-9.3,0.2l-0.8,8.8h1.6c3.6,0.3,7.2,0.1,10.7-0.6L283.7,198.8z"/>
		<path class="st1" d="M229,168.9l11.5,0.8c0.5-4.9,2-9.6,4.5-13.9c0.8-1.4,1.7-2.8,2.7-4.1l-8.9-6.4c-3.9,4.9-6.7,10.7-8.3,16.8
			C229.9,164.3,229.4,166.6,229,168.9z"/>
		<path class="st1" d="M301.3,136.8l-5.7,8.4c2.9,2.4,5.4,5.3,7.3,8.6l8-5.7C308.4,143.8,305.1,140,301.3,136.8z"/>
		<path class="st1" d="M258.8,142.4c3.6-1.9,7.4-3.2,11.4-3.8l-2-10.5c-5.2,0.8-10.3,2.5-14.9,5L258.8,142.4z"/>
		<path class="st1" d="M294.9,132.7c-2.7-1.4-5.5-2.6-8.4-3.4l-2.2,10.1c3.7,1.1,7.2,2.8,10.3,5.1l5.4-8.8
			C298.5,134.5,296.7,133.5,294.9,132.7z"/>
		<path class="st1" d="M269.6,127.9l1.8,10.5c3.9-0.5,8-0.2,11.8,0.7l1.9-10.3C280.1,127.6,274.8,127.2,269.6,127.9z"/>
		<path class="st1" d="M300.9,156.3l-5.6,3.8c1.2,2.2,2,4.6,2.4,7.1l6.4-1.6C303.7,162.4,302.6,159.2,300.9,156.3z"/>
		<path class="st1" d="M298.9,187.1l0.4-0.5l-5.5-3.3c-1.3,1.8-3,3.4-4.9,4.6l3.8,4.8c1-0.6,1.8-1.2,2.6-1.9
			C296.6,189.6,297.8,188.4,298.9,187.1z"/>
		<path class="st1" d="M291.2,193.3l0.9-0.6l-3.7-5c-1.9,1.2-3.9,2-6.1,2.4l1.8,5.9c0.8-0.2,1.6-0.4,2.4-0.7
			C288.2,194.8,289.7,194.1,291.2,193.3z"/>
		<path class="st1" d="M303.7,177l-6.5-1.1c-0.6,2.3-1.6,4.5-2.9,6.4l5.6,3.1l1.9-3C302.6,180.7,303.3,178.9,303.7,177z"/>
		<path class="st1" d="M268.3,165.9l2,1.5c0.4-0.5,0.8-1,1.2-1.4l0.9-0.6l-1.4-2.1C269.9,163.9,269,164.8,268.3,165.9z"/>
		<path class="st1" d="M281.7,190.3c-0.8,0.1-1.7,0.1-2.5,0c-1.2,0.2-2.5,0.2-3.8,0.1l-0.6,5.9c2.9,0.5,5.9,0.4,8.7-0.2L281.7,190.3
			z"/>
		<path class="st1" d="M304.4,166.6l-6.5,1.4c0.2,2.4,0.1,4.8-0.5,7.2l6.6,0.9C304.7,173,304.8,169.8,304.4,166.6z"/>
		<path class="st1" d="M272.7,207.6l1.1-8.8c-3.1-0.5-6.1-1.5-8.8-3.1l-3.9,7.6C264.7,205.4,268.6,206.9,272.7,207.6z"/>
		<path class="st1" d="M251.8,170.5c0.5-4.5,2.1-8.7,4.8-12.3l-6.3-4.3c-3.6,4.7-5.9,10.3-6.4,16.2L251.8,170.5z"/>
		<path class="st1" d="M251.1,153l6.1,4.6c1.8-2.2,4-4.1,6.5-5.6l-4.1-6.2C256.4,147.7,253.5,150.1,251.1,153z"/>
		<path class="st1" d="M264.3,151.4c2.5-1.3,5.2-2.2,8-2.6l-1.4-7.2c-3.6,0.6-7.1,1.8-10.3,3.5L264.3,151.4z"/>
		<path class="st1" d="M271.9,141.5l1.2,7.2c2.7-0.3,5.5-0.2,8.2,0.5l1.3-7C279.1,141.3,275.5,141.1,271.9,141.5z"/>
		<path class="st1" d="M283.6,142.4l-1.5,7c2,0.6,3.8,1.4,5.6,2.4l1.6,1.2l3.7-5.9C290.2,145,287,143.4,283.6,142.4z"/>
		<path class="st1" d="M294.6,148.4l-0.8-0.6l-3.9,5.8c2,1.6,3.8,3.6,5.1,5.8l5.3-3.9C298.8,152.8,296.9,150.4,294.6,148.4z"/>
		<path class="st1" d="M276.4,170.6L276.4,170.6z"/>
	</g>
	<g>
		<path class="st2" d="M44.3,216.5c0,0.6-0.1,1.3-0.2,1.9c-0.1,0.7-0.3,1.5-0.6,2.2c-0.2,0.7-0.6,1.3-1,1.8
			c-0.3,0.5-0.8,0.8-1.4,0.8h-32v-6.5H29c0.2,0,0.3-0.2,0.4-0.5s0.2-0.7,0.3-1l0.2-1.2c0-0.2,0-0.5,0-0.7c0,0,0-0.4,0-0.9
			c0-0.6,0-1.2-0.3-1.9c-0.1-0.7-0.3-1.4-0.5-2.1c-0.2-0.6-0.5-1.1-0.9-1.5H11.4c-0.7-0.2-1.2-0.6-1.6-1.1c-0.3-0.5-0.5-1.1-0.6-1.7
			c0.9-2.4,1.9-4.8,2.8-7.1s1.9-4.7,2.9-7.1c0.1-0.3,0.3-0.6,0.5-0.9s0.4-0.6,0.7-0.9c0.2-0.3,0.5-0.5,0.8-0.7
			c0.2-0.2,0.4-0.3,0.7-0.3h25.7v5.7H27l-0.3,0.6c-0.2,0.4-0.5,1-0.8,1.7l-1.1,2.4c-0.4,0.9-0.8,1.9-1.2,3h16
			c0.6,0.3,1.1,0.6,1.6,1.1c0.3,0.4,0.6,0.9,0.8,1.3c0.4,2.1,0.8,4.2,1.2,6.3c0.4,2.1,0.6,4.1,0.9,6.1c0,0,0,0.2,0,0.5
			S44.3,216.3,44.3,216.5z"/>
		<path class="st2" d="M47.3,186.9H75c0.3,0,0.6,0.1,0.8,0.3c0.3,0.2,0.6,0.5,0.8,0.7c0.3,0.3,0.5,0.6,0.7,0.9
			c0.1,0.3,0.2,0.6,0.3,1c1.3,2.6,2.6,5.4,3.7,8.4s2.3,5.7,3.3,8.3c0,0.2,0,0.3,0,0.5c0,0.3,0,0.5,0,0.7c0,0.6-0.1,1.3-0.2,1.9
			c-0.1,0.8-0.3,1.5-0.6,2.2c-0.2,0.7-0.6,1.3-1.1,1.8c-0.3,0.5-0.9,0.8-1.4,0.8H60.4v8.8H47.3V186.9z M60.4,192.6v15.2h9.2
			c0.2,0,0.3-0.2,0.4-0.5s0.2-0.7,0.3-1l0.2-1.1c0-0.2,0-0.5,0-0.7c-0.1-1-0.3-2-0.6-2.9c-0.5-1.3-1-2.6-1.6-3.9s-1.1-2.6-1.6-3.5
			c-0.2-0.5-0.5-1-0.8-1.5h-5.5V192.6z"/>
		<path class="st2" d="M100.8,223.2h-13v-36.3h13.1L100.8,223.2z"/>
		<path class="st2" d="M132.1,186.9c0.3,0,0.5,0.1,0.7,0.3c0.3,0.2,0.6,0.5,0.8,0.7c0.3,0.3,0.5,0.6,0.7,0.9s0.4,0.6,0.5,0.9
			c1.3,2.6,2.6,5.4,3.6,8.2c1.1,2.8,2.2,5.6,3.3,8.4c0,0.2,0,0.3,0,0.5c0,0.3,0,0.5,0,0.7c0,0.6-0.1,1.3-0.2,1.9
			c-0.1,0.8-0.3,1.5-0.6,2.2c-0.2,0.7-0.6,1.3-1.1,1.8c-0.3,0.5-0.9,0.8-1.4,0.8H137l4.8,8.9h-13.1l-4.8-8.8h-6.3v8.8h-13.1v-36.3
			h27.6V186.9z M117.6,207.8h9.2c0.2,0,0.3-0.2,0.5-0.5c0.1-0.3,0.2-0.7,0.3-1l0.2-1.1c0-0.4,0-0.6,0-0.7c-0.1-1-0.3-2-0.7-2.9
			c-0.5-1.3-1-2.6-1.6-3.9s-1.1-2.6-1.6-3.5c-0.2-0.5-0.5-1-0.8-1.5h-5.4L117.6,207.8z"/>
		<path class="st2" d="M185.7,186.9v36.3h-13.2v-30.6h-5.4c-0.3,0.4-0.5,0.9-0.7,1.4c-0.4,0.9-0.9,2-1.4,3.4s-1.2,2.9-1.8,4.6
			s-1.3,3.3-1.8,4.8c-0.6,1.5-1,2.9-1.4,4.1c-0.3,0.8-0.5,1.6-0.6,2.4c0,0.2,0,0.5,0,0.7c0,0.4,0.1,0.8,0.2,1.2
			c0.1,0.4,0.1,0.7,0.3,1c0,0.3,0.3,0.5,0.4,0.5h9v6.5h-21c-0.6,0-1.1-0.3-1.4-0.8c-0.4-0.5-0.8-1.2-1-1.8c-0.3-0.7-0.5-1.4-0.6-2.2
			c-0.1-0.6-0.2-1.3-0.2-1.9c0-0.2,0-0.5,0-0.7s0-0.5,0-0.5c1.5-4.3,3.1-8.6,4.8-12.8s3.4-8.4,5.1-12.8c0-0.3,0.3-0.6,0.5-0.9
			s0.4-0.6,0.7-0.9s0.5-0.5,0.8-0.7c0.2-0.2,0.5-0.3,0.7-0.3L185.7,186.9z"/>
		<path class="st2" d="M203.1,186.9v29.7h15.4v6.5h-27.4c-0.3,0-0.6-0.1-0.8-0.4s-0.4-0.6-0.6-0.9c-0.2-0.4-0.3-0.7-0.3-1.1
			c0-0.3,0-0.7,0-1v-32.9L203.1,186.9L203.1,186.9z"/>
	</g>
	<g>
		<path class="st2" d="M58.9,267.7c0,0.9,0,2,0,3.1c-0.1,1.1-0.2,2.1-0.5,3.2c-0.2,0.9-0.6,1.8-1.2,2.6c-0.6,0.7-1.4,1-2.3,1H33.2
			v-6.8h11.6l0.9-0.9v-4l-11.8-17c-0.2-0.3-0.5-0.5-0.7-0.7c-0.4-0.3-0.7-0.6-1.1-0.8l-1.1-0.7c-0.3-0.2-0.6-0.3-1-0.3v30.8H16.7
			V241h23.9c0.5,0,0.9,0.1,1.4,0.3c0.5,0.2,0.9,0.4,1.3,0.7c2.5,2.2,4.9,4.5,7.1,7.1c2.3,2.6,4.5,5.4,6.5,8.3
			c0.8,1.5,1.3,3.2,1.6,4.9C58.8,264.1,58.9,265.9,58.9,267.7z"/>
		<path class="st2" d="M68.7,270.5c-1.6,0.1-3.1-0.4-4.4-1.3c-1.2-1.1-1.9-2.7-1.7-4.3v-23.8h13.3v21.7l1.2,1.1h11.3l1.3-1.1v-21.7
			h13.2v23.7c0.1,1.5-0.4,2.9-1.3,4.1c-1,1.1-2.5,1.7-4,1.6h-8.2v6.8H76.2v-6.8H68.7z"/>
		<path class="st2" d="M106.3,241.1h7.7c0.3,0,0.5,0.1,0.8,0.2c0.4,0.1,0.8,0.3,1.1,0.5c0.4,0.2,0.8,0.4,1.1,0.7
			c0.4,0.3,0.7,0.6,0.9,0.9c2.1,2.2,4.1,4.3,6.1,6.6c2.1,2.3,4.1,4.6,6.1,7v-15.9h13.1v36.2h-7.7c-0.4-0.1-0.8-0.2-1.1-0.5
			c-0.4-0.3-0.8-0.6-1.1-1c-0.4-0.4-0.7-0.8-1.1-1.2l-1-1.1l-11.6-12.7v16.5h-13.3C106.3,277.3,106.3,241.1,106.3,241.1z"/>
		<path class="st2" d="M189,277.3h-13v-8.8h-15.7l-0.3,0.8v8h-12.8v-8.8c1.5-4.4,3.1-8.6,4.8-12.5c1.7-3.9,3.4-7.9,5.1-12.1
			c0.1-0.2,0.2-0.5,0.4-0.7l0.8-0.9c0.3-0.3,0.5-0.6,0.8-0.8c0.2-0.2,0.5-0.3,0.7-0.4H189V277.3z M168.7,246.7l-5.9,15.2H176v-15.2
			H168.7z"/>
		<path class="st2" d="M192.6,249c0-1,0.1-2,0.4-2.9c0.3-0.9,0.7-1.8,1.2-2.6c0.5-0.7,1.1-1.3,1.8-1.8c0.7-0.4,1.6-0.7,2.4-0.6h39.2
			c0.9,0,1.7,0.3,2.4,0.7c0.8,0.5,1.4,1.2,1.9,1.9c0.5,0.8,1,1.7,1.3,2.6c0.3,0.8,0.4,1.7,0.4,2.6v28.4h-13.1v-29.2
			c-0.1-0.3-0.3-0.6-0.4-0.9c-0.2-0.3-0.4-0.6-0.6-0.8h-4.9v30.8h-13.1v-30.8h-4.9l-0.5,0.6c0,0.2-0.3,0.4-0.4,0.7l-0.2,0.4v29.2
			h-13.1V249H192.6z"/>
		<path class="st2" d="M256.4,270.7v-23.1h-9V241h31.8v6.5h-9v23.1h9v6.5h-31.8v-6.5h9V270.7z"/>
		<path class="st2" d="M283.2,262.3c0.2-1.7,0.8-3.4,1.6-4.9c2.2-3,4.3-5.8,6.5-8.3s4.6-4.8,7.1-7c0.4-0.4,0.8-0.6,1.3-0.8
			c0.5-0.2,0.9-0.3,1.4-0.3H323v5.4h-11.1c-0.4,0-0.7,0.1-1.1,0.3c-0.4,0.2-0.8,0.4-1.2,0.7c-0.4,0.2-0.8,0.5-1.1,0.8
			c-0.3,0.2-0.5,0.5-0.8,0.7l-11.8,17v4l0.9,0.9H323v6.5h-35.9c-0.9,0.1-1.7-0.3-2.3-1c-0.6-0.8-1-1.6-1.2-2.6
			c-0.3-1-0.5-2.1-0.5-3.2s0-2.1,0-3.1C283,265.8,283,264.1,283.2,262.3z"/>
		<path class="st2" d="M361.8,270.6c0,0.6-0.1,1.3-0.2,1.9c-0.1,0.8-0.3,1.5-0.6,2.2c-0.2,0.7-0.6,1.3-1,1.8
			c-0.3,0.5-0.9,0.7-1.4,0.7h-32v-6.4h19.8c0.2,0,0.3-0.2,0.4-0.5s0.2-0.7,0.3-1l0.2-1.1c0-0.3,0-0.5,0-0.8c0,0,0-0.4,0-0.9
			s-0.1-1.2-0.3-1.9c-0.1-0.7-0.3-1.4-0.5-2.1c-0.2-0.6-0.5-1.1-0.9-1.5h-16.8c-0.7-0.2-1.2-0.6-1.6-1.1c-0.3-0.5-0.5-1.1-0.6-1.7
			c0.9-2.4,1.9-4.8,2.8-7.1c0.9-2.4,1.9-4.7,2.9-7.1c0.1-0.3,0.3-0.5,0.5-0.9c0.2-0.3,0.4-0.6,0.7-0.9c0.2-0.3,0.5-0.5,0.8-0.7
			c0.2-0.2,0.5-0.3,0.7-0.3h25.7v5.6h-16.3l-0.3,0.6c-0.2,0.4-0.5,1-0.8,1.7l-1.1,2.6c-0.4,0.9-0.8,1.9-1.2,3h16
			c0.6,0.3,1.2,0.6,1.6,1.1c0.3,0.4,0.6,0.8,0.8,1.3c0.4,2.1,0.8,4.3,1.2,6.3c0.4,2.1,0.7,4.1,0.9,6.1c0,0,0,0.2,0,0.5
			S361.8,270.4,361.8,270.6z"/>
	</g>
</g>
</svg>
