<?xml version="1.0" encoding="utf-8"?>
<!-- Generator: Adobe Illustrator 26.0.1, SVG Export Plug-In . SVG Version: 6.00 Build 0)  -->
<svg version="1.1" id="Слой_1" xmlns="http://www.w3.org/2000/svg" xmlns:xlink="http://www.w3.org/1999/xlink" x="0px" y="0px"
	 viewBox="0 0 138 138" style="enable-background:new 0 0 138 138;" xml:space="preserve">
<style type="text/css">
	.st0{fill:none;stroke:#44149C;stroke-width:3;stroke-miterlimit:10;}
</style>
<path class="st0" d="M123.1,8.6c-1-1.1-2.4-1.7-3.9-1.7H18.8c-2.9,0-5.2,2.3-5.2,5.2c0,0.2,0,0.4,0,0.6L25,115.5
	c0.2,2.1,1.7,3.8,3.7,4.4L67.6,131c0.5,0.1,0.9,0.2,1.4,0.2c0.5,0,1-0.1,1.4-0.2l38.8-11.1c2-0.6,3.5-2.3,3.7-4.4l11.4-102.9
	C124.6,11.1,124.1,9.7,123.1,8.6z M97.6,59.1l-2.3,37.8l-26.1,8.6L43,96.9l-1-18.1h13.3l0.3,8.2l13.6,4.6l13.6-4.6l1-14.8H54.6
	L54,59.1h30.4l1-13.2H39.7l-1-13.2h60.6L97.6,59.1z"/>
</svg>
