<?xml version="1.0" encoding="utf-8"?>
<!-- Generator: Adobe Illustrator 26.0.1, SVG Export Plug-In . SVG Version: 6.00 Build 0)  -->
<svg version="1.1" id="Слой_1" xmlns="http://www.w3.org/2000/svg" xmlns:xlink="http://www.w3.org/1999/xlink" x="0px" y="0px"
	 viewBox="0 0 138 138" style="enable-background:new 0 0 138 138;" xml:space="preserve">
<style type="text/css">
	.st0{fill:none;stroke:#44149C;stroke-width:3;stroke-miterlimit:10;}
</style>
<path class="st0" d="M58.4,97.8c-2.5,0-4.8,0.9-6.6,2.6C39.6,85.9,41.5,64.3,56,52.1c12.7-10.7,31.3-10.7,44,0
	c-1,1.5-1.5,3.3-1.5,5.1c0,5.4,4.4,9.8,9.9,9.8c5.4,0,9.8-4.4,9.8-9.9c0-5.4-4.4-9.8-9.9-9.8c-2.1,0-4.2,0.7-5.8,1.9
	c-10.9-9.2-26-11.6-39.2-6.1l14.2-14c1.4,0.7,3,1.1,4.5,1c5.4,0,9.8-4.4,9.8-9.8c0-5.4-4.4-9.8-9.8-9.8c-5.4,0-9.8,4.4-9.8,9.8
	c0,2.4,0.8,4.6,2.4,6.4l-49,48.5C21.2,72,15,72.8,11.7,77.1S9.2,87.7,13.6,91s10.6,2.5,13.9-1.9c2.4-3.2,2.7-7.6,0.7-11L43,63.3
	c-5.8,13.5-3.2,29.2,6.5,40.2c-2.3,4.9-0.1,10.8,4.9,13s10.8,0.1,13-4.9c2.3-4.9,0.1-10.8-4.9-13C61.3,98.1,59.9,97.8,58.4,97.8
	L58.4,97.8z M82,14.3c3.3,0,6,2.7,6,6s-2.7,6-6,6s-6-2.7-6-6S78.7,14.3,82,14.3z M19.6,89.1c-3.3,0-6-2.7-6-6s2.7-6,6-6s6,2.7,6,6
	S22.9,89.1,19.6,89.1z"/>
<path class="st0" d="M127.5,103.4l-4.7-4.7c-1.7-1.7-4.4-1.7-6.1,0l-2.2,2.2l-2-16.5c-0.1-0.6-0.5-1.2-1.1-1.4L72.4,69.5
	c-0.9-0.3-1.8,0.2-2.1,1c-0.1,0.3-0.1,0.7,0,1.1l13.4,39.2c0.2,0.6,0.7,1,1.3,1.1l16.6,2l-2.1,2.1c-1.7,1.7-1.7,4.4,0,6.1l4.7,4.7
	c0.9,0.9,2.3,0.9,3.2,0c0,0,0,0,0,0l20.1-20.1C128.4,105.7,128.4,104.3,127.5,103.4z M105.8,123.8l-4-4c-0.4-0.4-0.4-1,0-1.4
	c0,0,0,0,0,0l17.3-17.3c0.4-0.4,1-0.4,1.4,0l4,4L105.8,123.8z"/>
</svg>
