<?xml version="1.0" encoding="utf-8"?>
<!-- Generator: Adobe Illustrator 26.0.1, SVG Export Plug-In . SVG Version: 6.00 Build 0)  -->
<svg version="1.1" id="Слой_1" xmlns="http://www.w3.org/2000/svg" xmlns:xlink="http://www.w3.org/1999/xlink" x="0px" y="0px"
	 viewBox="0 0 138 138" style="enable-background:new 0 0 138 138;" xml:space="preserve">
<style type="text/css">
	.st0{fill:none;stroke:#44149C;stroke-width:3;stroke-miterlimit:10;}
</style>
<path class="st0" d="M48.6,130.3c11.3,0,20.4-9.2,20.4-20.4l0,0V89.4H48.6c-11.3,0.2-20.2,9.6-20,20.9
	C28.8,121.3,37.6,130.1,48.6,130.3z"/>
<path class="st0" d="M28.1,69c0-11.3,9.2-20.4,20.5-20.4H69v40.9H48.6C37.3,89.4,28.1,80.3,28.1,69z"/>
<path class="st0" d="M28.1,28.1c0-11.3,9.1-20.4,20.4-20.4H69v40.9H48.6C37.3,48.6,28.1,39.4,28.1,28.1z"/>
<path class="st0" d="M69,7.7h20.4c11.3,0.2,20.2,9.6,20,20.9c-0.2,10.9-9.1,19.8-20,20H69V7.7z"/>
<path class="st0" d="M109.9,69c0,11.3-9.1,20.5-20.4,20.5S69,80.3,69,69c0-11.3,9.1-20.5,20.4-20.5c0,0,0,0,0,0
	C100.7,48.6,109.9,57.7,109.9,69z"/>
</svg>
