<?xml version="1.0" encoding="utf-8"?>
<!-- Generator: Adobe Illustrator 26.0.1, SVG Export Plug-In . SVG Version: 6.00 Build 0)  -->
<svg version="1.1" id="Слой_1" xmlns="http://www.w3.org/2000/svg" xmlns:xlink="http://www.w3.org/1999/xlink" x="0px" y="0px"
	 viewBox="0 0 138 138" style="enable-background:new 0 0 138 138;" xml:space="preserve">
<style type="text/css">
	.st0{fill:none;stroke:#44149C;stroke-width:3;stroke-miterlimit:10;}
</style>
<path class="st0" d="M69,8.2C34.9,8.2,7.2,35.8,7.2,69.9c0,28.6,19.6,53.5,47.4,60.1c-1.4-0.3-2.8-0.7-4.2-1.1v-14.2
	c-1.8,0.5-3.6,0.8-5.4,0.8c-8.7,0-12.2-7.7-13.1-11.6c-0.5-2.3-1.8-4.4-3.5-6c-1.8-1.6-2.7-1.6-2.7-2.2c0-1.2,1.6-1.1,2.3-1.1
	c3.9,0,6.8,4.1,8.2,6.2c3.4,5.2,7,6.1,8.8,6.1c1.9,0.1,3.9-0.3,5.7-1c0.5-4.4,2.6-8.4,5.9-11.3C42.2,91.8,31.9,83.5,31.9,70
	c0.1-6.9,2.7-13.5,7.4-18.5c-0.9-2.7-1.3-5.6-1.3-8.5c-0.1-3.4,0.4-6.8,1.5-10c0,0,8.8,0.1,17.1,7.9c8-2.3,16.5-2.3,24.5,0
	C89.5,33,98.3,33,98.3,33c1.1,3.2,1.7,6.6,1.6,10c0.1,3-0.2,5.9-1,8.8c4.6,5,7.1,11.5,7.2,18.2c0,13.5-10.2,21.8-24.7,24.7
	c4,3.5,6.2,8.6,6.2,13.9V129c-1.4,0.4-2.8,0.8-4.2,1.1c33.2-7.8,53.8-41.1,46-74.3C122.7,27.8,97.7,8.1,69,8.2z"/>
</svg>
