<?xml version="1.0" encoding="utf-8"?>
<!-- Generator: Adobe Illustrator 26.0.1, SVG Export Plug-In . SVG Version: 6.00 Build 0)  -->
<svg version="1.1" id="Слой_1" xmlns="http://www.w3.org/2000/svg" xmlns:xlink="http://www.w3.org/1999/xlink" x="0px" y="0px"
	 viewBox="0 0 138 138" style="enable-background:new 0 0 138 138;" xml:space="preserve">
<style type="text/css">
	.st0{fill:none;stroke:#44149C;stroke-width:3;stroke-miterlimit:10;}
</style>
<path class="st0" d="M62.7,19.7c-16.4,0-29.8,13.3-29.8,29.8s13.3,29.8,29.8,29.8s29.8-13.3,29.8-29.8c0,0,0,0,0,0
	C92.4,33,79.1,19.7,62.7,19.7z M62.7,72.5c-12.7,0-22.9-10.3-22.9-22.9s10.3-22.9,22.9-22.9s22.9,10.3,22.9,22.9
	S75.4,72.5,62.7,72.5L62.7,72.5z"/>
<path class="st0" d="M60.5,14.5c-24.7,0-44.8,20-44.8,44.8s20,44.8,44.8,44.8s44.8-20,44.8-44.8S85.3,14.5,60.5,14.5L60.5,14.5z
	 M60.6,94c-19,0-34.5-15.4-34.5-34.5S41.6,25,60.6,25c19,0,34.5,15.4,34.5,34.5C95.1,78.5,79.7,94,60.6,94C60.7,94,60.6,94,60.6,94z
	"/>
<path class="st0" d="M69,10.8c-32.1,0-58.2,26-58.2,58.2s26,58.2,58.2,58.2s58.2-26,58.2-58.2S101.1,10.8,69,10.8
	C69,10.8,69,10.8,69,10.8z M69.1,114.1C44.4,114,24.3,94,24.3,69.2c0-24.7,20.1-44.8,44.8-44.8c24.7,0,44.8,20.1,44.8,44.8
	C113.9,94,93.9,114.1,69.1,114.1C69.1,114.1,69.1,114.1,69.1,114.1z"/>
</svg>
