<?xml version="1.0" encoding="utf-8"?>
<!-- Generator: Adobe Illustrator 26.0.1, SVG Export Plug-In . SVG Version: 6.00 Build 0)  -->
<svg version="1.1" id="Слой_1" xmlns="http://www.w3.org/2000/svg" xmlns:xlink="http://www.w3.org/1999/xlink" x="0px" y="0px"
	 viewBox="0 0 138 138" style="enable-background:new 0 0 138 138;" xml:space="preserve">
<style type="text/css">
	.st0{fill:none;stroke:#44149C;stroke-width:3;stroke-miterlimit:10;}
</style>
<path class="st0" d="M123.3,8.3c-0.5-0.6-1.2-0.9-2-0.9H16.7c-0.8,0-1.5,0.3-2,0.9c-0.5,0.5-0.8,1.3-0.7,2.1l9.5,105.6
	c0.1,1.1,0.9,2,1.9,2.3l42.9,12.2c0.2,0.1,0.5,0.1,0.7,0.1c0.2,0,0.5,0,0.7-0.1l42.9-12.2c1.1-0.3,1.8-1.2,1.9-2.3L124,10.3
	C124.1,9.6,123.8,8.8,123.3,8.3z M100.7,44.7H50.3l1.2,13.6h48L96,98.6l-27,8.1l-0.3-0.1l-26.6-8.1l-1.4-16.4h13l0.6,6.4l14.9,3.1
	l14.6-3.1l1.6-17.2H39.7l-3.5-39.6h65.8L100.7,44.7z"/>
</svg>
