<?xml version="1.0" encoding="utf-8"?>
<!-- Generator: Adobe Illustrator 26.0.1, SVG Export Plug-In . SVG Version: 6.00 Build 0)  -->
<svg version="1.1" id="Слой_1" xmlns="http://www.w3.org/2000/svg" xmlns:xlink="http://www.w3.org/1999/xlink" x="0px" y="0px"
	 viewBox="0 0 138 138" style="enable-background:new 0 0 138 138;" xml:space="preserve">
<style type="text/css">
	.st0{fill:none;stroke:#44149C;stroke-width:3;stroke-miterlimit:10;}
</style>
<path class="st0" d="M69.1,97.1H35.7l-6.8,21.1c-0.2,0.8-0.9,1.3-1.7,1.2H10.3c-1,0-1.3-0.5-1-1.6l28.9-83.1c0.3-0.9,0.5-1.9,0.9-3
	c0.4-1.9,0.5-3.9,0.5-5.8c-0.1-0.5,0.2-0.9,0.7-1h23.2c0.7,0,1.1,0.3,1.2,0.7L97.5,118c0.3,1,0,1.4-0.9,1.4H77.8
	c-0.7,0.1-1.3-0.4-1.4-1L69.1,97.1z M40.9,78.9h22.8c-0.5-1.9-1.2-4.1-2.1-6.5s-1.6-5-2.4-7.7s-1.7-5.5-2.6-8.2s-1.7-5.4-2.4-8
	s-1.3-4.8-2-7H52c-0.8,3.9-1.8,7.8-3,11.6c-1.3,4.3-2.7,8.8-4.1,13.3C43.6,70.9,42.2,75.1,40.9,78.9z M117.5,40.6
	c-3,0.1-5.9-1.1-8-3.1c-2-2.3-3.1-5.2-3-8.2c-0.1-3,1.1-5.9,3.2-8c2.2-2,5-3.2,8-3.1c3-0.2,6,1,8.2,3.1c2,2.2,3.1,5,3,8
	c0.1,3.1-1,6-3.1,8.2C123.6,39.6,120.6,40.8,117.5,40.6L117.5,40.6z M107.5,118.5V49.4c0-0.9,0.4-1.2,1.2-1.2h17.8
	c0.8,0,1.2,0.4,1.2,1.2v69.1c0,1-0.4,1.4-1.2,1.4h-17.6c-0.7,0.1-1.3-0.5-1.3-1.1C107.4,118.7,107.4,118.6,107.5,118.5L107.5,118.5z
	"/>
</svg>
