<?xml version="1.0" encoding="utf-8"?>
<!-- Generator: Adobe Illustrator 26.0.1, SVG Export Plug-In . SVG Version: 6.00 Build 0)  -->
<svg version="1.1" id="Слой_1" xmlns="http://www.w3.org/2000/svg" xmlns:xlink="http://www.w3.org/1999/xlink" x="0px" y="0px"
	 viewBox="0 0 138 138" style="enable-background:new 0 0 138 138;" xml:space="preserve">
<style type="text/css">
	.st0{fill:none;stroke:#44149C;stroke-width:3;stroke-miterlimit:10;}
</style>
<path class="st0" d="M123.8,7.7c-0.5-0.6-1.2-0.9-2-0.9H16.2c-1.5,0-2.7,1.2-2.7,2.7c0,0.1,0,0.2,0,0.2L23,116.3
	c0.1,1.1,0.9,2.1,2,2.4l43.3,12.4c0.2,0.1,0.5,0.1,0.7,0.1c0.2,0,0.5,0,0.7-0.1l43.2-12.4c1.1-0.3,1.8-1.2,1.9-2.4l9.6-106.6
	C124.6,9,124.3,8.3,123.8,7.7z M33.9,79.8l18.9,5.2V31.2h10.8v70.3l-29.7-8.2V79.8z M104.3,60.9L101.4,94l-27,7.4V89l18.2-5
	l0.7-10.1l-18.9,3.2v-46h32.4L105.9,42H85.2v21.6L104.3,60.9z"/>
</svg>
