<?xml version="1.0" encoding="utf-8"?>
<!-- Generator: Adobe Illustrator 26.0.1, SVG Export Plug-In . SVG Version: 6.00 Build 0)  -->
<svg version="1.1" id="Слой_1" xmlns="http://www.w3.org/2000/svg" xmlns:xlink="http://www.w3.org/1999/xlink" x="0px" y="0px"
	 viewBox="0 0 138 138" style="enable-background:new 0 0 138 138;" xml:space="preserve">
<style type="text/css">
	.st0{fill:none;stroke:#44149C;stroke-width:2;stroke-miterlimit:10;}
</style>
<path class="st0" d="M41.9,103.8c-0.8-1.3-1.5-2.4-1.8-3c-1.4-2.2-3.9-4.7-5.1-4.7c-0.1,0-0.1,0-0.2,0c-0.8,0.7-1.3,1.6-1.7,2.5
	c-0.7,1.5-1.5,3.1-3,4c-1.4,0.7-2.9,1.1-4.4,1.4c-1.2,0.2-3.9,0.8-4,1.4c-0.1,0.8-0.1,1.7,0.2,2.5c0.4,1.4,0.5,2.9,0.3,4.3
	c-0.2,1.1-0.5,2.1-0.8,3.1c-0.5,1.4-1,3-0.5,3.5s3.8,1,6.2,1.4c2.7,0.3,5.4,1,8,1.9l0.5,0.2c3.4,1.4,9.7,4.1,12.9,4.1
	c0.2,0,0.5,0,0.7-0.1c0.5-0.4,2.9-2,3.3-4.1c0.6-2.6-1.8-5.7-3.3-7.3C47.4,113,44.2,107.7,41.9,103.8z"/>
<path class="st0" d="M57.7,41.8c0.2,0.6,1.5,2.2,3.7,3.5l0.9,0.6c1.2,0.8,1.7,1.1,2.6,1c1.3-0.2,5.9-3,7.8-4.2l0.5-0.3
	c0.7-0.5,1.3-0.8,1.8-1c0.9-0.5,1-0.6,1.1-0.7c-0.7-0.8-1.6-1.3-2.7-1.6c-0.5-0.2-1.3-0.5-2.2-0.8c-1.8-0.8-3.6-1.5-5.5-2h-0.1
	c-0.9,0-2.7,1.1-4.5,2.8C60.1,40,58.3,41.3,57.7,41.8z"/>
<path class="st0" d="M92.2,92.4c1-4.3,1.1-8.7,0.5-13.1C91.6,71.6,80.8,47.6,78.9,45c-1.1,0.2-4,1.8-6.3,3.2
	c-2.3,1.5-4.8,2.7-7.4,3.8c-0.4,0.1-0.8,0.2-1.2,0.2c-2.8,0-5.8-2.4-7.8-4.2c-0.5,3.8-2,7.5-4.3,10.5c-1.3,1.5-2.5,5-3.6,8.3
	c-0.9,2.9-2,5.7-3.5,8.4c-2.7,4.2-4.2,12.3-2.3,17c1,2.2,4.4,4.9,7.4,7.2c3.7,2.9,6.9,5.3,7.3,7.8c0.5,2.2-0.7,4.4-2.7,5.4l4,4.6
	c1.5,0.2,2.9,0.3,4.4,0.3c3,0,6-0.3,9-0.7c7.9-1.2,13.4-7.7,14.5-9.1c0-1.8,0.1-10,0.6-12.6c0.2-1,1-2.6,4-2.6
	C91.4,92.3,91.8,92.3,92.2,92.4z"/>
<path class="st0" d="M113.8,110.1l-0.4-0.2c-2.7-1.4-4.1-5.2-3.9-8.1c0-0.4,0-0.9-0.1-1.3c-0.6,1-1.2,1.9-2,2.7
	c-2.2,1.9-5.1,2.9-8,3c-1.1,0-2.2-0.2-3.2-0.6c-3.1-1.4-3.5-5.2-3.6-7.2l-0.1,0.1c-0.1,1.5-0.1,3,0.1,4.5c0.1,0.8,0.1,1.7,0.2,2.4
	c0.2,3.4-0.9,9.2-1.9,13.5s0.8,7.1,2.8,7.7c0.2,0.1,0.4,0.1,0.6,0.1c1.9,0,5-1.9,7.7-4.8c1.9-2,6.3-4.2,10.1-6.2
	c1.7-0.8,3.4-1.7,5-2.8c0.2-0.1,0.2-0.2,0.2-0.2C117.3,112,114.8,110.6,113.8,110.1z"/>
<path class="st0" d="M120.1,107.7c-3.7-1.5-5.3-3.6-5.2-6.6c0-2.7-1-5.2-2.8-7.2c0.6-2.2,2.3-9.8,0-16.4
	c-2.4-7.1-9.8-17.9-17.5-28.5c-3.1-4.4-3.3-9.1-3.4-14.6c-0.2-5.2-0.3-11.2-3.3-17.8C85,9.5,78,5,70.4,5.2c-4.7,0-9.4,1.4-13.3,4
	c-7.7,5.3-6.6,16.8-6,24.4c0.1,1,0.2,2,0.2,2.9c0.5,7.5,0,11.4-0.5,12.6c-1.2,1.9-2.4,3.7-3.8,5.4c-1.8,2.4-4,5.2-5.7,7.8
	c-2,3.1-3.7,7.8-5.3,12.4c-0.9,2.9-2,5.7-3.3,8.4c-1.5,2.6-1.9,5.7-1.1,8.6c-1.2,0.9-2.2,2.2-2.8,3.6c-1.1,2.4-3.4,3.7-8.2,4.7
	c-2.2,0.4-3.7,1.4-4.5,2.8c-1.2,2-0.5,4.5,0,6.2c0.8,2.5,0.3,4.1-0.6,7c-0.2,0.7-0.5,1.4-0.7,2.3c-0.4,1.2-0.3,2.5,0.4,3.6
	c1.8,2.8,7.1,3.8,12.6,4.4c3.5,0.6,7,1.6,10.2,2.9c3.2,1.3,6.6,2.3,10,2.9c0.5,0.1,0.9,0.1,1.4,0.1c3.2,0.1,6.2-1.6,7.6-4.5
	c4.5-0.9,9.1-1.5,13.8-1.6c4.6-0.1,9.2,0.4,13.7,1.4c0.9,1.9,2.4,3.4,4.1,4.5c1.4,0.7,3,1,4.6,1c3.1,0,6-1.2,8.1-3.4
	c2.8-2.9,9.7-6.7,14.8-9.4l3.1-1.7c2.8-1.6,4.4-3.8,4.3-6.2C123.3,110.1,122,108.4,120.1,107.7z M74.1,21.4c2.8,0,5,3.2,5,7.1
	s-2.2,7.1-5,7.1s-5-3.2-5-7.1S71.3,21.4,74.1,21.4z M65.6,36.4c1.9,0.5,3.7,1.2,5.5,2c0.9,0.3,1.6,0.7,2.2,0.8c1,0.2,2,0.8,2.7,1.6
	c0,0.2-0.1,0.2-1.1,0.7c-0.5,0.2-1.1,0.5-1.8,1l-0.5,0.3c-2,1.2-6.6,4-7.8,4.2c-0.8,0.1-1.4-0.2-2.6-1l-0.9-0.6
	c-2.1-1.4-3.5-3-3.7-3.5c0.7-0.5,2.4-1.9,3.3-2.7c1.8-1.7,3.6-2.8,4.5-2.8L65.6,36.4z M58.6,24.8c2,0,3.7,2.4,3.7,5.2
	c0,2.9-1.6,5.2-3.7,5.2c-2,0-3.6-2.8-3.6-5.2C55,27.9,56.4,25.8,58.6,24.8z M52.3,122.1c-0.4,2.1-2.8,3.7-3.3,4.1
	c-0.2,0-0.5,0.1-0.7,0.1c-3.2,0-9.5-2.7-12.9-4.1L35,122c-2.6-0.9-5.3-1.5-8-1.8c-2.4-0.4-5.6-0.9-6.2-1.4s0.1-2.1,0.5-3.5
	c0.4-1,0.6-2.1,0.8-3.1c0.2-1.4,0.1-2.9-0.3-4.3c-0.2-0.8-0.3-1.6-0.2-2.5c0.1-0.6,2.8-1.1,4-1.4c1.5-0.2,3-0.7,4.4-1.4
	c1.5-0.9,2.3-2.6,3-4c0.4-1,0.9-1.8,1.7-2.5c0.1,0,0.1,0,0.2,0c1.2,0,3.7,2.5,5.1,4.7c0.4,0.6,1,1.7,1.8,3c2.3,3.9,5.5,9.2,7.2,11
	C50.5,116.4,53,119.5,52.3,122.1L52.3,122.1z M86.9,94.9c-0.5,2.6-0.6,10.7-0.6,12.6c-1.1,1.4-6.6,7.9-14.5,9.1c-3,0.4-6,0.7-9,0.7
	c-1.5,0-2.9-0.1-4.4-0.3l-4-4.6c2-0.9,3.2-3.2,2.7-5.4c-0.3-2.5-3.6-5-7.3-7.8c-3-2.3-6.5-5-7.4-7.2c-2-4.6-0.4-12.8,2.3-17
	c1.4-2.7,2.6-5.5,3.5-8.4c1.1-3.3,2.3-6.8,3.6-8.3c2.4-3.1,3.9-6.7,4.3-10.5c2,1.9,5,4.2,7.8,4.2c0.4,0,0.8-0.1,1.2-0.2
	c2.6-1,5.1-2.3,7.4-3.8c2.3-1.3,5.2-3,6.3-3.2c1.9,2.7,12.7,26.6,13.8,34.3c0.6,4.4,0.4,8.8-0.5,13.1c-0.4-0.1-0.9-0.1-1.3-0.1
	C87.9,92.3,87.1,94,86.9,94.9z M117.2,112.8c-1.6,1.1-3.3,2-5,2.8c-3.8,2-8.1,4.2-10.1,6.2c-2.7,2.9-5.8,4.8-7.7,4.8
	c-0.2,0-0.4,0-0.6-0.1c-2-0.6-3.7-3.6-2.8-7.7s2-10.1,1.9-13.5c0-0.8-0.1-1.6-0.2-2.4c-0.2-1.5-0.2-3-0.1-4.5l0.1-0.1
	c0,2,0.4,5.8,3.6,7.2c1,0.4,2.1,0.6,3.2,0.6c2.9-0.1,5.8-1.1,8-3c0.8-0.8,1.4-1.7,2-2.7c0.1,0.4,0.2,0.8,0.1,1.3
	c-0.2,2.9,1.2,6.7,3.9,8.1l0.4,0.2c0.9,0.5,3.5,1.8,3.5,2.4C117.3,112.6,117.3,112.7,117.2,112.8z"/>
</svg>
