<?xml version="1.0" encoding="utf-8"?>
<!-- Generator: Adobe Illustrator 26.0.1, SVG Export Plug-In . SVG Version: 6.00 Build 0)  -->
<svg version="1.1" id="Слой_1" xmlns="http://www.w3.org/2000/svg" xmlns:xlink="http://www.w3.org/1999/xlink" x="0px" y="0px"
	 viewBox="0 0 138 138" style="enable-background:new 0 0 138 138;" xml:space="preserve">
<style type="text/css">
	.st0{fill:none;stroke:#44149C;stroke-width:3;stroke-miterlimit:10;}
</style>
<path class="st0" d="M130.5,65.7c0-19.6-15.9-35.5-35.5-35.5H42.9c-19.6,0-35.5,15.9-35.5,35.5V72c0,19.6,15.9,35.5,35.5,35.5h52.1
	c14.7,0,23,0.1,25.9,0.3c0.8,0,3.5,0,4.2,0c2.8,0,4.1,0,4.8-0.9c0.3-0.5,0.5-1.1,0.4-1.7C130.4,92,130.5,78.8,130.5,65.7z
	 M110.2,87.3c0,1.2-1,2.1-2.1,2.1H95.7c-1.2,0-2.1-1-2.1-2.1V74.1c0-4.6-3.4-8.4-7.5-8.4s-7.5,3.8-7.5,8.4v13.2c0,1.2-1,2.1-2.1,2.1
	H62.2c-1.2,0-2.1-1-2.1-2.1V70.2c-1.1-2.7-3.7-4.4-6.6-4.5c-4.1,0-7.5,3.8-7.5,8.4v13.2c0,1.2-1,2.1-2.1,2.1H29.6
	c-1.2,0-2.1-1-2.1-2.1V70.1c0-13.8,10-25,22.4-25h5.4c5,0,9.8,1.9,13.6,5.2c3.7-3.3,8.6-5.1,13.6-5.2h5.4c12.3,0,22.3,11.2,22.3,25
	V87.3z"/>
</svg>
