<?xml version="1.0" encoding="utf-8"?>
<!-- Generator: Adobe Illustrator 26.0.1, SVG Export Plug-In . SVG Version: 6.00 Build 0)  -->
<svg version="1.1" id="Слой_1" xmlns="http://www.w3.org/2000/svg" xmlns:xlink="http://www.w3.org/1999/xlink" x="0px" y="0px"
	 viewBox="0 0 138 138" style="enable-background:new 0 0 138 138;" xml:space="preserve">
<style type="text/css">
	.st0{fill:none;stroke:#44149C;stroke-width:3;stroke-miterlimit:10;}
</style>
<path class="st0" d="M123,29.1c-0.8-7.5-6.2-13.8-13.5-15.7C96.3,9.7,82.7,7.7,69,7.6c-13.8,0.1-27.5,2.1-40.8,5.8
	c-7.2,2-12.5,8.2-13.2,15.7c-0.8,6.4-1.2,12.9-1.2,19.3c0,62.9,55.2,81.9,55.2,81.9s55.2-19,55.2-81.9C124.2,42,123.8,35.5,123,29.1
	z M72.1,96.6v9.2h-6.1v-9.2C60.7,92,50.6,81.9,50.6,65.9C50.6,41.4,69,26,69,26s18.4,15.3,18.4,39.9C87.4,81.9,77.3,92,72.1,96.6z"
	/>
</svg>
