<?xml version="1.0" encoding="utf-8"?>
<!-- Generator: Adobe Illustrator 26.0.1, SVG Export Plug-In . SVG Version: 6.00 Build 0)  -->
<svg version="1.1" id="Слой_1" xmlns="http://www.w3.org/2000/svg" xmlns:xlink="http://www.w3.org/1999/xlink" x="0px" y="0px"
	 viewBox="0 0 138 138" style="enable-background:new 0 0 138 138;" xml:space="preserve">
<style type="text/css">
	.st0{fill:none;stroke:#44149C;stroke-width:3;stroke-miterlimit:10;}
	.st1{fill:none;stroke:#44149C;stroke-width:2;stroke-miterlimit:10;}
</style>
<polygon class="st0" points="91.4,59.3 91.4,55.7 91.4,52.1 85.3,48.5 79.2,52.1 79.2,59.3 85.3,62.9 "/>
<path class="st0" d="M53.7,71.7l12.2-7.1c0.6-0.4,1-1,1-1.8V48.6c0-0.7-0.4-1.4-1-1.8l-12.2-7.1c-0.3-0.2-0.6-0.3-1-0.3
	c-0.4,0-0.7,0.1-1,0.3l-12.3,7.1c-0.6,0.4-1,1-1,1.8v14.2c0,0.7,0.4,1.4,1,1.8l12.2,7.1C52.3,72.1,53.1,72.1,53.7,71.7z M46,59v-6.6
	c0-0.3,0.2-0.7,0.5-0.8l5.7-3.3c0.3-0.2,0.7-0.2,1,0l5.7,3.3c0.3,0.2,0.5,0.5,0.5,0.8V59c0,0.3-0.2,0.7-0.5,0.8l-5.7,3.3
	c-0.3,0.2-0.7,0.2-1,0l-5.7-3.3C46.2,59.7,46,59.3,46,59z"/>
<path class="st0" d="M33.3,46.8l-12.2-7.1c-0.3-0.2-0.6-0.3-1-0.3c-0.4,0-0.7,0.1-1,0.3L6.9,46.8c-0.6,0.4-1,1.1-1,1.8v18.2
	c0,0.6,0.5,1.2,1.2,1.1c0.2,0,0.4-0.1,0.6-0.1l5.4-3.2c0.6-0.4,1-1,1-1.8V52.1l6.1-3.6l6.1,3.6v10.8c0,0.7,0.4,1.4,1,1.8l5.4,3.2
	c0.5,0.3,1.3,0.1,1.6-0.4c0.1-0.2,0.2-0.4,0.2-0.6V48.6C34.4,47.8,34,47.2,33.3,46.8z"/>
<path class="st0" d="M72.1,64.6l12.2,7.1c0.3,0.2,0.6,0.3,1,0.3c0.4,0,0.7-0.1,1-0.3l12.2-7.1c0.6-0.4,1-1,1-1.8V24
	c0-0.7-0.4-1.4-1-1.8l-5.3-3.1c-0.6-0.3-1.3-0.1-1.7,0.4c-0.1,0.2-0.2,0.4-0.2,0.6v22.4l-5.1-3c-0.3-0.2-0.6-0.3-1-0.3
	c-0.4,0-0.7,0.1-1,0.3l-12.2,7.2c-0.6,0.4-1,1-1,1.8v14.2C71,63.5,71.4,64.2,72.1,64.6z M79.2,52.1l6.1-3.6l6.1,3.6v7.2l-6.1,3.6
	l-6.1-3.6L79.2,52.1z"/>
<path class="st1" d="M75.2,100.8c-5,0-6-1.2-6.4-3.7c0-0.3-0.3-0.5-0.6-0.5h-2.4c-0.3,0-0.6,0.2-0.6,0.5c0,0,0,0,0,0
	c0,3.1,1.7,6.9,9.9,6.9c6,0,9.4-2.3,9.4-6.4s-2.7-5.1-8.5-5.9s-6.4-1.2-6.4-2.5c0-1.1,0.5-2.6,4.8-2.6c3.8,0,5.3,0.8,5.9,3.4
	c0,0.2,0.3,0.4,0.5,0.4h2.4c0.1,0,0.3-0.1,0.4-0.2c0.1-0.1,0.2-0.3,0.1-0.4c-0.4-4.5-3.3-6.5-9.3-6.5c-5.3,0-8.5,2.3-8.5,6
	c0,4.1,3.2,5.2,8.3,5.7c6.1,0.6,6.6,1.5,6.6,2.7C80.9,99.9,79.2,100.8,75.2,100.8z"/>
<path class="st1" d="M90.2,79.2L71.4,68.4c-0.6-0.3-1.3-0.5-1.9-0.5c-0.7,0-1.4,0.2-2,0.5L48.8,79.2c-1.2,0.7-2,2-2,3.4v21.6
	c0,1.4,0.8,2.7,2,3.4l4.9,2.8c1.3,0.8,2.8,1.2,4.3,1.2c3.5,0,5.5-2.1,5.5-5.8V84.4c0-0.3-0.2-0.6-0.5-0.6c0,0,0,0,0,0h-2.3
	c-0.3,0-0.6,0.3-0.5,0.6v21.3c0,1.6-1.7,3.3-4.5,1.9l-5.1-3c-0.2-0.1-0.3-0.3-0.3-0.5V82.6c0-0.2,0.1-0.4,0.3-0.5l18.7-10.8
	c0.2-0.1,0.4-0.1,0.6,0l18.7,10.8c0.2,0.1,0.3,0.3,0.3,0.5v21.6c0,0.2-0.1,0.4-0.3,0.5l-18.7,10.8c-0.2,0.1-0.4,0.1-0.6,0l-4.8-2.8
	c-0.1-0.1-0.3-0.1-0.5,0c-0.9,0.6-1.8,1-2.8,1.3c-0.3,0.1-0.8,0.3,0.2,0.8l6.2,3.7c0.6,0.3,1.3,0.5,2,0.5c0.7,0,1.4-0.2,1.9-0.5
	l18.7-10.8c1.2-0.7,2-2,2-3.4V82.6C92.1,81.2,91.4,79.9,90.2,79.2z"/>
<path class="st0" d="M131.1,46.8l-12.2-7.1c-0.3-0.2-0.6-0.3-1-0.3c-0.4,0-0.7,0.1-1,0.3l-12.2,7.1c-0.6,0.4-1,1-1,1.8v14.2
	c0,0.7,0.4,1.4,1,1.8l11.8,7.2c0.6,0.4,1.4,0.4,2.1,0l5.8-3.4c0.4-0.3,0.6-0.8,0.3-1.2c-0.1-0.1-0.2-0.2-0.3-0.3l-12.6-7.4v-7.3
	l6.1-3.5l6,3.5v5.1c-0.1,0.3,0.2,0.6,0.5,0.7c0.2,0,0.4,0,0.5-0.1c1.5-0.9,6.2-3.6,6.2-3.6c0.6-0.4,1-1,1-1.8v-3.8
	C132.2,47.8,131.8,47.2,131.1,46.8z"/>
</svg>
