<?xml version="1.0" encoding="utf-8"?>
<!-- Generator: Adobe Illustrator 26.0.1, SVG Export Plug-In . SVG Version: 6.00 Build 0)  -->
<svg version="1.1" id="Слой_1" xmlns="http://www.w3.org/2000/svg" xmlns:xlink="http://www.w3.org/1999/xlink" x="0px" y="0px"
	 viewBox="0 0 138 138" style="enable-background:new 0 0 138 138;" xml:space="preserve">
<style type="text/css">
	.st0{fill:none;stroke:#44149C;stroke-width:3;stroke-miterlimit:10;}
</style>
<path class="st0" d="M10.6,108.7V95.9h3.9c16.6,0,33.3,0.1,49.9,0c13.9-0.1,24-10.9,23.4-24.7C87.3,58.7,76.2,49,63.3,49.5
	C51,50.1,41.1,60.8,41.7,73H47l-8.6,16.7c-4.7-4.3-9.4-8.5-14.9-13.5c5.9,0.5,5.1-3.1,5.3-6.2c0.1-1.8,0.3-3.6,0.5-5.6
	c-1.3-0.4-2.5-0.8-3.8-1.2C14.9,59.6,9.3,48.2,13,37.6s15.1-16.1,25.6-12.5c0.8,0.3,1.5,0.6,2.3,0.9c1.4,0.6,3,0.7,5.4,1.3l2.1,8.7
	H38.1l0.7-2.6c-3.9-3-9.2-3.1-13.8-0.2s-7.1,8.7-5.8,13.7c1,4.4,4.1,8,8.3,9.7c2.6,1.1,4.3,0.9,6-2c10.3-17,32.4-22.5,49.4-12.3
	s22.5,32.4,12.3,49.4l0,0c-0.7,1.2-1.5,2.3-2.7,4.1c6,0,11.3,0,16.7-0.1c0.5,0,1.3-1,1.5-1.6c0.2-1.3,0.3-2.5,0.3-3.8l16.4,12
	l-15.7,11.5c-0.4-0.3-0.7-0.4-0.7-0.6c-0.6-4.6-0.6-4.6-5.4-4.6L10.6,108.7L10.6,108.7z"/>
</svg>
