<?xml version="1.0" encoding="utf-8"?>
<!-- Generator: Adobe Illustrator 26.0.1, SVG Export Plug-In . SVG Version: 6.00 Build 0)  -->
<svg version="1.1" id="Слой_1" xmlns="http://www.w3.org/2000/svg" xmlns:xlink="http://www.w3.org/1999/xlink" x="0px" y="0px"
	 viewBox="0 0 138 138" style="enable-background:new 0 0 138 138;" xml:space="preserve">
<style type="text/css">
	.st0{fill:none;stroke:#44149C;stroke-width:2;stroke-miterlimit:10;}
</style>
<path class="st0" d="M113.4,23.9c-11.3-16.3-33.8-21.1-50-10.8L34.8,31.4C27,36.3,21.6,44.3,20.1,53.3c-1.4,7.5-0.2,15.3,3.4,22.1
	c-2.5,3.7-4.1,7.9-4.9,12.2c-1.6,9.2,0.5,18.7,5.9,26.4c11.4,16.3,33.8,21.1,50.1,10.8l28.6-18.2c7.8-4.9,13.2-12.9,14.7-21.9
	c1.4-7.5,0.2-15.3-3.4-22.1c2.5-3.7,4.1-7.9,4.9-12.3C121.1,41.1,119,31.6,113.4,23.9z M105.3,47.3c-0.2,0.9-0.4,1.8-0.7,2.7
	l-0.5,1.7l-1.4-1c-3.4-2.5-7.2-4.4-11.2-5.7l-1-0.3l0.1-1c0.1-1.5-0.3-3-1.1-4.3c-1.6-2.4-4.6-3.5-7.4-2.7c-0.6,0.2-1.2,0.4-1.8,0.7
	L51.7,55.6c-1.4,0.9-2.4,2.3-2.7,4s0.1,3.4,1,4.8c1.7,2.4,4.7,3.5,7.5,2.7c0.6-0.2,1.2-0.4,1.8-0.7l10.9-7c1.8-1.1,3.8-2,5.8-2.6
	c9.2-2.4,18.9,1.2,24.3,9c3.3,4.6,4.6,10.3,3.6,15.9c-1,5.5-4.2,10.3-8.9,13.2L66.4,113c-1.8,1.1-3.8,2-5.8,2.6
	c-9.2,2.4-18.9-1.2-24.3-9c-3.3-4.6-4.6-10.3-3.6-15.9c0.2-0.9,0.4-1.8,0.6-2.7l0.5-1.7l1.5,1c3.4,2.5,7.2,4.4,11.2,5.7l1,0.3
	l-0.1,1c-0.1,1.5,0.3,3,1.2,4.3c1.6,2.4,4.6,3.5,7.4,2.8c0.6-0.2,1.2-0.4,1.8-0.7l28.5-18.1c1.4-0.9,2.4-2.3,2.7-4
	c0.3-1.7-0.1-3.4-1-4.8c-1.6-2.4-4.6-3.4-7.4-2.7c-0.6,0.2-1.2,0.4-1.8,0.7l-10.9,7c-1.8,1.1-3.8,2-5.8,2.5
	c-9.2,2.4-18.9-1.2-24.3-9c-3.3-4.6-4.5-10.3-3.5-15.9c1-5.5,4.2-10.3,8.9-13.2L71.6,25c1.8-1.1,3.8-2,5.8-2.6
	c9.2-2.4,18.9,1.2,24.3,9C105,36,106.3,41.7,105.3,47.3z"/>
</svg>
