<?xml version="1.0" encoding="utf-8"?>
<!-- Generator: Adobe Illustrator 26.0.1, SVG Export Plug-In . SVG Version: 6.00 Build 0)  -->
<svg version="1.1" id="Слой_1" xmlns="http://www.w3.org/2000/svg" xmlns:xlink="http://www.w3.org/1999/xlink" x="0px" y="0px"
	 viewBox="0 0 138 138" style="enable-background:new 0 0 138 138;" xml:space="preserve">
<style type="text/css">
	.st0{fill:none;stroke:#44149C;stroke-width:3;stroke-miterlimit:10;}
</style>
<path class="st0" d="M69,8.3L17.4,38.7v60.7L69,129.7l51.6-30.3V38.7L69,8.3z M70.5,17.4L113,41.7l-15.2,9.1L70.5,35.6V17.4z
	 M67.5,17.4v18.2L40.2,50.8L25,41.7L67.5,17.4z M23.5,44.7l15.2,9.1v30.3l-15.2,9.1L23.5,44.7z M67.5,120.6L25,96.3l15.2-9.1
	l27.3,15.2L67.5,120.6z M67.5,97.8L41.7,84.2V55.3l25.8,15.2L67.5,97.8z M43.2,52.3L69,38.7l25.8,13.7L69,67.5L43.2,52.3z
	 M96.3,55.3v28.9L70.5,97.8V70.5L96.3,55.3z M70.5,120.6v-18.2l27.3-15.2l15.2,9.1L70.5,120.6z M114.5,93.3l-15.2-9.1V53.8l15.2-9.1
	V93.3z"/>
</svg>
