<?xml version="1.0" encoding="utf-8"?>
<!-- Generator: Adobe Illustrator 26.0.3, SVG Export Plug-In . SVG Version: 6.00 Build 0)  -->
<svg version="1.1" id="Слой_1" xmlns="http://www.w3.org/2000/svg" xmlns:xlink="http://www.w3.org/1999/xlink" x="0px" y="0px"
	 viewBox="0 0 141.7 141.7" style="enable-background:new 0 0 141.7 141.7;" xml:space="preserve">
<style type="text/css">
	.st0{fill:#FFFFFF;}
</style>
<path class="st0" d="M-384,45.4h26.1c0.6,0,1.2,0.5,1.2,1.2v9.9c0,0.6-0.5,1.1-1.2,1.1H-384c-0.6,0-1.2-0.5-1.2-1.1v-9.9
	C-385.1,45.9-384.6,45.4-384,45.4z"/>
<path class="st0" d="M-384,72.6h26.1c0.6,0,1.2,0.5,1.2,1.2v9.9c0,0.6-0.5,1.2-1.2,1.2H-384c-0.6,0-1.2-0.5-1.2-1.2v-9.9
	C-385.1,73.1-384.6,72.6-384,72.6z"/>
<path class="st0" d="M-393.1,59h26.1c0.6,0,1.1,0.5,1.1,1.2v9.9c0,0.6-0.5,1.1-1.1,1.1h-26.1c-0.6,0-1.2-0.5-1.2-1.1v-9.9
	C-394.2,59.5-393.7,59-393.1,59z"/>
<path class="st0" d="M-352.1,45.8v38.5c0,0.3-0.3,0.6-0.6,0.6h-1.9c-0.3,0-0.6-0.3-0.6-0.6V45.8c0-0.3,0.3-0.6,0.6-0.6h1.9
	C-352.3,45.3-352.1,45.5-352.1,45.8z"/>
<g>
	<g>
		<path class="st0" d="M43.6,21.1h65.9c1.6,0,2.9,1.3,2.9,2.9v25c0,1.6-1.3,2.9-2.9,2.9H43.6c-1.6,0-2.9-1.3-2.9-2.9V24
			C40.7,22.4,42,21.1,43.6,21.1z"/>
		<path class="st0" d="M43.6,89.9h65.9c1.6,0,2.9,1.3,2.9,2.9v25c0,1.6-1.3,2.9-2.9,2.9H43.6c-1.6,0-2.9-1.3-2.9-2.9v-25
			C40.7,91.2,42,89.9,43.6,89.9z"/>
		<path class="st0" d="M20.6,55.5h65.9c1.6,0,2.9,1.3,2.9,2.9v25c0,1.6-1.3,2.9-2.9,2.9H20.6c-1.6,0-2.9-1.3-2.9-2.9v-25
			C17.7,56.8,19,55.5,20.6,55.5z"/>
		<path class="st0" d="M124.1,22.2v97.3c0,0.8-0.6,1.4-1.4,1.4h-4.9c-0.8,0-1.4-0.6-1.4-1.4V22.2c0-0.8,0.6-1.4,1.4-1.4h4.9
			C123.5,20.8,124.1,21.4,124.1,22.2z"/>
	</g>
</g>
</svg>
