<svg id="Слой_1" data-name="Слой 1" xmlns="http://www.w3.org/2000/svg" viewBox="0 0 826.49 141.73"><defs><style>.cls-1{fill:#db2778;}.cls-2{fill:#1d1d1b;}.cls-3{isolation:isolate;}</style></defs><rect class="cls-1" x="40.08" y="24.63" width="71.72" height="30.81" rx="2.9"/><rect class="cls-1" x="40.08" y="93.37" width="71.72" height="30.81" rx="2.9"/><rect class="cls-2" x="17.05" y="59" width="71.72" height="30.81" rx="2.9"/><rect class="cls-1" x="115.75" y="24.3" width="7.78" height="100.11" rx="1.44"/><g class="cls-3"><path class="cls-1" d="M176.2,75.18c.43,0,.76-.29,1-.88a9.28,9.28,0,0,0,.57-2,19.71,19.71,0,0,0,.25-2.34c.05-.81.07-1.42.07-1.85V38.49h26.53V74.8a17.25,17.25,0,0,1-.51,3.75,22.11,22.11,0,0,1-1.46,4.31,14.32,14.32,0,0,1-2.28,3.62,4.36,4.36,0,0,1-3,1.65l-2.41.13,9.65,23.36H178.11l-9.65-23.36H154.88v23.36H128.47v-73l-.13-.13h26.54V75.18Z"/><path class="cls-1" d="M296.81,111.62H270.53V93.85H238.79l-.64,1.65v16.12H212V93.85q4.58-13.34,9.71-25.2t10.35-24.44a6.16,6.16,0,0,1,.82-1.34c.47-.63,1-1.26,1.53-1.9a16.23,16.23,0,0,1,1.71-1.71,2.56,2.56,0,0,1,1.53-.77h59.16Zm-40.88-61.7L244,80.52h26.54V49.92Z"/><path class="cls-1" d="M304.17,38.49h15.48a5.33,5.33,0,0,1,1.59.39,17.5,17.5,0,0,1,2.29,1,16,16,0,0,1,2.28,1.46,9.71,9.71,0,0,1,1.84,1.84q6.23,6.48,12.38,13.33t12.25,14.09V38.49h26.53v73.13H363.07a4.58,4.58,0,0,1-2.16-1,20.6,20.6,0,0,1-2.28-2.09c-.76-.8-1.5-1.63-2.22-2.48l-2-2.28L330.7,78.36v33.26H304.17Z"/><path class="cls-1" d="M471.23,92.2q0,2.79-.19,6.15a29.68,29.68,0,0,1-1,6.35,13,13,0,0,1-2.48,5,5.79,5.79,0,0,1-4.7,2H386.17V38.49h48.37a8.15,8.15,0,0,1,2.8.64A8.69,8.69,0,0,1,440,40.65a146.41,146.41,0,0,1,14.29,14.22,208.36,208.36,0,0,1,13.13,16.76,28.63,28.63,0,0,1,3.18,9.84A86.19,86.19,0,0,1,471.23,92.2Zm-58.52,6.34h30.21l1.91-1.77v-8l-7-9.9H419.18V65.54h9.4L421,54.49A13.43,13.43,0,0,0,419.44,53a16.29,16.29,0,0,0-2.23-1.65A21.41,21.41,0,0,0,414.8,50a5,5,0,0,0-2.09-.57Z"/><path class="cls-1" d="M563.4,111.62H537.12V93.85H505.38l-.63,1.65v16.12H478.59V93.85q4.57-13.34,9.72-25.2t10.34-24.44a6.34,6.34,0,0,1,.83-1.34c.46-.63,1-1.26,1.52-1.9a16.23,16.23,0,0,1,1.71-1.71,2.61,2.61,0,0,1,1.53-.77H563.4Zm-40.88-61.7-11.93,30.6h26.53V49.92Z"/><path class="cls-1" d="M570.76,38.49h15.49a5.29,5.29,0,0,1,1.58.39,16.93,16.93,0,0,1,2.29,1,16,16,0,0,1,2.28,1.46,9.77,9.77,0,0,1,1.85,1.84q6.21,6.48,12.37,13.33t12.25,14.09V38.49h26.54v73.13H629.67a4.5,4.5,0,0,1-2.16-1,20.66,20.66,0,0,1-2.29-2.09c-.76-.8-1.5-1.63-2.22-2.48l-2-2.28L597.29,78.36v33.26H570.76Z"/><path class="cls-1" d="M652.77,92.2a86.19,86.19,0,0,1,.63-10.73,28.85,28.85,0,0,1,3.18-9.84l.25-.51q6.48-8.76,13.14-16.31a156.1,156.1,0,0,1,14-14,7.26,7.26,0,0,1,2.73-1.65,8.65,8.65,0,0,1,2.85-.64h44.06V49.41H711.29a5,5,0,0,0-2.09.57,21.41,21.41,0,0,0-2.41,1.34A16.29,16.29,0,0,0,704.56,53,13.43,13.43,0,0,0,703,54.49L695.3,65.54h29.2V78.87H686l-6.73,9.9v8l1.78,1.77h52.56v13.08H661.15a5.8,5.8,0,0,1-4.7-2,13,13,0,0,1-2.48-5,29.68,29.68,0,0,1-1-6.35Q652.77,95,652.77,92.2Z"/><path class="cls-1" d="M791.52,38.49V49.92h-7c-.42,0-1.08.87-2,2.6s-1.92,3.94-3.11,6.6-2.39,5.65-3.61,8.95-2.35,6.5-3.37,9.59-1.86,5.9-2.54,8.44a24.8,24.8,0,0,0-1,5.59c0,.25,0,.76.12,1.52s.22,1.53.38,2.29a18.89,18.89,0,0,0,.58,2.09c.21.64.48,1,.82,1h34.91v13.08H746.33a3.59,3.59,0,0,1-2.86-1.52,14.08,14.08,0,0,1-2-3.69,22.58,22.58,0,0,1-1.2-4.44,23.33,23.33,0,0,1-.39-3.81c0-.42,0-.93.07-1.52s.06-.93.06-1q4.57-13.07,9.71-25.7T760,44.21c.08-.09.28-.32.57-.7s.64-.83,1-1.33.76-1,1.14-1.46a14.22,14.22,0,0,1,1-1.08,6.63,6.63,0,0,1,.95-.7,2.42,2.42,0,0,1,1-.45Z"/></g></svg>