<?xml version="1.0" encoding="utf-8"?>
<!-- Generator: Adobe Illustrator 26.0.1, SVG Export Plug-In . SVG Version: 6.00 Build 0)  -->
<svg version="1.1" id="Слой_1" xmlns="http://www.w3.org/2000/svg" xmlns:xlink="http://www.w3.org/1999/xlink" x="0px" y="0px"
	 viewBox="0 0 40 40" style="enable-background:new 0 0 40 40;" xml:space="preserve">
<style type="text/css">
	.st0{fill:#F3E600;}
	.st1{fill:#12100B;}
</style>
<g>
	<path class="st0" d="M9.4,21.4c0.3,0.2,0.7,0.3,1,0.4c0.2,0,0.4,0,0.6,0c0.2,0,0.5,0,0.7,0c0.2,0,0.5,0,0.7-0.1
		c0.2,0,0.4-0.1,0.6-0.1c0.1,0,0.3-0.1,0.4-0.1l0.2,0l-0.1,0.1c-0.1,0.1-0.2,0.2-0.4,0.2c-0.2,0.1-0.4,0.2-0.6,0.2
		c-0.2,0.1-0.5,0.1-0.7,0.1c0.2,0,0.4,0,0.7,0c2,0,3.2-1.2,3.8-2.3c-0.2,0.2-0.4,0.4-0.6,0.6c-0.5,0.5-1.1,0.8-1.7,1.1
		c-0.2,0.1-0.4,0.2-0.6,0.2c-0.2,0-0.2,0.1-0.2,0.1s0.1,0,0.2-0.1c0.2-0.1,0.4-0.2,0.6-0.3c0.6-0.3,1.1-0.7,1.5-1.2
		c0.4-0.5,0.8-1,1-1.7c0-0.1,0.1-0.2,0.1-0.3c-0.1,0.1-0.1,0.2-0.2,0.3c-0.2,0.3-0.5,0.6-0.8,0.9c0.2-0.3,0.4-0.7,0.5-1
		c0.1-0.3,0.3-0.7,0.3-1.1c-0.2-0.3-0.6-0.4-1-0.4c-0.1,0-0.2,0-0.3,0C14.4,21.3,9.4,21.4,9.4,21.4z M14,19.8L14,19.8
		c0.1-0.1,0.2-0.2,0.3-0.3s0.2-0.2,0.3-0.3c0.1-0.1,0.2-0.2,0.3-0.4c0.1-0.1,0.2-0.3,0.2-0.4c0.1-0.1,0.1-0.3,0.2-0.4
		c0-0.1,0.1-0.2,0.1-0.3c0-0.1,0-0.1,0-0.1l0,0.1c0,0.1,0,0.2-0.1,0.3c0,0.1-0.1,0.3-0.1,0.4c-0.1,0.1-0.1,0.3-0.2,0.4
		c-0.1,0.1-0.2,0.3-0.3,0.4c-0.1,0.1-0.2,0.2-0.3,0.3C14.2,19.6,14.1,19.7,14,19.8L14,19.8z"/>
	<path class="st0" d="M15.5,16.6c0.5,0,1,0.2,1.4,0.6l0.1-0.8l0.1,0.3c0-0.1,0-0.2,0-0.3c0-0.3,0-0.5,0.1-0.7
		c0.1-0.9,0.2-1.5,0.2-1.5s0,0.6,0.1,1.5c0,0.2,0,0.5,0,0.7c0,0.3,0,0.5,0,0.8c0,0.3,0,0.6,0,0.8c0,0.3,0,0.6,0,0.9
		c0,0.2,0,0.4,0,0.6c0.1,1.3,0.2,2.8,0.5,4.4c0.6,4.1,1.8,7.5,3,9.3c1.1,1.5,2.4,3.1,3.8,3.7c0.3,0.1,0.7,0.2,1.1,0.2
		c1.6,0,2.7-1.4,2.5-2c-0.1-0.6-0.6-1.1-1.1-1.1c-0.1,0-0.1,0-0.2,0c0,0-0.1,0.1-0.1,0.2c0,0.1,0,0.3,0,0.4c0,0.2,0.1,0.3,0.2,0.4
		c0.1,0.1,0.2,0.2,0.3,0.3c0.1,0.1,0.2,0.1,0.3,0.1c0,0,0.1,0,0.1,0l0,0l0,0c0,0-0.1,0-0.1,0c-0.1,0-0.2,0-0.4,0
		c-0.2,0-0.3-0.1-0.5-0.2C27,35.1,27,35.1,26.9,35l0,0.2L26.8,35c0,0,0,0,0,0c0,0.1,0,0.3,0,0.4c0,0,0,0,0,0l0,0c0.1,0,0.1,0,0.2,0
		c0.1,0,0.1,0,0.2,0c0,0,0.1,0,0.1,0c0,0,0,0.1,0,0.1c0,0.1-0.1,0.1-0.2,0.2c-0.1,0-0.1,0.1-0.2,0.1l0,0c0,0,0,0,0,0
		c0,0.1,0,0.2,0,0.3c0,0.1,0,0.1,0,0.1l-0.1-0.1c0-0.1-0.1-0.2-0.1-0.3c0-0.1-0.1-0.3-0.1-0.4c0-0.1,0-0.2,0-0.3
		c-0.1,0.2-0.3,0.3-0.7,0.3c-0.1,0-0.2,0-0.3-0.1c0,0-0.1,0.1-0.1,0.1l0,0l0.2,0.3l-0.4,0c0,0,0,0,0,0.1l0.2,0.3l-0.3,0
		c0,0,0,0.1,0,0.1c0,0.1-0.1,0.1-0.1,0.2l0,0.1l0-0.1c0,0,0-0.1-0.1-0.2c0-0.1,0-0.2,0-0.3c0-0.1,0.1-0.2,0.1-0.3
		c0.1-0.1,0.1-0.2,0.2-0.3c0,0,0.1,0,0.1,0c-0.3-0.2-0.7-0.6-1.2-1.3c-0.1,0-0.1,0.1-0.1,0.1l0.2,0.4l-0.5-0.3l0,0l0.5,0.9l-0.7-0.6
		c0,0,0,0.1-0.1,0.1c0,0-0.1,0.1-0.1,0.1l0,0.1c0,0,0,0,0-0.1c0-0.1,0-0.1,0-0.2c0-0.1,0.1-0.2,0.1-0.3c0.1-0.1,0.1-0.2,0.2-0.2
		c0.1-0.1,0.2-0.1,0.3-0.2c0.1,0,0.1,0,0.2-0.1c-0.4-0.6-0.8-1.3-1-2c0,0-0.1,0.1-0.2,0.1c-0.1,0-0.1,0.1-0.2,0.1l0,0.2l-0.2-0.1
		c0,0-0.1,0-0.1,0.1c-0.1,0-0.1,0.1-0.2,0.1l0.6,1.1l-0.9-0.9c0,0-0.1,0-0.1,0.1c-0.1,0-0.1,0.1-0.2,0.1l-0.1,0c0,0,0,0,0-0.1
		c0-0.1,0.1-0.1,0.1-0.2c0.1-0.1,0.1-0.2,0.2-0.2c0.1-0.1,0.2-0.1,0.3-0.2c0.1-0.1,0.2-0.1,0.3-0.1c0.1,0,0.2-0.1,0.3-0.1
		s0.1,0,0.2,0c-0.2-0.6-0.4-1.3-0.5-2l0,0l0,0c-0.6-3.5-0.2-7.7,0.1-10c0-0.3,0-0.6,0-0.9c0-0.3,0-0.6,0-0.9c0-0.3,0-0.6,0-0.8
		s0-0.5,0-0.8c0-0.3,0-0.5,0-0.7c0-0.9,0.1-1.5,0.1-1.5s0.1,0.6,0.2,1.5c0,0.2,0,0.4,0.1,0.7l0.1-0.9l0.2,1.3l0.1-0.6l0.2,0.6
		c0.3-0.2,0.7-0.3,1-0.3l0,0c0.1,0,0.2,0,0.3,0c0-0.3-0.1-0.6-0.1-0.9c-0.1-0.2-0.2-0.4-0.3-0.6c-0.1-0.2-0.1-0.4-0.2-0.6
		c-0.1-0.2-0.1-0.4-0.2-0.6c-0.1-0.2-0.1-0.4-0.2-0.7c-0.1-0.2-0.1-0.5-0.2-0.7c-0.1-0.2-0.1-0.5-0.1-0.7c0-0.2,0-0.5,0-0.7
		c0-0.4,0.1-0.9,0.3-1.3c0.1-0.3,0.3-0.5,0.6-0.7c0.1-0.1,0.1-0.1,0.2-0.2l0.1-0.1c0,0,0,0-0.1,0.1c0,0-0.1,0.1-0.1,0.2
		c-0.2,0.2-0.3,0.5-0.4,0.8c0,0.1,0,0.1,0,0.2c0,0,0-0.1,0.1-0.1c0.1-0.1,0.2-0.2,0.3-0.3l0.3-0.2c0.1,0,0.2-0.1,0.2-0.1l0.1,0
		c0,0,0,0,0,0.1c0,0.1-0.1,0.1-0.1,0.2l-0.1,0.1c0.1,0,0.2,0.1,0.2,0.1c0,0,0,0.1,0.1,0.1c0-0.1,0.1-0.1,0.1-0.2c0,0,0-0.1,0-0.1
		c0,0,0,0.1,0,0.1c0,0.1,0,0.2,0,0.3c0,0.1-0.1,0.3-0.1,0.4c-0.1,0.1-0.2,0.3-0.3,0.4c-0.1,0.1-0.2,0.2-0.3,0.3
		c-0.1,0.1-0.1,0.2-0.2,0.3c0,0.1-0.1,0.2-0.1,0.3c0,0,0,0.1,0,0.1c0,0,0-0.1-0.1-0.1c0-0.1-0.1-0.2-0.1-0.3c0-0.2,0.1-0.3,0.1-0.4
		c0.1-0.1,0.2-0.3,0.3-0.4l0.1,0c-0.1,0-0.3,0-0.4-0.1c0,0,0,0,0,0c0,0.1-0.1,0.2-0.1,0.2c0,0.1-0.1,0.1-0.1,0.2v0c0,0,0,0,0,0.1
		c0,0.2,0,0.5,0.1,0.7c0,0.2,0.1,0.5,0.2,0.7c0.1,0.2,0.1,0.5,0.2,0.7c0.1,0.2,0.1,0.5,0.2,0.7l0.3-1l0.1,0.8c0-0.1,0.1-0.2,0.1-0.3
		c0.1-0.2,0.1-0.4,0.2-0.6c0-0.2,0.1-0.4,0.2-0.6c0-0.2,0.1-0.4,0.1-0.5c0-0.2,0.1-0.3,0.1-0.4l0-0.1l0,0.2c0,0.1,0,0.2,0,0.4
		c0,0.2,0,0.4,0,0.6c0,0.1,0,0.2,0,0.3c0.1-0.4,0.2-0.8,0.2-1.1c0.1-0.8,0.1-1.4,0-1.8c-0.1-0.1-0.1-0.3-0.2-0.4
		c-0.1-0.2-0.2-0.4-0.3-0.5C25,8.3,24.8,8.2,24.7,8l-0.4-0.4c-0.3-0.3-0.5-0.6-0.7-0.9c-0.2-0.2-0.3-0.5-0.3-0.8c0-0.1,0-0.2,0-0.2
		c0-0.1,0-0.1,0-0.1c0,0.1,0.1,0.2,0.1,0.3c0.1,0.2,0.3,0.4,0.5,0.6c0.2,0.2,0.4,0.4,0.6,0.6C24.2,7,24.1,6.8,24,6.7
		c-0.1-0.1-0.2-0.2-0.2-0.3l-0.2-0.3L23.6,6l0.1,0.1l0.3,0.2c0.1,0.1,0.2,0.2,0.3,0.3c0.1,0.1,0.1,0.1,0.2,0.2c0,0-0.1-0.1-0.1-0.1
		c-0.1-0.2-0.3-0.4-0.4-0.6s-0.3-0.4-0.4-0.6c-0.1-0.2-0.3-0.4-0.4-0.5c-0.1-0.1-0.2-0.3-0.3-0.4l-0.1-0.1l0.2,0.1
		c0.1,0.1,0.2,0.2,0.4,0.3s0.3,0.3,0.5,0.5c0.2,0.2,0.3,0.4,0.5,0.6l0,0c-0.3-0.7-0.8-1.4-1.4-1.9c-0.2-0.1-1.2-0.6-2.8-0.6
		c-0.8,0-1.6,0.1-2.3,0.4c-0.4,0.3-0.8,0.7-1.1,1.3c0.1-0.1,0.2-0.2,0.3-0.2l0.1-0.1L17,4.7c-0.1,0.1-0.1,0.2-0.2,0.4
		c-0.1,0.2-0.2,0.3-0.3,0.5c-0.1,0.1-0.2,0.3-0.3,0.5c-0.1,0.2-0.2,0.4-0.2,0.7c0-0.1,0.1-0.1,0.1-0.2c0.1-0.1,0.2-0.2,0.2-0.3
		c0.1-0.1,0.1-0.2,0.2-0.2l0.1-0.1c0,0,0,0,0,0.1s0,0.2-0.1,0.3c0,0.1-0.1,0.2-0.1,0.4c0,0-0.1,0.1-0.1,0.1c0.1-0.1,0.2-0.2,0.3-0.3
		c0.2-0.2,0.3-0.4,0.5-0.6C17,5.8,17,5.7,17.1,5.6l0,0.1c0,0.1,0,0.2,0,0.2c-0.1,0.3-0.2,0.5-0.3,0.8C16.5,7,16.2,7.3,16,7.6L15.5,8
		c-0.1,0.1-0.3,0.3-0.4,0.5C15,8.7,14.8,8.8,14.7,9c-0.1,0.2-0.2,0.4-0.2,0.5c0,0.1-0.1,0.2-0.1,0.2c0,0.5,0,0.9,0,1.4
		c0,0.4,0.1,0.8,0.2,1.1c0-0.1,0-0.2-0.1-0.4c0-0.2,0-0.4,0-0.5s0-0.3,0-0.4c0-0.1,0-0.1,0-0.1s0,0,0,0.1c0,0.1,0.1,0.2,0.1,0.4
		c0,0.1,0.1,0.3,0.1,0.5c0,0.2,0.1,0.4,0.1,0.6s0.1,0.4,0.1,0.6l0,0l0.1-0.8l0.1,0.7c0.2-0.4,0.4-0.7,0.6-1.1c0-0.1,0-0.1,0-0.2
		c0-0.2,0.1-0.4,0.1-0.7c0,0,0,0,0,0c0,0,0,0,0,0c0-0.1,0-0.2-0.1-0.2c0-0.1-0.1-0.2-0.1-0.2c0,0,0,0,0,0c-0.1,0.1-0.3,0.2-0.4,0.1
		l0.1,0c0.1,0.1,0.2,0.2,0.3,0.4c0.1,0.1,0.1,0.3,0.1,0.4c0,0.1,0,0.2-0.1,0.3c0,0,0,0.1-0.1,0.1c0,0,0-0.1,0-0.1
		c0-0.1,0-0.2-0.1-0.3c0-0.1-0.1-0.2-0.2-0.3c-0.1-0.1-0.2-0.2-0.3-0.3c-0.1-0.1-0.2-0.3-0.3-0.4C15.1,10.3,15,10.2,15,10
		c0-0.1,0-0.2,0-0.3c0,0,0-0.1,0-0.1c0,0,0,0.1,0,0.1c0,0.1,0,0.1,0.1,0.2c0,0,0-0.1,0.1-0.1c0.1-0.1,0.1-0.1,0.2-0.1l-0.1-0.1
		c-0.1-0.1-0.1-0.2-0.1-0.2l0-0.1l0.1,0c0.1,0,0.1,0.1,0.2,0.1l0.3,0.2c0.1,0.1,0.2,0.2,0.3,0.3c0,0,0,0.1,0.1,0.1
		c0-0.1,0-0.1-0.1-0.2C16,9.5,15.9,9.2,15.7,9c-0.1-0.1-0.1-0.2-0.1-0.2l-0.1-0.1l0.1,0.1c0.1,0,0.1,0.1,0.2,0.2
		c0.2,0.2,0.4,0.5,0.6,0.7c0.2,0.4,0.3,0.8,0.3,1.3c0,0.2,0,0.5,0,0.7c0,0.3-0.1,0.5-0.1,0.7c-0.1,0.2-0.1,0.5-0.2,0.7
		c-0.1,0.2-0.1,0.5-0.2,0.7c-0.1,0.2-0.1,0.4-0.2,0.6c-0.1,0.2-0.1,0.4-0.2,0.6c-0.1,0.2-0.2,0.4-0.2,0.6c0,0.1,0,0.1,0,0.2
		c0-0.1,0.1-0.1,0.1-0.2c0.2-0.3,0.4-0.6,0.6-0.9c-0.1,0.3-0.2,0.7-0.3,1C15.6,16,15.6,16.4,15.5,16.6z M28.1,35.2L28.1,35.2
		c-0.1-0.1-0.1-0.1-0.2-0.2c0-0.1-0.1-0.1-0.2-0.2c-0.1-0.1-0.1-0.1-0.2-0.2c-0.1-0.1-0.1-0.1-0.2-0.2c0-0.1-0.1-0.1-0.1-0.2
		c0,0-0.1-0.1-0.1-0.1c0,0,0-0.1,0-0.1h0.1c0.1,0,0.1,0,0.2,0c0.1,0,0.2,0.1,0.2,0.1c0.1,0.1,0.2,0.1,0.2,0.2
		c0.1,0.1,0.2,0.3,0.2,0.5C28.1,35.1,28.1,35.1,28.1,35.2C28.1,35.2,28.1,35.2,28.1,35.2z M22,3.8l-0.2,0c-0.1,0-0.3,0-0.5,0
		c-0.1,0-0.1,0-0.2,0l-0.2,0.7l-0.2-0.8c-0.2,0-0.4,0-0.6,0C20,3.9,20,4.1,20,4.3c0,0.2-0.1,0.4-0.1,0.6c-0.1-0.2-0.1-0.4-0.2-0.6
		c0-0.2-0.1-0.3-0.1-0.5c-0.1,0-0.3,0-0.4,0l-0.1,0l-0.3,0.5l-0.2-0.5l-0.1,0c-0.2,0-0.3,0-0.5,0.1l-0.2,0l0.2-0.1
		c0.1,0,0.3-0.1,0.4-0.2c0.2-0.1,0.4-0.1,0.6-0.2c0.2,0,0.5-0.1,0.8-0.1c0.3,0,0.5,0,0.8,0c0.2,0,0.5,0.1,0.7,0.1
		c0.2,0,0.3,0.1,0.4,0.1L22,3.8z M22.5,5.8l-0.2-0.1c-0.1,0-0.1,0-0.2-0.1c-0.1,0-0.2,0-0.3-0.1c-0.1,0-0.3-0.1-0.4-0.1
		c0,0.1-0.1,0.2-0.1,0.3c0,0.1-0.1,0.3-0.1,0.5C21,6,20.9,5.8,20.9,5.5c-0.3,0-0.5,0-0.8,0l-0.3,0.8l-0.2-0.8c-0.2,0-0.3,0-0.5,0
		l-0.3,0l-0.2,1.3l-0.3-1.2l0,0c-0.1,0-0.2,0-0.3,0.1c-0.1,0-0.2,0-0.2,0.1l-0.2,0.1l0.2-0.1c0.1,0,0.1-0.1,0.2-0.1
		c0.1,0,0.2-0.1,0.3-0.1c0.3-0.1,0.5-0.2,0.8-0.2c0.3-0.1,0.6-0.1,1-0.1c0.3,0,0.6,0,1,0.1c0.3,0.1,0.5,0.1,0.8,0.2
		c0.1,0,0.2,0.1,0.3,0.1c0.1,0,0.2,0.1,0.2,0.1L22.5,5.8z M23.4,10c0,0.1-0.1,0.2-0.1,0.2l0,0.1v-0.1C23.3,10.1,23.3,10.1,23.4,10
		c-0.1-0.1,0-0.3,0-0.4c0.1-0.3,0.2-0.5,0.4-0.7c0.1-0.1,0.1-0.2,0.2-0.3c0.1-0.1,0.1-0.1,0.2-0.2l0.1-0.1l-0.1,0.1
		c0,0-0.1,0.1-0.1,0.2S23.9,8.9,23.8,9c-0.1,0.1-0.1,0.2-0.2,0.3c-0.1,0.1-0.1,0.2-0.2,0.3C23.5,9.8,23.4,9.9,23.4,10L23.4,10z
		 M23.9,14.5c-0.1-0.3-0.2-0.6-0.4-0.9s-0.2-0.6-0.3-1c-0.1-0.3-0.1-0.6-0.1-0.9c0-0.2,0-0.4,0-0.6c0-0.1,0-0.2,0-0.2s0,0.1,0,0.2
		c0,0.2,0,0.4,0,0.6c0,0.3,0.1,0.6,0.2,0.8c0.1,0.3,0.2,0.6,0.3,0.9c0.1,0.3,0.2,0.6,0.3,0.9c0.1,0.3,0.2,0.6,0.3,0.8
		c0.1,0.2,0.1,0.4,0.2,0.6l0.1,0.2l-0.1-0.2c-0.1-0.1-0.1-0.3-0.2-0.6C24.1,15.1,24,14.8,23.9,14.5L23.9,14.5z M22.9,12.8L22.9,12.8
		C23,13,23,13,23.1,13.1c0,0.1,0.1,0.2,0.1,0.3c0,0.1,0.1,0.3,0.1,0.4s0.1,0.3,0.1,0.4c0,0.1,0.1,0.2,0.1,0.3c0,0.1,0,0.2,0.1,0.2
		l0,0.1l0-0.1c0-0.1-0.1-0.1-0.1-0.2c0-0.1-0.1-0.2-0.1-0.3l-0.1-0.4l-0.1-0.4c0-0.1-0.1-0.2-0.1-0.3C22.9,13.1,22.9,13,22.9,12.8
		L22.9,12.8z M20,30.4L20,30.4c0.1-0.1,0.2-0.2,0.3-0.3c0.1-0.1,0.2-0.1,0.3-0.2s0.3-0.1,0.4-0.2c0.1-0.1,0.3-0.1,0.4-0.1
		s0.3,0,0.4,0c0.1,0,0.2,0,0.3,0l0.1,0l-0.1,0c-0.1,0-0.1,0.1-0.2,0.1c-0.1,0-0.2,0.1-0.3,0.1l0.1,0.9L21.3,30l-0.2,0.1
		c-0.1,0-0.3,0.1-0.4,0.1l0,0l0.4,1.4l-0.6-1.3l0,0c-0.1,0-0.2,0.1-0.3,0.1L20,30.4z M19.1,27.7L19.1,27.7c0.2-0.1,0.3-0.2,0.4-0.2
		c0.1-0.1,0.3-0.1,0.4-0.2s0.3-0.1,0.5-0.1c0.2,0,0.3,0,0.5,0s0.3,0,0.4,0c0.1,0,0.2,0.1,0.3,0.1l0.1,0l-0.1,0c-0.1,0-0.2,0-0.3,0
		c-0.1,0-0.2,0-0.3,0l0,1.2l-0.5-1.1l-0.1,0c-0.1,0-0.2,0-0.2,0l-0.1,0.6l-0.3-0.5c-0.1,0-0.2,0-0.2,0c-0.1,0-0.2,0-0.3,0L19.1,27.7
		z M18.5,24.5l0.1-0.1c0.1,0,0.2-0.1,0.3-0.1s0.3-0.1,0.5-0.1s0.4,0,0.6-0.1c0.2,0,0.4,0,0.6,0s0.4,0.1,0.5,0.1s0.3,0.1,0.3,0.1
		l0.1,0.1h-0.1c-0.1,0-0.2,0-0.4,0c-0.1,0-0.2,0-0.3,0L20.5,26l-0.2-1.6c-0.1,0-0.2,0-0.3,0s-0.2,0-0.3,0l-0.2,0.7l-0.2-0.7
		c-0.1,0-0.2,0-0.3,0c-0.1,0-0.3,0-0.4,0L18.5,24.5z M18.2,21.1l0.1-0.1c0.1,0,0.2-0.1,0.4-0.1c0.2-0.1,0.4-0.1,0.6-0.1
		c0.2,0,0.4,0,0.7-0.1c0.2,0,0.5,0,0.7,0c0.2,0,0.4,0.1,0.6,0.1c0.2,0,0.3,0.1,0.4,0.1l0.1,0.1h-0.2c-0.1,0-0.2,0-0.4,0
		c-0.1,0-0.3,0-0.5,0l-0.2,0.5l-0.2-0.5c-0.1,0-0.2,0-0.3,0c-0.2,0-0.4,0-0.6,0l-0.3,1.4l-0.2-1.4c-0.1,0-0.1,0-0.2,0
		c-0.2,0-0.3,0-0.4,0L18.2,21.1z M18,17.8l0.2-0.1c0.1,0,0.3-0.1,0.4-0.2c0.2-0.1,0.4-0.1,0.6-0.1c0.2,0,0.5-0.1,0.7-0.1
		c0.3,0,0.5,0,0.7,0.1c0.2,0,0.5,0.1,0.6,0.1c0.2,0,0.3,0.1,0.4,0.1l0.2,0.1l-0.2,0c-0.1,0-0.2,0-0.4,0l-0.3,1.4L21,17.7l-0.2,0
		c-0.2,0-0.4,0-0.6,0l-0.3,0.8l-0.1-0.8c-0.1,0-0.3,0-0.4,0c-0.2,0-0.4,0-0.6,0c-0.2,0-0.3,0-0.5,0L18,17.8z M21.9,14.5
		c-0.1,0-0.3,0-0.5,0c-0.1,0-0.2,0-0.4,0l-0.3,1.4l-0.2-1.4c-0.2,0-0.3,0-0.5,0c-0.2,0-0.5,0-0.7,0l-0.3,0.8l-0.2-0.8
		c-0.1,0-0.2,0-0.2,0c-0.2,0-0.3,0-0.5,0l-0.2,0l0.2-0.1c0.1,0,0.3-0.1,0.4-0.2c0.2-0.1,0.4-0.1,0.6-0.1s0.5-0.1,0.7-0.1
		c0.3,0,0.5,0,0.7,0.1c0.2,0,0.5,0.1,0.6,0.1C21.6,14.3,21.8,14.4,21.9,14.5l0.2,0L21.9,14.5z M17.6,11.6l0.2-0.1
		c0.1,0,0.3-0.1,0.6-0.2s0.5-0.1,0.8-0.2s0.6-0.1,0.9-0.1c0.3,0,0.6,0,0.9,0.1c0.3,0,0.6,0.1,0.8,0.1s0.4,0.1,0.6,0.2l0.2,0.1
		l-0.2,0c-0.1,0-0.3,0-0.6,0c-0.1,0-0.3,0-0.4,0l-0.2,0.7L21,11.4c-0.3,0-0.5,0-0.8,0L20,13.1l-0.2-1.7c-0.1,0-0.2,0-0.3,0L19.4,12
		l-0.2-0.5h0c-0.1,0-0.2,0-0.3,0l-0.3,0.8l-0.2-0.8h0c-0.2,0-0.4,0-0.6,0L17.6,11.6z M17.3,8.6l0.2-0.1c0.1,0,0.2-0.1,0.3-0.1
		c0.1,0,0.2-0.1,0.4-0.1C18.4,8.1,18.7,8,19,8c0.7-0.1,1.4-0.1,2.2,0c0.3,0.1,0.6,0.1,0.9,0.2c0.1,0,0.3,0.1,0.4,0.1
		c0.1,0,0.2,0.1,0.3,0.1L23,8.5l-0.2,0c-0.1,0-0.2,0-0.3-0.1l-0.1,0l-0.3,0.8l0-0.8l0,0c-0.2,0-0.3-0.1-0.5-0.1l-0.4,1.6l-0.1-1.7
		c-0.2,0-0.5,0-0.7,0l-0.2,1.5l-0.3-1.5c-0.2,0-0.4,0-0.6,0l-0.2,0.5l-0.2-0.5c-0.2,0-0.5,0.1-0.7,0.1l-0.1,0.8L18,8.4
		c0,0-0.1,0-0.1,0c-0.1,0-0.2,0-0.3,0.1L17.3,8.6z M16.8,9.9L16.8,9.9c-0.1-0.1-0.1-0.2-0.2-0.2c0-0.1-0.1-0.1-0.2-0.2
		c-0.1-0.1-0.1-0.2-0.2-0.3c-0.1-0.1-0.1-0.2-0.2-0.3c-0.1-0.1-0.1-0.2-0.2-0.2c-0.1-0.1-0.1-0.1-0.1-0.2l-0.1-0.1l0.1,0
		c0.1,0,0.1,0.1,0.2,0.1c0.1,0.1,0.2,0.1,0.2,0.2c0.1,0.1,0.2,0.2,0.2,0.3s0.1,0.2,0.2,0.3c0,0.1,0.1,0.2,0.1,0.3
		C16.7,9.6,16.7,9.7,16.8,9.9C16.8,9.8,16.8,9.9,16.8,9.9L16.8,9.9z M16.3,14.1l0-0.1c0-0.1,0.1-0.2,0.1-0.4c0-0.2,0.1-0.3,0.1-0.5
		c0.1-0.2,0.1-0.4,0.1-0.6s0.1-0.4,0.1-0.6c0-0.2,0-0.4,0-0.6c0-0.2,0-0.3,0-0.4c0-0.1,0-0.2,0-0.2l0,0.2c0,0.1,0,0.3,0.1,0.4
		c0,0.2,0,0.4,0,0.6c0,0.2,0,0.4-0.1,0.7c0,0.2-0.1,0.4-0.1,0.6c-0.1,0.2-0.1,0.4-0.2,0.5c-0.1,0.1-0.1,0.2-0.2,0.4L16.3,14.1z"/>
	<path class="st0" d="M24.5,10.3C24.5,10.3,24.5,10.2,24.5,10.3C24.6,10.2,24.6,10.2,24.5,10.3c0.1-0.1,0.1-0.1,0.1-0.1c0,0,0,0,0,0
		l0,0c0,0,0,0,0,0c0,0,0,0,0,0.1c0,0,0,0.1,0,0.1c0,0,0,0.1,0,0.1c0,0,0,0-0.1,0.1c0,0,0,0-0.1,0c0,0,0,0-0.1,0l0,0l0,0
		C24.5,10.4,24.5,10.3,24.5,10.3C24.5,10.3,24.5,10.3,24.5,10.3z"/>
	<path class="st0" d="M15.6,10.4C15.6,10.4,15.5,10.4,15.6,10.4c-0.1,0-0.1-0.1-0.2-0.1s0,0-0.1-0.1c0,0,0,0,0-0.1c0,0,0,0,0-0.1
		c0,0,0,0,0,0l0,0c0,0,0,0,0.1,0c0,0,0,0,0.1,0c0,0,0,0,0.1,0c0,0,0,0,0.1,0.1C15.6,10.3,15.6,10.3,15.6,10.4
		C15.7,10.3,15.7,10.4,15.6,10.4L15.6,10.4L15.6,10.4C15.6,10.4,15.6,10.4,15.6,10.4z"/>
	<path class="st0" d="M24.5,19.6c0.2,0.2,0.3,0.3,0.3,0.3S24.7,19.8,24.5,19.6c-0.3-0.2-0.5-0.4-0.8-0.7c0,0-0.1-0.1-0.1-0.1
		c0.1,0.2,0.2,0.4,0.3,0.6c0.3,0.6,0.8,1.1,1.3,1.5c0.2,0.2,0.5,0.3,0.7,0.5c0.1,0.1,0.2,0.1,0.3,0.2c0.1,0,0.2,0.1,0.2,0.1l0.2,0.1
		l-0.2-0.1c-0.1,0-0.2-0.1-0.3-0.1c-0.1,0-0.2-0.1-0.3-0.1c-0.3-0.1-0.5-0.3-0.8-0.4c-0.6-0.4-1.1-0.9-1.5-1.4
		c-0.1-0.1-0.1-0.2-0.2-0.3c0.5,1.1,1.8,2.9,4.2,2.9c0.6,0,1.2-0.1,1.7-0.3c-0.2,0-0.4,0-0.6,0.1c-0.3,0-0.6,0-0.8-0.1
		c-0.2,0-0.5-0.1-0.7-0.2c-0.2-0.1-0.4-0.1-0.5-0.2l-0.2-0.1l0.2,0c0.1,0,0.3,0,0.5,0.1c0.2,0,0.4,0,0.7,0.1c0.5,0,1.1,0,1.6,0
		c0.2,0,0.5,0,0.7-0.1l0.1,0c0.1,0,0.2-0.1,0.3-0.1c0,0-4.1,0-5.5-3.2c0.1,0.4,0.2,0.6,0.2,0.6c-0.2-0.3-0.3-0.6-0.5-0.9
		c-0.1-0.3-0.2-0.5-0.3-0.8h0c-0.4,0-0.8,0.2-1,0.5c0,0.1,0,0.2,0.1,0.3c0.1,0.3,0.2,0.6,0.4,0.9C24.1,19.1,24.3,19.3,24.5,19.6z
		 M24.6,19c-0.1,0-0.1-0.1-0.1-0.1c-0.1-0.1-0.1-0.1-0.2-0.2c-0.1-0.1-0.1-0.1-0.2-0.2s-0.1-0.2-0.2-0.2c0-0.1-0.1-0.1-0.1-0.2
		c0-0.1,0-0.1-0.1-0.2l0-0.1l0,0.1c0,0,0.1,0.1,0.1,0.1c0,0.1,0.1,0.1,0.2,0.2c0.1,0.1,0.1,0.1,0.2,0.2s0.1,0.2,0.2,0.2
		c0.1,0.1,0.1,0.1,0.1,0.2C24.6,18.9,24.6,19,24.6,19L24.6,19L24.6,19z"/>
	<path class="st0" d="M4,8.4c0,0.1,0,0.3,0,0.4l1-0.6l-1,1.1c0,0,0,0.1,0,0.1l0.6-0.4L4.2,10c0.2,1.1,0.7,2.2,1.2,3.2l0.5-0.4
		l-0.1,0.3c0,0,0.1-0.1,0.1-0.1c0.2-0.2,0.5-0.4,0.8-0.6c-0.2,0.2-0.4,0.5-0.6,0.7c-0.1,0.2-0.3,0.4-0.4,0.7
		c0.9,1.5,2.2,2.9,3.5,3.8l1.3-1.7l-0.9,1.9l0.5-0.5L10,18.1c0.3,0.1,0.6,0.3,0.9,0.4c0.9,0.1,1.7,0.2,2.6,0.1
		c0.2-0.8,0.5-2.4,0.4-3.6c-0.2-1.6-0.6-1.6-0.8-3.1c-0.1,0-0.3,0.1-0.4,0.2c-0.2,0.1-0.3,0.2-0.4,0.3c-0.1,0.1-0.1,0.1-0.2,0.2
		c0-0.1,0.1-0.2,0.1-0.2c0.1-0.2,0.2-0.3,0.3-0.5c0.1-0.1,0.3-0.3,0.5-0.4l0.1,0c0-0.1,0-0.2,0-0.3c0-0.7-0.3-1.3-0.6-1.9
		c-0.1,0-0.1-0.1-0.2-0.1c-0.4-0.2-0.8-0.4-1.3-0.5C9.8,8.3,8.7,8.4,7.7,8.8C7.3,9,6.8,9.3,6.5,9.6C6.2,9.8,5.9,10,5.7,10.3
		c-0.1,0.1-0.1,0.2-0.2,0.2l-0.1,0.1l0.1-0.1c0-0.1,0.1-0.1,0.2-0.2C5.9,10,6.1,9.7,6.4,9.5c0.4-0.3,0.8-0.6,1.2-0.9
		C8.1,8.3,8.7,8.1,9.2,8c0.6-0.1,1.2-0.1,1.8,0c0.2,0,0.3,0.1,0.4,0.1C11.3,8,11.2,8,11.1,7.9c-0.3-0.2-0.7-0.4-1-0.5
		c0,0,0.4,0.1,0.8,0.2c-0.4-0.4-0.9-0.7-1.5-0.9l4.2,1.1l-0.3-0.3l0.6,0.2c0-0.1-0.1-0.1-0.1-0.2c-0.1-0.2-0.2-0.4-0.4-0.6
		c-0.1-0.1-0.1-0.2-0.2-0.2c0.1,0,0.2,0.1,0.3,0.1c0.2,0.1,0.4,0.3,0.6,0.4l0,0c0.1-0.5,0.3-1,0.5-1.5c0.1-0.2,0.1-0.3,0.3-0.5
		C14.3,5,13.7,5,13.1,4.9c-0.6,0-1.3,0-1.9,0.1c-0.3,0-0.5,0.1-0.6,0.1l-0.2,0l0.2-0.1c0.1-0.1,0.4-0.1,0.6-0.2
		c0.4-0.1,0.9-0.2,1.4-0.3c-0.1,0-0.3,0-0.4,0c-0.6,0-1.3,0.1-1.9,0.3C9.6,5,9.3,5.1,9.3,5.1S9.6,5,10.1,4.8
		c0.6-0.2,1.2-0.3,1.8-0.4c-0.6,0-1.3,0.1-1.9,0.2C9.7,4.6,9.3,4.7,9,4.8C8.6,4.9,8.3,5,7.9,5.1C7.3,5.4,6.7,5.7,6.2,6.1
		C5.8,6.3,5.4,6.6,5.1,7C5,7.1,4.9,7.2,4.8,7.3L4.7,7.4l0.1-0.1C4.9,7.2,5,7.1,5.1,6.9c0.3-0.4,0.6-0.7,1-1c0.5-0.4,1.1-0.8,1.7-1.1
		c0.3-0.2,0.7-0.3,1.1-0.4C9.3,4.3,9.6,4.2,10,4.1c1.5-0.3,3.1-0.5,4.4-0.4c0.5,0,1,0.1,1.5,0.2C16,4,16.2,4,16.2,4.1l0.1,0
		c0.1-0.2,0.3-0.3,0.5-0.5C16.3,3.3,15.4,3,13.9,3c-1,0-2.3,0.1-3.8,0.6C6.6,4.5,4,5.7,4,8.4z M9.6,3.8l0.3-0.1
		c0.2,0,0.4-0.1,0.7-0.2s0.6-0.1,1-0.2c0.4-0.1,0.8-0.1,1.2-0.1c0.4,0,0.8,0,1.2,0c0.4,0,0.7,0,1,0.1c0.3,0,0.5,0.1,0.7,0.1l0.3,0
		l-0.3,0c-0.2,0-0.4,0-0.7,0c-0.3,0-0.6,0-1,0s-0.8,0-1.1,0c-0.4,0-0.8,0-1.1,0.1s-0.7,0.1-1,0.1c-0.3,0-0.5,0.1-0.7,0.1L9.6,3.8z
		 M12.8,6.1C12.6,6.1,12.5,6,12.4,6c-0.1,0-0.2-0.1-0.3-0.1s-0.2-0.1-0.2-0.1l-0.1,0h0.1c0.1,0,0.2,0,0.3,0c0.1,0,0.2,0,0.4,0.1
		c0.1,0,0.3,0.1,0.4,0.1C13,6,13.1,6.1,13.2,6.2c0.1,0.1,0.2,0.1,0.3,0.2c0.1,0.1,0.1,0.1,0.2,0.2l0.1,0.1l-0.1,0
		c-0.1,0-0.1-0.1-0.2-0.1c-0.1-0.1-0.2-0.1-0.3-0.2C13,6.3,12.9,6.2,12.8,6.1L12.8,6.1z M8.5,6.2l0.2,0c0.1,0,0.3,0,0.5,0
		c0.2,0,0.4,0.1,0.7,0.1c0.3,0.1,0.5,0.1,0.8,0.2s0.5,0.2,0.8,0.2c0.2,0.1,0.5,0.2,0.6,0.3s0.3,0.2,0.4,0.2c0.1,0.1,0.2,0.1,0.2,0.1
		l-0.2-0.1c-0.1,0-0.3-0.1-0.5-0.2s-0.4-0.1-0.7-0.2c-0.2-0.1-0.5-0.1-0.8-0.2s-0.5-0.1-0.8-0.2C9.6,6.4,9.4,6.3,9.2,6.3
		S8.8,6.2,8.7,6.2L8.5,6.2z M13.3,17.9c0,0,0-0.1,0-0.2c0-0.1,0-0.3,0-0.4s0-0.4,0.1-0.6c0-0.2,0-0.5,0-0.7c0-0.2,0-0.5,0-0.7
		s0-0.4,0-0.6s0-0.3,0-0.4c0-0.1,0-0.2,0-0.2s0,0.1,0,0.2s0.1,0.2,0.1,0.4s0.1,0.4,0.1,0.6c0,0.2,0,0.5,0,0.7c0,0.2,0,0.5-0.1,0.7
		c0,0.2-0.1,0.4-0.1,0.6c0,0.2-0.1,0.3-0.1,0.4C13.3,17.8,13.3,17.9,13.3,17.9z M11.8,9.2c-0.1-0.1-0.1-0.1-0.2-0.2L11.6,9l0.1,0
		C11.8,9.1,11.8,9.1,11.8,9.2c0.2,0,0.3,0.1,0.3,0.2c0.1,0.1,0.2,0.2,0.3,0.3c0.1,0.1,0.1,0.3,0.2,0.4c0,0.1,0.1,0.2,0.1,0.4
		c0,0.1,0,0.2,0,0.3l0,0.1l0-0.1c0-0.1,0-0.2-0.1-0.2c0-0.1-0.1-0.2-0.1-0.3c-0.1-0.1-0.1-0.2-0.2-0.3c-0.1-0.1-0.1-0.2-0.2-0.3
		C12,9.4,11.9,9.3,11.8,9.2L11.8,9.2z M11.5,16.7l0.1-0.1c0-0.1,0.1-0.2,0.2-0.3s0.1-0.3,0.2-0.5c0.1-0.2,0.2-0.4,0.3-0.5
		c0.1-0.2,0.2-0.4,0.3-0.5c0.1-0.2,0.2-0.3,0.3-0.5c0.1-0.1,0.1-0.2,0.2-0.3l0.1-0.1l0,0.1c0,0.1,0,0.2-0.1,0.4
		c0,0.2-0.1,0.3-0.2,0.5c-0.1,0.2-0.2,0.4-0.2,0.6s-0.2,0.4-0.3,0.5s-0.2,0.3-0.3,0.4c-0.1,0.1-0.2,0.2-0.3,0.3L11.5,16.7z
		 M9.8,16.4C9.8,16.4,9.8,16.4,9.8,16.4c0.1-0.2,0.1-0.2,0.1-0.3c0-0.1,0.1-0.2,0.2-0.3l0.2-0.4c0.1-0.1,0.2-0.2,0.2-0.4
		c0.1-0.1,0.2-0.2,0.2-0.3s0.1-0.2,0.2-0.2l0.1-0.1l0,0.1c0,0.1-0.1,0.1-0.1,0.2c0,0.1-0.1,0.2-0.2,0.3l-0.2,0.4l-0.2,0.4
		c-0.1,0.1-0.2,0.2-0.2,0.3C10,16.2,9.9,16.3,9.8,16.4L9.8,16.4z M7.4,14.4l0.1-0.1c0-0.1,0.1-0.2,0.2-0.3s0.2-0.3,0.3-0.4
		c0.1-0.1,0.2-0.3,0.4-0.4c0.1-0.1,0.3-0.3,0.4-0.4c0.1-0.1,0.2-0.2,0.4-0.3c0.1-0.1,0.2-0.1,0.3-0.2l0.1-0.1l-0.1,0.1
		c-0.1,0.1-0.1,0.1-0.2,0.2c-0.1,0.1-0.2,0.2-0.3,0.3c-0.1,0.1-0.3,0.2-0.4,0.4c-0.1,0.1-0.2,0.3-0.4,0.4S7.8,13.9,7.7,14
		c-0.1,0.1-0.2,0.2-0.2,0.3L7.4,14.4z M7.1,14l0.1-0.2c0-0.1,0.1-0.2,0.1-0.3c0.1-0.1,0.1-0.2,0.2-0.3c0.2-0.3,0.4-0.5,0.6-0.8
		c0.3-0.3,0.6-0.5,0.9-0.7c0.3-0.2,0.6-0.4,1-0.6c0.3-0.1,0.6-0.2,0.9-0.3c0.1,0,0.3-0.1,0.4-0.1c0.1,0,0.2,0,0.3,0l0.3,0l-0.2,0.1
		c-0.1,0-0.2,0.1-0.3,0.1c-0.1,0-0.2,0.1-0.4,0.1c-0.3,0.1-0.6,0.3-0.9,0.4c-0.3,0.2-0.6,0.4-0.9,0.6c-0.3,0.2-0.6,0.4-0.8,0.7
		c-0.2,0.2-0.5,0.4-0.7,0.7c-0.1,0.1-0.2,0.2-0.3,0.3s-0.1,0.2-0.2,0.2L7.1,14z M5.5,11.2L5.6,11c0-0.1,0.1-0.1,0.1-0.2
		c0-0.1,0.1-0.2,0.2-0.3C6,10.4,6.2,10.2,6.4,10c0.2-0.2,0.4-0.4,0.7-0.5c0.3-0.2,0.5-0.3,0.8-0.4C8.1,9,8.3,8.9,8.6,8.9
		c0.1,0,0.2,0,0.3,0c0.1,0,0.2,0,0.2,0h0.2l-0.2,0c-0.1,0-0.2,0-0.2,0c-0.1,0-0.2,0-0.3,0.1C8.4,9,8.1,9.1,7.9,9.2
		c-0.5,0.2-1,0.5-1.4,0.9c-0.2,0.2-0.4,0.3-0.5,0.5c-0.1,0.1-0.1,0.2-0.2,0.2c0,0.1-0.1,0.1-0.1,0.2L5.5,11.2z M5.2,7.6L5.2,7.6
		c0.1-0.2,0.1-0.3,0.2-0.3C5.5,7.2,5.6,7.1,5.6,7C5.7,6.9,5.9,6.8,6,6.7c0.1-0.1,0.2-0.2,0.4-0.3c0.1-0.1,0.2-0.1,0.3-0.2
		c0.1,0,0.2-0.1,0.3-0.1l0.1,0L6.9,6.2c-0.1,0-0.1,0.1-0.2,0.2C6.6,6.4,6.5,6.5,6.4,6.6C6.3,6.6,6.2,6.7,6.1,6.8
		C6,6.9,5.9,7,5.8,7.1S5.6,7.3,5.5,7.4C5.4,7.5,5.3,7.5,5.2,7.6L5.2,7.6z"/>
	<path class="st0" d="M26.5,18.6c0.9,0,1.8,0,2.7-0.1c0.4-0.1,0.7-0.3,1.1-0.5l-1-2.1l1.4,1.8c1.2-0.9,2.3-2.5,3.2-4.3
		c-0.1-0.2-0.3-0.5-0.4-0.7c-0.2-0.3-0.4-0.5-0.6-0.7c0.3,0.2,0.5,0.4,0.8,0.6c0.2,0.1,0.3,0.3,0.4,0.4c0.5-1.1,1-2.2,1.4-3.3
		l-0.9-1l1,0.6c1-2.8-0.6-4.3-5.4-5.7c-1.6-0.5-2.9-0.6-3.9-0.6c-1.6,0-2.6,0.4-3.1,0.7c0.2,0.2,0.3,0.3,0.4,0.5
		C23.8,4,23.9,4,24.1,4c0.5-0.1,1-0.2,1.5-0.2c1.2-0.1,2.8,0,4.4,0.4c0.4,0.1,0.8,0.2,1.1,0.3c0.4,0.1,0.7,0.3,1.1,0.4
		c0.6,0.3,1.2,0.6,1.7,1.1c0.4,0.3,0.7,0.6,1,1c0.1,0.1,0.2,0.2,0.2,0.3l0.1,0.1l-0.1-0.1C35.1,7.2,35,7.1,34.9,7
		c-0.3-0.3-0.7-0.6-1.1-0.9c-0.5-0.4-1.1-0.7-1.8-0.9C31.7,5,31.3,4.9,31,4.8c-0.4-0.1-0.7-0.2-1.1-0.2c-0.5-0.1-1.1-0.1-1.6-0.2
		c0.4,0.1,0.7,0.1,1,0.2c0.4,0.1,0.7,0.2,0.7,0.2s-0.3,0-0.7-0.1c-0.5-0.1-1-0.1-1.5-0.1c-0.1,0-0.3,0-0.4,0c0.5,0.1,1,0.2,1.5,0.3
		C29,5,29.2,5,29.4,5.1l0.2,0.1l-0.2,0c-0.2,0-0.4-0.1-0.6-0.1c-1.3-0.2-2.5-0.1-3.8,0.1c-0.2,0-0.3,0.1-0.4,0.1
		c0.3,0.5,0.5,1.1,0.6,1.6c0.1,0.2,0.1,0.3,0.2,0.4c0-0.1,0.1-0.1,0.1-0.2c0.1-0.1,0.2-0.3,0.3-0.4c0.1,0,0.1-0.1,0.2-0.1
		c0,0.1-0.1,0.1-0.1,0.2c-0.1,0.1-0.1,0.3-0.2,0.4l0,0c0,0,0.1-0.1,0.1-0.1C26,7,26.2,6.9,26.4,6.7c0.1-0.1,0.2-0.1,0.3-0.1
		c-0.1,0.1-0.2,0.2-0.2,0.2c-0.1,0.2-0.3,0.4-0.4,0.6c0,0.1-0.1,0.2-0.1,0.3l0.5-0.3l-0.3,0.5l4.3-1.2c-0.6,0.3-1.3,0.7-1.8,1.1
		l1.1-0.3l-1,0.6c0.6-0.1,1.2-0.1,1.7,0c0.6,0.1,1.1,0.3,1.6,0.6c0.4,0.2,0.9,0.5,1.2,0.9c0.3,0.2,0.5,0.5,0.7,0.8
		c0.1,0.1,0.1,0.2,0.2,0.2c0,0.1,0.1,0.1,0.1,0.1l-0.1-0.1c0-0.1-0.1-0.1-0.2-0.2C34,10,33.7,9.8,33.4,9.6C33,9.3,32.6,9,32.2,8.8
		c-1-0.4-2.1-0.5-3.2-0.3c-0.5,0.1-0.9,0.3-1.3,0.5c-0.1,0.1-0.2,0.1-0.3,0.2c-0.4,0.5-0.6,1.2-0.6,1.8c0,0.3,0,0.5-0.1,0.7
		c0.1,0.2,0.3,0.3,0.4,0.4c0.2,0.2,0.4,0.3,0.7,0.4c-0.3,0-0.5-0.1-0.8-0.2c-0.1-0.1-0.3-0.1-0.4-0.2c-0.2,0.9-0.6,0.9-0.8,2.3
		C25.7,15.8,26.2,17.6,26.5,18.6z M30.3,3.9l-0.3-0.1c-0.1,0-0.2,0-0.3-0.1s-0.2-0.1-0.4-0.1c-0.3-0.1-0.6-0.1-1-0.2
		c-0.4-0.1-0.7-0.1-1.1-0.1s-0.8,0-1.1,0c-0.4,0-0.7,0-1,0.1c-0.1,0-0.3,0-0.4,0c-0.1,0-0.2,0-0.3,0l-0.3,0l0.3-0.1
		c0.1,0,0.2,0,0.3-0.1c0.1,0,0.2-0.1,0.4-0.1c0.3,0,0.6-0.1,1-0.1c0.4,0,0.8,0,1.1,0c0.4,0,0.8,0.1,1.1,0.1c0.4,0.1,0.7,0.1,1,0.2
		c0.1,0,0.3,0.1,0.4,0.1s0.2,0.1,0.3,0.1L30.3,3.9z M27.1,5.5L27.1,5.5l-0.3,0c-0.1,0-0.2,0-0.4,0c-0.1,0-0.3,0-0.4,0
		c-0.1,0-0.3,0-0.4,0c-0.1,0-0.2,0-0.3,0l-0.3,0l-0.1,0l0.1,0c0.1,0,0.2-0.1,0.2-0.1c0.1,0,0.2-0.1,0.3-0.1c0.1,0,0.3,0,0.4-0.1
		c0.1,0,0.3,0,0.4,0c0.1,0,0.2,0,0.4,0C26.9,5.5,27,5.5,27.1,5.5L27.1,5.5z M31.4,6.4h-0.1c-0.1,0-0.2,0-0.4,0c-0.2,0-0.3,0-0.5,0
		c-0.4,0-0.8,0.1-1.2,0.2c-0.2,0.1-0.4,0.1-0.5,0.2C28.5,6.9,28.4,7,28.3,7l-0.1,0.1L28.3,7c0.1-0.1,0.2-0.1,0.3-0.2
		c0.2-0.1,0.3-0.2,0.5-0.2c0.2-0.1,0.4-0.1,0.6-0.2c0.2,0,0.4-0.1,0.6-0.1c0.2,0,0.4,0,0.6,0c0.1,0,0.3,0,0.4,0.1L31.4,6.4z M31.9,8
		c0.2,0,0.3,0.1,0.4,0.2c0.2,0.1,0.3,0.2,0.5,0.2c0.2,0.1,0.3,0.2,0.4,0.3c0.1,0.1,0.2,0.2,0.3,0.3c0.1,0.1,0.1,0.2,0.2,0.3l0.1,0.1
		l-0.1-0.1c-0.1-0.1-0.1-0.1-0.3-0.2c-0.1-0.1-0.2-0.2-0.4-0.3c-0.1-0.1-0.3-0.2-0.4-0.3c-0.2-0.1-0.3-0.2-0.5-0.3
		C32.1,8.2,32,8.2,31.9,8c-0.2,0-0.3,0-0.3,0l-0.1,0l0.1,0C31.7,8,31.8,8,31.9,8z M34.4,7.3c-0.1-0.1-0.3-0.2-0.4-0.4
		s-0.3-0.3-0.5-0.4c-0.2-0.1-0.4-0.3-0.5-0.4S32.5,6,32.4,5.9S32.1,5.8,32,5.7l-0.1-0.1l0.1,0c0.1,0,0.2,0.1,0.4,0.1
		C32.6,5.9,32.8,6,33,6.1c0.2,0.1,0.4,0.2,0.6,0.3c0.2,0.1,0.4,0.3,0.5,0.4C34.2,6.9,34.3,7.1,34.4,7.3c0.2,0.1,0.3,0.2,0.3,0.2
		l0.1,0.1l-0.1-0.1C34.6,7.5,34.5,7.4,34.4,7.3L34.4,7.3z M31.2,9L31,9c-0.1,0-0.2,0-0.4,0c-0.2,0-0.4,0-0.6,0c-0.2,0-0.4,0-0.7,0
		c-0.2,0-0.4,0.1-0.7,0.1c-0.2,0.1-0.4,0.1-0.6,0.1c-0.2,0.1-0.3,0.1-0.4,0.1l-0.1,0.1l0.1-0.1c0.1-0.1,0.2-0.1,0.4-0.2
		C28.3,9.1,28.5,9,28.7,9c0.4-0.1,0.9-0.2,1.4-0.2c0.2,0,0.4,0,0.6,0.1c0.1,0,0.3,0.1,0.4,0.1L31.2,9z M30.6,12.6l0.1,0.1
		c0.1,0,0.2,0.1,0.3,0.2c0.1,0.1,0.2,0.2,0.4,0.3c0.1,0.1,0.3,0.2,0.4,0.4c0.1,0.1,0.2,0.3,0.3,0.4s0.2,0.3,0.3,0.4
		c0.1,0.1,0.1,0.2,0.2,0.3l0.1,0.1l-0.1-0.1c0-0.1-0.1-0.1-0.2-0.2c-0.1-0.1-0.2-0.2-0.3-0.3s-0.2-0.3-0.4-0.4s-0.2-0.3-0.4-0.4
		S31,13,30.9,12.9C30.8,12.8,30.7,12.7,30.6,12.6L30.6,12.6z M28.9,11c-0.1-0.1-0.2-0.1-0.4-0.1c-0.1,0-0.2-0.1-0.3-0.1l-0.2-0.1
		l0.3,0c0.1,0,0.2,0,0.3,0c0.1,0,0.2,0,0.4,0.1c0.3,0.1,0.6,0.2,0.9,0.3c0.3,0.2,0.7,0.4,1,0.6c0.3,0.2,0.6,0.5,0.9,0.7
		c0.2,0.2,0.4,0.5,0.6,0.8c0.1,0.1,0.1,0.2,0.2,0.3s0.1,0.2,0.1,0.3l0.1,0.2l-0.2-0.2c0-0.1-0.1-0.1-0.2-0.2
		c-0.1-0.1-0.2-0.2-0.3-0.3c-0.2-0.2-0.4-0.5-0.7-0.7c-0.3-0.2-0.5-0.5-0.8-0.7c-0.3-0.2-0.6-0.4-0.9-0.6
		C29.5,11.2,29.2,11.1,28.9,11L28.9,11z M28.5,15l0.1,0.1l0.1,0.3c0,0.1,0.1,0.2,0.2,0.4c0.1,0.1,0.1,0.3,0.2,0.4
		c0.1,0.1,0.1,0.3,0.2,0.4c0.1,0.1,0.1,0.3,0.2,0.4l0.1,0.3l0,0.1l-0.1-0.1c0-0.1-0.1-0.1-0.2-0.2c-0.1-0.1-0.2-0.2-0.2-0.4
		s-0.2-0.3-0.2-0.4s-0.1-0.3-0.2-0.4s-0.1-0.3-0.1-0.4c0-0.1-0.1-0.2-0.1-0.3L28.5,15z M26.9,13.8l0.1,0.1c0,0.1,0.1,0.2,0.2,0.3
		s0.2,0.3,0.3,0.5c0.1,0.2,0.2,0.4,0.3,0.5c0.1,0.2,0.2,0.4,0.3,0.5c0.1,0.2,0.2,0.3,0.2,0.5c0.1,0.1,0.1,0.3,0.2,0.3l0.1,0.1
		l-0.1-0.1c-0.1-0.1-0.2-0.2-0.3-0.3c-0.1-0.1-0.2-0.3-0.3-0.4s-0.2-0.3-0.3-0.5c-0.1-0.2-0.2-0.4-0.2-0.6S27,14.5,27,14.3
		s-0.1-0.3-0.1-0.4C26.9,13.8,26.9,13.8,26.9,13.8L26.9,13.8z M26.6,17.7c-0.1-0.1-0.1-0.3-0.2-0.4c-0.1-0.2-0.2-0.4-0.2-0.6
		c-0.1-0.5-0.2-1-0.1-1.4c0-0.2,0-0.4,0.1-0.6c0-0.1,0.1-0.3,0.1-0.4l0.1-0.2l0,0.2c0,0.1,0,0.3-0.1,0.4c0,0.2,0,0.4,0,0.6
		c0,0.2,0,0.5,0,0.7c0,0.2,0.1,0.5,0.1,0.7c0.1,0.2,0.1,0.4,0.2,0.6C26.6,17.4,26.6,17.5,26.6,17.7l0.1,0.1L26.6,17.7z"/>
	<g>
		<path class="st1" d="M3.5,8.4c0,1.9,0.8,4.3,2.2,6.3c1.4,2,3.1,3.5,4.8,4.1c0,0,1.1,0.5,1.5,0.7c0.3,0.1,0.6,0.1,0.9,0.2
			c-0.3,0.2-0.5,0.3-0.8,0.5c0,0-0.9,0.4-1.4,0.5c-0.4,0.1-0.9,0.2-1.4,0.2c-0.3,0-0.5,0.2-0.5,0.5c0,0.2,0.1,0.4,0.3,0.4
			c0.6,0.3,1.2,0.6,1.9,0.7c0.5,0.1,1,0.1,1.5,0.2c1,0,2-0.4,2.8-1c0.8-0.6,1.7-1.7,1.7-1.7c0.1,4.9,1.3,9,1.6,10.1
			c0.3,0.7,0.6,1.5,1,2.2c0,0,0.5,0.9,1.1,1.6c0.7,1,1.7,2.2,2.9,3l0.5,0.3c0.1,0,0.2,0.1,0.3,0.1l0.1,0.1c0.5,0.2,0.9,0.3,1.4,0.3
			c1,0,2-0.5,2.6-1.3c0.4-0.5,0.5-1,0.4-1.4c-0.2-0.7-0.8-1.5-1.6-1.5c-0.4,0-0.7,0.2-0.9,0.5c-0.2,0.2-0.3,0.5-0.4,0.8
			c0,0.1-0.1,0.2-0.1,0.2c0,0-0.1,0-0.3,0c-0.3,0-0.7-0.4-1.2-1.1l-0.4-0.5c-0.6-0.9-1-2.1-1.3-3.4l-0.1-0.5c-0.2-1-0.3-2-0.3-3
			c0-0.1,0-0.2,0-0.3c0,0-0.1-4.2,0.4-7c0.2,0.5,0.4,0.9,0.7,1.3c0.1,0.1,0.1,0.1,0.1,0.2c1,1.2,2.2,1.9,3.7,2l0.5,0
			c0.9-0.1,1.9-0.3,2.9-0.9c0.2-0.1,0.3-0.4,0.2-0.7c-0.1-0.2-0.3-0.3-0.4-0.3c-0.7,0-1.4-0.2-2-0.4l-0.5-0.2
			c-0.4-0.2-0.7-0.3-1.1-0.6c-0.2-0.1-0.4-0.3-0.5-0.5c0.8,0,1.6-0.1,2.5-0.2c2.6-0.4,5-3.6,7.1-9.6c0.4-1.2,0.4-2.2,0-3.1
			C35.5,5,33.8,4,30.5,3.1c-1.5-0.4-2.8-0.6-4.1-0.6c-1.9,0-3.1,0.5-3.6,0.8c-1.8-0.7-3.8-0.7-5.6,0c-0.5-0.3-1.5-0.8-3.4-0.8
			c-1.2,0-2.5,0.2-4,0.6C7.8,3.6,6.4,4.2,5.4,4.9C4.1,5.8,3.5,7,3.5,8.4z M26.5,18.6c-0.3-0.9-0.8-2.7-0.7-4
			c0.2-1.4,0.5-1.3,0.8-2.3c0.1,0.1,0.3,0.1,0.4,0.2c0.3,0.1,0.5,0.2,0.8,0.2c-0.2-0.1-0.5-0.3-0.7-0.4c-0.2-0.1-0.3-0.3-0.4-0.4
			c0-0.2,0-0.4,0.1-0.7c0-0.7,0.3-1.3,0.6-1.8c0.1-0.1,0.2-0.1,0.3-0.2c0.4-0.2,0.8-0.4,1.3-0.5c1.1-0.3,2.2-0.2,3.2,0.3
			C32.6,9,33,9.3,33.4,9.6c0.3,0.2,0.5,0.4,0.8,0.7c0.1,0.1,0.1,0.2,0.2,0.2l0.1,0.1c0,0,0,0-0.1-0.1c0-0.1-0.1-0.1-0.2-0.2
			C34,10,33.8,9.7,33.5,9.5c-0.4-0.3-0.8-0.6-1.2-0.9c-0.5-0.3-1.1-0.5-1.6-0.6c-0.6-0.1-1.2-0.1-1.7,0l1-0.6l-1.1,0.3
			C29.4,7.3,30,7,30.6,6.7l-4.3,1.2l0.3-0.5L26,7.7c0-0.1,0.1-0.2,0.1-0.3c0.1-0.2,0.2-0.4,0.4-0.6c0.1-0.1,0.1-0.2,0.2-0.2
			c-0.1,0-0.2,0.1-0.3,0.1C26.2,6.9,26,7,25.8,7.2c0,0-0.1,0.1-0.1,0.1l0,0c0-0.1,0.1-0.3,0.2-0.4c0-0.1,0.1-0.1,0.1-0.2
			c-0.1,0-0.1,0.1-0.2,0.1c-0.1,0.1-0.2,0.2-0.3,0.4c0,0.1-0.1,0.1-0.1,0.2c-0.1-0.1-0.1-0.3-0.2-0.4c-0.2-0.6-0.4-1.1-0.6-1.6
			c0.1,0,0.3-0.1,0.4-0.1c1.2-0.3,2.5-0.3,3.8-0.1c0.3,0,0.5,0.1,0.6,0.1l0.2,0l-0.2-0.1C29.2,5.1,29,5,28.8,4.9
			c-0.5-0.1-1-0.2-1.5-0.3c0.1,0,0.3,0,0.4,0c0.5,0,1,0,1.5,0.1c0.4,0,0.7,0.1,0.7,0.1s-0.3-0.1-0.7-0.2c-0.3-0.1-0.6-0.1-1-0.2
			c0.5,0,1.1,0.1,1.6,0.2c0.4,0.1,0.8,0.1,1.1,0.2C31.3,4.9,31.7,5,32,5.1c0.6,0.2,1.2,0.5,1.8,0.9c0.4,0.3,0.7,0.6,1.1,0.9
			c0.1,0.1,0.2,0.2,0.3,0.3l0.1,0.1l-0.1-0.1C35.1,7.2,35,7.1,34.9,7c-0.3-0.4-0.6-0.7-1-1c-0.5-0.4-1.1-0.8-1.7-1.1
			c-0.3-0.2-0.7-0.3-1.1-0.4c-0.4-0.1-0.8-0.2-1.1-0.3c-1.5-0.3-3.1-0.5-4.4-0.4c-0.5,0-1,0.1-1.5,0.2c-0.2,0-0.3,0.1-0.4,0.1
			c-0.1-0.2-0.3-0.3-0.4-0.5c0.5-0.3,1.5-0.7,3.1-0.7c1,0,2.4,0.2,3.9,0.6c4.7,1.4,6.4,2.9,5.4,5.7l-1-0.6l0.9,1
			c-0.4,1.1-0.9,2.2-1.4,3.3c-0.1-0.1-0.3-0.3-0.4-0.4c-0.2-0.2-0.5-0.4-0.8-0.6c0.2,0.2,0.4,0.5,0.6,0.7c0.2,0.2,0.3,0.5,0.4,0.7
			c-0.9,1.8-2,3.4-3.2,4.3l-1.4-1.8l1,2.1c-0.3,0.2-0.7,0.4-1.1,0.5C28.4,18.6,27.5,18.6,26.5,18.6L26.5,18.6z M24.8,19.9
			c0,0-0.1-0.1-0.3-0.3c-0.2-0.3-0.4-0.5-0.6-0.8c-0.2-0.3-0.3-0.6-0.4-0.9c0-0.1-0.1-0.2-0.1-0.3c0.2-0.3,0.6-0.5,1-0.5h0
			c0.1,0.3,0.2,0.6,0.3,0.8c0.1,0.3,0.3,0.6,0.5,0.9c0,0-0.1-0.3-0.2-0.6c1.4,3.1,5.5,3.2,5.5,3.2c-0.1,0-0.2,0.1-0.3,0.1l-0.1,0
			c-0.2,0-0.5,0.1-0.7,0.1c-0.5,0-1.1,0-1.6,0c-0.3,0-0.5,0-0.7-0.1c-0.2,0-0.4,0-0.5-0.1l-0.2,0l0.2,0.1c0.1,0,0.3,0.1,0.5,0.2
			c0.2,0.1,0.5,0.1,0.7,0.2c0.3,0,0.5,0.1,0.8,0.1c0.2,0,0.4,0,0.6-0.1c-0.6,0.2-1.2,0.3-1.7,0.3c-2.4,0-3.6-1.8-4.2-2.9
			c0.1,0.1,0.1,0.2,0.2,0.3c0.4,0.6,0.9,1,1.5,1.4c0.2,0.2,0.5,0.3,0.8,0.4c0.1,0.1,0.2,0.1,0.3,0.1c0.1,0,0.2,0.1,0.3,0.1l0.2,0.1
			l-0.2-0.1c-0.1,0-0.2-0.1-0.2-0.1c-0.1,0-0.2-0.1-0.3-0.2c-0.3-0.1-0.5-0.3-0.7-0.5c-0.5-0.4-1-0.9-1.3-1.5
			c-0.1-0.2-0.2-0.4-0.3-0.6c0,0,0.1,0.1,0.1,0.1c0.2,0.3,0.4,0.5,0.7,0.7C24.7,19.8,24.8,19.9,24.8,19.9L24.8,19.9z M15.5,16.6
			c0-0.2,0.1-0.5,0.2-0.9c0.1-0.3,0.2-0.7,0.3-1c-0.2,0.3-0.4,0.6-0.6,0.9c0,0.1-0.1,0.1-0.1,0.2c0-0.1,0-0.1,0-0.2
			c0.1-0.2,0.1-0.4,0.2-0.6c0.1-0.2,0.1-0.4,0.2-0.6c0.1-0.2,0.1-0.4,0.2-0.6c0.1-0.2,0.1-0.4,0.2-0.7c0.1-0.2,0.1-0.5,0.2-0.7
			c0.1-0.2,0.1-0.5,0.1-0.7c0-0.2,0-0.5,0-0.7c0-0.4-0.1-0.9-0.3-1.3c-0.1-0.3-0.3-0.5-0.6-0.7c-0.1-0.1-0.1-0.1-0.2-0.2l-0.1-0.1
			l0.1,0.1c0,0,0.1,0.1,0.1,0.2c0.2,0.2,0.3,0.5,0.4,0.8c0,0.1,0,0.1,0.1,0.2c0,0,0-0.1-0.1-0.1c-0.1-0.1-0.2-0.2-0.3-0.3l-0.3-0.2
			c-0.1,0-0.2-0.1-0.2-0.1l-0.1,0l0,0.1c0,0.1,0.1,0.1,0.1,0.2l0.1,0.1c-0.1,0-0.2,0.1-0.2,0.1c0,0,0,0.1-0.1,0.1
			c0-0.1-0.1-0.1-0.1-0.2c0,0,0-0.1,0-0.1c0,0,0,0.1,0,0.1c0,0.1,0,0.2,0,0.3c0,0.1,0.1,0.3,0.1,0.4c0.1,0.1,0.2,0.3,0.3,0.4
			c0.1,0.1,0.2,0.2,0.3,0.3c0.1,0.1,0.1,0.2,0.2,0.3c0,0.1,0.1,0.2,0.1,0.3c0,0,0,0.1,0,0.1c0,0,0-0.1,0.1-0.1
			c0-0.1,0.1-0.2,0.1-0.3c0-0.1-0.1-0.3-0.1-0.4c-0.1-0.1-0.2-0.3-0.3-0.4l-0.1,0c0.1,0,0.3,0,0.4-0.1c0,0,0,0,0,0
			c0,0.1,0.1,0.2,0.1,0.2c0,0.1,0.1,0.1,0.1,0.2c0,0,0,0,0,0c0,0,0,0,0,0c0,0.2,0,0.5-0.1,0.7c0,0.1,0,0.1,0,0.2
			c-0.2,0.4-0.4,0.8-0.6,1.1l-0.1-0.7l-0.1,0.8l0,0c-0.1-0.2-0.1-0.4-0.1-0.6s-0.1-0.4-0.1-0.6s-0.1-0.3-0.1-0.5s-0.1-0.3-0.1-0.4
			c0-0.1,0-0.1,0-0.1s0,0.1,0,0.1c0,0.1,0,0.2,0,0.4s0,0.3,0,0.5c0,0.1,0,0.2,0.1,0.4c-0.1-0.4-0.2-0.8-0.2-1.1
			c-0.1-0.5-0.1-0.9,0-1.4c0-0.1,0-0.2,0.1-0.2c0.1-0.2,0.1-0.4,0.2-0.5c0.1-0.2,0.2-0.4,0.3-0.5c0.1-0.2,0.3-0.3,0.4-0.5l0.4-0.4
			c0.3-0.3,0.5-0.6,0.7-0.9C16.8,6.5,17,6.2,17,5.9c0-0.1,0-0.2,0-0.2l0-0.1c0,0.1-0.1,0.2-0.1,0.3c-0.1,0.2-0.3,0.4-0.5,0.6
			c-0.1,0.1-0.2,0.2-0.3,0.3c0-0.1,0.1-0.1,0.1-0.1c0.1-0.1,0.1-0.3,0.1-0.4s0-0.2,0.1-0.3c0-0.1,0-0.1,0-0.1L16.3,6
			c0,0.1-0.1,0.1-0.2,0.2c-0.1,0.1-0.1,0.2-0.2,0.3c0,0.1-0.1,0.1-0.1,0.2c0.1-0.2,0.2-0.4,0.2-0.7c0.1-0.2,0.2-0.3,0.3-0.5
			c0.1-0.2,0.2-0.4,0.3-0.5s0.2-0.3,0.2-0.4L17,4.6l-0.1,0.1c-0.1,0.1-0.2,0.1-0.3,0.2c0.3-0.6,0.7-1,1.1-1.3
			c0.7-0.3,1.5-0.4,2.3-0.4c1.6,0,2.6,0.5,2.8,0.6c0.6,0.5,1.1,1.2,1.4,1.9l0,0c-0.2-0.2-0.3-0.4-0.5-0.6c-0.2-0.2-0.3-0.3-0.5-0.5
			c-0.1-0.1-0.3-0.2-0.4-0.3l-0.2-0.1l0.1,0.1c0.1,0.1,0.2,0.2,0.3,0.4c0.1,0.2,0.3,0.3,0.4,0.5c0.1,0.2,0.3,0.4,0.4,0.6
			c0.1,0.2,0.3,0.4,0.4,0.6c0,0,0.1,0.1,0.1,0.1c-0.1-0.1-0.1-0.1-0.2-0.2c-0.1-0.1-0.2-0.2-0.3-0.3l-0.3-0.2L23.5,6l0.1,0.1
			l0.2,0.3c0.1,0.1,0.2,0.2,0.2,0.3c0.1,0.1,0.2,0.2,0.3,0.4c-0.2-0.2-0.4-0.4-0.6-0.6c-0.2-0.2-0.3-0.4-0.5-0.6
			c-0.1-0.1-0.1-0.2-0.1-0.3c0,0,0,0,0,0.1c0,0.1,0,0.2,0,0.2c0.1,0.3,0.2,0.5,0.3,0.8c0.2,0.3,0.5,0.6,0.7,0.9L24.6,8
			c0.1,0.1,0.3,0.3,0.4,0.5c0.1,0.2,0.2,0.3,0.3,0.5c0.1,0.1,0.1,0.3,0.2,0.4c0.1,0.4,0.1,1,0,1.8c0,0.4-0.1,0.8-0.2,1.1
			c0-0.1,0-0.2,0-0.3c0-0.2,0-0.4,0-0.6c0-0.2,0-0.3,0-0.4l0-0.2l0,0.1c0,0.1,0,0.2-0.1,0.4s-0.1,0.3-0.1,0.5c0,0.2-0.1,0.4-0.2,0.6
			c-0.1,0.2-0.1,0.4-0.2,0.6c0,0.1-0.1,0.2-0.1,0.3l-0.1-0.8l-0.3,1c-0.1-0.2-0.1-0.4-0.2-0.7c-0.1-0.2-0.1-0.5-0.2-0.7
			c-0.1-0.2-0.1-0.5-0.2-0.7c0-0.2-0.1-0.4-0.1-0.7c0,0,0,0,0-0.1v0c0-0.1,0-0.2,0.1-0.2c0-0.1,0.1-0.2,0.1-0.2c0,0,0,0,0,0
			c0.1,0.1,0.3,0.2,0.4,0.1l-0.1,0c-0.1,0.1-0.2,0.2-0.3,0.4c-0.1,0.1-0.1,0.3-0.1,0.4c0,0.1,0,0.2,0.1,0.3c0,0,0,0.1,0.1,0.1
			c0,0,0-0.1,0-0.1c0-0.1,0-0.2,0.1-0.3c0-0.1,0.1-0.2,0.2-0.3c0.1-0.1,0.2-0.2,0.3-0.3c0.1-0.1,0.2-0.3,0.3-0.4
			c0.1-0.1,0.1-0.3,0.1-0.4c0-0.1,0-0.2,0-0.3c0,0,0-0.1,0-0.1c0,0,0,0.1,0,0.1c0,0.1,0,0.1-0.1,0.2c0,0,0-0.1-0.1-0.1
			c-0.1-0.1-0.1-0.1-0.2-0.1l0.1-0.1c0.1-0.1,0.1-0.2,0.1-0.2s0-0.1,0-0.1l-0.1,0c-0.1,0-0.1,0.1-0.2,0.1l-0.3,0.2
			c-0.1,0.1-0.2,0.2-0.3,0.3c0,0,0,0-0.1,0.1c0-0.1,0-0.1,0-0.2c0.1-0.3,0.2-0.5,0.4-0.8c0.1-0.1,0.1-0.2,0.1-0.2
			c0,0,0.1-0.1,0.1-0.1l-0.1,0.1c-0.1,0-0.1,0.1-0.2,0.2c-0.2,0.2-0.4,0.5-0.6,0.7c-0.2,0.4-0.3,0.8-0.3,1.3c0,0.2,0,0.5,0,0.7
			c0,0.3,0.1,0.5,0.1,0.7s0.1,0.5,0.2,0.7c0.1,0.2,0.1,0.5,0.2,0.7c0.1,0.2,0.1,0.4,0.2,0.6c0.1,0.2,0.1,0.4,0.2,0.6
			c0.1,0.3,0.2,0.5,0.3,0.6c0,0.3,0.1,0.6,0.1,0.9c-0.1,0-0.2,0-0.3,0l0,0c-0.4,0-0.7,0.1-1,0.3l-0.2-0.6l-0.1,0.6L23,15.5l-0.1,0.9
			c0-0.2,0-0.5-0.1-0.7c-0.1-0.9-0.2-1.5-0.2-1.5s0,0.6-0.1,1.5c0,0.2,0,0.5,0,0.7s0,0.5,0,0.8c0,0.3,0,0.6,0,0.8c0,0.3,0,0.6,0,0.9
			c0,0.3,0,0.6,0,0.9c-0.4,2.3-0.8,6.5-0.1,10l0,0l0,0c0.1,0.7,0.3,1.3,0.5,2c-0.1,0-0.1,0-0.2,0c-0.1,0-0.2,0-0.3,0.1
			c-0.1,0-0.2,0.1-0.3,0.1c-0.1,0.1-0.2,0.1-0.3,0.2c-0.1,0.1-0.1,0.2-0.2,0.2c-0.1,0.1-0.1,0.1-0.1,0.2s0,0.1,0,0.1l0.1,0
			c0,0,0.1-0.1,0.2-0.1c0,0,0.1,0,0.1-0.1l0.9,0.9L22,32.4c0.1,0,0.1-0.1,0.2-0.1c0,0,0.1-0.1,0.1-0.1l0.2,0.1l0-0.2
			c0.1-0.1,0.2-0.1,0.2-0.1s0.1-0.1,0.2-0.1c0.2,0.7,0.6,1.4,1,2c-0.1,0-0.1,0-0.2,0c-0.1,0-0.2,0.1-0.3,0.2
			c-0.1,0.1-0.1,0.2-0.2,0.2c0,0.1-0.1,0.2-0.1,0.3c0,0.1,0,0.1,0,0.2c0,0,0,0.1,0,0.1l0-0.1c0,0,0.1-0.1,0.1-0.1c0,0,0-0.1,0.1-0.1
			l0.7,0.6l-0.5-0.9l0,0l0.5,0.3l-0.2-0.4c0,0,0.1-0.1,0.1-0.1c0.5,0.7,0.8,1.1,1.2,1.3c0,0-0.1,0-0.1,0c-0.1,0.1-0.2,0.2-0.2,0.3
			c0,0.1-0.1,0.2-0.1,0.3c0,0.1,0,0.2,0,0.3c0,0.1,0,0.1,0.1,0.2l0,0.1l0-0.1c0,0,0-0.1,0.1-0.2c0,0,0-0.1,0-0.1l0.3,0l-0.2-0.3
			c0,0,0,0,0-0.1l0.4,0l-0.2-0.3l0,0c0-0.1,0.1-0.1,0.1-0.1c0.1,0,0.2,0.1,0.3,0.1c0.5,0,0.6-0.1,0.7-0.3c0,0.1,0,0.2,0,0.3
			c0,0.1,0.1,0.3,0.1,0.4c0,0.1,0.1,0.2,0.1,0.3l0.1,0.1c0,0,0,0,0-0.1c0-0.1,0-0.2,0-0.3c0,0,0,0,0,0l0,0c0.1,0,0.2-0.1,0.2-0.1
			c0.1,0,0.1-0.1,0.2-0.2c0,0,0-0.1,0-0.1c0,0-0.1,0-0.1,0c-0.1,0-0.1,0-0.2,0c-0.1,0-0.1,0-0.2,0l0,0c0,0,0,0,0,0
			c0-0.1,0-0.3,0-0.4c0,0,0,0,0,0l0.1,0.2l0-0.2c0.1,0.1,0.1,0.2,0.2,0.2c0.1,0.1,0.3,0.2,0.5,0.2c0.1,0,0.2,0,0.4,0
			c0,0,0.1,0,0.1,0l0,0l0,0c0,0-0.1,0-0.1,0c-0.1,0-0.2-0.1-0.3-0.1c-0.1-0.1-0.2-0.2-0.3-0.3c-0.1-0.1-0.2-0.2-0.2-0.4
			c-0.1-0.1-0.1-0.3,0-0.4c0-0.1,0-0.1,0.1-0.2c0.1,0,0.1,0,0.2,0c0.5,0,0.9,0.5,1.1,1.1c0.2,0.6-0.9,2-2.5,2
			c-0.4,0-0.7-0.1-1.1-0.2c-1.4-0.7-2.7-2.2-3.8-3.7c-1.3-1.8-2.4-5.1-3-9.3c-0.2-1.6-0.4-3.1-0.5-4.4c0-0.2,0-0.4,0-0.6
			c0-0.3,0-0.6,0-0.9c0-0.3,0-0.6,0-0.8c0-0.3,0-0.5,0-0.8c0-0.3,0-0.5,0-0.7c0-0.9-0.1-1.5-0.1-1.5s-0.1,0.6-0.2,1.5
			c0,0.2,0,0.5-0.1,0.7c0,0.1,0,0.2,0,0.3L17,16.4l-0.1,0.8C16.6,16.8,16.1,16.6,15.5,16.6L15.5,16.6z M24.5,10.4
			C24.5,10.4,24.5,10.3,24.5,10.4c0-0.1,0-0.1,0.1-0.1c0,0,0,0,0-0.1c0,0,0,0,0,0c0,0,0,0,0,0c0,0,0,0,0,0l0,0c0,0,0,0,0,0
			c0,0,0,0,0,0.1c0,0,0,0.1,0,0.1c0,0,0,0.1,0,0.1c0,0,0,0-0.1,0.1C24.6,10.4,24.6,10.4,24.5,10.4C24.5,10.4,24.5,10.4,24.5,10.4
			L24.5,10.4L24.5,10.4z M15.7,10.4C15.6,10.4,15.6,10.4,15.7,10.4c-0.1,0-0.1,0-0.1,0c0,0-0.1,0-0.1,0c0,0,0,0-0.1-0.1
			c0,0,0,0,0-0.1c0,0,0,0,0-0.1c0,0,0,0,0,0l0,0c0,0,0,0,0.1,0c0,0,0,0,0.1,0c0,0,0,0,0.1,0s0,0,0.1,0.1
			C15.6,10.3,15.6,10.3,15.7,10.4C15.7,10.3,15.7,10.4,15.7,10.4L15.7,10.4L15.7,10.4z M15.2,17.1c0.1,0,0.2,0,0.3,0
			c0.4,0,0.7,0.1,1,0.4c-0.1,0.4-0.2,0.7-0.3,1.1c-0.2,0.4-0.3,0.7-0.5,1c0.3-0.3,0.5-0.6,0.8-0.9c0.1-0.1,0.1-0.2,0.2-0.3
			c0,0.1-0.1,0.2-0.1,0.3c-0.2,0.6-0.6,1.2-1,1.7c-0.4,0.5-1,0.9-1.5,1.2c-0.2,0.1-0.4,0.2-0.6,0.3c-0.1,0.1-0.2,0.1-0.2,0.1
			s0.1,0,0.2-0.1c0.2-0.1,0.4-0.1,0.6-0.2c0.6-0.3,1.2-0.6,1.7-1.1c0.2-0.2,0.4-0.4,0.6-0.6c-0.7,1-1.9,2.3-3.8,2.3
			c-0.2,0-0.4,0-0.7,0c0.2,0,0.5-0.1,0.7-0.1c0.2-0.1,0.4-0.1,0.6-0.2c0.1-0.1,0.3-0.1,0.4-0.2l0.1-0.1l-0.2,0
			c-0.1,0-0.3,0.1-0.4,0.1c-0.2,0.1-0.4,0.1-0.6,0.1c-0.2,0-0.4,0.1-0.7,0.1c-0.2,0-0.5,0-0.7,0c-0.2,0-0.4,0-0.6,0
			c-0.4-0.1-0.7-0.3-1-0.4C9.4,21.4,14.4,21.3,15.2,17.1L15.2,17.1z M4,8.4c0-2.8,2.6-3.9,6-4.9C11.6,3.1,12.9,3,13.9,3
			c1.5,0,2.4,0.3,2.9,0.6c-0.2,0.2-0.3,0.3-0.5,0.5l-0.1,0C16.2,4,16,4,15.8,4c-0.5-0.1-1-0.2-1.5-0.2c-1.2-0.1-2.8,0-4.4,0.4
			C9.6,4.2,9.3,4.3,8.9,4.5C8.5,4.6,8.2,4.7,7.8,4.9C7.2,5.2,6.6,5.5,6.1,5.9c-0.4,0.3-0.7,0.6-1,1C4.9,7.1,4.9,7.2,4.8,7.3L4.7,7.4
			l0.1-0.1C4.9,7.2,5,7.1,5.1,7C5.4,6.6,5.8,6.3,6.2,6c0.5-0.4,1.1-0.7,1.8-0.9C8.3,5,8.6,4.9,9,4.8c0.4-0.1,0.7-0.2,1.1-0.2
			c0.6-0.1,1.3-0.2,1.9-0.2c-0.6,0.1-1.2,0.3-1.8,0.4C9.6,5,9.3,5.1,9.3,5.1S9.6,5,10.2,4.9c0.6-0.1,1.2-0.2,1.9-0.3
			c0.2,0,0.3,0,0.4,0c-0.5,0.1-0.9,0.2-1.4,0.3C10.9,5,10.7,5,10.5,5.1l-0.2,0.1l0.2,0c0.2,0,0.4-0.1,0.6-0.1
			c0.6-0.1,1.3-0.1,1.9-0.1c0.6,0,1.2,0.1,1.8,0.2c-0.1,0.1-0.2,0.3-0.3,0.5c-0.2,0.5-0.4,1-0.5,1.5l0,0c-0.2-0.2-0.4-0.3-0.6-0.4
			c-0.1-0.1-0.2-0.1-0.3-0.1c0.1,0.1,0.2,0.2,0.2,0.2c0.1,0.2,0.3,0.4,0.4,0.6c0,0.1,0.1,0.1,0.1,0.2l-0.6-0.2l0.3,0.3L9.4,6.7
			c0.5,0.2,1,0.5,1.5,0.9C10.4,7.4,10,7.4,10,7.4c0.4,0.1,0.7,0.3,1,0.5c0.1,0.1,0.3,0.1,0.4,0.2C11.3,8.1,11.2,8,11,8
			c-0.6-0.1-1.2-0.1-1.8,0C8.7,8.1,8.1,8.3,7.6,8.6C7.2,8.8,6.7,9.1,6.4,9.5C6.1,9.7,5.9,10,5.7,10.3c-0.1,0.1-0.1,0.2-0.2,0.2
			l-0.1,0.1l0.1-0.1c0-0.1,0.1-0.1,0.2-0.2C5.9,10,6.2,9.8,6.5,9.6C6.8,9.3,7.3,9,7.7,8.8c1-0.4,2.1-0.5,3.2-0.3
			c0.5,0.1,0.9,0.3,1.3,0.5c0.1,0,0.1,0.1,0.2,0.1c0.4,0.6,0.6,1.2,0.6,1.9c0,0.1,0,0.2,0,0.3l-0.1,0c-0.2,0.1-0.3,0.2-0.5,0.4
			c-0.1,0.1-0.2,0.3-0.3,0.5c0,0.1-0.1,0.2-0.1,0.2c0-0.1,0.1-0.1,0.2-0.2c0.1-0.1,0.3-0.2,0.4-0.3c0.1-0.1,0.3-0.1,0.4-0.2
			c0.2,1.5,0.5,1.5,0.8,3.1c0.2,1.3-0.1,2.8-0.4,3.6c-0.9,0-1.7,0-2.6-0.1c-0.3-0.1-0.6-0.2-0.9-0.4l0.1-0.7l-0.5,0.5l0.9-1.9
			l-1.3,1.7c-1.3-0.9-2.6-2.3-3.5-3.8c0.1-0.2,0.2-0.4,0.4-0.7c0.2-0.3,0.4-0.5,0.6-0.7c-0.3,0.2-0.5,0.4-0.8,0.6
			c0,0-0.1,0.1-0.1,0.1l0.1-0.3l-0.5,0.4c-0.6-1-1-2.1-1.2-3.2l0.5-0.9L4.1,9.5c0,0,0-0.1,0-0.1l1-1.1L4,8.9C4,8.7,4,8.6,4,8.4z"/>
	</g>
	<path class="st1" d="M7.3,13.5c0.1-0.1,0.1-0.2,0.2-0.3c0.2-0.3,0.4-0.5,0.6-0.8c0.3-0.3,0.6-0.5,0.9-0.7c0.3-0.2,0.6-0.4,1-0.6
		c0.3-0.1,0.6-0.2,0.9-0.3c0.1,0,0.3-0.1,0.4-0.1c0.1,0,0.2,0,0.3,0l0.3,0l-0.2,0.1c-0.1,0-0.2,0.1-0.3,0.1c-0.1,0-0.2,0.1-0.4,0.1
		c-0.3,0.1-0.6,0.3-0.9,0.4c-0.3,0.2-0.6,0.4-0.9,0.6c-0.3,0.2-0.6,0.4-0.8,0.7c-0.2,0.2-0.5,0.4-0.7,0.7c-0.1,0.1-0.2,0.2-0.3,0.3
		c-0.1,0.1-0.1,0.2-0.2,0.2L7.1,14l0.1-0.2C7.2,13.7,7.3,13.6,7.3,13.5z"/>
	<path class="st1" d="M11.7,16.2c0.1-0.1,0.1-0.3,0.2-0.5c0.1-0.2,0.2-0.4,0.3-0.5c0.1-0.2,0.2-0.4,0.3-0.5c0.1-0.2,0.2-0.3,0.3-0.5
		c0.1-0.1,0.1-0.2,0.2-0.3l0.1-0.1l0,0.1c0,0.1,0,0.2-0.1,0.4c0,0.2-0.1,0.3-0.2,0.5c-0.1,0.2-0.2,0.4-0.2,0.6
		c-0.1,0.2-0.2,0.4-0.3,0.5c-0.1,0.2-0.2,0.3-0.3,0.4s-0.2,0.2-0.3,0.3l-0.1,0.1l0.1-0.1C11.6,16.5,11.6,16.4,11.7,16.2z"/>
	<path class="st1" d="M28.6,10.8c-0.1,0-0.2-0.1-0.3-0.1l-0.2-0.1l0.3,0c0.1,0,0.2,0,0.3,0c0.1,0,0.2,0,0.4,0.1
		c0.3,0.1,0.6,0.2,0.9,0.3c0.3,0.2,0.7,0.4,1,0.6c0.3,0.2,0.6,0.5,0.9,0.7c0.2,0.2,0.4,0.5,0.6,0.8c0.1,0.1,0.1,0.2,0.2,0.3
		c0.1,0.1,0.1,0.2,0.1,0.3l0.1,0.2l-0.2-0.2c0-0.1-0.1-0.1-0.2-0.2c-0.1-0.1-0.2-0.2-0.3-0.3c-0.2-0.2-0.4-0.5-0.7-0.7
		c-0.3-0.2-0.5-0.5-0.8-0.7c-0.3-0.2-0.6-0.4-0.9-0.6c-0.3-0.2-0.6-0.3-0.9-0.4C28.8,10.9,28.7,10.8,28.6,10.8z"/>
	<path class="st1" d="M27.2,14.2c0.1,0.1,0.2,0.3,0.3,0.5c0.1,0.2,0.2,0.4,0.3,0.5c0.1,0.2,0.2,0.4,0.3,0.5s0.2,0.3,0.2,0.5
		c0.1,0.1,0.1,0.3,0.2,0.3l0.1,0.1l-0.1-0.1c-0.1-0.1-0.2-0.2-0.3-0.3s-0.2-0.3-0.3-0.4c-0.1-0.2-0.2-0.3-0.3-0.5
		c-0.1-0.2-0.2-0.4-0.2-0.6c-0.1-0.2-0.1-0.4-0.2-0.5s-0.1-0.3-0.1-0.4c0-0.1,0-0.1,0-0.1l0.1,0.1C27,14,27.1,14.1,27.2,14.2z"/>
	<path class="st1" d="M21.3,3.8c-0.1,0-0.1,0-0.2,0l-0.2,0.7l-0.2-0.8c-0.2,0-0.4,0-0.6,0C20,3.9,20,4.1,20,4.3
		c0,0.2-0.1,0.4-0.1,0.6c-0.1-0.2-0.1-0.4-0.2-0.6c0-0.2-0.1-0.3-0.1-0.5c-0.1,0-0.3,0-0.4,0l-0.1,0l-0.3,0.5l-0.2-0.5l-0.1,0
		c-0.2,0-0.3,0-0.5,0.1l-0.2,0l0.2-0.1c0.1,0,0.3-0.1,0.4-0.2c0.2-0.1,0.4-0.1,0.6-0.2c0.2,0,0.5-0.1,0.8-0.1c0.3,0,0.5,0,0.8,0
		c0.2,0,0.5,0.1,0.7,0.1c0.2,0,0.3,0.1,0.4,0.1L22,3.9l-0.2,0C21.7,3.8,21.5,3.8,21.3,3.8z"/>
	<path class="st1" d="M22,5.7c-0.1,0-0.2,0-0.3-0.1s-0.3-0.1-0.4-0.1c0,0.1-0.1,0.2-0.1,0.3c0,0.1-0.1,0.3-0.1,0.5
		C21,6,20.9,5.8,20.9,5.5c-0.3,0-0.5,0-0.8,0l-0.3,0.8l-0.2-0.8c-0.2,0-0.3,0-0.5,0l-0.3,0l-0.2,1.3l-0.3-1.2l0,0
		c-0.1,0-0.2,0-0.3,0.1c-0.1,0-0.2,0-0.2,0.1l-0.2,0.1l0.2-0.1c0.1,0,0.1-0.1,0.2-0.1s0.2-0.1,0.3-0.1c0.3-0.1,0.5-0.2,0.8-0.2
		c0.3-0.1,0.6-0.1,1-0.1c0.3,0,0.6,0,1,0.1c0.3,0.1,0.5,0.1,0.8,0.2c0.1,0,0.2,0.1,0.3,0.1c0.1,0,0.2,0.1,0.2,0.1l0.2,0.1l-0.2-0.1
		C22.2,5.7,22.1,5.7,22,5.7z"/>
	<path class="st1" d="M17.8,8.3c0.1,0,0.2-0.1,0.4-0.1C18.4,8.1,18.7,8,19,8c0.7-0.1,1.4-0.1,2.2,0c0.3,0.1,0.6,0.1,0.9,0.2
		c0.1,0,0.3,0.1,0.4,0.1c0.1,0,0.2,0.1,0.3,0.1L23,8.5l-0.2,0c-0.1,0-0.2,0-0.3-0.1l-0.1,0l-0.3,0.8l0-0.8l0,0
		c-0.2,0-0.3-0.1-0.5-0.1l-0.4,1.6l-0.1-1.7c-0.2,0-0.5,0-0.7,0l-0.2,1.5l-0.3-1.5c-0.2,0-0.4,0-0.6,0l-0.2,0.5l-0.2-0.5
		c-0.2,0-0.5,0.1-0.7,0.1l-0.1,0.8L18,8.4c0,0-0.1,0-0.1,0c-0.1,0-0.2,0-0.3,0.1l-0.2,0l0.2-0.1C17.6,8.4,17.7,8.4,17.8,8.3z"/>
	<path class="st1" d="M18.4,11.3c0.2-0.1,0.5-0.1,0.8-0.2s0.6-0.1,0.9-0.1c0.3,0,0.6,0,0.9,0.1s0.6,0.1,0.8,0.1
		c0.2,0.1,0.4,0.1,0.6,0.2l0.2,0.1l-0.2,0c-0.1,0-0.3,0-0.6,0c-0.1,0-0.3,0-0.4,0l-0.2,0.7L21,11.4c-0.3,0-0.5,0-0.8,0L20,13.1
		l-0.2-1.7c-0.1,0-0.2,0-0.3,0L19.4,12l-0.2-0.5h0c-0.1,0-0.2,0-0.3,0l-0.3,0.8l-0.2-0.8h0c-0.2,0-0.4,0-0.6,0l-0.2,0l0.2-0.1
		C17.9,11.4,18.1,11.4,18.4,11.3z"/>
	<path class="st1" d="M21.4,14.4c-0.1,0-0.2,0-0.4,0l-0.3,1.4l-0.2-1.4c-0.2,0-0.3,0-0.5,0c-0.2,0-0.5,0-0.7,0l-0.3,0.8l-0.2-0.8
		c-0.1,0-0.2,0-0.2,0c-0.2,0-0.3,0-0.5,0l-0.2,0l0.2-0.1c0.1,0,0.3-0.1,0.4-0.2c0.2-0.1,0.4-0.1,0.6-0.1s0.5-0.1,0.7-0.1
		c0.3,0,0.5,0,0.7,0.1s0.5,0.1,0.6,0.1c0.2,0,0.3,0.1,0.4,0.1l0.2,0.1l-0.2,0C21.8,14.5,21.6,14.4,21.4,14.4z"/>
	<path class="st1" d="M18.6,17.6c0.2-0.1,0.4-0.1,0.6-0.1c0.2,0,0.5-0.1,0.7-0.1c0.3,0,0.5,0,0.7,0.1c0.2,0,0.5,0.1,0.6,0.1
		c0.2,0,0.3,0.1,0.4,0.1l0.2,0.1l-0.2,0c-0.1,0-0.2,0-0.4,0l-0.3,1.4L21,17.7l-0.2,0c-0.2,0-0.4,0-0.6,0l-0.3,0.8l-0.1-0.8
		c-0.1,0-0.3,0-0.4,0c-0.2,0-0.4,0-0.6,0c-0.2,0-0.3,0-0.5,0l-0.2,0l0.2-0.1C18.3,17.7,18.4,17.6,18.6,17.6z"/>
	<path class="st1" d="M18.7,20.9c0.2,0,0.4-0.1,0.6-0.1c0.2,0,0.4,0,0.7-0.1c0.2,0,0.5,0,0.7,0s0.4,0.1,0.6,0.1
		c0.2,0,0.3,0.1,0.4,0.1l0.1,0.1h-0.2c-0.1,0-0.2,0-0.4,0c-0.1,0-0.3,0-0.5,0l-0.2,0.5l-0.2-0.5c-0.1,0-0.2,0-0.3,0
		c-0.2,0-0.4,0-0.6,0l-0.3,1.4l-0.2-1.4c-0.1,0-0.1,0-0.2,0c-0.2,0-0.3,0-0.4,0h-0.2l0.1-0.1C18.4,21,18.5,21,18.7,20.9z"/>
	<path class="st1" d="M18.9,24.3c0.1,0,0.3-0.1,0.5-0.1c0.2,0,0.4,0,0.6-0.1c0.2,0,0.4,0,0.6,0c0.2,0,0.4,0.1,0.5,0.1
		c0.1,0,0.3,0.1,0.3,0.1l0.1,0.1h-0.1c-0.1,0-0.2,0-0.4,0c-0.1,0-0.2,0-0.3,0L20.5,26l-0.2-1.6c-0.1,0-0.2,0-0.3,0s-0.2,0-0.3,0
		l-0.2,0.7l-0.2-0.7c-0.1,0-0.2,0-0.3,0c-0.1,0-0.3,0-0.4,0h-0.1l0.1-0.1C18.7,24.4,18.8,24.3,18.9,24.3z"/>
	<path class="st1" d="M19.5,27.4c0.1-0.1,0.3-0.1,0.4-0.2c0.2-0.1,0.3-0.1,0.5-0.1c0.2,0,0.3,0,0.5,0c0.2,0,0.3,0,0.4,0
		c0.1,0,0.2,0.1,0.3,0.1l0.1,0l-0.1,0c-0.1,0-0.2,0-0.3,0c-0.1,0-0.2,0-0.3,0l0,1.2l-0.5-1.1l-0.1,0c-0.1,0-0.2,0-0.2,0l-0.1,0.6
		l-0.3-0.5c-0.1,0-0.2,0-0.2,0c-0.1,0-0.2,0-0.3,0l-0.1,0l0.1-0.1C19.3,27.5,19.4,27.5,19.5,27.4z"/>
	<path class="st1" d="M20.3,30.2c0.1-0.1,0.2-0.1,0.3-0.2c0.1-0.1,0.3-0.1,0.4-0.2c0.1-0.1,0.3-0.1,0.4-0.1c0.1,0,0.3,0,0.4,0
		s0.2,0,0.3,0l0.1,0l-0.1,0c-0.1,0-0.1,0.1-0.2,0.1c-0.1,0-0.2,0.1-0.3,0.1l0.1,0.9L21.3,30l-0.2,0.1c-0.1,0-0.3,0.1-0.4,0.1l0,0
		l0.4,1.4l-0.6-1.3l0,0c-0.1,0-0.2,0.1-0.3,0.1l-0.1,0l0.1-0.1C20.2,30.3,20.2,30.2,20.3,30.2z"/>
	<path class="st1" d="M27.9,35.1c0-0.1-0.1-0.1-0.2-0.2c-0.1-0.1-0.1-0.1-0.2-0.2c-0.1-0.1-0.1-0.1-0.2-0.2c0-0.1-0.1-0.1-0.1-0.2
		c0,0-0.1-0.1-0.1-0.1c0,0,0-0.1,0-0.1h0.1c0.1,0,0.1,0,0.2,0c0.1,0,0.2,0.1,0.2,0.1c0.1,0.1,0.2,0.1,0.2,0.2
		c0.1,0.1,0.2,0.3,0.2,0.5c0,0.1,0,0.1,0,0.2s0,0.1,0,0.1l-0.1,0C28,35.1,28,35.1,27.9,35.1z"/>
	<path class="st1" d="M23.2,12.7c-0.1-0.3-0.1-0.6-0.1-0.9c0-0.2,0-0.4,0-0.6c0-0.1,0-0.2,0-0.2s0,0.1,0,0.2c0,0.2,0,0.4,0,0.6
		c0,0.3,0.1,0.6,0.2,0.8c0.1,0.3,0.2,0.6,0.3,0.9s0.2,0.6,0.3,0.9c0.1,0.3,0.2,0.6,0.3,0.8c0.1,0.2,0.1,0.4,0.2,0.6l0.1,0.2
		l-0.1-0.2c-0.1-0.1-0.1-0.3-0.2-0.6c-0.1-0.2-0.2-0.5-0.3-0.8s-0.2-0.6-0.4-0.9C23.4,13.3,23.3,13,23.2,12.7z"/>
	<path class="st1" d="M16.5,13.6c0.1-0.2,0.1-0.3,0.1-0.5s0.1-0.4,0.1-0.6c0-0.2,0.1-0.4,0.1-0.6c0-0.2,0-0.4,0-0.6
		c0-0.2,0-0.3,0-0.4c0-0.1,0-0.2,0-0.2l0,0.2c0,0.1,0,0.3,0.1,0.4c0,0.2,0,0.4,0,0.6c0,0.2,0,0.4-0.1,0.7c0,0.2-0.1,0.4-0.1,0.6
		C16.7,13.3,16.7,13.5,16.5,13.6c0,0.2,0,0.3-0.1,0.4l-0.1,0.1l0-0.1C16.4,13.9,16.4,13.8,16.5,13.6z"/>
	<path class="st1" d="M31,12.8c0.1,0.1,0.2,0.2,0.4,0.3c0.1,0.1,0.3,0.2,0.4,0.4c0.1,0.1,0.2,0.3,0.3,0.4c0.1,0.1,0.2,0.3,0.3,0.4
		c0.1,0.1,0.1,0.2,0.2,0.3l0.1,0.1l-0.1-0.1c0-0.1-0.1-0.1-0.2-0.2c-0.1-0.1-0.2-0.2-0.3-0.3s-0.2-0.3-0.4-0.4s-0.2-0.3-0.4-0.4
		S31,13,31,12.8c-0.2,0-0.2-0.1-0.3-0.2l-0.1-0.1l0.1,0.1C30.8,12.7,30.9,12.7,31,12.8z"/>
	<path class="st1" d="M30.6,9c-0.2,0-0.4,0-0.6,0c-0.2,0-0.4,0-0.7,0c-0.2,0-0.4,0.1-0.7,0.1c-0.2,0.1-0.4,0.1-0.6,0.1
		c-0.2,0.1-0.3,0.1-0.4,0.1l-0.1,0.1l0.1-0.1c0.1-0.1,0.2-0.1,0.4-0.2C28.3,9.1,28.5,9,28.7,9c0.4-0.1,0.9-0.2,1.4-0.2
		C30.2,8.8,30.4,8.8,30.6,9c0.1-0.1,0.3,0,0.4,0l0.2,0L31,9C30.9,9,30.8,9,30.6,9z"/>
	<path class="st1" d="M34,6.9c-0.2-0.1-0.3-0.3-0.5-0.4c-0.2-0.1-0.4-0.3-0.5-0.4S32.5,6,32.4,5.9c-0.1-0.1-0.3-0.1-0.4-0.2
		l-0.1-0.1l0.1,0c0.1,0,0.2,0.1,0.4,0.1C32.6,5.9,32.8,6,33,6.1c0.2,0.1,0.4,0.2,0.6,0.3c0.2,0.1,0.4,0.3,0.5,0.4
		c0.1,0.1,0.3,0.3,0.4,0.4c0.1,0.1,0.2,0.2,0.3,0.3l0.1,0.1l-0.1-0.1c-0.1-0.1-0.2-0.2-0.3-0.3C34.3,7.2,34.1,7.1,34,6.9z"/>
	<path class="st1" d="M26.8,5.6c-0.1,0-0.2,0-0.4,0c-0.1,0-0.3,0-0.4,0c-0.1,0-0.3,0-0.4,0c-0.1,0-0.2,0-0.3,0l-0.3,0l-0.1,0l0.1,0
		c0.1,0,0.2-0.1,0.2-0.1c0.1,0,0.2-0.1,0.3-0.1c0.1,0,0.3,0,0.4-0.1c0.1,0,0.3,0,0.4,0C26.5,5.4,26.7,5.4,26.8,5.6
		c0.1-0.1,0.2-0.1,0.3,0l0.1,0l-0.1,0L26.8,5.6z"/>
	<path class="st1" d="M28.6,15.4c0,0.1,0.1,0.2,0.2,0.4c0.1,0.1,0.1,0.3,0.2,0.4s0.1,0.3,0.2,0.4c0.1,0.1,0.1,0.3,0.2,0.4l0.1,0.3
		l0,0.1l-0.1-0.1c0-0.1-0.1-0.1-0.2-0.2c-0.1-0.1-0.2-0.2-0.2-0.4s-0.2-0.3-0.2-0.4c-0.1-0.1-0.1-0.3-0.2-0.4S28.6,15.6,28.6,15.4
		c-0.1-0.1-0.1-0.2-0.2-0.3l0-0.1l0.1,0.1L28.6,15.4z"/>
	<path class="st1" d="M26.2,16.7c-0.1-0.5-0.2-1-0.1-1.4c0-0.2,0-0.4,0.1-0.6c0-0.1,0.1-0.3,0.1-0.4l0.1-0.2l0,0.2
		c0,0.1,0,0.3-0.1,0.4c0,0.2,0,0.4,0,0.6c0,0.2,0,0.5,0,0.7c0,0.2,0.1,0.5,0.1,0.7c0.1,0.2,0.1,0.4,0.2,0.6c0.1,0.2,0.1,0.3,0.1,0.4
		l0.1,0.2l-0.1-0.1c-0.1-0.1-0.1-0.3-0.2-0.4C26.3,17.1,26.2,16.9,26.2,16.7z"/>
	<path class="st1" d="M13.3,17.3c0-0.2,0-0.4,0.1-0.6s0-0.5,0-0.7c0-0.2,0-0.5,0-0.7c0-0.2,0-0.4,0-0.6c0-0.2,0-0.3,0-0.4
		c0-0.1,0-0.2,0-0.2s0,0.1,0,0.2c0,0.1,0.1,0.2,0.1,0.4c0,0.2,0.1,0.4,0.1,0.6c0,0.2,0,0.5,0,0.7c0,0.2,0,0.5-0.1,0.7
		C13.5,16.9,13.5,17.1,13.3,17.3c0.1,0.2,0,0.3,0,0.4c0,0.1,0,0.2,0,0.2s0-0.1,0-0.2C13.3,17.6,13.3,17.5,13.3,17.3z"/>
	<path class="st1" d="M11.8,9.2c-0.1-0.1-0.1-0.1-0.2-0.2L11.6,9l0.1,0C11.8,9.1,11.8,9.1,11.8,9.2c0.2,0,0.3,0.1,0.3,0.2
		c0.1,0.1,0.2,0.2,0.3,0.3c0.1,0.1,0.1,0.3,0.2,0.4c0,0.1,0.1,0.2,0.1,0.4c0,0.1,0,0.2,0,0.3l0,0.1l0-0.1c0-0.1,0-0.2-0.1-0.2
		c0-0.1-0.1-0.2-0.1-0.3c-0.1-0.1-0.1-0.2-0.2-0.3c-0.1-0.1-0.1-0.2-0.2-0.3C12,9.4,11.9,9.3,11.8,9.2z"/>
	<path class="st1" d="M5.7,10.8c0-0.1,0.1-0.2,0.2-0.3C6,10.4,6.2,10.2,6.4,10c0.2-0.2,0.4-0.4,0.7-0.5c0.3-0.2,0.5-0.3,0.8-0.4
		C8.1,9,8.3,8.9,8.6,8.9c0.1,0,0.2,0,0.3,0c0.1,0,0.2,0,0.2,0h0.2l-0.2,0c-0.1,0-0.2,0-0.2,0c-0.1,0-0.2,0-0.3,0.1
		C8.4,9,8.1,9.1,7.9,9.2c-0.5,0.2-1,0.5-1.4,0.9c-0.2,0.2-0.4,0.3-0.5,0.5C5.9,10.7,5.8,10.8,5.7,10.8c0,0.1,0,0.2-0.1,0.2l-0.1,0.2
		L5.6,11C5.6,11,5.7,10.9,5.7,10.8z"/>
	<path class="st1" d="M7.7,14c0.1-0.1,0.2-0.3,0.3-0.4c0.1-0.1,0.2-0.3,0.4-0.4c0.1-0.1,0.3-0.3,0.4-0.4c0.1-0.1,0.2-0.2,0.4-0.3
		c0.1-0.1,0.2-0.1,0.3-0.2l0.1-0.1l-0.1,0.1c-0.1,0.1-0.1,0.1-0.2,0.2c-0.1,0.1-0.2,0.2-0.3,0.3c-0.1,0.1-0.3,0.2-0.4,0.4
		c-0.1,0.1-0.2,0.3-0.4,0.4C7.9,13.8,7.8,13.9,7.7,14c0,0.2-0.1,0.2-0.1,0.3l-0.1,0.1l0.1-0.1C7.5,14.2,7.6,14.1,7.7,14z"/>
	<path class="st1" d="M10,16.1c0.1-0.1,0.1-0.2,0.2-0.3l0.2-0.4c0.1-0.1,0.2-0.2,0.2-0.4s0.2-0.2,0.2-0.3s0.1-0.2,0.2-0.2l0.1-0.1
		l0,0.1c0,0.1-0.1,0.1-0.1,0.2c0,0.1-0.1,0.2-0.2,0.3l-0.2,0.4l-0.2,0.4C10.2,15.9,10.1,16,10,16.1c0,0.1,0,0.2-0.1,0.3l-0.1,0.1
		c0,0,0,0,0-0.1C9.9,16.3,9.9,16.2,10,16.1z"/>
	<path class="st1" d="M9.2,6.2c0.2,0,0.4,0.1,0.7,0.1c0.3,0.1,0.5,0.1,0.8,0.2c0.3,0.1,0.5,0.2,0.8,0.2s0.5,0.2,0.6,0.3
		c0.2,0.1,0.3,0.2,0.4,0.2c0.1,0.1,0.2,0.1,0.2,0.1l-0.2-0.1c-0.1,0-0.3-0.1-0.5-0.2s-0.4-0.1-0.7-0.2c-0.2-0.1-0.5-0.1-0.8-0.2
		s-0.5-0.1-0.8-0.2C9.6,6.4,9.4,6.3,9.2,6.3C9,6.3,8.8,6.2,8.7,6.2l-0.2,0l0.2,0C8.8,6.2,9,6.2,9.2,6.2z"/>
	<path class="st1" d="M5.4,7.3C5.5,7.2,5.6,7.1,5.7,7C5.7,6.9,5.9,6.8,6,6.7c0.1-0.1,0.2-0.2,0.4-0.3c0.1-0.1,0.2-0.1,0.3-0.2
		c0.1,0,0.2-0.1,0.3-0.1l0.1,0L6.9,6.2c-0.1,0-0.1,0.1-0.2,0.2C6.6,6.4,6.5,6.5,6.4,6.6C6.3,6.6,6.2,6.7,6.1,6.8
		C6,6.9,5.9,7,5.8,7.1S5.6,7.3,5.4,7.3c0,0.1-0.1,0.2-0.1,0.3L5.2,7.6l0.1-0.1C5.3,7.5,5.3,7.4,5.4,7.3z"/>
	<path class="st1" d="M10.6,3.6c0.3-0.1,0.6-0.1,1-0.2s0.8-0.1,1.2-0.1c0.4,0,0.8,0,1.2,0c0.4,0,0.7,0,1,0.1c0.3,0,0.5,0.1,0.7,0.1
		l0.3,0l-0.3,0c-0.2,0-0.4,0-0.7,0c-0.3,0-0.6,0-1,0c-0.4,0-0.8,0-1.1,0c-0.4,0-0.8,0-1.1,0.1S10.9,3.6,10.6,3.6
		C10.3,3.7,10,3.7,9.9,3.8l-0.3,0l0.3-0.1C10,3.7,10.3,3.6,10.6,3.6z"/>
	<path class="st1" d="M29.8,3.7c-0.1,0-0.2-0.1-0.4-0.1c-0.3-0.1-0.6-0.1-1-0.2c-0.4-0.1-0.7-0.1-1.1-0.1s-0.8,0-1.1,0
		c-0.4,0-0.7,0-1,0.1c-0.1,0-0.3,0-0.4,0c-0.1,0-0.2,0-0.3,0l-0.3,0l0.3-0.1c0.1,0,0.2,0,0.3-0.1c0.1,0,0.2-0.1,0.4-0.1
		c0.3,0,0.6-0.1,1-0.1c0.4,0,0.8,0,1.1,0c0.4,0,0.8,0.1,1.1,0.1c0.4,0.1,0.7,0.1,1,0.2C29.5,3.6,29.7,3.6,29.8,3.7
		c0.1,0,0.2,0,0.3,0l0.3,0.1l-0.3-0.1C30,3.8,29.9,3.8,29.8,3.7z"/>
	<path class="st1" d="M14.2,19.5c0.1-0.1,0.2-0.2,0.3-0.3c0.1-0.1,0.2-0.2,0.3-0.4c0.1-0.1,0.2-0.3,0.2-0.4c0.1-0.1,0.1-0.3,0.2-0.4
		c0-0.1,0.1-0.2,0.1-0.3c0-0.1,0-0.1,0-0.1l0,0.1c0,0.1,0,0.2-0.1,0.3c0,0.1-0.1,0.3-0.1,0.4c-0.1,0.1-0.1,0.3-0.2,0.4
		c-0.1,0.1-0.2,0.3-0.3,0.4C14.5,19.4,14.4,19.5,14.2,19.5c0,0.1-0.1,0.2-0.2,0.2L14,19.8l0.1-0.1C14.1,19.7,14.2,19.6,14.2,19.5z"
		/>
	<path class="st1" d="M24.3,18.7c-0.1-0.1-0.1-0.1-0.2-0.2s-0.1-0.2-0.2-0.2c0-0.1-0.1-0.1-0.1-0.2c0-0.1,0-0.1-0.1-0.2l0-0.1l0,0.1
		c0,0,0.1,0.1,0.1,0.1c0,0.1,0.1,0.1,0.2,0.2s0.1,0.1,0.2,0.2s0.1,0.2,0.2,0.2s0.1,0.1,0.1,0.2c0,0.1,0.1,0.1,0.1,0.1l0,0.1l-0.1,0
		c-0.1,0-0.1-0.1-0.1-0.1C24.4,18.9,24.3,18.8,24.3,18.7z"/>
	<path class="st1" d="M23.1,13.1c0,0.1,0.1,0.2,0.1,0.3c0,0.1,0.1,0.3,0.1,0.4c0.1,0.1,0.1,0.3,0.1,0.4s0.1,0.2,0.1,0.3
		c0,0.1,0,0.2,0.1,0.2l0,0.1l0-0.1c0-0.1-0.1-0.1-0.1-0.2c0-0.1-0.1-0.2-0.1-0.3l-0.1-0.4l-0.1-0.4C23,13.4,23,13.3,23.1,13.1
		c-0.1-0.1-0.1-0.2-0.1-0.2l0-0.1l0,0.1C23,13,23,13,23.1,13.1z"/>
	<path class="st1" d="M23.3,10.2L23.3,10.2L23.3,10.2c0-0.1,0-0.2,0-0.3c0-0.1,0-0.2,0.1-0.3c0.1-0.3,0.2-0.5,0.4-0.7
		c0.1-0.1,0.1-0.2,0.2-0.3c0.1-0.1,0.1-0.1,0.2-0.2l0.1-0.1l-0.1,0.1c0,0-0.1,0.1-0.1,0.2S23.9,8.9,23.8,9c-0.1,0.1-0.1,0.2-0.2,0.3
		c-0.1,0.1-0.1,0.2-0.2,0.3c0,0.1-0.1,0.2-0.1,0.3C23.3,10.1,23.3,10.2,23.3,10.2z"/>
	<path class="st1" d="M16.6,9.6c0-0.1-0.1-0.1-0.2-0.2c-0.1-0.1-0.1-0.2-0.2-0.3c-0.1-0.1-0.1-0.2-0.2-0.3c-0.1-0.1-0.1-0.2-0.2-0.2
		c-0.1-0.1-0.1-0.1-0.1-0.2l-0.1-0.1l0.1,0c0.1,0,0.1,0.1,0.2,0.1c0.1,0.1,0.2,0.1,0.2,0.2c0.1,0.1,0.2,0.2,0.2,0.3
		c0.1,0.1,0.1,0.2,0.2,0.3C16.6,9.4,16.7,9.5,16.6,9.6c0.1,0,0.1,0.1,0.1,0.2c0,0,0,0.1,0,0.1l0-0.1C16.7,9.8,16.7,9.7,16.6,9.6z"/>
	<path class="st1" d="M12,5.9c-0.1,0-0.2-0.1-0.2-0.1l-0.1,0h0.1C11.9,5.8,12,5.8,12,5.9c0.1-0.1,0.3-0.1,0.4,0
		c0.1,0,0.3,0.1,0.4,0.1c0.1,0.1,0.3,0.1,0.4,0.2c0.1,0.1,0.2,0.1,0.3,0.2c0.1,0.1,0.1,0.1,0.2,0.2l0.1,0.1l-0.1,0
		c-0.1,0-0.1-0.1-0.2-0.1c-0.1-0.1-0.2-0.1-0.3-0.2c-0.1-0.1-0.2-0.1-0.4-0.2C12.6,6.1,12.5,6,12.4,6C12.3,5.9,12.1,5.9,12,5.9z"/>
	<path class="st1" d="M30.9,6.4c-0.2,0-0.3,0-0.5,0c-0.4,0-0.8,0.1-1.2,0.2c-0.2,0.1-0.4,0.1-0.5,0.2C28.5,6.9,28.4,7,28.3,7
		l-0.1,0.1L28.3,7c0.1-0.1,0.2-0.1,0.3-0.2c0.2-0.1,0.3-0.2,0.5-0.2c0.2-0.1,0.4-0.1,0.6-0.2c0.2,0,0.4-0.1,0.6-0.1
		C30.5,6.3,30.7,6.3,30.9,6.4c0.1-0.1,0.3-0.1,0.4,0l0.1,0h-0.1C31.2,6.4,31.1,6.4,30.9,6.4z"/>
	<path class="st1" d="M32.8,8.4c0.2,0.1,0.3,0.2,0.4,0.3c0.1,0.1,0.2,0.2,0.3,0.3c0.1,0.1,0.1,0.2,0.2,0.3l0.1,0.1l-0.1-0.1
		c-0.1-0.1-0.1-0.1-0.3-0.2c-0.1-0.1-0.2-0.2-0.4-0.3c-0.1-0.1-0.3-0.2-0.4-0.3c-0.2-0.1-0.3-0.2-0.5-0.3c-0.2-0.1-0.3-0.1-0.4-0.2
		c-0.1,0-0.2-0.1-0.3-0.1l-0.1,0l0.1,0c0.1,0,0.2,0,0.3,0.1c0.2,0,0.3,0.1,0.4,0.2C32.5,8.3,32.7,8.3,32.8,8.4z"/>
</g>
</svg>
