<svg id="Слой_1" data-name="Слой 1" xmlns="http://www.w3.org/2000/svg" viewBox="0 0 141.73 141.73"><defs><style>.cls-1{fill:#fff;}</style></defs><path class="cls-1" d="M35.44,70.61c0-10,.13-20-.07-30-.07-3.86,1.11-5.34,5.17-5.31,20.44.16,40.88.12,61.32,0,3.46,0,4.91,1.07,4.89,4.67q-.14,30.9,0,61.78c0,3.47-1.23,4.89-4.79,4.88-20.59-.09-41.18-.12-61.78,0-3.92,0-4.9-1.6-4.85-5.18.16-10.3.06-20.6.06-30.89Z"/><path class="cls-1" d="M31.38,121.26c-.09,11.39,1.43,10.33-10.49,10.33-12.29,0-10.66,1-10.7-10.6s-1.3-10.61,10.33-10.53C33,110.54,31.23,108.93,31.38,121.26Z"/><path class="cls-1" d="M106.71,121.08c-.12,11.46,1.55,10.52-10.33,10.49-12.62,0-10.84,1.26-10.87-10.81,0-11.4-1.46-10.31,10.5-10.31S106.65,109.25,106.71,121.08Z"/><path class="cls-1" d="M131.59,121.19c-.16,11.65,1.43,10.44-10.37,10.38s-10.69,1.71-10.69-10.48c0-11.81-1.49-10.69,10.58-10.66C133.84,110.46,131.21,109.59,131.59,121.19Z"/><path class="cls-1" d="M81.45,121.33c-.15,11.54,1.6,10.24-10.48,10.22S60.37,133.06,60.33,121c0-11.94-1-10.49,10.34-10.5C83.16,110.46,81.29,109.05,81.45,121.33Z"/><path class="cls-1" d="M45.92,131.62c-11.62,0-10.58,1.1-10.52-10.37.07-12.12-1.58-10.76,10.91-10.81,11.27,0,10.35-1,10.34,10.13V121C56.52,132.65,58.19,131.55,45.92,131.62Z"/><path class="cls-1" d="M120.81,81.5c-11.84-.09-10.25,1.35-10.28-10.44s-1.55-10.76,11-10.8c11.62,0,9.93-.73,10,9.85a3.38,3.38,0,0,1,0,.45C131.41,83.11,133.15,81.3,120.81,81.5Z"/><path class="cls-1" d="M31.38,70.89C31.28,83,32.74,81.45,20.72,81.43,9,81.41,10.21,83,10.18,70.73c0-11.3-1-10.5,10.51-10.46C33,60.31,31.24,59.26,31.38,70.89Z"/><path class="cls-1" d="M70.78,31.37C59.06,31.26,60.45,32.81,60.37,21c-.08-12.06-1.11-10.9,11-10.85,11.53,0,10-1.11,10.11,10.22a3.38,3.38,0,0,1,0,.45C81.29,32.81,83.11,31.24,70.78,31.37Z"/><path class="cls-1" d="M45.91,31.34c-11.74-.09-10.54,1.51-10.5-10.28,0-12-1.83-10.89,10.81-10.94,11.36,0,10.51-.71,10.4,10.65C56.51,33,58,31.14,45.91,31.34Z"/><path class="cls-1" d="M110.51,20.87c.08-11.6-1.47-10.77,10.61-10.75,11.77,0,10.45-1,10.44,10.4,0,12.61,1.34,10.77-10.81,10.8C109.29,31.34,110.6,33,110.51,20.87Z"/><path class="cls-1" d="M31.37,96.12c-.11,12.19,1.46,10.38-10.71,10.47-11.48.09-10.5,1.08-10.48-10.45,0-12-1.19-10.74,10.66-10.67S31.29,83.58,31.37,96.12Z"/><path class="cls-1" d="M121.2,106.61c-11.74-.1-10.71,1.55-10.69-10.58s-1.18-10.58,10.68-10.56c11.55,0,10.32-1.6,10.38,10.35v.45C131.54,108.42,132.62,106.44,121.2,106.61Z"/><path class="cls-1" d="M31.38,20.69C31.23,32.82,33,31.28,20.8,31.34c-12,.06-10.59,1.3-10.61-10.65,0-10.89-1.49-10.64,10.44-10.58C33,10.18,31.24,9.15,31.38,20.69Z"/><path class="cls-1" d="M31.35,46c-.16,11.75,1.89,10.5-10.66,10.55-11.5.05-10.55,1-10.52-10.45C10.2,34,9,35.31,20.76,35.4,32.75,35.49,31.21,33.53,31.35,46Z"/><path class="cls-1" d="M95.9,31.37C84,31.29,85.49,32.61,85.52,21c0-11.82-1.88-10.81,10.9-10.86,11.21,0,10.34-.77,10.28,10.28C106.63,32.77,108.15,31.27,95.9,31.37Z"/><path class="cls-1" d="M121.09,35.38c11.64.15,10.5-1.54,10.46,10.28-.05,12.22,1.63,10.87-10.79,10.89-11,0-10.28,1.4-10.26-10.1V46C110.59,33.76,109.18,35.56,121.09,35.38Z"/></svg>