<svg id="Слой_1" data-name="Слой 1" xmlns="http://www.w3.org/2000/svg" viewBox="0 0 283.46 141.73"><defs><style>.cls-1{fill:#1d1d1b;}.cls-2{fill:#db2878;}</style></defs><path class="cls-1" d="M24.9,76.5c0-6.41.08-12.81,0-19.22-.05-2.48.7-3.42,3.31-3.4,13.1.1,26.21.07,39.31,0,2.22,0,3.15.69,3.14,3q-.09,19.8,0,39.61c0,2.22-.79,3.13-3.07,3.12-13.21,0-26.41-.07-39.61,0-2.52,0-3.15-1-3.11-3.32.1-6.61,0-13.21,0-19.81Z"/><path class="cls-2" d="M22.3,109c-.07,7.3.91,6.62-6.73,6.62-7.88,0-6.84.62-6.86-6.8s-.84-6.8,6.62-6.75C23.33,102.1,22.2,101.07,22.3,109Z"/><path class="cls-2" d="M70.59,108.86c-.08,7.35,1,6.75-6.62,6.73-8.09,0-6.95.81-7-6.93,0-7.31-.94-6.61,6.73-6.62S70.55,101.28,70.59,108.86Z"/><path class="cls-2" d="M86.54,108.93c-.1,7.47.92,6.7-6.64,6.66S73,116.68,73,108.87c0-7.57-1-6.85,6.79-6.84C88,102.05,86.3,101.5,86.54,108.93Z"/><path class="cls-2" d="M54.4,109c-.1,7.4,1,6.57-6.72,6.55s-6.8,1-6.83-6.78-.63-6.73,6.63-6.73C55.49,102.06,54.29,101.15,54.4,109Z"/><path class="cls-2" d="M31.62,115.62c-7.45,0-6.79.71-6.75-6.65,0-7.77-1-6.9,7-6.93,7.22,0,6.63-.62,6.63,6.49v.29C38.42,116.28,39.49,115.58,31.62,115.62Z"/><path class="cls-2" d="M79.63,83.48c-7.59,0-6.57.87-6.59-6.69s-1-6.9,7-6.92c7.45,0,6.37-.47,6.44,6.31v.29C86.43,84.52,87.55,83.36,79.63,83.48Z"/><path class="cls-2" d="M22.29,76.68c-.06,7.73.88,6.77-6.83,6.76-7.51,0-6.74,1-6.76-6.86,0-7.25-.66-6.73,6.74-6.71C23.32,69.9,22.21,69.22,22.29,76.68Z"/><path class="cls-2" d="M47.55,51.34c-7.51-.06-6.62.93-6.67-6.64-.05-7.73-.71-7,7-7,7.39,0,6.41-.7,6.48,6.56v.29C54.3,52.26,55.46,51.26,47.55,51.34Z"/><path class="cls-2" d="M31.61,51.32c-7.53-.06-6.76,1-6.73-6.59s-1.17-7,6.93-7c7.28,0,6.74-.46,6.67,6.82C38.41,52.36,39.35,51.2,31.61,51.32Z"/><path class="cls-2" d="M73,44.61c0-7.43-.94-6.9,6.8-6.89,7.55,0,6.7-.67,6.7,6.67,0,8.08.86,6.9-6.94,6.92C72.25,51.32,73.08,52.39,73,44.61Z"/><path class="cls-2" d="M22.29,92.86c-.07,7.82.94,6.65-6.87,6.71-7.36.06-6.73.7-6.72-6.7,0-7.67-.76-6.89,6.84-6.84S22.24,84.82,22.29,92.86Z"/><path class="cls-2" d="M79.88,99.58c-7.53-.06-6.86,1-6.85-6.78S72.27,86,79.88,86c7.4,0,6.61-1,6.65,6.64V93C86.51,100.74,87.2,99.48,79.88,99.58Z"/><path class="cls-2" d="M22.29,44.5c-.09,7.77,1,6.79-6.78,6.82s-6.79.84-6.8-6.83c0-7-1-6.82,6.69-6.78C23.34,37.76,22.2,37.1,22.29,44.5Z"/><path class="cls-2" d="M22.27,60.72c-.1,7.54,1.22,6.74-6.83,6.77-7.38,0-6.76.63-6.74-6.7,0-7.76-.79-6.92,6.79-6.86S22.19,52.73,22.27,60.72Z"/><path class="cls-2" d="M63.66,51.34C56,51.29,57,52.14,57,44.68s-1.2-6.93,7-7c7.18,0,6.63-.5,6.59,6.59C70.54,52.24,71.52,51.28,63.66,51.34Z"/><path class="cls-2" d="M79.81,53.92c7.47.09,6.74-1,6.71,6.59,0,7.83,1,7-6.92,7-7.07,0-6.59.9-6.58-6.48v-.29C73.08,52.88,72.17,54,79.81,53.92Z"/><path class="cls-2" d="M96,47.43V42.8h4.52v4.63Zm0,5.19V48h4.52v4.63Zm0,20.74V68.73h4.52v4.63Zm5.18-31.11V37.62h4.53v4.63Zm0,5.18V42.8h4.53v4.63Zm0,5.19V48h4.53v4.63Zm0,5.18V53.17h4.53V57.8Zm0,15.56V68.73h4.53v4.63Zm5.19-31.11V37.62h4.52v4.63Zm0,15.55V53.17h4.52V57.8Zm0,5.18V58.36h4.52V63Zm0,5.19V63.54h4.52v4.63Zm0,5.19V68.73h4.52v4.63Zm5.18-31.11V37.62h4.53v4.63Zm0,20.73V58.36h4.53V63Zm0,5.19V63.54h4.53v4.63Z"/><path class="cls-2" d="M123,47.43V42.8h4.52v4.63Zm0,5.19V48h4.52v4.63Zm0,5.18V53.17h4.52V57.8ZM123,63V58.36h4.52V63Zm0,5.19V63.54h4.52v4.63Zm5.18-25.92V37.62h4.53v4.63Zm0,5.18V42.8h4.53v4.63Zm0,5.19V48h4.53v4.63Zm0,5.18V53.17h4.53V57.8Zm0,5.18V58.36h4.53V63Zm0,5.19V63.54h4.53v4.63Zm0,5.19V68.73h4.53v4.63Zm5.19-31.11V37.62h4.52v4.63Zm0,31.11V68.73h4.52v4.63Zm5.18-31.11V37.62h4.53v4.63Zm0,31.11V68.73h4.53v4.63Zm5.19-31.11V37.62h4.52v4.63Zm0,31.11V68.73h4.52v4.63Z"/><path class="cls-2" d="M154.08,42.25V37.62h4.52v4.63Zm0,5.18V42.8h4.52v4.63Zm0,5.19V48h4.52v4.63Zm0,5.18V53.17h4.52V57.8Zm0,5.18V58.36h4.52V63Zm0,5.19V63.54h4.52v4.63Zm0,5.19V68.73h4.52v4.63Zm5.18-31.11V37.62h4.53v4.63Zm0,5.18V42.8h4.53v4.63Zm0,5.19V48h4.53v4.63Zm0,5.18V53.17h4.53V57.8Zm0,5.18V58.36h4.53V63Zm0,5.19V63.54h4.53v4.63Zm0,5.19V68.73h4.53v4.63Zm5.19-31.11V37.62H169v4.63Zm0,20.73V58.36H169V63Zm0,5.19V63.54H169v4.63Zm5.18-25.92V37.62h4.53v4.63Zm0,5.18V42.8h4.53v4.63Zm0,5.19V48h4.53v4.63Zm0,5.18V53.17h4.53V57.8Zm0,5.18V58.36h4.53V63Zm0,5.19V63.54h4.53v4.63Zm0,5.19V68.73h4.53v4.63Zm5.19-25.93V42.8h4.52v4.63Zm0,5.19V48h4.52v4.63Zm0,5.18V53.17h4.52V57.8Zm0,15.56V68.73h4.52v4.63Z"/><path class="cls-2" d="M186.64,42.25V37.62h4.53v4.63Zm0,5.18V42.8h4.53v4.63Zm0,5.19V48h4.53v4.63Zm0,5.18V53.17h4.53V57.8Zm0,5.18V58.36h4.53V63Zm0,5.19V63.54h4.53v4.63Zm5.19-25.92V37.62h4.52v4.63Zm0,5.18V42.8h4.52v4.63Zm0,5.19V48h4.52v4.63Zm0,5.18V53.17h4.52V57.8Zm0,5.18V58.36h4.52V63Zm0,5.19V63.54h4.52v4.63Zm0,5.19V68.73h4.52v4.63Zm5.18,0V68.73h4.53v4.63Zm5.19-31.11V37.62h4.52v4.63Zm0,5.18V42.8h4.52v4.63Zm0,5.19V48h4.52v4.63Zm0,5.18V53.17h4.52V57.8Zm0,5.18V58.36h4.52V63Zm0,5.19V63.54h4.52v4.63Zm0,5.19V68.73h4.52v4.63Zm5.18-31.11V37.62h4.53v4.63Zm0,5.18V42.8h4.53v4.63Zm0,5.19V48h4.53v4.63Zm0,5.18V53.17h4.53V57.8Zm0,5.18V58.36h4.53V63Zm0,5.19V63.54h4.53v4.63Z"/><path class="cls-2" d="M219.67,42.25V37.62h4.52v4.63Zm0,5.18V42.8h4.52v4.63Zm0,5.19V48h4.52v4.63Zm0,5.18V53.17h4.52V57.8Zm0,5.18V58.36h4.52V63Zm0,5.19V63.54h4.52v4.63Zm0,5.19V68.73h4.52v4.63Zm5.18-25.93V42.8h4.53v4.63Zm0,5.19V48h4.53v4.63Zm0,5.18V53.17h4.53V57.8Zm0,5.18V58.36h4.53V63Zm0,5.19V63.54h4.53v4.63Zm0,5.19V68.73h4.53v4.63ZM230,52.62V48h4.52v4.63Zm0,5.18V53.17h4.52V57.8Zm5.18,0V53.17h4.53V57.8Zm0,5.18V58.36h4.53V63Zm5.19-10.36V48h4.52v4.63Zm0,5.18V53.17h4.52V57.8Zm5.18-10.37V42.8h4.53v4.63Zm0,5.19V48h4.53v4.63Zm0,5.18V53.17h4.53V57.8Zm0,5.18V58.36h4.53V63Zm0,5.19V63.54h4.53v4.63Zm0,5.19V68.73h4.53v4.63Zm5.18-31.11V37.62h4.53v4.63Zm0,5.18V42.8h4.53v4.63Zm0,5.19V48h4.53v4.63Zm0,5.18V53.17h4.53V57.8Zm0,5.18V58.36h4.53V63Zm0,5.19V63.54h4.53v4.63Zm0,5.19V68.73h4.53v4.63Z"/><path class="cls-2" d="M96,84.42V79.8h4.52v4.62Zm0,5.19V85h4.52v4.63Zm0,5.18V90.17h4.52v4.62ZM96,100V95.35h4.52V100Zm0,5.18v-4.62h4.52v4.62Zm0,5.19v-4.63h4.52v4.63Zm0,5.18v-4.62h4.52v4.62Zm5.18-31.11V79.8h4.53v4.62Zm0,5.19V85h4.53v4.63Zm0,5.18V90.17h4.53v4.62Zm0,5.19V95.35h4.53V100Zm0,5.18v-4.62h4.53v4.62Zm0,5.19v-4.63h4.53v4.63Zm0,5.18v-4.62h4.53v4.62Zm5.19-31.11V79.8h4.52v4.62Zm0,10.37V90.17h4.52v4.62Zm0,20.74v-4.62h4.52v4.62Zm5.18-31.11V79.8h4.53v4.62Zm0,5.19V85h4.53v4.63Zm0,5.18V90.17h4.53v4.62Zm0,5.19V95.35h4.53V100Zm0,5.18v-4.62h4.53v4.62Zm0,5.19v-4.63h4.53v4.63Zm0,5.18v-4.62h4.53v4.62Zm5.19-25.92V85h4.52v4.63Zm0,10.37V95.35h4.52V100Zm0,5.18v-4.62h4.52v4.62Zm0,5.19v-4.63h4.52v4.63Z"/><path class="cls-2" d="M128.63,89.61V85h4.53v4.63Zm0,5.18V90.17h4.53v4.62Zm0,5.19V95.35h4.53V100Zm0,5.18v-4.62h4.53v4.62Zm0,5.19v-4.63h4.53v4.63Zm0,5.18v-4.62h4.53v4.62Zm5.19-31.11V79.8h4.52v4.62Zm0,5.19V85h4.52v4.63Zm0,5.18V90.17h4.52v4.62Zm0,5.19V95.35h4.52V100Zm0,5.18v-4.62h4.52v4.62Zm0,5.19v-4.63h4.52v4.63Zm0,5.18v-4.62h4.52v4.62ZM139,84.42V79.8h4.53v4.62Zm0,20.74v-4.62h4.53v4.62Zm5.19-20.74V79.8h4.52v4.62Zm0,5.19V85h4.52v4.63Zm0,5.18V90.17h4.52v4.62Zm0,5.19V95.35h4.52V100Zm0,5.18v-4.62h4.52v4.62Zm0,5.19v-4.63h4.52v4.63Zm0,5.18v-4.62h4.52v4.62Zm5.18-25.92V85h4.53v4.63Zm0,5.18V90.17h4.53v4.62Zm0,5.19V95.35h4.53V100Zm0,5.18v-4.62h4.53v4.62Zm0,5.19v-4.63h4.53v4.63Zm0,5.18v-4.62h4.53v4.62Z"/><path class="cls-2" d="M162,84.42V79.8h4.52v4.62Zm0,5.19V85h4.52v4.63Zm0,5.18V90.17h4.52v4.62Zm0,5.19V95.35h4.52V100Zm0,5.18v-4.62h4.52v4.62Zm0,5.19v-4.63h4.52v4.63Zm0,5.18v-4.62h4.52v4.62Zm5.18-25.92V85h4.53v4.63Zm0,5.18V90.17h4.53v4.62Zm0,5.19V95.35h4.53V100Zm0,5.18v-4.62h4.53v4.62Zm0,5.19v-4.63h4.53v4.63Zm0,5.18v-4.62h4.53v4.62Zm5.19-20.74V90.17h4.52v4.62Zm0,5.19V95.35h4.52V100Zm5.18,0V95.35H182V100Zm0,5.18v-4.62H182v4.62Zm5.19-20.74V79.8h4.52v4.62Zm0,5.19V85h4.52v4.63Zm0,5.18V90.17h4.52v4.62Zm0,5.19V95.35h4.52V100Zm0,5.18v-4.62h4.52v4.62Zm0,5.19v-4.63h4.52v4.63Zm5.18-25.93V79.8h4.53v4.62Zm0,5.19V85h4.53v4.63Zm0,5.18V90.17h4.53v4.62Zm0,5.19V95.35h4.53V100Zm0,5.18v-4.62h4.53v4.62Zm0,5.19v-4.63h4.53v4.63Zm0,5.18v-4.62h4.53v4.62Z"/></svg>