<svg id="Слой_1" data-name="Слой 1" xmlns="http://www.w3.org/2000/svg" viewBox="0 0 50 50"><defs><style>.cls-1{fill:#fff;}</style></defs><path class="cls-1" d="M30.72,22.74a.59.59,0,0,0-.1.17l.13,0a.34.34,0,0,1,.09-.14h0l-.11-.08Z"/><path class="cls-1" d="M30.59,23.15l.14,0a.35.35,0,0,1,0-.17l-.14,0A.5.5,0,0,0,30.59,23.15Z"/><path class="cls-1" d="M30.8,23.31a.44.44,0,0,1-.06-.16l-.15,0a.7.7,0,0,0,.08.2Z"/><path class="cls-1" d="M30.93,22.6l.07.11a.34.34,0,0,1,.14,0l0-.13A.57.57,0,0,0,30.93,22.6Z"/><path class="cls-1" d="M30.84,23.55l.09-.11a.34.34,0,0,1-.12-.12l-.12.08A.54.54,0,0,0,30.84,23.55Z"/><path class="cls-1" d="M30.74,22.72l.11.08a.29.29,0,0,1,.14-.08l-.08-.11A.45.45,0,0,0,30.74,22.72Z"/><path class="cls-1" d="M31.16,22.7l.12,0,0-.13-.17,0Z"/><path class="cls-1" d="M31.44,22.91s0,.06,0,.09l.11,0a.5.5,0,0,0,0-.13Z"/><path class="cls-1" d="M31.46,23v.08h.12V23Z"/><path class="cls-1" d="M31.31,22.62l0,.13a.24.24,0,0,1,.08.06l.07-.1-.09-.07Z"/><path class="cls-1" d="M31.38,22.82a.35.35,0,0,1,.05.08l.1-.07a.83.83,0,0,0-.08-.12Z"/><path class="cls-1" d="M31.7,23.33l-.14-.08a.44.44,0,0,1-.08.11l.1.12A.44.44,0,0,0,31.7,23.33Z"/><path class="cls-1" d="M31.77,23.14l-.16,0a.5.5,0,0,1,0,.13l.14.08A.64.64,0,0,0,31.77,23.14Z"/><path class="cls-1" d="M31,23.42l.06-.09a.2.2,0,0,1-.09-.07l-.09,0A.43.43,0,0,0,31,23.42Z"/><path class="cls-1" d="M31.26,22.87a.12.12,0,0,1,0,.05l.05-.08a.18.18,0,0,0-.08-.07Z"/><path class="cls-1" d="M31.32,22.92l0,0,.07,0a.3.3,0,0,0,0-.08Z"/><path class="cls-1" d="M31.18,22.82l.08,0v-.1l-.11,0Z"/><path class="cls-1" d="M31,22.74l.05.08a.17.17,0,0,1,.1,0l0-.1A.3.3,0,0,0,31,22.74Z"/><path class="cls-1" d="M31.44,23.59l.13-.09-.1-.13-.11.08.05.15Z"/><path class="cls-1" d="M31.57,23.11l-.12,0a.19.19,0,0,1,0,.08l.1.06A.56.56,0,0,0,31.57,23.11Z"/><path class="cls-1" d="M31.36,23v0h.08V23Z"/><path class="cls-1" d="M31.34,23s0,0,0,0l.07,0a.19.19,0,0,0,0-.07Z"/><path class="cls-1" d="M31.2,23.36a.25.25,0,0,1-.17,0l-.07.09a.45.45,0,0,0,.23,0Z"/><path class="cls-1" d="M30.88,22.81l.08.06a.12.12,0,0,1,.1-.05l0-.08A.4.4,0,0,0,30.88,22.81Z"/><path class="cls-1" d="M31.19,23.5a.42.42,0,0,1-.16,0l-.09,0-.08.12a.56.56,0,0,0,.31.09Z"/><path class="cls-1" d="M31.35,23.46a.42.42,0,0,1-.15,0v.16a.65.65,0,0,0,.2-.05Z"/><path class="cls-1" d="M30.76,23.13l.1,0a.25.25,0,0,1,0-.12l-.1,0A.43.43,0,0,0,30.76,23.13Z"/><path class="cls-1" d="M30.82,23.3l.09-.05a.31.31,0,0,1-.05-.12h-.1a.43.43,0,0,0,0,.05A.54.54,0,0,0,30.82,23.3Z"/><path class="cls-1" d="M31.12,22.53a.34.34,0,0,1,.18,0l0-.17a1,1,0,0,0-.24,0Z"/><path class="cls-1" d="M32.45,23.35a.52.52,0,0,0,0-.11l-.32,0v0a.86.86,0,0,1-.11.28l.29.15A1.48,1.48,0,0,0,32.45,23.35Z"/><path class="cls-1" d="M31.83,22.91v0a.67.67,0,0,1,0,.2l.23,0a.71.71,0,0,0,0-.29Z"/><path class="cls-1" d="M31.76,22.68a1.72,1.72,0,0,1,.07.21l.22-.06a.85.85,0,0,0-.1-.28Z"/><path class="cls-1" d="M32,24l-.19-.24a1.51,1.51,0,0,1-.28.15l.1.29A1.11,1.11,0,0,0,32,24Z"/><path class="cls-1" d="M32.31,23.68,32,23.52a1.21,1.21,0,0,1-.21.24L32,24A1.47,1.47,0,0,0,32.31,23.68Z"/><path class="cls-1" d="M31.49,24a1.13,1.13,0,0,1-.32.05l0,.31a1.25,1.25,0,0,0,.43-.07Z"/><path class="cls-1" d="M31.6,22.48a.65.65,0,0,1,.15.18l.18-.14a.91.91,0,0,0-.2-.24Z"/><path class="cls-1" d="M30.05,22.78l.27.06a.72.72,0,0,1,.15-.27l-.22-.15A1,1,0,0,0,30.05,22.78Z"/><path class="cls-1" d="M30.27,22.39l.23.15,0,0a.69.69,0,0,1,.22-.16l-.15-.22A1.11,1.11,0,0,0,30.27,22.39Z"/><path class="cls-1" d="M31.15,23.92l0-.21h-.12a.65.65,0,0,1-.23-.09l-.12.17.15.08A.8.8,0,0,0,31.15,23.92Z"/><path class="cls-1" d="M30,23.24l.27,0a.85.85,0,0,1,0-.32L30,22.82A1,1,0,0,0,30,23.24Z"/><path class="cls-1" d="M31.37,22.34a.88.88,0,0,1,.21.12l.12-.21a.66.66,0,0,0-.29-.17Z"/><path class="cls-1" d="M30.62,22.12l.15.23a.67.67,0,0,1,.28-.06L31,22A1,1,0,0,0,30.62,22.12Z"/><path class="cls-1" d="M31,22l0,.25a.75.75,0,0,1,.26,0l0-.26-.13,0Z"/><path class="cls-1" d="M32.05,23.2v0l-.23,0a.44.44,0,0,1-.07.19l.21.11A.75.75,0,0,0,32.05,23.2Z"/><path class="cls-1" d="M31.32,22.58a.42.42,0,0,1,.14.09l.09-.15a.67.67,0,0,0-.2-.12Z"/><path class="cls-1" d="M31.77,22.93l-.16,0s0,.05,0,.07,0,0,0,.06l.16,0a.6.6,0,0,0,0-.19Z"/><path class="cls-1" d="M31.47,22.68a.94.94,0,0,1,.09.12l.14-.1a.75.75,0,0,0-.14-.17Z"/><path class="cls-1" d="M31.57,22.82a.33.33,0,0,1,0,.13l.16,0a.6.6,0,0,0-.06-.19Z"/><path class="cls-1" d="M31.41,23.66a.59.59,0,0,1-.22.05v.21a1,1,0,0,0,.29-.05Z"/><path class="cls-1" d="M31.74,23.71l-.14-.17a.66.66,0,0,1-.17.12l.06.2A1,1,0,0,0,31.74,23.71Z"/><path class="cls-1" d="M30.68,23.76l.13-.16a.55.55,0,0,1-.17-.17l-.17.11A.88.88,0,0,0,30.68,23.76Z"/><path class="cls-1" d="M32,23.48l-.2-.12a.7.7,0,0,1-.13.16l.14.18A1,1,0,0,0,32,23.48Z"/><path class="cls-1" d="M31.53,23.24l-.1-.06a.16.16,0,0,1,0,.07l.07.09A.36.36,0,0,0,31.53,23.24Z"/><path class="cls-1" d="M30.35,23.19l.2,0a.58.58,0,0,1,0-.23l-.19,0A.77.77,0,0,0,30.35,23.19Z"/><path class="cls-1" d="M30.63,23.41a.63.63,0,0,1-.08-.23l-.19,0a.77.77,0,0,0,.1.29Z"/><path class="cls-1" d="M30.38,22.86l.19,0a.62.62,0,0,1,.12-.19l-.15-.11A.87.87,0,0,0,30.38,22.86Z"/><path class="cls-1" d="M30.57,22.57h0l.15.11a.76.76,0,0,1,.19-.12l-.11-.15A.51.51,0,0,0,30.57,22.57Z"/><path class="cls-1" d="M30.8,22.41l.11.15.15,0h0l0-.18A.62.62,0,0,0,30.8,22.41Z"/><path class="cls-1" d="M31,23a.09.09,0,0,0,0,.07h.1v0Z"/><path class="cls-1" d="M8.93,27.1a23.46,23.46,0,0,0,2.34,7.54L16,31.92a17.45,17.45,0,0,1-1.75-5.78Z"/><path class="cls-1" d="M19.75,20.71,16.21,20a.31.31,0,0,0,0,.08,15.7,15.7,0,0,0-.41,5.24l3.65-.53a11.56,11.56,0,0,1,.16-3.37C19.63,21.17,19.69,20.94,19.75,20.71Z"/><path class="cls-1" d="M20.69,29.17a12.29,12.29,0,0,1-1-2.64,10.17,10.17,0,0,1-.24-1.34l-3.64.66a16.11,16.11,0,0,0,1.61,5.21Z"/><path class="cls-1" d="M31.23,23.19h0v0l.05,0v0Z"/><path class="cls-1" d="M31.32,23.15h0Z"/><path class="cls-1" d="M31.45,23.34l-.07-.08a.18.18,0,0,1-.07,0l0,.11Z"/><path class="cls-1" d="M31.12,22.9l0,.05h0v0Z"/><path class="cls-1" d="M31.27,23.18v0l0,0h0Z"/><path class="cls-1" d="M31.21,22.94h0l0,0Z"/><path class="cls-1" d="M31.2,22.91l0,0h0v-.07s-.05,0-.08,0Z"/><path class="cls-1" d="M31.25,22.94l0,0,0,0a.12.12,0,0,0,0-.05Z"/><path class="cls-1" d="M31.08,22.83l0,.06.07,0v-.07A.18.18,0,0,0,31.08,22.83Z"/><path class="cls-1" d="M31.33,23l0,0s0,0,0-.05Z"/><path class="cls-1" d="M31.44,23.09h-.09a.06.06,0,0,1,0,0l.08,0A.64.64,0,0,0,31.44,23.09Z"/><path class="cls-1" d="M31,22.88l.06,0,.08,0,0-.07Z"/><path class="cls-1" d="M31.29,23l0,0h0a.08.08,0,0,0,0-.05Z"/><path class="cls-1" d="M31,23.2a.41.41,0,0,1,0-.09h-.06a.31.31,0,0,0,.05.12Z"/><path class="cls-1" d="M30.89,23,31,23s0,0,0,0a.12.12,0,0,1,.05,0l-.06,0A.23.23,0,0,0,30.89,23Z"/><path class="cls-1" d="M31.2,23.34v-.08h-.12l-.05.07A.29.29,0,0,0,31.2,23.34Z"/><path class="cls-1" d="M31.3,23.32l-.09,0v.11l.13,0Z"/><path class="cls-1" d="M31,23.32l0-.06L31,23.21l-.07,0A.25.25,0,0,0,31,23.32Z"/><path class="cls-1" d="M31.41,23.17l-.07,0a.08.08,0,0,1,0,0l.05.06Z"/><path class="cls-1" d="M30.88,23a.24.24,0,0,0,0,.12h.06A.28.28,0,0,1,31,23l-.07,0Z"/><path class="cls-1" d="M31,23a0,0,0,0,0,0,0h0l.06-.05-.05,0S31,23,31,23Z"/><path class="cls-1" d="M31.2,23.18l-.05,0,0,0h0Z"/><path class="cls-1" d="M31,22.92l0,0a.09.09,0,0,1,.07,0l0-.05Z"/><path class="cls-1" d="M31.12,23.2l0,0,0,0-.06,0Z"/><path class="cls-1" d="M31.08,23l.05,0,0,0h-.08Z"/><path class="cls-1" d="M31.12,23l-.05,0A.12.12,0,0,0,31,23l.09,0S31.12,23,31.12,23Z"/><path class="cls-1" d="M31.17,23h0Z"/><path class="cls-1" d="M30.39,23.55a.94.94,0,0,1-.11-.32l-.27.05a1.1,1.1,0,0,0,.13.41Z"/><path class="cls-1" d="M31.05,23.17l.07-.05s0,0,0,0l-.09,0h0v0Z"/><path class="cls-1" d="M31.21,23.24v-.06h0a.11.11,0,0,1-.08,0l0,.05A.17.17,0,0,0,31.21,23.24Z"/><path class="cls-1" d="M31.12,23.2a.09.09,0,0,1-.07,0l0,0a.18.18,0,0,0,.07.05Z"/><path class="cls-1" d="M31.28,23.22l-.06,0v.08a.2.2,0,0,0,.08,0Z"/><path class="cls-1" d="M31,23.1H31A.09.09,0,0,1,31,23h0A.15.15,0,0,0,31,23.1Z"/><path class="cls-1" d="M31.37,23.24l-.05-.06h0l0,0,0,.08Z"/><path class="cls-1" d="M31.05,23.17l0,0v0s0,0,0,0H31a.12.12,0,0,0,0,.08Z"/><path class="cls-1" d="M30.78,23l.1,0a.17.17,0,0,1,.06-.1l-.08-.06A.35.35,0,0,0,30.78,23Z"/><path class="cls-1" d="M32.59,15.93a7.09,7.09,0,0,1,2.25,1L36,15.05A9.54,9.54,0,0,0,33,13.69Z"/><path class="cls-1" d="M29.36,13.48l.44,2.27a7.47,7.47,0,0,1,2.54.12l.35-2.25A9.1,9.1,0,0,0,29.36,13.48Z"/><path class="cls-1" d="M25.79,14.65l1.29,2a7.38,7.38,0,0,1,2.47-.84L29,13.53A9.75,9.75,0,0,0,25.79,14.65Z"/><path class="cls-1" d="M22.83,17.11l2,1.4a7.3,7.3,0,0,1,1.59-1.45,4.53,4.53,0,0,1,.46-.3l-1.36-2A10.46,10.46,0,0,0,22.83,17.11Z"/><path class="cls-1" d="M21,20.59l2.42.58a8,8,0,0,1,1.27-2.45l-2-1.33A9.67,9.67,0,0,0,21,20.59Z"/><path class="cls-1" d="M24.29,31.92l1.64-2.1a8.62,8.62,0,0,1-1.84-2.28l-2.2,1.37A11.3,11.3,0,0,0,24.29,31.92Z"/><path class="cls-1" d="M20.7,21.63a10.69,10.69,0,0,0-.14,3l2.51-.36a8,8,0,0,1,.23-2.82l-2.45-.5A5.67,5.67,0,0,0,20.7,21.63Z"/><path class="cls-1" d="M21.18,35.89l2.37-3a12.39,12.39,0,0,1-2.66-3.32l-3.19,2A16.59,16.59,0,0,0,21.18,35.89Z"/><path class="cls-1" d="M30.15,34.61l.25-2.73A8.5,8.5,0,0,1,26.15,30l-1.56,2.15a11.06,11.06,0,0,0,5.56,2.44Z"/><path class="cls-1" d="M32.16,18.16a5,5,0,0,1,1.55.72l.78-1.32a6.47,6.47,0,0,0-2-.94Z"/><path class="cls-1" d="M29.94,16.46,30.25,18a5.09,5.09,0,0,1,1.74.09l.24-1.55A6.3,6.3,0,0,0,29.94,16.46Z"/><path class="cls-1" d="M29.67,16.5a6.77,6.77,0,0,0-2.19.75l.88,1.37a5.45,5.45,0,0,1,1.71-.56l-.36-1.57Z"/><path class="cls-1" d="M25.43,19l1.36,1a5.13,5.13,0,0,1,1.42-1.2l-.93-1.34A7,7,0,0,0,25.43,19Z"/><path class="cls-1" d="M30.66,29.12a5.7,5.7,0,0,1-2.94-1.25l-1.09,1.48A7.58,7.58,0,0,0,30.49,31Z"/><path class="cls-1" d="M26.44,29.18l1.12-1.44a6.25,6.25,0,0,1-.62-.64,5.43,5.43,0,0,1-.65-.94l-1.52.95a7.55,7.55,0,0,0,1.08,1.49A6.45,6.45,0,0,0,26.44,29.18Z"/><path class="cls-1" d="M23.86,24.14l1.73-.26a5.29,5.29,0,0,1,.15-1.94l-1.69-.34A7.23,7.23,0,0,0,23.86,24.14Z"/><path class="cls-1" d="M24.12,21.35l1.67.41a4.79,4.79,0,0,1,.47-1.09,5,5,0,0,1,.41-.61l-1.4-.92A6.86,6.86,0,0,0,24.12,21.35Z"/><path class="cls-1" d="M20.61,25a11.1,11.1,0,0,0,1.11,3.59L24,27.28a8.3,8.3,0,0,1-.85-2.75Z"/><path class="cls-1" d="M26.19,26a5.91,5.91,0,0,1-.58-1.9l-1.72.32a7.76,7.76,0,0,0,.76,2.48Z"/><path class="cls-1" d="M33.21,12.67a10.09,10.09,0,0,1,3.28,1.51l1.64-2.77a13.49,13.49,0,0,0-4.31-2Z"/><path class="cls-1" d="M13.59,10.56l4.16,2.95A15.57,15.57,0,0,1,22,9.82l-2.85-4.1A21.55,21.55,0,0,0,13.59,10.56Z"/><path class="cls-1" d="M36.34,8.73a14.71,14.71,0,0,1,2.54,1.42l2.38-4A19.28,19.28,0,0,0,35,3.27L34.1,8A14.77,14.77,0,0,1,36.34,8.73Z"/><path class="cls-1" d="M27.69,7.74,26.59,3a21.9,21.9,0,0,0-4.75,1.38c-.7.3-1.38.63-2.05,1L22.5,9.55A16.53,16.53,0,0,1,27.69,7.74Z"/><path class="cls-1" d="M33.67,7.8l.69-4.73a21.18,21.18,0,0,0-4.83-.43,20.75,20.75,0,0,0-2.22.18l1,4.78A16.48,16.48,0,0,1,33.67,7.8Z"/><path class="cls-1" d="M28.52,9.15l.64,3.3a10.71,10.71,0,0,1,3.7.14l.5-3.26A13.82,13.82,0,0,0,28.52,9.15Z"/><path class="cls-1" d="M23.36,10.88l1.85,2.87a11.46,11.46,0,0,1,3.58-1.24L28,9.23A14.8,14.8,0,0,0,23.36,10.88Z"/><path class="cls-1" d="M19.05,14.43l2.87,2a11.2,11.2,0,0,1,3-2.52l-2-2.82A15.17,15.17,0,0,0,19.05,14.43Z"/><path class="cls-1" d="M16.51,32.94l-.27-.48-4.6,2.89a24,24,0,0,0,5,6.34l3.44-4.4A18.27,18.27,0,0,1,16.51,32.94Z"/><path class="cls-1" d="M23.87,33.15l-2.26,3.11a16.17,16.17,0,0,0,8.05,3.57l.37-4A12.49,12.49,0,0,1,23.87,33.15Z"/><path class="cls-1" d="M17.26,42.22a22.14,22.14,0,0,0,3.93,2.64A19.74,19.74,0,0,0,29,47.37l.54-5.75a17.86,17.86,0,0,1-8.94-3.92Z"/><path class="cls-1" d="M9.67,17.88l5.09,1.22A15.71,15.71,0,0,1,17.39,14l-4.26-2.81A21.35,21.35,0,0,0,9.67,17.88Z"/><path class="cls-1" d="M16.35,19.49l3.51.84a10.92,10.92,0,0,1,1.82-3.56l-2.95-1.94A14.29,14.29,0,0,0,16.35,19.49Z"/><path class="cls-1" d="M8.83,22.3a21.7,21.7,0,0,0,0,4l5.28-.77a17.18,17.18,0,0,1,.48-5.89L9.46,18.61A21.09,21.09,0,0,0,8.83,22.3Z"/><path class="cls-1" d="M34.67,25l-.85-.48a3.07,3.07,0,0,1-.68.76l.6.72A4,4,0,0,0,34.67,25Z"/><path class="cls-1" d="M32.61,22.72a1.35,1.35,0,0,1,0,.49l.47.05a1.78,1.78,0,0,0,0-.65Z"/><path class="cls-1" d="M32.42,22.21a1.66,1.66,0,0,1,.15.33l0,.13.47-.13a2,2,0,0,0-.24-.62Z"/><path class="cls-1" d="M34,23.45l-.67-.1A2,2,0,0,1,33,24l.59.3A2.49,2.49,0,0,0,34,23.45Z"/><path class="cls-1" d="M31.53,21.49a1.57,1.57,0,0,1,.48.25l.26-.44a2.34,2.34,0,0,0-.65-.33Z"/><path class="cls-1" d="M32.33,21.34l-.28.43a1.44,1.44,0,0,1,.35.39l.39-.3A2.07,2.07,0,0,0,32.33,21.34Z"/><path class="cls-1" d="M32,25.59,31.79,25a2,2,0,0,1-.68.07l0,.63A2.79,2.79,0,0,0,32,25.59Z"/><path class="cls-1" d="M32.88,25.15l-.41-.51a2.53,2.53,0,0,1-.61.32l.2.6A2.87,2.87,0,0,0,32.88,25.15Z"/><path class="cls-1" d="M33.44,24.6a2.14,2.14,0,0,0,.13-.19L33,24.08a2,2,0,0,1-.46.51l.42.51A2.58,2.58,0,0,0,33.44,24.6Z"/><path class="cls-1" d="M29.63,25.1l.38-.48a1.69,1.69,0,0,1-.44-.52l-.5.31A2.5,2.5,0,0,0,29.63,25.1Z"/><path class="cls-1" d="M31.06,24.86l0-.43a1.29,1.29,0,0,1-.68-.26l-.25.35.27.17A1.74,1.74,0,0,0,31.06,24.86Z"/><path class="cls-1" d="M29.54,24a2,2,0,0,1-.2-.64l-.57.11a2.44,2.44,0,0,0,.26.83Z"/><path class="cls-1" d="M28.76,23.42l.57-.08a1.64,1.64,0,0,1,.05-.66l-.56-.11A2.44,2.44,0,0,0,28.76,23.42Z"/><path class="cls-1" d="M31,25.67l.06-.62a2,2,0,0,1-.68-.2,2.49,2.49,0,0,1-.3-.19l-.36.49a2.69,2.69,0,0,0,1,.47Z"/><path class="cls-1" d="M29.28,21.68l.46.33.05-.07a1.66,1.66,0,0,1,.43-.32l-.31-.44A2.53,2.53,0,0,0,29.28,21.68Z"/><path class="cls-1" d="M30.31,21l-.32.14.29.45a1.88,1.88,0,0,1,.57-.17l-.12-.52A2.13,2.13,0,0,0,30.31,21Z"/><path class="cls-1" d="M30.8,20.89l.11.53a1.51,1.51,0,0,1,.56,0l.08-.52A2.33,2.33,0,0,0,30.8,20.89Z"/><path class="cls-1" d="M28.84,22.49l.56.13a1.45,1.45,0,0,1,.3-.56l-.47-.31A2.5,2.5,0,0,0,28.84,22.49Z"/><path class="cls-1" d="M29.56,22.66l.38.09a1.16,1.16,0,0,1,.22-.39l-.32-.22A1.55,1.55,0,0,0,29.56,22.66Z"/><path class="cls-1" d="M33,23.62c0-.1.06-.2.08-.3l-.47-.06a1.49,1.49,0,0,1-.17.44l.42.22A2.09,2.09,0,0,0,33,23.62Z"/><path class="cls-1" d="M30.12,24.48l.26-.34a1.2,1.2,0,0,1-.32-.35l-.34.22A1.64,1.64,0,0,0,30.12,24.48Z"/><path class="cls-1" d="M32.83,24l-.41-.24a1.85,1.85,0,0,1-.31.37l.29.34A1.93,1.93,0,0,0,32.83,24Z"/><path class="cls-1" d="M32,22.49a1.15,1.15,0,0,1,.11.31l.33-.09a1.54,1.54,0,0,0-.17-.42Z"/><path class="cls-1" d="M31.11,24.31l0-.31a.84.84,0,0,1-.48-.16l-.17.24.09.06A1.11,1.11,0,0,0,31.11,24.31Z"/><path class="cls-1" d="M32,21.89l-.2.3a1.18,1.18,0,0,1,.23.27l.27-.21A1.69,1.69,0,0,0,32,21.89Z"/><path class="cls-1" d="M32.35,24.48l-.28-.35a1.5,1.5,0,0,1-.41.23l.14.41A1.71,1.71,0,0,0,32.35,24.48Z"/><path class="cls-1" d="M31.74,24.79l-.12-.42a1.31,1.31,0,0,1-.27.06h-.2l0,.43A1.82,1.82,0,0,0,31.74,24.79Z"/><path class="cls-1" d="M32.15,22.84a.86.86,0,0,1,0,.32l.33,0a1.3,1.3,0,0,0,0-.44Z"/><path class="cls-1" d="M29.54,22.73a1.43,1.43,0,0,0-.05.58l.4,0a1.18,1.18,0,0,1,0-.46l-.39-.08Z"/><path class="cls-1" d="M32.32,26.74l-.27-.89-.16,0a3.31,3.31,0,0,1-.83.05l-.06.91A3.9,3.9,0,0,0,32.32,26.74Z"/><path class="cls-1" d="M30,23.75,30,23.6a.94.94,0,0,1-.07-.3l-.4.07a1.65,1.65,0,0,0,.19.58Z"/><path class="cls-1" d="M31.43,22a1.06,1.06,0,0,1,.33.18l.17-.31a1.45,1.45,0,0,0-.44-.24Z"/><path class="cls-1" d="M29.87,22.1l.32.22a1.12,1.12,0,0,1,.26-.22l.08,0-.21-.31A1.7,1.7,0,0,0,29.87,22.1Z"/><path class="cls-1" d="M30.94,21.57l.07.36a1,1,0,0,1,.39.05l.05-.37-.12,0A1,1,0,0,0,30.94,21.57Z"/><path class="cls-1" d="M30.37,21.73l.2.31a1.08,1.08,0,0,1,.4-.11l-.09-.36A1.32,1.32,0,0,0,30.37,21.73Z"/><path class="cls-1" d="M27.91,27.29l.79-1a3.77,3.77,0,0,1-.89-1.09l-1,.66A5.45,5.45,0,0,0,27.91,27.29Z"/><path class="cls-1" d="M31.87,19.7a3.18,3.18,0,0,1,1.05.5l.54-.91a4,4,0,0,0-1.39-.66Z"/><path class="cls-1" d="M33.58,19.38l-.57.89a3.38,3.38,0,0,1,.77.83l.8-.62A4.56,4.56,0,0,0,33.58,19.38Z"/><path class="cls-1" d="M28.64,19.05l.61.95a3.57,3.57,0,0,1,1.18-.39l-.25-1.08A4.68,4.68,0,0,0,28.64,19.05Z"/><path class="cls-1" d="M30.34,18.51l.21,1.09a2.68,2.68,0,0,1,.8,0,2.57,2.57,0,0,1,.4.07l.17-1.07A4.66,4.66,0,0,0,30.34,18.51Z"/><path class="cls-1" d="M33.64,26.11l-.58-.74a3,3,0,0,1-.91.45l.29.89A4.35,4.35,0,0,0,33.64,26.11Z"/><path class="cls-1" d="M33.84,21.19a3.65,3.65,0,0,1,.25.53,3,3,0,0,1,.14.49l1-.27a4.36,4.36,0,0,0-.55-1.34Z"/><path class="cls-1" d="M34.26,22.32a3.2,3.2,0,0,1,0,1.07l1,.1a1.1,1.1,0,0,0,0-.18,4.23,4.23,0,0,0,0-1.23Z"/><path class="cls-1" d="M30.72,28.55l.12-1.31a3.86,3.86,0,0,1-1.58-.54,3.46,3.46,0,0,1-.46-.32l-.75,1a5,5,0,0,0,1.89,1A6.33,6.33,0,0,0,30.72,28.55Z"/><path class="cls-1" d="M27.21,20.21l.94.67a3.9,3.9,0,0,1,1-.82l-.64-.93A5,5,0,0,0,27.21,20.21Z"/><path class="cls-1" d="M33.53,30.83,33,29a6.24,6.24,0,0,1-2.11.15L30.76,31A8.08,8.08,0,0,0,33.53,30.83Z"/><path class="cls-1" d="M27.74,25.08a4,4,0,0,1-.41-1.31L26.14,24a5.23,5.23,0,0,0,.54,1.72Z"/><path class="cls-1" d="M26.72,20.93a4.2,4.2,0,0,0-.41.95l1.15.28A3.68,3.68,0,0,1,28.07,21l-1-.64A4.56,4.56,0,0,0,26.72,20.93Z"/><path class="cls-1" d="M26.12,23.81l1.2-.18a3.84,3.84,0,0,1,.1-1.35L26.25,22A5,5,0,0,0,26.12,23.81Z"/><path class="cls-1" d="M29.44,20.29l.42.65a2.54,2.54,0,0,1,.82-.26l-.17-.74A3.28,3.28,0,0,0,29.44,20.29Z"/><path class="cls-1" d="M32.9,20.59l-.06,0-.39.61a2.13,2.13,0,0,1,.51.57l.57-.43c-.07-.1-.14-.21-.21-.3A5.44,5.44,0,0,0,32.9,20.59Z"/><path class="cls-1" d="M33.64,21.48l-.06-.1-.58.41a2.46,2.46,0,0,1,.26.7l.68-.19a2.29,2.29,0,0,0-.07-.28A4.16,4.16,0,0,0,33.64,21.48Z"/><path class="cls-1" d="M31.81,20l-.14.74a2.19,2.19,0,0,1,.72.35l.37-.63a3.78,3.78,0,0,0-.33-.22A3.61,3.61,0,0,0,31.81,20Z"/><path class="cls-1" d="M30.45,24.05l.18-.23-.15-.14a.61.61,0,0,1-.07-.1l-.24.15A1.22,1.22,0,0,0,30.45,24.05Z"/><path class="cls-1" d="M33.28,22.56a2.85,2.85,0,0,1,0,.29,1.55,1.55,0,0,1,0,.43l.68.07a3.09,3.09,0,0,0,0-1Z"/><path class="cls-1" d="M30.62,19.93l.14.74a2.57,2.57,0,0,1,.83.07l.12-.75A2.87,2.87,0,0,0,30.62,19.93Z"/><path class="cls-1" d="M35.24,23.63l-1-.14a3.09,3.09,0,0,1-.37,1l.86.46A4,4,0,0,0,35.24,23.63Z"/><path class="cls-1" d="M31,25.94a2.88,2.88,0,0,1-1.41-.57l-.52.7a3.59,3.59,0,0,0,1.84.77Z"/><path class="cls-1" d="M28.94,26l.53-.69a2.65,2.65,0,0,1-.62-.75l-.72.45A3.67,3.67,0,0,0,28.94,26Z"/><path class="cls-1" d="M32.81,28.41l-.38-1.28a4.37,4.37,0,0,1-1.44.12l-.08,1.31A5.52,5.52,0,0,0,32.81,28.41Z"/><path class="cls-1" d="M28.8,24.47a2.73,2.73,0,0,1-.28-.92l-.83.15a3.77,3.77,0,0,0,.38,1.19Z"/><path class="cls-1" d="M27.68,23.58l.83-.12a2.7,2.7,0,0,1,.07-.94l-.8-.16A3.35,3.35,0,0,0,27.68,23.58Z"/><path class="cls-1" d="M27.81,22.24l.8.19a2.24,2.24,0,0,1,.29-.63l.14-.18-.67-.44A3.38,3.38,0,0,0,27.81,22.24Z"/><path class="cls-1" d="M28.52,21l-.08.09.65.46a2.69,2.69,0,0,1,.69-.57l-.44-.64A3.09,3.09,0,0,0,28.52,21Z"/><path class="cls-1" d="M31,23.13v0Z"/></svg>