<svg id="Слой_1" data-name="Слой 1" xmlns="http://www.w3.org/2000/svg" xmlns:xlink="http://www.w3.org/1999/xlink" viewBox="0 0 50 50"><defs><style>.cls-1{fill:#fff;}.cls-2{opacity:0.6;}.cls-3{fill:url(#Безымянный_градиент_136);}.cls-4{fill:url(#Безымянный_градиент_136-2);}.cls-5{opacity:0.3;}</style><linearGradient id="Безымянный_градиент_136" x1="15.25" y1="33.01" x2="37.37" y2="33.01" gradientUnits="userSpaceOnUse"><stop offset="0" stop-color="#45b0e5"/><stop offset="0" stop-color="#c0087d"/><stop offset="0.3" stop-color="#ce197b"/><stop offset="0.65" stop-color="#d8257a"/><stop offset="1" stop-color="#db2979"/></linearGradient><linearGradient id="Безымянный_градиент_136-2" x1="12.41" y1="15.89" x2="31.75" y2="15.89" xlink:href="#Безымянный_градиент_136"/></defs><path class="cls-1" d="M36.78,25.93a7.39,7.39,0,0,1,5.33,6.22c.07.72.24,2.65-.88,3.51-1.55,1.2-5-.28-6.71-2.51s-2.35-5.9-.84-7.1C34.57,25.34,36,25.71,36.78,25.93Z"/><path class="cls-1" d="M40.63,33v3.5c0,3.44-4,6.37-9.52,7.46a25.3,25.3,0,0,1-4.8.46C18.4,44.43,12,40.88,12,36.51V33a4.63,4.63,0,0,1,.5-2.09c1.66-3.36,7.22-5.83,13.82-5.83C34.22,25.09,40.63,28.63,40.63,33Z"/><g class="cls-2"><path class="cls-1" d="M16.61,27.18l0,0-.74.35Z"/></g><path class="cls-1" d="M41,33v3.5c0,2.24-1.55,4.33-4.36,5.89a21.72,21.72,0,0,1-10.29,2.36A21.72,21.72,0,0,1,16,42.4c-2.81-1.56-4.36-3.65-4.36-5.89V33c0-2.25,1.55-4.34,4.36-5.89a21.72,21.72,0,0,1,10.29-2.36A21.72,21.72,0,0,1,36.6,27.12m-10.29-1.7a21.12,21.12,0,0,0-10,2.27c-2.59,1.44-4,3.33-4,5.32v3.5c0,2,1.43,3.87,4,5.31a21,21,0,0,0,10,2.28,21,21,0,0,0,10-2.28c2.59-1.44,4-3.32,4-5.31V33c0-2-1.43-3.88-4-5.32A21.12,21.12,0,0,0,26.31,25.42Z"/><ellipse class="cls-1" cx="26.31" cy="33.01" rx="12.31" ry="6.81"/><path class="cls-3" d="M37.37,33a3.24,3.24,0,0,1-.87,2.08h0a7.34,7.34,0,0,1-2.09,1.63,17,17,0,0,1-8.1,1.84,19.21,19.21,0,0,1-5.89-.88h0a13.5,13.5,0,0,1-2.21-1,6.8,6.8,0,0,1-.75-.46h0A4.24,4.24,0,0,1,15.25,33c0-1.33,1.08-2.68,3-3.72a15.87,15.87,0,0,1,6.21-1.76c.62-.05,1.25-.08,1.89-.08s1.18,0,1.75.07a16,16,0,0,1,6.35,1.77C36.29,30.33,37.37,31.68,37.37,33Z"/><path class="cls-1" d="M36.5,35.09l.15.15a7.2,7.2,0,0,1-2.09,1.63l-6.15-2.74a.28.28,0,0,0-.33.08.26.26,0,0,0-.07.19.31.31,0,0,0,.11.23L29.91,36a7.23,7.23,0,0,1-5.89.36l1.13-1.75a.28.28,0,0,0-.14-.42h-.09a.3.3,0,0,0-.18.06l-4.32,3.47h0l-2-.4-.93-1,7.08-3.07a.35.35,0,0,0,.12-.53.34.34,0,0,0-.26-.12h-.09L19.2,33.91a7.44,7.44,0,0,1,3.93-4.38L25,31.31a.45.45,0,0,0,.63,0A.48.48,0,0,0,25.8,31a.58.58,0,0,0,0-.18l-1.34-3.28a5.78,5.78,0,0,1,1.89-.71,5.19,5.19,0,0,1,1.75.7l-.44,3.62a.35.35,0,0,0,.31.4h0a.36.36,0,0,0,.33-.22l.85-2.11c2.8.22,4.47,1.48,4.56,4.17l-4.33-.94a.32.32,0,0,0-.28.08.28.28,0,0,0-.1.22.31.31,0,0,0,.23.3Z"/><path class="cls-1" d="M31.11,41.66V44a25.3,25.3,0,0,1-4.8.46C18.4,44.43,12,40.88,12,36.51V33a4.63,4.63,0,0,1,.5-2.09h0C10.2,36.5,18.67,42,30,40.66A1,1,0,0,1,31.11,41.66Z"/><path class="cls-1" d="M34,8l1.94,2.91c1.91,2.87.23,7.5-3.79,11.49a25.62,25.62,0,0,1-3.74,3c-6.59,4.38-13.89,5-16.31,1.34l-1.94-2.91a4.79,4.79,0,0,1-.74-2C8.94,18.09,12.2,13,17.69,9.3,24.28,4.92,31.58,4.32,34,8Z"/><g class="cls-2"><path class="cls-1" d="M10.78,16.41l.05,0c-.15.23-.3.46-.43.7C10.52,16.9,10.64,16.66,10.78,16.41Z"/></g><path class="cls-1" d="M28.59,25.67a21.7,21.7,0,0,1-9.87,3.74c-.37,0-.74,0-1.09,0-2.67,0-4.71-.88-5.81-2.53L9.88,24c-1.24-1.87-1.11-4.47.37-7.32A21.72,21.72,0,0,1,17.51,9a21.64,21.64,0,0,1,9.87-3.73c3.21-.26,5.65.62,6.9,2.48l1.94,2.92c1.24,1.86,1.11,4.46-.38,7.32M28.47,5.9c-.34,0-.68,0-1,0a21,21,0,0,0-9.56,3.62,21.12,21.12,0,0,0-7,7.42c-1.37,2.63-1.51,5-.41,6.65l1.94,2.92c1.1,1.65,3.34,2.43,6.29,2.19a21,21,0,0,0,9.56-3.63,21,21,0,0,0,7-7.42c1.36-2.63,1.51-5,.41-6.65L33.73,8.14C32.76,6.68,30.91,5.9,28.47,5.9Z"/><ellipse class="cls-1" cx="22.08" cy="15.89" rx="12.31" ry="6.81" transform="translate(-5.11 14.9) rotate(-33.65)"/><path class="cls-4" d="M31.29,9.76A3.28,3.28,0,0,1,31.72,12h0a7.32,7.32,0,0,1-.84,2.52,17.09,17.09,0,0,1-5.72,6A19,19,0,0,1,19.76,23h0a12.14,12.14,0,0,1-2.36.43c-.31,0-.6,0-.88,0h0A4.28,4.28,0,0,1,12.87,22c-.73-1.1-.58-2.83.41-4.74a15.91,15.91,0,0,1,4.19-4.9c.49-.39,1-.76,1.53-1.12s1-.63,1.5-.9a15.92,15.92,0,0,1,6.26-2C28.9,8.13,30.55,8.66,31.29,9.76Z"/><path class="cls-1" d="M31.72,12l.21,0a7.39,7.39,0,0,1-.84,2.52l-6.64,1.12a.29.29,0,0,0-.23.25.34.34,0,0,0,0,.2.32.32,0,0,0,.23.13l2.23.12A7.24,7.24,0,0,1,22,19.93l0-2.09a.28.28,0,0,0-.35-.26l-.08,0a.29.29,0,0,0-.12.15L19.76,23h0l-1.91.8-1.33-.33L20.7,17a.33.33,0,0,0-.19-.51.34.34,0,0,0-.28,0l-.07.06-3.5,4a7.5,7.5,0,0,1,.84-5.82l2.56.43a.46.46,0,0,0,.54-.33.45.45,0,0,0-.07-.36.37.37,0,0,0-.12-.13l-2.94-2a5.92,5.92,0,0,1,1.18-1.64,5.36,5.36,0,0,1,1.85-.38l1.64,3.26a.36.36,0,0,0,.48.15l0,0a.34.34,0,0,0,.15-.36l-.46-2.23c2.46-1.37,4.54-1.25,6.1.94l-4.12,1.62a.3.3,0,0,0-.19.22.33.33,0,0,0,0,.24.29.29,0,0,0,.35.12Z"/><g class="cls-5"><path class="cls-1" d="M30.88,20.44l1.27,1.92a25.62,25.62,0,0,1-3.74,3c-6.59,4.38-13.89,5-16.31,1.34l-1.94-2.91a4.79,4.79,0,0,1-.74-2h0c1.19,5.91,11.3,5.83,20-1.59A1,1,0,0,1,30.88,20.44Z"/></g></svg>