<svg id="Слой_1" data-name="Слой 1" xmlns="http://www.w3.org/2000/svg" xmlns:xlink="http://www.w3.org/1999/xlink" viewBox="0 0 133.94 50"><defs><style>.cls-1{fill:#db2878;}.cls-2{fill:url(#Безымянный_градиент_136);}.cls-3{opacity:0.6;}.cls-4{fill:#fff;}.cls-5{fill:url(#Безымянный_градиент_136-2);}.cls-6{fill:url(#Безымянный_градиент_136-3);}.cls-7{fill:url(#Безымянный_градиент_136-4);}.cls-8{fill:url(#Безымянный_градиент_136-5);}.cls-9{opacity:0.3;}.cls-10{fill:url(#Безымянный_градиент_136-6);}</style><linearGradient id="Безымянный_градиент_136" x1="4.82" y1="32.55" x2="25.56" y2="32.55" gradientUnits="userSpaceOnUse"><stop offset="0" stop-color="#45b0e5"/><stop offset="0" stop-color="#c0087d"/><stop offset="0.3" stop-color="#ce197b"/><stop offset="0.65" stop-color="#d8257a"/><stop offset="1" stop-color="#db2979"/></linearGradient><linearGradient id="Безымянный_градиент_136-2" x1="4.58" y1="32.55" x2="25.8" y2="32.55" xlink:href="#Безымянный_градиент_136"/><linearGradient id="Безымянный_градиент_136-3" x1="4.82" y1="34.66" x2="18.67" y2="34.66" xlink:href="#Безымянный_градиент_136"/><linearGradient id="Безымянный_градиент_136-4" x1="2.93" y1="19.95" x2="22.74" y2="19.95" xlink:href="#Безымянный_градиент_136"/><linearGradient id="Безымянный_градиент_136-5" x1="2.69" y1="19.95" x2="22.98" y2="19.95" xlink:href="#Безымянный_градиент_136"/><linearGradient id="Безымянный_градиент_136-6" x1="2.96" y1="25.16" x2="19.42" y2="25.16" xlink:href="#Безымянный_градиент_136"/></defs><path class="cls-1" d="M21.94,26.78a5.35,5.35,0,0,1,3.86,4.5c.05.53.17,1.92-.64,2.55-1.12.86-3.59-.21-4.85-1.82s-1.71-4.28-.62-5.15A2.65,2.65,0,0,1,21.94,26.78Z"/><path class="cls-2" d="M25.56,31.28v2.54c0,2.49-2.87,4.61-6.89,5.4a18.43,18.43,0,0,1-3.48.33C9.47,39.55,4.82,37,4.82,33.82V31.28a3.37,3.37,0,0,1,.37-1.51c1.2-2.43,5.22-4.22,10-4.22C20.92,25.55,25.56,28.12,25.56,31.28Z"/><g class="cls-3"><path class="cls-4" d="M8.17,27.06l0,0-.54.25Z"/></g><path class="cls-5" d="M25.8,31.28v2.54c0,1.62-1.12,3.13-3.16,4.26a15.7,15.7,0,0,1-7.45,1.71,15.66,15.66,0,0,1-7.44-1.71c-2-1.13-3.17-2.64-3.17-4.26V31.28c0-1.62,1.13-3.13,3.17-4.26a15.66,15.66,0,0,1,7.44-1.71A15.7,15.7,0,0,1,22.64,27m-7.45-1.23A15.09,15.09,0,0,0,8,27.44c-1.88,1-2.92,2.4-2.92,3.84v2.54c0,1.44,1,2.8,2.92,3.84a15.09,15.09,0,0,0,7.21,1.65,15.13,15.13,0,0,0,7.22-1.65c1.88-1,2.91-2.4,2.91-3.84V31.28c0-1.44-1-2.8-2.91-3.84A15.13,15.13,0,0,0,15.19,25.79Z"/><ellipse class="cls-1" cx="15.19" cy="31.28" rx="8.91" ry="4.93"/><path class="cls-4" d="M23.2,31.28a2.35,2.35,0,0,1-.63,1.51h0A5.41,5.41,0,0,1,21.06,34a12.47,12.47,0,0,1-5.87,1.33,13.69,13.69,0,0,1-4.26-.65h0A9.74,9.74,0,0,1,9.33,34a5.74,5.74,0,0,1-.55-.34h0a3.1,3.1,0,0,1-1.6-2.36c0-1,.79-1.94,2.15-2.69a11.47,11.47,0,0,1,4.49-1.27c.45,0,.91-.06,1.37-.06s.85,0,1.27,0a11.64,11.64,0,0,1,4.6,1.28C22.42,29.34,23.2,30.32,23.2,31.28Z"/><path class="cls-1" d="M22.57,32.79l.11.11a5.22,5.22,0,0,1-1.51,1.18l-4.45-2a.22.22,0,0,0-.3.19.21.21,0,0,0,.09.17l1.29,1a5.2,5.2,0,0,1-4.26.26l.82-1.27a.2.2,0,0,0-.11-.3h-.06a.21.21,0,0,0-.13,0l-3.13,2.5h0l-1.47-.28-.68-.74,5.13-2.23A.24.24,0,0,0,14,31a.27.27,0,0,0-.19-.08h-.07l-3.69,1a5.34,5.34,0,0,1,2.84-3.17l1.37,1.28a.33.33,0,0,0,.56-.23.5.5,0,0,0,0-.12l-1-2.38a4.25,4.25,0,0,1,1.37-.51,3.78,3.78,0,0,1,1.27.5l-.32,2.62a.25.25,0,0,0,.23.29h0a.25.25,0,0,0,.24-.16l.62-1.53c2,.17,3.24,1.07,3.3,3l-3.14-.68a.25.25,0,0,0-.2.06.2.2,0,0,0-.07.16.23.23,0,0,0,.16.22Z"/><path class="cls-6" d="M18.67,37.55v1.67a18.43,18.43,0,0,1-3.48.33C9.47,39.55,4.82,37,4.82,33.82V31.28a3.37,3.37,0,0,1,.37-1.51h0c-1.66,4,4.47,8.05,12.67,7.06A.73.73,0,0,1,18.67,37.55Z"/><path class="cls-7" d="M20.76,13.14l1.41,2.12c1.38,2.07.16,5.43-2.75,8.31a17.19,17.19,0,0,1-2.71,2.2c-4.77,3.18-10,3.61-11.81,1L3.5,24.64A3.44,3.44,0,0,1,3,23.18c-.35-2.69,2-6.41,6-9.06C13.72,10.94,19,10.51,20.76,13.14Z"/><g class="cls-3"><path class="cls-4" d="M4,19.27H4c-.11.17-.21.34-.31.51C3.76,19.62,3.85,19.44,4,19.27Z"/></g><path class="cls-8" d="M16.84,26A15.67,15.67,0,0,1,9.7,28.68l-.79,0A4.81,4.81,0,0,1,4.7,26.88L3.3,24.77c-.9-1.35-.8-3.24.27-5.3a15.63,15.63,0,0,1,5.25-5.55A15.7,15.7,0,0,1,16,11.21c2.32-.19,4.09.45,5,1.8l1.41,2.11c.89,1.35.8,3.24-.27,5.3m-5.35-8.76-.74,0a15.11,15.11,0,0,0-6.92,2.63A15.12,15.12,0,0,0,4,19.69C3,21.59,2.9,23.3,3.7,24.5l1.4,2.11c.8,1.2,2.42,1.77,4.56,1.59a15.2,15.2,0,0,0,6.92-2.62,15.2,15.2,0,0,0,5.09-5.38c1-1.9,1.1-3.61.3-4.81l-1.41-2.11A4.32,4.32,0,0,0,16.75,11.66Z"/><ellipse class="cls-1" cx="12.13" cy="18.89" rx="8.91" ry="4.93" transform="translate(-8.43 9.88) rotate(-33.65)"/><path class="cls-4" d="M18.8,14.45a2.41,2.41,0,0,1,.31,1.61h0a5.35,5.35,0,0,1-.61,1.82,12.25,12.25,0,0,1-4.14,4.36,13.93,13.93,0,0,1-3.91,1.83h0a9,9,0,0,1-1.71.31l-.64,0h0a3.09,3.09,0,0,1-2.64-1.07c-.53-.8-.42-2,.3-3.43a11.41,11.41,0,0,1,3-3.55q.53-.42,1.11-.81T11,14.88a11.78,11.78,0,0,1,4.54-1.48C17.07,13.27,18.27,13.66,18.8,14.45Z"/><path class="cls-1" d="M19.11,16.06l.15,0a5.69,5.69,0,0,1-.6,1.82l-4.81.81a.21.21,0,0,0-.17.18.19.19,0,0,0,0,.15.22.22,0,0,0,.16.09l1.62.09a5.2,5.2,0,0,1-3.4,2.58l0-1.51a.21.21,0,0,0-.26-.19l-.06,0a.15.15,0,0,0-.08.11l-1.22,3.82h0l-1.38.57-1-.24,3-4.69a.25.25,0,0,0-.14-.37.28.28,0,0,0-.2,0l0,0L8.21,22.29a5.39,5.39,0,0,1,.61-4.22l1.85.32a.35.35,0,0,0,.39-.25.34.34,0,0,0-.05-.26.2.2,0,0,0-.09-.09L8.79,16.35a4.2,4.2,0,0,1,.86-1.19A3.91,3.91,0,0,1,11,14.88l1.19,2.36a.26.26,0,0,0,.35.12l0,0a.25.25,0,0,0,.11-.26l-.33-1.62c1.78-1,3.29-.9,4.42.69l-3,1.17a.23.23,0,0,0-.14.16.21.21,0,0,0,0,.17.22.22,0,0,0,.25.09Z"/><g class="cls-9"><path class="cls-10" d="M18.5,22.18l.92,1.39a17.19,17.19,0,0,1-2.71,2.2c-4.77,3.18-10,3.61-11.81,1L3.5,24.64A3.44,3.44,0,0,1,3,23.18H3c.86,4.28,8.19,4.21,14.46-1.15A.73.73,0,0,1,18.5,22.18Z"/></g><path class="cls-1" d="M28.37,11.58a2.16,2.16,0,0,1,1.25-.6l1.43-.29a5.9,5.9,0,0,1,1.28-.16,4.59,4.59,0,0,1,3,1.12,4.54,4.54,0,0,1,1.51,2.14A4.64,4.64,0,0,1,37,15.11a3.51,3.51,0,0,1-.69,2.05,2.71,2.71,0,0,1-2,.83,3.73,3.73,0,0,0-2.11.66,2.4,2.4,0,0,0-.58,1.52c0,.59-.1,1.17-.15,1.76a1.4,1.4,0,0,1-.81,1.15l-.05,0a4.45,4.45,0,0,1-1.5.34,1.45,1.45,0,0,1-1.34-.77,10.62,10.62,0,0,1-1.45-5.37A8.88,8.88,0,0,1,28.37,11.58Zm5.4,1.86a1.18,1.18,0,0,0-1-.65A2.25,2.25,0,0,0,32,13a8.88,8.88,0,0,0-.8.41,2.35,2.35,0,0,0-.75.66,1.66,1.66,0,0,0-.32.93,1,1,0,0,0,.67,1,1.38,1.38,0,0,0,.65.15,2.48,2.48,0,0,0,1.16-.36,3.59,3.59,0,0,0,1-.75,1.31,1.31,0,0,0,.4-.9A1.19,1.19,0,0,0,33.77,13.44Z"/><path class="cls-1" d="M44.32,11.79a5.91,5.91,0,0,1,4.15,1.79,5.6,5.6,0,0,1,1.8,4.2,7.36,7.36,0,0,1-1.6,4.47,3.35,3.35,0,0,1-2,1,11.4,11.4,0,0,1-2.29.22,7.62,7.62,0,0,1-4.16-1,4.54,4.54,0,0,1-2-4.1,7.23,7.23,0,0,1,.93-3.54,5.72,5.72,0,0,1,2.16-2.23A5.86,5.86,0,0,1,44.32,11.79Zm.45,3.56a2.25,2.25,0,0,0-1-.24,2.44,2.44,0,0,0-1.17.31,1.59,1.59,0,0,0-.65.79,2.71,2.71,0,0,0-.24,1.08,1.58,1.58,0,0,0,1,1.42,2.15,2.15,0,0,0,1,.26,1.54,1.54,0,0,0,.83-.23,2.21,2.21,0,0,0,1.24-1.88A1.64,1.64,0,0,0,44.77,15.35Z"/><path class="cls-1" d="M53.35,22.13a10.51,10.51,0,0,1-1.23-3A12.16,12.16,0,0,1,51.67,16q0-3.63,2.37-4.32a5.09,5.09,0,0,1,1.36-.26,2.56,2.56,0,0,1,.94.2q.49.19.9,1.71c.26.92.59,1.38,1,1.38s.71-.42.95-1.24.53-1.47.81-1.62a3.91,3.91,0,0,1,1.56-.57,1.38,1.38,0,0,1,.88.33,4.39,4.39,0,0,1,1.46,2.25,8.4,8.4,0,0,1,.42,2.7,9.29,9.29,0,0,1-.52,3.15A5.22,5.22,0,0,1,62,22.29a1.76,1.76,0,0,1-1,.34,2.24,2.24,0,0,1-1.11-.34.93.93,0,0,1-.45-.88,5.28,5.28,0,0,1,.35-1.51,5,5,0,0,0,.35-1.48c0-.45-.2-.68-.6-.68-.19,0-.41.37-.65,1.11S58.32,20,58,20s-.52-.41-.72-1.22-.47-1.2-.8-1.14-.64.39-.64,1a5.59,5.59,0,0,0,.14,1.1,16,16,0,0,1,.35,2,1,1,0,0,1-.61,1.05,3.24,3.24,0,0,1-1,.19A1.53,1.53,0,0,1,53.35,22.13Z"/><path class="cls-1" d="M72.34,11.79a5.89,5.89,0,0,1,4.14,1.79,5.57,5.57,0,0,1,1.81,4.2,7.36,7.36,0,0,1-1.6,4.47,3.35,3.35,0,0,1-2,1,11.48,11.48,0,0,1-2.29.22,7.66,7.66,0,0,1-4.17-1,4.54,4.54,0,0,1-2-4.1,7.23,7.23,0,0,1,.93-3.54,5.79,5.79,0,0,1,2.16-2.23A5.92,5.92,0,0,1,72.34,11.79Zm.44,3.56a2.24,2.24,0,0,0-1-.24,2.41,2.41,0,0,0-1.17.31,1.55,1.55,0,0,0-.66.79,2.71,2.71,0,0,0-.24,1.08,1.59,1.59,0,0,0,1,1.42,2.19,2.19,0,0,0,1,.26,1.57,1.57,0,0,0,.83-.23,2.2,2.2,0,0,0,1.23-1.88A1.63,1.63,0,0,0,72.78,15.35Z"/><path class="cls-1" d="M80.66,12.2q.06-.19.84-.69a3.85,3.85,0,0,1,2-.48h1.87a5.53,5.53,0,0,1,2.9.69,5.34,5.34,0,0,1,1.82,2,7.05,7.05,0,0,1,1,3.32,5.9,5.9,0,0,1-1.26,3.24,8,8,0,0,1-2.7,2.77,12.07,12.07,0,0,1-3.56.32c-1.83,0-2.77-.25-2.83-.75q-.27-2.31-.36-3.24-.15-1.7-.15-3A19.13,19.13,0,0,1,80.66,12.2Zm2.48,2.48a12,12,0,0,0-.27,2.22c0,.3,0,.74,0,1.34s0,1,0,1.33a.67.67,0,0,0,.75.76,3,3,0,0,0,1.55-.54,4,4,0,0,0,1.22-1.13,2.71,2.71,0,0,0,.4-1.5,4.9,4.9,0,0,0-.12-1.24,2,2,0,0,0-.64-1,3,3,0,0,0-2-.85C83.53,14,83.22,14.26,83.14,14.68Z"/><path class="cls-1" d="M98.22,11.79a5.93,5.93,0,0,1,4.15,1.79,5.6,5.6,0,0,1,1.8,4.2,7.36,7.36,0,0,1-1.6,4.47,3.35,3.35,0,0,1-2,1,11.48,11.48,0,0,1-2.29.22,7.66,7.66,0,0,1-4.17-1,4.55,4.55,0,0,1-2-4.1,7.23,7.23,0,0,1,.93-3.54,5.65,5.65,0,0,1,2.16-2.23A5.86,5.86,0,0,1,98.22,11.79Zm.45,3.56a2.28,2.28,0,0,0-1-.24,2.44,2.44,0,0,0-1.17.31,1.54,1.54,0,0,0-.65.79,2.71,2.71,0,0,0-.24,1.08,1.58,1.58,0,0,0,1,1.42,2.22,2.22,0,0,0,1,.26,1.54,1.54,0,0,0,.83-.23,2.21,2.21,0,0,0,1.24-1.88A1.64,1.64,0,0,0,98.67,15.35Z"/><path class="cls-1" d="M116.13,22.18a2.63,2.63,0,0,1-2.08.93h-.24Q112.31,23,112,21a11.52,11.52,0,0,0-.71-2.87.48.48,0,0,0-.41-.14,1.21,1.21,0,0,0-.74.19.61.61,0,0,0,0,.15l.1,0a.87.87,0,0,0-.45.88c0,.16.09.68.25,1.58a6.52,6.52,0,0,1,.1,1,2,2,0,0,1-.14.78,1.71,1.71,0,0,1-1.1.7,3,3,0,0,1-.93.16,1.52,1.52,0,0,1-1.38-.79,10.56,10.56,0,0,1-1.44-5.36,8.71,8.71,0,0,1,2-5.73,2.34,2.34,0,0,1,1.28-.6,15.31,15.31,0,0,1,2.67-.45,4.83,4.83,0,0,1,1.58.28,5.15,5.15,0,0,1,2.41,1.82,4.18,4.18,0,0,1,.74,2.48,3.51,3.51,0,0,1-.69,2.05,1.31,1.31,0,0,0-.28.72,1.24,1.24,0,0,0,.23.59,4,4,0,0,1,.53,1C115.78,20.64,116,21.53,116.13,22.18Zm-4.64-9.39a3.81,3.81,0,0,0-1.59.58,2.36,2.36,0,0,0-.74.68,1.55,1.55,0,0,0-.32.91.9.9,0,0,0,.17.55,1.3,1.3,0,0,0,1.13.58,2.31,2.31,0,0,0,1.22-.38c.9-.53,1.35-1.08,1.35-1.63a1.28,1.28,0,0,0-.19-.64A1.19,1.19,0,0,0,111.49,12.79Z"/><path class="cls-1" d="M123.55,11.79a5.91,5.91,0,0,1,4.15,1.79,5.6,5.6,0,0,1,1.8,4.2,7.36,7.36,0,0,1-1.6,4.47,3.35,3.35,0,0,1-2,1,11.48,11.48,0,0,1-2.29.22,7.62,7.62,0,0,1-4.16-1,4.54,4.54,0,0,1-2-4.1,7.23,7.23,0,0,1,.93-3.54,5.65,5.65,0,0,1,2.16-2.23A5.86,5.86,0,0,1,123.55,11.79Zm.45,3.56a2.25,2.25,0,0,0-1-.24,2.44,2.44,0,0,0-1.17.31,1.59,1.59,0,0,0-.65.79,2.71,2.71,0,0,0-.24,1.08,1.58,1.58,0,0,0,1,1.42,2.22,2.22,0,0,0,1,.26,1.54,1.54,0,0,0,.83-.23A2.21,2.21,0,0,0,125,16.86,1.64,1.64,0,0,0,124,15.35Z"/><path class="cls-1" d="M31.88,27.9a2.23,2.23,0,0,1,1.26-.6L34.57,27a5.88,5.88,0,0,1,1.27-.16,4.62,4.62,0,0,1,3,1.12,4.54,4.54,0,0,1,1.51,2.14,4.64,4.64,0,0,1,.21,1.32,3.51,3.51,0,0,1-.69,2,2.71,2.71,0,0,1-2,.83,3.69,3.69,0,0,0-2.1.66,2.4,2.4,0,0,0-.58,1.52c0,.59-.1,1.17-.16,1.76a1.35,1.35,0,0,1-.81,1.15l0,0a4.35,4.35,0,0,1-1.49.34A1.47,1.47,0,0,1,31.33,39a10.71,10.71,0,0,1-1.44-5.37A8.87,8.87,0,0,1,31.88,27.9Zm5.41,1.86a1.19,1.19,0,0,0-1-.65,2.25,2.25,0,0,0-.78.17,8.55,8.55,0,0,0-.81.41,2.43,2.43,0,0,0-.74.66,1.6,1.6,0,0,0-.33.93,1.06,1.06,0,0,0,.68,1,1.38,1.38,0,0,0,.65.15,2.44,2.44,0,0,0,1.15-.36,3.41,3.41,0,0,0,1-.75,1.33,1.33,0,0,0,.41-.9A1.28,1.28,0,0,0,37.29,29.76Z"/><path class="cls-1" d="M45.43,27.11a3.88,3.88,0,0,1,1.13.19c1.22.4,1.83.92,1.83,1.55a6.61,6.61,0,0,1-1,2.36,6.31,6.31,0,0,0-1,2.58,1.71,1.71,0,0,0,.36,1.07,2.29,2.29,0,0,0,1.93.82A17.48,17.48,0,0,0,51,35.34a8,8,0,0,1,1.31-.16,2.55,2.55,0,0,1,.74.11,1.19,1.19,0,0,1,.93,1.25,3.15,3.15,0,0,1-.48,1.62A2.67,2.67,0,0,1,52,39.23c-.58.16-1.16.32-1.74.5a3.05,3.05,0,0,1-.88.17c-.13,0-.44,0-.93-.1-1.24-.18-2.64-.35-4.2-.54-.7-.08-1.2-.7-1.5-1.87a10.82,10.82,0,0,1-.29-2.62,14.31,14.31,0,0,1,1.65-7A1.33,1.33,0,0,1,45.43,27.11Z"/><path class="cls-1" d="M58.33,39.54c-1.36-.34-2-1.36-2-3.07a9.1,9.1,0,0,1,1.7-5,7.11,7.11,0,0,1,4.06-3.27A7.89,7.89,0,0,1,64,28h.31c1.57,0,3,.92,4.41,2.74A8.74,8.74,0,0,1,70.67,36a3,3,0,0,1-1.86,3.11,6.5,6.5,0,0,1-1.92.57c-.73,0-1.18-.22-1.36-.67a2,2,0,0,1-.14-.83,5.64,5.64,0,0,1,.07-.72v-.57c0-.7-.21-1.14-.62-1.32a3,3,0,0,0-1.21-.33,2.5,2.5,0,0,0-.82.17,1,1,0,0,0-.6,1.07,4.14,4.14,0,0,0,0,.64c.08.59.12,1,.12,1.12a1.35,1.35,0,0,1-.47,1.13,2.59,2.59,0,0,1-1.63.55,4.47,4.47,0,0,1-.93-.1Zm3.27-7.92a.87.87,0,0,0,.55.81,2.44,2.44,0,0,0,1,.21,2.63,2.63,0,0,0,1.13-.24,1.33,1.33,0,0,0,.79-.81.59.59,0,0,0,0-.21,1.26,1.26,0,0,0-.31-.79,2.06,2.06,0,0,0-.7-.6,1.59,1.59,0,0,0-.76-.21,2.37,2.37,0,0,0-.43,0A1.62,1.62,0,0,0,61.6,31.62Z"/><path class="cls-1" d="M74.18,38.68a9.59,9.59,0,0,1-1.67-5.36A5,5,0,0,1,74.46,29a2,2,0,0,1,1.22-.4,7.72,7.72,0,0,1,1.17.17q.86.18,1.38,1.47c.2.67.41,1.35.6,2,.37,1,.76,1.44,1.19,1.44a1.41,1.41,0,0,0,.43-.08.71.71,0,0,0,.43-.75,4.11,4.11,0,0,0-.14-.93,10.41,10.41,0,0,1-.34-1.69,1.14,1.14,0,0,1,.39-1,3,3,0,0,1,1.76-.69c.92,0,1.57.95,2,2.85A13.12,13.12,0,0,1,84.78,34a12,12,0,0,1-.25,2.54,3.75,3.75,0,0,1-1.12,2.2l-.67.54a1,1,0,0,1-.59.2,4.45,4.45,0,0,1-1.22-.27,2.83,2.83,0,0,1-1.53-1.45c-.12-.19-.47-.89-1.07-2.1-.35-.71-.65-1.06-.89-1.06s-.34.12-.5.37a.75.75,0,0,0-.16.45A8,8,0,0,0,77.57,37,2.36,2.36,0,0,1,78,38.18a2.47,2.47,0,0,1,0,.43c-.16.71-.7,1.07-1.62,1.07A2.35,2.35,0,0,1,74.18,38.68Z"/></svg>