<?xml version="1.0" encoding="utf-8"?>
<!-- Generator: Adobe Illustrator 26.0.1, SVG Export Plug-In . SVG Version: 6.00 Build 0)  -->
<svg version="1.1" id="Слой_1" xmlns="http://www.w3.org/2000/svg" xmlns:xlink="http://www.w3.org/1999/xlink" x="0px" y="0px"
	 viewBox="0 0 76.8 82.4" style="enable-background:new 0 0 76.8 82.4;" xml:space="preserve">
<style type="text/css">
	.st0{fill-rule:evenodd;clip-rule:evenodd;fill:#713F13;}
	.st1{fill-rule:evenodd;clip-rule:evenodd;fill:#FFFFFF;}
	.st2{fill-rule:evenodd;clip-rule:evenodd;fill:#DE7C29;}
</style>
<g>
	<path class="st0" d="M64,51.7h-0.5c-0.3,0.2-0.8,0.2-1.3,0.3c-0.6,0-1.3,0-1.9,0c-0.2,0-0.3,0-0.5,0.2c-0.8,0.2-1.4,0.2-2.2,0h-0.3
		h-0.2c-1,0.2-1.9,0-2.9-0.3c-1,0.8-2.1,1.3-3.2,1.4c-0.6,0-1.3,0-1.9,0c-1,1.1-2.2,1.8-3.7,1.9c-1.1,0.2-2.2,0-3.4-0.3l-0.3,0.2
		l-0.2,0.2c-1.3,1-2.7,1.4-4.2,1.3c-0.6,0.3-1.4,0.6-2.1,0.6c-0.3,0-0.8,0-1.1,0c-0.3,0.2-0.8,0.2-1.1,0.3c-0.5,0-1,0-1.4,0
		c-0.5,0.2-1,0.3-1.3,0.3c-1,0.3-1.8,0.5-2.7,0.6c-0.5,0-1.1,0-1.6,0c-0.5,0.2-1.1,0.3-1.8,0.5c-0.3,0-0.8,0-1.1,0
		c-0.3,0.2-0.6,0.2-1.1,0.2c-0.8,0.2-1.6,0-2.4-0.2c-0.5,0.2-1.1,0.3-1.6,0.5c-0.8,0.2-1.6,0-2.4,0c-0.3,0-0.6,0.2-1,0.2
		c-1,0.2-1.9,0-2.9-0.3c-1.3,1-2.4,2.1-3.5,3.2c2.1,3,4.3,5.9,6.7,8.5c1.6,1.6,3.7,0.5,5.6,0c1.3-0.3,2.7-0.6,4-1
		c2.6-0.5,5.4-1.4,8-1.6c1.8-0.2,3.7,0.3,5.6,0.5c1.8,0,3.7,0,5.4,0c1.8,0.2,3.5,0,5.1-0.2c1.4-0.3,2.7-1.1,4.3-1.6
		c0.5-0.2,0.8-0.3,1.3-0.3c1.6,0.2,3.2,0.6,4.8,1.1c1.3,0.5,2.1,1.8,3.4,1.6c0.5-0.3,0.6-1,1.1-1.3c0.5-0.5,1-0.6,1.3-1.3
		c1-1.8,1.4-3.7,1.8-5.6c0.2-0.8,0-1.6,0-2.6c0.2-1.3,0.5-2.7,1-4c0.2-0.5,0.3-1.1,0.6-1.8C66.6,53,65.3,52.5,64,51.7z"/>
	<path class="st1" d="M66.6,53c0.2,0.2-0.2,0.6-0.2,1c-7.8,0.5-14.7,2.7-22.6,3.7c3.7-0.8,7.2-1.9,11-2.7c3.8-0.8,7.7-1.1,11.5-1.8
		C66.4,53,66.6,53,66.6,53z"/>
	<path class="st2" d="M65.6,54.4c-0.3,2.2-2.2,4.3-3,6.4c-0.5-0.2-0.5-0.3-1-0.3c0.3,0.3,0.8,1,0.3,1.6c-0.5,0-0.8-1.1-1.4-1
		c0,0.5,1,1.1,1,1.8c-0.3,0-0.5-0.6-1.1-0.6c-0.2,0.5,0.6,1,0.8,1.3c-0.3,0.5-0.5,1.3-0.6,1.8c-2.1-1.6-3.8-2.6-7.4-3
		c-1.1-0.2-2.6,1.4-3.7,1.6c-0.6,0.2-1.3,0-2.1,0.2c-1.9,0.3-3.8,0.8-5.8,1c0.8-0.8,1.3-2.1,1.9-3.2c-1,0.8-2.1,1.9-2.4,3.4
		c-0.5,0-0.8,0.2-1.3,0c0.8-0.8,1.4-1.8,1.9-2.9c-1,0.5-2.1,2.1-2.1,2.9c-6.6,0.6-14.9-0.3-22.1-0.2c-1,0-2.4,0.3-3,0
		c-1-0.3-1.6-1.4-2.4-2.1c3.8-0.5,7.7-1.1,11.8-1.4c0.2,0.2-0.3,0.3-0.2,0.6c0.3,0,0.5-0.5,0.6-0.6C28,60.8,31.7,61,35,60
		c3.2-1,6.6-1.8,9.9-2.4C51.7,57.1,58.6,55.5,65.6,54.4L65.6,54.4z M59.2,58.4c-0.3,0.6-1,1.3-0.5,1.9c1-1.1,1.4-2.4,1.8-3.8
		c0,0,0-0.2-0.2-0.2C59.7,57,59.4,57.8,59.2,58.4z M60.2,58.3c-0.3,0.5-0.8,1.3-0.3,1.6c0.6-1,1.1-2.1,1.3-3.2
		C60.8,57.3,60.3,57.8,60.2,58.3L60.2,58.3z M57.4,59.9c0.5,0,0.5-0.6,0.6-1.1c0.3-0.8,1.1-1.6,0.8-2.2
		C58.2,57.3,57.3,58.6,57.4,59.9L57.4,59.9z M60.6,60.3c0.5,0,1-1.4,0.8-1.6C61.3,59.4,60.5,59.5,60.6,60.3L60.6,60.3z M52,58.3
		c0.2,0.3,1,0.5,1.1,0.2C53.6,57.5,51.8,57.3,52,58.3L52,58.3z M59.2,62.4c0.8,0.2,0.5,1.6,1.3,1.9C61,63.5,60,62.3,59.2,62.4
		L59.2,62.4z M48.8,61.3c1.8,0.2-0.2-3-0.6-0.5C48.3,61,48.3,61.1,48.8,61.3z M46.2,61.5c0.5-0.2,0.6-0.8,0.8-1.3
		C46.4,58.9,44.8,61.1,46.2,61.5L46.2,61.5z M38.6,65c1.1-0.3,1.8-2.2,2.4-3.7c-0.2,0,0-0.2-0.2-0.2C40,62.4,39,63.4,38.6,65
		L38.6,65z M39.2,61.6c-0.6,0.6-2.2,1.9-1.9,3c0.8-1,1.6-1.9,2.2-2.9L39.2,61.6z M34.7,61.8c0,0.8-0.2,1.8,0.5,2.1
		C36,63.5,35.7,61.1,34.7,61.8L34.7,61.8z M33.6,64.2c0.3-0.5,0.3-1.3,0.2-1.8C32.6,62.1,33.4,63.7,33.6,64.2L33.6,64.2z"/>
	<path class="st1" d="M65,58.3c-0.2,1.3-0.6,2.6-1.1,3.7c-0.6-0.3,0-1.1,0.2-1.8C64.3,59.5,64.6,58.9,65,58.3z"/>
	<path class="st1" d="M63.7,62.6c-0.5,1.4-1.1,2.7-1.8,4c-0.3-0.5,0.2-1.4,0.5-2.1c0.3-0.6,0.6-1.4,0.8-1.9
		C63.5,62.6,63.5,62.4,63.7,62.6z"/>
	<path class="st1" d="M53.9,64.3l0.5,0.2c0,0.3,0,0.8,0,1.3c-0.3,0-0.5,0.3-0.8,0C53.9,65.1,53.8,64.8,53.9,64.3z"/>
	<path class="st1" d="M55.5,64.8h0.3c0,0.3,0,0.5,0,0.8C55.4,65.5,55.4,65.1,55.5,64.8z"/>
	<path class="st1" d="M32.6,59.4c0.2,0.6-1.3,1-2.1,1C31.2,59.9,31.8,59.5,32.6,59.4z"/>
	<path class="st1" d="M52.8,64.2c-0.2,0.6-0.3,1.1-0.3,1.8c-0.6,0.2-1.3,0.2-1.9,0.3C51,64.8,51.7,64.2,52.8,64.2z"/>
	<path class="st1" d="M56.5,65.1c0.5,0.2,1,0.3,1.3,0.6l-0.2,0.5c-0.5-0.2-1-0.3-1.4-0.5C56.3,65.5,56.5,65.5,56.5,65.1z"/>
	<path class="st1" d="M58.6,66.1c0.5,0.2,0.8,0.5,0.8,1c0.3-0.2,0.3-0.2,0.6,0c0,0.2-0.2,0.2-0.2,0.3c-0.5-0.2-1-0.5-1.6-0.8
		L58.6,66.1z"/>
	<path class="st1" d="M30.2,59.7c0.3,0.3-0.8,0.3-1,0.6c-0.2,0.2-0.3,0.3-0.8,0.3C29.1,60.2,29.6,59.7,30.2,59.7z"/>
	<path class="st1" d="M50.4,65.1c0.3,0.2-0.3,1-0.5,1.3c-0.3,0-0.6,0-0.8,0.2C49.1,65.9,49.6,65.3,50.4,65.1z"/>
	<path class="st1" d="M61.3,68.2c-0.2,0.2-0.8-0.2-0.6-0.5C60.8,67.5,61.1,68,61.3,68.2z"/>
	<path class="st1" d="M28.2,60c-0.5,0.3-1,1-1.6,1C27.2,60.5,27.7,60.2,28.2,60z"/>
	<path class="st1" d="M26.6,60c0.2,0.3-0.8,0.6-1.3,0.8c0.2-0.2,0.5-0.5,0.5-0.6C26.1,60.2,26.4,60.2,26.6,60z"/>
	<path class="st1" d="M48.8,65.6c0.2,0.2-0.3,1.1-0.6,1.3C48,66.4,48.3,65.6,48.8,65.6z"/>
	<path class="st1" d="M25.4,60.2c0.2,0.8-1.1,1.3-1.9,1.1C24.2,60.8,24.8,60.5,25.4,60.2z"/>
	<path class="st1" d="M23.8,60.3c0.2,0.5-1.1,0.5-1.4,1.3c-0.5,0-1,0.2-1.4,0.2C21.9,61.1,22.6,60.3,23.8,60.3z"/>
	<path class="st1" d="M47.5,65.9c0.2,0.3-0.3,1.4-1,1.3c0.2-0.3,0.3-0.8,0.5-1.1C47.2,66.1,47.4,66.1,47.5,65.9z"/>
	<path class="st1" d="M46.2,66.4c-0.3,0.2-0.3,1-0.8,1C45.6,66.7,45.6,66.1,46.2,66.4z"/>
	<path class="st1" d="M44.8,66.6c0.2,0.2-0.3,0.6-0.3,0.8L44,67.2l0.2-0.5C44.3,66.6,44.6,66.6,44.8,66.6z"/>
	<path class="st1" d="M43.4,66.7c0,0.5-0.5,0.3-1,0.3C42.6,66.6,43,66.7,43.4,66.7z"/>
	<path class="st1" d="M18.1,59.4c1,0,1.9-0.2,2.9-0.2c-0.5,0-1,0-1.4-0.2C19,59.2,18.6,59.4,18.1,59.4z"/>
	<path class="st1" d="M16.5,59.5c-0.3,0-0.6,0-1-0.2c-0.3,0-0.6,0.2-1,0.2c-1,0.2-1.9,0-2.9-0.2c-0.6,0.5-1.3,1.1-1.9,1.6
		c0.3,0.3,0.6,0.6,0.8,1c1-1.4,3.4-1.3,4.6-1.8c-1,0-2.4,0.2-3.2,0.2C13.3,59.5,14.9,59.5,16.5,59.5z"/>
	<path class="st1" d="M64,51.4h-0.5c-0.3,0.2-0.8,0.2-1.3,0.3c-0.6,0-1.3,0-1.9,0c-0.2,0-0.3,0-0.5,0.2c-0.8,0.2-1.4,0.2-2.2,0
		c-0.2,0-0.2,0-0.3,0h-0.2c-1,0.2-1.9,0-2.9-0.3c-1,0.8-2.1,1.3-3.2,1.4c-0.6,0.2-1.3,0.2-1.9,0c-1,1.1-2.2,1.8-3.7,1.9
		c-1.1,0.2-2.2,0-3.4-0.3l-0.3,0.2c0,0-0.2,0-0.2,0.2c-1.3,1-2.7,1.4-4.2,1.3c-0.6,0.3-1.4,0.6-2.1,0.6c-0.3,0-0.8,0-1.1,0
		c-1,0.3-1.8,0.3-2.7,0.3c-0.5,0.2-1,0.3-1.3,0.3c-1,0.3-1.8,0.5-2.7,0.6c-0.5,0-1.1,0-1.6,0c-0.5,0.2-1.1,0.3-1.8,0.5
		c-0.3,0-0.8,0-1.1,0c-0.2,0-0.5,0.2-0.6,0.2c2.9-0.3,5.8-0.6,8.5-0.6c1,0,1.9,0,2.9,0c1.8,0,3.4-0.8,4.8-1.3
		c1.8-0.5,3.7-0.8,5.6-1.1c6.9-1.3,14.2-3.4,21.6-3.7C65.1,52,64.6,51.7,64,51.4z"/>
	<path class="st1" d="M37.9,58.6c-1.6,0.6-3.2,1-4.8,1.3C34.2,58.7,36.3,59.1,37.9,58.6z"/>
	<path class="st1" d="M18.7,60.8c-0.3,0.3-0.8,0.5-1.3,0.8c1.4,0.5,2.2-1.3,3.7-1c-0.3,0.5-1.1,0.3-1.3,1.1c-1.4,0-2.9,0.2-4.3,0.6
		C16.5,61.8,17.4,60.7,18.7,60.8z"/>
	<path class="st1" d="M14.1,61.5c0,0.5-1.1,0.5-1,1.3c1.3,0,1.8-1.6,3.2-1.6c-0.2,0.5-1.1,0.8-1.4,1.3c0,0.2,0.2,0,0.3,0
		c-1.1,0.3-2.2,0.5-3.5,0.8c-0.5-0.3-0.8-0.6-1-1.1c0.6,0,1-0.5,1.6-0.5c-0.2,0.5-0.8,0.6-0.8,1.3C12.6,62.7,13,61.3,14.1,61.5z"/>
	<path class="st1" d="M15.8,68.3c2.2-0.3,4.6-0.2,6.9-0.5c0.2,0.3-0.3,0.2-0.3,0.2c-1.1,0.3-2.4,0.5-3.7,0.6c-0.5,0.2-1,0.3-1.3,0.3
		C16.6,69,16.5,68.3,15.8,68.3z"/>
	<path class="st0" d="M67.2,43.9c0.1-0.9,0.5-2.1,0.8-3.2c0.3-1.1,0.7-2.3,1-3.3c0.8-2.6,2.8-6.4,0.6-8c-0.6-1.8-1.7-3.7-2.6-5.7
		c-1.5-3.3-3.4-5.4-3.9-8.7c-0.2-1.2,0-2.6-1.2-3c-4.3-1.5-9.1-1.4-13.5-2.1c-0.3,0.3,0.3,0.4,0.3,0.6c-3.1-0.2-6.2,0.2-9.5-0.6
		c-0.1,0-0.1,0-0.2,0c-2.1-0.7-3.8-1.3-5.8-1.5c-1.9-0.2-3.8-0.5-5.7-0.8c-0.7-0.1-1.6-0.5-2-0.3c-0.5,0.3-0.4,0.8-0.8,1.4
		c-0.5,0.6-1.7,1.4-2.6,2.1c-0.9,0.7-1.9,1.3-2.7,1.8c-1.8,1.2-3.6,3-5.2,4.1c-0.6,0.4-1.3,0.6-1.9,1.1c-0.7,0.5-1.3,0.8-2,1.3
		c-1.2,0.8-3.1,2.3-3.6,3.6c-0.2,0.5,0.1,1.3,0.1,1.9c0,0.9-0.5,2.1-0.5,3c0,1.1,0.3,2.5,0.4,3.7c0.2,1.3,0.8,2.6,0.7,3.7
		c0,0.3-0.1,0.7-0.2,1c1.3-0.1,2.7,0.1,3.8,0.9c0.8-0.9,1.8-1.5,3-1.8c0.1-0.1,0.2-0.2,0.2-0.3c0.2-0.3,0.5-0.6,0.9-0.8
		c0.6-1.4,2.2-2.1,3.7-1.6c0.9,0.2,1.7,0.9,2,1.8c0.2,0.4,0.3,0.8,0.4,1.2c0.1,0.1,0.2,0.2,0.3,0.3c0.3,0.3,0.5,0.7,0.7,1.2l0,0
		l0.5,0.7c0.3,0.5,0.4,1,0.4,1.6c0,0.3-0.1,0.6-0.1,0.8v0.1h0.2c0.8,0.2,1.5,0.2,2.3,0.2c-0.4,0-0.2,0,0,0c0.1-0.1,0.3-0.2,0.4-0.3
		c1.9-1.6,5-1.3,6.9-0.1c1,0.6,1.8,1.5,2.3,2.7c0.3-0.2,0.7-0.4,1-0.5c0.5-0.4,1.1-0.7,1.7-0.8c0.9-0.2,1.8-0.4,2.8-0.6
		c3.3-0.6,5.5,1.4,6.3,4c0.6,0.3,1.2,0.5,1.8,0.7c1.2,0.4,2.5,0.6,3.8,0.6l0.1-0.1l0.1-0.1c0.1-0.1,0.2-0.2,0.3-0.4l0.1-0.1
		c0.1-0.1,0.2-0.2,0.3-0.2l0.1-0.1c0.1-0.1,0.2-0.1,0.3-0.2l0.1-0.1c0.1-0.1,0.3-0.2,0.5-0.3h0.1c0.1-0.1,0.3-0.1,0.4-0.2h0.2
		c0.1,0,0.3-0.1,0.4-0.1h0.1c0.2,0,0.4-0.1,0.6-0.1l0,0c0.2,0,0.4,0,0.5,0h0.2h0.5h0.2c0.2,0,0.4,0,0.7,0.1c0.3,0,0.6,0.1,0.9,0.2
		l0.2,0.1c0.2,0.1,0.4,0.1,0.6,0.2l0.2,0.1c0.2,0.1,0.5,0.2,0.7,0.4l0.1,0.1c0.2,0.1,0.3,0.3,0.5,0.4l0.1,0.1
		c0.1,0.1,0.3,0.3,0.4,0.4c0.5-0.1,0.9-0.2,1.4-0.2c1.4,0,2.8-0.2,4.2-0.2C67.3,44.8,67.2,44.3,67.2,43.9z"/>
	<path class="st1" d="M61.1,13.7c0.2,0.5,0.3,0.9,0.3,1.4C61.1,15,60.9,14,61.1,13.7z"/>
	<path class="st1" d="M63.8,22.1c0.3,0.2,0.2,0.4,0.5,0.6c-0.9,2.6-0.7,5.2-1.1,7.5c-0.4-0.5-0.2-1.3-0.2-1.9
		C63.1,26.2,63.4,24.2,63.8,22.1z"/>
	<path class="st1" d="M60.5,20.2c-0.1,2.9-1,6-1.3,9c-0.2,0.1-0.5,0.1-0.8,0c0.7-2.8,0.7-5.5,1.9-8.4c0.1-0.2-0.4-0.3-0.1-0.6
		C60.3,20.2,60.4,20.3,60.5,20.2z"/>
	<path class="st1" d="M56.2,18.8c-0.1,3-1.2,6.3-1.8,9.4C54.6,25,55.2,21.9,56.2,18.8z"/>
	<path class="st1" d="M52.7,17.1c-0.1,3.2-1.4,6.7-2.1,10.1c0.4-2.6,0.7-6.4,1.5-9.2C52.2,17.7,52.4,17.4,52.7,17.1z"/>
	<path class="st1" d="M45.7,28.1c0.2-3.9,0.9-7.8,2.2-11.6c0.1,0,0.2,0,0.3,0.1c-0.5,2.8-1.1,5.9-1.7,8.8
		C46.4,26.3,46.3,27.4,45.7,28.1z"/>
	<path class="st1" d="M43.9,15.9c0.1,0,0,0.1,0,0.1c0.1,0,0,0.1,0,0.1c-0.1,2.4-0.9,5.1-1.5,7.7c-0.2,0.8-0.2,1.8-0.8,2.3
		c-0.3-0.8,0-1.7,0.2-2.5c0.5-2.4,1.2-5.1,1.8-7.6C43.7,15.9,43.9,16.1,43.9,15.9z"/>
	<path class="st1" d="M39.2,14.6l0.2,0.1C39.3,15,39,15,38.9,15.3C38.7,15.1,39,14.8,39.2,14.6z"/>
	<path class="st1" d="M39.2,16c0.3,0.6-0.2,1.1-0.7,1.5C38.2,16.9,38.8,16.6,39.2,16z"/>
	<path class="st1" d="M34.9,14c0.1,0.2,0.1,0.4,0,0.5c-0.2,0-0.4,0-0.5,0.1C34.3,14.3,34.8,14.2,34.9,14z"/>
	<path class="st1" d="M38.9,17.8c0.1,0,0.1,0.1,0.2,0.2c-0.2,0.4-0.6,0.2-0.8,0.7C38.2,18.3,38.8,18.2,38.9,17.8z"/>
	<path class="st1" d="M34.5,15.4c0.2,0.1-0.1,0.4,0,0.6c-0.2,0.1-0.3,0.3-0.5,0.2C34,15.9,34.2,15.6,34.5,15.4z"/>
	<path class="st1" d="M38.7,19c0.1,0.8-0.2,1.4-0.9,2C37.6,20.4,38.1,19.6,38.7,19z"/>
	<path class="st1" d="M29,13.2c0.1,0,0.1,0.1,0.1,0.2c-0.1,2.3-0.3,4.9-1.5,7.2c0.3,0.6-0.2,1.9-0.4,2.7C27.5,20,28.3,16.6,29,13.2z
		"/>
	<path class="st1" d="M34.2,16.8c0.1,0.4-0.1,1.2-0.5,1.4C33.6,17.6,33.8,17.1,34.2,16.8z"/>
	<path class="st1" d="M32.7,16.2l0.2,0.1c-0.4,1.8-2.7,2.2-4,3.1C29.2,17.4,31.5,17.3,32.7,16.2z"/>
	<path class="st1" d="M24.6,11.6c0.1,0,0.1,0.1,0.2,0.2c-0.5,3.3-0.9,7-2,10.2c-0.1-2.2,0.5-4.8,0.9-7.4
		C23.8,13.5,23.6,12.4,24.6,11.6z"/>
	<path class="st1" d="M27.8,14.7c0,1.7-2.1,2.2-3.2,2.9C24.7,15.8,26.7,15.6,27.8,14.7z"/>
	<path class="st1" d="M38.3,21.2c-0.1,1.6-0.5,3.1-1.1,4.5c-0.7-0.1-0.2-1.1-0.1-1.6C37.3,23,37.3,22,38.3,21.2z"/>
	<path class="st1" d="M33.8,18.7c0,0.3,0,1.3-0.7,1.1C33.2,19.3,33.4,18.9,33.8,18.7z"/>
	<path class="st1" d="M32.4,18c0.2,0.3-0.1,0.7-0.1,1c-1.2,0.6-2.4,1-3.6,1.9C29.4,19.4,31.3,19,32.4,18z"/>
	<path class="st1" d="M23.2,12.9c-0.3,3.5-1.9,7.3-1.1,10.6c0.3,0.2,0.6-0.2,0.6-0.5c0.3,0.8-1,0.9-1.4,1.2c0.8,0.6,1.5-0.3,2.2-0.7
		c0.8-0.4,1.5-0.8,2.2-1.4c-0.7-0.3-1.6,0.8-2.4,0.8c0.7-1.5,2.1-1.8,3.2-2.6c0,0.8-0.3,1.6-0.3,2.4c-1.7,1-3.5,2.1-5.3,2.8
		c0.9,0.6,1.9-0.3,2.7-0.8c0.9-0.5,1.7-1,2.5-1.6c0.3,0.1,0,0.4,0.2,0.5c-1.3,0.5-2.5,1.4-3.8,1.9c0,0.1,0.1,0.2,0,0.3
		c1.7,0,3-2,4.7-1.9c0,0.2-0.3,0.6,0.1,0.7c-0.9,0.7-1.9,1.2-2.8,1.9c-3-0.9-5.9-1.4-8.8-2c-0.2-0.3,0.3-0.1,0.3-0.4
		c-0.6-0.4-1.1,0-1.7-0.2c0.2-0.4,0.6-0.8,0.3-1c-0.4,0-0.6,0.6-0.9,1c-0.5-0.7,1-2,0.6-2.7c0.2-0.3,0.5-0.7,0.4-0.9
		c-0.2-0.2-0.4,0.1-0.5,0.3c0.9-1.8,3.2-2.5,4.7-4c-0.3,2.3-0.8,4.7-0.4,6.9c0.2,0,0-0.2,0.3-0.3c0.3,0-0.1,0.3,0.1,0.4
		c1-1.2,1-3,1.4-4.5c0.4-1.6,0.8-3.1,1-4.6C22,14.1,22.6,13.6,23.2,12.9z M24.1,26c0.6,0.2,1.7-0.2,1.6-0.7
		C25.2,25.6,24.6,25.8,24.1,26z"/>
	<path class="st1" d="M27.3,16.6c-0.1,1.3-2.1,1.5-2.9,2.6c-0.3-0.3,0.1-0.7,0.1-1.1C25.5,18.1,26.4,17.2,27.3,16.6z"/>
	<path class="st1" d="M32.1,19.8c0.1,1.6-2.7,2.2-3.8,3C28.9,20.8,30.8,20.6,32.1,19.8z"/>
	<path class="st1" d="M33.4,20.6c-0.1,0.5-0.1,1.3-0.7,1.5C32.6,21.5,32.8,20.7,33.4,20.6z"/>
	<path class="st1" d="M21,13.4c0.2,0.3-0.7,0.8-0.9,1.1c0-0.1-0.1-0.2-0.3-0.3C20.2,13.9,20.6,13.8,21,13.4z"/>
	<path class="st1" d="M27,17.8c0,1.6-2.1,1.8-3.1,2.8C24.2,19.2,26.1,18.8,27,17.8z"/>
	<path class="st1" d="M60.8,39.2l0.4,0.2c-0.5,0.3-0.9,0.7-1.3,1.1C59.7,40,60.7,39.8,60.8,39.2z"/>
	<path class="st1" d="M61.6,39.8c0.2,0.1,0.3,0.3,0.4,0.5c-0.4,0.3-0.9,0.5-1.2,1c-0.3-0.1-0.2-0.2-0.4-0.3
		C60.7,40.6,61.1,40.2,61.6,39.8z"/>
	<path class="st1" d="M31.6,21.4c0.1,2-2.5,2-3.6,3.1C28.2,22.7,30.5,22.6,31.6,21.4z"/>
	<path class="st1" d="M32.8,22.5c-0.2,0.9-0.4,2.2-0.9,3c-0.4-0.3,0.1-0.6,0.2-0.8c0.2-0.6,0.3-1.3,0.4-2
		C32.5,22.5,32.7,22.6,32.8,22.5z"/>
	<path class="st1" d="M62.2,40.7c0.2,0.1,0.5,0.3,0.6,0.6c-0.5,0.3-0.9,0.6-1.3,1c-0.2-0.1-0.1-0.2-0.3-0.3
		C61.5,41.3,61.9,41.2,62.2,40.7z"/>
	<path class="st1" d="M26.7,19.3c0.1,0.2-0.1,0.4,0,0.6c-1,0.4-2,1.2-3,1.5C24.6,20.6,25.8,20.1,26.7,19.3z"/>
	<path class="st1" d="M20.3,15.8c0,0.3,0,0.5-0.1,0.8C20,16.3,20.1,16,20.3,15.8z"/>
	<path class="st1" d="M31.2,23.3c0.1,0.5-0.2,1.1-0.1,1.6c-1.5,0.8-3.1,1.5-4.6,2.4c-0.3-0.1-0.7-0.2-1-0.3
		C27.3,25.7,29.2,24.4,31.2,23.3z"/>
	<path class="st1" d="M51.8,37c-0.1,0.3-0.5,0-0.8-0.1c0.1-0.1,0-0.2,0.1-0.3C51.3,36.5,51.9,36.8,51.8,37z"/>
	<path class="st1" d="M30.8,25.3c0.3,0.3,0,0.8,0.3,1c-1.3,0.3-2.3,1.9-3.8,1.1C28.5,26.7,29.7,26.2,30.8,25.3z"/>
	<path class="st1" d="M43.7,35.4c0.7,0.7,1.1,1.5,1.8,2.2c-0.2,0.2-0.5,0.3-0.8,0.4c-0.5-0.6-0.5-1.2-1.2-1.7
		c-0.3,0-0.4,0.1-0.5,0.4c-0.3-0.3-1-0.4-1,0c-0.7,0-1.3,0.7-2,1c0-0.8,1-0.9,1.5-1.1C42.4,36.2,43,35.7,43.7,35.4z"/>
	<path class="st1" d="M46.1,38.2c-0.3,0.2-0.6,0.6-1,0.4C45.2,38.3,45.7,37.9,46.1,38.2z"/>
	<path class="st1" d="M46.5,38.7c0,0.1,0.2,0.2,0.3,0.4c-0.4,0.1-0.7,0.5-1.1,0.3C45.6,38.9,46.2,38.9,46.5,38.7z"/>
	<path class="st1" d="M47.4,39.7c-0.4,0.2-0.8,0.5-1.2,0.4c0-0.1,0-0.1-0.1-0.2C46.4,39.8,47.1,39.2,47.4,39.7z"/>
	<path class="st1" d="M48.1,40.5c-0.3,0.2-0.6,0-0.8,0.5c0.2,0.5,0.8,0.1,1.1-0.1c0.2,0.6-0.6,0.5-0.8,0.9c0.4,0.5,0.9-0.5,1.5-0.1
		c-0.3,0.5-0.6,0.6-1,0.8c-0.8-0.5-1-1.1-1.5-1.7C47,40.5,47.6,39.9,48.1,40.5z"/>
	<path class="st1" d="M26.3,29.7c0.9-0.3,1.6-1.3,2.6-0.9c0.1,0,0.1,0.1,0,0.2C28.1,29.1,27.3,29.6,26.3,29.7z"/>
	<path class="st1" d="M37.7,34.4c-0.2,0.3-0.8-0.2-0.6-0.5C37.4,33.9,37.7,34.1,37.7,34.4z"/>
	<path class="st1" d="M27.1,28.2c-0.1,0.2-1.1,0.5-1.6,0.6c-0.6,0.1-1.4,0.2-1.9,0C24.7,28.7,25.8,28,27.1,28.2z"/>
	<path class="st1" d="M23.5,27.2c0,0.3-1.2,0.3-1.7,0.3c-0.3,0-0.6,0.4-1,0.1C21.7,27.4,22.6,27.2,23.5,27.2z"/>
	<path class="st1" d="M13.3,21c-0.2,0.9-1.1,1.5-1.6,2.4c-0.6-0.3-1.1,0-1.7-0.1C11.1,22.5,12.2,21.8,13.3,21z"/>
	<path class="st1" d="M21.9,26.8c-0.7,0.3-2.1,0.3-3.1,0.2C19.8,26.9,20.8,26.5,21.9,26.8z"/>
	<path class="st1" d="M39.2,37.7c-0.1,0.7-0.8,0.8-1.2,1.1C37.9,38.3,38.9,38,39.2,37.7z"/>
	<path class="st1" d="M32,34.2c-0.6,0.5-1.3,1.9-2,1.2c0.3-0.3,0.8-1,0.9-1.3c-0.3,0.4-0.7,0.7-1.2,0.6c-2,1.1-3.8,2.6-6,3.1
		c-1.4-1.4-2.2-3.3-3.4-4.7c-0.7-0.8-1.9-1.2-2.3-2.3c-0.2,0.2,0,0.3-0.1,0.6c-2.7,1.4-5.3,3-7.7,5.1c0.3,0.2,0.7,0.2,1,0.1
		c0.7-0.7,1.6-1.1,2.6-1.4c0.1-0.1,0.2-0.2,0.3-0.3c0.2-0.3,0.5-0.6,0.9-0.8c0.6-1.4,2.2-2.1,3.7-1.6c0.9,0.2,1.7,0.9,2,1.9
		c0.2,0.4,0.3,0.8,0.4,1.2c0.1,0.1,0.2,0.2,0.3,0.2c0.3,0.3,0.5,0.7,0.7,1.2l0,0l0.5,0.7c0.3,0.5,0.4,1,0.4,1.6l-0.1,0.4
		c1.5-0.9,3.2-1.6,4.8-2.4s3.4-1.3,4.7-2.5C32.1,34.4,32.1,34.3,32,34.2z"/>
	<path class="st1" d="M33,35.7c-0.1,0.1-0.2,0.1-0.3,0.2c-0.2-0.2-0.4-0.4-0.1-0.7C32.8,35.1,32.8,35.5,33,35.7z"/>
	<path class="st1" d="M25.3,31.3c0.3,0.1-0.2,0.5-0.2,0.7c-0.3-0.1-0.3-0.3-0.3-0.5C24.9,31.2,25.1,31.4,25.3,31.3z"/>
	<path class="st1" d="M33.4,36.3c0.2,0.2,0.4,0.5,0.5,0.7c-0.1,0.2-0.2,0.1-0.3,0.3c-0.2-0.2-0.4-0.5-0.5-0.7
		C33.1,36.4,33.3,36.5,33.4,36.3z"/>
	<path class="st1" d="M14.3,24.8c0.3,0.1-0.1,0.6-0.3,0.3C14,25,14.1,24.9,14.3,24.8z"/>
	<path class="st1" d="M36.8,39.1c0,0.5-0.6,0.9-0.9,1.1c-0.3-0.2-0.4-0.5-0.7-0.8C35.9,39.7,36.4,39.4,36.8,39.1z"/>
	<path class="st1" d="M34.2,37.6c0.1,0.3,0.5,0.6,0.3,0.9c-0.4-0.2-0.3-0.4-0.7-0.6C33.9,37.7,34.1,37.8,34.2,37.6z"/>
	<path class="st1" d="M11.2,24c-0.8,0-1.5,0.3-2.3,0.2C9.6,24,10.4,23.7,11.2,24z"/>
	<path class="st1" d="M35.3,39c0.1,0.1,0,0.2,0,0.2c-0.1,0.1-0.2,0.1-0.4,0C35.1,38.9,35.2,39.1,35.3,39z"/>
	<path class="st1" d="M14.6,26.7c0.1,0.3-0.1,0.6-0.3,1c-0.2-0.2-0.3,0-0.5-0.1c0.3-0.3,0.2-0.6,0.4-0.9
		C14.3,26.6,14.5,26.8,14.6,26.7z"/>
	<path class="st1" d="M23.3,32.4c0.2,0.1,0.3,0.6,0.6,0.5c-0.1,0.4-0.9,0.4-1.2,0.8c-0.2-0.2-0.3-0.5-0.5-0.7
		C22.6,32.7,23,32.7,23.3,32.4z"/>
	<path class="st1" d="M13.4,26.4l0.2,0.1c-0.3,0.3-0.3,0.8-0.6,1C12.9,27.3,13.2,26.8,13.4,26.4z"/>
	<path class="st1" d="M10.5,24.9c0.3,0.1,0,0.3-0.1,0.5c-0.5-0.1-1-0.1-1.4,0.4c-0.1-0.1-0.2-0.3-0.2-0.5C9.3,25,9.9,25.1,10.5,24.9
		z"/>
	<path class="st1" d="M10.7,25.9c0.3,0.6-0.6,1.4-0.6,2c-0.3,0.1-0.2-0.4-0.4-0.6C10.1,26.9,10.4,26,10.7,25.9z"/>
	<path class="st1" d="M14.1,28.2c-0.1,0.2-0.4,0.2-0.6,0C13.6,28.1,13.9,28.2,14.1,28.2z"/>
	<path class="st1" d="M9.9,25.9c0.3,0.2-0.3,0.6-0.4,0.9c-0.1-0.2-0.3-0.5-0.4-0.8C9.3,25.8,9.6,26,9.9,25.9z"/>
	<path class="st1" d="M16.5,30.1c0,0.4-0.6,0.4-0.8,0.7C15.7,30.4,16.3,30.3,16.5,30.1z"/>
	<path class="st1" d="M14.6,29.1c0,0.6-1.2,0.5-1.8,0.4C13.4,28.6,14,29.4,14.6,29.1z"/>
	<path class="st1" d="M15.2,30.1c-0.4,0.5-1,0.8-1.6,0.7C13.9,30.3,14.6,30,15.2,30.1z"/>
	<path class="st1" d="M13.2,30c0,0.6-1.1,1-1.7,0.9C11.7,30.3,12.6,29.9,13.2,30z"/>
	<path class="st1" d="M10.8,29c0.2,0.2-0.2,0.3-0.3,0.5c-0.3-0.1-0.1-0.3-0.2-0.5C10.4,28.8,10.6,29.2,10.8,29z"/>
	<path class="st1" d="M8,28c0.3,0.2,0.5,0.9,0.2,1.5C7.9,29.1,8.2,28.5,8,28z"/>
	<path class="st1" d="M11.7,31.3c0.1,0.2-0.3,0.3-0.3,0.4c-0.1-0.1-0.2-0.3,0-0.4C11.5,31.3,11.6,31.3,11.7,31.3z"/>
	<path class="st1" d="M12.9,32.4c-0.4,0.3-1.2,1.2-1.9,1c0.2-0.3,0.4-0.6,0.5-0.9C12,32.5,12.4,32.5,12.9,32.4z"/>
	<path class="st1" d="M8.9,33.7c0,0.3-0.5,0.8-0.6,1.2C7.9,34.2,8.4,34.1,8.9,33.7z"/>
	<path class="st2" d="M63,21.1c-0.5,2.3-0.8,4.7-1,7.1c-0.1,1.1-0.5,2.6,1.2,2.8c0.1,0.2-0.3,0.5,0.1,0.6c1-1,0.8-2.6,0.9-3.9
		c0.1-1.4,0.2-2.7,0.3-4c1.1,1.6,1.7,3.9,3,5.7c-0.3,1.6-0.9,3.2-1.2,4.8c-4.5-0.4-9.1-0.9-13.7-1.6c-1.6-0.2-3.1-0.7-4.7-1.1
		c-6.3-1.7-12.5-2-18.6-3.5c0.8-0.6,2.2-0.8,2.4-2.1c0.2,0.1,0.4,0.2,0.6,0.2c1.2-0.7,1.3-2.5,1.6-4.1c0.8-3.3,2-7.2,1.8-10.2
		c-0.2,0.5-0.6,0.5-1,0.3c-1,0.6-1.4,2.2-1.5,3.1c-1.3,0.7-2.5,1.5-3.8,2.1c0.4-1.5,0.7-3,0.5-4.3c-0.3-0.3-0.9-0.6-0.6-1
		c-0.8,0.1-1,1.4-1.2,2.1c-1,0.5-2.1,0.7-3,1.9c0.2-1.5,0.7-3.2,0.9-4.7c-0.1-0.2-0.5-0.5-0.7-0.3c0.1-0.4,0.7-0.8,1-1.1
		c5.3,0.2,10.2,1.9,15.3,2.4c2.5,0.2,5,0.2,7.4,0.3c1.3,0,2.5,0.1,3.7,0.1s2.3-0.2,3.6-0.2c0.9,0,2.4,0.8,3.4,0.8
		c0.4,0.9-0.2,1.7,0,2.6c0.2,0.8,1,1.8,1.5,2.6C61.7,19.5,62.5,20.3,63,21.1z M59.7,19.7c-0.3,0.4-0.4,1.9-0.6,2.7
		c-0.5,2.1-0.8,3.5-1.2,5.4c-0.2,0.8-0.7,2.3-0.1,2.6c0.5,0.3,2.4-0.6,2-1.5c0.1,0.4,0.2,0.8,0.3,1.1c0.6-1.1,0.6-2,0.7-3.1
		c0.3-2.6,0.7-5.3,0.7-7.7l-0.2-0.1C61.1,19.9,60.1,19.1,59.7,19.7L59.7,19.7z M51.9,27.6c0.6,0.2,1-0.2,1.4-0.7
		c-0.1-0.1-0.1-0.3-0.4-0.4C52.6,26.6,51.6,27.2,51.9,27.6z M52.1,16.8c-0.6,0.6-0.8,2.1-1,3c-0.5,2.1-0.7,3.9-1,5.9
		c-0.1,0.9-0.7,2.5-0.1,2.9c0.3,0.2,1.3,0,1.6-0.5c0.4-0.6,0.4-1.8,0.6-2.7c0.6-2.9,1.2-6.2,1.5-8.5c-0.2-0.3,0.1-0.8-0.4-1.1
		C53.2,16.5,52.5,16.3,52.1,16.8z M55.4,18.2c-0.1,0.2,0.5,0.2,0.2,0.4c-1.2,3-1.6,6.2-1.9,9c-0.1,0.8-0.6,2.3,0.5,2.8
		c1.3-1,1.4-2.5,1.7-3.9c0.6-2.6,1.5-5.5,1.5-7.9C56.8,17.7,55.9,17.6,55.4,18.2L55.4,18.2z M46.8,15.9c-0.2,0.3,0.3,0.4,0.1,0.7
		c-0.9,2.8-1.5,6.4-2,9.4c-0.2,1.1-0.8,4,1.1,2.8c0.2,0.3,0.4,0.3,0.7,0.2c0.9-4.5,2.6-9,2.3-13.2C48.4,15.5,47.5,15.5,46.8,15.9
		L46.8,15.9z M44.6,18.1c0.1-0.5,0.6-2.4,0.2-2.8s-1.3-0.2-1.6,0.2c-0.5,0.6-0.7,1.9-0.8,2.7c-0.7,2.8-1.2,5.7-1.8,8.2
		c0.4,0.2-0.1,0.6,0.4,0.8c0.3,0.2,0.4-0.2,0.7-0.2c0.1,0.2,0.4,0.3,0.7,0.4c0.2-0.3,0.6-0.3,0.8-0.7C43.5,23.8,44.1,21,44.6,18.1
		L44.6,18.1z M38.4,13.3c-0.2,0.5-0.6,0.4-0.8,0.9c0,0.3,0.2,0.2,0.3,0.4c-0.8,3.8-2,7.6-2.3,11.2c0.1,0.1,0.2,0.2,0.2,0.3
		c0.4,0.1,1,0.1,1.2,0.6c1.4-0.6,1.4-2.6,1.6-3.9c0.5-2.9,1.4-6.3,1.4-8.9C39.6,13.7,39.1,13.6,38.4,13.3L38.4,13.3z M66.1,31.6
		c-0.8,0.6-2,0.8-2.5,1.5c0.3,0.3,0.4-0.1,0.6,0c0.7,0.6,1.5-0.3,2.2-1c-0.1-0.1,0-0.2,0-0.3L66.1,31.6z M37.3,28.4
		c-0.7,1.9,3.6,0,1.6-0.7C38.2,27.5,37.6,27.8,37.3,28.4L37.3,28.4z"/>
	<path class="st2" d="M56.7,38.9c0.1-0.6,0.7-1.2,1.1-1.4c0.1-0.2-0.1-0.3-0.1-0.5c-0.6-0.3-1,0.3-1.4,0.8c0.3,0.3,0.3-0.2,0.6,0
		c-0.7,1-1.5,1.9-2.4,2.2c0.2-0.6,1-1.4,1.4-1.9c-1.5,0.2-2.4,2.9-3.8,3.4c0.4-0.8,1.5-2.1,2-2.6c-0.2-0.2-0.2,0.2-0.5-0.1
		c-1.3,1-2.8,1.3-4.2,2.1c-0.3-0.1-0.1-0.3-0.1-0.5c-1.9-1.5-3-3.6-4.4-5.4c-0.2-0.1-0.4-0.2-0.7-0.2c-0.3-0.1,0-0.3-0.2-0.4
		c-2.8,0.9-5.3,3.2-8.2,3.9c0.1-0.2,0.3-0.4,0.2-0.6c-0.2-0.2-0.5,0.2-0.6-0.1c-0.6-1.5-1.2-3-2.9-4.2c-0.2-0.1-0.1-0.2,0-0.3
		c-0.5-0.1-0.6-0.2-1-0.3c-2.4,0.7-4.5,2.5-6.9,3.2c-0.4-0.2,0-0.4,0.2-0.6c-0.2-0.1-0.4,0.3-0.7,0.1c-0.2-0.4-0.6-0.8-1-1.1
		c0.5-0.5,1.1-0.6,1.5-1.3c0.5,0.1,0.9,0.2,1.3-0.2c-0.2-0.5,0.3-1.2,0.1-1.7c-0.5,0-0.7-0.4-0.9-0.5c-0.8-0.2-0.9,0.4-1.5,0.9
		c-0.3,0.2-0.7,0.4-1.1,0.6c-0.4,0.2-0.8,0.5-1.1,0.1c0.4-0.4,0.8-0.4,1.3-0.4c0.3-0.6,0.7-0.7,0.9-1.2c-0.7,0-1.8,0-2.6,0.5
		c-0.3,0.3,0.1,0.3,0,0.6c-0.3-0.1-0.4-0.3-0.5-0.5c0.6-0.5,1.9-1,2-1.8c-1.1,0.5-2.1,1.7-3.4,1.1c0.3-0.3,1-0.6,0.9-1.1
		c-0.5,0.1-1,0.8-1.8,0.5c0.1-0.2,0.2-0.1,0.3-0.2c0.1-0.2-0.2-0.3-0.4-0.5c0.1-0.3,0.3,0,0.4-0.3c-1.1-0.8-2.1-0.8-3-1.2l0.4-0.7
		c2.7,0.7,6.4,1.4,8.8,3.3c5.5,0.9,11,1.7,16.6,2.3c5.5,0.6,11.1,2.7,16.6,2.4c0.2,0.2,0.3,0,0.5,0.1c0.2,0,0.3-0.1,0.5-0.1
		c2.5,0.7,4.8,0.6,7.1,0.4c-0.3,1.7-0.8,3.4-0.9,5c-0.8,0.8,0,1.7-0.4,2.7c-0.7-0.3-1.1,0.7-1.7,0.6c0-0.7,1.3-1.1,1.4-1.8
		c-0.8-0.4-1.4,0.6-2,1.1c-0.2-0.1-0.3-0.3-0.4-0.5c0.5-0.5,0.9-1,1.4-1.1c-0.2-0.8-0.9-2.3-1.9-2.7c-0.8-0.3-1.4,0.6-2.1,1.1
		l-0.5-0.3c0.5-0.7,1.4-0.9,1.7-1.8c-0.8-0.2-1.7,0.8-2.1,1.5c-0.3-0.1-0.5-0.3-0.4-0.5c-0.3,0.1-0.7,0-1,0.2
		C57.7,38.7,57.3,38.1,56.7,38.9z M63.1,39.4c0.6,0.2,1.3-1.1,1.4-1.7c-0.1-0.2-0.5,0-0.5-0.3c0.2-0.4,0.3-0.8,0.2-1.2L63.8,36
		C62.9,37.1,62.9,38.4,63.1,39.4z M50.9,36c-0.3,0.1-0.7,0.7-0.7,1c0.2,0.6,1.3,1.1,1.9,1c0.3-0.4,0.5-0.9,0.4-1.4
		C51.9,36.2,51.4,36.3,50.9,36L50.9,36z M36.6,33.3c-0.6,0.5-0.9,1.3-0.3,1.7c0.5,0,0.9,0.2,1.3,0.5c0.5-0.1,0.9-0.5,1.3-1.2
		C38.7,33.2,37.3,33.4,36.6,33.3L36.6,33.3z"/>
	<path class="st1" d="M60,34.4c-2.9,0.4-6.7-0.4-10.3-1.1c-2.3-0.5-4.7-1-7-1.4c-4.7-0.8-9.4-1-13.8-1.6c0.1-0.4,0.9-0.3,1.2-0.7
		c-0.7-0.3-1.7,0.7-2.6,0.5c0-0.3,0.6-0.3,1-0.4c0.5-0.2,0.9-0.5,1.2-0.5c5.9,2.1,11.7,1.1,17.7,3C51.5,33.4,55.8,34.2,60,34.4z"/>
	<path class="st1" d="M19.6,14.3c0,0.3-0.1,0.6-0.2,0.8c-1.6,1.1-3.1,2.2-4.7,3.2C16.2,16.9,17.8,15.6,19.6,14.3z"/>
	<path class="st1" d="M51.1,41.2c-0.1,0.8-1.3,1.8-2.3,2c0.1-0.3,0.3-0.4,0.5-0.6c0.2,0.2,0.3,0,0.4,0.2
		C50.3,42.3,50.7,41.8,51.1,41.2z"/>
	<path class="st1" d="M25.3,27.8c-1,0.2-2,0.4-3,0.5C23.1,28.2,24.2,27.3,25.3,27.8z"/>
	<path class="st1" d="M20,26.4c-1,0.2-2.2,0-3.2,0.1C17.8,26.1,18.9,26.1,20,26.4z"/>
	<path class="st1" d="M16.6,29.4c-0.2,0.3-1.1-0.2-1.5,0.1C15.2,28.9,16.2,29.5,16.6,29.4z"/>
	<path class="st1" d="M64.2,45.3c-0.1,0-0.1-0.1-0.2-0.2c-0.1-0.6,0.9-0.9,0.7-1.6c-0.4,0.5-0.8,0.6-1.1,1.2
		c0.1,0.2,0.2,0.4,0.3,0.6H64.2z"/>
	<path class="st1" d="M59.1,44c0.2,0.1,0.4,0.1,0.6,0.2l0.2,0.1c0.2,0.1,0.5,0.2,0.7,0.4l0.1,0.1c0.2,0.1,0.3,0.3,0.5,0.4l0.1,0.1
		c0.1,0.1,0.3,0.3,0.4,0.4c0.4-0.1,0.8-0.2,1.3-0.2c-0.6-0.5-1.1-1-1.6-1.5c-0.2,0.3,0.4,0.8-0.1,1c-0.3-0.9-1.1-1.7-1.8-2.5
		c-0.7-0.9-1.5-1.7-2.5-2.4c-2.4,1.5-4.9,2.8-7.5,4c-0.3,0.3-0.1,0.7-0.5,0.8c-3.6-1.3-4.7-4.6-6.4-7c-1.4,0.9-2.9,1.6-4.4,2.5
		c-0.8,0.5-1.7,1.3-2.3,1.4c-1,0.2-2.5-1.9-3.1-2.7c-0.7-1-1.1-2-1.7-3c-2.7,1.4-5.2,3.1-8,3.9L23,40.1c0.7,0.1,1.5,0.2,2.2,0.1
		c-0.4,0-0.2,0,0,0c0.1-0.1,0.3-0.2,0.4-0.3c1.9-1.6,5-1.3,6.9-0.1c1,0.6,1.8,1.5,2.3,2.7c0.3-0.2,0.7-0.4,1-0.5
		c0.5-0.4,1.1-0.7,1.7-0.8c0.9-0.2,1.8-0.4,2.8-0.6c3.3-0.6,5.5,1.4,6.3,4c1.8,0.8,3.7,1.2,5.6,1.2l0.1-0.1l0.2-0.2
		c0-0.1,0.1-0.1,0.2-0.2l0.2-0.2l0.2-0.2c0.1,0,0.1-0.1,0.2-0.2c0.1,0,0.2-0.1,0.3-0.2l0.1-0.1c0.1-0.1,0.3-0.2,0.5-0.3
		c0,0,0.1,0,0.2-0.1c0.1,0,0.2-0.1,0.3-0.1l0.2-0.1c0.1,0,0.2-0.1,0.3-0.1h0.2c0.1,0,0.2,0,0.3-0.1h0.2h0.4c0.1,0,0.2,0,0.2,0
		c0.1,0,0.3,0,0.4,0h0.2c0.2,0,0.5,0,0.7,0.1c0.3,0,0.6,0.1,0.9,0.2L59.1,44z"/>
	<path class="st1" d="M7,26.5c0,0.4,0,0.8,0,1.2C6.9,27.3,6.9,26.9,7,26.5z"/>
	<path class="st1" d="M12.1,32.1c0.2-0.6,1.4-1.4,1.8-0.6c0.3,0.1,0.5-0.1,0.7-0.2c0.2,0.1-0.6,0.4-0.8,0.7
		C13.1,31.9,12.6,32,12.1,32.1z"/>
</g>
</svg>
