<?xml version="1.0" encoding="utf-8"?>
<!-- Generator: Adobe Illustrator 26.0.1, SVG Export Plug-In . SVG Version: 6.00 Build 0)  -->
<svg version="1.1" id="Слой_1" xmlns="http://www.w3.org/2000/svg" xmlns:xlink="http://www.w3.org/1999/xlink" x="0px" y="0px"
	 viewBox="0 0 112.8 82.4" style="enable-background:new 0 0 112.8 82.4;" xml:space="preserve">
<style type="text/css">
	.st0{fill-rule:evenodd;clip-rule:evenodd;fill:#713F13;}
	.st1{fill-rule:evenodd;clip-rule:evenodd;fill:#FFFFFF;}
	.st2{fill-rule:evenodd;clip-rule:evenodd;fill:#DE7C29;}
	.st3{fill:#713F13;}
	.st4{fill:#DE7C29;}
</style>
<g>
	<path class="st0" d="M95.3,65.6l-0.3,0c-0.2,0.1-0.5,0.1-0.8,0.2c-0.4,0-0.8,0-1.2,0c-0.1,0-0.2,0-0.3,0.1c-0.5,0.1-0.9,0.1-1.4,0
		l-0.2,0l-0.1,0c-0.6,0.1-1.2,0-1.8-0.2c-0.6,0.5-1.3,0.8-2,0.9c-0.4,0-0.8,0-1.2,0c-0.6,0.7-1.4,1.1-2.3,1.2
		c-0.7,0.1-1.4,0-2.1-0.2l-0.2,0.1l-0.1,0.1c-0.8,0.6-1.7,0.9-2.6,0.8c-0.4,0.2-0.9,0.4-1.3,0.4c-0.2,0-0.5,0-0.7,0
		c-0.2,0.1-0.5,0.1-0.7,0.2c-0.3,0-0.6,0-0.9,0c-0.3,0.1-0.6,0.2-0.8,0.2c-0.6,0.2-1.1,0.3-1.7,0.4c-0.3,0-0.7,0-1,0
		c-0.3,0.1-0.7,0.2-1.1,0.3c-0.2,0-0.5,0-0.7,0c-0.2,0.1-0.4,0.1-0.7,0.1c-0.5,0.1-1,0-1.5-0.1c-0.3,0.1-0.7,0.2-1,0.3
		c-0.5,0.1-1,0-1.5,0c-0.2,0-0.4,0.1-0.6,0.1c-0.6,0.1-1.2,0-1.8-0.2c-0.8,0.6-1.5,1.3-2.2,2c1.3,1.9,2.7,3.7,4.2,5.3
		c1,1,2.3,0.3,3.5,0c0.8-0.2,1.7-0.4,2.5-0.6c1.6-0.3,3.4-0.9,5-1c1.1-0.1,2.3,0.2,3.5,0.3c1.1,0,2.3,0,3.4,0c1.1,0.1,2.2,0,3.2-0.1
		c0.9-0.2,1.7-0.7,2.7-1c0.3-0.1,0.5-0.2,0.8-0.2c1,0.1,2,0.4,3,0.7c0.8,0.3,1.3,1.1,2.1,1c0.3-0.2,0.4-0.6,0.7-0.8
		c0.3-0.3,0.6-0.4,0.8-0.8c0.6-1.1,0.9-2.3,1.1-3.5c0.1-0.5,0-1,0-1.6c0.1-0.8,0.3-1.7,0.6-2.5c0.1-0.3,0.2-0.7,0.4-1.1
		C96.9,66.4,96.1,66.1,95.3,65.6z"/>
	<path class="st1" d="M96.9,66.4c0.1,0.1-0.1,0.4-0.1,0.6c-4.9,0.3-9.2,1.7-14.1,2.3c2.3-0.5,4.5-1.2,6.9-1.7s4.8-0.7,7.2-1.1
		C96.8,66.4,96.9,66.4,96.9,66.4z"/>
	<path class="st2" d="M96.3,67.3c-0.2,1.4-1.4,2.7-1.9,4c-0.3-0.1-0.3-0.2-0.6-0.2c0.2,0.2,0.5,0.6,0.2,1c-0.3,0-0.5-0.7-0.9-0.6
		c0,0.3,0.6,0.7,0.6,1.1c-0.2,0-0.3-0.4-0.7-0.4c-0.1,0.3,0.4,0.6,0.5,0.8c-0.2,0.3-0.3,0.8-0.4,1.1c-1.3-1-2.4-1.6-4.6-1.9
		c-0.7-0.1-1.6,0.9-2.3,1c-0.4,0.1-0.8,0-1.3,0.1c-1.2,0.2-2.4,0.5-3.6,0.6c0.5-0.5,0.8-1.3,1.2-2c-0.6,0.5-1.3,1.2-1.5,2.1
		c-0.3,0-0.5,0.1-0.8,0c0.5-0.5,0.9-1.1,1.2-1.8c-0.6,0.3-1.3,1.3-1.3,1.8c-4.1,0.4-9.3-0.2-13.8-0.1c-0.6,0-1.5,0.2-1.9,0
		c-0.6-0.2-1-0.9-1.5-1.3c2.4-0.3,4.8-0.7,7.4-0.9c0.1,0.1-0.2,0.2-0.1,0.4c0.2,0,0.3-0.3,0.4-0.4c2.2-0.4,4.5-0.3,6.6-0.9
		c2-0.6,4.1-1.1,6.2-1.5C87.6,69,91.9,68,96.3,67.3L96.3,67.3z M92.3,69.8c-0.2,0.4-0.6,0.8-0.3,1.2c0.6-0.7,0.9-1.5,1.1-2.4
		c0,0,0-0.1-0.1-0.1C92.6,68.9,92.4,69.4,92.3,69.8z M92.9,69.7c-0.2,0.3-0.5,0.8-0.2,1c0.4-0.6,0.7-1.3,0.8-2
		C93.3,69.1,93,69.4,92.9,69.7L92.9,69.7z M91.2,70.7c0.3,0,0.3-0.4,0.4-0.7c0.2-0.5,0.7-1,0.5-1.4C91.7,69.1,91.1,69.9,91.2,70.7
		L91.2,70.7z M93.2,71c0.3,0,0.6-0.9,0.5-1C93.6,70.4,93.1,70.5,93.2,71L93.2,71z M87.8,69.7c0.1,0.2,0.6,0.3,0.7,0.1
		C88.8,69.2,87.7,69.1,87.8,69.7L87.8,69.7z M92.3,72.3c0.5,0.1,0.3,1,0.8,1.2C93.4,73,92.8,72.2,92.3,72.3L92.3,72.3z M85.8,71.6
		c1.1,0.1-0.1-1.9-0.4-0.3C85.5,71.4,85.5,71.5,85.8,71.6z M84.2,71.7c0.3-0.1,0.4-0.5,0.5-0.8C84.3,70.1,83.3,71.5,84.2,71.7
		L84.2,71.7z M79.4,73.9c0.7-0.2,1.1-1.4,1.5-2.3c-0.1,0,0-0.1-0.1-0.1C80.3,72.3,79.7,72.9,79.4,73.9L79.4,73.9z M79.8,71.8
		c-0.4,0.4-1.4,1.2-1.2,1.9c0.5-0.6,1-1.2,1.4-1.8L79.8,71.8z M77,71.9c0,0.5-0.1,1.1,0.3,1.3C77.8,73,77.6,71.5,77,71.9L77,71.9z
		 M76.3,73.4c0.2-0.3,0.2-0.8,0.1-1.1C75.7,72.1,76.2,73.1,76.3,73.4L76.3,73.4z"/>
	<path class="st1" d="M95.9,69.7c-0.1,0.8-0.4,1.6-0.7,2.3c-0.4-0.2,0-0.7,0.1-1.1C95.5,70.5,95.7,70.1,95.9,69.7z"/>
	<path class="st1" d="M95.1,72.4c-0.3,0.9-0.7,1.7-1.1,2.5c-0.2-0.3,0.1-0.9,0.3-1.3s0.4-0.9,0.5-1.2C95,72.4,95,72.3,95.1,72.4z"/>
	<path class="st1" d="M89,73.5l0.3,0.1c0,0.2,0,0.5,0,0.8c-0.2,0-0.3,0.2-0.5,0C89,74,88.9,73.8,89,73.5z"/>
	<path class="st1" d="M90,73.8l0.2,0c0,0.2,0,0.3,0,0.5C89.9,74.2,89.9,74,90,73.8z"/>
	<path class="st1" d="M75.7,70.4c0.1,0.4-0.8,0.6-1.3,0.6C74.8,70.7,75.2,70.5,75.7,70.4z"/>
	<path class="st1" d="M88.3,73.4c-0.1,0.4-0.2,0.7-0.2,1.1c-0.4,0.1-0.8,0.1-1.2,0.2C87.2,73.8,87.6,73.4,88.3,73.4z"/>
	<path class="st1" d="M90.6,74c0.3,0.1,0.6,0.2,0.8,0.4l-0.1,0.3c-0.3-0.1-0.6-0.2-0.9-0.3C90.5,74.2,90.6,74.2,90.6,74z"/>
	<path class="st1" d="M91.9,74.6c0.3,0.1,0.5,0.3,0.5,0.6c0.2-0.1,0.2-0.1,0.4,0c0,0.1-0.1,0.1-0.1,0.2c-0.3-0.1-0.6-0.3-1-0.5
		L91.9,74.6z"/>
	<path class="st1" d="M74.2,70.6c0.2,0.2-0.5,0.2-0.6,0.4c-0.1,0.1-0.2,0.2-0.5,0.2C73.5,70.9,73.8,70.6,74.2,70.6z"/>
	<path class="st1" d="M86.8,74c0.2,0.1-0.2,0.6-0.3,0.8c-0.2,0-0.4,0-0.5,0.1C86,74.5,86.3,74.1,86.8,74z"/>
	<path class="st1" d="M93.6,75.9c-0.1,0.1-0.5-0.1-0.4-0.3C93.3,75.5,93.5,75.8,93.6,75.9z"/>
	<path class="st1" d="M72.9,70.8c-0.3,0.2-0.6,0.6-1,0.6C72.3,71.1,72.6,70.9,72.9,70.8z"/>
	<path class="st1" d="M71.9,70.8c0.1,0.2-0.5,0.4-0.8,0.5c0.1-0.1,0.3-0.3,0.3-0.4C71.6,70.9,71.8,70.9,71.9,70.8z"/>
	<path class="st1" d="M85.8,74.3c0.1,0.1-0.2,0.7-0.4,0.8C85.3,74.8,85.5,74.3,85.8,74.3z"/>
	<path class="st1" d="M71.2,70.9c0.1,0.5-0.7,0.8-1.2,0.7C70.4,71.3,70.8,71.1,71.2,70.9z"/>
	<path class="st1" d="M70.2,71c0.1,0.3-0.7,0.3-0.9,0.8c-0.3,0-0.6,0.1-0.9,0.1C69,71.5,69.4,71,70.2,71z"/>
	<path class="st1" d="M85,74.5c0.1,0.2-0.2,0.9-0.6,0.8c0.1-0.2,0.2-0.5,0.3-0.7C84.8,74.6,84.9,74.6,85,74.5z"/>
	<path class="st1" d="M84.2,74.8c-0.2,0.1-0.2,0.6-0.5,0.6C83.8,75,83.8,74.6,84.2,74.8z"/>
	<path class="st1" d="M83.3,74.9c0.1,0.1-0.2,0.4-0.2,0.5l-0.3-0.1l0.1-0.3C83,74.9,83.2,74.9,83.3,74.9z"/>
	<path class="st1" d="M82.4,75c0,0.3-0.3,0.2-0.6,0.2C81.9,74.9,82.2,75,82.4,75z"/>
	<path class="st1" d="M66.6,70.4c0.6,0,1.2-0.1,1.8-0.1c-0.3,0-0.6,0-0.9-0.1C67.2,70.3,66.9,70.4,66.6,70.4z"/>
	<path class="st1" d="M65.6,70.5c-0.2,0-0.4,0-0.6-0.1c-0.2,0-0.4,0.1-0.6,0.1c-0.6,0.1-1.2,0-1.8-0.1c-0.4,0.3-0.8,0.7-1.2,1
		c0.2,0.2,0.4,0.4,0.5,0.6c0.6-0.9,2.1-0.8,2.9-1.1c-0.6,0-1.5,0.1-2,0.1C63.6,70.5,64.6,70.5,65.6,70.5z"/>
	<path class="st1" d="M95.3,65.4l-0.3,0c-0.2,0.1-0.5,0.1-0.8,0.2c-0.4,0-0.8,0-1.2,0c-0.1,0-0.2,0-0.3,0.1c-0.5,0.1-0.9,0.1-1.4,0
		c-0.1,0-0.1,0-0.2,0l-0.1,0c-0.6,0.1-1.2,0-1.8-0.2c-0.6,0.5-1.3,0.8-2,0.9c-0.4,0.1-0.8,0.1-1.2,0c-0.6,0.7-1.4,1.1-2.3,1.2
		c-0.7,0.1-1.4,0-2.1-0.2l-0.2,0.1c0,0-0.1,0-0.1,0.1c-0.8,0.6-1.7,0.9-2.6,0.8c-0.4,0.2-0.9,0.4-1.3,0.4c-0.2,0-0.5,0-0.7,0
		C76.1,69,75.6,69,75,69c-0.3,0.1-0.6,0.2-0.8,0.2c-0.6,0.2-1.1,0.3-1.7,0.4c-0.3,0-0.7,0-1,0c-0.3,0.1-0.7,0.2-1.1,0.3
		c-0.2,0-0.5,0-0.7,0c-0.1,0-0.3,0.1-0.4,0.1c1.8-0.2,3.6-0.4,5.3-0.4c0.6,0,1.2,0,1.8,0c1.1,0,2.1-0.5,3-0.8
		c1.1-0.3,2.3-0.5,3.5-0.7c4.3-0.8,8.9-2.1,13.5-2.3C96,65.8,95.7,65.6,95.3,65.4z"/>
	<path class="st1" d="M79,69.9c-1,0.4-2,0.6-3,0.8C76.7,70,78,70.2,79,69.9z"/>
	<path class="st1" d="M67,71.3c-0.2,0.2-0.5,0.3-0.8,0.5c0.9,0.3,1.4-0.8,2.3-0.6c-0.2,0.3-0.7,0.2-0.8,0.7c-0.9,0-1.8,0.1-2.7,0.4
		C65.6,71.9,66.2,71.2,67,71.3z"/>
	<path class="st1" d="M64.1,71.7c0,0.3-0.7,0.3-0.6,0.8c0.8,0,1.1-1,2-1c-0.1,0.3-0.7,0.5-0.9,0.8c0,0.1,0.1,0,0.2,0
		c-0.7,0.2-1.4,0.3-2.2,0.5c-0.3-0.2-0.5-0.4-0.6-0.7c0.4,0,0.6-0.3,1-0.3c-0.1,0.3-0.5,0.4-0.5,0.8C63.2,72.5,63.4,71.6,64.1,71.7z
		"/>
	<path class="st1" d="M65.2,76c1.4-0.2,2.9-0.1,4.3-0.3c0.1,0.2-0.2,0.1-0.2,0.1c-0.7,0.2-1.5,0.3-2.3,0.4c-0.3,0.1-0.6,0.2-0.8,0.2
		C65.7,76.4,65.6,76,65.2,76z"/>
	<path class="st0" d="M95.6,40c0.1-0.9,0.5-2.1,0.8-3.2c0.3-1.1,0.7-2.3,1-3.3c0.8-2.6,2.8-6.4,0.6-8c-0.6-1.8-1.7-3.7-2.6-5.7
		c-1.5-3.3-3.4-5.4-3.9-8.7c-0.2-1.2,0-2.6-1.2-3c-4.3-1.5-9.1-1.4-13.5-2.1c-0.3,0.3,0.3,0.4,0.3,0.6c-3.1-0.2-6.2,0.2-9.5-0.6
		c-0.1,0-0.1,0-0.2,0c-2.1-0.7-3.8-1.3-5.8-1.5c-1.9-0.2-3.8-0.5-5.7-0.8c-0.7-0.1-1.6-0.5-2-0.3c-0.5,0.3-0.4,0.8-0.8,1.4
		c-0.5,0.6-1.7,1.4-2.6,2.1c-0.9,0.7-1.9,1.3-2.7,1.8c-1.8,1.2-3.6,3-5.2,4.1c-0.6,0.4-1.3,0.6-1.9,1.1c-0.7,0.5-1.3,0.8-2,1.3
		c-1.2,0.8-3.1,2.3-3.6,3.6c-0.2,0.5,0.1,1.3,0.1,1.9c0,0.9-0.5,2.1-0.5,3c0,1.1,0.3,2.5,0.4,3.7c0.2,1.3,0.8,2.6,0.7,3.7
		c0,0.3-0.1,0.7-0.2,1c1.3-0.1,2.7,0.1,3.8,0.9c0.8-0.9,1.8-1.5,3-1.8c0.1-0.1,0.2-0.2,0.2-0.3c0.2-0.3,0.5-0.6,0.9-0.8
		c0.6-1.4,2.2-2.1,3.7-1.6c0.9,0.2,1.7,0.9,2,1.8c0.2,0.4,0.3,0.8,0.4,1.2c0.1,0.1,0.2,0.2,0.3,0.3c0.3,0.3,0.5,0.7,0.7,1.2l0,0
		l0.5,0.7c0.3,0.5,0.4,1,0.4,1.6c0,0.3-0.1,0.6-0.1,0.8c0,0,0,0.1,0,0.1l0.2,0c0.8,0.2,1.5,0.2,2.3,0.2c-0.4,0-0.2,0,0,0
		c0.1-0.1,0.3-0.2,0.4-0.3c1.9-1.6,5-1.3,6.9-0.1c1,0.6,1.8,1.5,2.3,2.7c0.3-0.2,0.7-0.4,1-0.5c0.5-0.4,1.1-0.7,1.7-0.8
		c0.9-0.2,1.8-0.4,2.8-0.6c3.3-0.6,5.5,1.4,6.3,4c0.6,0.3,1.2,0.5,1.8,0.7c1.2,0.4,2.5,0.6,3.8,0.6l0.1-0.1l0.1-0.1
		c0.1-0.1,0.2-0.2,0.3-0.4l0.1-0.1c0.1-0.1,0.2-0.2,0.3-0.2l0.1-0.1c0.1-0.1,0.2-0.1,0.3-0.2l0.1-0.1c0.1-0.1,0.3-0.2,0.5-0.3l0.1,0
		c0.1-0.1,0.3-0.1,0.4-0.2l0.2,0c0.1,0,0.3-0.1,0.4-0.1c0,0,0.1,0,0.1,0c0.2,0,0.4-0.1,0.6-0.1h0c0.2,0,0.4,0,0.5,0h0.2h0.5h0.2
		c0.2,0,0.4,0,0.7,0.1c0.3,0,0.6,0.1,0.9,0.2l0.2,0.1c0.2,0.1,0.4,0.1,0.6,0.2l0.2,0.1c0.2,0.1,0.5,0.2,0.7,0.4l0.1,0.1
		c0.2,0.1,0.3,0.3,0.5,0.4l0.1,0.1c0.1,0.1,0.3,0.3,0.4,0.4c0.5-0.1,0.9-0.2,1.4-0.2c1.4,0,2.8-0.2,4.2-0.2
		C95.7,40.9,95.6,40.4,95.6,40z"/>
	<path class="st1" d="M89.5,9.8c0.2,0.5,0.3,0.9,0.3,1.4C89.5,11.1,89.3,10.1,89.5,9.8z"/>
	<path class="st1" d="M92.2,18.2c0.3,0.2,0.2,0.4,0.5,0.6c-0.9,2.6-0.7,5.2-1.1,7.5c-0.4-0.5-0.2-1.3-0.2-1.9
		C91.5,22.3,91.8,20.3,92.2,18.2z"/>
	<path class="st1" d="M88.9,16.3c-0.1,2.9-1,6-1.3,9c-0.2,0.1-0.5,0.1-0.8,0c0.7-2.8,0.7-5.5,1.9-8.4c0.1-0.2-0.4-0.3-0.1-0.6
		C88.7,16.3,88.8,16.4,88.9,16.3z"/>
	<path class="st1" d="M84.6,14.9c-0.1,3-1.2,6.3-1.8,9.4C83,21.1,83.6,18,84.6,14.9z"/>
	<path class="st1" d="M81.1,13.2c-0.1,3.2-1.4,6.7-2.1,10.1c0.4-2.6,0.7-6.4,1.5-9.2C80.6,13.8,80.8,13.5,81.1,13.2z"/>
	<path class="st1" d="M74.1,24.2c0.2-3.9,0.9-7.8,2.2-11.6c0.1,0,0.2,0,0.3,0.1c-0.5,2.8-1.1,5.9-1.7,8.8
		C74.8,22.4,74.7,23.5,74.1,24.2z"/>
	<path class="st1" d="M72.3,12c0.1,0,0,0.1,0,0.1c0.1,0,0,0.1,0,0.1c-0.1,2.4-0.9,5.1-1.5,7.7c-0.2,0.8-0.2,1.8-0.8,2.3
		c-0.3-0.8,0-1.7,0.2-2.5c0.5-2.4,1.2-5.1,1.8-7.6C72.1,12,72.3,12.2,72.3,12z"/>
	<path class="st1" d="M67.6,10.7l0.2,0.1c-0.1,0.3-0.4,0.3-0.5,0.6C67.1,11.2,67.4,10.9,67.6,10.7z"/>
	<path class="st1" d="M67.6,12.1c0.3,0.6-0.2,1.1-0.7,1.5C66.6,13,67.2,12.7,67.6,12.1z"/>
	<path class="st1" d="M63.3,10.1c0.1,0.2,0.1,0.4,0,0.5c-0.2,0-0.4,0-0.5,0.1C62.7,10.4,63.2,10.3,63.3,10.1z"/>
	<path class="st1" d="M67.3,13.9c0.1,0,0.1,0.1,0.2,0.2c-0.2,0.4-0.6,0.2-0.8,0.7C66.6,14.4,67.2,14.3,67.3,13.9z"/>
	<path class="st1" d="M62.9,11.5c0.2,0.1-0.1,0.4,0,0.6c-0.2,0.1-0.3,0.3-0.5,0.2C62.4,12,62.6,11.7,62.9,11.5z"/>
	<path class="st1" d="M67.1,15.1c0.1,0.8-0.2,1.4-0.9,2C66,16.5,66.5,15.7,67.1,15.1z"/>
	<path class="st1" d="M57.4,9.3c0.1,0,0.1,0.1,0.1,0.2c-0.1,2.3-0.3,4.9-1.5,7.2c0.3,0.6-0.2,1.9-0.4,2.7
		C55.9,16.1,56.7,12.7,57.4,9.3z"/>
	<path class="st1" d="M62.6,12.9c0.1,0.4-0.1,1.2-0.5,1.4C62,13.7,62.2,13.2,62.6,12.9z"/>
	<path class="st1" d="M61.1,12.3l0.2,0.1c-0.4,1.8-2.7,2.2-4,3.1C57.6,13.5,59.9,13.4,61.1,12.3z"/>
	<path class="st1" d="M53,7.7c0.1,0,0.1,0.1,0.2,0.2c-0.5,3.3-0.9,7-2,10.2c-0.1-2.2,0.5-4.8,0.9-7.4C52.2,9.6,52,8.5,53,7.7z"/>
	<path class="st1" d="M56.2,10.8c0,1.7-2.1,2.2-3.2,2.9C53.1,11.9,55.1,11.7,56.2,10.8z"/>
	<path class="st1" d="M66.7,17.3c-0.1,1.6-0.5,3.1-1.1,4.5c-0.7-0.1-0.2-1.1-0.1-1.6C65.7,19.1,65.7,18.1,66.7,17.3z"/>
	<path class="st1" d="M62.2,14.8c0,0.3,0,1.3-0.7,1.1C61.6,15.4,61.8,15,62.2,14.8z"/>
	<path class="st1" d="M60.8,14.1c0.2,0.3-0.1,0.7-0.1,1c-1.2,0.6-2.4,1-3.6,1.9C57.8,15.5,59.7,15.1,60.8,14.1z"/>
	<path class="st1" d="M51.6,9c-0.3,3.5-1.9,7.3-1.1,10.6c0.3,0.2,0.6-0.2,0.6-0.5c0.3,0.8-1,0.9-1.4,1.2c0.8,0.6,1.5-0.3,2.2-0.7
		c0.8-0.4,1.5-0.8,2.2-1.4c-0.7-0.3-1.6,0.8-2.4,0.8c0.7-1.5,2.1-1.8,3.2-2.6c0,0.8-0.3,1.6-0.3,2.4c-1.7,1-3.5,2.1-5.3,2.8
		c0.9,0.6,1.9-0.3,2.7-0.8c0.9-0.5,1.7-1,2.5-1.6c0.3,0.1,0,0.4,0.2,0.5c-1.3,0.5-2.5,1.4-3.8,1.9c0,0.1,0.1,0.2,0,0.3
		c1.7,0,3-2,4.7-1.9c0,0.2-0.3,0.6,0.1,0.7c-0.9,0.7-1.9,1.2-2.8,1.9c-3-0.9-5.9-1.4-8.8-2c-0.2-0.3,0.3-0.1,0.3-0.4
		c-0.6-0.4-1.1,0-1.7-0.2c0.2-0.4,0.6-0.8,0.3-1c-0.4,0-0.6,0.6-0.9,1c-0.5-0.7,1-2,0.6-2.7c0.2-0.3,0.5-0.7,0.4-0.9
		c-0.2-0.2-0.4,0.1-0.5,0.3c0.9-1.8,3.2-2.5,4.7-4c-0.3,2.3-0.8,4.7-0.4,6.9c0.2,0,0-0.2,0.3-0.3c0.3,0-0.1,0.3,0.1,0.4
		c1-1.2,1-3,1.4-4.5c0.4-1.6,0.8-3.1,1-4.6C50.4,10.2,51,9.7,51.6,9z M52.5,22.1c0.6,0.2,1.7-0.2,1.6-0.7
		C53.6,21.7,53,21.9,52.5,22.1z"/>
	<path class="st1" d="M55.7,12.7c-0.1,1.3-2.1,1.5-2.9,2.6c-0.3-0.3,0.1-0.7,0.1-1.1C53.9,14.2,54.8,13.3,55.7,12.7z"/>
	<path class="st1" d="M60.5,15.9c0.1,1.6-2.7,2.2-3.8,3C57.3,16.9,59.2,16.7,60.5,15.9z"/>
	<path class="st1" d="M61.8,16.7c-0.1,0.5-0.1,1.3-0.7,1.5C61,17.6,61.2,16.8,61.8,16.7z"/>
	<path class="st1" d="M49.4,9.5c0.2,0.3-0.7,0.8-0.9,1.1c0-0.1-0.1-0.2-0.3-0.3C48.6,10,49,9.9,49.4,9.5z"/>
	<path class="st1" d="M55.4,13.9c0,1.6-2.1,1.8-3.1,2.8C52.6,15.3,54.5,14.9,55.4,13.9z"/>
	<path class="st1" d="M89.2,35.3l0.4,0.2c-0.5,0.3-0.9,0.7-1.3,1.1C88.1,36.1,89.1,35.9,89.2,35.3z"/>
	<path class="st1" d="M90,35.9c0.2,0.1,0.3,0.3,0.4,0.5c-0.4,0.3-0.9,0.5-1.2,1c-0.3-0.1-0.2-0.2-0.4-0.3
		C89.1,36.7,89.5,36.3,90,35.9z"/>
	<path class="st1" d="M60,17.5c0.1,2-2.5,2-3.6,3.1C56.6,18.8,58.9,18.7,60,17.5z"/>
	<path class="st1" d="M61.2,18.6c-0.2,0.9-0.4,2.2-0.9,3c-0.4-0.3,0.1-0.6,0.2-0.8c0.2-0.6,0.3-1.3,0.4-2
		C60.9,18.6,61.1,18.7,61.2,18.6z"/>
	<path class="st1" d="M90.6,36.8c0.2,0.1,0.5,0.3,0.6,0.6c-0.5,0.3-0.9,0.6-1.3,1c-0.2-0.1-0.1-0.2-0.3-0.3
		C89.9,37.4,90.3,37.3,90.6,36.8z"/>
	<path class="st1" d="M55.1,15.4c0.1,0.2-0.1,0.4,0,0.6c-1,0.4-2,1.2-3,1.5C53,16.7,54.2,16.2,55.1,15.4z"/>
	<path class="st1" d="M48.7,11.9c0,0.3,0,0.5-0.1,0.8C48.4,12.4,48.5,12.1,48.7,11.9z"/>
	<path class="st1" d="M59.6,19.4c0.1,0.5-0.2,1.1-0.1,1.6c-1.5,0.8-3.1,1.5-4.6,2.4c-0.3-0.1-0.7-0.2-1-0.3
		C55.7,21.8,57.6,20.5,59.6,19.4z"/>
	<path class="st1" d="M80.2,33.1c-0.1,0.3-0.5,0-0.8-0.1c0.1-0.1,0-0.2,0.1-0.3C79.7,32.6,80.3,32.9,80.2,33.1z"/>
	<path class="st1" d="M59.2,21.4c0.3,0.3,0,0.8,0.3,1c-1.3,0.3-2.3,1.9-3.8,1.1C56.9,22.8,58.1,22.3,59.2,21.4z"/>
	<path class="st1" d="M72.1,31.5c0.7,0.7,1.1,1.5,1.8,2.2c-0.2,0.2-0.5,0.3-0.8,0.4c-0.5-0.6-0.5-1.2-1.2-1.7
		c-0.3,0-0.4,0.1-0.5,0.4c-0.3-0.3-1-0.4-1,0c-0.7,0-1.3,0.7-2,1c0-0.8,1-0.9,1.5-1.1C70.8,32.3,71.4,31.8,72.1,31.5z"/>
	<path class="st1" d="M74.5,34.3c-0.3,0.2-0.6,0.6-1,0.4C73.6,34.4,74.1,34,74.5,34.3z"/>
	<path class="st1" d="M74.9,34.8c0,0.1,0.2,0.2,0.3,0.4c-0.4,0.1-0.7,0.5-1.1,0.3C74,35,74.6,35,74.9,34.8z"/>
	<path class="st1" d="M75.8,35.8c-0.4,0.2-0.8,0.5-1.2,0.4c0-0.1,0-0.1-0.1-0.2C74.8,35.9,75.5,35.3,75.8,35.8z"/>
	<path class="st1" d="M76.5,36.6c-0.3,0.2-0.6,0-0.8,0.5c0.2,0.5,0.8,0.1,1.1-0.1c0.2,0.6-0.6,0.5-0.8,0.9c0.4,0.5,0.9-0.5,1.5-0.1
		c-0.3,0.5-0.6,0.6-1,0.8c-0.8-0.5-1-1.1-1.5-1.7C75.4,36.6,76,36,76.5,36.6z"/>
	<path class="st1" d="M54.7,25.8c0.9-0.3,1.6-1.3,2.6-0.9c0.1,0,0.1,0.1,0,0.2C56.5,25.2,55.7,25.7,54.7,25.8z"/>
	<path class="st1" d="M66.1,30.5c-0.2,0.3-0.8-0.2-0.6-0.5C65.8,30,66.1,30.2,66.1,30.5z"/>
	<path class="st1" d="M55.5,24.3c-0.1,0.2-1.1,0.5-1.6,0.6c-0.6,0.1-1.4,0.2-1.9,0C53.1,24.8,54.2,24.1,55.5,24.3z"/>
	<path class="st1" d="M51.9,23.3c0,0.3-1.2,0.3-1.7,0.3c-0.3,0-0.6,0.4-1,0.1C50.1,23.5,51,23.3,51.9,23.3z"/>
	<path class="st1" d="M41.7,17.1c-0.2,0.9-1.1,1.5-1.6,2.4c-0.6-0.3-1.1,0-1.7-0.1C39.5,18.6,40.6,17.9,41.7,17.1z"/>
	<path class="st1" d="M50.3,22.9c-0.7,0.3-2.1,0.3-3.1,0.2C48.2,23,49.2,22.6,50.3,22.9z"/>
	<path class="st1" d="M67.6,33.8c-0.1,0.7-0.8,0.8-1.2,1.1C66.3,34.4,67.3,34.1,67.6,33.8z"/>
	<path class="st1" d="M60.4,30.3c-0.6,0.5-1.3,1.9-2,1.2c0.3-0.3,0.8-1,0.9-1.3c-0.3,0.4-0.7,0.7-1.2,0.6c-2,1.1-3.8,2.6-6,3.1
		c-1.4-1.4-2.2-3.3-3.4-4.7c-0.7-0.8-1.9-1.2-2.3-2.3c-0.2,0.2,0,0.3-0.1,0.6c-2.7,1.4-5.3,3-7.7,5.1c0.3,0.2,0.7,0.2,1,0.1
		c0.7-0.7,1.6-1.1,2.6-1.4c0.1-0.1,0.2-0.2,0.3-0.3c0.2-0.3,0.5-0.6,0.9-0.8c0.6-1.4,2.2-2.1,3.7-1.6c0.9,0.2,1.7,0.9,2,1.9
		c0.2,0.4,0.3,0.8,0.4,1.2c0.1,0.1,0.2,0.2,0.3,0.2c0.3,0.3,0.5,0.7,0.7,1.2l0,0l0.5,0.7c0.3,0.5,0.4,1,0.4,1.6l-0.1,0.4
		c1.5-0.9,3.2-1.6,4.8-2.4s3.4-1.3,4.7-2.5C60.5,30.5,60.5,30.4,60.4,30.3z"/>
	<path class="st1" d="M61.4,31.8c-0.1,0.1-0.2,0.1-0.3,0.2c-0.2-0.2-0.4-0.4-0.1-0.7C61.2,31.2,61.2,31.6,61.4,31.8z"/>
	<path class="st1" d="M53.7,27.4c0.3,0.1-0.2,0.5-0.2,0.7c-0.3-0.1-0.3-0.3-0.3-0.5C53.3,27.3,53.5,27.5,53.7,27.4z"/>
	<path class="st1" d="M61.8,32.4c0.2,0.2,0.4,0.5,0.5,0.7c-0.1,0.2-0.2,0.1-0.3,0.3c-0.2-0.2-0.4-0.5-0.5-0.7
		C61.5,32.5,61.7,32.6,61.8,32.4z"/>
	<path class="st1" d="M42.7,20.9c0.3,0.1-0.1,0.6-0.3,0.3C42.4,21.1,42.5,21,42.7,20.9z"/>
	<path class="st1" d="M65.2,35.2c0,0.5-0.6,0.9-0.9,1.1c-0.3-0.2-0.4-0.5-0.7-0.8C64.3,35.8,64.8,35.5,65.2,35.2z"/>
	<path class="st1" d="M62.6,33.7c0.1,0.3,0.5,0.6,0.3,0.9c-0.4-0.2-0.3-0.4-0.7-0.6C62.3,33.8,62.5,33.9,62.6,33.7z"/>
	<path class="st1" d="M39.6,20.1c-0.8,0-1.5,0.3-2.3,0.2C38,20.1,38.8,19.8,39.6,20.1z"/>
	<path class="st1" d="M63.7,35.1c0.1,0.1,0,0.2,0,0.2c-0.1,0.1-0.2,0.1-0.4,0C63.5,35,63.6,35.2,63.7,35.1z"/>
	<path class="st1" d="M43,22.8c0.1,0.3-0.1,0.6-0.3,1c-0.2-0.2-0.3,0-0.5-0.1c0.3-0.3,0.2-0.6,0.4-0.9C42.7,22.7,42.9,22.9,43,22.8z
		"/>
	<path class="st1" d="M51.7,28.5c0.2,0.1,0.3,0.6,0.6,0.5c-0.1,0.4-0.9,0.4-1.2,0.8c-0.2-0.2-0.3-0.5-0.5-0.7
		C51,28.8,51.4,28.8,51.7,28.5z"/>
	<path class="st1" d="M41.8,22.5l0.2,0.1c-0.3,0.3-0.3,0.8-0.6,1C41.3,23.4,41.6,22.9,41.8,22.5z"/>
	<path class="st1" d="M38.9,21c0.3,0.1,0,0.3-0.1,0.5c-0.5-0.1-1-0.1-1.4,0.4c-0.1-0.1-0.2-0.3-0.2-0.5C37.7,21.1,38.3,21.2,38.9,21
		z"/>
	<path class="st1" d="M39.1,22c0.3,0.6-0.6,1.4-0.6,2c-0.3,0.1-0.2-0.4-0.4-0.6C38.5,23,38.8,22.1,39.1,22z"/>
	<path class="st1" d="M42.5,24.3c-0.1,0.2-0.4,0.2-0.6,0C42,24.2,42.3,24.3,42.5,24.3z"/>
	<path class="st1" d="M38.3,22c0.3,0.2-0.3,0.6-0.4,0.9c-0.1-0.2-0.3-0.5-0.4-0.8C37.7,21.9,38,22.1,38.3,22z"/>
	<path class="st1" d="M44.9,26.2c0,0.4-0.6,0.4-0.8,0.7C44.1,26.5,44.7,26.4,44.9,26.2z"/>
	<path class="st1" d="M43,25.2c0,0.6-1.2,0.5-1.8,0.4C41.8,24.7,42.4,25.5,43,25.2z"/>
	<path class="st1" d="M43.6,26.2c-0.4,0.5-1,0.8-1.6,0.7C42.3,26.4,43,26.1,43.6,26.2z"/>
	<path class="st1" d="M41.6,26.1c0,0.6-1.1,1-1.7,0.9C40.1,26.4,41,26,41.6,26.1z"/>
	<path class="st1" d="M39.2,25.1c0.2,0.2-0.2,0.3-0.3,0.5c-0.3-0.1-0.1-0.3-0.2-0.5C38.8,24.9,39,25.3,39.2,25.1z"/>
	<path class="st1" d="M36.4,24.1c0.3,0.2,0.5,0.9,0.2,1.5C36.3,25.2,36.6,24.6,36.4,24.1z"/>
	<path class="st1" d="M40.1,27.4c0.1,0.2-0.3,0.3-0.3,0.4c-0.1-0.1-0.2-0.3,0-0.4C39.9,27.4,40,27.4,40.1,27.4z"/>
	<path class="st1" d="M41.3,28.5c-0.4,0.3-1.2,1.2-1.9,1c0.2-0.3,0.4-0.6,0.5-0.9C40.4,28.6,40.8,28.6,41.3,28.5z"/>
	<path class="st1" d="M37.3,29.8c0,0.3-0.5,0.8-0.6,1.2C36.3,30.3,36.8,30.2,37.3,29.8z"/>
	<path class="st2" d="M91.4,17.2c-0.5,2.3-0.8,4.7-1,7.1c-0.1,1.1-0.5,2.6,1.2,2.8c0.1,0.2-0.3,0.5,0.1,0.6c1-1,0.8-2.6,0.9-3.9
		c0.1-1.4,0.2-2.7,0.3-4c1.1,1.6,1.7,3.9,3,5.7c-0.3,1.6-0.9,3.2-1.2,4.8c-4.5-0.4-9.1-0.9-13.7-1.6c-1.6-0.2-3.1-0.7-4.7-1.1
		c-6.3-1.7-12.5-2-18.6-3.5c0.8-0.6,2.2-0.8,2.4-2.1c0.2,0.1,0.4,0.2,0.6,0.2c1.2-0.7,1.3-2.5,1.6-4.1c0.8-3.3,2-7.2,1.8-10.2
		c-0.2,0.5-0.6,0.5-1,0.3c-1,0.6-1.4,2.2-1.5,3.1c-1.3,0.7-2.5,1.5-3.8,2.1c0.4-1.5,0.7-3,0.5-4.3c-0.3-0.3-0.9-0.6-0.6-1
		c-0.8,0.1-1,1.4-1.2,2.1c-1,0.5-2.1,0.7-3,1.9c0.2-1.5,0.7-3.2,0.9-4.7c-0.1-0.2-0.5-0.5-0.7-0.3c0.1-0.4,0.7-0.8,1-1.1
		c5.3,0.2,10.2,1.9,15.3,2.4c2.5,0.2,5,0.2,7.4,0.3c1.3,0,2.5,0.1,3.7,0.1c1.2,0,2.3-0.2,3.6-0.2c0.9,0,2.4,0.8,3.4,0.8
		c0.4,0.9-0.2,1.7,0,2.6c0.2,0.8,1,1.8,1.5,2.6C90.1,15.6,90.9,16.4,91.4,17.2z M88.1,15.8c-0.3,0.4-0.4,1.9-0.6,2.7
		c-0.5,2.1-0.8,3.5-1.2,5.4c-0.2,0.8-0.7,2.3-0.1,2.6c0.5,0.3,2.4-0.6,2-1.5c0.1,0.4,0.2,0.8,0.3,1.1c0.6-1.1,0.6-2,0.7-3.1
		c0.3-2.6,0.7-5.3,0.7-7.7l-0.2-0.1C89.5,16,88.5,15.2,88.1,15.8L88.1,15.8z M80.3,23.7c0.6,0.2,1-0.2,1.4-0.7
		c-0.1-0.1-0.1-0.3-0.4-0.4C81,22.7,80,23.3,80.3,23.7z M80.5,12.9c-0.6,0.6-0.8,2.1-1,3c-0.5,2.1-0.7,3.9-1,5.9
		c-0.1,0.9-0.7,2.5-0.1,2.9c0.3,0.2,1.3,0,1.6-0.5c0.4-0.6,0.4-1.8,0.6-2.7c0.6-2.9,1.2-6.2,1.5-8.5c-0.2-0.3,0.1-0.8-0.4-1.1
		C81.6,12.6,80.9,12.4,80.5,12.9z M83.8,14.3c-0.1,0.2,0.5,0.2,0.2,0.4c-1.2,3-1.6,6.2-1.9,9c-0.1,0.8-0.6,2.3,0.5,2.8
		c1.3-1,1.4-2.5,1.7-3.9c0.6-2.6,1.5-5.5,1.5-7.9C85.2,13.8,84.3,13.7,83.8,14.3L83.8,14.3z M75.2,12c-0.2,0.3,0.3,0.4,0.1,0.7
		c-0.9,2.8-1.5,6.4-2,9.4c-0.2,1.1-0.8,4,1.1,2.8c0.2,0.3,0.4,0.3,0.7,0.2c0.9-4.5,2.6-9,2.3-13.2C76.8,11.6,75.9,11.6,75.2,12
		L75.2,12z M73,14.2c0.1-0.5,0.6-2.4,0.2-2.8c-0.4-0.4-1.3-0.2-1.6,0.2c-0.5,0.6-0.7,1.9-0.8,2.7c-0.7,2.8-1.2,5.7-1.8,8.2
		c0.4,0.2-0.1,0.6,0.4,0.8c0.3,0.2,0.4-0.2,0.7-0.2c0.1,0.2,0.4,0.3,0.7,0.4c0.2-0.3,0.6-0.3,0.8-0.7C71.9,19.9,72.5,17.1,73,14.2
		L73,14.2z M66.8,9.4c-0.2,0.5-0.6,0.4-0.8,0.9c0,0.3,0.2,0.2,0.3,0.4c-0.8,3.8-2,7.6-2.3,11.2c0.1,0.1,0.2,0.2,0.2,0.3
		c0.4,0.1,1,0.1,1.2,0.6c1.4-0.6,1.4-2.6,1.6-3.9c0.5-2.9,1.4-6.3,1.4-8.9C68,9.8,67.5,9.7,66.8,9.4L66.8,9.4z M94.5,27.7
		c-0.8,0.6-2,0.8-2.5,1.5c0.3,0.3,0.4-0.1,0.6,0c0.7,0.6,1.5-0.3,2.2-1c-0.1-0.1,0-0.2,0-0.3L94.5,27.7z M65.7,24.5
		c-0.7,1.9,3.6,0,1.6-0.7C66.6,23.6,66,23.9,65.7,24.5L65.7,24.5z"/>
	<path class="st2" d="M85.1,35c0.1-0.6,0.7-1.2,1.1-1.4c0.1-0.2-0.1-0.3-0.1-0.5c-0.6-0.3-1,0.3-1.4,0.8c0.3,0.3,0.3-0.2,0.6,0
		c-0.7,1-1.5,1.9-2.4,2.2c0.2-0.6,1-1.4,1.4-1.9c-1.5,0.2-2.4,2.9-3.8,3.4c0.4-0.8,1.5-2.1,2-2.6c-0.2-0.2-0.2,0.2-0.5-0.1
		c-1.3,1-2.8,1.3-4.2,2.1c-0.3-0.1-0.1-0.3-0.1-0.5c-1.9-1.5-3-3.6-4.4-5.4c-0.2-0.1-0.4-0.2-0.7-0.2c-0.3-0.1,0-0.3-0.2-0.4
		c-2.8,0.9-5.3,3.2-8.2,3.9c0.1-0.2,0.3-0.4,0.2-0.6c-0.2-0.2-0.5,0.2-0.6-0.1c-0.6-1.5-1.2-3-2.9-4.2c-0.2-0.1-0.1-0.2,0-0.3
		c-0.5-0.1-0.6-0.2-1-0.3c-2.4,0.7-4.5,2.5-6.9,3.2c-0.4-0.2,0-0.4,0.2-0.6c-0.2-0.1-0.4,0.3-0.7,0.1c-0.2-0.4-0.6-0.8-1-1.1
		c0.5-0.5,1.1-0.6,1.5-1.3c0.5,0.1,0.9,0.2,1.3-0.2c-0.2-0.5,0.3-1.2,0.1-1.7c-0.5,0-0.7-0.4-0.9-0.5c-0.8-0.2-0.9,0.4-1.5,0.9
		c-0.3,0.2-0.7,0.4-1.1,0.6c-0.4,0.2-0.8,0.5-1.1,0.1c0.4-0.4,0.8-0.4,1.3-0.4c0.3-0.6,0.7-0.7,0.9-1.2c-0.7,0-1.8,0-2.6,0.5
		c-0.3,0.3,0.1,0.3,0,0.6c-0.3-0.1-0.4-0.3-0.5-0.5c0.6-0.5,1.9-1,2-1.8c-1.1,0.5-2.1,1.7-3.4,1.1c0.3-0.3,1-0.6,0.9-1.1
		c-0.5,0.1-1,0.8-1.8,0.5c0.1-0.2,0.2-0.1,0.3-0.2c0.1-0.2-0.2-0.3-0.4-0.5c0.1-0.3,0.3,0,0.4-0.3c-1.1-0.8-2.1-0.8-3-1.2l0.4-0.7
		c2.7,0.7,6.4,1.4,8.8,3.3c5.5,0.9,11,1.7,16.6,2.3c5.5,0.6,11.1,2.7,16.6,2.4c0.2,0.2,0.3,0,0.5,0.1c0.2,0,0.3-0.1,0.5-0.1
		c2.5,0.7,4.8,0.6,7.1,0.4c-0.3,1.7-0.8,3.4-0.9,5c-0.8,0.8,0,1.7-0.4,2.7C92.4,39,92,40,91.4,39.9c0-0.7,1.3-1.1,1.4-1.8
		c-0.8-0.4-1.4,0.6-2,1.1c-0.2-0.1-0.3-0.3-0.4-0.5c0.5-0.5,0.9-1,1.4-1.1c-0.2-0.8-0.9-2.3-1.9-2.7c-0.8-0.3-1.4,0.6-2.1,1.1
		l-0.5-0.3c0.5-0.7,1.4-0.9,1.7-1.8c-0.8-0.2-1.7,0.8-2.1,1.5c-0.3-0.1-0.5-0.3-0.4-0.5c-0.3,0.1-0.7,0-1,0.2
		C86.1,34.8,85.7,34.2,85.1,35z M91.5,35.5c0.6,0.2,1.3-1.1,1.4-1.7c-0.1-0.2-0.5,0-0.5-0.3c0.2-0.4,0.3-0.8,0.2-1.2l-0.4-0.2
		C91.3,33.2,91.3,34.5,91.5,35.5z M79.3,32.1c-0.3,0.1-0.7,0.7-0.7,1c0.2,0.6,1.3,1.1,1.9,1c0.3-0.4,0.5-0.9,0.4-1.4
		C80.3,32.3,79.8,32.4,79.3,32.1L79.3,32.1z M65,29.4c-0.6,0.5-0.9,1.3-0.3,1.7c0.5,0,0.9,0.2,1.3,0.5c0.5-0.1,0.9-0.5,1.3-1.2
		C67.1,29.3,65.7,29.5,65,29.4L65,29.4z"/>
	<path class="st1" d="M88.4,30.5c-2.9,0.4-6.7-0.4-10.3-1.1c-2.3-0.5-4.7-1-7-1.4c-4.7-0.8-9.4-1-13.8-1.6c0.1-0.4,0.9-0.3,1.2-0.7
		c-0.7-0.3-1.7,0.7-2.6,0.5c0-0.3,0.6-0.3,1-0.4c0.5-0.2,0.9-0.5,1.2-0.5c5.9,2.1,11.7,1.1,17.7,3C79.9,29.5,84.2,30.3,88.4,30.5z"
		/>
	<path class="st1" d="M48,10.4c0,0.3-0.1,0.6-0.2,0.8c-1.6,1.1-3.1,2.2-4.7,3.2C44.6,13,46.2,11.7,48,10.4z"/>
	<path class="st1" d="M79.5,37.3c-0.1,0.8-1.3,1.8-2.3,2c0.1-0.3,0.3-0.4,0.5-0.6c0.2,0.2,0.3,0,0.4,0.2
		C78.7,38.4,79.1,37.9,79.5,37.3z"/>
	<path class="st1" d="M53.7,23.9c-1,0.2-2,0.4-3,0.5C51.5,24.3,52.6,23.4,53.7,23.9z"/>
	<path class="st1" d="M48.4,22.5c-1,0.2-2.2,0-3.2,0.1C46.2,22.2,47.3,22.2,48.4,22.5z"/>
	<path class="st1" d="M45,25.5c-0.2,0.3-1.1-0.2-1.5,0.1C43.6,25,44.6,25.6,45,25.5z"/>
	<path class="st1" d="M92.6,41.4c-0.1,0-0.1-0.1-0.2-0.2c-0.1-0.6,0.9-0.9,0.7-1.6c-0.4,0.5-0.8,0.6-1.1,1.2
		c0.1,0.2,0.2,0.4,0.3,0.6H92.6z"/>
	<path class="st1" d="M87.5,40.1c0.2,0.1,0.4,0.1,0.6,0.2l0.2,0.1c0.2,0.1,0.5,0.2,0.7,0.4l0.1,0.1c0.2,0.1,0.3,0.3,0.5,0.4l0.1,0.1
		c0.1,0.1,0.3,0.3,0.4,0.4c0.4-0.1,0.8-0.2,1.3-0.2c-0.6-0.5-1.1-1-1.6-1.5c-0.2,0.3,0.4,0.8-0.1,1c-0.3-0.9-1.1-1.7-1.8-2.5
		c-0.7-0.9-1.5-1.7-2.5-2.4c-2.4,1.5-4.9,2.8-7.5,4c-0.3,0.3-0.1,0.7-0.5,0.8c-3.6-1.3-4.7-4.6-6.4-7c-1.4,0.9-2.9,1.6-4.4,2.5
		c-0.8,0.5-1.7,1.3-2.3,1.4c-1,0.2-2.5-1.9-3.1-2.7c-0.7-1-1.1-2-1.7-3c-2.7,1.4-5.2,3.1-8,3.9c0,0-0.1,0.1-0.1,0.1
		c0.7,0.1,1.5,0.2,2.2,0.1c-0.4,0-0.2,0,0,0c0.1-0.1,0.3-0.2,0.4-0.3c1.9-1.6,5-1.3,6.9-0.1c1,0.6,1.8,1.5,2.3,2.7
		c0.3-0.2,0.7-0.4,1-0.5c0.5-0.4,1.1-0.7,1.7-0.8c0.9-0.2,1.8-0.4,2.8-0.6c3.3-0.6,5.5,1.4,6.3,4c1.8,0.8,3.7,1.2,5.6,1.2l0.1-0.1
		l0.2-0.2c0-0.1,0.1-0.1,0.2-0.2l0.2-0.2l0.2-0.2c0.1,0,0.1-0.1,0.2-0.2c0.1,0,0.2-0.1,0.3-0.2l0.1-0.1c0.1-0.1,0.3-0.2,0.5-0.3
		c0,0,0.1,0,0.2-0.1c0.1,0,0.2-0.1,0.3-0.1l0.2-0.1c0.1,0,0.2-0.1,0.3-0.1l0.2,0c0.1,0,0.2,0,0.3-0.1l0.2,0l0.4,0c0.1,0,0.2,0,0.2,0
		c0.1,0,0.3,0,0.4,0h0.2c0.2,0,0.5,0,0.7,0.1c0.3,0,0.6,0.1,0.9,0.2L87.5,40.1z"/>
	<path class="st1" d="M35.4,22.6c0,0.4,0,0.8,0,1.2C35.3,23.4,35.3,23,35.4,22.6z"/>
	<path class="st1" d="M40.5,28.2c0.2-0.6,1.4-1.4,1.8-0.6c0.3,0.1,0.5-0.1,0.7-0.2c0.2,0.1-0.6,0.4-0.8,0.7
		C41.5,28,41,28.1,40.5,28.2z"/>
	<path class="st3" d="M13.4,59.7c0.5-0.8,1.1-1.6,1.7-2.4c0.5-0.7,0.9-1,1.1-1c0.7,0,1,0.3,1.1,0.9c0.1,0.6-0.2,1.2-0.8,2
		c-0.9,1.1-1.2,1.8-1.1,2.1c0.2,0.3,0.9,0.3,2.2,0.1c1.6-0.3,2.3-0.1,2.3,0.4c0,0.5-0.5,1.3-1.4,2.6c-0.9,1.3-1.8,2.5-2.9,3.6
		c-1,1.1-1.7,1.7-2.1,1.7c-0.7,0-1-0.3-0.9-0.9c0-0.7,0.5-1.5,1.3-2.4l0.5-0.6c0.1-0.1,0.2-0.2,0.3-0.4c0-0.1,0.1-0.2,0-0.3
		c-0.1-0.1-0.2-0.1-0.3-0.1c-0.2,0-0.3-0.1-0.5-0.1l-0.9,0c-0.4,0-0.7,0-1.1-0.1c-0.2,0-0.5-0.2-0.6-0.3c-0.1-0.2-0.2-0.4-0.2-0.6
		c0-0.3,0.1-0.7,0.2-1c0.2-0.5,0.4-0.9,0.7-1.4C12.5,61.1,12.9,60.4,13.4,59.7z"/>
	<path class="st3" d="M21.7,64.8c-0.4,0.2-0.8,0.3-1,0.1c-0.2-0.1-0.2-0.5,0-1.2c0.3-0.8,0.8-1.5,1.3-2.1c0.6-0.8,1.2-1.6,1.8-2.3
		c0.6-0.8,1.2-1.4,1.6-1.9c0.5-0.5,0.8-0.8,0.8-0.8c0.3,0,1.4,1.3,3.3,3.9c1.9,2.6,2.9,4.1,2.9,4.4c0,0.6-0.3,0.7-0.9,0.5
		c-0.7-0.2-1.4-0.8-2-1.7c-0.1-0.2-0.2-0.4-0.3-0.6c-0.4-0.8-0.7-1.3-0.8-1.3c-0.2,0-0.4,1-0.5,3c0,0.4,0,0.9-0.1,1.5
		c-0.1,2-0.3,3.4-0.5,4.2c-0.2,0.8-0.5,1.1-1,1.1c-0.4,0-0.8-0.3-0.9-1c-0.1-0.7-0.2-1.9-0.1-3.7c0-1.1,0-2.3-0.1-3.4
		c-0.1-0.9-0.2-1.4-0.3-1.4c-0.1,0-0.4,0.2-0.8,0.5c-0.4,0.4-0.8,0.8-1.2,1.2C22.6,64.2,22.1,64.5,21.7,64.8z"/>
	<path class="st3" d="M34,66.6c0.8-1.2,1.7-2.4,2.7-3.8c0.9-1.2,1.9-2.4,3-3.5c0.9-1,1.5-1.5,1.7-1.5c0.3,0,0.9,0.6,1.7,1.9
		c0.8,1.4,1.6,2.8,2.2,4.3c0.7,1.5,1,2.6,0.9,3.2c0,0.5-0.6,1.5-1.8,3c-1.2,1.4-2.5,2.7-3.9,3.9c-1.4,1.2-2.4,1.8-2.9,1.8
		c-0.4,0-1-0.5-1.8-1.5c-0.8-1-1.5-2.1-2.1-3.2c-0.6-1.2-0.9-2.1-0.9-2.6C32.8,68.4,33.2,67.7,34,66.6z M43.1,64.3
		c-0.3-0.6-0.6-1.1-1-1.6c-0.2-0.4-0.6-0.7-1-0.8c-0.3-0.1-0.5-0.1-0.8,0c-0.2,0.1-0.4,0.3-0.6,0.5c-0.3,0.5-0.1,1,0.3,1.3
		c0.3,0.2,0.5,0.7,0.7,1.4c0.1,0.7,0.1,1.4,0,2C40.5,67.7,40.3,68,40,68c-0.2,0-0.4-0.1-0.6-0.4c-0.2-0.2-0.2-0.5-0.2-0.8
		c0-0.8-0.2-1.2-0.8-1.2c-0.7,0-1.3,0.4-1.9,1.2c-0.1,0.2-0.3,0.4-0.4,0.7c-0.5,0.8-0.7,1.5-0.7,2c0,0.5,0.3,1.2,0.9,2.1
		c0.8,1.2,1.6,1.6,2.5,1.3c0.9-0.3,2.1-1.6,3.5-3.7c0.8-1.2,1.2-2,1.3-2.6C43.7,66,43.5,65.2,43.1,64.3L43.1,64.3z"/>
	<path class="st3" d="M56.2,56.6c0.5-0.3,1-0.4,1.6-0.4c0.5,0,0.9,0.1,1.4,0.3c0.3,0.2,0.5,0.5,0.5,0.9c0,0.2-0.2,0.7-0.7,1.4
		c-0.5,0.8-1,1.5-1.6,2.2c-0.4,0.5-0.7,0.9-0.9,1.1c-0.2,0.2-0.4,0.5-0.5,0.8c-0.1,0.2-0.2,0.4-0.3,0.6c0,0.1,0,0.3,0.1,0.5
		c0,0.2,0.2,0.3,0.3,0.4c0.1,0.1,0.3,0.3,0.6,0.5c0.6,0.4,1.2,0.8,1.8,1.1c0.7,0.4,1.5,0.8,2.3,1c0.7,0.2,1.3,0.6,1.8,1
		c0.5,0.4,0.8,0.8,0.8,1c0,0.5-0.1,0.8-0.3,0.9c-0.3,0.1-1.2-0.3-2.9-1.1c-0.3-0.1-0.8-0.4-1.6-0.8c-1-0.5-2.1-1-3.1-1.4
		c-0.9-0.3-1.5-0.5-1.6-0.4c-0.2,0.1-0.3,0.4-0.3,1.1c0,0.7,0,1.4,0.1,2.1c0.2,1.1,0.2,1.9,0.1,2.2c-0.1,0.4-0.4,0.5-1,0.5
		c-0.5,0-0.8-0.3-1-0.7c-0.2-0.4-0.3-1.2-0.2-2.4c0-1.9-0.1-3.7-0.4-5.6c-0.2-1-0.4-1.7-0.6-1.9c-0.2-0.2-0.5-0.1-1,0.2
		c-0.5,0.4-0.8,0.5-1.1,0.5c-0.4-0.1-0.7-0.3-0.9-0.7c-0.4-0.4-0.5-0.7-0.5-0.9c0-0.2,0.2-0.4,0.6-0.5c0.4-0.1,0.8-0.4,1.1-0.6
		c0.4-0.3,0.8-0.6,1.2-1c0.4-0.4,0.9-0.7,1.5-0.9c0.5-0.2,1.1-0.4,1.7-0.5c0.6,0,1.2-0.2,1.7-0.3C55.2,57,55.8,56.8,56.2,56.6z
		 M54.9,60.4c0-0.2,0-0.4-0.2-0.5c-0.1-0.1-0.4-0.2-0.6-0.2c-0.2,0-0.5,0.1-0.6,0.3c-0.2,0.3-0.2,0.6-0.2,0.9c0,0.6,0.2,0.9,0.5,0.8
		C54.4,61.5,54.8,61,54.9,60.4L54.9,60.4z"/>
	<path class="st3" d="M67.6,59.3c0.5-0.6,1.2-1.2,1.8-1.6c0.6-0.4,1.1-0.6,1.4-0.4c0.4,0.2,0.9,0.8,1.6,1.8c0.7,1.1,1.3,2.2,1.8,3.4
		c0.5,1.2,0.8,2.1,0.8,2.6c0,0.9-0.2,1.3-0.7,1.2c-0.4,0-0.9-0.5-1.4-1.5c-0.2-0.3-0.3-0.7-0.4-1.1c-0.4-1.2-0.7-1.9-0.9-1.9
		c-0.1,0-0.3,0.2-0.5,0.5c0,0.1-0.1,0.2-0.1,0.3c-0.2,0.6-0.4,1.3-0.5,1.9c-0.1,0.8-0.2,1.6-0.2,2.4c0,1.4,0,2.1,0.2,2.2
		c0.1,0,0.4-0.2,0.8-0.7c0.5-0.6,1.2-1.1,2-1.3c0.6-0.2,0.9-0.1,0.8,0.2c-0.1,0.4-0.6,2-1.7,4.6c-1.1,2.7-1.7,4.1-1.9,4.3
		c-0.2,0.2-0.8-0.4-1.8-1.7c-1-1.3-2-2.7-2.8-4.1c-0.9-1.5-1.2-2.3-1-2.5c0.2-0.1,0.4-0.2,0.6-0.1c0.3,0.1,0.6,0.3,0.8,0.6
		c0.9,0.9,1.5,1.1,1.8,0.6c0.3-0.5,0.4-1.6,0.5-3.4l0.1-3.8l-2,2.3c-0.5,0.6-1,1.1-1.6,1.5c-0.5,0.3-0.8,0.4-1,0.2
		c-0.4-0.4-0.2-1.2,0.4-2.4C65.4,62,66.4,60.6,67.6,59.3z"/>
	<path class="st3" d="M79.1,63.7c0.9-0.9,1.9-1.7,3-2.5c1-0.7,1.6-1,2.1-1c0.8,0,1.3,0.2,1.3,0.5c0,0.4-0.8,1.2-2.3,2.4
		c-1.4,1.1-2,2-1.9,2.7c0.1,0.5,0.7,0.8,1.7,0.7c0.8-0.1,1.7-0.1,2.5,0.1c0.5,0.1,0.8,0.4,0.8,0.8c0,0.2-0.3,0.4-0.8,0.6
		c-0.6,0.2-1.2,0.2-1.8,0.2H81l2.1,1.8c0.6,0.5,1.1,1.1,1.5,1.7c0.4,0.6,0.6,1.1,0.6,1.5c0,1.1-0.6,1.5-1.6,1.3
		c-1.2-0.4-2.8-1.6-4.7-3.6l-3.4-3.7L79.1,63.7z"/>
	<path class="st3" d="M88.7,61.4c0.5-0.8,1.1-1.6,1.7-2.4c0.5-0.7,0.9-1,1.1-1c0.7,0,1,0.3,1.1,0.9c0.1,0.6-0.2,1.2-0.8,2
		C91,62,90.6,62.7,90.8,63c0.2,0.3,0.9,0.3,2.2,0.1c1.6-0.3,2.4-0.1,2.3,0.4c0,0.5-0.4,1.3-1.3,2.6c-0.9,1.3-1.8,2.5-2.9,3.6
		c-1,1.1-1.7,1.7-2.1,1.7c-0.7,0-1-0.3-0.9-0.9c0-0.7,0.5-1.5,1.3-2.4l0.5-0.6c0.1-0.1,0.2-0.2,0.3-0.4c0-0.1,0.1-0.2,0-0.3
		c-0.1-0.1-0.2-0.1-0.3-0.1c-0.2,0-0.3-0.1-0.5-0.1l-0.9,0c-0.4,0-0.7,0-1.1-0.1c-0.2,0-0.5-0.2-0.6-0.3c-0.1-0.2-0.2-0.4-0.2-0.6
		c0-0.3,0.1-0.7,0.2-1c0.2-0.5,0.4-0.9,0.7-1.4C87.9,62.8,88.3,62.1,88.7,61.4z"/>
	<path class="st3" d="M15.9,38.7c0.4-1.1,0.8-1.8,1.3-2.2c0.4-0.4,1-0.4,1.5-0.1c0.5,0.3,0.9,1,1.3,2.1c0.3,1,0.7,1.6,1.1,1.9
		c0.4,0.3,1.1,0.5,2,0.5c0.6,0,1.1,0.1,1.6,0.4c0.3,0.1,0.6,0.4,0.7,0.8c0,0.3-0.1,0.7-0.4,0.9c-0.4,0.3-0.9,0.6-1.4,0.7
		c-0.3,0-0.6,0.1-0.8,0.3c-0.2,0.1-0.4,0.2-0.5,0.4c-0.2,0.2-0.3,0.5-0.3,0.7c0,0.3-0.1,0.7-0.1,1.1c0,0.4,0,1,0.1,1.7
		c0.1,1.9,0,3-0.1,3.1c-0.1,0.1-0.4,0-0.9-0.4c-0.8-0.7-1.2-1.7-1.2-2.7c0-2-0.3-3.2-1.1-3.5c-0.7-0.2-1.5,0.3-2.3,1.5
		c-0.6,0.9-1,1.8-1.3,2.8c-0.2,0.8-0.6,1.5-0.9,2.2c-0.3,0.6-0.6,0.9-0.8,0.9c-0.7,0-1-0.4-1.1-1.2c-0.1-0.8,0.1-1.8,0.6-3.1
		c0.3-0.8,0.6-1.6,0.7-2.4c0-0.5-0.1-1-0.5-1.4c-0.4-0.4-0.7-0.9-0.9-1.5c-0.1-0.4,0-0.8,0.3-1.1c0.3-0.3,0.7-0.3,1.3-0.1
		c0.6,0.2,1,0.1,1.4-0.2C15.2,40.4,15.5,39.8,15.9,38.7z"/>
	<path class="st4" d="M41.1,43.2c2.4-1.9,3.9-2.9,4.5-3.1c0.4-0.2,0.9,0,1.2,0.4c0,0,0.1,0.1,0.1,0.2c0.1,0.2-0.1,0.6-0.6,1.1
		c-0.7,0.7-1.4,1.2-2.2,1.7c-0.8,0.5-1.5,1.1-2.2,1.8c-0.6,0.6-0.8,1-0.8,1.2c0.1,0.2,0.4,0.5,1.1,0.7c0.7,0.3,1.5,0.5,2.2,0.6
		c0.8,0.1,1.5,0.3,2.2,0.7c0.7,0.3,1,0.6,1.1,0.9c0.2,0.5,0,0.8-0.4,0.8c-0.6,0-1.2-0.1-1.8-0.2c-0.7-0.1-1.6-0.3-2.8-0.4
		c-1.1-0.1-2.1-0.2-3-0.2c-3.7-0.1-3.9-1.6-0.6-4.5C39.8,44.2,40.4,43.7,41.1,43.2z"/>
	<path class="st3" d="M66.9,39.8c0.4-1.1,0.8-1.8,1.3-2.2c0.4-0.4,1-0.4,1.5-0.1c0.5,0.3,0.9,1,1.3,2.1c0.3,1,0.7,1.6,1.1,1.9
		c0.4,0.3,1.1,0.5,2,0.5c0.6,0,1.1,0.1,1.6,0.4c0.3,0.1,0.6,0.4,0.7,0.8c0,0.3-0.1,0.7-0.4,0.9c-0.4,0.3-0.9,0.6-1.4,0.7
		c-0.3,0-0.6,0.1-0.8,0.2c-0.2,0.1-0.4,0.2-0.5,0.4c-0.2,0.2-0.3,0.5-0.3,0.7c0,0.4-0.1,0.7-0.1,1.1c0,0.4,0,1,0.1,1.7
		c0.1,1.9,0,3-0.1,3.1c-0.1,0.1-0.4,0-0.9-0.4c-0.8-0.7-1.2-1.7-1.2-2.7c0-2-0.3-3.2-1.1-3.5c-0.7-0.2-1.5,0.3-2.3,1.5
		c-0.6,0.9-1,1.8-1.4,2.8c-0.3,0.8-0.6,1.5-1,2.2c-0.3,0.6-0.6,0.9-0.8,0.9c-0.7,0-1-0.4-1.1-1.2c-0.1-0.8,0.1-1.8,0.6-3.1
		c0.3-0.8,0.6-1.6,0.7-2.4c0-0.5-0.1-1-0.5-1.4c-0.4-0.4-0.7-0.9-0.9-1.5c-0.1-0.4,0-0.8,0.3-1.1c0.3-0.3,0.7-0.3,1.3-0.1
		c0.6,0.1,1,0.1,1.4-0.2C66.1,41.5,66.5,40.9,66.9,39.8z"/>
	<path class="st3" d="M80.3,41.8c0.9-0.9,1.9-1.7,3-2.5c1-0.7,1.6-1,2.1-1c0.8,0,1.3,0.2,1.3,0.5c0,0.4-0.8,1.2-2.3,2.4
		c-1.4,1.1-2,2-1.9,2.7c0.1,0.5,0.7,0.8,1.7,0.7c0.8-0.1,1.7-0.1,2.5,0.1c0.5,0.1,0.8,0.4,0.8,0.8c0,0.2-0.3,0.4-0.8,0.6
		c-0.6,0.2-1.2,0.2-1.8,0.2h-2.6l2.1,1.8c0.6,0.5,1.1,1.1,1.5,1.7c0.3,0.4,0.6,0.9,0.6,1.5c0,1.1-0.6,1.5-1.6,1.3
		c-1.2-0.4-2.8-1.6-4.7-3.6l-3.4-3.7L80.3,41.8z"/>
	<path class="st3" d="M89,45.8c0.8-1.2,1.7-2.4,2.7-3.8c0.9-1.2,1.9-2.4,3-3.5c0.9-1,1.5-1.5,1.7-1.5c0.3,0,0.9,0.6,1.7,1.9
		c0.8,1.4,1.6,2.8,2.2,4.3c0.7,1.5,1,2.6,0.9,3.2c0,0.6-0.6,1.5-1.8,3c-1.2,1.4-2.5,2.7-3.9,3.9c-1.4,1.2-2.4,1.8-2.9,1.8
		c-0.4,0-1-0.5-1.8-1.5c-0.8-1-1.5-2.1-2.1-3.2c-0.6-1.2-0.9-2.1-0.9-2.6C87.9,47.7,88.3,46.9,89,45.8z M98.1,43.6
		c-0.3-0.6-0.6-1.1-1-1.6c-0.2-0.4-0.6-0.7-1-0.8c-0.3-0.1-0.5-0.1-0.8,0c-0.2,0.1-0.4,0.3-0.6,0.5c-0.1,0.2-0.2,0.5-0.1,0.7
		c0,0.3,0.2,0.5,0.4,0.6c0.3,0.2,0.5,0.7,0.7,1.4c0.1,0.7,0.1,1.4,0,2c-0.1,0.6-0.4,0.9-0.7,0.9c-0.2,0-0.4-0.1-0.6-0.4
		c-0.2-0.2-0.2-0.5-0.2-0.8c0-0.8-0.2-1.2-0.8-1.2c-0.7,0-1.3,0.4-1.9,1.2c-0.1,0.2-0.3,0.4-0.4,0.7c-0.5,0.8-0.7,1.5-0.7,2
		c0,0.5,0.3,1.2,0.9,2.1c0.8,1.2,1.6,1.6,2.5,1.3c0.9-0.4,2.1-1.6,3.5-3.7c0.8-1.2,1.2-2,1.3-2.6C98.7,45.2,98.5,44.5,98.1,43.6
		L98.1,43.6z"/>
	<path class="st3" d="M34.2,34.1c0.5-0.3,1.1-0.5,1.7-0.5c0.5,0,1.1,0.1,1.5,0.3c0.4,0.2,0.6,0.6,0.6,1c0,0.2-0.2,0.8-0.7,1.5
		c-0.5,0.9-1.1,1.7-1.7,2.5c-0.4,0.6-0.8,1-1,1.3c-0.2,0.3-0.4,0.6-0.6,0.9c-0.1,0.2-0.2,0.4-0.3,0.7c0,0.2,0,0.4,0.1,0.5
		c0.1,0.2,0.2,0.4,0.3,0.5c0.2,0.1,0.4,0.3,0.7,0.5c0.7,0.4,1.3,0.8,2.1,1.2c0.8,0.4,1.7,0.8,2.6,1.1c0.7,0.2,1.4,0.6,2.1,1.1
		c0.6,0.4,0.9,0.8,0.9,1.1c0,0.6-0.1,0.9-0.3,1c-0.3,0.1-1.4-0.3-3.3-1.1c-0.3-0.1-1-0.4-1.8-0.8c-1.1-0.6-2.3-1-3.5-1.4
		c-1.1-0.4-1.7-0.5-1.9-0.4c-0.2,0.1-0.3,0.5-0.3,1.2c0,0.8,0,1.5,0.2,2.3c0.2,1.3,0.3,2.1,0.1,2.5c-0.1,0.4-0.5,0.6-1.1,0.6
		c-0.5,0-1-0.3-1.1-0.7c-0.2-0.5-0.3-1.4-0.3-2.7c0-2.1-0.2-4.2-0.6-6.2c-0.3-1.2-0.5-1.8-0.7-2.1c-0.2-0.2-0.6-0.1-1.1,0.3
		c-0.5,0.4-0.9,0.6-1.2,0.6s-0.7-0.2-1.1-0.7s-0.6-0.8-0.6-1s0.2-0.4,0.7-0.5c0.4-0.2,0.8-0.4,1.2-0.7c0.5-0.3,0.9-0.7,1.4-1.1
		c0.5-0.4,1-0.8,1.6-1.1c0.6-0.3,1.2-0.5,1.9-0.6c0.7-0.1,1.3-0.2,1.9-0.4C33.1,34.7,33.7,34.4,34.2,34.1z M32.8,38.4
		c0-0.2-0.1-0.4-0.2-0.6c-0.2-0.1-0.4-0.2-0.7-0.2c-0.3,0-0.5,0.1-0.6,0.4c-0.2,0.3-0.3,0.7-0.2,1c0,0.7,0.2,1,0.6,0.9
		C32.3,39.6,32.7,39.1,32.8,38.4z"/>
	<path class="st3" d="M55.3,38.3c-0.2-0.4-0.2-0.9-0.1-1.4c0.1-0.3,0.3-0.4,0.8-0.1c0.6,0.4,1.1,0.9,1.5,1.4
		c0.6,0.7,1.1,1.4,1.7,2.1c0.6,0.8,1,1.4,1.4,2c0.2,0.3,0.4,0.7,0.6,1c0,0.4-0.8,2-2.3,5c-1.6,2.9-2.5,4.4-2.7,4.5
		c-0.4,0-0.5-0.3-0.4-1.2c0.1-1,0.5-2,1-2.9c0.1-0.2,0.2-0.4,0.4-0.5c0.5-0.7,0.8-1.1,0.8-1.3c0-0.3-0.7-0.4-2-0.3
		c-0.2,0-0.6,0-1,0.1c-1.4,0.1-2.3,0-2.8-0.1C51.3,46.5,51,46,51,45.4c-0.1-0.5,0.2-1,0.6-1.4c0.4-0.3,1.3-0.5,2.5-0.7
		c0.8-0.1,1.5-0.3,2.2-0.5c0.6-0.2,0.9-0.4,0.9-0.6c-0.1-0.3-0.2-0.7-0.4-1c-0.2-0.5-0.5-0.9-0.8-1.4C55.7,39.4,55.5,38.9,55.3,38.3
		z"/>
	<path class="st3" d="M53,50.3c0.1,0.4,0.2,0.8,0.1,1.1c-0.1,0.3-0.3,0.3-0.6,0.1c-0.5-0.3-0.9-0.7-1.2-1.2
		c-0.5-0.6-0.9-1.1-1.4-1.7C49.4,48,49,47.5,48.7,47c-0.2-0.3-0.3-0.5-0.5-0.8c0-0.3,0.6-1.7,1.9-4.1c1.3-2.4,2-3.6,2.2-3.7
		c0.3,0,0.4,0.3,0.3,1c-0.1,0.8-0.4,1.6-0.8,2.3c-0.1,0.1-0.2,0.3-0.3,0.4c-0.4,0.6-0.7,0.9-0.7,1c0,0.2,0.6,0.3,1.6,0.2
		c0.2,0,0.5,0,0.8-0.1c1.1-0.1,1.9,0,2.3,0.1c0.4,0.1,0.7,0.5,0.7,1c0,0.4-0.1,0.8-0.5,1.1c-0.6,0.3-1.3,0.5-2,0.6
		c-0.6,0.1-1.2,0.2-1.8,0.4c-0.5,0.2-0.8,0.3-0.8,0.5c0,0.3,0.1,0.5,0.3,0.8c0.2,0.4,0.4,0.8,0.7,1.1C52.6,49.4,52.8,49.9,53,50.3z"
		/>
</g>
</svg>
