<?xml version="1.0" encoding="utf-8"?>
<!-- Generator: Adobe Illustrator 26.0.1, SVG Export Plug-In . SVG Version: 6.00 Build 0)  -->
<svg version="1.1" id="Слой_1" xmlns="http://www.w3.org/2000/svg" xmlns:xlink="http://www.w3.org/1999/xlink" x="0px" y="0px"
	 viewBox="0 0 238.6 50" style="enable-background:new 0 0 238.6 50;" xml:space="preserve">
<style type="text/css">
	.st0{fill:#020203;}
	.st1{opacity:0.15;}
	.st2{fill:none;stroke:#FFFFFF;stroke-width:1.5399;stroke-linecap:round;stroke-linejoin:round;stroke-miterlimit:10;}
	.st3{fill:#FFFFFF;}
	.st4{fill:none;stroke:#FFFFFF;stroke-width:0.7039;stroke-miterlimit:10;}
	.st5{clip-path:url(#SVGID_00000021079876178534871820000005383572666674248617_);}
	.st6{fill:none;stroke:#020203;stroke-width:0.4223;stroke-linecap:round;stroke-linejoin:round;stroke-miterlimit:10;}
	.st7{fill:#FFFFFF;stroke:#020203;stroke-width:0.4223;stroke-linecap:round;stroke-linejoin:round;stroke-miterlimit:10;}
	.st8{fill:none;stroke:#020203;stroke-width:0.7039;stroke-miterlimit:10;}
</style>
<g>
	<path class="st0" d="M-6.6-76.7V180H250V-76.7H-6.6z"/>
	<g class="st1">
		<line class="st2" x1="-6.6" y1="3.2" x2="250" y2="3.2"/>
		<line class="st2" x1="250" y1="44.6" x2="-6.6" y2="44.6"/>
		<line class="st2" x1="-6.6" y1="23.9" x2="250" y2="23.9"/>
		<path class="st3" d="M94.6,25.2c-0.3-0.5-0.6-1-1.1-1.3c0.2-0.3,0.4-0.6,0.5-0.8c0.4-0.6-0.4-1-0.8-0.7c-0.4,0.3-0.7,0.6-0.9,1
			c-0.1-0.2-0.1-0.4-0.2-0.7c-0.1-0.5-0.7-0.8-1-0.3c-0.2,0.4-0.4,0.8-0.6,1.1c0,0,0,0,0,0c-0.4-0.6-0.8-1.2-1.3-1.9
			c-0.4-0.6-1.3-0.1-0.9,0.5c0.3,0.5,0.6,1,1,1.5c-0.4,0.3-0.7,0.6-1.1,0.9c-0.5,0.5,0.3,1.2,0.8,0.8c0.3-0.3,0.6-0.5,0.9-0.7
			c0.1,0.1,0.1,0.2,0.2,0.3c0.2,0.3,0.8,0.4,0.9,0c0.1-0.3,0.3-0.6,0.4-0.8c0.1,0.2,0.2,0.4,0.3,0.6c0.2,0.3,0.7,0.4,0.9,0
			c0,0,0-0.1,0.1-0.1c0.4,0.3,0.6,0.7,0.9,1.1C94,26.3,94.9,25.8,94.6,25.2z"/>
		<path class="st3" d="M156.4,25.2c-0.3-0.5-0.6-1-1.1-1.3c0.2-0.3,0.4-0.6,0.5-0.8c0.4-0.6-0.4-1-0.8-0.7c-0.4,0.3-0.7,0.6-0.9,1
			c-0.1-0.2-0.1-0.4-0.2-0.7c-0.1-0.5-0.7-0.8-1-0.3c-0.2,0.4-0.4,0.8-0.6,1.1c0,0,0,0,0,0c-0.4-0.6-0.8-1.2-1.3-1.9
			c-0.4-0.6-1.3-0.1-0.9,0.5c0.3,0.5,0.6,1,1,1.5c-0.4,0.3-0.7,0.6-1.1,0.9c-0.5,0.5,0.3,1.2,0.8,0.8c0.3-0.3,0.6-0.5,0.9-0.7
			c0.1,0.1,0.1,0.2,0.2,0.3c0.2,0.3,0.8,0.4,0.9,0c0.1-0.3,0.3-0.6,0.4-0.8c0.1,0.2,0.2,0.4,0.3,0.6c0.2,0.3,0.7,0.4,0.9,0
			c0,0,0-0.1,0.1-0.1c0.4,0.3,0.6,0.7,0.9,1.1C155.8,26.3,156.8,25.8,156.4,25.2z"/>
		<g>
			<path class="st3" d="M46.3,25.2c-0.3-0.5-0.6-1-1.1-1.3c0.2-0.3,0.4-0.6,0.5-0.8c0.4-0.6-0.4-1-0.8-0.7c-0.4,0.3-0.7,0.6-0.9,1
				c-0.1-0.2-0.1-0.4-0.2-0.7c-0.1-0.5-0.7-0.8-1-0.3c-0.2,0.4-0.4,0.8-0.6,1.1c0,0,0,0,0,0c-0.4-0.6-0.8-1.2-1.3-1.9
				c-0.4-0.6-1.3-0.1-0.9,0.5c0.3,0.5,0.6,1,1,1.5c-0.4,0.3-0.7,0.6-1.1,0.9c-0.5,0.5,0.3,1.2,0.8,0.8c0.3-0.3,0.6-0.5,0.9-0.7
				c0.1,0.1,0.1,0.2,0.2,0.3c0.2,0.3,0.8,0.4,0.9,0c0.1-0.3,0.3-0.6,0.4-0.8c0.1,0.2,0.2,0.4,0.3,0.6c0.2,0.3,0.7,0.4,0.9,0
				c0,0,0-0.1,0.1-0.1c0.4,0.3,0.6,0.7,0.9,1.1C45.7,26.3,46.6,25.8,46.3,25.2z"/>
			<path class="st3" d="M203.5,25.2c-0.3-0.5-0.6-1-1.1-1.3c0.2-0.3,0.4-0.6,0.5-0.8c0.4-0.6-0.4-1-0.8-0.7c-0.4,0.3-0.7,0.6-0.9,1
				c-0.1-0.2-0.1-0.4-0.2-0.7c-0.1-0.5-0.7-0.8-1-0.3c-0.2,0.4-0.4,0.8-0.6,1.1c0,0,0,0,0,0c-0.4-0.6-0.8-1.2-1.3-1.9
				c-0.4-0.6-1.3-0.1-0.9,0.5c0.3,0.5,0.6,1,1,1.5c-0.4,0.3-0.7,0.6-1.1,0.9c-0.5,0.5,0.3,1.2,0.8,0.8c0.3-0.3,0.6-0.5,0.9-0.7
				c0.1,0.1,0.1,0.2,0.2,0.3c0.2,0.3,0.8,0.4,0.9,0c0.1-0.3,0.3-0.6,0.4-0.8c0.1,0.2,0.2,0.4,0.3,0.6c0.2,0.3,0.7,0.4,0.9,0
				c0,0,0-0.1,0.1-0.1c0.4,0.3,0.6,0.7,0.9,1.1C202.9,26.3,203.9,25.8,203.5,25.2z"/>
		</g>
		<path class="st3" d="M141.9,43c0.3,0.5,0.6,1,1.1,1.3c-0.2,0.3-0.4,0.6-0.5,0.8c-0.4,0.6,0.4,1,0.8,0.7c0.4-0.3,0.7-0.6,0.9-1
			c0.1,0.2,0.1,0.4,0.2,0.7c0.1,0.5,0.7,0.8,1,0.3c0.2-0.4,0.4-0.8,0.6-1.1c0,0,0,0,0,0c0.4,0.6,0.8,1.2,1.3,1.9
			c0.4,0.6,1.3,0.1,0.9-0.5c-0.3-0.5-0.6-1-1-1.5c0.4-0.3,0.7-0.6,1.1-0.9c0.5-0.5-0.3-1.2-0.8-0.8c-0.3,0.3-0.6,0.5-0.9,0.7
			c-0.1-0.1-0.1-0.2-0.2-0.3c-0.2-0.3-0.8-0.4-0.9,0c-0.1,0.3-0.3,0.6-0.4,0.8c-0.1-0.2-0.2-0.4-0.3-0.6c-0.2-0.3-0.7-0.4-0.9,0
			c0,0,0,0.1-0.1,0.1c-0.4-0.3-0.6-0.7-0.9-1.1C142.5,41.9,141.5,42.4,141.9,43z"/>
		<g>
			<path class="st3" d="M220.3,43c0.3,0.5,0.6,1,1.1,1.3c-0.2,0.3-0.4,0.6-0.5,0.8c-0.4,0.6,0.4,1,0.8,0.7c0.4-0.3,0.7-0.6,0.9-1
				c0.1,0.2,0.1,0.4,0.2,0.7c0.1,0.5,0.7,0.8,1,0.3c0.2-0.4,0.4-0.8,0.6-1.1c0,0,0,0,0,0c0.4,0.6,0.8,1.2,1.3,1.9
				c0.4,0.6,1.3,0.1,0.9-0.5c-0.3-0.5-0.6-1-1-1.5c0.4-0.3,0.7-0.6,1.1-0.9c0.5-0.5-0.3-1.2-0.8-0.8c-0.3,0.3-0.6,0.5-0.9,0.7
				c-0.1-0.1-0.1-0.2-0.2-0.3c-0.2-0.3-0.8-0.4-0.9,0c-0.1,0.3-0.3,0.6-0.4,0.8c-0.1-0.2-0.2-0.4-0.3-0.6c-0.2-0.3-0.7-0.4-0.9,0
				c0,0,0,0.1-0.1,0.1c-0.4-0.3-0.6-0.7-0.9-1.1C220.9,41.9,219.9,42.4,220.3,43z"/>
			<path class="st3" d="M16.7,43c0.3,0.5,0.6,1,1.1,1.3c-0.2,0.3-0.4,0.6-0.5,0.8c-0.4,0.6,0.4,1,0.8,0.7c0.4-0.3,0.7-0.6,0.9-1
				c0.1,0.2,0.1,0.4,0.2,0.7c0.1,0.5,0.7,0.8,1,0.3c0.2-0.4,0.4-0.8,0.6-1.1c0,0,0,0,0,0c0.4,0.6,0.8,1.2,1.3,1.9
				c0.4,0.6,1.3,0.1,0.9-0.5c-0.3-0.5-0.6-1-1-1.5c0.4-0.3,0.7-0.6,1.1-0.9c0.5-0.5-0.3-1.2-0.8-0.8c-0.3,0.3-0.6,0.5-0.9,0.7
				c-0.1-0.1-0.1-0.2-0.2-0.3c-0.2-0.3-0.8-0.4-0.9,0c-0.1,0.3-0.3,0.6-0.4,0.8c-0.1-0.2-0.2-0.4-0.3-0.6c-0.2-0.3-0.7-0.4-0.9,0
				c0,0,0,0.1-0.1,0.1c-0.4-0.3-0.6-0.7-0.9-1.1C17.3,41.9,16.3,42.4,16.7,43z"/>
		</g>
		<path class="st3" d="M96.3,43c0.3,0.5,0.6,1,1.1,1.3c-0.2,0.3-0.4,0.6-0.5,0.8c-0.4,0.6,0.4,1,0.8,0.7c0.4-0.3,0.7-0.6,0.9-1
			c0.1,0.2,0.1,0.4,0.2,0.7c0.1,0.5,0.7,0.8,1,0.3c0.2-0.4,0.4-0.8,0.6-1.1c0,0,0,0,0,0c0.4,0.6,0.8,1.2,1.3,1.9
			c0.4,0.6,1.3,0.1,0.9-0.5c-0.3-0.5-0.6-1-1-1.5c0.4-0.3,0.7-0.6,1.1-0.9c0.5-0.5-0.3-1.2-0.8-0.8c-0.3,0.3-0.6,0.5-0.9,0.7
			c-0.1-0.1-0.1-0.2-0.2-0.3c-0.2-0.3-0.8-0.4-0.9,0c-0.1,0.3-0.3,0.6-0.4,0.8c-0.1-0.2-0.2-0.4-0.3-0.6c-0.2-0.3-0.7-0.4-0.9,0
			c0,0,0,0.1-0.1,0.1c-0.4-0.3-0.6-0.7-0.9-1.1C96.9,41.9,96,42.4,96.3,43z"/>
		<path class="st3" d="M141.3,1.7c0.3,0.5,0.6,1,1.1,1.3c-0.2,0.3-0.4,0.6-0.5,0.8c-0.4,0.6,0.4,1,0.8,0.7c0.4-0.3,0.7-0.6,0.9-1
			c0.1,0.2,0.1,0.4,0.2,0.7c0.1,0.5,0.7,0.8,1,0.3c0.2-0.4,0.4-0.8,0.6-1.1c0,0,0,0,0,0c0.4,0.6,0.8,1.2,1.3,1.9
			c0.4,0.6,1.3,0.1,0.9-0.5c-0.3-0.5-0.6-1-1-1.5c0.4-0.3,0.7-0.6,1.1-0.9c0.5-0.5-0.3-1.2-0.8-0.8c-0.3,0.3-0.6,0.5-0.9,0.7
			c-0.1-0.1-0.1-0.2-0.2-0.3c-0.2-0.3-0.8-0.4-0.9,0c-0.1,0.3-0.3,0.6-0.4,0.8c-0.1-0.2-0.2-0.4-0.3-0.6c-0.2-0.3-0.7-0.4-0.9,0
			c0,0,0,0.1-0.1,0.1c-0.4-0.3-0.6-0.7-0.9-1.1C141.9,0.6,141,1.1,141.3,1.7z"/>
		<path class="st3" d="M95.2,1.7c0.3,0.5,0.6,1,1.1,1.3c-0.2,0.3-0.4,0.6-0.5,0.8c-0.4,0.6,0.4,1,0.8,0.7c0.4-0.3,0.7-0.6,0.9-1
			c0.1,0.2,0.1,0.4,0.2,0.7c0.1,0.5,0.7,0.8,1,0.3c0.2-0.4,0.4-0.8,0.6-1.1c0,0,0,0,0,0c0.4,0.6,0.8,1.2,1.3,1.9
			c0.4,0.6,1.3,0.1,0.9-0.5c-0.3-0.5-0.6-1-1-1.5c0.4-0.3,0.7-0.6,1.1-0.9c0.5-0.5-0.3-1.2-0.8-0.8c-0.3,0.3-0.6,0.5-0.9,0.7
			c-0.1-0.1-0.1-0.2-0.2-0.3c-0.2-0.3-0.8-0.4-0.9,0c-0.1,0.3-0.3,0.6-0.4,0.8c-0.1-0.2-0.2-0.4-0.3-0.6c-0.2-0.3-0.7-0.4-0.9,0
			c0,0,0,0.1-0.1,0.1c-0.4-0.3-0.6-0.7-0.9-1.1C95.8,0.6,94.8,1.1,95.2,1.7z"/>
		<g>
			<path class="st3" d="M231.1,1.7c0.3,0.5,0.6,1,1.1,1.3c-0.2,0.3-0.4,0.6-0.5,0.8c-0.4,0.6,0.4,1,0.8,0.7c0.4-0.3,0.7-0.6,0.9-1
				c0.1,0.2,0.1,0.4,0.2,0.7c0.1,0.5,0.7,0.8,1,0.3c0.2-0.4,0.4-0.8,0.6-1.1c0,0,0,0,0,0c0.4,0.6,0.8,1.2,1.3,1.9
				c0.4,0.6,1.3,0.1,0.9-0.5c-0.3-0.5-0.6-1-1-1.5c0.4-0.3,0.7-0.6,1.1-0.9c0.5-0.5-0.3-1.2-0.8-0.8c-0.3,0.3-0.6,0.5-0.9,0.7
				c-0.1-0.1-0.1-0.2-0.2-0.3c-0.2-0.3-0.8-0.4-0.9,0c-0.1,0.3-0.3,0.6-0.4,0.8c-0.1-0.2-0.2-0.4-0.3-0.6c-0.2-0.3-0.7-0.4-0.9,0
				c0,0,0,0.1-0.1,0.1c-0.4-0.3-0.6-0.7-0.9-1.1C231.7,0.6,230.8,1.1,231.1,1.7z"/>
			<path class="st3" d="M5.8,1.7c0.3,0.5,0.6,1,1.1,1.3C6.7,3.3,6.5,3.6,6.3,3.9C6,4.4,6.7,4.9,7.2,4.5c0.4-0.3,0.7-0.6,0.9-1
				C8.2,3.8,8.2,4,8.3,4.2C8.3,4.8,9,5,9.3,4.5c0.2-0.4,0.4-0.8,0.6-1.1c0,0,0,0,0,0c0.4,0.6,0.8,1.2,1.3,1.9
				c0.4,0.6,1.3,0.1,0.9-0.5c-0.3-0.5-0.6-1-1-1.5c0.4-0.3,0.7-0.6,1.1-0.9c0.5-0.5-0.3-1.2-0.8-0.8c-0.3,0.3-0.6,0.5-0.9,0.7
				c-0.1-0.1-0.1-0.2-0.2-0.3c-0.2-0.3-0.8-0.4-0.9,0C9.3,2.3,9.1,2.5,9,2.8C8.9,2.6,8.7,2.4,8.6,2.2c-0.2-0.3-0.7-0.4-0.9,0
				c0,0,0,0.1-0.1,0.1C7.3,2,7,1.6,6.7,1.2C6.4,0.6,5.5,1.1,5.8,1.7z"/>
		</g>
		<line class="st2" x1="-6.6" y1="65.3" x2="250" y2="65.3"/>
		<line class="st2" x1="-6.6" y1="-58.9" x2="250" y2="-58.9"/>
		<line class="st2" x1="250" y1="-17.5" x2="-6.6" y2="-17.5"/>
		<line class="st2" x1="-6.6" y1="-38.2" x2="250" y2="-38.2"/>
		<path class="st3" d="M94.6-36.9c-0.3-0.5-0.6-1-1.1-1.3c0.2-0.3,0.4-0.6,0.5-0.8c0.4-0.6-0.4-1-0.8-0.7c-0.4,0.3-0.7,0.6-0.9,1
			c-0.1-0.2-0.1-0.4-0.2-0.7c-0.1-0.5-0.7-0.8-1-0.3c-0.2,0.4-0.4,0.8-0.6,1.1c0,0,0,0,0,0c-0.4-0.6-0.8-1.2-1.3-1.9
			c-0.4-0.6-1.3-0.1-0.9,0.5c0.3,0.5,0.6,1,1,1.5c-0.4,0.3-0.7,0.6-1.1,0.9c-0.5,0.5,0.3,1.2,0.8,0.8c0.3-0.3,0.6-0.5,0.9-0.7
			c0.1,0.1,0.1,0.2,0.2,0.3c0.2,0.3,0.8,0.4,0.9,0c0.1-0.3,0.3-0.6,0.4-0.8c0.1,0.2,0.2,0.4,0.3,0.6c0.2,0.3,0.7,0.4,0.9,0
			c0,0,0-0.1,0.1-0.1c0.4,0.3,0.6,0.7,0.9,1.1C94-35.7,94.9-36.3,94.6-36.9z"/>
		<path class="st3" d="M156.4-36.9c-0.3-0.5-0.6-1-1.1-1.3c0.2-0.3,0.4-0.6,0.5-0.8c0.4-0.6-0.4-1-0.8-0.7c-0.4,0.3-0.7,0.6-0.9,1
			c-0.1-0.2-0.1-0.4-0.2-0.7c-0.1-0.5-0.7-0.8-1-0.3c-0.2,0.4-0.4,0.8-0.6,1.1c0,0,0,0,0,0c-0.4-0.6-0.8-1.2-1.3-1.9
			c-0.4-0.6-1.3-0.1-0.9,0.5c0.3,0.5,0.6,1,1,1.5c-0.4,0.3-0.7,0.6-1.1,0.9c-0.5,0.5,0.3,1.2,0.8,0.8c0.3-0.3,0.6-0.5,0.9-0.7
			c0.1,0.1,0.1,0.2,0.2,0.3c0.2,0.3,0.8,0.4,0.9,0c0.1-0.3,0.3-0.6,0.4-0.8c0.1,0.2,0.2,0.4,0.3,0.6c0.2,0.3,0.7,0.4,0.9,0
			c0,0,0-0.1,0.1-0.1c0.4,0.3,0.6,0.7,0.9,1.1C155.8-35.7,156.8-36.3,156.4-36.9z"/>
		<g>
			<path class="st3" d="M46.3-36.9c-0.3-0.5-0.6-1-1.1-1.3c0.2-0.3,0.4-0.6,0.5-0.8c0.4-0.6-0.4-1-0.8-0.7c-0.4,0.3-0.7,0.6-0.9,1
				c-0.1-0.2-0.1-0.4-0.2-0.7c-0.1-0.5-0.7-0.8-1-0.3c-0.2,0.4-0.4,0.8-0.6,1.1c0,0,0,0,0,0c-0.4-0.6-0.8-1.2-1.3-1.9
				c-0.4-0.6-1.3-0.1-0.9,0.5c0.3,0.5,0.6,1,1,1.5c-0.4,0.3-0.7,0.6-1.1,0.9c-0.5,0.5,0.3,1.2,0.8,0.8c0.3-0.3,0.6-0.5,0.9-0.7
				c0.1,0.1,0.1,0.2,0.2,0.3c0.2,0.3,0.8,0.4,0.9,0c0.1-0.3,0.3-0.6,0.4-0.8c0.1,0.2,0.2,0.4,0.3,0.6c0.2,0.3,0.7,0.4,0.9,0
				c0,0,0-0.1,0.1-0.1c0.4,0.3,0.6,0.7,0.9,1.1C45.7-35.7,46.6-36.3,46.3-36.9z"/>
			<path class="st3" d="M203.5-36.9c-0.3-0.5-0.6-1-1.1-1.3c0.2-0.3,0.4-0.6,0.5-0.8c0.4-0.6-0.4-1-0.8-0.7c-0.4,0.3-0.7,0.6-0.9,1
				c-0.1-0.2-0.1-0.4-0.2-0.7c-0.1-0.5-0.7-0.8-1-0.3c-0.2,0.4-0.4,0.8-0.6,1.1c0,0,0,0,0,0c-0.4-0.6-0.8-1.2-1.3-1.9
				c-0.4-0.6-1.3-0.1-0.9,0.5c0.3,0.5,0.6,1,1,1.5c-0.4,0.3-0.7,0.6-1.1,0.9c-0.5,0.5,0.3,1.2,0.8,0.8c0.3-0.3,0.6-0.5,0.9-0.7
				c0.1,0.1,0.1,0.2,0.2,0.3c0.2,0.3,0.8,0.4,0.9,0c0.1-0.3,0.3-0.6,0.4-0.8c0.1,0.2,0.2,0.4,0.3,0.6c0.2,0.3,0.7,0.4,0.9,0
				c0,0,0-0.1,0.1-0.1c0.4,0.3,0.6,0.7,0.9,1.1C202.9-35.7,203.9-36.3,203.5-36.9z"/>
		</g>
		<path class="st3" d="M141.9-19.1c0.3,0.5,0.6,1,1.1,1.3c-0.2,0.3-0.4,0.6-0.5,0.8c-0.4,0.6,0.4,1,0.8,0.7c0.4-0.3,0.7-0.6,0.9-1
			c0.1,0.2,0.1,0.4,0.2,0.7c0.1,0.5,0.7,0.8,1,0.3c0.2-0.4,0.4-0.8,0.6-1.1c0,0,0,0,0,0c0.4,0.6,0.8,1.2,1.3,1.9
			c0.4,0.6,1.3,0.1,0.9-0.5c-0.3-0.5-0.6-1-1-1.5c0.4-0.3,0.7-0.6,1.1-0.9c0.5-0.5-0.3-1.2-0.8-0.8c-0.3,0.3-0.6,0.5-0.9,0.7
			c-0.1-0.1-0.1-0.2-0.2-0.3c-0.2-0.3-0.8-0.4-0.9,0c-0.1,0.3-0.3,0.6-0.4,0.8c-0.1-0.2-0.2-0.4-0.3-0.6c-0.2-0.3-0.7-0.4-0.9,0
			c0,0,0,0.1-0.1,0.1c-0.4-0.3-0.6-0.7-0.9-1.1C142.5-20.2,141.5-19.7,141.9-19.1z"/>
		<g>
			<path class="st3" d="M220.3-19.1c0.3,0.5,0.6,1,1.1,1.3c-0.2,0.3-0.4,0.6-0.5,0.8c-0.4,0.6,0.4,1,0.8,0.7c0.4-0.3,0.7-0.6,0.9-1
				c0.1,0.2,0.1,0.4,0.2,0.7c0.1,0.5,0.7,0.8,1,0.3c0.2-0.4,0.4-0.8,0.6-1.1c0,0,0,0,0,0c0.4,0.6,0.8,1.2,1.3,1.9
				c0.4,0.6,1.3,0.1,0.9-0.5c-0.3-0.5-0.6-1-1-1.5c0.4-0.3,0.7-0.6,1.1-0.9c0.5-0.5-0.3-1.2-0.8-0.8c-0.3,0.3-0.6,0.5-0.9,0.7
				c-0.1-0.1-0.1-0.2-0.2-0.3c-0.2-0.3-0.8-0.4-0.9,0c-0.1,0.3-0.3,0.6-0.4,0.8c-0.1-0.2-0.2-0.4-0.3-0.6c-0.2-0.3-0.7-0.4-0.9,0
				c0,0,0,0.1-0.1,0.1c-0.4-0.3-0.6-0.7-0.9-1.1C220.9-20.2,219.9-19.7,220.3-19.1z"/>
			<path class="st3" d="M16.7-19.1c0.3,0.5,0.6,1,1.1,1.3c-0.2,0.3-0.4,0.6-0.5,0.8c-0.4,0.6,0.4,1,0.8,0.7c0.4-0.3,0.7-0.6,0.9-1
				c0.1,0.2,0.1,0.4,0.2,0.7c0.1,0.5,0.7,0.8,1,0.3c0.2-0.4,0.4-0.8,0.6-1.1c0,0,0,0,0,0c0.4,0.6,0.8,1.2,1.3,1.9
				c0.4,0.6,1.3,0.1,0.9-0.5c-0.3-0.5-0.6-1-1-1.5c0.4-0.3,0.7-0.6,1.1-0.9c0.5-0.5-0.3-1.2-0.8-0.8c-0.3,0.3-0.6,0.5-0.9,0.7
				c-0.1-0.1-0.1-0.2-0.2-0.3c-0.2-0.3-0.8-0.4-0.9,0c-0.1,0.3-0.3,0.6-0.4,0.8c-0.1-0.2-0.2-0.4-0.3-0.6c-0.2-0.3-0.7-0.4-0.9,0
				c0,0,0,0.1-0.1,0.1c-0.4-0.3-0.6-0.7-0.9-1.1C17.3-20.2,16.3-19.7,16.7-19.1z"/>
		</g>
		<path class="st3" d="M96.3-19.1c0.3,0.5,0.6,1,1.1,1.3c-0.2,0.3-0.4,0.6-0.5,0.8c-0.4,0.6,0.4,1,0.8,0.7c0.4-0.3,0.7-0.6,0.9-1
			c0.1,0.2,0.1,0.4,0.2,0.7c0.1,0.5,0.7,0.8,1,0.3c0.2-0.4,0.4-0.8,0.6-1.1c0,0,0,0,0,0c0.4,0.6,0.8,1.2,1.3,1.9
			c0.4,0.6,1.3,0.1,0.9-0.5c-0.3-0.5-0.6-1-1-1.5c0.4-0.3,0.7-0.6,1.1-0.9c0.5-0.5-0.3-1.2-0.8-0.8c-0.3,0.3-0.6,0.5-0.9,0.7
			c-0.1-0.1-0.1-0.2-0.2-0.3c-0.2-0.3-0.8-0.4-0.9,0c-0.1,0.3-0.3,0.6-0.4,0.8c-0.1-0.2-0.2-0.4-0.3-0.6c-0.2-0.3-0.7-0.4-0.9,0
			c0,0,0,0.1-0.1,0.1c-0.4-0.3-0.6-0.7-0.9-1.1C96.9-20.2,96-19.7,96.3-19.1z"/>
		<path class="st3" d="M141.3-60.4c0.3,0.5,0.6,1,1.1,1.3c-0.2,0.3-0.4,0.6-0.5,0.8c-0.4,0.6,0.4,1,0.8,0.7c0.4-0.3,0.7-0.6,0.9-1
			c0.1,0.2,0.1,0.4,0.2,0.7c0.1,0.5,0.7,0.8,1,0.3c0.2-0.4,0.4-0.8,0.6-1.1c0,0,0,0,0,0c0.4,0.6,0.8,1.2,1.3,1.9
			c0.4,0.6,1.3,0.1,0.9-0.5c-0.3-0.5-0.6-1-1-1.5c0.4-0.3,0.7-0.6,1.1-0.9c0.5-0.5-0.3-1.2-0.8-0.8c-0.3,0.3-0.6,0.5-0.9,0.7
			c-0.1-0.1-0.1-0.2-0.2-0.3c-0.2-0.3-0.8-0.4-0.9,0c-0.1,0.3-0.3,0.6-0.4,0.8c-0.1-0.2-0.2-0.4-0.3-0.6c-0.2-0.3-0.7-0.4-0.9,0
			c0,0,0,0.1-0.1,0.1c-0.4-0.3-0.6-0.7-0.9-1.1C141.9-61.5,141-61,141.3-60.4z"/>
		<path class="st3" d="M95.2-60.4c0.3,0.5,0.6,1,1.1,1.3c-0.2,0.3-0.4,0.6-0.5,0.8c-0.4,0.6,0.4,1,0.8,0.7c0.4-0.3,0.7-0.6,0.9-1
			c0.1,0.2,0.1,0.4,0.2,0.7c0.1,0.5,0.7,0.8,1,0.3c0.2-0.4,0.4-0.8,0.6-1.1c0,0,0,0,0,0c0.4,0.6,0.8,1.2,1.3,1.9
			c0.4,0.6,1.3,0.1,0.9-0.5c-0.3-0.5-0.6-1-1-1.5c0.4-0.3,0.7-0.6,1.1-0.9c0.5-0.5-0.3-1.2-0.8-0.8c-0.3,0.3-0.6,0.5-0.9,0.7
			c-0.1-0.1-0.1-0.2-0.2-0.3c-0.2-0.3-0.8-0.4-0.9,0c-0.1,0.3-0.3,0.6-0.4,0.8c-0.1-0.2-0.2-0.4-0.3-0.6c-0.2-0.3-0.7-0.4-0.9,0
			c0,0,0,0.1-0.1,0.1c-0.4-0.3-0.6-0.7-0.9-1.1C95.8-61.5,94.8-61,95.2-60.4z"/>
		<g>
			<path class="st3" d="M231.1-60.4c0.3,0.5,0.6,1,1.1,1.3c-0.2,0.3-0.4,0.6-0.5,0.8c-0.4,0.6,0.4,1,0.8,0.7c0.4-0.3,0.7-0.6,0.9-1
				c0.1,0.2,0.1,0.4,0.2,0.7c0.1,0.5,0.7,0.8,1,0.3c0.2-0.4,0.4-0.8,0.6-1.1c0,0,0,0,0,0c0.4,0.6,0.8,1.2,1.3,1.9
				c0.4,0.6,1.3,0.1,0.9-0.5c-0.3-0.5-0.6-1-1-1.5c0.4-0.3,0.7-0.6,1.1-0.9c0.5-0.5-0.3-1.2-0.8-0.8c-0.3,0.3-0.6,0.5-0.9,0.7
				c-0.1-0.1-0.1-0.2-0.2-0.3c-0.2-0.3-0.8-0.4-0.9,0c-0.1,0.3-0.3,0.6-0.4,0.8c-0.1-0.2-0.2-0.4-0.3-0.6c-0.2-0.3-0.7-0.4-0.9,0
				c0,0,0,0.1-0.1,0.1c-0.4-0.3-0.6-0.7-0.9-1.1C231.7-61.5,230.8-61,231.1-60.4z"/>
			<path class="st3" d="M5.8-60.4c0.3,0.5,0.6,1,1.1,1.3c-0.2,0.3-0.4,0.6-0.5,0.8c-0.4,0.6,0.4,1,0.8,0.7c0.4-0.3,0.7-0.6,0.9-1
				c0.1,0.2,0.1,0.4,0.2,0.7c0.1,0.5,0.7,0.8,1,0.3c0.2-0.4,0.4-0.8,0.6-1.1c0,0,0,0,0,0c0.4,0.6,0.8,1.2,1.3,1.9
				c0.4,0.6,1.3,0.1,0.9-0.5c-0.3-0.5-0.6-1-1-1.5c0.4-0.3,0.7-0.6,1.1-0.9c0.5-0.5-0.3-1.2-0.8-0.8c-0.3,0.3-0.6,0.5-0.9,0.7
				c-0.1-0.1-0.1-0.2-0.2-0.3c-0.2-0.3-0.8-0.4-0.9,0c-0.1,0.3-0.3,0.6-0.4,0.8c-0.1-0.2-0.2-0.4-0.3-0.6c-0.2-0.3-0.7-0.4-0.9,0
				c0,0,0,0.1-0.1,0.1c-0.4-0.3-0.6-0.7-0.9-1.1C6.4-61.5,5.5-61,5.8-60.4z"/>
		</g>
		<line class="st2" x1="250" y1="106.7" x2="-6.6" y2="106.7"/>
		<line class="st2" x1="-6.6" y1="86" x2="250" y2="86"/>
		<path class="st3" d="M94.6,87.2c-0.3-0.5-0.6-1-1.1-1.3c0.2-0.3,0.4-0.6,0.5-0.8c0.4-0.6-0.4-1-0.8-0.7c-0.4,0.3-0.7,0.6-0.9,1
			c-0.1-0.2-0.1-0.4-0.2-0.7c-0.1-0.5-0.7-0.8-1-0.3c-0.2,0.4-0.4,0.8-0.6,1.1c0,0,0,0,0,0c-0.4-0.6-0.8-1.2-1.3-1.9
			c-0.4-0.6-1.3-0.1-0.9,0.5c0.3,0.5,0.6,1,1,1.5c-0.4,0.3-0.7,0.6-1.1,0.9c-0.5,0.5,0.3,1.2,0.8,0.8c0.3-0.3,0.6-0.5,0.9-0.7
			c0.1,0.1,0.1,0.2,0.2,0.3c0.2,0.3,0.8,0.4,0.9,0c0.1-0.3,0.3-0.6,0.4-0.8c0.1,0.2,0.2,0.4,0.3,0.6c0.2,0.3,0.7,0.4,0.9,0
			c0,0,0-0.1,0.1-0.1c0.4,0.3,0.6,0.7,0.9,1.1C94,88.4,94.9,87.9,94.6,87.2z"/>
		<path class="st3" d="M156.4,87.2c-0.3-0.5-0.6-1-1.1-1.3c0.2-0.3,0.4-0.6,0.5-0.8c0.4-0.6-0.4-1-0.8-0.7c-0.4,0.3-0.7,0.6-0.9,1
			c-0.1-0.2-0.1-0.4-0.2-0.7c-0.1-0.5-0.7-0.8-1-0.3c-0.2,0.4-0.4,0.8-0.6,1.1c0,0,0,0,0,0c-0.4-0.6-0.8-1.2-1.3-1.9
			c-0.4-0.6-1.3-0.1-0.9,0.5c0.3,0.5,0.6,1,1,1.5c-0.4,0.3-0.7,0.6-1.1,0.9c-0.5,0.5,0.3,1.2,0.8,0.8c0.3-0.3,0.6-0.5,0.9-0.7
			c0.1,0.1,0.1,0.2,0.2,0.3c0.2,0.3,0.8,0.4,0.9,0c0.1-0.3,0.3-0.6,0.4-0.8c0.1,0.2,0.2,0.4,0.3,0.6c0.2,0.3,0.7,0.4,0.9,0
			c0,0,0-0.1,0.1-0.1c0.4,0.3,0.6,0.7,0.9,1.1C155.8,88.4,156.8,87.9,156.4,87.2z"/>
		<g>
			<path class="st3" d="M46.3,87.2c-0.3-0.5-0.6-1-1.1-1.3c0.2-0.3,0.4-0.6,0.5-0.8c0.4-0.6-0.4-1-0.8-0.7c-0.4,0.3-0.7,0.6-0.9,1
				c-0.1-0.2-0.1-0.4-0.2-0.7c-0.1-0.5-0.7-0.8-1-0.3c-0.2,0.4-0.4,0.8-0.6,1.1c0,0,0,0,0,0c-0.4-0.6-0.8-1.2-1.3-1.9
				c-0.4-0.6-1.3-0.1-0.9,0.5c0.3,0.5,0.6,1,1,1.5c-0.4,0.3-0.7,0.6-1.1,0.9c-0.5,0.5,0.3,1.2,0.8,0.8c0.3-0.3,0.6-0.5,0.9-0.7
				c0.1,0.1,0.1,0.2,0.2,0.3c0.2,0.3,0.8,0.4,0.9,0c0.1-0.3,0.3-0.6,0.4-0.8c0.1,0.2,0.2,0.4,0.3,0.6c0.2,0.3,0.7,0.4,0.9,0
				c0,0,0-0.1,0.1-0.1c0.4,0.3,0.6,0.7,0.9,1.1C45.7,88.4,46.6,87.9,46.3,87.2z"/>
			<path class="st3" d="M203.5,87.2c-0.3-0.5-0.6-1-1.1-1.3c0.2-0.3,0.4-0.6,0.5-0.8c0.4-0.6-0.4-1-0.8-0.7c-0.4,0.3-0.7,0.6-0.9,1
				c-0.1-0.2-0.1-0.4-0.2-0.7c-0.1-0.5-0.7-0.8-1-0.3c-0.2,0.4-0.4,0.8-0.6,1.1c0,0,0,0,0,0c-0.4-0.6-0.8-1.2-1.3-1.9
				c-0.4-0.6-1.3-0.1-0.9,0.5c0.3,0.5,0.6,1,1,1.5c-0.4,0.3-0.7,0.6-1.1,0.9c-0.5,0.5,0.3,1.2,0.8,0.8c0.3-0.3,0.6-0.5,0.9-0.7
				c0.1,0.1,0.1,0.2,0.2,0.3c0.2,0.3,0.8,0.4,0.9,0c0.1-0.3,0.3-0.6,0.4-0.8c0.1,0.2,0.2,0.4,0.3,0.6c0.2,0.3,0.7,0.4,0.9,0
				c0,0,0-0.1,0.1-0.1c0.4,0.3,0.6,0.7,0.9,1.1C202.9,88.4,203.9,87.9,203.5,87.2z"/>
		</g>
		<path class="st3" d="M141.9,105.1c0.3,0.5,0.6,1,1.1,1.3c-0.2,0.3-0.4,0.6-0.5,0.8c-0.4,0.6,0.4,1,0.8,0.7c0.4-0.3,0.7-0.6,0.9-1
			c0.1,0.2,0.1,0.4,0.2,0.7c0.1,0.5,0.7,0.8,1,0.3c0.2-0.4,0.4-0.8,0.6-1.1c0,0,0,0,0,0c0.4,0.6,0.8,1.2,1.3,1.9
			c0.4,0.6,1.3,0.1,0.9-0.5c-0.3-0.5-0.6-1-1-1.5c0.4-0.3,0.7-0.6,1.1-0.9c0.5-0.5-0.3-1.2-0.8-0.8c-0.3,0.3-0.6,0.5-0.9,0.7
			c-0.1-0.1-0.1-0.2-0.2-0.3c-0.2-0.3-0.8-0.4-0.9,0c-0.1,0.3-0.3,0.6-0.4,0.8c-0.1-0.2-0.2-0.4-0.3-0.6c-0.2-0.3-0.7-0.4-0.9,0
			c0,0,0,0.1-0.1,0.1c-0.4-0.3-0.6-0.7-0.9-1.1C142.5,103.9,141.5,104.5,141.9,105.1z"/>
		<g>
			<path class="st3" d="M220.3,105.1c0.3,0.5,0.6,1,1.1,1.3c-0.2,0.3-0.4,0.6-0.5,0.8c-0.4,0.6,0.4,1,0.8,0.7c0.4-0.3,0.7-0.6,0.9-1
				c0.1,0.2,0.1,0.4,0.2,0.7c0.1,0.5,0.7,0.8,1,0.3c0.2-0.4,0.4-0.8,0.6-1.1c0,0,0,0,0,0c0.4,0.6,0.8,1.2,1.3,1.9
				c0.4,0.6,1.3,0.1,0.9-0.5c-0.3-0.5-0.6-1-1-1.5c0.4-0.3,0.7-0.6,1.1-0.9c0.5-0.5-0.3-1.2-0.8-0.8c-0.3,0.3-0.6,0.5-0.9,0.7
				c-0.1-0.1-0.1-0.2-0.2-0.3c-0.2-0.3-0.8-0.4-0.9,0c-0.1,0.3-0.3,0.6-0.4,0.8c-0.1-0.2-0.2-0.4-0.3-0.6c-0.2-0.3-0.7-0.4-0.9,0
				c0,0,0,0.1-0.1,0.1c-0.4-0.3-0.6-0.7-0.9-1.1C220.9,103.9,219.9,104.5,220.3,105.1z"/>
			<path class="st3" d="M16.7,105.1c0.3,0.5,0.6,1,1.1,1.3c-0.2,0.3-0.4,0.6-0.5,0.8c-0.4,0.6,0.4,1,0.8,0.7c0.4-0.3,0.7-0.6,0.9-1
				c0.1,0.2,0.1,0.4,0.2,0.7c0.1,0.5,0.7,0.8,1,0.3c0.2-0.4,0.4-0.8,0.6-1.1c0,0,0,0,0,0c0.4,0.6,0.8,1.2,1.3,1.9
				c0.4,0.6,1.3,0.1,0.9-0.5c-0.3-0.5-0.6-1-1-1.5c0.4-0.3,0.7-0.6,1.1-0.9c0.5-0.5-0.3-1.2-0.8-0.8c-0.3,0.3-0.6,0.5-0.9,0.7
				c-0.1-0.1-0.1-0.2-0.2-0.3c-0.2-0.3-0.8-0.4-0.9,0c-0.1,0.3-0.3,0.6-0.4,0.8c-0.1-0.2-0.2-0.4-0.3-0.6c-0.2-0.3-0.7-0.4-0.9,0
				c0,0,0,0.1-0.1,0.1c-0.4-0.3-0.6-0.7-0.9-1.1C17.3,103.9,16.3,104.5,16.7,105.1z"/>
		</g>
		<path class="st3" d="M96.3,105.1c0.3,0.5,0.6,1,1.1,1.3c-0.2,0.3-0.4,0.6-0.5,0.8c-0.4,0.6,0.4,1,0.8,0.7c0.4-0.3,0.7-0.6,0.9-1
			c0.1,0.2,0.1,0.4,0.2,0.7c0.1,0.5,0.7,0.8,1,0.3c0.2-0.4,0.4-0.8,0.6-1.1c0,0,0,0,0,0c0.4,0.6,0.8,1.2,1.3,1.9
			c0.4,0.6,1.3,0.1,0.9-0.5c-0.3-0.5-0.6-1-1-1.5c0.4-0.3,0.7-0.6,1.1-0.9c0.5-0.5-0.3-1.2-0.8-0.8c-0.3,0.3-0.6,0.5-0.9,0.7
			c-0.1-0.1-0.1-0.2-0.2-0.3c-0.2-0.3-0.8-0.4-0.9,0c-0.1,0.3-0.3,0.6-0.4,0.8c-0.1-0.2-0.2-0.4-0.3-0.6c-0.2-0.3-0.7-0.4-0.9,0
			c0,0,0,0.1-0.1,0.1c-0.4-0.3-0.6-0.7-0.9-1.1C96.9,103.9,96,104.5,96.3,105.1z"/>
		<path class="st3" d="M141.3,63.8c0.3,0.5,0.6,1,1.1,1.3c-0.2,0.3-0.4,0.6-0.5,0.8c-0.4,0.6,0.4,1,0.8,0.7c0.4-0.3,0.7-0.6,0.9-1
			c0.1,0.2,0.1,0.4,0.2,0.7c0.1,0.5,0.7,0.8,1,0.3c0.2-0.4,0.4-0.8,0.6-1.1c0,0,0,0,0,0c0.4,0.6,0.8,1.2,1.3,1.9
			c0.4,0.6,1.3,0.1,0.9-0.5c-0.3-0.5-0.6-1-1-1.5c0.4-0.3,0.7-0.6,1.1-0.9c0.5-0.5-0.3-1.2-0.8-0.8c-0.3,0.3-0.6,0.5-0.9,0.7
			c-0.1-0.1-0.1-0.2-0.2-0.3c-0.2-0.3-0.8-0.4-0.9,0c-0.1,0.3-0.3,0.6-0.4,0.8c-0.1-0.2-0.2-0.4-0.3-0.6c-0.2-0.3-0.7-0.4-0.9,0
			c0,0,0,0.1-0.1,0.1c-0.4-0.3-0.6-0.7-0.9-1.1C141.9,62.6,141,63.2,141.3,63.8z"/>
		<path class="st3" d="M95.2,63.8c0.3,0.5,0.6,1,1.1,1.3c-0.2,0.3-0.4,0.6-0.5,0.8c-0.4,0.6,0.4,1,0.8,0.7c0.4-0.3,0.7-0.6,0.9-1
			c0.1,0.2,0.1,0.4,0.2,0.7c0.1,0.5,0.7,0.8,1,0.3c0.2-0.4,0.4-0.8,0.6-1.1c0,0,0,0,0,0c0.4,0.6,0.8,1.2,1.3,1.9
			c0.4,0.6,1.3,0.1,0.9-0.5c-0.3-0.5-0.6-1-1-1.5c0.4-0.3,0.7-0.6,1.1-0.9c0.5-0.5-0.3-1.2-0.8-0.8c-0.3,0.3-0.6,0.5-0.9,0.7
			c-0.1-0.1-0.1-0.2-0.2-0.3c-0.2-0.3-0.8-0.4-0.9,0c-0.1,0.3-0.3,0.6-0.4,0.8c-0.1-0.2-0.2-0.4-0.3-0.6c-0.2-0.3-0.7-0.4-0.9,0
			c0,0,0,0.1-0.1,0.1c-0.4-0.3-0.6-0.7-0.9-1.1C95.8,62.6,94.8,63.2,95.2,63.8z"/>
		<g>
			<path class="st3" d="M231.1,63.8c0.3,0.5,0.6,1,1.1,1.3c-0.2,0.3-0.4,0.6-0.5,0.8c-0.4,0.6,0.4,1,0.8,0.7c0.4-0.3,0.7-0.6,0.9-1
				c0.1,0.2,0.1,0.4,0.2,0.7c0.1,0.5,0.7,0.8,1,0.3c0.2-0.4,0.4-0.8,0.6-1.1c0,0,0,0,0,0c0.4,0.6,0.8,1.2,1.3,1.9
				c0.4,0.6,1.3,0.1,0.9-0.5c-0.3-0.5-0.6-1-1-1.5c0.4-0.3,0.7-0.6,1.1-0.9c0.5-0.5-0.3-1.2-0.8-0.8c-0.3,0.3-0.6,0.5-0.9,0.7
				c-0.1-0.1-0.1-0.2-0.2-0.3c-0.2-0.3-0.8-0.4-0.9,0c-0.1,0.3-0.3,0.6-0.4,0.8c-0.1-0.2-0.2-0.4-0.3-0.6c-0.2-0.3-0.7-0.4-0.9,0
				c0,0,0,0.1-0.1,0.1c-0.4-0.3-0.6-0.7-0.9-1.1C231.7,62.6,230.8,63.2,231.1,63.8z"/>
			<path class="st3" d="M5.8,63.8c0.3,0.5,0.6,1,1.1,1.3c-0.2,0.3-0.4,0.6-0.5,0.8c-0.4,0.6,0.4,1,0.8,0.7c0.4-0.3,0.7-0.6,0.9-1
				c0.1,0.2,0.1,0.4,0.2,0.7c0.1,0.5,0.7,0.8,1,0.3c0.2-0.4,0.4-0.8,0.6-1.1c0,0,0,0,0,0c0.4,0.6,0.8,1.2,1.3,1.9
				c0.4,0.6,1.3,0.1,0.9-0.5c-0.3-0.5-0.6-1-1-1.5c0.4-0.3,0.7-0.6,1.1-0.9c0.5-0.5-0.3-1.2-0.8-0.8c-0.3,0.3-0.6,0.5-0.9,0.7
				c-0.1-0.1-0.1-0.2-0.2-0.3c-0.2-0.3-0.8-0.4-0.9,0c-0.1,0.3-0.3,0.6-0.4,0.8c-0.1-0.2-0.2-0.4-0.3-0.6c-0.2-0.3-0.7-0.4-0.9,0
				c0,0,0,0.1-0.1,0.1C7.3,64,7,63.7,6.7,63.2C6.4,62.6,5.5,63.2,5.8,63.8z"/>
		</g>
		<line class="st2" x1="-6.6" y1="127.3" x2="250" y2="127.3"/>
		<line class="st2" x1="250" y1="168.7" x2="-6.6" y2="168.7"/>
		<line class="st2" x1="-6.6" y1="148" x2="250" y2="148"/>
		<path class="st3" d="M94.6,149.2c-0.3-0.5-0.6-1-1.1-1.3c0.2-0.3,0.4-0.6,0.5-0.8c0.4-0.6-0.4-1-0.8-0.7c-0.4,0.3-0.7,0.6-0.9,1
			c-0.1-0.2-0.1-0.4-0.2-0.7c-0.1-0.5-0.7-0.8-1-0.3c-0.2,0.4-0.4,0.8-0.6,1.1c0,0,0,0,0,0c-0.4-0.6-0.8-1.2-1.3-1.9
			c-0.4-0.6-1.3-0.1-0.9,0.5c0.3,0.5,0.6,1,1,1.5c-0.4,0.3-0.7,0.6-1.1,0.9c-0.5,0.5,0.3,1.2,0.8,0.8c0.3-0.3,0.6-0.5,0.9-0.7
			c0.1,0.1,0.1,0.2,0.2,0.3c0.2,0.3,0.8,0.4,0.9,0c0.1-0.3,0.3-0.6,0.4-0.8c0.1,0.2,0.2,0.4,0.3,0.6c0.2,0.3,0.7,0.4,0.9,0
			c0,0,0-0.1,0.1-0.1c0.4,0.3,0.6,0.7,0.9,1.1C94,150.4,94.9,149.8,94.6,149.2z"/>
		<path class="st3" d="M156.4,149.2c-0.3-0.5-0.6-1-1.1-1.3c0.2-0.3,0.4-0.6,0.5-0.8c0.4-0.6-0.4-1-0.8-0.7c-0.4,0.3-0.7,0.6-0.9,1
			c-0.1-0.2-0.1-0.4-0.2-0.7c-0.1-0.5-0.7-0.8-1-0.3c-0.2,0.4-0.4,0.8-0.6,1.1c0,0,0,0,0,0c-0.4-0.6-0.8-1.2-1.3-1.9
			c-0.4-0.6-1.3-0.1-0.9,0.5c0.3,0.5,0.6,1,1,1.5c-0.4,0.3-0.7,0.6-1.1,0.9c-0.5,0.5,0.3,1.2,0.8,0.8c0.3-0.3,0.6-0.5,0.9-0.7
			c0.1,0.1,0.1,0.2,0.2,0.3c0.2,0.3,0.8,0.4,0.9,0c0.1-0.3,0.3-0.6,0.4-0.8c0.1,0.2,0.2,0.4,0.3,0.6c0.2,0.3,0.7,0.4,0.9,0
			c0,0,0-0.1,0.1-0.1c0.4,0.3,0.6,0.7,0.9,1.1C155.8,150.4,156.8,149.8,156.4,149.2z"/>
		<g>
			<path class="st3" d="M46.3,149.2c-0.3-0.5-0.6-1-1.1-1.3c0.2-0.3,0.4-0.6,0.5-0.8c0.4-0.6-0.4-1-0.8-0.7c-0.4,0.3-0.7,0.6-0.9,1
				c-0.1-0.2-0.1-0.4-0.2-0.7c-0.1-0.5-0.7-0.8-1-0.3c-0.2,0.4-0.4,0.8-0.6,1.1c0,0,0,0,0,0c-0.4-0.6-0.8-1.2-1.3-1.9
				c-0.4-0.6-1.3-0.1-0.9,0.5c0.3,0.5,0.6,1,1,1.5c-0.4,0.3-0.7,0.6-1.1,0.9c-0.5,0.5,0.3,1.2,0.8,0.8c0.3-0.3,0.6-0.5,0.9-0.7
				c0.1,0.1,0.1,0.2,0.2,0.3c0.2,0.3,0.8,0.4,0.9,0c0.1-0.3,0.3-0.6,0.4-0.8c0.1,0.2,0.2,0.4,0.3,0.6c0.2,0.3,0.7,0.4,0.9,0
				c0,0,0-0.1,0.1-0.1c0.4,0.3,0.6,0.7,0.9,1.1C45.7,150.4,46.6,149.8,46.3,149.2z"/>
			<path class="st3" d="M203.5,149.2c-0.3-0.5-0.6-1-1.1-1.3c0.2-0.3,0.4-0.6,0.5-0.8c0.4-0.6-0.4-1-0.8-0.7c-0.4,0.3-0.7,0.6-0.9,1
				c-0.1-0.2-0.1-0.4-0.2-0.7c-0.1-0.5-0.7-0.8-1-0.3c-0.2,0.4-0.4,0.8-0.6,1.1c0,0,0,0,0,0c-0.4-0.6-0.8-1.2-1.3-1.9
				c-0.4-0.6-1.3-0.1-0.9,0.5c0.3,0.5,0.6,1,1,1.5c-0.4,0.3-0.7,0.6-1.1,0.9c-0.5,0.5,0.3,1.2,0.8,0.8c0.3-0.3,0.6-0.5,0.9-0.7
				c0.1,0.1,0.1,0.2,0.2,0.3c0.2,0.3,0.8,0.4,0.9,0c0.1-0.3,0.3-0.6,0.4-0.8c0.1,0.2,0.2,0.4,0.3,0.6c0.2,0.3,0.7,0.4,0.9,0
				c0,0,0-0.1,0.1-0.1c0.4,0.3,0.6,0.7,0.9,1.1C202.9,150.4,203.9,149.8,203.5,149.2z"/>
		</g>
		<path class="st3" d="M141.9,167.1c0.3,0.5,0.6,1,1.1,1.3c-0.2,0.3-0.4,0.6-0.5,0.8c-0.4,0.6,0.4,1,0.8,0.7c0.4-0.3,0.7-0.6,0.9-1
			c0.1,0.2,0.1,0.4,0.2,0.7c0.1,0.5,0.7,0.8,1,0.3c0.2-0.4,0.4-0.8,0.6-1.1c0,0,0,0,0,0c0.4,0.6,0.8,1.2,1.3,1.9
			c0.4,0.6,1.3,0.1,0.9-0.5c-0.3-0.5-0.6-1-1-1.5c0.4-0.3,0.7-0.6,1.1-0.9c0.5-0.5-0.3-1.2-0.8-0.8c-0.3,0.3-0.6,0.5-0.9,0.7
			c-0.1-0.1-0.1-0.2-0.2-0.3c-0.2-0.3-0.8-0.4-0.9,0c-0.1,0.3-0.3,0.6-0.4,0.8c-0.1-0.2-0.2-0.4-0.3-0.6c-0.2-0.3-0.7-0.4-0.9,0
			c0,0,0,0.1-0.1,0.1c-0.4-0.3-0.6-0.7-0.9-1.1C142.5,165.9,141.5,166.5,141.9,167.1z"/>
		<g>
			<path class="st3" d="M220.3,167.1c0.3,0.5,0.6,1,1.1,1.3c-0.2,0.3-0.4,0.6-0.5,0.8c-0.4,0.6,0.4,1,0.8,0.7c0.4-0.3,0.7-0.6,0.9-1
				c0.1,0.2,0.1,0.4,0.2,0.7c0.1,0.5,0.7,0.8,1,0.3c0.2-0.4,0.4-0.8,0.6-1.1c0,0,0,0,0,0c0.4,0.6,0.8,1.2,1.3,1.9
				c0.4,0.6,1.3,0.1,0.9-0.5c-0.3-0.5-0.6-1-1-1.5c0.4-0.3,0.7-0.6,1.1-0.9c0.5-0.5-0.3-1.2-0.8-0.8c-0.3,0.3-0.6,0.5-0.9,0.7
				c-0.1-0.1-0.1-0.2-0.2-0.3c-0.2-0.3-0.8-0.4-0.9,0c-0.1,0.3-0.3,0.6-0.4,0.8c-0.1-0.2-0.2-0.4-0.3-0.6c-0.2-0.3-0.7-0.4-0.9,0
				c0,0,0,0.1-0.1,0.1c-0.4-0.3-0.6-0.7-0.9-1.1C220.9,165.9,219.9,166.5,220.3,167.1z"/>
			<path class="st3" d="M16.7,167.1c0.3,0.5,0.6,1,1.1,1.3c-0.2,0.3-0.4,0.6-0.5,0.8c-0.4,0.6,0.4,1,0.8,0.7c0.4-0.3,0.7-0.6,0.9-1
				c0.1,0.2,0.1,0.4,0.2,0.7c0.1,0.5,0.7,0.8,1,0.3c0.2-0.4,0.4-0.8,0.6-1.1c0,0,0,0,0,0c0.4,0.6,0.8,1.2,1.3,1.9
				c0.4,0.6,1.3,0.1,0.9-0.5c-0.3-0.5-0.6-1-1-1.5c0.4-0.3,0.7-0.6,1.1-0.9c0.5-0.5-0.3-1.2-0.8-0.8c-0.3,0.3-0.6,0.5-0.9,0.7
				c-0.1-0.1-0.1-0.2-0.2-0.3c-0.2-0.3-0.8-0.4-0.9,0c-0.1,0.3-0.3,0.6-0.4,0.8c-0.1-0.2-0.2-0.4-0.3-0.6c-0.2-0.3-0.7-0.4-0.9,0
				c0,0,0,0.1-0.1,0.1c-0.4-0.3-0.6-0.7-0.9-1.1C17.3,165.9,16.3,166.5,16.7,167.1z"/>
		</g>
		<path class="st3" d="M96.3,167.1c0.3,0.5,0.6,1,1.1,1.3c-0.2,0.3-0.4,0.6-0.5,0.8c-0.4,0.6,0.4,1,0.8,0.7c0.4-0.3,0.7-0.6,0.9-1
			c0.1,0.2,0.1,0.4,0.2,0.7c0.1,0.5,0.7,0.8,1,0.3c0.2-0.4,0.4-0.8,0.6-1.1c0,0,0,0,0,0c0.4,0.6,0.8,1.2,1.3,1.9
			c0.4,0.6,1.3,0.1,0.9-0.5c-0.3-0.5-0.6-1-1-1.5c0.4-0.3,0.7-0.6,1.1-0.9c0.5-0.5-0.3-1.2-0.8-0.8c-0.3,0.3-0.6,0.5-0.9,0.7
			c-0.1-0.1-0.1-0.2-0.2-0.3c-0.2-0.3-0.8-0.4-0.9,0c-0.1,0.3-0.3,0.6-0.4,0.8c-0.1-0.2-0.2-0.4-0.3-0.6c-0.2-0.3-0.7-0.4-0.9,0
			c0,0,0,0.1-0.1,0.1c-0.4-0.3-0.6-0.7-0.9-1.1C96.9,165.9,96,166.5,96.3,167.1z"/>
		<path class="st3" d="M141.3,125.8c0.3,0.5,0.6,1,1.1,1.3c-0.2,0.3-0.4,0.6-0.5,0.8c-0.4,0.6,0.4,1,0.8,0.7c0.4-0.3,0.7-0.6,0.9-1
			c0.1,0.2,0.1,0.4,0.2,0.7c0.1,0.5,0.7,0.8,1,0.3c0.2-0.4,0.4-0.8,0.6-1.1c0,0,0,0,0,0c0.4,0.6,0.8,1.2,1.3,1.9
			c0.4,0.6,1.3,0.1,0.9-0.5c-0.3-0.5-0.6-1-1-1.5c0.4-0.3,0.7-0.6,1.1-0.9c0.5-0.5-0.3-1.2-0.8-0.8c-0.3,0.3-0.6,0.5-0.9,0.7
			c-0.1-0.1-0.1-0.2-0.2-0.3c-0.2-0.3-0.8-0.4-0.9,0c-0.1,0.3-0.3,0.6-0.4,0.8c-0.1-0.2-0.2-0.4-0.3-0.6c-0.2-0.3-0.7-0.4-0.9,0
			c0,0,0,0.1-0.1,0.1c-0.4-0.3-0.6-0.7-0.9-1.1C141.9,124.6,141,125.2,141.3,125.8z"/>
		<path class="st3" d="M95.2,125.8c0.3,0.5,0.6,1,1.1,1.3c-0.2,0.3-0.4,0.6-0.5,0.8c-0.4,0.6,0.4,1,0.8,0.7c0.4-0.3,0.7-0.6,0.9-1
			c0.1,0.2,0.1,0.4,0.2,0.7c0.1,0.5,0.7,0.8,1,0.3c0.2-0.4,0.4-0.8,0.6-1.1c0,0,0,0,0,0c0.4,0.6,0.8,1.2,1.3,1.9
			c0.4,0.6,1.3,0.1,0.9-0.5c-0.3-0.5-0.6-1-1-1.5c0.4-0.3,0.7-0.6,1.1-0.9c0.5-0.5-0.3-1.2-0.8-0.8c-0.3,0.3-0.6,0.5-0.9,0.7
			c-0.1-0.1-0.1-0.2-0.2-0.3c-0.2-0.3-0.8-0.4-0.9,0c-0.1,0.3-0.3,0.6-0.4,0.8c-0.1-0.2-0.2-0.4-0.3-0.6c-0.2-0.3-0.7-0.4-0.9,0
			c0,0,0,0.1-0.1,0.1c-0.4-0.3-0.6-0.7-0.9-1.1C95.8,124.6,94.8,125.2,95.2,125.8z"/>
		<g>
			<path class="st3" d="M231.1,125.8c0.3,0.5,0.6,1,1.1,1.3c-0.2,0.3-0.4,0.6-0.5,0.8c-0.4,0.6,0.4,1,0.8,0.7c0.4-0.3,0.7-0.6,0.9-1
				c0.1,0.2,0.1,0.4,0.2,0.7c0.1,0.5,0.7,0.8,1,0.3c0.2-0.4,0.4-0.8,0.6-1.1c0,0,0,0,0,0c0.4,0.6,0.8,1.2,1.3,1.9
				c0.4,0.6,1.3,0.1,0.9-0.5c-0.3-0.5-0.6-1-1-1.5c0.4-0.3,0.7-0.6,1.1-0.9c0.5-0.5-0.3-1.2-0.8-0.8c-0.3,0.3-0.6,0.5-0.9,0.7
				c-0.1-0.1-0.1-0.2-0.2-0.3c-0.2-0.3-0.8-0.4-0.9,0c-0.1,0.3-0.3,0.6-0.4,0.8c-0.1-0.2-0.2-0.4-0.3-0.6c-0.2-0.3-0.7-0.4-0.9,0
				c0,0,0,0.1-0.1,0.1c-0.4-0.3-0.6-0.7-0.9-1.1C231.7,124.6,230.8,125.2,231.1,125.8z"/>
			<path class="st3" d="M5.8,125.8c0.3,0.5,0.6,1,1.1,1.3c-0.2,0.3-0.4,0.6-0.5,0.8c-0.4,0.6,0.4,1,0.8,0.7c0.4-0.3,0.7-0.6,0.9-1
				c0.1,0.2,0.1,0.4,0.2,0.7c0.1,0.5,0.7,0.8,1,0.3c0.2-0.4,0.4-0.8,0.6-1.1c0,0,0,0,0,0c0.4,0.6,0.8,1.2,1.3,1.9
				c0.4,0.6,1.3,0.1,0.9-0.5c-0.3-0.5-0.6-1-1-1.5c0.4-0.3,0.7-0.6,1.1-0.9c0.5-0.5-0.3-1.2-0.8-0.8c-0.3,0.3-0.6,0.5-0.9,0.7
				c-0.1-0.1-0.1-0.2-0.2-0.3c-0.2-0.3-0.8-0.4-0.9,0c-0.1,0.3-0.3,0.6-0.4,0.8c-0.1-0.2-0.2-0.4-0.3-0.6c-0.2-0.3-0.7-0.4-0.9,0
				c0,0,0,0.1-0.1,0.1c-0.4-0.3-0.6-0.7-0.9-1.1C6.4,124.6,5.5,125.2,5.8,125.8z"/>
		</g>
	</g>
</g>
<g>
	<g>
		<polygon class="st3" points="54.3,25 60.8,14.3 47.7,14.3 41.7,4.3 35.6,14.3 22.6,14.3 29.1,25 22.6,35.7 35.6,35.7 41.7,45.7 
			47.7,35.7 60.8,35.7 		"/>
		<g>
			<polygon class="st4" points="35.3,36.3 21.6,36.3 28.4,25 21.6,13.7 35.3,13.7 41.7,3.2 48.1,13.7 61.8,13.7 54.9,25 61.8,36.3 
				48.1,36.3 41.7,46.8 			"/>
			<g>
				<defs>
					<polygon id="SVGID_1_" points="29.1,25 35.6,35.7 47.7,35.7 54.3,25 47.7,14.3 35.6,14.3 					"/>
				</defs>
				<clipPath id="SVGID_00000135657255843804750760000002498671781448766102_">
					<use xlink:href="#SVGID_1_"  style="overflow:visible;"/>
				</clipPath>
				<g style="clip-path:url(#SVGID_00000135657255843804750760000002498671781448766102_);">
					<g>
						<line class="st6" x1="27.7" y1="19.3" x2="55.8" y2="19.3"/>
						<line class="st6" x1="46.1" y1="30.7" x2="55.8" y2="30.7"/>
						<line class="st6" x1="27.7" y1="30.7" x2="37.5" y2="30.7"/>
						<g>
							<line class="st6" x1="27.7" y1="25" x2="55.8" y2="25"/>
							<path class="st0" d="M34.2,25.4c-0.1-0.1-0.2-0.3-0.3-0.4c0-0.1,0.1-0.2,0.1-0.2c0.1-0.2-0.1-0.3-0.2-0.2
								c-0.1,0.1-0.2,0.2-0.3,0.3c0-0.1,0-0.1,0-0.2c0-0.1-0.2-0.2-0.3-0.1c-0.1,0.1-0.1,0.2-0.2,0.3c0,0,0,0,0,0
								c-0.1-0.2-0.2-0.3-0.3-0.5c-0.1-0.2-0.4,0-0.3,0.1c0.1,0.1,0.2,0.3,0.3,0.4c-0.1,0.1-0.2,0.2-0.3,0.2
								c-0.1,0.1,0.1,0.3,0.2,0.2c0.1-0.1,0.2-0.1,0.2-0.2c0,0,0,0.1,0.1,0.1c0.1,0.1,0.2,0.1,0.3,0c0-0.1,0.1-0.2,0.1-0.2
								c0,0.1,0.1,0.1,0.1,0.2c0.1,0.1,0.2,0.1,0.3,0c0,0,0,0,0,0c0.1,0.1,0.2,0.2,0.2,0.3C34.1,25.7,34.3,25.5,34.2,25.4z"/>
							<path class="st0" d="M51.2,25.4c-0.1-0.1-0.2-0.3-0.3-0.4c0-0.1,0.1-0.2,0.1-0.2c0.1-0.2-0.1-0.3-0.2-0.2
								c-0.1,0.1-0.2,0.2-0.3,0.3c0-0.1,0-0.1,0-0.2c0-0.1-0.2-0.2-0.3-0.1c-0.1,0.1-0.1,0.2-0.2,0.3c0,0,0,0,0,0
								c-0.1-0.2-0.2-0.3-0.3-0.5c-0.1-0.2-0.4,0-0.3,0.1c0.1,0.1,0.2,0.3,0.3,0.4c-0.1,0.1-0.2,0.2-0.3,0.2
								c-0.1,0.1,0.1,0.3,0.2,0.2c0.1-0.1,0.2-0.1,0.2-0.2c0,0,0,0.1,0.1,0.1c0.1,0.1,0.2,0.1,0.3,0c0-0.1,0.1-0.2,0.1-0.2
								c0,0.1,0.1,0.1,0.1,0.2c0.1,0.1,0.2,0.1,0.3,0c0,0,0,0,0,0c0.1,0.1,0.2,0.2,0.2,0.3C51,25.7,51.3,25.5,51.2,25.4z"/>
						</g>
						<path class="st0" d="M47.2,30.3c0.1,0.1,0.2,0.3,0.3,0.4c0,0.1-0.1,0.2-0.1,0.2c-0.1,0.2,0.1,0.3,0.2,0.2
							c0.1-0.1,0.2-0.2,0.3-0.3c0,0.1,0,0.1,0,0.2c0,0.1,0.2,0.2,0.3,0.1c0.1-0.1,0.1-0.2,0.2-0.3c0,0,0,0,0,0
							c0.1,0.2,0.2,0.3,0.3,0.5c0.1,0.2,0.4,0,0.3-0.1c-0.1-0.1-0.2-0.3-0.3-0.4c0.1-0.1,0.2-0.2,0.3-0.2c0.1-0.1-0.1-0.3-0.2-0.2
							c-0.1,0.1-0.2,0.1-0.2,0.2c0,0,0-0.1-0.1-0.1c-0.1-0.1-0.2-0.1-0.3,0c0,0.1-0.1,0.2-0.1,0.2c0-0.1-0.1-0.1-0.1-0.2
							c-0.1-0.1-0.2-0.1-0.3,0c0,0,0,0,0,0c-0.1-0.1-0.2-0.2-0.2-0.3C47.4,29.9,47.1,30.1,47.2,30.3z"/>
						<path class="st0" d="M34.7,30.3c0.1,0.1,0.2,0.3,0.3,0.4c0,0.1-0.1,0.2-0.1,0.2C34.8,31,35,31.1,35.1,31
							c0.1-0.1,0.2-0.2,0.3-0.3c0,0.1,0,0.1,0,0.2c0,0.1,0.2,0.2,0.3,0.1c0.1-0.1,0.1-0.2,0.2-0.3c0,0,0,0,0,0
							c0.1,0.2,0.2,0.3,0.3,0.5c0.1,0.2,0.4,0,0.3-0.1c-0.1-0.1-0.2-0.3-0.3-0.4c0.1-0.1,0.2-0.2,0.3-0.2c0.1-0.1-0.1-0.3-0.2-0.2
							c-0.1,0.1-0.2,0.1-0.2,0.2c0,0,0-0.1-0.1-0.1c-0.1-0.1-0.2-0.1-0.3,0c0,0.1-0.1,0.2-0.1,0.2c0-0.1-0.1-0.1-0.1-0.2
							c-0.1-0.1-0.2-0.1-0.3,0c0,0,0,0,0,0c-0.1-0.1-0.2-0.2-0.2-0.3C34.9,29.9,34.6,30.1,34.7,30.3z"/>
						<path class="st0" d="M47.1,18.9c0.1,0.1,0.2,0.3,0.3,0.4c0,0.1-0.1,0.2-0.1,0.2c-0.1,0.2,0.1,0.3,0.2,0.2
							c0.1-0.1,0.2-0.2,0.3-0.3c0,0.1,0,0.1,0,0.2c0,0.1,0.2,0.2,0.3,0.1c0.1-0.1,0.1-0.2,0.2-0.3c0,0,0,0,0,0
							c0.1,0.2,0.2,0.3,0.3,0.5c0.1,0.2,0.4,0,0.3-0.1c-0.1-0.1-0.2-0.3-0.3-0.4c0.1-0.1,0.2-0.2,0.3-0.2c0.1-0.1-0.1-0.3-0.2-0.2
							c-0.1,0.1-0.2,0.1-0.2,0.2c0,0,0-0.1-0.1-0.1c-0.1-0.1-0.2-0.1-0.3,0c0,0.1-0.1,0.2-0.1,0.2c0-0.1-0.1-0.1-0.1-0.2
							c-0.1-0.1-0.2-0.1-0.3,0c0,0,0,0,0,0c-0.1-0.1-0.2-0.2-0.2-0.3C47.2,18.6,47,18.8,47.1,18.9z"/>
						<path class="st0" d="M34.4,18.9c0.1,0.1,0.2,0.3,0.3,0.4c0,0.1-0.1,0.2-0.1,0.2c-0.1,0.2,0.1,0.3,0.2,0.2
							c0.1-0.1,0.2-0.2,0.3-0.3c0,0.1,0,0.1,0,0.2c0,0.1,0.2,0.2,0.3,0.1c0.1-0.1,0.1-0.2,0.2-0.3c0,0,0,0,0,0
							c0.1,0.2,0.2,0.3,0.3,0.5c0.1,0.2,0.4,0,0.3-0.1c-0.1-0.1-0.2-0.3-0.3-0.4c0.1-0.1,0.2-0.2,0.3-0.2c0.1-0.1-0.1-0.3-0.2-0.2
							c-0.1,0.1-0.2,0.1-0.2,0.2c0,0,0-0.1-0.1-0.1c-0.1-0.1-0.2-0.1-0.3,0c0,0.1-0.1,0.2-0.1,0.2c0-0.1-0.1-0.1-0.1-0.2
							c-0.1-0.1-0.2-0.1-0.3,0c0,0,0,0,0,0c-0.1-0.1-0.2-0.2-0.2-0.3C34.6,18.6,34.3,18.8,34.4,18.9z"/>
					</g>
					<g>
						<g>
							<path class="st7" d="M38.8,27.4l0.1-1.6c0,0-2.2-2.3-2.1-2.8c0-0.5,0.6-3.2,0.7-3.3l8.6,0.5c0,0,0.2,2.9,0.1,3.2
								c-0.1,0.3-1.4,2.4-1.4,2.4l0,1.6H38.8z"/>
							<polygon class="st0" points="38.7,21.7 39,22.1 41.2,22.6 41.7,24.2 42.3,22.7 44.7,22.8 45.4,21.7 41.8,20.9 							"/>
							<path class="st7" d="M44.3,22.1c-0.7-0.2-0.5-0.7-0.2-1.7c0.2-1,0.2-2.2,0.4-2.3s2,0.2,1.9,1s-1.1,2.9-1.3,3
								C44.9,22.2,44.5,22.1,44.3,22.1z"/>
							<path class="st7" d="M42.4,21.8c-0.6-0.2-0.6-0.2-0.5-1.3c0.2-1.1,0.4-2.6,0.4-3c0-0.4,2.3-0.2,2.2,0.5
								c-0.1,0.8-0.7,3.5-0.8,3.8C43.5,22.1,42.8,21.9,42.4,21.8z"/>
							<path class="st7" d="M39.7,21.2c0.1-0.4,0.6-3.6,0.6-4.1c0-0.5,2.1-0.5,2.1,0.3c0,0.8-0.5,4-0.7,4.2
								C41.5,21.9,39.6,21.8,39.7,21.2z"/>
							<path class="st7" d="M38.4,16.8c-0.1,0.2-0.8,3.6-0.7,4c0,0.4,2.1,0.6,2.2,0.3c0.2-0.2,0.4-3.6,0.4-4
								C40.2,16.7,38.5,16.6,38.4,16.8z"/>
							<path class="st0" d="M40.7,25.4l3.6,0.9L42,26.4l2.7,0.4l0-1c0,0,0.1-0.1,0.2-0.3L40.7,25.4z"/>
							<path class="st7" d="M38.8,27.4l0.1-1.6c0,0-2.2-2.3-2.1-2.8c0-0.5,0.6-3.2,0.7-3.3c0.1-0.2,3.4,0.2,3.9,0.3
								c0.5,0,0.6,1.5,0,1.7c-0.7,0.2-2.7,0.3-2.7,0.3"/>
						</g>
						<g>
							<g>
								<path class="st3" d="M37.5,40.2c-0.1,0-0.2-0.1-0.2-0.2V27.2c0-0.1,0.1-0.2,0.2-0.2h8.6c0.1,0,0.2,0.1,0.2,0.2V40
									c0,0.1-0.1,0.2-0.2,0.2H37.5z"/>
								<path class="st0" d="M46.1,27.2V40h-8.6V27.2H46.1 M46.1,26.8h-8.6c-0.2,0-0.4,0.2-0.4,0.4V40c0,0.2,0.2,0.4,0.4,0.4h8.6
									c0.2,0,0.4-0.2,0.4-0.4V27.2C46.5,27,46.3,26.8,46.1,26.8L46.1,26.8z"/>
							</g>
							<g>
								<rect x="38.7" y="27.2" class="st0" width="1.2" height="12.8"/>
								<rect x="41.2" y="27.2" class="st0" width="1.2" height="12.8"/>
								<rect x="43.7" y="27.2" class="st0" width="1.2" height="12.8"/>
							</g>
						</g>
					</g>
				</g>
			</g>
			<g>
				<g>
					<path class="st8" d="M60.8,35.7H22.6L41.7,4.3L60.8,35.7z"/>
				</g>
				<g>
					<path class="st8" d="M41.7,45.7L22.6,14.3h38.2L41.7,45.7z"/>
				</g>
			</g>
		</g>
	</g>
	<g>
		<path class="st3" d="M87.7,41c-2.5,0-5,0-7.5,0c-2.5,0-5,0-7.5,0c0.3-0.6,0.7-1.2,1-1.9c0.3-0.7,0.7-1.3,1-1.9
			c0.3-0.6,0.6-1.3,0.9-1.8c0.3-0.6,0.5-1.1,0.7-1.6h14.4c0.9-0.1,1.6-0.3,2.2-0.6c0.5-0.3,0.9-0.8,1.1-1.2c0.2-0.5,0.3-1,0.2-1.6
			c-0.1-0.6-0.2-1.1-0.5-1.5c-0.3-0.5-0.6-0.9-1-1.2c-0.4-0.3-0.9-0.5-1.5-0.5c-1.4-0.1-2.9-0.1-4.4,0s-3.2,0.1-4.9,0
			c0.5-0.7,0.9-1.4,1.2-1.9c0.4-0.6,0.7-1.1,1-1.6c0.5,0,1.1,0,1.5,0c0.5,0,1-0.1,1.5-0.1c0.5,0,1.1,0,1.7,0c0.6,0,1.3,0.1,2.1,0.1
			c1,0.1,1.9,0.5,2.7,1.3c0.8,0.7,1.4,1.6,1.9,2.7c0.5,1.1,0.8,2.2,0.9,3.5c0.1,1.3,0,2.4-0.3,3.6c-0.2,0.8-0.5,1.5-0.9,2.3
			s-0.9,1.5-1.5,2.1c-0.6,0.6-1.4,1.1-2.3,1.5c-0.9,0.4-1.9,0.6-3.2,0.6H87.7z M92.4,23.1c-0.2,0.1-0.3,0-0.3-0.2
			c1.1-2.1,1.4-3.7,0.8-4.5c-0.5-0.9-1.8-1.3-3.9-1.3h-9.6c-1.2,0-2.3-0.2-3.1-0.7c-0.8-0.4-1.5-1.1-2-1.8c-0.5-0.8-0.9-1.7-1.1-2.8
			C73.1,10.7,73,9.5,73,8.2C73,8,73,7.9,73.1,7.9c0.1,0,0.2,0.1,0.3,0.2c0.9,1.1,2,1.6,3.1,1.6c2.1,0,4.1,0,6.2,0c2.1,0,4.1,0,5.9,0
			c1.3,0,2.5,0.3,3.4,0.8c1,0.5,1.8,1.2,2.4,2c0.6,0.8,1.1,1.7,1.3,2.7c0.3,1,0.3,2,0.1,3s-0.6,1.9-1.2,2.8
			C94.3,21.9,93.4,22.6,92.4,23.1z M76.1,32.7c0.1-0.8,0.1-1.8,0.3-2.9c0.1-1.1,0.2-2.3,0.4-3.5c0.1-1.2,0.3-2.4,0.4-3.6
			c0.2-1.2,0.3-2.4,0.4-3.4c0.3-0.1,0.6-0.2,0.9-0.3c0.3-0.1,0.6-0.2,0.9-0.3s0.6-0.2,1-0.3c0.4-0.1,0.8-0.2,1.4-0.4
			c-0.4,2.2-0.7,4.4-1,6.6c-0.3,2.2-0.6,4.4-0.9,6.7c-0.5,0.2-1,0.4-1.6,0.6C77.6,32.1,76.9,32.4,76.1,32.7z"/>
		<path class="st3" d="M100.8,21.2c0-1,0-2.1,0-3.4c0-1.3,0.1-2.6,0.3-3.8s0.6-2.2,1.2-3.1c0.6-0.8,1.5-1.3,2.7-1.3
			c0.9,0,1.9,0,3.1,0c1.1,0,2.3,0,3.5,0c1.2,0,2.4,0,3.5,0s2.3,0,3.3,0c1.2,0,2.2-0.5,3.1-1.6c0.1-0.1,0.2-0.2,0.3-0.2
			c0.1,0,0.2,0.1,0.2,0.3c0,1.3-0.1,2.5-0.3,3.6c-0.2,1.1-0.6,2-1.1,2.8c-0.5,0.8-1.2,1.4-2,1.8c-0.8,0.4-1.9,0.7-3.1,0.7H107
			c-0.3,0-0.7,0-1.1,0.1c-0.4,0.1-0.9,0.2-1.3,0.5c-0.4,0.3-0.7,0.7-1,1.4c-0.3,0.6-0.5,1.5-0.5,2.7v8.9c0,0.4,0,0.8,0.1,1.2
			c0.1,0.4,0.2,0.7,0.5,1c0.3,0.3,0.6,0.5,1.1,0.7c0.5,0.2,1.1,0.2,2,0.2h16.5c-0.7,1.3-1.4,2.5-2.1,3.7c-0.7,1.2-1.4,2.5-2.2,3.7
			l-12-0.1c-0.9,0-1.7-0.2-2.5-0.6c-0.8-0.4-1.4-1-1.9-1.6c-0.5-0.7-0.9-1.4-1.2-2.2c-0.3-0.8-0.4-1.6-0.4-2.3V21.2z M103.7,26.8
			c0.4-0.7,0.8-1.4,1.1-1.9c0.3-0.5,0.6-1,0.9-1.5c2.2,0,4.5,0,6.7,0c2.2,0,4.5-0.1,6.7-0.1c-0.2,0.5-0.4,1-0.6,1.3
			c-0.2,0.3-0.3,0.6-0.5,0.9c-0.1,0.3-0.3,0.5-0.4,0.8c-0.1,0.2-0.3,0.5-0.4,0.8c-1.1,0-2.2,0-3.4,0c-1.2,0-2.4,0-3.6,0
			s-2.4-0.1-3.5-0.1C105.5,26.9,104.5,26.9,103.7,26.8z"/>
		<path class="st3" d="M144.4,19.6c0,0.8,0,1.9,0,3.3c0,1.4,0.1,2.8,0.1,4.3c0,1.5,0.1,2.9,0.1,4.2c0,1.3,0,2.3,0,3
			c0,0.8-0.1,1.5-0.4,2.3c-0.3,0.8-0.7,1.5-1.2,2.2c-0.5,0.7-1.2,1.2-1.9,1.6s-1.6,0.6-2.5,0.6l-13.6,0.1c0.6-1.3,1.2-2.6,1.8-3.9
			s1.1-2.5,1.6-3.5h9.5c0.9,0,1.5-0.1,2-0.2c0.5-0.2,0.9-0.4,1.2-0.7c0.3-0.3,0.4-0.6,0.5-1c0.1-0.4,0.1-0.7,0.1-1.2
			c0-0.1,0-0.4,0.1-0.9c0-0.5,0.1-1.2,0.2-1.9c0.1-0.8,0.1-1.6,0.2-2.4c0.1-0.9,0.2-1.7,0.2-2.4c0.1-0.8,0.1-1.4,0.2-1.9
			c0-0.5,0.1-0.9,0.1-0.9c0-0.7-0.2-1.3-0.5-1.7c-0.3-0.4-0.7-0.7-1.2-0.9c-0.4-0.2-0.9-0.3-1.4-0.3c-0.5,0-0.9-0.1-1.2-0.1h-0.9
			c-1.2,0-2.3-0.2-3.1-0.7c-0.8-0.4-1.5-1.1-2-1.8c-0.5-0.8-0.9-1.7-1.1-2.8c-0.2-1.1-0.3-2.3-0.3-3.6c0-0.2,0.1-0.3,0.2-0.3
			c0.1,0,0.2,0.1,0.3,0.2c0.9,1.1,2,1.6,3.2,1.6c1,0,1.7,0,2.1,0c0.4,0,0.7,0,0.9,0s0.5,0,0.8,0c0.3,0,0.9,0,1.9,0
			c1.1,0,1.9,0.3,2.5,1c0.6,0.7,1,1.5,1.2,2.5s0.4,2,0.4,3.2C144.4,17.5,144.4,18.6,144.4,19.6z"/>
		<path class="st3" d="M171.7,21.2V41h-2.3V24.7c-0.3,0.5-0.5,0.9-0.7,1.2c-0.2,0.3-0.4,0.7-0.7,1.1c-1.2,0-2.3,0-3.3,0
			c-1,0-2,0-3,0c-0.9,0-1.9-0.1-2.8-0.1s-1.8-0.1-2.8-0.1c0.5-0.7,0.9-1.4,1.2-1.9c0.4-0.5,0.7-1,1-1.5c1.2,0,2.3,0,3.1,0
			c0.9,0,1.7,0,2.5,0c0.8,0,1.6,0,2.4,0c0.8,0,1.8,0,2.9-0.1v-1.6c0-1.1-0.2-2-0.5-2.7c-0.3-0.6-0.6-1.1-1-1.4
			c-0.4-0.3-0.8-0.5-1.3-0.5c-0.4-0.1-0.8-0.1-1.1-0.1h-8.5h-0.1c-0.7,1.4-1.1,2.8-1.3,4.2c-0.2,1.4-0.2,2.8-0.1,4.3
			c0.1,1.4,0.3,2.8,0.6,4.1c0.3,1.3,0.6,2.6,0.8,3.8c0.3,1.1,0.5,2.1,0.6,3.1c0.1,0.9,0.2,1.7,0,2.4c-0.1,0.7-0.4,1.2-0.9,1.6
			c-0.5,0.4-1.2,0.6-2.2,0.6c-0.4,0-0.8,0-1-0.1c-0.3-0.1-0.5-0.1-0.7-0.2s-0.4-0.1-0.7-0.2c-0.2-0.1-0.5-0.1-0.9-0.1
			c-1.2,0-2.2,0.5-3.2,1.6c-0.1,0.1-0.2,0.2-0.3,0.2c-0.1,0-0.2-0.1-0.2-0.3c0-1.3,0.1-2.4,0.3-3.4c0.2-1,0.5-1.9,1-2.6
			s1.1-1.3,1.8-1.7c0.8-0.4,1.7-0.6,2.8-0.7c-0.3-1.2-0.6-2.5-0.7-4c-0.1-1.4-0.1-2.9,0-4.3c0.1-1.4,0.3-2.7,0.7-4
			c0.3-1.2,0.8-2.3,1.3-3.1c0.3-0.5,0.7-1,1.2-1.4c-1-0.1-1.8-0.5-2.5-0.9c-0.7-0.5-1.2-1.1-1.7-1.9s-0.7-1.7-0.9-2.7
			s-0.3-2.1-0.3-3.3c0-0.2,0.1-0.3,0.2-0.3c0.1,0,0.2,0.1,0.3,0.2c0.9,1.1,1.9,1.6,3.1,1.6c1,0,2.1,0,3.3,0s2.4,0,3.6,0
			c1.2,0,2.3,0,3.5,0c1.1,0,2.1,0,3.1,0c1.2,0,2.1,0.4,2.7,1.3c0.6,0.8,1,1.9,1.2,3.1s0.3,2.5,0.3,3.8
			C171.7,19.1,171.7,20.3,171.7,21.2z"/>
		<path class="st3" d="M200,15c-0.2,3.1-0.4,6.1-0.6,9.2c-0.2,3.1-0.4,6.2-0.7,9.4h5.2c-0.6,1.3-1,2.6-1.4,3.7
			c-0.4,1.2-0.9,2.4-1.4,3.7c-1,0-2.1,0-3.2,0c-0.8,0-1.4-0.2-1.6-0.7c-0.2-0.5-0.3-1.2-0.3-2.2c0-0.6,0.1-1.4,0.1-2.4
			c0.1-1,0.1-2.1,0.2-3.3c0.1-1.2,0.2-2.5,0.3-3.9c0.1-1.4,0.2-2.8,0.4-4.1c-0.3,0.7-0.7,1.3-1.2,1.8c-0.5,0.6-1.1,0.9-1.8,0.9
			c-0.9,0-1.8,0-2.5,0c-0.7,0-1.4,0-2,0c-0.6,0-1.2,0-1.8-0.1s-1.3-0.1-2-0.1c-0.1,1.3-0.1,2.7-0.2,4c-0.1,1.4-0.1,2.7-0.1,4
			c0,1.3-0.1,2.4-0.1,3.5s0,1.9,0,2.6h-2c0-0.9,0.1-2,0.1-3.3c0.1-1.3,0.1-2.7,0.2-4.2c0.1-1.5,0.1-3,0.1-4.5c0-1.5,0.1-2.9,0.1-4.2
			c0-1.3,0.1-2.4,0.1-3.3c0-0.9,0-1.5,0-1.8c0-0.7-0.1-1.3-0.2-1.7c-0.1-0.4-0.2-0.7-0.4-0.9c-0.2-0.2-0.5-0.3-0.8-0.3
			c-0.3,0-0.8,0-1.3,0c-1.2,0.1-2.3-0.1-3.1-0.5c-0.8-0.4-1.5-1-2-1.8c-0.5-0.8-0.9-1.7-1.1-2.8c-0.2-1.1-0.4-2.3-0.4-3.6
			c0-0.2,0.1-0.3,0.2-0.3c0.1,0,0.2,0.1,0.3,0.2c0.9,1,2,1.5,3.2,1.5c0.7,0,1.1,0,1.4,0c0.3,0,0.4,0,0.4,0c0,0,0,0-0.2,0
			c0.4,0,0.9,0,1.5,0c1.1,0,1.9,0.3,2.5,0.9c0.6,0.6,1,1.5,1.3,2.4c0.3,1,0.5,2,0.5,3.2c0.1,1.1,0.1,2.2,0.1,3.1c0,0.4,0,1.2,0,2.3
			c0,1.1-0.1,2.4-0.1,3.8c0.5-0.7,1-1.3,1.3-1.9c1,0,1.9,0,2.6,0c0.7,0,1.3,0,1.9,0c0.6,0,1.1,0,1.6,0c0.5,0,1.2,0,1.9-0.1
			c0.5,0,1-0.2,1.4-0.5c0.4-0.3,0.7-0.8,0.7-1.5c0.1-0.8,0.2-1.5,0.2-2.3c0.1-0.7,0.1-1.5,0.2-2.2h-1c-0.1,0-0.3,0-0.5,0
			c-0.2,0-0.4,0-0.7,0c-1.2,0.1-2.3-0.1-3.1-0.5c-0.8-0.4-1.5-1-2-1.8c-0.5-0.8-0.9-1.7-1.1-2.8c-0.2-1.1-0.4-2.3-0.4-3.6
			c0-0.2,0-0.3,0.1-0.3c0.1,0,0.2,0.1,0.4,0.2c0.9,1,2,1.5,3.2,1.5c0.7,0,1.1,0,1.4,0c0.3,0,0.4,0,0.4,0s0,0-0.2,0
			c0.4,0,0.9,0,1.5,0c0.9,0,1.6,0.1,2.2,0.4c0.6,0.3,1,0.8,1.4,1.3c0.3,0.5,0.5,1.1,0.7,1.8C200,13.8,200.1,14.4,200,15z"/>
		<path class="st3" d="M216.8,19.6c0,0.4,0,1.1,0,2.1c0,1,0,2.3,0,3.6c0,1.4,0,2.9,0,4.4c0,1.6,0,3.1,0,4.6s0,2.8,0.1,4
			c0,1.2,0,2.1,0,2.7H214c0-0.1,0-0.6,0.1-1.7c0-1,0.1-2.3,0.2-3.8c0.1-1.5,0.2-3.2,0.2-4.9c0.1-1.8,0.1-3.4,0.2-4.9
			c0.1-1.5,0.1-2.8,0.2-3.9c0-1.1,0.1-1.6,0.1-1.7c0-0.7-0.1-1.3-0.3-1.7c-0.2-0.4-0.4-0.7-0.8-0.9c-0.3-0.2-0.7-0.3-1.2-0.3
			c-0.4,0-0.9,0-1.5,0c-1.2,0-2.3-0.2-3.1-0.7c-0.8-0.4-1.5-1.1-2-1.8c-0.5-0.8-0.9-1.7-1.1-2.8c-0.2-1.1-0.3-2.3-0.3-3.6
			c0-0.2,0.1-0.3,0.2-0.3c0.1,0,0.2,0.1,0.3,0.2c0.9,1.1,2,1.6,3.2,1.6c0.7,0,1.1,0,1.4,0c0.3,0,0.5,0,0.6,0c0.1,0,0.2,0,0.2,0
			c0,0,0.1,0,0.1,0c0.1,0,0.3,0,0.5,0s0.7,0,1.3,0c1.1,0,1.9,0.3,2.5,1c0.6,0.7,1,1.5,1.3,2.5c0.3,1,0.4,2,0.4,3.2
			C216.8,17.5,216.8,18.6,216.8,19.6z"/>
	</g>
</g>
</svg>
