<svg id="Слой_1" data-name="Слой 1" xmlns="http://www.w3.org/2000/svg" viewBox="0 0 50 50"><defs><style>.cls-1{fill:#fff;}</style></defs><path class="cls-1" d="M29.12,39.32l10.45-6.65a16,16,0,0,0,1.12-4L28,36.44a4.16,4.16,0,0,1-4.06.17L10.7,29.94a17.2,17.2,0,0,0,1.44,3.9l11,5.73a6,6,0,0,0,3,.68A6.14,6.14,0,0,0,29.12,39.32Z"/><path class="cls-1" d="M28.91,43.54l9.64-6.12a15.27,15.27,0,0,0,1-3.69L27.91,40.89a3.83,3.83,0,0,1-3.74.16L11.94,34.9a15.54,15.54,0,0,0,1.33,3.59c2.57,1.33,10.12,5.28,10.12,5.28a5.56,5.56,0,0,0,2.8.63A5.62,5.62,0,0,0,28.91,43.54Z"/><path class="cls-1" d="M28.9,47.22l8.87-5.64a13.7,13.7,0,0,0,.95-3.39L28,44.78a3.52,3.52,0,0,1-3.44.15L13.28,39.27a14,14,0,0,0,1.22,3.3l9.32,4.87a5.09,5.09,0,0,0,5.08-.22Z"/><path class="cls-1" d="M31.41,17.73l10.16-6.45.54-.34A6.63,6.63,0,0,0,39.9,9.07L27.77,2.74A6.58,6.58,0,0,0,21.18,3L9.62,10.35a6.76,6.76,0,0,0-2,2.05l11.24,5.87,2.4-1.53A7.69,7.69,0,0,1,25,15.55a7.57,7.57,0,0,1,3.88.87Z"/><path class="cls-1" d="M29.14,35.17l11.52-7.32a17.73,17.73,0,0,0,1.23-4.41L28,32a4.57,4.57,0,0,1-4.47.19L8.86,24.84a18.08,18.08,0,0,0,1.59,4.29l12.1,6.32a6.62,6.62,0,0,0,6.59-.28Z"/><path class="cls-1" d="M26.29,27,43.11,16.69c.12-.7.22-1.4.33-2.1a6.56,6.56,0,0,0-.75-2.74L25.58,22.72a.55.55,0,0,1-.54,0l-18-9.38a6.7,6.7,0,0,0-.52,2.8l.51,2.06L24.7,27.08A1.61,1.61,0,0,0,26.29,27Z"/><path class="cls-1" d="M27.38,31.08,42.18,22c.23-1.21.47-2.54.7-3.9l-16,9.83a2.7,2.7,0,0,1-2.64.12L7.42,19.61c.34,1.33.69,2.63,1,3.82L24,31.22A3.48,3.48,0,0,0,27.38,31.08Z"/></svg>