<svg id="Слой_1" data-name="Слой 1" xmlns="http://www.w3.org/2000/svg" viewBox="0 0 168.52 50"><defs><style>.cls-1{fill:#db2878;}</style></defs><path class="cls-1" d="M27.77,22.38a1,1,0,0,0-.1.17l.13,0a.34.34,0,0,1,.09-.14h0l-.11-.08Z"/><path class="cls-1" d="M27.64,22.79l.15,0a.33.33,0,0,1,0-.17l-.14,0A.55.55,0,0,0,27.64,22.79Z"/><path class="cls-1" d="M27.85,23a.44.44,0,0,1-.06-.16l-.14,0a.49.49,0,0,0,.08.21Z"/><path class="cls-1" d="M28,22.24l.07.11a.38.38,0,0,1,.15,0l0-.13A.58.58,0,0,0,28,22.24Z"/><path class="cls-1" d="M27.89,23.19l.09-.11a.34.34,0,0,1-.12-.12l-.12.08A.54.54,0,0,0,27.89,23.19Z"/><path class="cls-1" d="M27.8,22.36l.11.07a.27.27,0,0,1,.13-.07L28,22.25A.36.36,0,0,0,27.8,22.36Z"/><path class="cls-1" d="M28.21,22.34l.12,0,0-.13-.16,0Z"/><path class="cls-1" d="M28.49,22.55a.29.29,0,0,1,0,.09l.11,0a.53.53,0,0,0,0-.12Z"/><path class="cls-1" d="M28.51,22.64v.08h.11s0,0,0-.06a.13.13,0,0,1,0-.06Z"/><path class="cls-1" d="M28.36,22.26l0,.13a.47.47,0,0,1,.09.06l.06-.11-.09-.06Z"/><path class="cls-1" d="M28.43,22.46a.35.35,0,0,1,.05.08l.1-.07a.5.5,0,0,0-.08-.12Z"/><path class="cls-1" d="M28.75,23l-.13-.08a.48.48,0,0,1-.09.11l.11.12A.58.58,0,0,0,28.75,23Z"/><path class="cls-1" d="M28.82,22.78l-.16,0a.5.5,0,0,1,0,.13l.14.07A.49.49,0,0,0,28.82,22.78Z"/><path class="cls-1" d="M28,23.06l.07-.09a.25.25,0,0,1-.1-.08l-.09.06A.43.43,0,0,0,28,23.06Z"/><path class="cls-1" d="M28.32,22.51s0,0,.05,0l0-.09-.07-.07Z"/><path class="cls-1" d="M28.37,22.56s0,0,0,.05l.07-.05a.2.2,0,0,0,0-.08Z"/><path class="cls-1" d="M28.23,22.46a.2.2,0,0,1,.08,0l0-.1-.12,0Z"/><path class="cls-1" d="M28.07,22.38l.05.07h.1l0-.09A.3.3,0,0,0,28.07,22.38Z"/><path class="cls-1" d="M28.49,23.23l.13-.1-.1-.12-.11.08.05.15Z"/><path class="cls-1" d="M28.62,22.75l-.12,0a.19.19,0,0,1,0,.08l.1.05A.36.36,0,0,0,28.62,22.75Z"/><path class="cls-1" d="M28.41,22.67v0h.08v-.07Z"/><path class="cls-1" d="M28.4,22.62s0,0,0,0l.08,0s0-.05,0-.07Z"/><path class="cls-1" d="M28.25,23a.25.25,0,0,1-.17,0l-.07.09a.45.45,0,0,0,.23,0Z"/><path class="cls-1" d="M27.93,22.45l.08.06a.14.14,0,0,1,.1-.05l-.05-.08A.33.33,0,0,0,27.93,22.45Z"/><path class="cls-1" d="M28.24,23.14a.43.43,0,0,1-.16,0l-.08,0-.09.12a.56.56,0,0,0,.31.09Z"/><path class="cls-1" d="M28.4,23.1l-.15,0v.15a.65.65,0,0,0,.2,0Z"/><path class="cls-1" d="M27.81,22.77l.1,0a.49.49,0,0,1,0-.12l-.1,0A.86.86,0,0,0,27.81,22.77Z"/><path class="cls-1" d="M27.87,22.93l.09-.05a.21.21,0,0,1,0-.12l-.1,0v0Z"/><path class="cls-1" d="M28.18,22.17a.39.39,0,0,1,.18,0l0-.17a.69.69,0,0,0-.24-.05Z"/><path class="cls-1" d="M29.5,23l0-.11-.33-.05v0a.94.94,0,0,1-.1.28l.28.15A.81.81,0,0,0,29.5,23Z"/><path class="cls-1" d="M28.88,22.55h0a.67.67,0,0,1,0,.2l.23,0a.71.71,0,0,0,0-.29Z"/><path class="cls-1" d="M28.81,22.32a.86.86,0,0,1,.07.21l.23-.06a1,1,0,0,0-.11-.29Z"/><path class="cls-1" d="M29,23.67l-.19-.25a1,1,0,0,1-.28.16l.1.29A1.65,1.65,0,0,0,29,23.67Z"/><path class="cls-1" d="M29.36,23.32l-.28-.16a1.21,1.21,0,0,1-.21.24l.21.24A1.43,1.43,0,0,0,29.36,23.32Z"/><path class="cls-1" d="M28.54,23.59a1.13,1.13,0,0,1-.32.05V24a1.23,1.23,0,0,0,.42-.07Z"/><path class="cls-1" d="M28.65,22.12a.65.65,0,0,1,.15.18l.18-.14a.91.91,0,0,0-.2-.24Z"/><path class="cls-1" d="M27.1,22.42l.27.06a.78.78,0,0,1,.16-.28l-.23-.15A1.33,1.33,0,0,0,27.1,22.42Z"/><path class="cls-1" d="M27.33,22l.22.16,0,0a.86.86,0,0,1,.22-.15l-.15-.22A1,1,0,0,0,27.33,22Z"/><path class="cls-1" d="M28.2,23.56l0-.21H28.1a.92.92,0,0,1-.23-.09l-.12.17.15.08A.8.8,0,0,0,28.2,23.56Z"/><path class="cls-1" d="M27.06,22.88l.27,0a.93.93,0,0,1,0-.33l-.26-.05A1,1,0,0,0,27.06,22.88Z"/><path class="cls-1" d="M28.42,22a.53.53,0,0,1,.22.12l.12-.22a.87.87,0,0,0-.3-.16Z"/><path class="cls-1" d="M27.68,21.76l.14.23a.89.89,0,0,1,.28-.07L28,21.67A1.12,1.12,0,0,0,27.68,21.76Z"/><path class="cls-1" d="M28.08,21.67l.05.25a.75.75,0,0,1,.26,0l0-.26-.12,0Z"/><path class="cls-1" d="M29.1,22.84v0l-.22,0a1.18,1.18,0,0,1-.07.2l.2.11A.63.63,0,0,0,29.1,22.84Z"/><path class="cls-1" d="M28.37,22.21a.71.71,0,0,1,.14.1l.09-.15a.76.76,0,0,0-.19-.12Z"/><path class="cls-1" d="M28.82,22.57l-.16,0a.17.17,0,0,1,0,.07.13.13,0,0,1,0,.06l.17,0a.61.61,0,0,0,0-.19Z"/><path class="cls-1" d="M28.52,22.32a.47.47,0,0,1,.09.12l.14-.1a1.09,1.09,0,0,0-.13-.17Z"/><path class="cls-1" d="M28.62,22.46a.69.69,0,0,1,.05.13l.15,0a.6.6,0,0,0-.06-.19Z"/><path class="cls-1" d="M28.46,23.3a.79.79,0,0,1-.22.05v.21a.93.93,0,0,0,.29,0Z"/><path class="cls-1" d="M28.79,23.35l-.13-.17a.94.94,0,0,1-.18.12l.07.2A1,1,0,0,0,28.79,23.35Z"/><path class="cls-1" d="M27.73,23.4l.13-.16a.44.44,0,0,1-.16-.17l-.17.11A.83.83,0,0,0,27.73,23.4Z"/><path class="cls-1" d="M29,23.11,28.8,23a.65.65,0,0,1-.13.16l.15.17A.79.79,0,0,0,29,23.11Z"/><path class="cls-1" d="M28.59,22.88l-.1-.06,0,.07.07.09A.39.39,0,0,0,28.59,22.88Z"/><path class="cls-1" d="M27.41,22.83l.19,0a.58.58,0,0,1,0-.23l-.19,0A.61.61,0,0,0,27.41,22.83Z"/><path class="cls-1" d="M27.68,23.05a.9.9,0,0,1-.08-.23l-.19,0a1,1,0,0,0,.1.29Z"/><path class="cls-1" d="M27.44,22.5l.19,0a.47.47,0,0,1,.12-.2l-.16-.1A.61.61,0,0,0,27.44,22.5Z"/><path class="cls-1" d="M27.62,22.2l0,0,.16.11a.57.57,0,0,1,.18-.12l-.11-.16A.8.8,0,0,0,27.62,22.2Z"/><path class="cls-1" d="M27.86,22l.1.16a.4.4,0,0,1,.15,0h.05l0-.18A.75.75,0,0,0,27.86,22Z"/><path class="cls-1" d="M28.07,22.66a.09.09,0,0,0,0,.07h.09v0Z"/><path class="cls-1" d="M6,26.74a23.2,23.2,0,0,0,2.33,7.54L13,31.56a17.46,17.46,0,0,1-1.76-5.78Z"/><path class="cls-1" d="M16.8,20.35l-3.54-.72a.31.31,0,0,0,0,.08,15.68,15.68,0,0,0-.4,5.24l3.64-.53a11.54,11.54,0,0,1,.16-3.37C16.69,20.81,16.74,20.58,16.8,20.35Z"/><path class="cls-1" d="M17.74,28.81a12.29,12.29,0,0,1-1-2.64c-.1-.44-.18-.89-.24-1.34l-3.63.66a15.92,15.92,0,0,0,1.6,5.21Z"/><path class="cls-1" d="M28.28,22.83h0v.05l0,0v0Z"/><path class="cls-1" d="M28.37,22.78v0h0Z"/><path class="cls-1" d="M28.5,23l-.07-.08a.18.18,0,0,1-.07.05l0,.11A.39.39,0,0,0,28.5,23Z"/><path class="cls-1" d="M28.18,22.54l0,.05h0v0Z"/><path class="cls-1" d="M28.32,22.82v0l0,0h0Z"/><path class="cls-1" d="M28.26,22.58h0l0,0Z"/><path class="cls-1" d="M28.25,22.55l0,0h0v-.07l-.07,0Z"/><path class="cls-1" d="M28.3,22.58a.05.05,0,0,1,0,0l0,0-.05,0Z"/><path class="cls-1" d="M28.13,22.47l0,.06.07,0v-.08Z"/><path class="cls-1" d="M28.38,22.63a.05.05,0,0,1,0,0,.09.09,0,0,0,0-.05Z"/><path class="cls-1" d="M28.49,22.73h-.08a.06.06,0,0,0,0,0l.07,0A.19.19,0,0,0,28.49,22.73Z"/><path class="cls-1" d="M28,22.52l.06,0a.32.32,0,0,1,.09,0l-.05-.06A.24.24,0,0,0,28,22.52Z"/><path class="cls-1" d="M28.34,22.6l0,0h0l0-.05Z"/><path class="cls-1" d="M28,22.84a.18.18,0,0,1,0-.09h-.07a.37.37,0,0,0,.05.11Z"/><path class="cls-1" d="M27.94,22.62l.07,0s0,0,0,0a.1.1,0,0,1,0-.05l-.06,0A.36.36,0,0,0,27.94,22.62Z"/><path class="cls-1" d="M28.25,23V22.9a.24.24,0,0,1-.12,0l-.05.06A.3.3,0,0,0,28.25,23Z"/><path class="cls-1" d="M28.36,23l-.1,0v.11l.13,0Z"/><path class="cls-1" d="M28.08,23l.05-.07a.14.14,0,0,1-.08-.05l-.06,0A.18.18,0,0,0,28.08,23Z"/><path class="cls-1" d="M28.47,22.81l-.08,0s0,0,0,0l.06.06Z"/><path class="cls-1" d="M27.94,22.63a.17.17,0,0,0,0,.12H28a.2.2,0,0,1,0-.1Z"/><path class="cls-1" d="M28,22.61s0,0,0,0h.05a.12.12,0,0,1,.05,0l0,0A.1.1,0,0,0,28,22.61Z"/><path class="cls-1" d="M28.25,22.82l0,0,0,0h.05Z"/><path class="cls-1" d="M28.08,22.56l.05,0s.05,0,.07,0l0-.05Z"/><path class="cls-1" d="M28.17,22.84l0,0,0,0-.06,0Z"/><path class="cls-1" d="M28.13,22.6l.05,0,0,0h0S28.16,22.59,28.13,22.6Z"/><path class="cls-1" d="M28.18,22.63l-.06,0a.12.12,0,0,0-.05,0l.09,0A.08.08,0,0,1,28.18,22.63Z"/><path class="cls-1" d="M28.22,22.59h0Z"/><path class="cls-1" d="M27.44,23.19a.92.92,0,0,1-.1-.32l-.28.05a1.23,1.23,0,0,0,.13.41Z"/><path class="cls-1" d="M28.1,22.8l.07,0s0,0,0,0l-.1,0h0v0h0Z"/><path class="cls-1" d="M28.26,22.88v-.06h0l-.07,0,0,.05A.25.25,0,0,0,28.26,22.88Z"/><path class="cls-1" d="M28.17,22.84a.11.11,0,0,1-.07,0l0,0a.2.2,0,0,0,.08,0Z"/><path class="cls-1" d="M28.33,22.86l-.06,0V23l.09,0Z"/><path class="cls-1" d="M28,22.74h0a.09.09,0,0,1,0-.07h0A.14.14,0,0,0,28,22.74Z"/><path class="cls-1" d="M28.42,22.88l-.05-.07h0l0,0,0,.08Z"/><path class="cls-1" d="M28.1,22.8l0,0h0s0,0,0,0h0a.2.2,0,0,0,0,.08Z"/><path class="cls-1" d="M27.83,22.59l.1,0a.3.3,0,0,1,.07-.1l-.08-.05A.38.38,0,0,0,27.83,22.59Z"/><path class="cls-1" d="M29.64,15.57a7.18,7.18,0,0,1,2.25,1L33,14.69a9.54,9.54,0,0,0-3-1.36Z"/><path class="cls-1" d="M26.41,13.11l.44,2.28a7.23,7.23,0,0,1,2.54.12l.36-2.25A9.39,9.39,0,0,0,26.41,13.11Z"/><path class="cls-1" d="M22.84,14.28l1.29,2a7.45,7.45,0,0,1,2.47-.84l-.52-2.26A9.81,9.81,0,0,0,22.84,14.28Z"/><path class="cls-1" d="M19.88,16.75l2,1.4a7.56,7.56,0,0,1,1.58-1.46c.15-.1.3-.2.46-.29l-1.35-1.95A10.68,10.68,0,0,0,19.88,16.75Z"/><path class="cls-1" d="M18,20.23l2.42.58a8.17,8.17,0,0,1,1.27-2.45l-2-1.33A9.86,9.86,0,0,0,18,20.23Z"/><path class="cls-1" d="M21.34,31.56,23,29.46a8.55,8.55,0,0,1-1.85-2.29L19,28.55A11.42,11.42,0,0,0,21.34,31.56Z"/><path class="cls-1" d="M17.75,21.27a10.69,10.69,0,0,0-.13,3l2.5-.37a8.41,8.41,0,0,1,0-1.42,8.25,8.25,0,0,1,.24-1.39l-2.44-.5A5.32,5.32,0,0,0,17.75,21.27Z"/><path class="cls-1" d="M18.23,35.53l2.37-3a12.39,12.39,0,0,1-2.66-3.32l-3.19,2A16.68,16.68,0,0,0,18.23,35.53Z"/><path class="cls-1" d="M27.2,34.24l.26-2.73a8.4,8.4,0,0,1-4.26-1.85l-1.56,2.15a11,11,0,0,0,5.57,2.43Z"/><path class="cls-1" d="M29.21,17.8a4.88,4.88,0,0,1,1.55.72l.78-1.32a6.47,6.47,0,0,0-2-.94Z"/><path class="cls-1" d="M27,16.1l.31,1.57a5.16,5.16,0,0,1,1.75.09l.24-1.56A6.36,6.36,0,0,0,27,16.1Z"/><path class="cls-1" d="M26.72,16.14a6.77,6.77,0,0,0-2.19.75l.88,1.37a5.84,5.84,0,0,1,1.71-.57l-.36-1.56Z"/><path class="cls-1" d="M22.48,18.59l1.36,1a5.27,5.27,0,0,1,1.42-1.2L24.33,17A7,7,0,0,0,22.48,18.59Z"/><path class="cls-1" d="M27.72,28.76a5.85,5.85,0,0,1-2.95-1.25L23.69,29a7.51,7.51,0,0,0,3.85,1.67Z"/><path class="cls-1" d="M23.49,28.81l1.13-1.43a5.92,5.92,0,0,1-1.28-1.58l-1.51.95a7.12,7.12,0,0,0,1.07,1.49A6.33,6.33,0,0,0,23.49,28.81Z"/><path class="cls-1" d="M20.91,23.78l1.73-.26a5.75,5.75,0,0,1,.15-1.94l-1.68-.35A7.06,7.06,0,0,0,20.91,23.78Z"/><path class="cls-1" d="M21.17,21l1.67.4a6.09,6.09,0,0,1,.47-1.08,5,5,0,0,1,.41-.61l-1.4-.92A7.06,7.06,0,0,0,21.17,21Z"/><path class="cls-1" d="M17.66,24.62a11.08,11.08,0,0,0,1.11,3.6L21,26.92a8.09,8.09,0,0,1-.86-2.75Z"/><path class="cls-1" d="M23.25,25.62a6,6,0,0,1-.59-1.9L20.94,24a7.51,7.51,0,0,0,.77,2.49Z"/><path class="cls-1" d="M30.26,12.31a9.9,9.9,0,0,1,3.28,1.51l1.64-2.77a13.22,13.22,0,0,0-4.3-2Z"/><path class="cls-1" d="M10.64,10.2l4.16,2.94a15.85,15.85,0,0,1,4.27-3.68l-2.85-4.1A21.71,21.71,0,0,0,10.64,10.2Z"/><path class="cls-1" d="M33.39,8.37a14.71,14.71,0,0,1,2.54,1.42l2.38-4a19.33,19.33,0,0,0-6.26-2.86l-.9,4.7A14.4,14.4,0,0,1,33.39,8.37Z"/><path class="cls-1" d="M24.74,7.38,23.65,2.62A21.82,21.82,0,0,0,18.89,4a21.4,21.4,0,0,0-2,1l2.7,4.18A16.76,16.76,0,0,1,24.74,7.38Z"/><path class="cls-1" d="M30.72,7.44l.69-4.73a21.18,21.18,0,0,0-4.83-.43,20.75,20.75,0,0,0-2.22.18l1,4.78A16.21,16.21,0,0,1,30.72,7.44Z"/><path class="cls-1" d="M25.57,8.79l.64,3.3a10.7,10.7,0,0,1,3.7.14L30.41,9A13.58,13.58,0,0,0,25.57,8.79Z"/><path class="cls-1" d="M20.41,10.52l1.86,2.87a11.31,11.31,0,0,1,3.57-1.24l-.75-3.28A14.77,14.77,0,0,0,20.41,10.52Z"/><path class="cls-1" d="M16.1,14.07l2.87,2a11.23,11.23,0,0,1,3-2.53l-2-2.81A15,15,0,0,0,16.1,14.07Z"/><path class="cls-1" d="M13.57,32.58c-.1-.16-.19-.32-.28-.48L8.69,35a24.2,24.2,0,0,0,5,6.34l3.45-4.4A17.8,17.8,0,0,1,13.57,32.58Z"/><path class="cls-1" d="M20.93,32.79,18.66,35.9a16.16,16.16,0,0,0,8.06,3.57l.37-4A12.31,12.31,0,0,1,20.93,32.79Z"/><path class="cls-1" d="M14.31,41.86a22.7,22.7,0,0,0,3.93,2.64A19.79,19.79,0,0,0,26,47l.54-5.75a17.94,17.94,0,0,1-8.94-3.92Z"/><path class="cls-1" d="M6.72,17.52l5.09,1.22a15.71,15.71,0,0,1,2.63-5.15l-4.26-2.81A21.35,21.35,0,0,0,6.72,17.52Z"/><path class="cls-1" d="M13.4,19.12l3.51.85a11.12,11.12,0,0,1,1.82-3.56l-3-1.94A14.34,14.34,0,0,0,13.4,19.12Z"/><path class="cls-1" d="M5.88,21.94a21.7,21.7,0,0,0,0,4l5.28-.78a17.22,17.22,0,0,1,.48-5.89L6.51,18.25A21.09,21.09,0,0,0,5.88,21.94Z"/><path class="cls-1" d="M31.72,24.68l-.84-.49a3.18,3.18,0,0,1-.69.77l.61.72A4.17,4.17,0,0,0,31.72,24.68Z"/><path class="cls-1" d="M29.67,22.36a2,2,0,0,1,0,.49l.47,0a2.36,2.36,0,0,0,0-.65Z"/><path class="cls-1" d="M29.48,21.84a1.43,1.43,0,0,1,.14.34.65.65,0,0,1,0,.13l.46-.13a1.74,1.74,0,0,0-.24-.62Z"/><path class="cls-1" d="M31,23.09l-.67-.1a1.77,1.77,0,0,1-.25.66l.6.31A2.47,2.47,0,0,0,31,23.09Z"/><path class="cls-1" d="M28.58,21.13a1.66,1.66,0,0,1,.48.24l.26-.43a1.9,1.9,0,0,0-.65-.33Z"/><path class="cls-1" d="M29.38,21l-.27.43a1.59,1.59,0,0,1,.34.39l.4-.3A2.33,2.33,0,0,0,29.38,21Z"/><path class="cls-1" d="M29,25.22l-.18-.61a1.79,1.79,0,0,1-.69.08l0,.63A2.52,2.52,0,0,0,29,25.22Z"/><path class="cls-1" d="M29.93,24.79l-.41-.52a2,2,0,0,1-.61.32l.2.61A2.74,2.74,0,0,0,29.93,24.79Z"/><path class="cls-1" d="M30.49,24.24a2.14,2.14,0,0,0,.13-.19l-.57-.34a2.13,2.13,0,0,1-.47.52l.42.5A2.28,2.28,0,0,0,30.49,24.24Z"/><path class="cls-1" d="M26.69,24.74l.37-.48a1.82,1.82,0,0,1-.44-.52l-.5.31A2.69,2.69,0,0,0,26.69,24.74Z"/><path class="cls-1" d="M28.11,24.5l0-.43a1.33,1.33,0,0,1-.68-.26l-.25.35a1.89,1.89,0,0,0,.28.17A1.85,1.85,0,0,0,28.11,24.5Z"/><path class="cls-1" d="M26.59,23.68a2.07,2.07,0,0,1-.2-.64l-.57.11a2.68,2.68,0,0,0,.26.83Z"/><path class="cls-1" d="M25.81,23.06l.57-.08a1.85,1.85,0,0,1,.05-.66l-.55-.11A2.22,2.22,0,0,0,25.81,23.06Z"/><path class="cls-1" d="M28,25.31l.05-.62a2.05,2.05,0,0,1-1-.39l-.36.49a2.55,2.55,0,0,0,1,.46A1.65,1.65,0,0,0,28,25.31Z"/><path class="cls-1" d="M26.34,21.32l.45.33.06-.07a1.61,1.61,0,0,1,.42-.32l-.3-.45A2.24,2.24,0,0,0,26.34,21.32Z"/><path class="cls-1" d="M27.36,20.64a1.83,1.83,0,0,0-.32.14l.29.45a1.63,1.63,0,0,1,.57-.17l-.12-.52A2.13,2.13,0,0,0,27.36,20.64Z"/><path class="cls-1" d="M27.86,20.53l.1.53a1.58,1.58,0,0,1,.57.05l.08-.52A2.38,2.38,0,0,0,27.86,20.53Z"/><path class="cls-1" d="M25.9,22.13l.55.13a1.73,1.73,0,0,1,.3-.57l-.46-.3A2.11,2.11,0,0,0,25.9,22.13Z"/><path class="cls-1" d="M26.61,22.3l.39.09a1.13,1.13,0,0,1,.21-.39l-.32-.22A1.46,1.46,0,0,0,26.61,22.3Z"/><path class="cls-1" d="M30.05,23.26c0-.1.06-.2.08-.3l-.47-.06a1.49,1.49,0,0,1-.17.44l.42.22A1.38,1.38,0,0,0,30.05,23.26Z"/><path class="cls-1" d="M27.17,24.12l.26-.34a1.17,1.17,0,0,1-.31-.35l-.35.22A1.64,1.64,0,0,0,27.17,24.12Z"/><path class="cls-1" d="M29.88,23.62l-.41-.24a1.34,1.34,0,0,1-.31.36l.29.34A1.88,1.88,0,0,0,29.88,23.62Z"/><path class="cls-1" d="M29.08,22.13a.82.82,0,0,1,.11.31l.33-.09a1.52,1.52,0,0,0-.16-.42Z"/><path class="cls-1" d="M28.16,23.94l0-.3a.92.92,0,0,1-.48-.16l-.17.23.09.07A1.13,1.13,0,0,0,28.16,23.94Z"/><path class="cls-1" d="M29,21.53l-.19.3a1.13,1.13,0,0,1,.22.27l.27-.21A1.31,1.31,0,0,0,29,21.53Z"/><path class="cls-1" d="M29.4,24.12l-.27-.35a1.41,1.41,0,0,1-.42.22l.14.42A1.81,1.81,0,0,0,29.4,24.12Z"/><path class="cls-1" d="M28.79,24.43,28.67,24a1.28,1.28,0,0,1-.27,0,.67.67,0,0,1-.2,0l0,.44A1.79,1.79,0,0,0,28.79,24.43Z"/><path class="cls-1" d="M29.2,22.47a.92.92,0,0,1,0,.33l.34,0a1.31,1.31,0,0,0,0-.44Z"/><path class="cls-1" d="M26.59,22.37a1.63,1.63,0,0,0-.05.58l.4-.05a1.39,1.39,0,0,1,0-.46l-.39-.09Z"/><path class="cls-1" d="M29.37,26.38l-.26-.89-.17,0a2.88,2.88,0,0,1-.83.06l-.05.9A3.86,3.86,0,0,0,29.37,26.38Z"/><path class="cls-1" d="M27.1,23.39a1,1,0,0,1-.07-.15,1,1,0,0,1-.08-.3l-.4.07a1.88,1.88,0,0,0,.19.58Z"/><path class="cls-1" d="M28.48,21.63a1.06,1.06,0,0,1,.33.18L29,21.5a1.22,1.22,0,0,0-.43-.24Z"/><path class="cls-1" d="M26.93,21.74l.31.22a1.38,1.38,0,0,1,.26-.22l.08,0-.21-.31A1.51,1.51,0,0,0,26.93,21.74Z"/><path class="cls-1" d="M28,21.2l.07.36a1.74,1.74,0,0,1,.39.05l.06-.36-.13,0A1.29,1.29,0,0,0,28,21.2Z"/><path class="cls-1" d="M27.42,21.36l.2.32a1.14,1.14,0,0,1,.4-.11l-.08-.36A1.56,1.56,0,0,0,27.42,21.36Z"/><path class="cls-1" d="M25,26.93l.78-1a3.91,3.91,0,0,1-.89-1.09l-1,.66A5.48,5.48,0,0,0,25,26.93Z"/><path class="cls-1" d="M28.92,19.33a3.41,3.41,0,0,1,1,.51l.54-.91a4,4,0,0,0-1.39-.66Z"/><path class="cls-1" d="M30.63,19l-.56.89a3.34,3.34,0,0,1,.76.83l.8-.62A4.36,4.36,0,0,0,30.63,19Z"/><path class="cls-1" d="M25.69,18.69l.61.95a3.57,3.57,0,0,1,1.18-.39l-.25-1.09A4.94,4.94,0,0,0,25.69,18.69Z"/><path class="cls-1" d="M27.39,18.15l.21,1.08a3.57,3.57,0,0,1,.8,0,3,3,0,0,1,.41.08L29,18.24A4.19,4.19,0,0,0,27.39,18.15Z"/><path class="cls-1" d="M30.69,25.75,30.11,25a3.09,3.09,0,0,1-.91.45l.3.88A4.14,4.14,0,0,0,30.69,25.75Z"/><path class="cls-1" d="M30.89,20.83a2.84,2.84,0,0,1,.25.53,4,4,0,0,1,.15.49l1-.27a4.49,4.49,0,0,0-.54-1.34Z"/><path class="cls-1" d="M31.31,22a3.14,3.14,0,0,1,0,1.06l1,.11,0-.18a4.24,4.24,0,0,0-.05-1.23Z"/><path class="cls-1" d="M27.77,28.19l.12-1.31a4,4,0,0,1-1.58-.54,4.73,4.73,0,0,1-.46-.32l-.75,1A5.1,5.1,0,0,0,27,28,6.33,6.33,0,0,0,27.77,28.19Z"/><path class="cls-1" d="M24.26,19.85l.95.67a3.66,3.66,0,0,1,1-.82l-.64-.93A4.79,4.79,0,0,0,24.26,19.85Z"/><path class="cls-1" d="M30.58,30.47,30,28.63a6.32,6.32,0,0,1-2.12.15l-.11,1.9A8.32,8.32,0,0,0,30.58,30.47Z"/><path class="cls-1" d="M24.8,24.72a4.08,4.08,0,0,1-.41-1.31l-1.2.21a5.47,5.47,0,0,0,.54,1.72Z"/><path class="cls-1" d="M23.77,20.57a4.7,4.7,0,0,0-.41.95l1.15.27a3.74,3.74,0,0,1,.61-1.17l-1-.64A4.56,4.56,0,0,0,23.77,20.57Z"/><path class="cls-1" d="M23.17,23.45l1.2-.18a3.62,3.62,0,0,1,.11-1.35l-1.17-.24A4.8,4.8,0,0,0,23.17,23.45Z"/><path class="cls-1" d="M26.49,19.93l.42.65a2.38,2.38,0,0,1,.82-.26l-.17-.74A3.13,3.13,0,0,0,26.49,19.93Z"/><path class="cls-1" d="M30,20.23l-.06-.05-.39.62a2.17,2.17,0,0,1,.52.57l.56-.43q-.1-.17-.21-.3A5.44,5.44,0,0,0,30,20.23Z"/><path class="cls-1" d="M30.7,21.12l-.07-.1-.58.41a2,2,0,0,1,.26.7l.68-.19a2.29,2.29,0,0,0-.07-.28A4.35,4.35,0,0,0,30.7,21.12Z"/><path class="cls-1" d="M28.86,19.66l-.14.74a2.24,2.24,0,0,1,.73.35l.37-.63-.34-.22A2.75,2.75,0,0,0,28.86,19.66Z"/><path class="cls-1" d="M27.51,23.69l.18-.23a1.07,1.07,0,0,1-.16-.14l-.07-.11-.24.16A1.1,1.1,0,0,0,27.51,23.69Z"/><path class="cls-1" d="M30.33,22.2a2.54,2.54,0,0,1,0,.29,2.07,2.07,0,0,1,0,.43L31,23a2.81,2.81,0,0,0,0-1Z"/><path class="cls-1" d="M27.67,19.56l.15.75a2.53,2.53,0,0,1,.82.07l.12-.75A3.09,3.09,0,0,0,27.67,19.56Z"/><path class="cls-1" d="M32.29,23.27l-1-.14a3.09,3.09,0,0,1-.37,1l.86.46A3.85,3.85,0,0,0,32.29,23.27Z"/><path class="cls-1" d="M28,25.58A2.83,2.83,0,0,1,26.6,25l-.51.71a3.6,3.6,0,0,0,1.84.77Z"/><path class="cls-1" d="M26,25.63l.54-.69a3,3,0,0,1-.63-.75l-.72.45A3.86,3.86,0,0,0,26,25.63Z"/><path class="cls-1" d="M29.86,28.05l-.38-1.28a4.37,4.37,0,0,1-1.44.12L28,28.2A5.78,5.78,0,0,0,29.86,28.05Z"/><path class="cls-1" d="M25.85,24.11a3,3,0,0,1-.28-.92l-.83.15a3.77,3.77,0,0,0,.38,1.19Z"/><path class="cls-1" d="M24.73,23.22l.83-.12a2.7,2.7,0,0,1,.07-.94l-.8-.16A3.33,3.33,0,0,0,24.73,23.22Z"/><path class="cls-1" d="M24.86,21.88l.8.19a2.56,2.56,0,0,1,.29-.63l.14-.18-.67-.44A3.27,3.27,0,0,0,24.86,21.88Z"/><path class="cls-1" d="M25.57,20.64l-.07.09.65.46a2.49,2.49,0,0,1,.68-.57L26.39,20A3.09,3.09,0,0,0,25.57,20.64Z"/><path class="cls-1" d="M28.07,22.77h0Z"/><path class="cls-1" d="M47.05,27.38a4.69,4.69,0,0,1-.08.74,4.11,4.11,0,0,1-.23.85,2.8,2.8,0,0,1-.39.71.69.69,0,0,1-.55.3H33.35V27.45h7.72c.06,0,.12-.06.17-.18a2.34,2.34,0,0,0,.11-.4l.06-.45a2.52,2.52,0,0,0,0-.29s0-.15,0-.37,0-.45-.1-.73a5.34,5.34,0,0,0-.21-.81,1.34,1.34,0,0,0-.35-.59H34.21a1,1,0,0,1-.62-.44,1.65,1.65,0,0,1-.24-.66c.37-.93.74-1.86,1.1-2.78s.74-1.85,1.13-2.78c.05-.1.11-.22.19-.35a3.55,3.55,0,0,1,.27-.35,2,2,0,0,1,.31-.28.46.46,0,0,1,.28-.13h10v2.21H40.31l-.12.24c-.09.17-.19.39-.31.67l-.42.95c-.15.36-.3.74-.45,1.15h6.25a1.83,1.83,0,0,1,.62.44,2.27,2.27,0,0,1,.33.52c.17.83.32,1.65.46,2.46s.25,1.61.35,2.39c0,0,0,.08,0,.2S47.05,27.3,47.05,27.38Z"/><path class="cls-1" d="M48.2,15.86H59a.46.46,0,0,1,.3.13,2.67,2.67,0,0,1,.32.28,1.31,1.31,0,0,1,.27.35A2.05,2.05,0,0,1,60,17c.49,1,1,2.12,1.44,3.27s.9,2.22,1.28,3.22a1.74,1.74,0,0,0,0,.18c0,.11,0,.2,0,.29a4.41,4.41,0,0,1-.07.73,5.59,5.59,0,0,1-.23.87,2.26,2.26,0,0,1-.41.72.71.71,0,0,1-.56.3H53.32V30H48.2Zm5.12,2.21V24H56.9c.06,0,.12-.06.17-.19a2.11,2.11,0,0,0,.11-.4l.06-.44a2.09,2.09,0,0,0,0-.29A3.74,3.74,0,0,0,57,21.55c-.18-.51-.38-1-.61-1.53s-.44-1-.63-1.36a4.8,4.8,0,0,0-.32-.59Z"/><path class="cls-1" d="M69.07,30H64V15.86h5.12Z"/><path class="cls-1" d="M81.25,15.86a.44.44,0,0,1,.28.13,2,2,0,0,1,.31.28,2.53,2.53,0,0,1,.28.35,1.77,1.77,0,0,1,.19.35c.5,1,1,2.11,1.42,3.21s.87,2.18,1.3,3.28a1.74,1.74,0,0,0,0,.18c0,.11,0,.2,0,.29a4.41,4.41,0,0,1-.07.73,5.59,5.59,0,0,1-.23.87,2.47,2.47,0,0,1-.41.72.71.71,0,0,1-.56.3h-.59L85.05,30H79.93l-1.86-3.43H75.62V30H70.5V15.86ZM75.62,24h3.57c.07,0,.13-.06.18-.19a2.11,2.11,0,0,0,.11-.4l.06-.44c0-.15,0-.25,0-.29a3.74,3.74,0,0,0-.27-1.13c-.18-.51-.38-1-.61-1.53s-.44-1-.64-1.36a2.8,2.8,0,0,0-.32-.59h-2.1Z"/><path class="cls-1" d="M102.13,15.86V30H97V18.07H94.88a2.14,2.14,0,0,0-.26.53c-.16.35-.34.79-.56,1.33s-.46,1.14-.71,1.79-.49,1.28-.72,1.87-.4,1.13-.55,1.6a4.3,4.3,0,0,0-.22.94,2.52,2.52,0,0,0,0,.29,3.47,3.47,0,0,0,.06.45,1.68,1.68,0,0,0,.11.4c0,.12.11.18.17.18h3.5V30H87.5a.68.68,0,0,1-.55-.3,2.29,2.29,0,0,1-.39-.71,4.13,4.13,0,0,1-.24-.85,6,6,0,0,1-.07-.74c0-.08,0-.18,0-.29s0-.18,0-.2c.57-1.68,1.19-3.34,1.86-5s1.34-3.28,2-5c0-.1.11-.22.19-.35a2,2,0,0,1,.28-.35,3.76,3.76,0,0,1,.32-.28.46.46,0,0,1,.29-.13Z"/><path class="cls-1" d="M108.92,15.86V27.45h6V30H104.26a.39.39,0,0,1-.32-.15,1.92,1.92,0,0,1-.22-.35,1.76,1.76,0,0,1-.13-.43,2,2,0,0,1,0-.39V15.86Z"/><path class="cls-1" d="M45.88,43.41c0,.36,0,.76,0,1.19a6.08,6.08,0,0,1-.2,1.23,2.31,2.31,0,0,1-.48,1,1.11,1.11,0,0,1-.9.38H35.88V44.64h4.53l.37-.35V42.75l-4.61-6.62a2.61,2.61,0,0,0-.29-.29,3.84,3.84,0,0,0-.44-.32L35,35.26a1,1,0,0,0-.38-.11v12H29.46V33.05h9.33a1.56,1.56,0,0,1,.54.12,1.82,1.82,0,0,1,.52.29,27.46,27.46,0,0,1,2.75,2.75,39.91,39.91,0,0,1,2.54,3.23,5.48,5.48,0,0,1,.61,1.9A16.9,16.9,0,0,1,45.88,43.41Z"/><path class="cls-1" d="M49.7,44.51A2.78,2.78,0,0,1,48,44a2,2,0,0,1-.68-1.69V33.05h5.17V41.5l.45.44h4.41l.49-.44V33.05H63v9.26a2.41,2.41,0,0,1-.51,1.59,1.93,1.93,0,0,1-1.57.61H57.73v2.65H52.64V44.51Z"/><path class="cls-1" d="M64.37,33.05h3a1,1,0,0,1,.31.07,2.41,2.41,0,0,1,.44.2,3,3,0,0,1,.44.28,1.71,1.71,0,0,1,.36.35c.8.84,1.59,1.69,2.39,2.58s1.58,1.78,2.36,2.72v-6.2h5.12V47.16h-3a.82.82,0,0,1-.41-.2,2.7,2.7,0,0,1-.44-.4c-.15-.15-.29-.31-.43-.48l-.38-.44-4.59-4.9v6.42H64.37Z"/><path class="cls-1" d="M96.57,47.16H91.5V43.73H85.37l-.12.32v3.11h-5V43.73q.89-2.58,1.88-4.86t2-4.72a1.28,1.28,0,0,1,.16-.26l.3-.37a2.57,2.57,0,0,1,.33-.33.45.45,0,0,1,.29-.14H96.57ZM88.68,35.25l-2.3,5.91H91.5V35.25Z"/><path class="cls-1" d="M98,36.13A4,4,0,0,1,98.16,35a4.13,4.13,0,0,1,.48-1,2.65,2.65,0,0,1,.72-.7,1.76,1.76,0,0,1,.94-.25h15.29a1.61,1.61,0,0,1,.94.29,3,3,0,0,1,.75.75,3.81,3.81,0,0,1,.49,1,3.44,3.44,0,0,1,.17,1V47.16h-5.1V35.79a1.63,1.63,0,0,0-.17-.35,1.72,1.72,0,0,0-.24-.31h-1.92v12h-5.09v-12h-1.89l-.2.22c0,.07-.1.15-.16.27l-.08.17V47.16H98Z"/><path class="cls-1" d="M122.86,44.61v-9h-3.5V33.05h12.4v2.54h-3.51v9h3.51v2.55h-12.4V44.61Z"/><path class="cls-1" d="M133.3,41.34a5.7,5.7,0,0,1,.61-1.9c.84-1.17,1.68-2.25,2.54-3.23a26.23,26.23,0,0,1,2.76-2.72,1.4,1.4,0,0,1,.52-.32,1.71,1.71,0,0,1,.56-.12h8.5v2.1h-4.31a1,1,0,0,0-.41.11c-.15.08-.31.16-.46.26a3.7,3.7,0,0,0-.43.32,2.85,2.85,0,0,0-.3.29l-4.58,6.62v1.54l.34.35h10.15v2.52h-14a1.12,1.12,0,0,1-.91-.38,2.58,2.58,0,0,1-.48-1,6.08,6.08,0,0,1-.2-1.23c0-.43,0-.83,0-1.19A17,17,0,0,1,133.3,41.34Z"/><path class="cls-1" d="M163.91,44.56a4.69,4.69,0,0,1-.08.74,3.78,3.78,0,0,1-.23.86,2.83,2.83,0,0,1-.39.71.71.71,0,0,1-.55.29H150.21V44.64h7.72c.06,0,.12-.06.17-.19a1.56,1.56,0,0,0,.11-.4l.06-.44a2.85,2.85,0,0,0,0-.3s0-.15,0-.36-.05-.46-.1-.74a5.34,5.34,0,0,0-.21-.81,1.31,1.31,0,0,0-.35-.59h-6.54a1,1,0,0,1-.62-.44,1.65,1.65,0,0,1-.24-.66c.37-.93.74-1.86,1.1-2.78s.74-1.85,1.13-2.78c.05-.1.11-.21.19-.34a3.75,3.75,0,0,1,.27-.36,2,2,0,0,1,.31-.28.5.5,0,0,1,.28-.12h10v2.2h-6.35l-.12.25c-.09.16-.19.38-.31.66l-.42,1c-.15.36-.3.75-.45,1.16h6.25a1.7,1.7,0,0,1,.62.44,2,2,0,0,1,.33.51c.17.83.32,1.66.46,2.46s.26,1.61.35,2.39c0,0,0,.09,0,.2S163.91,44.48,163.91,44.56Z"/></svg>