<?xml version="1.0" encoding="utf-8"?>
<!-- Generator: Adobe Illustrator 26.0.3, SVG Export Plug-In . SVG Version: 6.00 Build 0)  -->
<svg version="1.1" id="Слой_1" xmlns="http://www.w3.org/2000/svg" xmlns:xlink="http://www.w3.org/1999/xlink" x="0px" y="0px"
	 viewBox="0 0 420 420" style="enable-background:new 0 0 420 420;" xml:space="preserve">
<style type="text/css">
	.st0{fill:#881337;}
	.st1{fill:#1D1D1B;}
	.st2{fill:#DB2778;}
</style>
<rect x="-6" y="-8.7" class="st0" width="432" height="437.5"/>
<g>
	<path class="st1" d="M347.7,89.4L347.7,89.4c30.3,0,54.8,24.5,54.8,54.8v23c0,30.3-24.5,54.8-54.8,54.8l0,0
		c-30.3,0-54.8-24.5-54.8-54.8v-23C292.9,113.9,317.4,89.4,347.7,89.4z"/>
	<g>
		<g>
			<g>
				<path class="st2" d="M60.4,95v30.4c0,7.9-6.4,14.3-14.4,14.3v-30.3C46,101.5,52.4,95,60.4,95H44c-6.8,0-12.4-5.5-12.4-12.4v30.5
					c0,7.9-6.4,14.4-14.4,14.4V97c0-7.9,6.4-14.4,14.4-14.4l0,0H48C54.8,82.6,60.4,88.2,60.4,95L60.4,95z M46,139.8H29.6
					c-6.8,0-12.4-5.5-12.4-12.4h16.4C40.5,127.5,46,133,46,139.8z"/>
				<path class="st2" d="M60.4,185.2v30.4c0,7.9-6.4,14.3-14.4,14.3v-30.4C46,191.8,52.4,185.4,60.4,185.2H44
					c-6.8,0-12.4-5.5-12.4-12.4v30.5c0,7.9-6.4,14.4-14.4,14.4v-30.5c0-7.9,6.4-14.4,14.4-14.4l0,0H48
					C54.8,173,60.4,178.5,60.4,185.2L60.4,185.2z M46,230.1H29.6c-6.8,0-12.4-5.5-12.4-12.4h16.4C40.5,217.8,46,223.2,46,230.1z"/>
			</g>
			<g>
				<path class="st2" d="M106,103.9v30.4c0,7.9-6.4,14.3-14.4,14.3v-30.4C91.6,110.3,98.1,103.9,106,103.9H89.6
					c-6.8,0-12.4-5.5-12.4-12.4v30.4c0,7.9-6.4,14.4-14.4,14.4v-30.5c0-7.9,6.4-14.4,14.4-14.4l0,0h16.4
					C100.5,91.5,106,97,106,103.9L106,103.9z M91.6,148.6H75.3c-6.8,0-12.4-5.5-12.4-12.4h16.4C86.1,136.2,91.6,141.8,91.6,148.6z"
					/>
				<path class="st2" d="M106,176.5v30.4c0,7.9-6.4,14.3-14.4,14.3v-30.3C91.6,182.9,98.1,176.5,106,176.5H89.6
					c-6.8,0-12.4-5.5-12.4-12.4v30.5c0,7.9-6.4,14.4-14.4,14.4v-30.5c0-7.9,6.4-14.4,14.4-14.4l0,0h16.4
					C100.5,164.1,106,169.7,106,176.5L106,176.5z M91.6,221.2H75.3c-6.8,0-12.4-5.5-12.4-12.4h16.4
					C86.1,208.9,91.6,214.5,91.6,221.2z"/>
			</g>
			<g>
				<path class="st2" d="M151.7,95v30.4c0,7.9-6.4,14.3-14.4,14.3v-30.3C137.3,101.5,143.7,95,151.7,95h-16.4
					c-6.8,0-12.4-5.5-12.4-12.4v30.5c0,7.9-6.4,14.4-14.4,14.4V97c0-7.9,6.4-14.4,14.4-14.4l0,0h16.4
					C146.1,82.6,151.7,88.2,151.7,95L151.7,95z M137.3,139.8h-16.4c-6.8,0-12.4-5.5-12.4-12.4h16.4
					C131.7,127.5,137.3,133,137.3,139.8z"/>
				<path class="st2" d="M151.7,185.2v30.4c0,7.9-6.4,14.3-14.4,14.3v-30.4C137.3,191.8,143.7,185.4,151.7,185.2h-16.4
					c-6.8,0-12.4-5.5-12.4-12.4v30.5c0,7.9-6.4,14.4-14.4,14.4v-30.5c0-7.9,6.4-14.4,14.4-14.4l0,0h16.4
					C146.1,173,151.7,178.5,151.7,185.2L151.7,185.2z M137.3,230.1h-16.4c-6.8,0-12.4-5.5-12.4-12.4h16.4
					C131.7,217.8,137.3,223.2,137.3,230.1z"/>
			</g>
			<g>
				<path class="st2" d="M197.3,103.9v30.4c0,7.9-6.4,14.3-14.4,14.3v-30.4C182.9,110.3,189.3,103.9,197.3,103.9h-16.4
					c-6.8,0-12.4-5.5-12.4-12.4v30.4c0,7.9-6.4,14.4-14.4,14.4v-30.5c0-7.9,6.4-14.4,14.4-14.4l0,0h16.4
					C191.8,91.5,197.3,97,197.3,103.9L197.3,103.9z M182.9,148.6h-16.4c-6.8,0-12.4-5.5-12.4-12.4h16.4
					C177.4,136.2,182.9,141.8,182.9,148.6z"/>
				<path class="st2" d="M197.3,176.5v30.4c0,7.9-6.4,14.3-14.4,14.3v-30.3C182.9,182.9,189.3,176.5,197.3,176.5h-16.4
					c-6.8,0-12.4-5.5-12.4-12.4v30.5c0,7.9-6.4,14.4-14.4,14.4v-30.5c0-7.9,6.4-14.4,14.4-14.4l0,0h16.4
					C191.8,164.1,197.3,169.7,197.3,176.5L197.3,176.5z M182.9,221.2h-16.4c-6.8,0-12.4-5.5-12.4-12.4h16.4
					C177.4,208.9,182.9,214.5,182.9,221.2z"/>
			</g>
			<g>
				<path class="st2" d="M243,95v30.4c0,7.9-6.4,14.3-14.4,14.3v-30.3C228.6,101.5,235,95,243,95h-16.4c-6.8,0-12.4-5.5-12.4-12.4
					v30.5c0,7.9-6.4,14.4-14.4,14.4V97c0-7.9,6.4-14.4,14.4-14.4l0,0h16.4C237.4,82.6,243,88.2,243,95L243,95z M228.6,139.8h-16.4
					c-6.8,0-12.4-5.5-12.4-12.4h16.4C223,127.5,228.6,133,228.6,139.8z"/>
				<path class="st2" d="M243,185.2v30.4c0,7.9-6.4,14.3-14.4,14.3v-30.4C228.6,191.8,235,185.4,243,185.2h-16.4
					c-6.8,0-12.4-5.5-12.4-12.4v30.5c0,7.9-6.4,14.4-14.4,14.4v-30.5c0-7.9,6.4-14.4,14.4-14.4l0,0h16.4
					C237.4,173,243,178.5,243,185.2L243,185.2z M228.6,230.1h-16.4c-6.8,0-12.4-5.5-12.4-12.4h16.4
					C223,217.8,228.6,223.2,228.6,230.1z"/>
			</g>
		</g>
		<g>
			<path class="st2" d="M249.2,120V82.8c20.5,0,37.2,16.7,37.2,37.2v74.1c0,20.4-16.7,36.9-37.2,36.9v-36.9
				c0-20.4,16.7-36.9,37.2-36.9C265.8,157.2,249.2,140.5,249.2,120z"/>
			<path class="st2" d="M402.8,115.1v78.8c0,20.5-16.7,37.1-37.2,37.1v-78.8C365.6,131.8,382.2,115.2,402.8,115.1h-42.4
				c-17.7,0-32-14.3-32-32v78.8c0,20.5-16.6,37.1-37.2,37.1v-78.8c0-20.5,16.6-37.1,37.2-37.1l0,0h42.4
				C388.4,83.1,402.8,97.4,402.8,115.1L402.8,115.1z M365.6,231h-42.4c-17.7,0-32-14.3-32-32h42.4C351.2,199,365.6,213.2,365.6,231z
				"/>
		</g>
	</g>
</g>
</svg>
