<?xml version="1.0" encoding="utf-8"?>
<!-- Generator: Adobe Illustrator 26.0.1, SVG Export Plug-In . SVG Version: 6.00 Build 0)  -->
<svg version="1.1" id="Слой_1" xmlns="http://www.w3.org/2000/svg" xmlns:xlink="http://www.w3.org/1999/xlink" x="0px" y="0px"
	 viewBox="0 0 100 100" style="enable-background:new 0 0 100 100;" xml:space="preserve">
<style type="text/css">
	.st0{fill:#FFFFFF;}
	.st1{fill:#FD4D8B;}
</style>
<path class="st0" d="M73.4,53.5l-9.9,0.4l0.3-15.2l0,0v-1.5c0.2-9.1-3.9-17.8-11.1-23.5l0,0c-11.6-9.3-28.4-8-38.4,3
	c-10.8,11.8-9.9,30,1.8,40.8c5.5,5,12.6,7.7,20,7.6h1.4l0,0l16.9-0.6l0.3,9.3c0.3,10.7,9.2,19.1,19.9,18.8c0,0,0,0,0,0l0,0
	c10.7-0.5,19-9.5,18.5-20.2c0,0,0,0,0,0l0,0C93,61.6,84.1,53.2,73.4,53.5C73.4,53.5,73.4,53.5,73.4,53.5z M34.9,55
	C24.3,55.3,15.3,47,15,36.3c0,0,0-0.1,0-0.1l0,0C14.6,25.5,22.9,16.4,33.6,16l0,0c3.5-0.1,7,0.7,10,2.4l0,0c0.5,0.3,1,0.6,1.5,0.9
	c0.7,0.5,1.4,1,2,1.6v0c4.4,3.8,6.9,9.4,6.7,15.2l-0.4,18.1L34.9,55z M69.2,66.8c0.7-1.6,0.6-2.2,1.2-2.7c0.8-0.7,12.8,5.2,13.6,6
	c-0.7,3.4-1.4,6.8-2.2,10.2l-6.3,1.6c-1.9-0.1-3.8-0.6-5.6-1.6c-1-0.4-1.9-1.1-2.6-2c-0.9-1.5-1-3.2-0.5-4.9l0.2-1.2
	c0-0.6,0-1.3,0.2-1.9C67.6,68.9,68.3,68.7,69.2,66.8z"/>
<path class="st0" d="M40,30.2c5.9,0,10.6,4.8,10.7,10.7v10.7H40c-5.9,0-10.7-4.7-10.7-10.5c0-0.1,0-0.1,0-0.2
	C29.3,35,34.1,30.2,40,30.2C40,30.2,40,30.2,40,30.2z M46.4,40.9c0-3.5-2.9-6.4-6.4-6.4c-1.7,0-3.3,0.7-4.5,1.9
	c-2.5,2.5-2.5,6.5,0,9c0,0,0,0,0,0c1.2,1.3,2.8,2,4.5,1.9h6.4V40.9z"/>
<path class="st1" d="M76.4,85c-5.9,0-10.6-4.8-10.6-10.6V63.8h10.6c5.8,0,10.6,4.7,10.6,10.5c0,0,0,0.1,0,0.1
	C87,80.2,82.3,85,76.4,85C76.4,85,76.4,85,76.4,85z M70.1,74.4c0,3.5,2.9,6.3,6.4,6.3c3.5,0,6.3-2.9,6.3-6.4c0-3.5-2.8-6.3-6.3-6.3
	h-6.4V74.4z"/>
</svg>
