<svg id="Слой_1" data-name="Слой 1" xmlns="http://www.w3.org/2000/svg" viewBox="0 0 50 50"><defs><style>.cls-1{fill:#fff;}</style></defs><circle class="cls-1" cx="32.97" cy="19.17" r="3.34"/><path class="cls-1" d="M24,15a3,3,0,0,1-.78-1.36A3,3,0,0,1,25.41,10l4.86-1.29A10.79,10.79,0,0,1,43.45,21.92l-1.31,4.85a3,3,0,1,1-5.84-1.58l1.31-4.85a4.73,4.73,0,0,0-5.79-5.81L27,15.82A3.06,3.06,0,0,1,24,15Z"/><path class="cls-1" d="M16.83,20.46a3.34,3.34,0,1,1-4.1,2.35A3.34,3.34,0,0,1,16.83,20.46Z"/><path class="cls-1" d="M11.76,34.83,8.21,31.27a10.79,10.79,0,0,1,4.89-18L18,11.94a3,3,0,1,1,1.56,5.85l-4.86,1.29A4.73,4.73,0,0,0,12.51,27l3.54,3.56a3,3,0,0,1-4.29,4.27Z"/><path class="cls-1" d="M25.14,37a3.34,3.34,0,1,1,4.09,2.37A3.35,3.35,0,0,1,25.14,37Z"/><path class="cls-1" d="M20.74,43.87,17.2,40.31A3,3,0,1,1,21.49,36L25,39.59A4.74,4.74,0,0,0,33,37.49l1.31-4.85a3,3,0,0,1,5.85,1.58l-1.32,4.85a10.79,10.79,0,0,1-18.07,4.8Z"/></svg>