<?xml version="1.0" encoding="utf-8"?>
<!-- Generator: Adobe Illustrator 26.0.1, SVG Export Plug-In . SVG Version: 6.00 Build 0)  -->
<svg version="1.1" id="Слой_1" xmlns="http://www.w3.org/2000/svg" xmlns:xlink="http://www.w3.org/1999/xlink" x="0px" y="0px"
	 viewBox="0 0 91.1 100" style="enable-background:new 0 0 91.1 100;" xml:space="preserve">
<style type="text/css">
	.st0{fill:#138BCC;}
	.st1{fill:none;stroke:#FFFFFF;stroke-width:3;stroke-linecap:round;stroke-miterlimit:10;}
	.st2{fill:#FFFFFF;}
</style>
<g>
	<g>
		<g>
			<path class="st0" d="M67.9,91.3C48.3,71,28.7,50.7,9,30.4c25.2-4.7,50.5-9.5,75.7-14.2C79.1,41.2,73.5,66.3,67.9,91.3z"/>
			<polygon class="st1" points="84.8,16.2 76.3,53.7 67.9,91.3 38.5,60.8 9,30.4 46.9,23.3 			"/>
			<polyline class="st1" points="67.9,91.3 38.5,60.8 9,30.4 			"/>
		</g>
	</g>
	<g>
		<path class="st2" d="M40.9,31v21.3c0,0.2-0.1,0.4-0.2,0.6c-0.2,0.2-0.4,0.2-0.6,0.2s-0.4-0.1-0.6-0.2c-0.2-0.1-0.3-0.3-0.3-0.5V31
			c0-0.2,0.1-0.4,0.2-0.6c0.2-0.2,0.4-0.2,0.6-0.2s0.4,0.1,0.6,0.2C40.8,30.6,40.9,30.8,40.9,31z M42.5,40.1v-9
			c0-0.2,0.1-0.4,0.2-0.6c0.2-0.2,0.4-0.2,0.6-0.2c0.2,0,0.4,0.1,0.6,0.2c0.2,0.2,0.2,0.4,0.2,0.6v8.2h8.2v-8.2
			c0-0.2,0.1-0.4,0.2-0.6c0.2-0.2,0.4-0.2,0.6-0.2s0.4,0.1,0.6,0.2c0.2,0.2,0.2,0.4,0.2,0.6v9c0,0.2-0.1,0.4-0.2,0.6
			c-0.2,0.2-0.4,0.2-0.6,0.2h-9.8c-0.2,0-0.4-0.1-0.6-0.2C42.6,40.5,42.5,40.3,42.5,40.1z M42.5,43.3c0-0.2,0.1-0.4,0.2-0.6
			c0.2-0.2,0.4-0.2,0.6-0.2h9.9c0.2,0,0.4,0.1,0.6,0.2c0.2,0.2,0.2,0.4,0.2,0.6v9c0,0.2-0.1,0.4-0.2,0.6c-0.2,0.2-0.4,0.2-0.6,0.2
			s-0.4-0.1-0.6-0.2c-0.2-0.2-0.2-0.4-0.2-0.6v-8.2h-8.2v8.2c0,0.2-0.1,0.4-0.2,0.6s-0.4,0.2-0.6,0.2S43,53,42.8,52.9
			c-0.2-0.2-0.2-0.4-0.2-0.6L42.5,43.3L42.5,43.3z M55.7,52.4V31c0-0.2,0.1-0.4,0.2-0.6c0.2-0.2,0.4-0.2,0.6-0.2s0.4,0.1,0.6,0.2
			c0.2,0.2,0.2,0.4,0.2,0.6v21.3c0,0.2-0.1,0.4-0.2,0.6c-0.1,0.2-0.4,0.2-0.6,0.2s-0.4-0.1-0.6-0.2C55.7,52.8,55.7,52.6,55.7,52.4z"
			/>
		<path class="st2" d="M66.7,49.9H61c-0.2,0-0.4-0.1-0.6-0.2c-0.2-0.2-0.2-0.4-0.2-0.6s0.1-0.4,0.2-0.6c0.2-0.2,0.4-0.2,0.6-0.2h5.7
			c0.4,0,0.8-0.2,1.2-0.5c0.3-0.3,0.5-0.7,0.5-1.2s-0.2-0.8-0.5-1.2l-4-4c-1.3-1.3-1.9-2.8-1.9-4.7c0-1.8,0.6-3.4,1.9-4.6
			c1.3-1.3,2.8-1.9,4.6-1.9c1.8,0,3.4,0.6,4.6,1.9l0.1,0.1c0.2,0.2,0.2,0.4,0.2,0.6c0,0.2-0.1,0.4-0.2,0.6c-0.2,0.2-0.4,0.2-0.6,0.2
			c-0.2,0-0.4-0.1-0.6-0.2l-0.1-0.1c-1-1-2.1-1.4-3.5-1.4s-2.5,0.5-3.5,1.4c-1,1-1.4,2.1-1.4,3.5c0,1.4,0.5,2.5,1.4,3.5l4.1,4.1
			c0.6,0.6,1,1.4,1,2.3s-0.3,1.7-1,2.3C68.4,49.5,67.6,49.9,66.7,49.9z M61.1,51.5h5.6c1.4,0,2.5-0.5,3.5-1.4c1-1,1.4-2.1,1.4-3.5
			s-0.5-2.5-1.4-3.5L66.1,39c-0.6-0.6-1-1.4-1-2.3c0-0.9,0.3-1.7,1-2.3c0.6-0.6,1.4-1,2.3-1s1.7,0.3,2.3,1l2.2,2.2
			c0.2,0.2,0.2,0.4,0.2,0.6s-0.1,0.4-0.2,0.6C72.7,38,72.5,38,72.3,38c-0.2,0-0.4-0.1-0.6-0.2l-2-2.2c-0.3-0.3-0.7-0.5-1.2-0.5
			s-0.8,0.2-1.2,0.5c-0.3,0.3-0.5,0.7-0.5,1.2s0.2,0.8,0.5,1.2l4,4c1.3,1.3,1.9,2.8,1.9,4.7s-0.5,3.2-1.8,4.5
			c-1.3,1.3-2.8,1.9-4.6,1.9h-5.7c-0.2,0-0.4-0.1-0.6-0.2c-0.2-0.2-0.2-0.4-0.2-0.6s0.1-0.4,0.2-0.6C60.6,51.6,60.8,51.5,61.1,51.5z
			"/>
	</g>
</g>
</svg>
