<?xml version="1.0" encoding="utf-8"?>
<!-- Generator: Adobe Illustrator 26.0.1, SVG Export Plug-In . SVG Version: 6.00 Build 0)  -->
<svg version="1.1" id="Слой_1" xmlns="http://www.w3.org/2000/svg" xmlns:xlink="http://www.w3.org/1999/xlink" x="0px" y="0px"
	 viewBox="0 0 139.5 100" style="enable-background:new 0 0 139.5 100;" xml:space="preserve">
<style type="text/css">
	.st0{fill:#138BCC;}
	.st1{fill:none;stroke:#FFFFFF;stroke-width:3;stroke-linecap:round;stroke-miterlimit:10;}
	.st2{fill:#FFFFFF;}
</style>
<g>
	<g>
		<g>
			<path class="st0" d="M90,88.3C70.4,68,50.8,47.7,31.1,27.4c25.2-4.7,50.5-9.5,75.7-14.2C101.2,38.2,95.6,63.3,90,88.3z"/>
			<polygon class="st1" points="106.9,13.2 98.4,50.7 90,88.3 60.6,57.8 31.1,27.4 69,20.3 			"/>
			<polyline class="st1" points="90,88.3 60.6,57.8 31.1,27.4 			"/>
		</g>
	</g>
	<g>
		<g>
			<path class="st2" d="M11.6,33.4v21.3c0,0.2-0.1,0.4-0.2,0.6c-0.2,0.2-0.4,0.2-0.6,0.2c-0.2,0-0.4-0.1-0.6-0.2
				C10,55.2,9.9,55,9.9,54.8V33.4c0-0.2,0.1-0.4,0.2-0.6c0.2-0.2,0.4-0.2,0.6-0.2c0.2,0,0.4,0.1,0.6,0.2
				C11.5,33,11.6,33.2,11.6,33.4z M13.2,42.5v-9c0-0.2,0.1-0.4,0.2-0.6c0.2-0.2,0.4-0.2,0.6-0.2c0.2,0,0.4,0.1,0.6,0.2
				c0.2,0.2,0.2,0.4,0.2,0.6v8.2h8.2v-8.2c0-0.2,0.1-0.4,0.2-0.6c0.2-0.2,0.4-0.2,0.6-0.2c0.2,0,0.4,0.1,0.6,0.2
				c0.2,0.2,0.2,0.4,0.2,0.6v9c0,0.2-0.1,0.4-0.2,0.6c-0.2,0.2-0.4,0.2-0.6,0.2H14c-0.2,0-0.4-0.1-0.6-0.2
				C13.3,42.9,13.2,42.7,13.2,42.5z M13.2,45.7c0-0.2,0.1-0.4,0.2-0.6c0.2-0.2,0.4-0.2,0.6-0.2h9.9c0.2,0,0.4,0.1,0.6,0.2
				c0.2,0.2,0.2,0.4,0.2,0.6v9c0,0.2-0.1,0.4-0.2,0.6c-0.2,0.2-0.4,0.2-0.6,0.2c-0.2,0-0.4-0.1-0.6-0.2c-0.2-0.2-0.2-0.4-0.2-0.6
				v-8.2h-8.2v8.2c0,0.2-0.1,0.4-0.2,0.6s-0.4,0.2-0.6,0.2c-0.2,0-0.4-0.1-0.6-0.2c-0.2-0.2-0.2-0.4-0.2-0.6V45.7z M26.4,54.8V33.4
				c0-0.2,0.1-0.4,0.2-0.6c0.2-0.2,0.4-0.2,0.6-0.2c0.2,0,0.4,0.1,0.6,0.2c0.2,0.2,0.2,0.4,0.2,0.6v21.3c0,0.2-0.1,0.4-0.2,0.6
				s-0.4,0.2-0.6,0.2c-0.2,0-0.4-0.1-0.6-0.2C26.4,55.2,26.4,55,26.4,54.8z"/>
			<path class="st2" d="M32.9,35.4v18.5h7.4c0.2,0,0.4,0.1,0.6,0.2c0.2,0.2,0.2,0.4,0.2,0.6s-0.1,0.4-0.2,0.6
				c-0.2,0.2-0.4,0.2-0.6,0.2h-8.2c-0.2,0-0.4-0.1-0.6-0.2c-0.2-0.2-0.2-0.4-0.2-0.6V33.4c0-0.2,0.1-0.4,0.2-0.6
				c0.2-0.2,0.4-0.2,0.6-0.2c0.2,0,0.4,0.1,0.6,0.2L54,54.2c0.2,0.2,0.2,0.4,0.2,0.6s-0.1,0.4-0.2,0.6c-0.2,0.2-0.4,0.2-0.6,0.2
				c-0.2,0-0.4-0.1-0.6-0.2L32.9,35.4z M35.4,52.3c-0.2,0-0.4-0.1-0.6-0.2c-0.2-0.2-0.2-0.4-0.2-0.6v-9.8c0-0.2,0.1-0.4,0.2-0.6
				c0.2-0.2,0.4-0.2,0.6-0.2c0.2,0,0.4,0.1,0.6,0.2l13.1,13.1c0.2,0.2,0.2,0.4,0.2,0.6s-0.1,0.4-0.2,0.6s-0.4,0.2-0.6,0.2
				c-0.2,0-0.4-0.1-0.6-0.2L36.2,43.6v7h4.1c0.2,0,0.4,0.1,0.6,0.2c0.2,0.2,0.2,0.4,0.2,0.6s-0.1,0.4-0.2,0.6
				c-0.2,0.2-0.4,0.2-0.6,0.2H35.4z"/>
			<path class="st2" d="M51.9,44.1c0-3.2,1.1-5.9,3.4-8.1c2.2-2.2,5-3.4,8.1-3.4c3.2,0,5.9,1.1,8.1,3.3l1.5,1.5
				c0.2,0.2,0.2,0.4,0.2,0.6c0,0.2-0.1,0.4-0.2,0.6s-0.4,0.2-0.6,0.2s-0.4-0.1-0.6-0.2l-1.5-1.5c-1.9-1.9-4.2-2.9-7-2.9
				c-2.7,0-5,1-7,2.9s-2.9,4.2-2.9,7s1,5,2.9,7s4.2,2.9,7,2.9c2.7,0,5-1,7-2.9l1.5-1.5c0.2-0.2,0.4-0.2,0.6-0.2s0.4,0.1,0.6,0.2
				s0.2,0.4,0.2,0.6s-0.1,0.4-0.2,0.6l-1.5,1.5c-2.2,2.2-4.9,3.3-8.1,3.3c-3.2,0-5.9-1.1-8.1-3.4C53,50,51.9,47.3,51.9,44.1z
				 M55.2,44.1c0-2.3,0.8-4.2,2.4-5.8c1.6-1.6,3.5-2.4,5.8-2.4c2.3,0,4.2,0.8,5.8,2.4l1.7,1.6c0.2,0.2,0.2,0.4,0.2,0.6
				c0,0.2-0.1,0.4-0.2,0.6s-0.4,0.2-0.6,0.2s-0.4-0.1-0.6-0.2l-1.7-1.6c-1.3-1.3-2.8-1.9-4.6-1.9c-1.8,0-3.4,0.6-4.6,1.9
				c-1.3,1.3-1.9,2.8-1.9,4.6c0,1.8,0.6,3.4,1.9,4.6c1.3,1.3,2.8,1.9,4.6,1.9c1.8,0,3.4-0.6,4.6-1.9l1.7-1.6
				c0.2-0.2,0.4-0.2,0.6-0.2s0.4,0.1,0.6,0.2s0.2,0.4,0.2,0.6s-0.1,0.4-0.2,0.6l-1.7,1.6c-1.6,1.6-3.6,2.4-5.8,2.4
				c-2.3,0-4.2-0.8-5.8-2.4C56,48.3,55.2,46.4,55.2,44.1z"/>
			<path class="st2" d="M77.8,54.8c0,0.2-0.1,0.4-0.2,0.6c-0.2,0.2-0.4,0.2-0.6,0.2c-0.2,0-0.4-0.1-0.6-0.2
				c-0.2-0.2-0.2-0.4-0.2-0.6V33.4c0-0.2,0.1-0.4,0.2-0.6c0.2-0.2,0.4-0.2,0.6-0.2c0.2,0,0.4,0.1,0.6,0.2c0.2,0.2,0.2,0.4,0.2,0.6
				V54.8z M81.1,39.6l6.8-6.8c0.2-0.2,0.3-0.2,0.6-0.2c0.2,0,0.4,0.1,0.6,0.2c0.2,0.2,0.2,0.4,0.2,0.6s-0.1,0.4-0.2,0.6l-8.2,8.2
				c-0.2,0.2-0.4,0.2-0.6,0.2c-0.2,0-0.4-0.1-0.6-0.2c-0.2-0.2-0.2-0.3-0.2-0.6v-8.2c0-0.2,0.1-0.4,0.2-0.6c0.2-0.2,0.4-0.2,0.6-0.2
				c0.2,0,0.4,0.1,0.6,0.2c0.2,0.2,0.2,0.4,0.2,0.6V39.6z M81.1,48.5v6.2c0,0.2-0.1,0.4-0.2,0.6s-0.4,0.2-0.6,0.2
				c-0.2,0-0.4-0.1-0.6-0.2c-0.2-0.2-0.2-0.4-0.2-0.6v-8.2c0-0.2,0.1-0.4,0.2-0.6c0.2-0.2,0.3-0.2,0.6-0.2c0.2,0,0.4,0.1,0.6,0.2
				l8.2,8.2c0.2,0.2,0.2,0.3,0.2,0.6s-0.1,0.4-0.2,0.6c-0.2,0.2-0.4,0.2-0.6,0.2c-0.2,0-0.4-0.1-0.6-0.2L81.1,48.5z M92.8,32.8
				c0.2-0.2,0.3-0.2,0.6-0.2c0.2,0,0.4,0.1,0.6,0.2c0.2,0.2,0.2,0.4,0.2,0.6S94.1,33.9,94,34L83.9,44.1L94,54.2
				c0.2,0.2,0.2,0.3,0.2,0.6s-0.1,0.4-0.2,0.6s-0.4,0.2-0.6,0.2c-0.2,0-0.4-0.1-0.6-0.2L82.2,44.8c0,0-0.1-0.1-0.1-0.1
				c-0.2-0.2-0.2-0.3-0.2-0.6s0.1-0.4,0.2-0.6L92.8,32.8z"/>
			<path class="st2" d="M98.2,53.9h12.3c0.2,0,0.4,0.1,0.6,0.2c0.2,0.2,0.2,0.4,0.2,0.6s-0.1,0.4-0.2,0.6c-0.2,0.2-0.4,0.2-0.6,0.2
				H97.3c-0.2,0-0.4-0.1-0.6-0.2c-0.2-0.2-0.2-0.4-0.2-0.6V33.4c0-0.2,0.1-0.4,0.2-0.6c0.2-0.2,0.4-0.2,0.6-0.2h13.1
				c0.2,0,0.4,0.1,0.6,0.2c0.2,0.2,0.2,0.4,0.2,0.6s-0.1,0.4-0.2,0.6c-0.2,0.2-0.4,0.2-0.6,0.2H98.2V53.9z M100.6,35.9h9.9
				c0.2,0,0.4,0.1,0.6,0.2c0.2,0.2,0.2,0.4,0.2,0.6s-0.1,0.4-0.2,0.6c-0.2,0.2-0.4,0.2-0.6,0.2h-9v4.1h9c0.2,0,0.4,0.1,0.6,0.2
				c0.2,0.2,0.2,0.4,0.2,0.6s-0.1,0.4-0.2,0.6c-0.2,0.2-0.4,0.2-0.6,0.2h-9.9c-0.2,0-0.4-0.1-0.6-0.2c-0.2-0.2-0.2-0.4-0.2-0.6v-5.7
				c0-0.2,0.1-0.4,0.2-0.6C100.2,36,100.4,35.9,100.6,35.9z M100.6,44.9h9.9c0.2,0,0.4,0.1,0.6,0.2c0.2,0.2,0.2,0.4,0.2,0.6
				s-0.1,0.4-0.2,0.6c-0.2,0.2-0.4,0.2-0.6,0.2h-9v4.1h9c0.2,0,0.4,0.1,0.6,0.2c0.2,0.2,0.2,0.4,0.2,0.6s-0.1,0.4-0.2,0.6
				c-0.2,0.2-0.4,0.2-0.6,0.2h-9.9c-0.2,0-0.4-0.1-0.6-0.2c-0.2-0.2-0.2-0.4-0.2-0.6v-5.7c0-0.2,0.1-0.4,0.2-0.6
				C100.2,45,100.4,44.9,100.6,44.9z"/>
			<path class="st2" d="M125.6,49l5.2,5.2c0.2,0.2,0.2,0.3,0.2,0.6s-0.1,0.4-0.2,0.6c-0.2,0.2-0.4,0.2-0.6,0.2
				c-0.2,0-0.4-0.1-0.6-0.2l-6.6-6.6c-0.2-0.2-0.2-0.3-0.2-0.6s0.1-0.4,0.2-0.6c0.2-0.2,0.4-0.2,0.6-0.2h0.8c1.8,0,3.4-0.6,4.6-1.9
				c1.3-1.3,1.9-2.8,1.9-4.6c0-1.8-0.6-3.4-1.9-4.6c-1.3-1.3-2.8-1.9-4.6-1.9h-8.2v20.5c0,0.2-0.1,0.4-0.2,0.6
				c-0.2,0.2-0.4,0.2-0.6,0.2c-0.2,0-0.4-0.1-0.6-0.2c-0.2-0.2-0.2-0.4-0.2-0.6V33.4c0-0.2,0.1-0.4,0.2-0.6c0.2-0.2,0.4-0.2,0.6-0.2
				h9c2.3,0,4.2,0.8,5.8,2.4c1.6,1.6,2.4,3.5,2.4,5.8s-0.8,4.2-2.4,5.8C128.9,47.9,127.3,48.7,125.6,49z M117.9,36.7
				c0-0.2,0.1-0.4,0.2-0.6c0.2-0.2,0.4-0.2,0.6-0.2h5.7c1.4,0,2.5,0.5,3.5,1.4c1,1,1.4,2.1,1.4,3.5c0,1.4-0.5,2.5-1.4,3.5
				c-1,1-2.1,1.4-3.5,1.4h-5.7c-0.2,0-0.4-0.1-0.6-0.2c-0.2-0.2-0.2-0.4-0.2-0.6V36.7z M119.5,50.2v4.6c0,0.2-0.1,0.4-0.2,0.6
				s-0.4,0.2-0.6,0.2c-0.2,0-0.4-0.1-0.6-0.2c-0.2-0.2-0.2-0.4-0.2-0.6v-6.6c0-0.2,0.1-0.4,0.2-0.6c0.2-0.2,0.4-0.2,0.6-0.2
				c0.2,0,0.4,0.1,0.6,0.2l6.6,6.6c0.2,0.2,0.2,0.3,0.2,0.6s-0.1,0.4-0.2,0.6s-0.4,0.2-0.6,0.2c-0.2,0-0.4-0.1-0.6-0.2L119.5,50.2z
				 M119.5,37.5v6.6h4.9c0.9,0,1.7-0.3,2.3-1c0.6-0.6,1-1.4,1-2.3c0-0.9-0.3-1.7-1-2.3c-0.6-0.6-1.4-1-2.3-1H119.5z"/>
		</g>
	</g>
	<g>
		<path class="st2" d="M24,77h-5.7c-0.2,0-0.4-0.1-0.6-0.2c-0.2-0.2-0.2-0.4-0.2-0.6s0.1-0.4,0.2-0.6c0.2-0.2,0.4-0.2,0.6-0.2H24
			c0.4,0,0.8-0.2,1.2-0.5c0.3-0.3,0.5-0.7,0.5-1.2s-0.2-0.8-0.5-1.2l-4-4c-1.3-1.3-1.9-2.8-1.9-4.7c0-1.8,0.6-3.4,1.9-4.6
			c1.3-1.3,2.8-1.9,4.6-1.9c1.8,0,3.4,0.6,4.6,1.9l0.1,0.1c0.2,0.2,0.2,0.4,0.2,0.6c0,0.2-0.1,0.4-0.2,0.6c-0.2,0.2-0.4,0.2-0.6,0.2
			s-0.4-0.1-0.6-0.2l-0.1-0.1c-1-1-2.1-1.4-3.5-1.4s-2.5,0.5-3.5,1.4c-1,1-1.4,2.1-1.4,3.5c0,1.4,0.5,2.5,1.4,3.5l4.1,4.1
			c0.6,0.6,1,1.4,1,2.3c0,0.9-0.3,1.7-1,2.3C25.7,76.6,24.9,77,24,77z M18.4,78.6H24c1.4,0,2.5-0.5,3.5-1.4c1-1,1.4-2.1,1.4-3.5
			s-0.5-2.5-1.4-3.5l-4.1-4.1c-0.6-0.6-1-1.4-1-2.3c0-0.9,0.3-1.7,1-2.3c0.6-0.6,1.4-1,2.3-1s1.7,0.3,2.3,1l2.2,2.2
			c0.2,0.2,0.2,0.4,0.2,0.6s-0.1,0.4-0.2,0.6c-0.2,0.2-0.4,0.2-0.6,0.2s-0.4-0.1-0.6-0.2L27,62.7c-0.3-0.3-0.7-0.5-1.2-0.5
			s-0.8,0.2-1.2,0.5c-0.3,0.3-0.5,0.7-0.5,1.2c0,0.5,0.2,0.8,0.5,1.2l4,4c1.3,1.3,1.9,2.8,1.9,4.7S30,77,28.7,78.3
			c-1.3,1.3-2.8,1.9-4.6,1.9h-5.7c-0.2,0-0.4-0.1-0.6-0.2c-0.2-0.2-0.2-0.4-0.2-0.6s0.1-0.4,0.2-0.6C17.9,78.7,18.1,78.6,18.4,78.6z
			"/>
		<path class="st2" d="M38.9,73.7v5.7c0,0.2-0.1,0.4-0.2,0.6s-0.4,0.2-0.6,0.2c-0.2,0-0.4-0.1-0.6-0.2c-0.2-0.2-0.2-0.4-0.2-0.6
			v-6.6c0-0.2,0.1-0.4,0.2-0.6c0.2-0.2,0.4-0.2,0.6-0.2h5.7c1.8,0,3.4-0.6,4.6-1.9c1.3-1.3,1.9-2.8,1.9-4.6c0-1.8-0.6-3.4-1.9-4.6
			c-1.3-1.3-2.8-1.9-4.6-1.9h-8.2v20.5c0,0.2-0.1,0.4-0.2,0.6c-0.2,0.2-0.4,0.2-0.6,0.2c-0.2,0-0.4-0.1-0.6-0.2
			C34,79.8,34,79.6,34,79.4V58.1c0-0.2,0.1-0.4,0.2-0.6c0.2-0.2,0.4-0.2,0.6-0.2h9c2.3,0,4.2,0.8,5.8,2.4c1.6,1.6,2.4,3.5,2.4,5.8
			c0,2.3-0.8,4.2-2.4,5.8c-1.6,1.6-3.5,2.4-5.8,2.4H38.9z M37.2,61.4c0-0.2,0.1-0.4,0.2-0.6c0.2-0.2,0.4-0.2,0.6-0.2h5.7
			c1.4,0,2.5,0.5,3.5,1.4c1,1,1.4,2.1,1.4,3.5c0,1.4-0.5,2.5-1.4,3.5c-1,1-2.1,1.4-3.5,1.4h-5.7c-0.2,0-0.4-0.1-0.6-0.2
			c-0.2-0.2-0.2-0.4-0.2-0.6V61.4z M38.9,62.2v6.6h4.9c0.9,0,1.7-0.3,2.3-1c0.6-0.6,1-1.4,1-2.3c0-0.9-0.3-1.7-1-2.3
			c-0.6-0.6-1.4-1-2.3-1H38.9z"/>
		<path class="st2" d="M56.5,60.1v18.5h7.4c0.2,0,0.4,0.1,0.6,0.2c0.2,0.2,0.2,0.4,0.2,0.6s-0.1,0.4-0.2,0.6
			c-0.2,0.2-0.4,0.2-0.6,0.2h-8.2c-0.2,0-0.4-0.1-0.6-0.2c-0.2-0.2-0.2-0.4-0.2-0.6V58.1c0-0.2,0.1-0.4,0.2-0.6
			c0.2-0.2,0.4-0.2,0.6-0.2c0.2,0,0.4,0.1,0.6,0.2l21.3,21.3c0.2,0.2,0.2,0.4,0.2,0.6s-0.1,0.4-0.2,0.6c-0.2,0.2-0.4,0.2-0.6,0.2
			c-0.2,0-0.4-0.1-0.6-0.2L56.5,60.1z M59,77c-0.2,0-0.4-0.1-0.6-0.2c-0.2-0.2-0.2-0.4-0.2-0.6v-9.8c0-0.2,0.1-0.4,0.2-0.6
			c0.2-0.2,0.4-0.2,0.6-0.2c0.2,0,0.4,0.1,0.6,0.2l13.1,13.1c0.2,0.2,0.2,0.4,0.2,0.6s-0.1,0.4-0.2,0.6s-0.4,0.2-0.6,0.2
			c-0.2,0-0.4-0.1-0.6-0.2L59.8,68.3v7h4.1c0.2,0,0.4,0.1,0.6,0.2c0.2,0.2,0.2,0.4,0.2,0.6s-0.1,0.4-0.2,0.6
			c-0.2,0.2-0.4,0.2-0.6,0.2H59z"/>
		<path class="st2" d="M75.5,68.8c0-3.2,1.1-5.9,3.4-8.1c2.2-2.2,5-3.4,8.1-3.4c3.2,0,5.9,1.1,8.1,3.3l1.5,1.5
			c0.2,0.2,0.2,0.4,0.2,0.6c0,0.2-0.1,0.4-0.2,0.6s-0.4,0.2-0.6,0.2s-0.4-0.1-0.6-0.2L94,61.8c-1.9-1.9-4.2-2.9-7-2.9s-5,1-7,2.9
			s-2.9,4.2-2.9,7s1,5,2.9,7s4.2,2.9,7,2.9s5-1,7-2.9l1.5-1.5c0.2-0.2,0.4-0.2,0.6-0.2s0.4,0.1,0.6,0.2s0.2,0.4,0.2,0.6
			s-0.1,0.4-0.2,0.6l-1.5,1.5c-2.2,2.2-4.9,3.3-8.1,3.3c-3.2,0-5.9-1.1-8.1-3.4C76.6,74.6,75.5,71.9,75.5,68.8z M78.8,68.8
			c0-2.3,0.8-4.2,2.4-5.8c1.6-1.6,3.5-2.4,5.8-2.4c2.3,0,4.2,0.8,5.8,2.4l1.7,1.6c0.2,0.2,0.2,0.4,0.2,0.6c0,0.2-0.1,0.4-0.2,0.6
			S94.1,66,93.9,66s-0.4-0.1-0.6-0.2l-1.7-1.6c-1.3-1.3-2.8-1.9-4.6-1.9s-3.4,0.6-4.6,1.9c-1.3,1.3-1.9,2.8-1.9,4.6
			c0,1.8,0.6,3.4,1.9,4.6c1.3,1.3,2.8,1.9,4.6,1.9s3.4-0.6,4.6-1.9l1.7-1.6c0.2-0.2,0.4-0.2,0.6-0.2s0.4,0.1,0.6,0.2
			s0.2,0.4,0.2,0.6s-0.1,0.4-0.2,0.6l-1.7,1.6C91.2,76.2,89.3,77,87,77c-2.3,0-4.2-0.8-5.8-2.4C79.6,72.9,78.8,71,78.8,68.8z"/>
		<path class="st2" d="M101.4,78.6h12.3c0.2,0,0.4,0.1,0.6,0.2c0.2,0.2,0.2,0.4,0.2,0.6s-0.1,0.4-0.2,0.6c-0.2,0.2-0.4,0.2-0.6,0.2
			h-13.1c-0.2,0-0.4-0.1-0.6-0.2c-0.2-0.2-0.2-0.4-0.2-0.6V58.1c0-0.2,0.1-0.4,0.2-0.6c0.2-0.2,0.4-0.2,0.6-0.2h13.1
			c0.2,0,0.4,0.1,0.6,0.2c0.2,0.2,0.2,0.4,0.2,0.6s-0.1,0.4-0.2,0.6c-0.2,0.2-0.4,0.2-0.6,0.2h-12.3V78.6z M103.9,60.5h9.9
			c0.2,0,0.4,0.1,0.6,0.2c0.2,0.2,0.2,0.4,0.2,0.6s-0.1,0.4-0.2,0.6c-0.2,0.2-0.4,0.2-0.6,0.2h-9v4.1h9c0.2,0,0.4,0.1,0.6,0.2
			c0.2,0.2,0.2,0.4,0.2,0.6s-0.1,0.4-0.2,0.6c-0.2,0.2-0.4,0.2-0.6,0.2h-9.9c-0.2,0-0.4-0.1-0.6-0.2c-0.2-0.2-0.2-0.4-0.2-0.6v-5.7
			c0-0.2,0.1-0.4,0.2-0.6C103.4,60.6,103.6,60.5,103.9,60.5z M103.9,69.6h9.9c0.2,0,0.4,0.1,0.6,0.2c0.2,0.2,0.2,0.4,0.2,0.6
			s-0.1,0.4-0.2,0.6c-0.2,0.2-0.4,0.2-0.6,0.2h-9v4.1h9c0.2,0,0.4,0.1,0.6,0.2c0.2,0.2,0.2,0.4,0.2,0.6s-0.1,0.4-0.2,0.6
			c-0.2,0.2-0.4,0.2-0.6,0.2h-9.9c-0.2,0-0.4-0.1-0.6-0.2c-0.2-0.2-0.2-0.4-0.2-0.6v-5.7c0-0.2,0.1-0.4,0.2-0.6
			C103.4,69.7,103.6,69.6,103.9,69.6z"/>
		<path class="st2" d="M123,77h-5.7c-0.2,0-0.4-0.1-0.6-0.2c-0.2-0.2-0.2-0.4-0.2-0.6s0.1-0.4,0.2-0.6c0.2-0.2,0.4-0.2,0.6-0.2h5.7
			c0.4,0,0.8-0.2,1.2-0.5c0.3-0.3,0.5-0.7,0.5-1.2s-0.2-0.8-0.5-1.2l-4-4c-1.3-1.3-1.9-2.8-1.9-4.7c0-1.8,0.6-3.4,1.9-4.6
			c1.3-1.3,2.8-1.9,4.6-1.9c1.8,0,3.4,0.6,4.6,1.9l0.1,0.1c0.2,0.2,0.2,0.4,0.2,0.6c0,0.2-0.1,0.4-0.2,0.6c-0.2,0.2-0.4,0.2-0.6,0.2
			s-0.4-0.1-0.6-0.2l-0.1-0.1c-1-1-2.1-1.4-3.5-1.4s-2.5,0.5-3.5,1.4c-1,1-1.4,2.1-1.4,3.5c0,1.4,0.5,2.5,1.4,3.5l4.1,4.1
			c0.6,0.6,1,1.4,1,2.3c0,0.9-0.3,1.7-1,2.3C124.7,76.6,123.9,77,123,77z M117.3,78.6h5.7c1.4,0,2.5-0.5,3.5-1.4
			c1-1,1.4-2.1,1.4-3.5s-0.5-2.5-1.4-3.5l-4.1-4.1c-0.6-0.6-1-1.4-1-2.3c0-0.9,0.3-1.7,1-2.3c0.6-0.6,1.4-1,2.3-1s1.7,0.3,2.3,1
			l2.2,2.2c0.2,0.2,0.2,0.4,0.2,0.6s-0.1,0.4-0.2,0.6c-0.2,0.2-0.4,0.2-0.6,0.2s-0.4-0.1-0.6-0.2l-2.2-2.2c-0.3-0.3-0.7-0.5-1.2-0.5
			s-0.8,0.2-1.2,0.5c-0.3,0.3-0.5,0.7-0.5,1.2c0,0.5,0.2,0.8,0.5,1.2l4,4c1.3,1.3,1.9,2.8,1.9,4.7s-0.6,3.4-1.9,4.6
			c-1.3,1.3-2.8,1.9-4.6,1.9h-5.7c-0.2,0-0.4-0.1-0.6-0.2c-0.2-0.2-0.2-0.4-0.2-0.6s0.1-0.4,0.2-0.6
			C116.9,78.7,117.1,78.6,117.3,78.6z"/>
	</g>
</g>
</svg>
