<svg id="Слой_1" data-name="Слой 1" xmlns="http://www.w3.org/2000/svg" viewBox="0 0 50 50"><defs><style>.cls-1{fill:#fff;}.cls-2{fill:#db2878;}</style></defs><path class="cls-1" d="M11.15,7.44H24.54v4.81a.09.09,0,0,1,0,.08l-.06,0h0a3.74,3.74,0,0,0-1.15-.18h0a3.82,3.82,0,0,0-3.8,4.26,3.83,3.83,0,0,0,3.32,3.36,3,3,0,0,0,.42,0,3.81,3.81,0,0,0,1.21-.17h0a.08.08,0,0,1,.06,0,.08.08,0,0,1,0,.08v4.79h-4.8a1,1,0,0,0-.8.41,1,1,0,0,0-.15.91,3.2,3.2,0,0,1,.13.92c0,.1,0,.21,0,.31a2.94,2.94,0,0,1-2.58,2.54,2.92,2.92,0,0,1-3.25-2.9,2.82,2.82,0,0,1,.13-.87,1.1,1.1,0,0,0,.05-.35,1.06,1.06,0,0,0-.2-.56,1,1,0,0,0-.8-.41H7.44V11.15A3.71,3.71,0,0,1,11.15,7.44Zm26.52,17a.1.1,0,0,0,.08,0h4.8V11.15a3.71,3.71,0,0,0-3.71-3.71H25.45v4.81a1,1,0,0,1-.41.81.94.94,0,0,1-.55.19,1,1,0,0,1-.35,0,2.88,2.88,0,0,0-.87-.14,2.94,2.94,0,0,0-2.18,1,2.9,2.9,0,0,0-.73,2.28A2.94,2.94,0,0,0,22.9,18.9l.31,0a2.81,2.81,0,0,0,.92-.13,1.11,1.11,0,0,1,.36,0,.94.94,0,0,1,.55.19,1,1,0,0,1,.41.81v4.78h4.81a.09.09,0,0,0,.08,0h0a.08.08,0,0,0,0-.07,3.86,3.86,0,0,1-.14-1.62,3.51,3.51,0,0,1,.38-1.24,3.81,3.81,0,0,1,6-1.15,3.81,3.81,0,0,1,1.27,2.85,4,4,0,0,1-.17,1.14A.13.13,0,0,0,37.67,24.49Zm4.89,14.35V25.46H37.74a1,1,0,0,1-.8-.41,1,1,0,0,1-.15-.9,2.82,2.82,0,0,0,.13-.87A2.93,2.93,0,0,0,31.38,22a3,3,0,0,0-.28.92,3.08,3.08,0,0,0,.11,1.25,1,1,0,0,1-.08.8l-.08.12a1,1,0,0,1-.8.41h-4.8v4.78a.08.08,0,0,0,0,.08.1.1,0,0,0,.1,0,3.83,3.83,0,0,1,4.94,3.22,2.88,2.88,0,0,1,0,.41,3.81,3.81,0,0,1-3.82,3.86,3.74,3.74,0,0,1-1.15-.18.11.11,0,0,0-.13.1v4.8h13.4A3.72,3.72,0,0,0,42.56,38.84Zm-35.12,0a3.71,3.71,0,0,0,3.71,3.71h13.4V37.75h0a1,1,0,0,1,1.3-1,2.89,2.89,0,0,0,.88.14,2.94,2.94,0,0,0,2.18-1,2.84,2.84,0,0,0,.74-2c0-.1,0-.21,0-.31A2.94,2.94,0,0,0,27.1,31.1a2.87,2.87,0,0,0-1.24.11,1,1,0,0,1-.9-.15,1,1,0,0,1-.41-.81h0V25.46H19.74a.09.09,0,0,0-.08,0,.08.08,0,0,0,0,.05,0,0,0,0,0,0,0,3.85,3.85,0,0,1,.17,1.21,3,3,0,0,1,0,.42,3.84,3.84,0,0,1-3.37,3.33l-.42,0a3.83,3.83,0,0,1-3.83-3.83h0a4.11,4.11,0,0,1,.17-1.15s0,0,0,0a.08.08,0,0,0,0-.05.1.1,0,0,0-.08,0H7.44Z"/><path class="cls-1" d="M24.55,42.56V37.75h0a1,1,0,0,1,1.3-1,2.89,2.89,0,0,0,.88.14,2.94,2.94,0,0,0,2.18-1,2.84,2.84,0,0,0,.74-2c0-.1,0-.21,0-.31A2.94,2.94,0,0,0,27.1,31.1a2.87,2.87,0,0,0-1.24.11,1,1,0,0,1-.9-.15,1,1,0,0,1-.37-.54A55.14,55.14,0,0,1,7.44,36.78v2.07a3.71,3.71,0,0,0,3.71,3.71Z"/><path class="cls-1" d="M36.94,25.05a1,1,0,0,1-.15-.9,2.82,2.82,0,0,0,.13-.87,2.92,2.92,0,0,0-1-2.18l-.24-.2A38.4,38.4,0,0,1,25.45,30v.24a.08.08,0,0,0,0,.08.1.1,0,0,0,.1,0,3.83,3.83,0,0,1,4.94,3.22,2.88,2.88,0,0,1,0,.41,3.81,3.81,0,0,1-3.82,3.86,3.74,3.74,0,0,1-1.15-.18.11.11,0,0,0-.13.1v4.8h13.4a3.72,3.72,0,0,0,3.71-3.71V25.46H37.74A1,1,0,0,1,36.94,25.05Z"/><path class="cls-1" d="M36.56,20.41a3.81,3.81,0,0,1,1.27,2.85,4,4,0,0,1-.17,1.14.13.13,0,0,0,0,.09.1.1,0,0,0,.08,0h4.8V11.15a3.67,3.67,0,0,0-.75-2.23,34.42,34.42,0,0,1-5.53,11.25A2.17,2.17,0,0,1,36.56,20.41Z"/><path class="cls-2" d="M17.59,28l1.95-.85L17.62,32l-4.85-1.92,2-.88a11.21,11.21,0,0,1-.71-4.08,10.83,10.83,0,0,1,.86-4,5.54,5.54,0,0,1-3.06-3.68,5.33,5.33,0,0,1,.39-3.72,5.51,5.51,0,0,1,6.91-2.75l1-1.95,1.68,4.95L16.87,15.6l.92-1.89a2.21,2.21,0,0,0-1.37,0,2.44,2.44,0,0,0-.19,4.56.39.39,0,0,0,.52-.12,10.62,10.62,0,0,1,8.57-3.76,10.9,10.9,0,0,1-.39,21.8H11.2v-3h.4c4.4,0,8.81,0,13.21,0A7.61,7.61,0,0,0,32,28.87a7.86,7.86,0,1,0-14.8-4.52A7.51,7.51,0,0,0,17.59,28Z"/><path class="cls-2" d="M40.4,33.2v3H30.15l.29-.16A12.57,12.57,0,0,0,33.9,33.4a.61.61,0,0,1,.4-.21c2,0,3.93,0,5.89,0Z"/><path class="cls-2" d="M44.79,33.2v3H34.53l.29-.16a12.57,12.57,0,0,0,3.46-2.64.63.63,0,0,1,.4-.21c2,0,3.93,0,5.89,0Z"/></svg>