<?xml version="1.0" encoding="utf-8"?>
<!-- Generator: Adobe Illustrator 26.0.3, SVG Export Plug-In . SVG Version: 6.00 Build 0)  -->
<svg version="1.1" id="Слой_1" xmlns="http://www.w3.org/2000/svg" xmlns:xlink="http://www.w3.org/1999/xlink" x="0px" y="0px"
	 viewBox="0 0 420 420" style="enable-background:new 0 0 420 420;" xml:space="preserve">
<style type="text/css">
	.st0{fill:#1D1D1B;}
	.st1{fill:#FFFFFF;}
	.st2{fill:#FBBF24;}
	.st3{fill:#2DD4BF;}
</style>
<rect x="-6" y="-8.7" class="st0" width="432" height="437.5"/>
<g>
	<g>
		<g>
			<path class="st1" d="M65.2,226.1l8.2-43.4l14.6-0.4l-0.1,0.6l1.8,2.1l-2.4,13.1l13.3-16.1l16.4-0.4l-0.6,0.7l1.9,2l-17.6,21.8
				l9.7,21.1l-15.7,0.4l-1.9-2.2h-0.5L85,209.8l-3.4,18.1l-14.1,0.4l-1.9-2.2L65.2,226.1z M74.3,183.7l-7.7,41.1l12.4-0.3l7.7-41.1
				L74.3,183.7z M76.1,185.9l9.4-0.2l-7.3,38.1l-9.4,0.2L76.1,185.9z M85,206.7l8.2,17.6l13.5-0.3l-9.3-20.2l17-20.9l-13.5,0.3
				L86,201.3L85,206.7z M87.8,203.1l14.6-17.8l9.1-0.2l-15.2,18.7l8.8,19.4L94,223.5L86.9,208L87.8,203.1z"/>
			<path class="st1" d="M109.9,225.1l21.8-43.7l19.8-0.5l0.1,0.7l1.8,2l5.4,42.6l-15,0.4l-1.9-2.2h-0.5l-1.4-12.5l-5.4,0.1
				l-7.2,14.9l-14.9,0.4l-1.9-2.2H109.9z M132.1,208.7l8.8-0.2l1.7,14.7l13.1-0.3l-5.2-40.9l-18.1,0.5l-6,12.1l13.6-0.3l0.1,2.7
				l-15.1,0.4l-13,26.7l13-0.3L132.1,208.7z M134.1,184.6l15.8-0.4l4.7,37.8l-10.4,0.3l-1.4-12.9l-1.1-1.2v-0.5l-10.1,0.3l-7.3,14.9
				L115,223l11.6-23.6L142,199v-3.9l-1.1-1.2l0.1-0.6l-11.4,0.3L134.1,184.6z"/>
			<path class="st1" d="M160.7,223.8l5.1-27h-0.2l-1.9-2.2h-0.7l6-14.2l33.7-0.7c1.4,0,2.5,0.4,3.6,1.1c1,0.7,1.8,1.8,2.3,3l0.7,0.8
				c0.8,0.9,1.4,2.1,1.8,3.4c0.4,1.3,0.4,2.6,0.1,4l-6.2,33l-14.1,0.4l-1.9-2.2h-0.6l5.1-27l-12.1,0.3l0.8,1l-5.3,28.2l-14.1,0.4
				l-1.9-2.2H160.7z M167,196.2l-4.9,26.4l12.4-0.3l4.9-26.4L167,196.2z M168.9,198.3l9.4-0.2l-4.5,23.5l-9.4,0.2L168.9,198.3z
				 M195.5,192.9L190,222l12.4-0.3l6-32.1c0.2-1.1,0.2-2.2,0-3.3s-0.6-2-1.1-2.8c-0.6-0.8-1.2-1.5-2-2c-0.8-0.5-1.7-0.7-2.7-0.7
				l-32.8,0.7l-5.1,12L195.5,192.9z M197.5,193.7l-1.1-1.3l0.1-0.5l-28.8,0.7l3.9-8.9l32.3-0.7c0.8,0,1.7,0.2,2.5,0.7
				c1.3,1.7,1.8,3.6,1.3,6l-5.9,31.3l-9.4,0.2L197.5,193.7z"/>
			<path class="st1" d="M208.8,222.7l5.1-27h-0.2l-1.8-2.2h-0.7l6-14.2l33.7-0.7c1.4,0,2.5,0.4,3.6,1.1c1,0.7,1.8,1.8,2.3,3l0.7,0.8
				c0.8,0.9,1.4,2.1,1.8,3.4s0.4,2.6,0.1,4l-1.4,7.8c-0.1,0.7-0.5,1.3-1.1,2c-0.6,0.7-1.1,1.3-1.7,1.9c0.4,0.6,0.7,1.2,0.9,2
				c0.3,0.7,0.4,1.3,0.3,1.8l-1.5,7.8c-0.2,1.2-0.7,2.4-1.3,3.6c-0.7,1.2-1.5,2.2-2.4,3.2s-2,1.7-3.1,2.3c-1.1,0.7-2.2,0.9-3.4,0.9
				l-33.6,0.7l-1.9-2.2L208.8,222.7z M242.9,194.4l-27.9,0.7l-4.9,26.4l32.9-0.7c1,0,2-0.3,3-0.8c1-0.6,2-1.2,2.8-2.1
				c0.8-0.8,1.6-1.9,2.1-3c0.7-1.1,1-2.1,1.2-3.3l1.4-7.8c0.1-0.4,0-0.9-0.4-1.6c-0.3-0.7-0.7-1.3-0.8-1.8l-0.2-0.4
				c0.3-0.3,0.5-0.5,0.6-0.7c0.5-0.6,1-1.1,1.5-1.7c0.5-0.6,0.7-1.1,0.8-1.5l1.4-7.8c0.2-1.1,0.2-2.2,0-3.3c-0.2-1-0.6-2-1.1-2.8
				c-0.6-0.8-1.2-1.5-2-2c-0.8-0.5-1.7-0.7-2.7-0.7l-32.6,0.8l-5,12l30.6-0.7L242.9,194.4z M244.5,190.9l-28.9,0.7l3.9-8.9l32.3-0.7
				c0.8,0,1.7,0.2,2.5,0.7c1.3,1.7,1.8,3.6,1.3,6l-1.4,7.8c-0.1,0.3-0.3,0.6-0.6,0.9c-0.3,0.4-0.7,0.7-1,1.1l-0.2,0.3l-0.3,0.3
				c0,0.1-0.1,0.1-0.2,0.2c-0.2,0.4-0.5,0.7-0.9,1l0.8,1.3c0.3,0.4,0.5,0.8,0.7,1.3s0.3,0.8,0.2,1l-1.4,7.8c-0.2,1-0.6,2-1.1,3
				c-0.6,1-1.1,1.9-2,2.6c-0.7,0.7-1.6,1.4-2.5,1.9c-0.9,0.5-1.8,0.7-2.7,0.7l-30.6,0.7l4.5-23.5l27.9-0.7l0.7-4l-1.1-1.3
				L244.5,190.9z M225.3,211.5l16.8-0.4l0.8-4.1l-1.1-1.3l0.1-0.5l-17.2,0.4l-0.8,4.6h0.5L225.3,211.5z M224.8,209.3l0.5-2.8
				l15.5-0.4l-0.5,2.8L224.8,209.3z"/>
			<path class="st1" d="M253.2,221.7L275,178l19.8-0.5l0.1,0.7l1.8,2l5.4,42.6l-15,0.4l-1.9-2.2h-0.5l-1.4-12.5l-5.4,0.1l-7.2,14.9
				l-14.9,0.4l-1.9-2.2H253.2z M275.3,205.3l8.8-0.2l1.7,14.7l13-0.4l-5.2-40.9l-18.1,0.5l-6,12.1l13.6-0.3l0.1,2.7l-15.1,0.3
				l-13,26.7l13-0.3L275.3,205.3z M277.3,181.2l15.8-0.4l4.7,37.8l-10.4,0.3L286,206l-1.1-1.2v-0.5l-10.1,0.3l-7.3,14.9l-9.4,0.2
				l11.6-23.6l15.4-0.4v-3.9l-1.1-1.2l0.1-0.6l-11.4,0.3L277.3,181.2z"/>
			<path class="st1" d="M303.9,220.5l5.1-27h-0.1l-1.9-2.2h-0.7l6-14.2l33.7-0.7c1.4,0,2.5,0.4,3.6,1.1c1,0.7,1.8,1.8,2.3,3l0.7,0.8
				c0.8,0.9,1.4,2.1,1.8,3.4s0.4,2.6,0.1,4l-6.2,33l-14.1,0.4l-1.9-2.2h-0.6l5.1-27l-12.1,0.3l0.8,1l-5.3,28.2l-14.1,0.3l-1.9-2.2
				L303.9,220.5z M310.2,192.9l-4.9,26.4l12.4-0.3l4.9-26.4L310.2,192.9z M312.1,195l9.4-0.2l-4.5,23.5l-9.4,0.2L312.1,195z
				 M338.6,189.5l-5.5,29.1l12.4-0.3l6-32.1c0.2-1.1,0.2-2.2,0-3.3c-0.2-1-0.6-2-1.1-2.8c-0.6-0.8-1.2-1.5-2-2
				c-0.8-0.5-1.7-0.7-2.7-0.7l-32.8,0.7l-5.1,12L338.6,189.5z M340.7,190.4l-1.1-1.3l0.1-0.5l-28.9,0.7l3.9-8.9l32.3-0.7
				c0.8,0,1.7,0.2,2.5,0.7c1.3,1.7,1.8,3.6,1.3,6l-5.9,31.3l-9.4,0.2L340.7,190.4z"/>
			<g>
				<path class="st1" d="M106.6,276.1l-0.6-0.7c-0.2-2.1-0.4-4.1-0.6-5.9c-0.2-1.9-0.7-3.6-1.2-5.6c-0.4-0.2-1-0.3-2-0.3l-5.1,0.1
					l-2.8,14.8l-14.1,0.3l-1.9-2.2h-0.6l5.1-27h-0.2l-1.8-2.2h-0.7l6-14.2l33.7-0.7c1.4,0,2.5,0.4,3.6,1.1c1,0.7,1.9,1.8,2.3,3
					l0.7,0.8c0.8,0.9,1.4,2.1,1.8,3.4c0.4,1.3,0.4,2.6,0.1,4l-1.6,8.4c-0.1,0.6-0.4,1.2-0.7,2c-0.3,0.7-0.7,1.6-1.2,2.3
					c-0.5,0.7-1,1.5-1.6,2.1c-0.6,0.7-1.2,1.2-1.9,1.5c0.7,2.2,1.1,4.7,1.2,7.5c0.2,2.8,0.2,5.9,0,9.1l-14.2,0.4l-2-2.2L106.6,276.1
					z M106.5,268.8c0.2,2,0.4,4,0.6,6l13.1-0.3c0.2-3.1,0.2-6,0-8.7c-0.2-2.7-0.7-5.2-1.6-7.6c0.7-0.1,1.3-0.5,1.9-1
					c0.6-0.6,1.1-1.2,1.7-2c0.5-0.7,0.9-1.6,1.2-2.3c0.4-0.8,0.6-1.5,0.7-2l1.6-8.4c0.2-1.1,0.2-2.2,0-3.3s-0.6-2-1.1-2.8
					c-0.6-0.8-1.2-1.5-2-2c-0.8-0.5-1.7-0.7-2.7-0.7l-32.8,0.7l-5.1,12l30.6-0.7l-0.5,2.7L84,249l-4.9,26.4l12.6-0.1l2.8-14.8l6-0.1
					c2.9-0.1,4.5,0.8,4.9,2.6C105.9,265,106.3,266.9,106.5,268.8z M86,251.2l27.9-0.7l0.7-4l-1.1-1.3l0.1-0.5l-28.8,0.7l3.9-8.9
					l32.3-0.7c0.8,0,1.7,0.2,2.5,0.7c1.3,1.7,1.8,3.6,1.3,6l-1.6,8.4c-0.1,0.5-0.3,1.1-0.7,1.8c-0.4,0.7-0.7,1.5-1.3,2.1
					c-0.6,0.7-1.1,1.3-1.9,1.9c-0.7,0.6-1.4,0.8-2,0.9c0.9,2.5,1.5,5.1,1.8,7.8c0.3,2.7,0.3,5.5,0.2,8.3l-10.5,0.3
					c-0.1-1.7-0.3-3.3-0.5-4.9c-0.2-1.6-0.6-3.3-1-4.9c-0.2-0.6-0.4-1-0.7-1.4l-0.4-0.4c-0.7-2-2.5-3-5.5-2.9l-6.8,0.2l-2.8,14.8
					l-9.4,0.2L86,251.2z"/>
				<path class="st1" d="M148.5,231.9l-0.1,0.6l1.8,2.1l-2.6,13.7h-1l0.8,1l-5.3,28.2l-13.9,0.3l-1.9-2.2h-0.6l5.5-28.8h1l-0.5-0.5
					h-0.6l2.7-14.1L148.5,231.9z M132.2,248l-4.9,26.4l12.3-0.3l4.9-26.4L132.2,248z M134,250.1l9.2-0.2l-4.5,23.5l-9.2,0.2
					L134,250.1z M134.9,233.3l-2.2,12l12.3-0.3l2.2-12L134.9,233.3z M136.7,235.5l9.2-0.2l-1.7,8.9l-9.2,0.2L136.7,235.5z"/>
				<path class="st1" d="M148.3,246l6-14.2l33.7-0.7c1.4,0,2.5,0.4,3.6,1.1c1,0.7,1.8,1.8,2.3,3l0.7,0.8c0.8,0.9,1.4,2.1,1.8,3.4
					s0.4,2.6,0.1,4l-4.4,23.2c-0.2,1.2-0.7,2.4-1.3,3.6c-0.7,1.2-1.5,2.2-2.4,3.2c-0.9,0.9-2,1.7-3.1,2.3c-1.1,0.7-2.2,0.9-3.4,0.9
					l-33.6,0.7l-1.9-2.2H146l5.1-27H151l-1.8-2.2L148.3,246z M155,232.9l-5.1,12l30.6-0.7l-3.2,17.2l-15.5,0.4l2.7-14.5l-12.4,0.3
					l-4.9,26.4l32.9-0.7c1,0,2-0.3,3-0.8c1-0.6,2-1.2,2.8-2.1c0.8-0.8,1.6-1.9,2.1-3c0.7-1.1,1-2.1,1.2-3.3l4.3-23.2
					c0.2-1.1,0.2-2.2,0-3.3c-0.2-1-0.6-2-1.1-2.8c-0.6-0.8-1.2-1.5-2-2c-0.8-0.5-1.7-0.7-2.7-0.7L155,232.9z M154,249.6l9.4-0.2
					l-2.5,13.1h0.5l1.1,1.3l16.8-0.4l3.5-18.5l-1.1-1.3l0.1-0.5l-28.9,0.7l3.9-8.9l32.3-0.7c0.8,0,1.7,0.2,2.5,0.7
					c1.3,1.7,1.8,3.6,1.3,6l-4.3,23.2c-0.2,1-0.6,2-1.1,3c-0.6,1-1.1,1.9-2,2.7c-0.7,0.7-1.6,1.4-2.5,1.9c-0.9,0.5-1.8,0.7-2.7,0.7
					l-30.6,0.7L154,249.6z M167.6,248.9l-2.2,11.7l11.1-0.3l2.4-12.7l-12.1,0.3L167.6,248.9z"/>
				<path class="st1" d="M198.8,247l-1.8-2.2h-0.7l6-14.1l41.9-0.9l-0.1,0.6l1.8,2.1l-2.6,13.7h-1l0.8,1l-2.5,13.4h-1.1l0.9,1.1
					l-2.6,13.7l-41.6,0.9l-1.9-2.2h-0.6l5.1-27H198.8z M237.9,257.2l2.2-11.7l-39.8,0.9l-4.9,26.4l39.8-0.9l2.2-12l-27.5,0.7
					l0.5-2.8L237.9,257.2z M209.8,257l-0.8,4.6h0.5l1.1,1.3l25.7-0.6l-1.7,8.9l-36.9,0.8l4.5-23.5l36.9-0.8l-1.7,8.7L209.8,257z
					 M240.6,242.7l2.2-12l-39.8,0.9l-5.1,12L240.6,242.7z M204.7,233.9l36.9-0.8L240,242l-39.1,0.9L204.7,233.9z"/>
				<path class="st1" d="M270.2,272.2l-0.6-0.7c-0.2-2.1-0.4-4.1-0.6-5.9c-0.2-1.9-0.7-3.6-1.2-5.6c-0.4-0.2-1-0.3-2-0.3l-5.1,0.1
					l-2.8,14.8l-14.1,0.3l-1.9-2.2h-0.6l5.1-27h-0.2l-1.8-2.2H244l6-14.2l33.7-0.7c1.4,0,2.5,0.4,3.6,1.1c1,0.7,1.8,1.8,2.3,3
					l0.7,0.8c0.8,0.9,1.4,2.1,1.8,3.4c0.4,1.3,0.4,2.6,0.1,4l-1.6,8.4c-0.1,0.6-0.4,1.2-0.7,2c-0.3,0.7-0.7,1.6-1.2,2.3
					s-1,1.5-1.6,2.1c-0.6,0.7-1.2,1.2-1.9,1.5c0.7,2.2,1.1,4.7,1.2,7.5c0.2,2.8,0.2,5.9,0,9.1l-14.2,0.4l-2-2.2L270.2,272.2z
					 M270.1,265.1c0.2,2,0.4,4,0.6,6l13.1-0.3c0.2-3.1,0.2-6,0-8.7c-0.2-2.7-0.7-5.2-1.6-7.6c0.7-0.1,1.3-0.5,1.9-1
					c0.6-0.6,1.1-1.2,1.7-2c0.5-0.7,0.9-1.6,1.2-2.3c0.4-0.8,0.6-1.5,0.7-2l1.6-8.4c0.2-1.1,0.2-2.2,0-3.3c-0.2-1-0.6-2-1.1-2.8
					c-0.6-0.8-1.2-1.5-2-2s-1.7-0.7-2.7-0.7l-32.8,0.7l-5.1,12l30.6-0.7l-0.5,2.7l-27.9,0.7l-4.9,26.4l12.4-0.3l2.8-14.8l6-0.1
					c2.9-0.1,4.5,0.8,4.9,2.6C269.5,261.2,269.9,263.1,270.1,265.1z M249.6,247.4l27.9-0.7l0.7-4l-1.1-1.3l0.1-0.5l-28.8,0.7
					l3.9-8.9l32.3-0.7c0.8,0,1.7,0.2,2.5,0.7c1.3,1.7,1.8,3.6,1.3,6l-1.6,8.4c-0.1,0.5-0.3,1.1-0.7,1.8c-0.4,0.7-0.7,1.5-1.3,2.1
					c-0.6,0.7-1.1,1.3-1.9,1.9c-0.7,0.6-1.4,0.8-2,0.9c0.9,2.5,1.5,5.1,1.8,7.8c0.3,2.7,0.3,5.5,0.2,8.3l-10.5,0.3
					c-0.1-1.7-0.3-3.3-0.5-4.9c-0.2-1.6-0.6-3.3-1-4.9c-0.2-0.6-0.4-1-0.7-1.4l-0.4-0.4c-0.7-2-2.5-3-5.5-2.9l-6.8,0.2l-2.8,14.8
					l-9.4,0.2L249.6,247.4z"/>
				<path class="st1" d="M289.5,271.8l2.7-14.2l6.6-0.2v-0.1c0-0.1,0-0.1,0-0.2l-1-1.2c-0.7-0.5-1.3-1.1-1.8-1.9
					c-0.5-0.7-0.8-1.5-1.2-2.3c-0.3-0.8-0.5-1.7-0.6-2.5c-0.1-0.8-0.1-1.6,0.1-2.3l1.6-8.4c0.3-1.2,0.7-2.4,1.4-3.6
					c0.7-1.2,1.5-2.3,2.4-3.3c0.9-1,2-1.8,3.2-2.4c1.1-0.7,2.3-0.9,3.5-0.9l34-0.7l-0.1,0.6l1.8,2.1l-2.6,13.7l-6.8,0.2
					c0.4,0.4,0.7,0.7,1.1,1.2c0.4,0.4,0.7,0.8,0.8,1.3l0.8,1c0.8,1,1.5,2.2,1.8,3.6c0.4,1.4,0.4,2.5,0.2,3.6l-0.7,3.6h-1l0.8,1
					l-0.7,3.7c-0.2,1.2-0.7,2.4-1.3,3.6c-0.7,1.2-1.5,2.2-2.4,3.2c-0.9,0.9-2,1.7-3.1,2.3s-2.2,0.9-3.4,0.9l-33.6,0.7l-1.9-2.2
					L289.5,271.8z M323.8,269.9c1,0,2-0.3,3-0.8s2-1.2,2.8-2.1c0.8-0.8,1.6-1.9,2.1-3c0.7-1.1,1-2.1,1.2-3.3l0.6-3l-40.3,0.9
					l-2.2,12L323.8,269.9z M293.2,269.7l1.7-8.9l37.2-0.8l-0.1,0.7c-0.2,1-0.6,2-1.1,3c-0.6,1-1.2,1.9-2,2.7
					c-0.7,0.7-1.6,1.4-2.5,1.9c-0.8,0.5-1.8,0.7-2.6,0.7L293.2,269.7z M308.2,243.9l0.5-2.7l27.9-0.7l2.2-12l-32.9,0.7
					c-1,0-2,0.3-3,0.8c-1,0.6-2,1.2-2.8,2.1c-0.8,0.8-1.6,1.9-2.2,2.9c-0.7,1.1-1,2.1-1.2,3.4l-1.6,8.4c-0.2,0.8-0.2,1.8,0,2.8
					c0.2,1,0.6,2,1,2.9c0.6,0.9,1.2,1.7,2,2.2c0.7,0.7,1.7,0.9,2.7,0.9l32.9-0.7l0.5-2.6c0.2-0.8,0.2-1.8-0.1-2.8
					c-0.3-1-0.6-2-1.1-3c-0.6-0.9-1.3-1.7-2.2-2.3c-0.9-0.7-2-0.9-3.4-0.8L308.2,243.9z M298.9,240c0.2-1,0.6-2,1.1-3.1
					c0.6-1,1.2-2,2-2.7c0.7-0.8,1.6-1.4,2.5-2c0.9-0.5,1.9-0.7,2.8-0.7l30.4-0.7l-1.7,8.9l-27.9,0.7l-0.8,4.4h0.5l1.1,1.3l20-0.5
					c1.2,0,2.3,0.3,3.3,0.9c0.7,0.8,1.1,1.9,1.4,3c0.3,1.1,0.3,2,0.1,2.9l-0.3,1.8l-32,0.7c-1.3,0-2.4-0.6-3.4-1.8
					c-0.4-0.7-0.7-1.6-0.7-2.4c-0.1-0.8-0.1-1.6,0.1-2.3L298.9,240z"/>
			</g>
		</g>
	</g>
	<g>
		<g>
			<g>
				<path class="st2" d="M207,95.3c-0.6-11.7-2.7-20.5-6.7-27.7c-4.1-7.3-10.2-13.2-19.3-18.6c-13-7.8-28.9-11.2-43.8-9.4
					c-17.6,1.9-32.9,11-44.5,26c-14.4,18.6-20,36.9-22.2,48.8c-2.7,14.6-1.9,28.3,2.2,37.5c5.1,11.4,8.2,15.3,14.7,16.5
					c3.2,0.6,7.2,0.5,12.6,0.2l2.2-0.1c31.7-1.3,74.8-4.4,83-16.5c0.8-1.2,1.7-2.4,2.5-3.6C196.9,135.5,208.2,119.3,207,95.3z
					 M173.9,59.3c1.8,0,3.6,0.2,5.3,0.7c1.7,0.4,3.3,0.9,4.7,1.7c1.4,0.7,2.7,1.6,3.8,2.4c0.6,0.4,1.1,0.9,1.5,1.3
					c0.5,0.4,0.8,0.8,1.2,1.3c0.4,0.4,0.7,0.8,1,1.2s0.5,0.8,0.8,1c0.3,0.4,0.4,0.6,0.6,0.9c0.2,0.3,0.2,0.5,0.4,0.6
					c0.3,0.4,0.3,0.5,0.3,0.5s-0.2-0.1-0.3-0.5c-0.1-0.1-0.3-0.4-0.4-0.6c-0.2-0.3-0.5-0.5-0.6-0.8c-0.3-0.3-0.5-0.7-0.8-0.9
					c-0.3-0.4-0.7-0.7-1-1.1c-0.4-0.4-0.9-0.7-1.2-1.1c-0.5-0.4-1-0.8-1.6-1.2c-1.1-0.8-2.4-1.6-3.7-2.1c-1.4-0.6-2.9-1.1-4.5-1.5
					c-1.6-0.3-3.3-0.5-5.1-0.5c-1.8,0-3.5,0.1-5.3,0.5c-1.7,0.3-3.5,0.7-5.2,1.1c-0.8,0.3-1.6,0.5-2.5,0.9c-0.8,0.3-1.7,0.6-2.5,0.8
					c-1.6,0.5-3.3,0.8-4.9,1.1c-1.5,0.3-3,0.4-4.3,0.6c-0.7,0.1-1.3,0.1-1.9,0.2c-0.7,0-1.2,0.1-1.8,0.1c-1.1,0-2,0.1-2.9,0.1
					c-1.6,0-2.4,0-2.4,0s0.9-0.1,2.5-0.3c0.8-0.1,1.7-0.2,2.8-0.4c1.1-0.1,2.3-0.4,3.7-0.5c1.4-0.2,2.8-0.5,4.3-0.9
					c1.5-0.4,3.1-0.7,4.7-1.2c0.8-0.2,1.5-0.5,2.4-0.8c0.8-0.3,1.7-0.6,2.5-0.9c1.8-0.6,3.5-1,5.3-1.2
					C170.3,59.4,172.1,59.3,173.9,59.3z M166.2,45.9c-24-3.3-41.3,8.2-51.6,18.6l0.1,0c0.6,0.1,1.4,0.3,2.1,0.4s1.5,0.3,2.3,0.4
					c1.5,0.3,3.1,0.6,4.7,1c0.8,0.1,1.6,0.3,2.3,0.5l0.1,0l0,0c0,0-0.1,0,0,0l0,0l0.1,0l0.3,0.1l0.6,0.1c0.4,0.1,0.9,0.2,1.2,0.2
					c1.5,0.2,3.2,0.4,4.8,0.5c1.6,0.1,3.2,0.2,4.7,0.2c1.5,0.1,3,0,4.5-0.1s2.8,0,4-0.1s2.4-0.1,3.4-0.2s1.9-0.1,2.6-0.2
					c1.5-0.1,2.2-0.1,2.2-0.1s-0.2,0.1-0.6,0.1c-0.3,0-0.9,0.2-1.6,0.4c-0.7,0.1-1.6,0.3-2.5,0.4c-1,0.1-2.2,0.4-3.3,0.5
					c-0.6,0.1-1.3,0.2-1.9,0.2c-0.7,0.1-1.4,0.2-2.1,0.3c-1.5,0.2-2.9,0.2-4.5,0.4c-1.6,0-3.1,0.2-4.8,0.2c-1.7,0-3.3-0.1-5.1-0.2
					c-0.4,0-0.9-0.1-1.2-0.1l-0.6-0.1l-0.3-0.1l-0.1,0l-0.3-0.1c-0.9-0.2-1.6-0.3-2.4-0.3c-1.2-0.2-2.4-0.4-3.6-0.6
					c-0.9-0.2-1.7-0.4-2.6-0.6c-0.8-0.1-1.5-0.3-2.2-0.5c-0.8-0.1-1.4-0.3-2.1-0.4c-1.4-0.3-2.7-0.5-4-0.7c-2.5-0.4-4.5-0.6-6-0.7
					c-1.4,0-2.3-0.1-2.3-0.1s0.7,0.4,2.2,1c1.3,0.6,3.3,1.3,5.6,1.9c0.7,0.2,1.4,0.4,2.2,0.6c-5.2,6-7.8,10.9-7.8,10.9l-12.1-2.3
					C121.5,28.2,166.2,45.9,166.2,45.9z M144.1,162.3c-0.6,0-1.4,0.2-2.4,0.2c-2.1,0.2-5.1,0.5-8.7,0.8c-1.8,0.1-3.7,0.3-5.9,0.5
					c-2,0.2-4.3,0.3-6.5,0.4s-4.6,0.4-7,0.5s-4.8,0.2-7.2,0.4c-2.4,0.1-4.8,0.2-7.2,0.3s-4.7,0.1-7,0.1c-0.6,0-1.1,0-1.7,0
					c-0.6,0-1.2-0.1-1.7-0.2c-1.1-0.2-2.2-0.7-3.1-1.2c-1.9-1.1-3.3-2.5-4.5-3.9c-1.2-1.4-2-2.8-2.8-4.2c-0.8-1.3-1.2-2.4-1.7-3.4
					c-0.4-1-0.7-1.8-0.9-2.3c-0.2-0.5-0.3-0.8-0.3-0.8s0.5,1.1,1.3,3c0.5,1,1.1,2.1,1.8,3.3c0.8,1.3,1.7,2.5,2.9,3.9
					s2.6,2.7,4.3,3.6c0.9,0.5,1.8,0.9,2.8,1.1c0.5,0.1,1,0.2,1.5,0.2c0.6,0,1.1,0,1.7,0c2.2,0,4.6-0.1,6.9-0.3
					c2.4-0.1,4.8-0.2,7.2-0.3c4.8-0.2,9.6-0.5,14.1-0.7c4.5-0.3,8.7-0.4,12.3-0.6c3.6-0.1,6.6-0.3,8.7-0.4
					C142.7,162.3,143.4,162.3,144.1,162.3c0.6-0.1,0.9-0.1,0.9-0.1S144.7,162.3,144.1,162.3z M189.5,108.6c-0.1,0.5-0.2,1-0.4,1.5
					c-0.1,0.5-0.3,0.9-0.4,1.5c-0.1,0.4-0.3,0.9-0.4,1.4c-0.2,0.4-0.3,0.9-0.5,1.4c-0.4,0.8-0.7,1.8-1,2.6c-0.4,0.8-0.7,1.6-1.1,2.3
					c-0.4,0.7-0.7,1.4-1.2,2.1c-0.2,0.3-0.4,0.7-0.5,1c-0.1,0.2-0.2,0.3-0.3,0.5c-0.1,0.2-0.2,0.3-0.3,0.5c-0.3,0.6-0.8,1.2-1.1,1.7
					c-0.3,0.5-0.6,1-0.9,1.5c-0.3,0.5-0.6,0.9-0.9,1.2c-0.5,0.8-0.9,1.3-1.2,1.7c-0.3,0.4-0.4,0.6-0.4,0.6s0.1-0.2,0.3-0.6
					c0.2-0.4,0.5-1,1-1.8c0.2-0.4,0.5-0.8,0.7-1.3s0.5-1,0.7-1.5c0.5-1.1,1.2-2.3,1.8-3.8c0.4-0.7,0.6-1.4,1-2.2
					c0.2-0.7,0.6-1.5,0.9-2.4c0.4-0.8,0.5-1.7,0.8-2.5c0.1-0.4,0.3-0.8,0.5-1.4c0-0.1,0-0.2,0.1-0.3c-3,3.2-7.2,11.8-9.8,12.2
					c-9.4,8.7-37.3,26.3-102.9,16.4c0,0-1.4-7.5-0.8-13.6c0,0,10.3,12.8,47.1,11.2c31.3-1.4,43.4-6.1,60.5-18.4c0,0-1.1,1.8-3.9,4.4
					c2.5-0.5,6.7-9.3,9.9-12.4c0.1-0.3,0.1-0.6,0.3-0.9c0.1-0.4,0.3-0.9,0.4-1.4c0.1-0.4,0.2-1,0.3-1.4c0.2-1,0.4-1.9,0.4-2.9
					c0.1-0.4,0.1-1,0.2-1.5c0-0.4,0.1-1,0-1.4l0-0.1c0,0.2-0.1,0.4-0.1,0.6c-1,3.6-2.6,7.1-4.9,10.2c-2.2,3-4.8,5.8-7.8,8.1
					c-3,2.3-6.1,4.3-9.4,5.9s-6.7,3-10.1,4.1c-3.4,1.1-6.8,2.1-10.3,2.7s-6.8,1.3-10.1,1.7c-3.3,0.4-6.6,0.7-9.8,0.8
					c-6.4,0.4-12.4,0.4-18,0s-10.6-1.3-15-2.5c-4.3-1.1-8.1-2.6-10.9-4.1c-2.8-1.4-5-2.9-6.4-4c-0.2-0.1-0.4-0.3-0.5-0.4l0,0
					c-0.1,0-0.1-0.1-0.2-0.1c-0.3-0.3-0.7-0.5-0.9-0.7c-0.4-0.3-0.5-0.4-0.5-0.4s2.4-24.3,14.9-44l1-1.8c0,0,5.9,1,10,1.8
					c3.2,0.6,7.1,1.2,11.5,2c4.4,0.7,9.5,1.7,14.8,2.7c1.4,0.3,2.8,0.5,4.2,0.8s2.9,0.5,4.3,0.7c2.9,0.4,6,0.7,9.2,0.9
					c6.4,0.4,13,0.5,19.9,1c3.5,0.2,7,0.5,10.6,1.1c1.7,0.3,3.5,0.7,5.3,1.1c1.8,0.6,3.6,1.1,5.1,2.2c0.8,0.5,1.6,1.1,2.3,1.9
					c0.5,0.7,1.1,1.4,1.4,2.1l0-0.1c-0.1-0.5-0.2-0.9-0.3-1.5l-0.1-0.7l-0.2-0.7c-0.4-1.9-1.2-3.7-2-5.4c-0.3-0.4-0.4-0.9-0.7-1.2
					c-0.3-0.4-0.4-0.7-0.7-1.2c-0.1-0.2-0.3-0.4-0.3-0.6c-0.1-0.1-0.3-0.4-0.3-0.5c-0.3-0.4-0.5-0.8-0.7-1.1c-1-1.4-2.1-2.6-3.1-3.8
					c-1-1.1-2.1-2-3-2.9c-1-0.8-1.8-1.5-2.5-2c-0.7-0.5-1.3-0.9-1.7-1.2s-0.6-0.3-0.6-0.3s0.2,0,0.7,0.2c0.4,0.2,1.1,0.5,1.8,0.9
					c1.6,0.9,3.8,2.3,6.2,4.4c1.1,1.1,2.4,2.2,3.5,3.7c1.1,1.4,2.2,3,3.1,4.8c0.3,0.4,0.4,0.9,0.6,1.3c0.2,0.5,0.4,0.9,0.6,1.4
					c0.1,0.5,0.4,1,0.5,1.4c0.1,0.5,0.3,0.9,0.4,1.5l0.2,0.7l0.2,0.8c0.1,0.5,0.2,1,0.3,1.5c0,0.6,0.1,1,0.1,1.6l0.1,0.8
					c0.1,0.2,0,0.6,0.1,0.8l0,1.6c0.1,0.2,0,0.6,0,0.8l0,0.8c0,0.6-0.1,1.1-0.1,1.5c-0.1,0.5-0.1,1.1-0.2,1.5l-0.1,0.8
					c0,0.2-0.1,0.5-0.1,0.8C189.7,107.7,189.6,108.2,189.5,108.6z"/>
				<path class="st1" d="M183.6,94c-1.5-0.9-3.2-1.5-4.8-2c-1.7-0.5-3.4-0.9-5.1-1.2c-3.5-0.5-6.9-0.9-10.4-1.2
					c-6.9-0.5-13.6-0.8-20-1.3c-3.2-0.3-6.2-0.6-9.2-1.1c-1.5-0.3-2.9-0.5-4.3-0.8c-1.4-0.3-2.8-0.5-4.2-0.8c-5.5-1-10.4-2-14.8-2.9
					c-8.2-1.6-8.2-1.6-11.5-2.2c-4.2-0.8-7.5-1.3-9.8-1.6c-0.1,0.1-0.2,0.4-0.3,0.6c-0.2,0.3-0.3,0.6-0.5,0.9
					c8.1,1.4,16.1,2.9,24.2,4.3c0,0-0.4,0.3-1,0.7c-0.1,0-0.1,0-0.2,0c-1.1-0.2-2-0.4-3-0.6s-1.9-0.4-2.9-0.5
					c-1.9-0.4-3.6-0.7-5.4-1c-1.6-0.3-3.2-0.6-4.5-0.7c-1.4-0.3-2.6-0.4-3.6-0.6c-1-0.2-1.7-0.2-2.3-0.3c-0.5-0.1-0.8,0-0.8,0
					s0.3,0.1,0.7,0.2c0.5,0.2,1.2,0.5,2.2,0.7c0.9,0.3,2.1,0.6,3.5,1c0.6,0.2,1.4,0.4,2.1,0.6c0.8,0.1,1.5,0.4,2.3,0.5
					c0.9,0.2,1.7,0.4,2.6,0.6c0.9,0.2,1.8,0.4,2.8,0.6c1,0.2,1.9,0.4,2.9,0.6c0.5,0.1,1.1,0.2,1.6,0.3c-7.5,5.5-26.3,21.2-29.8,40.2
					c-0.4-0.2-0.7-0.4-1.1-0.5c-2-1.2-3.8-2.4-5.1-3.7c0,0.2-0.1,0.3-0.1,0.5c0,0.2-0.1,0.4-0.1,0.5c0.5,0.4,1.3,1,2,1.6
					c0.4,0.3,3.1,2.4,6.5,4c1.3,0.7,4.6,2.2,10.9,3.7c1.4,0.4,6.9,1.6,14.9,2.1c5.5,0.4,11.5,0.3,17.8-0.2c3.1-0.2,6.4-0.6,9.7-1
					c3.3-0.5,6.6-1,10-1.7c6.7-1.4,13.5-3.6,19.9-6.8c3.2-1.6,6.3-3.5,9.2-5.7c2.9-2.2,5.5-4.9,7.6-7.8c2.1-2.9,3.7-6.2,4.7-9.7
					c0.5-1.7,0.6-3.4,0-5C186.3,96,185,94.8,183.6,94z M88.3,130.8c0,0-1.8-0.6-3.3-1.4c0,0,16.6-32.3,38.7-40.1
					c0.2,0,0.3,0.1,0.5,0.1c2.3,0.3,4.4,0.6,6.7,0.9c1.1,0.1,2.2,0.3,3.3,0.4c1.1,0.1,2.2,0.2,3.2,0.3c0.5,0.1,1.1,0.1,1.5,0.2
					C128.4,95.1,103.3,106.6,88.3,130.8z M141.2,90.3c-1.2-0.1-2.4-0.3-3.6-0.4c-1.1-0.1-2.1-0.3-3.2-0.4c-1.1-0.1-2.2-0.3-3.2-0.5
					c-1.3-0.2-2.7-0.4-4-0.6c0.8-0.2,1.6-0.4,2.4-0.4c0,0,9.2,1.7,14.4,1.5C144,89.3,143,89.7,141.2,90.3z M164.3,93.1
					c-0.5,1.1-1.2,2.8-2.1,4.7c-0.4,1-0.9,2-1.5,3.2c-0.2,0.5-0.5,1.1-0.8,1.7c-0.2,0.3-0.3,0.6-0.4,0.9c0,0.2-0.1,0.3-0.2,0.4
					c0,0.1-0.1,0.3-0.1,0.4c-0.3,1.2-0.4,2.5-0.4,3.9c0,1.3,0,2.8-0.1,4.3c0,1.4-0.2,3-0.5,4.4c-0.3,1.5-0.8,2.9-1.4,4.1
					c-0.6,1.3-1.4,2.4-2.3,3.3c-0.4,0.5-0.8,1-1.2,1.3c-0.4,0.4-0.9,0.7-1.3,1.1c-0.9,0.6-1.8,1.2-2.5,1.6c-0.7,0.4-1.5,0.7-2.1,0.9
					c-0.6,0.2-1.1,0.4-1.3,0.5c-0.4,0.2-0.5,0.1-0.5,0.1s0.1-0.1,0.5-0.2c0.3-0.2,0.7-0.4,1.3-0.8s1.1-0.8,1.8-1.3
					c0.7-0.5,1.4-1.2,2.2-1.8c0.8-0.7,1.5-1.5,2.2-2.5c0.7-1,1.3-2,1.8-3.2c0.5-1.1,0.9-2.4,1.1-3.8c0.2-1.3,0.4-2.7,0.4-4.1
					c0-1.4,0.1-2.9,0.1-4.3c0-1.4,0.2-2.8,0.7-4.3c0-0.2,0.2-0.3,0.2-0.5c0-0.2,0.2-0.4,0.2-0.5c0.2-0.3,0.3-0.6,0.5-0.9
					c0.3-0.6,0.6-1.1,0.9-1.7c0.6-1.1,1.2-2.1,1.8-3c1.1-1.9,2.1-3.4,2.7-4.5s1.1-1.7,1.1-1.7S164.8,92,164.3,93.1z"/>
			</g>
		</g>
		<g>
			<g>
				<path class="st3" d="M220.8,148.1c1,1.5,2.1,2.8,3.1,4.2c10.5,13.8,61.7,14.8,99.3,14.3l2.7,0c6.4-0.1,11.1-0.2,14.9-1.1
					c7.5-1.8,11-6.7,16.3-20.5c4.4-11.2,4.4-27.4,0.3-44.5c-3.4-14-11.2-35.2-29.3-56.4c-14.6-17.1-33.4-26.8-54.3-28
					C256.1,15,237.5,20,222.6,30c-10.4,6.9-17.3,14.3-21.7,23.2c-4.3,8.8-6.2,19.3-6.2,33.2C194.8,114.8,209.1,133.3,220.8,148.1z
					 M238,41.7c2.2,0.1,4.3,0.6,6.4,1.1c1,0.3,2,0.6,3,0.9s1.9,0.6,2.8,0.8c1.8,0.5,3.8,0.8,5.6,1.2c1.8,0.4,3.5,0.6,5.1,0.8
					c1.6,0.1,3,0.3,4.4,0.4c1.3,0.1,2.4,0.2,3.4,0.2c1.9,0.2,3,0.2,3,0.2s-1,0.1-2.9,0.2c-1.1,0-2.1,0-3.5,0c-0.7,0-1.3-0.1-2.1,0
					c-0.7-0.1-1.5,0-2.3-0.1c-1.6-0.1-3.4-0.2-5.2-0.5c-1.9-0.2-3.9-0.5-5.8-1c-1-0.2-2-0.5-3-0.7c-1-0.4-2-0.6-3-0.9
					c-2.1-0.4-4.2-0.7-6.2-1c-2.2-0.3-4.2-0.3-6.3-0.2c-2.1,0.1-4.1,0.5-6,0.9c-1.9,0.6-3.6,1.3-5.2,2.1c-1.5,0.8-3,1.8-4.3,2.8
					c-0.7,0.4-1.2,1-1.8,1.5c-0.4,0.5-1,0.9-1.4,1.4c-0.4,0.5-0.9,0.9-1.1,1.3c-0.3,0.3-0.6,0.8-0.9,1.2c-0.2,0.3-0.5,0.7-0.7,1
					c-0.2,0.3-0.4,0.6-0.5,0.8c-0.2,0.4-0.4,0.6-0.4,0.6s0.1-0.2,0.4-0.6c0.2-0.2,0.3-0.5,0.5-0.8c0.2-0.3,0.4-0.6,0.7-1.1
					c0.3-0.3,0.6-0.8,0.9-1.3c0.3-0.5,0.7-1,1.1-1.5c0.4-0.6,0.8-1.1,1.3-1.7c0.5-0.5,1.1-1.1,1.7-1.6c1.2-1,2.7-2.1,4.3-3
					c1.6-0.9,3.5-1.6,5.4-2.2s4.1-1,6.3-1.1C233.8,41.5,235.9,41.6,238,41.7z M331.4,57.9l-14.2,3.4c0,0-3.3-5.6-9.9-12.4
					c1-0.4,1.7-0.6,2.6-0.9c2.7-0.9,5-1.9,6.5-2.6c1.7-0.8,2.5-1.3,2.5-1.3s-1,0.1-2.7,0.3c-1.7,0.1-4.1,0.6-7,1.2
					c-1.5,0.4-3,0.7-4.7,1.1c-0.9,0.2-1.6,0.4-2.5,0.6c-0.8,0.3-1.7,0.6-2.6,0.8c-1,0.2-2,0.6-3,0.9c-1.4,0.2-2.8,0.5-4.2,0.9
					c-0.9,0.1-1.8,0.3-2.8,0.5l-0.4,0.1l-0.1,0l-0.4,0.1l-0.8,0.2c-0.4,0.1-0.9,0.2-1.4,0.2c-2.1,0.2-4,0.4-6,0.5
					c-2,0.1-3.9,0-5.7,0c-1.9-0.1-3.6-0.1-5.4-0.2c-0.8-0.1-1.6-0.1-2.4-0.2c-0.8,0.1-1.6,0-2.3-0.1c-1.3-0.1-2.7-0.3-3.9-0.4
					c-1.1-0.1-2.2-0.3-3-0.3c-0.8-0.2-1.5-0.3-1.9-0.3c-0.4,0-0.7-0.1-0.7-0.1s0.9,0,2.7,0c0.8,0.1,1.9,0.1,3.1,0.1
					c1.2,0,2.5-0.1,4,0c1.5,0,3-0.1,4.8-0.1c1.7,0,3.5,0,5.3-0.2s3.6-0.3,5.6-0.6c1.9-0.2,3.9-0.5,5.7-0.8c0.4-0.1,0.9-0.2,1.4-0.3
					l0.8-0.2l0.4-0.1l0.1,0l0,0c0.1,0,0,0,0,0l0,0l0.1,0c0.8-0.3,1.9-0.6,2.7-0.8c1.9-0.6,3.7-1,5.5-1.5c0.9-0.2,1.8-0.4,2.6-0.6
					s1.8-0.4,2.5-0.6l0.1,0c-12.9-11.6-34-24.1-62.3-18.7C240,25.3,291.7,1.6,331.4,57.9z M272.3,161.7c0,0,0.4-0.1,1.1,0
					c0.8-0.1,1.7-0.1,3.3-0.1c2.5-0.1,6.1,0,10.4-0.1c4.3,0,9.3-0.1,14.6-0.1c5.3-0.1,11,0,16.8-0.1c2.8,0,5.7,0,8.5-0.1
					c2.8,0,5.6,0,8.2-0.1c0.7,0,1.3-0.1,2-0.1c0.7,0,1.2-0.1,1.8-0.3c1.1-0.3,2.2-0.8,3.2-1.4c2-1.1,3.6-2.9,4.9-4.5
					c1.3-1.7,2.4-3.2,3.2-4.8s1.4-2.9,1.9-4.1c0.9-2.3,1.4-3.7,1.4-3.7s0,0.4-0.3,1c-0.3,0.6-0.5,1.6-0.9,2.8
					c-0.5,1.2-1,2.6-1.8,4.2c-0.8,1.7-1.7,3.3-3,5.1c-1.3,1.8-2.9,3.5-5.1,4.9c-1,0.7-2.3,1.4-3.6,1.7c-0.6,0.2-1.4,0.3-2,0.4
					c-0.7,0-1.3,0.1-2,0.1c-2.8,0.1-5.5,0.3-8.3,0.3c-2.8,0-5.7,0-8.5,0.1c-2.8-0.1-5.7-0.1-8.5-0.1c-2.8,0-5.6-0.1-8.3-0.1
					s-5.3,0-7.7-0.1c-2.5-0.1-4.8-0.2-7-0.2c-4.3-0.2-7.8-0.4-10.3-0.4c-1.2,0-2.2-0.1-2.8-0.1C272.7,161.8,272.3,161.7,272.3,161.7
					z M215.8,99.1c-0.1-0.3-0.2-0.6-0.2-0.9l-0.2-0.9c-0.1-0.5-0.1-1.2-0.3-1.8c0-0.5-0.1-1.2-0.2-1.8l-0.1-0.9
					c-0.1-0.3-0.2-0.6-0.1-0.9l0-1.9c0.1-0.3,0-0.7,0-0.9l0-0.9c0-0.7,0.1-1.2,0.1-1.9c0-0.5,0.1-1.2,0.2-1.8l0.2-1l0.2-0.8
					c0.1-0.7,0.2-1.3,0.4-1.8c0.1-0.6,0.4-1.2,0.5-1.7c0.2-0.7,0.4-1.2,0.6-1.8s0.4-1.2,0.7-1.6c0.9-2.2,2.2-4.1,3.4-5.9
					c1.3-1.8,2.7-3.2,4-4.5c2.7-2.6,5.2-4.4,7-5.6c0.8-0.5,1.6-0.9,2.1-1.2c0.6-0.3,0.8-0.3,0.8-0.3s-0.3,0.1-0.7,0.4
					c-0.4,0.4-1.1,0.9-1.9,1.5c-0.8,0.7-1.8,1.5-2.8,2.6s-2.2,2.3-3.4,3.6c-1.1,1.5-2.3,3-3.4,4.7c-0.2,0.4-0.4,0.9-0.7,1.4
					c-0.1,0.2-0.3,0.5-0.4,0.6c-0.1,0.3-0.3,0.5-0.4,0.8c-0.3,0.6-0.4,1-0.7,1.5c-0.3,0.5-0.4,1-0.7,1.5c-0.8,2.1-1.6,4.3-2,6.5
					l-0.2,0.8l-0.1,0.8c-0.1,0.7-0.1,1.2-0.2,1.8l0,0.1c0.3-0.9,0.9-1.8,1.5-2.6c0.8-1,1.7-1.7,2.6-2.4c1.8-1.4,3.9-2.1,6-2.9
					c2.1-0.6,4.2-1.2,6.3-1.6c4.2-0.9,8.3-1.5,12.4-1.9c8.1-1,16-1.6,23.5-2.5c3.7-0.5,7.3-1,10.8-1.7c1.7-0.3,3.4-0.7,5.1-1.1
					c1.6-0.4,3.3-0.8,4.9-1.2c6.3-1.5,12.2-2.9,17.4-4.1c5.2-1.2,9.7-2.2,13.5-3.1c4.8-1.2,11.7-2.7,11.7-2.7l1.3,2.1
					c15.9,22.5,20.3,51.1,20.3,51.1s-0.1,0.2-0.5,0.5c-0.2,0.3-0.7,0.6-1,0.9c-0.1,0-0.1,0.2-0.2,0.2l0,0c-0.1,0.2-0.3,0.3-0.5,0.5
					c-1.5,1.3-4,3.2-7.3,5.1c-3.2,2-7.6,4-12.6,5.6s-11,3.1-17.6,3.8s-13.7,1.2-21.3,1.2c-3.9,0-7.7-0.1-11.7-0.4
					c-3.9-0.3-7.9-0.8-12-1.3c-4.1-0.6-8.2-1.5-12.3-2.6c-4.1-1.1-8.2-2.5-12.2-4.2s-7.8-3.8-11.5-6.4c-3.7-2.6-7-5.6-9.8-9.1
					c-2.9-3.6-5-7.6-6.4-11.8c-0.1-0.3-0.1-0.5-0.2-0.8l0,0.1c0,0.5,0.1,1.2,0.1,1.7c0.2,0.6,0.2,1.3,0.3,1.8
					c0.1,1.2,0.4,2.3,0.7,3.4c0.1,0.5,0.3,1.1,0.4,1.6c0.1,0.5,0.4,1.1,0.5,1.6c0.2,0.3,0.3,0.7,0.4,1.1c3.9,3.4,9.4,13.6,12.4,14
					c-3.5-2.9-4.9-4.9-4.9-4.9c20.9,13.4,35.6,18.3,72.7,17.9c43.7-0.4,55-16.2,55-16.2c1.1,7.2-0.1,16.1-0.1,16.1
					c-77,15.8-111.1-3.3-122.8-13c-3.1-0.3-8.6-10.2-12.4-13.8c0,0.1,0.1,0.3,0.1,0.4c0.3,0.6,0.5,1.1,0.6,1.6c0.4,1,0.6,2,1.1,2.9
					c0.4,1,0.9,1.9,1.2,2.8c0.5,0.8,0.8,1.7,1.3,2.5c0.8,1.7,1.7,3.1,2.4,4.3c0.3,0.6,0.7,1.2,1,1.8c0.3,0.6,0.7,1,0.9,1.5
					c0.6,0.9,1.1,1.6,1.3,2.1c0.2,0.5,0.4,0.7,0.4,0.7s-0.2-0.2-0.6-0.7c-0.4-0.4-0.9-1-1.5-1.9c-0.3-0.3-0.7-0.8-1.1-1.3
					c-0.4-0.6-0.8-1.1-1.2-1.7c-0.4-0.6-1-1.2-1.4-1.9c-0.2-0.2-0.2-0.3-0.4-0.6c-0.2-0.2-0.2-0.3-0.4-0.6c-0.2-0.3-0.5-0.8-0.7-1.2
					c-0.6-0.8-1.1-1.6-1.5-2.4c-0.5-0.8-1-1.8-1.5-2.7c-0.5-0.9-0.9-2-1.4-3c-0.2-0.5-0.4-1.1-0.6-1.6c-0.1-0.5-0.4-1.1-0.5-1.6
					c-0.2-0.6-0.4-1.1-0.6-1.7c-0.3-0.6-0.4-1.1-0.6-1.7C216.1,100.5,216,99.9,215.8,99.1z"/>
				<path class="st1" d="M218.7,87.6c-0.6,1.9-0.4,3.9,0.4,5.9c1.4,4.1,3.5,7.8,6.2,11.2c2.7,3.3,5.9,6.3,9.4,8.8
					c3.5,2.5,7.3,4.5,11.2,6.2c7.8,3.4,16,5.6,24,6.8c4,0.6,8,1,11.9,1.4c3.9,0.3,7.8,0.5,11.6,0.5c7.5,0.2,14.6-0.1,21.1-0.8
					c9.5-1.1,15.9-2.9,17.5-3.4c7.3-2.2,11.1-4.1,12.6-5c3.9-2.1,7-4.7,7.4-5.1c0.9-0.7,1.8-1.5,2.3-2c0-0.1-0.1-0.4-0.2-0.6
					s-0.1-0.4-0.2-0.6c-1.5,1.7-3.5,3.2-5.8,4.7c-0.5,0.2-0.8,0.5-1.3,0.7c-5.4-22.3-28.6-39.7-37.8-45.7c0.6-0.2,1.3-0.3,1.9-0.5
					c1.1-0.4,2.2-0.7,3.4-0.9c1.1-0.3,2.2-0.7,3.2-0.9c1-0.2,2-0.6,3-0.9c1-0.2,1.9-0.6,2.7-0.8c0.8-0.3,1.7-0.6,2.5-0.9
					c1.6-0.5,3-1,4.1-1.4c1.1-0.4,2-0.7,2.5-1c0.5-0.2,0.8-0.3,0.8-0.3s-0.3-0.1-0.9,0.1s-1.5,0.2-2.7,0.5c-1.1,0.3-2.5,0.5-4.2,0.9
					c-1.5,0.2-3.4,0.7-5.3,1.2c-2,0.5-4,1-6.3,1.5c-1.1,0.3-2.3,0.5-3.4,0.8c-1.1,0.3-2.3,0.5-3.5,0.9c-0.1,0-0.1,0-0.3,0.1
					c-0.8-0.5-1.2-0.8-1.2-0.8c9.5-2.2,18.9-4.4,28.3-6.6c-0.2-0.3-0.4-0.7-0.7-1c-0.2-0.2-0.3-0.6-0.4-0.7
					c-2.7,0.5-6.6,1.3-11.5,2.5c-3.8,0.9-3.8,0.9-13.4,3.4c-5.2,1.2-10.9,2.8-17.3,4.3c-1.6,0.4-3.3,0.8-4.9,1.2
					c-1.6,0.4-3.3,0.8-5,1.2c-3.6,0.7-7.1,1.3-10.9,1.8c-7.5,1-15.4,1.7-23.5,2.8c-4.1,0.6-8.2,1.2-12.3,2c-2,0.5-4,1-6,1.7
					c-2,0.7-3.9,1.5-5.6,2.7C220.7,84.4,219.2,85.9,218.7,87.6z M275.1,77.2c0.5-0.1,1.2-0.1,1.8-0.3c1.2-0.1,2.4-0.3,3.7-0.5
					c1.3-0.2,2.5-0.5,3.8-0.7c2.7-0.5,5.2-1,7.9-1.5c0.3-0.1,0.4-0.1,0.6-0.2c26.6,7.8,48.3,45,48.3,45c-1.7,1.1-3.8,1.9-3.8,1.9
					C318.2,93.3,287.7,81.2,275.1,77.2z M268.9,75.4c6.1,0,16.9-2.6,16.9-2.6c0.9,0,1.9,0.2,2.9,0.4c-1.5,0.4-3.2,0.6-4.7,1
					c-1.3,0.3-2.5,0.6-3.8,0.8s-2.4,0.5-3.7,0.6c-1.4,0.2-2.8,0.5-4.2,0.8C270.1,75.7,269,75.4,268.9,75.4z M243.8,78.6
					c0,0,0.6,0.7,1.4,1.9c0.8,1.3,2,3,3.5,5.1c0.8,1,1.5,2.2,2.3,3.4c0.3,0.7,0.7,1.3,1.1,2c0.2,0.3,0.4,0.7,0.7,1
					c0,0.1,0.2,0.3,0.3,0.6c0.1,0.3,0.2,0.3,0.3,0.6c0.7,1.7,0.9,3.4,1.1,5.1c0.1,1.7,0.3,3.4,0.4,5.1s0.4,3.4,0.8,4.9
					c0.4,1.6,0.9,3.1,1.6,4.4c0.7,1.4,1.4,2.6,2.4,3.7c0.9,1.1,1.8,2,2.8,2.8c1,0.7,1.9,1.4,2.7,2c0.8,0.6,1.6,1.1,2.2,1.5
					c0.6,0.4,1.2,0.6,1.5,0.8c0.4,0.2,0.6,0.3,0.6,0.3s-0.1,0-0.6-0.1c-0.3-0.2-0.9-0.3-1.6-0.5c-0.7-0.2-1.6-0.5-2.5-1
					c-0.9-0.4-2-1.1-3.1-1.8c-0.5-0.4-1.1-0.8-1.6-1.2c-0.5-0.4-1-0.9-1.6-1.5c-1.1-1.1-2.1-2.3-2.9-3.8c-0.9-1.4-1.5-3-1.9-4.7
					c-0.4-1.6-0.7-3.4-0.8-5.1c-0.3-1.8-0.3-3.5-0.4-5.1c-0.1-1.7-0.3-3.3-0.7-4.6c0-0.1-0.1-0.4-0.1-0.5c-0.2-0.1-0.2-0.2-0.2-0.5
					c-0.1-0.4-0.3-0.7-0.5-1.1c-0.3-0.7-0.7-1.4-1-2c-0.7-1.3-1.4-2.5-1.9-3.7c-1.2-2.2-2.1-4.2-2.8-5.4
					C244.5,79.8,243.8,78.6,243.8,78.6z"/>
			</g>
		</g>
	</g>
</g>
</svg>
