<?xml version="1.0" encoding="utf-8"?>
<!-- Generator: Adobe Illustrator 26.0.1, SVG Export Plug-In . SVG Version: 6.00 Build 0)  -->
<svg version="1.1" id="Слой_1" xmlns="http://www.w3.org/2000/svg" xmlns:xlink="http://www.w3.org/1999/xlink" x="0px" y="0px"
	 viewBox="0 0 26.2 79" style="enable-background:new 0 0 26.2 79;" xml:space="preserve">
<style type="text/css">
	.st0{fill:#EFEFEF;stroke:#A99E71;stroke-width:0.4122;stroke-linecap:round;stroke-linejoin:round;stroke-miterlimit:3.2976;}
	.st1{fill:#EFEFEF;stroke:#A99E71;stroke-width:0.4122;stroke-miterlimit:3.2976;}
	.st2{fill:#DE7C29;}
	.st3{fill:#18181B;}
	.st4{fill:none;stroke:#FFFFFF;stroke-width:0.8244;stroke-linecap:round;stroke-linejoin:round;stroke-miterlimit:3.2976;}
	.st5{fill:#F5F0E0;stroke:#A99E71;stroke-width:0.4122;stroke-linecap:round;stroke-linejoin:round;stroke-miterlimit:3.2976;}
	.st6{fill:#F5F0E0;stroke:#A99E71;stroke-width:0.4122;stroke-miterlimit:3.2976;}
	.st7{fill:#FFFFFF;}
</style>
<g transform="translate(-152.15 -188.58)">
	<g transform="matrix(.66254 0 0 .66254 51.345 63.64)">
		<g transform="translate(387.65 384.94)">
			<path class="st0" d="M-228.3-172.3l12.8-8.4v98.1l-6.4-0.3l-6.4-1.1V-172.3z"/>
			<path class="st1" d="M-221.9-179.5v-5.6l6.4-4.1v8.5l-12.8,8.4L-221.9-179.5z"/>
			<g transform="matrix(-1 0 0 1 -316.19 0)">
				<path class="st0" d="M-113.6-172.3l12.8-8.4v98.1l-6.4-0.3l-6.4-1.1V-172.3z"/>
				<path class="st1" d="M-107.2-179.5v-5.6l6.4-4.1v8.5l-12.8,8.4L-107.2-179.5z"/>
			</g>
		</g>
		<g transform="translate(387.65 384.94)">
			<path class="st2" d="M-219.6-173.2l-4.7,3.1v32.8l4.7-3.1V-173.2z M-219.6-133.5l-4.7,3.1v32.8l4.7-3.1V-133.5z"/>
			<path class="st2" d="M-211.5-173.2v32.8l4.7,3.1v-32.8L-211.5-173.2z M-211.5-133.5v32.8l4.7,3.1v-32.8L-211.5-133.5z"/>
		</g>
	</g>
</g>
<rect x="-29.1" y="643.5" class="st3" width="466.6" height="147.6"/>
<g transform="translate(-152.15 -188.58)">
	<g transform="matrix(.66254 0 0 .66254 51.345 63.64)">
		<ellipse class="st3" cx="453.1" cy="1060.5" rx="359.4" ry="254.6"/>
		<g transform="translate(387.83 384.94)">
			<path class="st4" d="M-294.2,675.5h718.9"/>
			<path class="st4" d="M-173.5,485.3c72.8,41.3,155,63.4,238.7,64.2c84.3-0.1,167.3-21.7,240.9-63 M306,864.5
				c-73.5-41.2-156.4-62.8-240.7-62.9c-83.7,0.8-165.9,22.9-238.7,64.2"/>
		</g>
		<g transform="translate(387.65 384.94)">
			<path class="st5" d="M6.2,514.6L65.5,476v454.2l-29.6-1.7l-29.6-5.3L6.2,514.6z"/>
			<path class="st6" d="M35.8,481.6v-25.9l29.6-19.3v39.5L6.2,514.6L35.8,481.6z"/>
			<g transform="matrix(-1 0 0 1 -316.19 0)">
				<path class="st5" d="M-440.9,514.6l59.3-38.6v454.2l-29.6-1.7l-29.6-5.3L-440.9,514.6z"/>
				<path class="st6" d="M-411.2,481.6v-25.9l29.6-19.3v39.5l-59.3,38.6L-411.2,481.6z"/>
			</g>
		</g>
		<g transform="translate(387.65 384.94)">
			<path class="st7" d="M46.7,510.3l-21.8,14.2v152l21.8-14.2V510.3z M46.7,694.1l-21.8,14.2v152l21.8-14.2V694.1z"/>
			<path class="st7" d="M84.2,510.3v152l21.8,14.2v-152L84.2,510.3z M84.2,694.1v152l21.8,14.2v-152L84.2,694.1z"/>
		</g>
		<circle class="st4" cx="453.1" cy="1060.5" r="254.6"/>
	</g>
</g>
<g transform="translate(-152.15 -188.58)">
	<g transform="matrix(.66254 0 0 .66254 51.345 63.64)">
		<ellipse class="st3" cx="2177.7" cy="503.2" rx="359.4" ry="254.6"/>
	</g>
</g>
<g>
	<path class="st3" d="M168.7,657.8c0.7-0.3,1.4-0.4,2-0.4c2,0,4.9,0.7,8.9,2c0.7-0.6,1.1-0.8,1.2-0.8c-2.4-3.1-3.6-5-3.8-5.9h0.1
		c0.3,0,2.3,2.1,6.1,6.3c1.8,1.8,6.1,2.7,12.9,2.7c3.7,0.5,6.8,0.7,9.1,0.7c13.8-0.6,20.7-1,20.7-1.3c0.3-0.5,0.8-0.7,1.5-0.7
		c0.1,0,1.8,1.1,4.9,3.2c1,0.5,2.7,1.1,5.2,1.8c0.3-0.2,0.7-0.3,1.1-0.3c0.4,0,0.8,0.6,1.4,1.7h-6.3c-0.8-0.7-1.5-1-2-1
		c-1.7,0.2-4.2,0.7-7.6,1.4c-1.1,0-1.8,0-2.2-0.1c-4.3,0.1-7.7,0.1-10.4,0.1H208c-2.6,0-6.1,0-10.6-0.1c-0.1,0.1-0.2,0.1-0.3,0.1
		l10.1,10.6c2.1,2.2,3.1,3.5,3.1,4h-3.7c-2.7,0-4.6-0.6-5.5-1.8c-0.4-0.4-1.4-1.9-2.8-4.3c-0.9-1.1-3.1-3-6.5-5.4
		c-2.8-2.3-6.1-4-9.7-5.3c-1.5-0.9-3.5-2.4-6-4.3c-1.3-1.2-3.4-1.8-6.1-1.8C169.1,658.4,168.7,658.1,168.7,657.8z"/>
	<path class="st3" d="M168.5,630.3v-1.1c0-3.6,2.2-7.1,6.6-10.5c2.1-1.4,4.2-2.1,6.2-2.1c5.2,0,16,4.7,32.2,14.1
		c3.6,2,5.5,2.9,5.7,2.9v-0.1c0-2.4,1-5.3,3.1-8.8c0.8-1.7,1.2-3,1.2-4.2c0-0.6-0.4-0.9-1.2-1c0-1.9-1.7-4-5.1-6.3
		c-6.2-2.6-9.6-4.1-10-4.6v-1c0-0.2,0.1-0.3,0.3-0.3h0.6c0.5,0,3.7,1.2,9.7,3.5c1.7,0.5,4.3,0.9,7.9,1.3c2.1,2.3,3.2,4,3.2,5.2v0.6
		c0,1.9-1.6,6.4-4.7,13.5v0.3c0,2.2,3.5,6.5,10.5,12.7c0.5,0.7,0.8,1.1,0.8,1.4v1.1h-2c-4.7-1.6-9.6-3.9-14.8-6.8
		c-20.8-12-33.2-18-37.3-18c-3,0-5.7,1.4-8.2,4.3c-0.5,1.2-0.8,2.1-0.8,2.8v0.4c0,1.8,3.4,4.4,10.1,8c2.6,1.1,5.6,3.2,8.9,6.1
		c0,0.1,0.5,0.7,1.5,1.8c0,0.1-0.2,0.3-0.5,0.4h-1.1c-0.3,0-2.6-0.7-6.8-2.2c-1.1,0-2.2-0.4-3.5-1.3c-3.7-1.7-6.8-3.5-9.3-5.3
		C169.6,635.2,168.5,632.9,168.5,630.3z M182,631.4c0.4-0.9,1.4-1.9,2.8-3.1c1.8,1,2.8,2.2,2.8,3.6c0,0.9-0.7,1.5-2.2,1.8h-0.3
		C184.4,633.8,183.4,633,182,631.4z"/>
	<path class="st3" d="M168.5,585.1V584c0-3.6,2.2-7.1,6.6-10.5c2.1-1.4,4.2-2.1,6.2-2.1c5.2,0,16,4.7,32.2,14.1
		c3.6,2,5.5,2.9,5.7,2.9v-0.1c0-2.4,1-5.3,3.1-8.8c0.8-1.7,1.2-3,1.2-4.2c0-0.6-0.4-0.9-1.2-1c0-1.9-1.7-4-5.1-6.3
		c-6.2-2.6-9.6-4.1-10-4.6v-1c0-0.2,0.1-0.3,0.3-0.3h0.6c0.5,0,3.7,1.2,9.7,3.5c1.7,0.5,4.3,0.9,7.9,1.3c2.1,2.3,3.2,4,3.2,5.2v0.6
		c0,1.9-1.6,6.4-4.7,13.5v0.3c0,2.2,3.5,6.5,10.5,12.7c0.5,0.7,0.8,1.1,0.8,1.4v1.1h-2c-4.7-1.6-9.6-3.9-14.8-6.8
		c-20.8-12-33.2-18-37.3-18c-3,0-5.7,1.4-8.2,4.3c-0.5,1.2-0.8,2.1-0.8,2.8v0.4c0,1.8,3.4,4.4,10.1,8c2.6,1.1,5.6,3.2,8.9,6.1
		c0,0.1,0.5,0.7,1.5,1.8c0,0.1-0.2,0.3-0.5,0.4h-1.1c-0.3,0-2.6-0.7-6.8-2.2c-1.1,0-2.2-0.4-3.5-1.3c-3.7-1.7-6.8-3.5-9.3-5.3
		C169.6,590,168.5,587.7,168.5,585.1z M182,586.2c0.4-0.9,1.4-1.9,2.8-3.1c1.8,1,2.8,2.2,2.8,3.6c0,0.9-0.7,1.5-2.2,1.8h-0.3
		C184.4,588.6,183.4,587.8,182,586.2z"/>
	<path class="st3" d="M165,525.7c3.3,0.3,5.3,0.4,5.9,0.4c0.4,0,4.4-0.8,12-2.4h1.5c0.2,0,0.4,0.2,0.7,0.6c-0.6,1-2,1.8-4.1,2.5
		c-0.7,0-1.3,0.4-1.6,1.3c0.2,2.3,6.2,7.3,18.1,15.1c1.6,1,2.5,1.5,2.8,1.5c0.7-0.8,1-1.6,1-2.2c-0.8-3.5-1.2-5.7-1.2-6.7v-0.1
		c0-5.3,3.7-9.3,11-11.9c1.9-0.6,3.6-0.8,5.1-0.8h2.3c4.5,0.1,6.7,0.4,6.7,0.8c5.1,3.7,7.7,6.3,7.9,8c1.3,2.3,2,4.2,2,5.7v2.1
		c0,4.3-2.3,8.3-6.9,12.1c-3.3,1.6-5.6,2.4-6.9,2.4h-10.9c-0.6-0.7-2.9-1.3-6.9-2.1c-3.5-1.1-9-4.4-16.5-9.8
		c-3.6-2.8-8.5-6.7-14.5-11.7c-0.9-0.5-2.9-1.3-5.9-2.2C165.5,527.3,165,526.5,165,525.7z M217.7,549.2c5.2,0,8.9-1.9,10.9-5.7
		c0.6-1,0.8-2.3,0.8-3.6V539c0-5.3-2.7-8.8-8.1-10.6c-1-0.4-2.3-0.6-3.8-0.6h-0.8c-0.7,0-2.1,0.6-4.1,1.8c-4.8,0.9-7.3,2.9-7.3,6.1
		v1.1c0,6,2.6,9.9,7.8,11.7C214.5,549,216,549.2,217.7,549.2z M213.9,539.4v-0.8c0-0.6,0.6-1.3,1.8-2.1h2.6c0.6,0.6,0.8,1.5,0.8,2.7
		s-1,1.8-3,1.8h-0.3C214.6,540.7,213.9,540.1,213.9,539.4z"/>
	<path class="st3" d="M168.5,498.1V497c0-3.6,2.2-7.1,6.6-10.5c2.1-1.4,4.2-2.1,6.2-2.1c5.2,0,16,4.7,32.2,14.1
		c3.6,2,5.5,2.9,5.7,2.9v-0.1c0-2.4,1-5.3,3.1-8.8c0.8-1.7,1.2-3,1.2-4.2c0-0.6-0.4-0.9-1.2-1c0-1.9-1.7-4-5.1-6.3
		c-6.2-2.6-9.6-4.1-10-4.6v-1c0-0.2,0.1-0.3,0.3-0.3h0.6c0.5,0,3.7,1.2,9.7,3.5c1.7,0.5,4.3,0.9,7.9,1.3c2.1,2.3,3.2,4,3.2,5.2v0.6
		c0,1.9-1.6,6.4-4.7,13.5v0.3c0,2.2,3.5,6.5,10.5,12.7c0.5,0.7,0.8,1.1,0.8,1.4v1.1h-2c-4.7-1.6-9.6-3.9-14.8-6.8
		c-20.8-12-33.2-18-37.3-18c-3,0-5.7,1.4-8.2,4.3c-0.5,1.2-0.8,2.1-0.8,2.8v0.4c0,1.8,3.4,4.4,10.1,8c2.6,1.1,5.6,3.2,8.9,6.1
		c0,0.1,0.5,0.7,1.5,1.8c0,0.1-0.2,0.3-0.5,0.4h-1.1c-0.3,0-2.6-0.7-6.8-2.2c-1.1,0-2.2-0.4-3.5-1.3c-3.7-1.7-6.8-3.5-9.3-5.3
		C169.6,503,168.5,500.7,168.5,498.1z M182,499.2c0.4-0.9,1.4-1.9,2.8-3.1c1.8,1,2.8,2.2,2.8,3.6c0,0.9-0.7,1.5-2.2,1.8h-0.3
		C184.4,501.6,183.4,500.8,182,499.2z"/>
</g>
<text transform="matrix(6.123234e-17 -1 1 6.123234e-17 607.2477 271.7832)" class="st3" style="font-family:'SatanycDemoniacSt'; font-size:71.5049px;">12262</text>
<g transform="translate(-152.15 -188.58)">
	<g transform="matrix(.66254 0 0 .66254 51.345 63.64)">
		<g transform="translate(387.65 384.94)">
			<path class="st5" d="M1730.8-476.4l59.3-38.6v454.2l-29.6-1.7l-29.6-5.3L1730.8-476.4z"/>
			<path class="st6" d="M1760.5-509.4v-25.9l29.6-19.3v39.5l-59.3,38.6L1760.5-509.4z"/>
			<g transform="matrix(-1 0 0 1 -316.19 0)">
				<path class="st5" d="M-2165.5-476.4l59.3-38.6v454.2l-29.6-1.7l-29.6-5.3L-2165.5-476.4z"/>
				<path class="st6" d="M-2135.9-509.4v-25.9l29.6-19.3v39.5l-59.3,38.6L-2135.9-509.4z"/>
			</g>
		</g>
		<g transform="translate(387.65 384.94)">
			<path class="st7" d="M1771.4-480.7l-21.8,14.2v152l21.8-14.2V-480.7z M1771.4-296.9l-21.8,14.2v152l21.8-14.2V-296.9z"/>
			<path class="st7" d="M1808.8-480.7v152l21.8,14.2v-152L1808.8-480.7z M1808.8-296.9v152l21.8,14.2v-152L1808.8-296.9z"/>
		</g>
	</g>
</g>
<g>
	<path class="st3" d="M752,320.9c0.7-0.3,1.4-0.4,2-0.4c2,0,4.9,0.7,8.9,2c0.7-0.6,1.1-0.8,1.2-0.8c-2.4-3.1-3.6-5-3.8-5.9h0.1
		c0.3,0,2.3,2.1,6.1,6.3c1.8,1.8,6.1,2.7,12.9,2.7c3.7,0.5,6.8,0.7,9.1,0.7c13.8-0.6,20.7-1,20.7-1.3c0.3-0.5,0.8-0.7,1.5-0.7
		c0.1,0,1.8,1.1,4.9,3.2c1,0.5,2.7,1.1,5.2,1.8c0.3-0.2,0.7-0.3,1.1-0.3c0.4,0,0.8,0.6,1.4,1.7H817c-0.8-0.7-1.5-1-2-1
		c-1.7,0.2-4.2,0.7-7.6,1.4c-1.1,0-1.8,0-2.2-0.1c-4.3,0.1-7.7,0.1-10.4,0.1h-3.2c-2.6,0-6.1,0-10.6-0.1c-0.1,0.1-0.2,0.1-0.3,0.1
		l10.1,10.6c2.1,2.2,3.1,3.5,3.1,4H790c-2.7,0-4.6-0.6-5.5-1.8c-0.4-0.4-1.4-1.9-2.8-4.3c-0.9-1.1-3.1-3-6.5-5.4
		c-2.8-2.3-6.1-4-9.7-5.3c-1.5-0.9-3.5-2.4-6-4.3c-1.3-1.2-3.4-1.8-6.1-1.8C752.5,321.4,752,321.1,752,320.9z"/>
	<path class="st3" d="M751.9,293.3v-1.1c0-3.6,2.2-7.1,6.6-10.5c2.1-1.4,4.2-2.1,6.2-2.1c5.2,0,16,4.7,32.2,14.1
		c3.6,2,5.5,2.9,5.7,2.9v-0.1c0-2.4,1-5.3,3.1-8.8c0.8-1.7,1.2-3,1.2-4.2c0-0.6-0.4-0.9-1.2-1c0-1.9-1.7-4-5.1-6.3
		c-6.2-2.6-9.6-4.1-10-4.6v-1c0-0.2,0.1-0.3,0.3-0.3h0.6c0.5,0,3.7,1.2,9.7,3.5c1.7,0.5,4.3,0.9,7.9,1.3c2.1,2.3,3.2,4,3.2,5.2v0.6
		c0,1.9-1.6,6.4-4.7,13.5v0.3c0,2.2,3.5,6.5,10.5,12.7c0.5,0.7,0.8,1.1,0.8,1.4v1.1h-2c-4.7-1.6-9.6-3.9-14.8-6.8
		c-20.8-12-33.2-18-37.3-18c-3,0-5.7,1.4-8.2,4.3c-0.5,1.2-0.8,2.1-0.8,2.8v0.4c0,1.8,3.4,4.4,10.1,8c2.6,1.1,5.6,3.2,8.9,6.1
		c0,0.1,0.5,0.7,1.5,1.8c0,0.1-0.2,0.3-0.5,0.4h-1.1c-0.3,0-2.6-0.7-6.8-2.2c-1.1,0-2.2-0.4-3.5-1.3c-3.7-1.7-6.8-3.5-9.3-5.3
		C753,298.2,751.9,295.9,751.9,293.3z M765.3,294.4c0.4-0.9,1.4-1.9,2.8-3.1c1.8,1,2.8,2.2,2.8,3.6c0,0.9-0.7,1.5-2.2,1.8h-0.3
		C767.8,296.8,766.7,296,765.3,294.4z"/>
	<path class="st3" d="M751.9,248.1V247c0-3.6,2.2-7.1,6.6-10.5c2.1-1.4,4.2-2.1,6.2-2.1c5.2,0,16,4.7,32.2,14.1
		c3.6,2,5.5,2.9,5.7,2.9v-0.1c0-2.4,1-5.3,3.1-8.8c0.8-1.7,1.2-3,1.2-4.2c0-0.6-0.4-0.9-1.2-1c0-1.9-1.7-4-5.1-6.3
		c-6.2-2.6-9.6-4.1-10-4.6v-1c0-0.2,0.1-0.3,0.3-0.3h0.6c0.5,0,3.7,1.2,9.7,3.5c1.7,0.5,4.3,0.9,7.9,1.3c2.1,2.3,3.2,4,3.2,5.2v0.6
		c0,1.9-1.6,6.4-4.7,13.5v0.3c0,2.2,3.5,6.5,10.5,12.7c0.5,0.7,0.8,1.1,0.8,1.4v1.1h-2c-4.7-1.6-9.6-3.9-14.8-6.8
		c-20.8-12-33.2-18-37.3-18c-3,0-5.7,1.4-8.2,4.3c-0.5,1.2-0.8,2.1-0.8,2.8v0.4c0,1.8,3.4,4.4,10.1,8c2.6,1.1,5.6,3.2,8.9,6.1
		c0,0.1,0.5,0.7,1.5,1.8c0,0.1-0.2,0.3-0.5,0.4h-1.1c-0.3,0-2.6-0.7-6.8-2.2c-1.1,0-2.2-0.4-3.5-1.3c-3.7-1.7-6.8-3.5-9.3-5.3
		C753,253,751.9,250.7,751.9,248.1z M765.3,249.2c0.4-0.9,1.4-1.9,2.8-3.1c1.8,1,2.8,2.2,2.8,3.6c0,0.9-0.7,1.5-2.2,1.8h-0.3
		C767.8,251.6,766.7,250.8,765.3,249.2z"/>
	<path class="st3" d="M748.4,188.7c3.3,0.3,5.3,0.4,5.9,0.4c0.4,0,4.4-0.8,12-2.4h1.5c0.2,0,0.4,0.2,0.7,0.6c-0.6,1-2,1.8-4.1,2.5
		c-0.7,0-1.3,0.4-1.6,1.3c0.2,2.3,6.2,7.3,18.1,15.1c1.6,1,2.5,1.5,2.8,1.5c0.7-0.8,1-1.6,1-2.2c-0.8-3.5-1.2-5.7-1.2-6.7v-0.1
		c0-5.3,3.7-9.3,11-11.9c1.9-0.6,3.6-0.8,5.1-0.8h2.3c4.5,0.1,6.7,0.4,6.7,0.8c5.1,3.7,7.7,6.3,7.9,8c1.3,2.3,2,4.2,2,5.7v2.1
		c0,4.3-2.3,8.3-6.9,12.1c-3.3,1.6-5.6,2.4-6.9,2.4h-10.9c-0.6-0.7-2.9-1.3-6.9-2.1c-3.5-1.1-9-4.4-16.5-9.8
		c-3.6-2.8-8.5-6.7-14.5-11.7c-0.9-0.5-2.9-1.3-5.9-2.2C748.9,190.4,748.4,189.5,748.4,188.7z M801,212.2c5.2,0,8.9-1.9,10.9-5.7
		c0.6-1,0.8-2.3,0.8-3.6V202c0-5.3-2.7-8.8-8.1-10.6c-1-0.4-2.3-0.6-3.8-0.6H800c-0.7,0-2.1,0.6-4.1,1.8c-4.8,0.9-7.3,2.9-7.3,6.1
		v1.1c0,6,2.6,9.9,7.8,11.7C797.9,212,799.4,212.2,801,212.2z M797.3,202.4v-0.8c0-0.6,0.6-1.3,1.8-2.1h2.6c0.6,0.6,0.8,1.5,0.8,2.7
		s-1,1.8-3,1.8h-0.3C797.9,203.7,797.3,203.2,797.3,202.4z"/>
	<path class="st3" d="M751.9,161.1V160c0-3.6,2.2-7.1,6.6-10.5c2.1-1.4,4.2-2.1,6.2-2.1c5.2,0,16,4.7,32.2,14.1
		c3.6,2,5.5,2.9,5.7,2.9v-0.1c0-2.4,1-5.3,3.1-8.8c0.8-1.7,1.2-3,1.2-4.2c0-0.6-0.4-0.9-1.2-1c0-1.9-1.7-4-5.1-6.3
		c-6.2-2.6-9.6-4.1-10-4.6v-1c0-0.2,0.1-0.3,0.3-0.3h0.6c0.5,0,3.7,1.2,9.7,3.5c1.7,0.5,4.3,0.9,7.9,1.3c2.1,2.3,3.2,4,3.2,5.2v0.6
		c0,1.9-1.6,6.4-4.7,13.5v0.3c0,2.2,3.5,6.5,10.5,12.7c0.5,0.7,0.8,1.1,0.8,1.4v1.1h-2c-4.7-1.6-9.6-3.9-14.8-6.8
		c-20.8-12-33.2-18-37.3-18c-3,0-5.7,1.4-8.2,4.3c-0.5,1.2-0.8,2.1-0.8,2.8v0.4c0,1.8,3.4,4.4,10.1,8c2.6,1.1,5.6,3.2,8.9,6.1
		c0,0.1,0.5,0.7,1.5,1.8c0,0.1-0.2,0.3-0.5,0.4h-1.1c-0.3,0-2.6-0.7-6.8-2.2c-1.1,0-2.2-0.4-3.5-1.3c-3.7-1.7-6.8-3.5-9.3-5.3
		C753,166.1,751.9,163.8,751.9,161.1z M765.3,162.3c0.4-0.9,1.4-1.9,2.8-3.1c1.8,1,2.8,2.2,2.8,3.6c0,0.9-0.7,1.5-2.2,1.8h-0.3
		C767.8,164.6,766.7,163.8,765.3,162.3z"/>
</g>
<text transform="matrix(0.9084 -0.418 0.418 0.9084 1262.0887 -28.4485)" class="st3" style="font-family:'SatanycDemoniacSt'; font-size:71.4987px;">12262</text>
</svg>
