<?xml version="1.0" encoding="utf-8"?>
<!-- Generator: Adobe Illustrator 26.0.1, SVG Export Plug-In . SVG Version: 6.00 Build 0)  -->
<svg version="1.1" id="Слой_1" xmlns="http://www.w3.org/2000/svg" xmlns:xlink="http://www.w3.org/1999/xlink" x="0px" y="0px"
	 viewBox="0 0 97 79" style="enable-background:new 0 0 97 79;" xml:space="preserve">
<style type="text/css">
	.st0{fill:#18181B;}
	.st1{fill:none;stroke:#18181B;stroke-width:0.5;stroke-linecap:round;stroke-linejoin:round;stroke-miterlimit:1.8965;}
	.st2{fill:none;stroke:#18181B;stroke-width:0.5;stroke-linecap:round;stroke-linejoin:round;stroke-miterlimit:4.9772;}
	.st3{fill:none;stroke:#18181B;stroke-width:0.5;stroke-linecap:round;stroke-miterlimit:1.8965;}
	.st4{fill:none;stroke:#18181B;stroke-width:0.5;stroke-linecap:round;stroke-miterlimit:4.9771;}
	.st5{fill:#DE7C29;}
	.st6{fill:none;stroke:#FFFFFF;stroke-width:1.2443;stroke-linecap:round;stroke-linejoin:round;stroke-miterlimit:4.9772;}
	.st7{fill:#EFEFEF;stroke:#A99E71;stroke-width:0.6221;stroke-linecap:round;stroke-linejoin:round;stroke-miterlimit:4.9772;}
	.st8{fill:#EFEFEF;stroke:#A99E71;stroke-width:0.6221;stroke-miterlimit:4.9772;}
	.st9{fill:#F5F0E0;stroke:#A99E71;stroke-width:0.6221;stroke-linecap:round;stroke-linejoin:round;stroke-miterlimit:4.9772;}
	.st10{fill:#F5F0E0;stroke:#A99E71;stroke-width:0.6221;stroke-miterlimit:4.9772;}
	.st11{fill:#FFFFFF;}
</style>
<g transform="translate(-152.15 -188.58)">
	<g transform="matrix(.66254 0 0 .66254 51.345 63.64)">
		<ellipse class="st0" cx="225.8" cy="249.4" rx="50.9" ry="36.1"/>
		<g transform="translate(387.83 384.94)">
			<g>
				<g>
					<g transform="matrix(-.43649 .43649 -.43649 -.43649 -357.89 77.305)">
						<path class="st1" d="M-497-60.4h7.6"/>
						<path class="st1" d="M-498.2-57.4l4.5-11.4h1l4.5,11.4"/>
					</g>
					<path class="st2" d="M-106.9-122l0.7,5.8 M-113-118.4l6.5-0.5 M-110-123.7l6.1,3.5"/>
					<path class="st2" d="M-124.9-164.3l4-5.8l5,3.5"/>
					<g transform="matrix(-.50565 .35406 -.35406 -.50565 -394.8 37.766)">
						<path class="st1" d="M-488.1-59.1v-11.4h-7.2c0,0-2.2,0-2.2,2.8s2.2,2.8,2.2,2.8h7.2"/>
						<path class="st1" d="M-498.1-59.1l3.9-5.7"/>
					</g>
					<g>
						<g transform="matrix(.55945 .26087 -.26087 .55945 138.65 -2.4751)">
							<path class="st3" d="M-517.5-69.5l12.1,11.4"/>
							<path class="st3" d="M-505.9-69.5l-12.1,11.4"/>
						</g>
						<g transform="matrix(.30864 .53458 -.53458 .30864 18.356 140.54)">
							<path class="st3" d="M-515-64.9l2.9,5.7c2.2,0.8,4.9,0.4,5.2,0"/>
							<path class="st1" d="M-503.3-64.9c0,0-0.9,1.6-3.5,5.8c-2.6,4.2-3.1,5.8-5.2,5.8h-1"/>
						</g>
						<ellipse class="st4" cx="-104.8" cy="-129.2" rx="2.3" ry="2.3"/>
					</g>
					<g transform="matrix(-.10719 -.6079 .6079 -.10719 -95.233 -457.11)">
						<path class="st1" d="M-497.2-103.9h-7.2c0,0-2.2,0-2.2-2.8s2.2-2.8,2.2-2.8h7.2v11.4h-9.5"/>
					</g>
					<g>
						<path class="st2" d="M-168.8-180.3c-0.8-0.9-2-1.3-3.2-1.1c-1.9,0.3-3.2,2.2-2.9,4.1c0.3,1.9,2.2,3.2,4.1,2.9
							c1.2-0.2,2.2-1,2.6-2.1"/>
						<g>
							<path class="st2" d="M-159-178.5c0,0,1.7,0,1.7,1.8c0,1.8-1.7,1.8-1.7,1.8h-4.5v-7h4.5c0,0,1.4,0,1.4,1.8
								S-159-178.5-159-178.5h-4.5"/>
							<path class="st2" d="M-152.8-178.1l5.5,1 M-147.4-173.5l-6-1.1l1.2-6.9l6,1.1"/>
							<path class="st2" d="M-143.8-172.6l2.4-6.6l4.2,1.5c0,0,1.6,0.6,1,2.2c-0.6,1.7-2.2,1.1-2.2,1.1l-4.2-1.5"/>
							<path class="st2" d="M-114.7-155l5.4-4.5l-2.5-3c0,0-1.4-0.6-2.6,0.4c-1.2,1-1.7,1.8-3,2.1c-1.2,0.3-2.3-0.9-2.3-0.9"/>
						</g>
					</g>
					<g transform="matrix(.43649 -.43649 .43649 .43649 42.304 -351.02)">
						<path class="st1" d="M-508-66.8h7.6"/>
						<path class="st1" d="M-509.2-63.8l4.5-11.4h1l4.5,11.4"/>
					</g>
					<g>
						<path class="st2" d="M-219.2-147c-1.2,0.1-2.2,0.9-2.8,2c-0.8,1.8,0,3.8,1.7,4.7s3.8,0,4.7-1.7c0.5-1.1,0.4-2.4-0.2-3.4"/>
						<path class="st2" d="M-216.5-150.1l-0.7-5.8 M-210.4-153.6l-6.5,0.5 M-213.5-148.3l-6.1-3.5"/>
						<path class="st2" d="M-214.7-125.8l-6.6,2.4l1.3,3.7c0,0,1.1,1.1,2.6,0.5c1.4-0.5,2.2-1.1,3.5-1c1.3,0.1,1.8,1.6,1.8,1.6"/>
					</g>
					<g transform="matrix(.53458 -.30864 .30864 .53458 91.639 -287.15)">
						<path class="st1" d="M-499.5-63.4v-11.4h-7.2c0,0-2.2,0-2.2,2.8s2.2,2.8,2.2,2.8h7.2"/>
						<path class="st1" d="M-509.4-63.4l3.9-5.7"/>
					</g>
					<ellipse class="st4" cx="-210.4" cy="-111.7" rx="2.3" ry="2.3"/>
					<g transform="matrix(.0538 .61493 -.61493 .0538 -249.05 180.77)">
						<path class="st1" d="M-496.5-86v-11.4h-7.2c0,0-2.2,0-2.2,2.8c0,2.8,2.2,2.8,2.2,2.8h7.2"/>
					</g>
					<g>
						<path class="st2" d="M-199.9-102.9l-5.8,0.2 M-202.9-109.2l-0.1,6.5 M-197.9-105.7l-4,5.8"/>
						<path class="st2" d="M-174.5-94.9c-0.2-1.2-1.1-2.2-2.2-2.6c-1.8-0.7-3.8,0.3-4.5,2.1c-0.7,1.8,0.3,3.8,2.1,4.5
							c1.1,0.4,2.4,0.2,3.4-0.5"/>
						<path class="st2" d="M-148.2-90.2l-0.6-7l4.4-0.4c0,0,1.7-0.1,1.8,1.6c0.1,1.8-1.5,1.9-1.5,1.9l-4.4,0.4"/>
						<path class="st2" d="M-163.6-94.4c-0.6-1.1-1.6-1.8-2.8-1.9c-1.9-0.2-3.6,1.2-3.8,3.2c-0.2,1.9,1.2,3.6,3.2,3.8
							c1.2,0.1,2.4-0.4,3.1-1.4"/>
						<path class="st2" d="M-153.1-95c-0.7-1-1.9-1.5-3.1-1.4c-1.9,0.2-3.4,1.9-3.2,3.8c0.2,1.9,1.9,3.4,3.8,3.2
							c1.2-0.1,2.3-0.8,2.8-1.9"/>
					</g>
				</g>
			</g>
			<g>
				<circle class="st5" cx="-191" cy="-97.5" r="1.4"/>
				<circle class="st5" cx="-133" cy="-97.5" r="1.4"/>
			</g>
		</g>
		<g transform="translate(387.83 384.94)">
			<path class="st6" d="M-212.9-135.5h101.8"/>
			<path class="st6" d="M-195.8-162.4c10.3,5.9,21.9,9,33.8,9.1c12,0,23.7-3.1,34.1-8.9 M-127.9-108.8c-10.4-5.8-22.2-8.9-34.1-8.9
				c-11.9,0.1-23.5,3.2-33.8,9.1"/>
		</g>
		<g transform="translate(387.65 384.94)">
			<path class="st7" d="M-170.2-158.3l8.4-5.5v64.3l-4.2-0.2l-4.2-0.7V-158.3z"/>
			<path class="st8" d="M-166-163v-3.7l4.2-2.7v5.6l-8.4,5.5L-166-163z"/>
			<g transform="matrix(-1 0 0 1 -316.19 0)">
				<path class="st7" d="M-162.8-158.3l8.4-5.5v64.3l-4.2-0.2l-4.2-0.7V-158.3z"/>
				<path class="st8" d="M-158.6-163v-3.7l4.2-2.7v5.6l-8.4,5.5L-158.6-163z"/>
			</g>
		</g>
		<g transform="translate(387.65 384.94)">
			<path class="st5" d="M-164.5-158.9l-3.1,2v21.5l3.1-2V-158.9z M-164.5-132.9l-3.1,2v21.5l3.1-2V-132.9z"/>
			<path class="st5" d="M-159.2-158.9v21.5l3.1,2v-21.5L-159.2-158.9z M-159.2-132.9v21.5l3.1,2v-21.5L-159.2-132.9z"/>
		</g>
		<circle class="st6" cx="225.8" cy="249.4" r="36.1"/>
	</g>
</g>
<rect x="-29.1" y="643.5" class="st0" width="466.6" height="147.6"/>
<g transform="translate(-152.15 -188.58)">
	<g transform="matrix(.66254 0 0 .66254 51.345 63.64)">
		<ellipse class="st0" cx="453.1" cy="1060.5" rx="359.4" ry="254.6"/>
		<g transform="translate(387.83 384.94)">
			<path class="st6" d="M-294.2,675.5h718.9"/>
			<path class="st6" d="M-173.5,485.3c72.8,41.3,155,63.4,238.7,64.2c84.3-0.1,167.3-21.7,240.9-63 M306,864.5
				c-73.5-41.2-156.4-62.8-240.7-62.9c-83.7,0.8-165.9,22.9-238.7,64.2"/>
		</g>
		<g transform="translate(387.65 384.94)">
			<path class="st9" d="M6.2,514.6L65.5,476v454.2l-29.6-1.7l-29.6-5.3L6.2,514.6z"/>
			<path class="st10" d="M35.8,481.6v-25.9l29.6-19.3v39.5L6.2,514.6L35.8,481.6z"/>
			<g transform="matrix(-1 0 0 1 -316.19 0)">
				<path class="st9" d="M-440.9,514.6l59.3-38.6v454.2l-29.6-1.7l-29.6-5.3L-440.9,514.6z"/>
				<path class="st10" d="M-411.2,481.6v-25.9l29.6-19.3v39.5l-59.3,38.6L-411.2,481.6z"/>
			</g>
		</g>
		<g transform="translate(387.65 384.94)">
			<path class="st11" d="M46.7,510.3l-21.8,14.2v152l21.8-14.2V510.3z M46.7,694.1l-21.8,14.2v152l21.8-14.2V694.1z"/>
			<path class="st11" d="M84.2,510.3v152l21.8,14.2v-152L84.2,510.3z M84.2,694.1v152l21.8,14.2v-152L84.2,694.1z"/>
		</g>
		<circle class="st6" cx="453.1" cy="1060.5" r="254.6"/>
	</g>
</g>
<g transform="translate(-152.15 -188.58)">
	<g transform="matrix(.66254 0 0 .66254 51.345 63.64)">
		<ellipse class="st0" cx="2177.7" cy="503.2" rx="359.4" ry="254.6"/>
	</g>
</g>
<g>
	<path class="st0" d="M168.7,657.8c0.7-0.3,1.4-0.4,2-0.4c2,0,4.9,0.7,8.9,2c0.7-0.6,1.1-0.8,1.2-0.8c-2.4-3.1-3.6-5-3.8-5.9h0.1
		c0.3,0,2.3,2.1,6.1,6.3c1.8,1.8,6.1,2.7,12.9,2.7c3.7,0.5,6.8,0.7,9.1,0.7c13.8-0.6,20.7-1,20.7-1.3c0.3-0.5,0.8-0.7,1.5-0.7
		c0.1,0,1.8,1.1,4.9,3.2c1,0.5,2.7,1.1,5.2,1.8c0.3-0.2,0.7-0.3,1.1-0.3c0.4,0,0.8,0.6,1.4,1.7h-6.3c-0.8-0.7-1.5-1-2-1
		c-1.7,0.2-4.2,0.7-7.6,1.4c-1.1,0-1.8,0-2.2-0.1c-4.3,0.1-7.7,0.1-10.4,0.1H208c-2.6,0-6.1,0-10.6-0.1c-0.1,0.1-0.2,0.1-0.3,0.1
		l10.1,10.6c2.1,2.2,3.1,3.5,3.1,4h-3.7c-2.7,0-4.6-0.6-5.5-1.8c-0.4-0.4-1.4-1.9-2.8-4.3c-0.9-1.1-3.1-3-6.5-5.4
		c-2.8-2.3-6.1-4-9.7-5.3c-1.5-0.9-3.5-2.4-6-4.3c-1.3-1.2-3.4-1.8-6.1-1.8C169.1,658.4,168.7,658.1,168.7,657.8z"/>
	<path class="st0" d="M168.5,630.3v-1.1c0-3.6,2.2-7.1,6.6-10.5c2.1-1.4,4.2-2.1,6.2-2.1c5.2,0,16,4.7,32.2,14.1
		c3.6,2,5.5,2.9,5.7,2.9v-0.1c0-2.4,1-5.3,3.1-8.8c0.8-1.7,1.2-3,1.2-4.2c0-0.6-0.4-0.9-1.2-1c0-1.9-1.7-4-5.1-6.3
		c-6.2-2.6-9.6-4.1-10-4.6v-1c0-0.2,0.1-0.3,0.3-0.3h0.6c0.5,0,3.7,1.2,9.7,3.5c1.7,0.5,4.3,0.9,7.9,1.3c2.1,2.3,3.2,4,3.2,5.2v0.6
		c0,1.9-1.6,6.4-4.7,13.5v0.3c0,2.2,3.5,6.5,10.5,12.7c0.5,0.7,0.8,1.1,0.8,1.4v1.1h-2c-4.7-1.6-9.6-3.9-14.8-6.8
		c-20.8-12-33.2-18-37.3-18c-3,0-5.7,1.4-8.2,4.3c-0.5,1.2-0.8,2.1-0.8,2.8v0.4c0,1.8,3.4,4.4,10.1,8c2.6,1.1,5.6,3.2,8.9,6.1
		c0,0.1,0.5,0.7,1.5,1.8c0,0.1-0.2,0.3-0.5,0.4h-1.1c-0.3,0-2.6-0.7-6.8-2.2c-1.1,0-2.2-0.4-3.5-1.3c-3.7-1.7-6.8-3.5-9.3-5.3
		C169.6,635.2,168.5,632.9,168.5,630.3z M182,631.4c0.4-0.9,1.4-1.9,2.8-3.1c1.8,1,2.8,2.2,2.8,3.6c0,0.9-0.7,1.5-2.2,1.8h-0.3
		C184.4,633.8,183.4,633,182,631.4z"/>
	<path class="st0" d="M168.5,585.1V584c0-3.6,2.2-7.1,6.6-10.5c2.1-1.4,4.2-2.1,6.2-2.1c5.2,0,16,4.7,32.2,14.1
		c3.6,2,5.5,2.9,5.7,2.9v-0.1c0-2.4,1-5.3,3.1-8.8c0.8-1.7,1.2-3,1.2-4.2c0-0.6-0.4-0.9-1.2-1c0-1.9-1.7-4-5.1-6.3
		c-6.2-2.6-9.6-4.1-10-4.6v-1c0-0.2,0.1-0.3,0.3-0.3h0.6c0.5,0,3.7,1.2,9.7,3.5c1.7,0.5,4.3,0.9,7.9,1.3c2.1,2.3,3.2,4,3.2,5.2v0.6
		c0,1.9-1.6,6.4-4.7,13.5v0.3c0,2.2,3.5,6.5,10.5,12.7c0.5,0.7,0.8,1.1,0.8,1.4v1.1h-2c-4.7-1.6-9.6-3.9-14.8-6.8
		c-20.8-12-33.2-18-37.3-18c-3,0-5.7,1.4-8.2,4.3c-0.5,1.2-0.8,2.1-0.8,2.8v0.4c0,1.8,3.4,4.4,10.1,8c2.6,1.1,5.6,3.2,8.9,6.1
		c0,0.1,0.5,0.7,1.5,1.8c0,0.1-0.2,0.3-0.5,0.4h-1.1c-0.3,0-2.6-0.7-6.8-2.2c-1.1,0-2.2-0.4-3.5-1.3c-3.7-1.7-6.8-3.5-9.3-5.3
		C169.6,590,168.5,587.7,168.5,585.1z M182,586.2c0.4-0.9,1.4-1.9,2.8-3.1c1.8,1,2.8,2.2,2.8,3.6c0,0.9-0.7,1.5-2.2,1.8h-0.3
		C184.4,588.6,183.4,587.8,182,586.2z"/>
	<path class="st0" d="M165,525.7c3.3,0.3,5.3,0.4,5.9,0.4c0.4,0,4.4-0.8,12-2.4h1.5c0.2,0,0.4,0.2,0.7,0.6c-0.6,1-2,1.8-4.1,2.5
		c-0.7,0-1.3,0.4-1.6,1.3c0.2,2.3,6.2,7.3,18.1,15.1c1.6,1,2.5,1.5,2.8,1.5c0.7-0.8,1-1.6,1-2.2c-0.8-3.5-1.2-5.7-1.2-6.7v-0.1
		c0-5.3,3.7-9.3,11-11.9c1.9-0.6,3.6-0.8,5.1-0.8h2.3c4.5,0.1,6.7,0.4,6.7,0.8c5.1,3.7,7.7,6.3,7.9,8c1.3,2.3,2,4.2,2,5.7v2.1
		c0,4.3-2.3,8.3-6.9,12.1c-3.3,1.6-5.6,2.4-6.9,2.4h-10.9c-0.6-0.7-2.9-1.3-6.9-2.1c-3.5-1.1-9-4.4-16.5-9.8
		c-3.6-2.8-8.5-6.7-14.5-11.7c-0.9-0.5-2.9-1.3-5.9-2.2C165.5,527.3,165,526.5,165,525.7z M217.7,549.2c5.2,0,8.9-1.9,10.9-5.7
		c0.6-1,0.8-2.3,0.8-3.6V539c0-5.3-2.7-8.8-8.1-10.6c-1-0.4-2.3-0.6-3.8-0.6h-0.8c-0.7,0-2.1,0.6-4.1,1.8c-4.8,0.9-7.3,2.9-7.3,6.1
		v1.1c0,6,2.6,9.9,7.8,11.7C214.5,549,216,549.2,217.7,549.2z M213.9,539.4v-0.8c0-0.6,0.6-1.3,1.8-2.1h2.6c0.6,0.6,0.8,1.5,0.8,2.7
		s-1,1.8-3,1.8h-0.3C214.6,540.7,213.9,540.1,213.9,539.4z"/>
	<path class="st0" d="M168.5,498.1V497c0-3.6,2.2-7.1,6.6-10.5c2.1-1.4,4.2-2.1,6.2-2.1c5.2,0,16,4.7,32.2,14.1
		c3.6,2,5.5,2.9,5.7,2.9v-0.1c0-2.4,1-5.3,3.1-8.8c0.8-1.7,1.2-3,1.2-4.2c0-0.6-0.4-0.9-1.2-1c0-1.9-1.7-4-5.1-6.3
		c-6.2-2.6-9.6-4.1-10-4.6v-1c0-0.2,0.1-0.3,0.3-0.3h0.6c0.5,0,3.7,1.2,9.7,3.5c1.7,0.5,4.3,0.9,7.9,1.3c2.1,2.3,3.2,4,3.2,5.2v0.6
		c0,1.9-1.6,6.4-4.7,13.5v0.3c0,2.2,3.5,6.5,10.5,12.7c0.5,0.7,0.8,1.1,0.8,1.4v1.1h-2c-4.7-1.6-9.6-3.9-14.8-6.8
		c-20.8-12-33.2-18-37.3-18c-3,0-5.7,1.4-8.2,4.3c-0.5,1.2-0.8,2.1-0.8,2.8v0.4c0,1.8,3.4,4.4,10.1,8c2.6,1.1,5.6,3.2,8.9,6.1
		c0,0.1,0.5,0.7,1.5,1.8c0,0.1-0.2,0.3-0.5,0.4h-1.1c-0.3,0-2.6-0.7-6.8-2.2c-1.1,0-2.2-0.4-3.5-1.3c-3.7-1.7-6.8-3.5-9.3-5.3
		C169.6,503,168.5,500.7,168.5,498.1z M182,499.2c0.4-0.9,1.4-1.9,2.8-3.1c1.8,1,2.8,2.2,2.8,3.6c0,0.9-0.7,1.5-2.2,1.8h-0.3
		C184.4,501.6,183.4,500.8,182,499.2z"/>
</g>
<text transform="matrix(6.123234e-17 -1 1 6.123234e-17 607.2477 271.7832)" class="st0" style="font-family:'SatanycDemoniacSt'; font-size:71.5049px;">12262</text>
<g transform="translate(-152.15 -188.58)">
	<g transform="matrix(.66254 0 0 .66254 51.345 63.64)">
		<g transform="translate(387.65 384.94)">
			<path class="st9" d="M1730.8-476.4l59.3-38.6v454.2l-29.6-1.7l-29.6-5.3L1730.8-476.4z"/>
			<path class="st10" d="M1760.5-509.4v-25.9l29.6-19.3v39.5l-59.3,38.6L1760.5-509.4z"/>
			<g transform="matrix(-1 0 0 1 -316.19 0)">
				<path class="st9" d="M-2165.5-476.4l59.3-38.6v454.2l-29.6-1.7l-29.6-5.3L-2165.5-476.4z"/>
				<path class="st10" d="M-2135.9-509.4v-25.9l29.6-19.3v39.5l-59.3,38.6L-2135.9-509.4z"/>
			</g>
		</g>
		<g transform="translate(387.65 384.94)">
			<path class="st11" d="M1771.4-480.7l-21.8,14.2v152l21.8-14.2V-480.7z M1771.4-296.9l-21.8,14.2v152l21.8-14.2V-296.9z"/>
			<path class="st11" d="M1808.8-480.7v152l21.8,14.2v-152L1808.8-480.7z M1808.8-296.9v152l21.8,14.2v-152L1808.8-296.9z"/>
		</g>
	</g>
</g>
<g>
	<path class="st0" d="M752,320.9c0.7-0.3,1.4-0.4,2-0.4c2,0,4.9,0.7,8.9,2c0.7-0.6,1.1-0.8,1.2-0.8c-2.4-3.1-3.6-5-3.8-5.9h0.1
		c0.3,0,2.3,2.1,6.1,6.3c1.8,1.8,6.1,2.7,12.9,2.7c3.7,0.5,6.8,0.7,9.1,0.7c13.8-0.6,20.7-1,20.7-1.3c0.3-0.5,0.8-0.7,1.5-0.7
		c0.1,0,1.8,1.1,4.9,3.2c1,0.5,2.7,1.1,5.2,1.8c0.3-0.2,0.7-0.3,1.1-0.3c0.4,0,0.8,0.6,1.4,1.7H817c-0.8-0.7-1.5-1-2-1
		c-1.7,0.2-4.2,0.7-7.6,1.4c-1.1,0-1.8,0-2.2-0.1c-4.3,0.1-7.7,0.1-10.4,0.1h-3.2c-2.6,0-6.1,0-10.6-0.1c-0.1,0.1-0.2,0.1-0.3,0.1
		l10.1,10.6c2.1,2.2,3.1,3.5,3.1,4H790c-2.7,0-4.6-0.6-5.5-1.8c-0.4-0.4-1.4-1.9-2.8-4.3c-0.9-1.1-3.1-3-6.5-5.4
		c-2.8-2.3-6.1-4-9.7-5.3c-1.5-0.9-3.5-2.4-6-4.3c-1.3-1.2-3.4-1.8-6.1-1.8C752.5,321.4,752,321.1,752,320.9z"/>
	<path class="st0" d="M751.9,293.3v-1.1c0-3.6,2.2-7.1,6.6-10.5c2.1-1.4,4.2-2.1,6.2-2.1c5.2,0,16,4.7,32.2,14.1
		c3.6,2,5.5,2.9,5.7,2.9v-0.1c0-2.4,1-5.3,3.1-8.8c0.8-1.7,1.2-3,1.2-4.2c0-0.6-0.4-0.9-1.2-1c0-1.9-1.7-4-5.1-6.3
		c-6.2-2.6-9.6-4.1-10-4.6v-1c0-0.2,0.1-0.3,0.3-0.3h0.6c0.5,0,3.7,1.2,9.7,3.5c1.7,0.5,4.3,0.9,7.9,1.3c2.1,2.3,3.2,4,3.2,5.2v0.6
		c0,1.9-1.6,6.4-4.7,13.5v0.3c0,2.2,3.5,6.5,10.5,12.7c0.5,0.7,0.8,1.1,0.8,1.4v1.1h-2c-4.7-1.6-9.6-3.9-14.8-6.8
		c-20.8-12-33.2-18-37.3-18c-3,0-5.7,1.4-8.2,4.3c-0.5,1.2-0.8,2.1-0.8,2.8v0.4c0,1.8,3.4,4.4,10.1,8c2.6,1.1,5.6,3.2,8.9,6.1
		c0,0.1,0.5,0.7,1.5,1.8c0,0.1-0.2,0.3-0.5,0.4h-1.1c-0.3,0-2.6-0.7-6.8-2.2c-1.1,0-2.2-0.4-3.5-1.3c-3.7-1.7-6.8-3.5-9.3-5.3
		C753,298.2,751.9,295.9,751.9,293.3z M765.3,294.4c0.4-0.9,1.4-1.9,2.8-3.1c1.8,1,2.8,2.2,2.8,3.6c0,0.9-0.7,1.5-2.2,1.8h-0.3
		C767.8,296.8,766.7,296,765.3,294.4z"/>
	<path class="st0" d="M751.9,248.1V247c0-3.6,2.2-7.1,6.6-10.5c2.1-1.4,4.2-2.1,6.2-2.1c5.2,0,16,4.7,32.2,14.1
		c3.6,2,5.5,2.9,5.7,2.9v-0.1c0-2.4,1-5.3,3.1-8.8c0.8-1.7,1.2-3,1.2-4.2c0-0.6-0.4-0.9-1.2-1c0-1.9-1.7-4-5.1-6.3
		c-6.2-2.6-9.6-4.1-10-4.6v-1c0-0.2,0.1-0.3,0.3-0.3h0.6c0.5,0,3.7,1.2,9.7,3.5c1.7,0.5,4.3,0.9,7.9,1.3c2.1,2.3,3.2,4,3.2,5.2v0.6
		c0,1.9-1.6,6.4-4.7,13.5v0.3c0,2.2,3.5,6.5,10.5,12.7c0.5,0.7,0.8,1.1,0.8,1.4v1.1h-2c-4.7-1.6-9.6-3.9-14.8-6.8
		c-20.8-12-33.2-18-37.3-18c-3,0-5.7,1.4-8.2,4.3c-0.5,1.2-0.8,2.1-0.8,2.8v0.4c0,1.8,3.4,4.4,10.1,8c2.6,1.1,5.6,3.2,8.9,6.1
		c0,0.1,0.5,0.7,1.5,1.8c0,0.1-0.2,0.3-0.5,0.4h-1.1c-0.3,0-2.6-0.7-6.8-2.2c-1.1,0-2.2-0.4-3.5-1.3c-3.7-1.7-6.8-3.5-9.3-5.3
		C753,253,751.9,250.7,751.9,248.1z M765.3,249.2c0.4-0.9,1.4-1.9,2.8-3.1c1.8,1,2.8,2.2,2.8,3.6c0,0.9-0.7,1.5-2.2,1.8h-0.3
		C767.8,251.6,766.7,250.8,765.3,249.2z"/>
	<path class="st0" d="M748.4,188.7c3.3,0.3,5.3,0.4,5.9,0.4c0.4,0,4.4-0.8,12-2.4h1.5c0.2,0,0.4,0.2,0.7,0.6c-0.6,1-2,1.8-4.1,2.5
		c-0.7,0-1.3,0.4-1.6,1.3c0.2,2.3,6.2,7.3,18.1,15.1c1.6,1,2.5,1.5,2.8,1.5c0.7-0.8,1-1.6,1-2.2c-0.8-3.5-1.2-5.7-1.2-6.7v-0.1
		c0-5.3,3.7-9.3,11-11.9c1.9-0.6,3.6-0.8,5.1-0.8h2.3c4.5,0.1,6.7,0.4,6.7,0.8c5.1,3.7,7.7,6.3,7.9,8c1.3,2.3,2,4.2,2,5.7v2.1
		c0,4.3-2.3,8.3-6.9,12.1c-3.3,1.6-5.6,2.4-6.9,2.4h-10.9c-0.6-0.7-2.9-1.3-6.9-2.1c-3.5-1.1-9-4.4-16.5-9.8
		c-3.6-2.8-8.5-6.7-14.5-11.7c-0.9-0.5-2.9-1.3-5.9-2.2C748.9,190.4,748.4,189.5,748.4,188.7z M801,212.2c5.2,0,8.9-1.9,10.9-5.7
		c0.6-1,0.8-2.3,0.8-3.6V202c0-5.3-2.7-8.8-8.1-10.6c-1-0.4-2.3-0.6-3.8-0.6H800c-0.7,0-2.1,0.6-4.1,1.8c-4.8,0.9-7.3,2.9-7.3,6.1
		v1.1c0,6,2.6,9.9,7.8,11.7C797.9,212,799.4,212.2,801,212.2z M797.3,202.4v-0.8c0-0.6,0.6-1.3,1.8-2.1h2.6c0.6,0.6,0.8,1.5,0.8,2.7
		s-1,1.8-3,1.8h-0.3C797.9,203.7,797.3,203.2,797.3,202.4z"/>
	<path class="st0" d="M751.9,161.1V160c0-3.6,2.2-7.1,6.6-10.5c2.1-1.4,4.2-2.1,6.2-2.1c5.2,0,16,4.7,32.2,14.1
		c3.6,2,5.5,2.9,5.7,2.9v-0.1c0-2.4,1-5.3,3.1-8.8c0.8-1.7,1.2-3,1.2-4.2c0-0.6-0.4-0.9-1.2-1c0-1.9-1.7-4-5.1-6.3
		c-6.2-2.6-9.6-4.1-10-4.6v-1c0-0.2,0.1-0.3,0.3-0.3h0.6c0.5,0,3.7,1.2,9.7,3.5c1.7,0.5,4.3,0.9,7.9,1.3c2.1,2.3,3.2,4,3.2,5.2v0.6
		c0,1.9-1.6,6.4-4.7,13.5v0.3c0,2.2,3.5,6.5,10.5,12.7c0.5,0.7,0.8,1.1,0.8,1.4v1.1h-2c-4.7-1.6-9.6-3.9-14.8-6.8
		c-20.8-12-33.2-18-37.3-18c-3,0-5.7,1.4-8.2,4.3c-0.5,1.2-0.8,2.1-0.8,2.8v0.4c0,1.8,3.4,4.4,10.1,8c2.6,1.1,5.6,3.2,8.9,6.1
		c0,0.1,0.5,0.7,1.5,1.8c0,0.1-0.2,0.3-0.5,0.4h-1.1c-0.3,0-2.6-0.7-6.8-2.2c-1.1,0-2.2-0.4-3.5-1.3c-3.7-1.7-6.8-3.5-9.3-5.3
		C753,166.1,751.9,163.8,751.9,161.1z M765.3,162.3c0.4-0.9,1.4-1.9,2.8-3.1c1.8,1,2.8,2.2,2.8,3.6c0,0.9-0.7,1.5-2.2,1.8h-0.3
		C767.8,164.6,766.7,163.8,765.3,162.3z"/>
</g>
<text transform="matrix(0.9084 -0.418 0.418 0.9084 1262.0891 -28.4481)" class="st0" style="font-family:'SatanycDemoniacSt'; font-size:71.5018px;">12262</text>
</svg>
