<svg id="Слой_1" data-name="Слой 1" xmlns="http://www.w3.org/2000/svg" viewBox="0 0 168.44 50"><defs><style>.cls-1{fill:#1d1e1b;}.cls-2{fill:#db2878;}</style></defs><circle class="cls-1" cx="46.56" cy="15.86" r="3.34"/><path class="cls-2" d="M37.63,11.71a3,3,0,0,1-.78-1.36A3,3,0,0,1,39,6.65l4.86-1.29A10.79,10.79,0,0,1,57,18.61l-1.31,4.85a3,3,0,1,1-5.85-1.58L51.2,17a4.73,4.73,0,0,0-5.79-5.81l-4.86,1.29A3,3,0,0,1,37.63,11.71Z"/><path class="cls-1" d="M30.42,17.15a3.34,3.34,0,1,1-4.1,2.35A3.34,3.34,0,0,1,30.42,17.15Z"/><path class="cls-2" d="M25.35,31.52,21.8,28a10.78,10.78,0,0,1,4.89-18l4.85-1.29a3,3,0,0,1,1.55,5.85l-4.85,1.29a4.73,4.73,0,0,0-2.14,7.92l3.54,3.56a3,3,0,1,1-4.29,4.27Z"/><path class="cls-1" d="M38.73,33.71a3.34,3.34,0,1,1,4.09,2.37A3.35,3.35,0,0,1,38.73,33.71Z"/><path class="cls-2" d="M34.33,40.56,30.79,37a3,3,0,1,1,4.29-4.28l3.55,3.56a4.66,4.66,0,0,0,4.57,1.24,4.71,4.71,0,0,0,3.36-3.34l1.31-4.85a3,3,0,0,1,5.84,1.58L52.4,35.76a10.79,10.79,0,0,1-18.07,4.8Z"/><path class="cls-2" d="M71,9.94,69.7,22.12a.76.76,0,0,1-.73.66H67.66a.59.59,0,0,1-.6-.66l.49-4.66A.59.59,0,0,0,67,16.8H65.49a.76.76,0,0,0-.74.66l-.49,4.66a.76.76,0,0,1-.73.66H62.22a.59.59,0,0,1-.6-.66L62.69,12a1.7,1.7,0,0,1,.1-.43c0-.31.06-.65.09-.9L63,9.94a.76.76,0,0,1,.74-.66h6.64a.58.58,0,0,1,.55.35C71,9.62,71,9.72,71,9.94Zm-3.81,4.82a.76.76,0,0,0,.74-.66L68.13,12a.59.59,0,0,0-.6-.67H66.07a.76.76,0,0,0-.74.67l-.22,2.12a.59.59,0,0,0,.59.66Z"/><path class="cls-2" d="M79.57,22.12a.76.76,0,0,1-.74.66H72.14c-.37,0-.65-.23-.62-.51l.11-1c0-.28.08-.81.12-1.17L72.6,12c0-.37.11-1,.14-1.33l.08-.71a.76.76,0,0,1,.74-.66h6.69a.59.59,0,0,1,.6.66l-.08.71a.75.75,0,0,1-.73.66H75.93a.76.76,0,0,0-.74.67l-.85,8.1a.59.59,0,0,0,.6.66H79a.59.59,0,0,1,.6.67Z"/><path class="cls-2" d="M89,9.29a.59.59,0,0,1,.59.66l-.07.71a.76.76,0,0,1-.74.67H87.36a.76.76,0,0,0-.74.66L85.55,22.12a.75.75,0,0,1-.73.66H83.56a.59.59,0,0,1-.59-.66L84,12a.59.59,0,0,0-.6-.66H81.38s0-.3.07-.67l.07-.7c0-.36.07-.66.08-.67H89Z"/><path class="cls-2" d="M91.37,9.92a.76.76,0,0,1,.74-.67h1.25a.59.59,0,0,1,.6.67l-1.28,12.2a.76.76,0,0,1-.74.66H90.69a.59.59,0,0,1-.6-.66Z"/><path class="cls-2" d="M99.21,22.78H95.1a.6.6,0,0,1-.6-.66V22l.11-1c0-.19.06-.65.1-1l.79-7.89c0-.36.09-1,.13-1.32l.08-.82a.76.76,0,0,1,.73-.66h6.7a.59.59,0,0,1,.6.66L102.53,22.1a.75.75,0,0,1-.73.67H99.21Zm.21-2.14a.76.76,0,0,0,.74-.67l.79-7.89a.6.6,0,0,0-.6-.66H99.2a.76.76,0,0,0-.73.66L97.68,20a.6.6,0,0,0,.6.67Z"/><path class="cls-2" d="M110.42,15.67a1.68,1.68,0,0,0-.38-1.16l-1.66-1.86c-.25-.27-.48-.2-.52.17l-1,9.29a.76.76,0,0,1-.74.66H104.9a.59.59,0,0,1-.6-.66L105.58,10a.76.76,0,0,1,.74-.66h1.25c.37,0,.67,0,.66,0h0a5.29,5.29,0,0,1,.46.49l1.65,1.84c.24.27.47.2.51-.17L111,9.93a.75.75,0,0,1,.74-.66H113a.58.58,0,0,1,.6.66l-1.28,12.19a.76.76,0,0,1-.74.66h-1.25a.59.59,0,0,1-.6-.66Z"/><path class="cls-2" d="M68.73,28.35l-.07.71c0,.37-.1,1-.14,1.33l-.89,8.4a3.83,3.83,0,0,1-.1.71s-.2.29-.41.59l-.38.56a1.43,1.43,0,0,1-1,.54H60a.59.59,0,0,1-.6-.66l.08-.71c0-.36.1-1,.14-1.33l.85-8.1c0-.36.1-1,.14-1.33l.07-.71a.76.76,0,0,1,.74-.66h6.69A.59.59,0,0,1,68.73,28.35Zm-3.4,1.38H64.19a.76.76,0,0,0-.74.66l-.85,8.1a.59.59,0,0,0,.6.67h1.14a.76.76,0,0,0,.74-.67l.85-8.1A.59.59,0,0,0,65.33,29.73Z"/><path class="cls-2" d="M72.47,41.19H69.88a.59.59,0,0,1-.6-.66l.49-4.65c0-.37.16-.67.27-.67s.11,0,0,.11-.18-.18-.14-.55l.1-.93c0-.37.1-1,.14-1.33l.43-4.16a.76.76,0,0,1,.74-.66H78a.59.59,0,0,1,.59.66l-.07.71a.76.76,0,0,1-.74.67H73.67a.76.76,0,0,0-.73.66l-.23,2.12a.59.59,0,0,0,.6.66h4.11a.6.6,0,0,1,.6.67l-.08.71a.76.76,0,0,1-.74.66H73.1a.76.76,0,0,0-.74.67l-.27,2.61a.59.59,0,0,0,.59.67h4.11a.58.58,0,0,1,.6.66l-.08.71a.75.75,0,0,1-.73.66Z"/><path class="cls-2" d="M82.43,27.69a.59.59,0,0,1,.6.66L82,38.49a.59.59,0,0,0,.6.67h3.89a.59.59,0,0,1,.6.66l-.08.71a.75.75,0,0,1-.74.66h-7c-.06,0-.08-.29,0-.66l1.28-12.18a.76.76,0,0,1,.74-.66Z"/><path class="cls-2" d="M90.78,41.19H88.19a.58.58,0,0,1-.59-.66l.48-4.65c0-.37.17-.67.28-.67s.1,0,0,.11-.18-.18-.14-.55l.1-.93c0-.37.1-1,.14-1.33l.44-4.16a.75.75,0,0,1,.73-.66h6.7a.59.59,0,0,1,.59.66l-.07.71a.76.76,0,0,1-.74.67H92a.76.76,0,0,0-.74.66L91,32.51a.58.58,0,0,0,.59.66h4.11a.59.59,0,0,1,.6.67l-.08.71a.76.76,0,0,1-.73.66H91.41a.76.76,0,0,0-.74.67l-.27,2.61a.59.59,0,0,0,.6.67h4.1a.58.58,0,0,1,.6.66l-.08.71a.74.74,0,0,1-.73.66Z"/><path class="cls-2" d="M103.48,36.89a.74.74,0,0,1,.73-.66h1.26a.58.58,0,0,1,.59.66l-.17,1.6c0,.37-.1,1-.14,1.33l-.07.71-.07.66H97.5s-.06-.3,0-.66l1.28-12.18a4.3,4.3,0,0,1,.09-.66h7.39a.59.59,0,0,1,.6.66l-.08.71a.76.76,0,0,1-.73.67h-4.16a.75.75,0,0,0-.74.66l-.85,8.12a.59.59,0,0,0,.59.67h1.7a.76.76,0,0,0,.74-.67Z"/><path class="cls-2" d="M116.74,28.35l-1.28,12.18a.75.75,0,0,1-.74.66h-1.3a.58.58,0,0,1-.6-.66l.49-4.65a.59.59,0,0,0-.6-.67h-1.46a.76.76,0,0,0-.74.67L110,40.53a.75.75,0,0,1-.74.66H108a.58.58,0,0,1-.6-.66l1.06-10.14a2,2,0,0,1,.1-.42c0-.32.07-.66.1-.91l.07-.71a.76.76,0,0,1,.74-.66h6.64a.59.59,0,0,1,.55.35C116.72,28,116.76,28.13,116.74,28.35Zm-3.81,4.82a.75.75,0,0,0,.73-.66l.23-2.12a.59.59,0,0,0-.6-.66h-1.47a.76.76,0,0,0-.74.66l-.22,2.12a.58.58,0,0,0,.6.66Z"/><path class="cls-2" d="M124.85,27.7a.59.59,0,0,1,.6.67l-.07.71a.77.77,0,0,1-.74.66h-1.39a.77.77,0,0,0-.74.66l-1.06,10.13a.75.75,0,0,1-.74.66h-1.25a.59.59,0,0,1-.6-.66l1.07-10.13a.59.59,0,0,0-.6-.66h-2s0-.3.07-.67l.07-.69c0-.37.07-.67.07-.67h7.36Z"/><path class="cls-2" d="M127.27,28.33a.75.75,0,0,1,.73-.66h1.26a.59.59,0,0,1,.59.66l-1.28,12.2a.75.75,0,0,1-.74.66h-1.25a.59.59,0,0,1-.6-.66Z"/><path class="cls-2" d="M135.11,41.19H131a.58.58,0,0,1-.6-.66v-.11c0-.37.08-.83.1-1s.07-.65.1-1l.79-7.89c0-.37.1-1,.13-1.33l.09-.82a.74.74,0,0,1,.73-.66H139a.59.59,0,0,1,.6.66l-1.21,12.17a.76.76,0,0,1-.73.66h-2.59Zm.21-2.14a.74.74,0,0,0,.73-.66l.79-7.89a.59.59,0,0,0-.6-.67H135.1a.75.75,0,0,0-.73.67l-.79,7.89a.59.59,0,0,0,.6.66Z"/><path class="cls-2" d="M146.31,34.08a1.74,1.74,0,0,0-.37-1.16l-1.66-1.86c-.25-.27-.48-.2-.52.17l-1,9.29a.75.75,0,0,1-.73.66h-1.26a.59.59,0,0,1-.59-.66l1.27-12.16a.76.76,0,0,1,.74-.66h1.25c.37,0,.67,0,.67,0h0a6.25,6.25,0,0,1,.45.49L146.24,30c.25.27.48.2.52-.17l.16-1.53a.76.76,0,0,1,.73-.66h1.26a.59.59,0,0,1,.59.66l-1.28,12.19a.74.74,0,0,1-.73.66h-1.26a.58.58,0,0,1-.59-.66Z"/></svg>