<svg id="Слой_1" data-name="Слой 1" xmlns="http://www.w3.org/2000/svg" viewBox="0 0 283.46 141.73"><defs><style>.cls-1{fill:#db2878;}.cls-2{fill:#1d1e1b;}</style></defs><path class="cls-1" d="M81.89,42.75a33.69,33.69,0,0,0-21.81-8.48l-.2,31.16Z"/><path class="cls-1" d="M54.22,34.06C32.16,34.06,15.87,52,15.87,74a40,40,0,0,0,39.94,40C71.28,114,85.66,104.81,91,93L55,74V34.08Z"/><polygon class="cls-2" points="74.81 57.07 69.03 75.5 72.37 77.28 80.57 51.16 74.81 57.07"/><polygon class="cls-2" points="67.36 64.73 64.7 73.18 68.04 74.97 73.11 58.82 67.36 64.73"/><path class="cls-2" d="M91.05,53.64,82,82.45l3.33,1.79,8.09-25.78A37.85,37.85,0,0,0,91.05,53.64Z"/><path class="cls-2" d="M94.07,60.12,86.33,84.76l3.34,1.79,6.11-19.46A36.59,36.59,0,0,0,94.07,60.12Z"/><path class="cls-2" d="M96.11,71.74c0-.63,0-1.25,0-1.87l-5.4,17.21,2,1A35.67,35.67,0,0,0,96.11,71.74Z"/><path class="cls-2" d="M85.36,46.23l-3.09,3.18-8.92,28.4,3.34,1.79,10-31.93C86.27,47.17,85.83,46.69,85.36,46.23Z"/><polygon class="cls-2" points="61.04 71.22 63.72 72.65 65.65 66.48 61.04 71.22"/><path class="cls-2" d="M87.56,48.65,77.68,80.13,81,81.92l9.27-29.53A36.57,36.57,0,0,0,87.56,48.65Z"/><path class="cls-1" d="M128.07,32.4l-.79,12.14L118.6,44V39.4l-3.31-.18-.48,21.1,4.63-.12.15-5.76,8.91.44L128,64.22l-3.72,4.07-18.2.41-1.27-32.2L108.57,32Z"/><path class="cls-1" d="M130.54,36.83l4.78-4.51,19.35,0-1,32.4-5,3.57-17.24.35Zm10.26,2.26-.38,22.35,3.84-.1.3-22.17Z"/><path class="cls-1" d="M160.45,31.76l19.5.38-.79,10.47-8.66-.51V39l-3.33-.18L167,44.57l12.62,8.73v1.78l.31,9.06-3.74,4.43-19.5-.38.79-10.46,8.68.51v3.08l3.31.15.12-3.23-12.37-9.58-.53-12.47Z"/><path class="cls-1" d="M180.71,35.27l3-2.9H203.5L203,40.49l-5.32-.15-.59,27.8-9.82.2.07-27.92-6.39.15Z"/><path class="cls-1" d="M217.7,36.83l4.79-4.51,19.34,0-1,32.4-5,3.57-17.23.35ZM228,39.09l-.38,22.35,3.84-.1.31-22.17Z"/><path class="cls-1" d="M247.59,32l19.5.38-.54,11-8.91-.51V39.27l-3.33-.18-.23,9.19,10.41-.07-.2,8.37-10.44,0-.26,12-8.58.17-1.14-32.27Z"/><path class="cls-1" d="M104.83,73.57l19.22,0L129,78.33l-.84,27.59-5,3.57-8.58.15-8.68.2Zm10.38,6.74-.4,22.35,3.87-.1.3-22.17Z"/><path class="cls-1" d="M134.74,73.24l6.77.12,12.7.23-.53,10.49L145,83.57l-.25-3.08-3.34-.18-.17,7.87,7.81-.05.31,8.35h-8.3l.15,6.06,3.31-.18.25-3.08L153,99l.35,7.81-3.05,2.7-18.23.21.1-2.45L131,77.67Z"/><path class="cls-1" d="M174.78,109.41l-19,0,.87-36,9.16.13.41,29.43,2.49-.33V99.46l8.66-.51.53,7.25Z"/><path class="cls-1" d="M199.78,73.44l5.14,36.05H194.41l-1.1-9-3.61.54-1.32,8.45-9.25.48,5.22-32,4.38-4.26ZM192,84.26l-1.45,9.83,2.22,0Z"/><path class="cls-1" d="M206.45,73l10.87.51,3.05,12.86,2.57-13,11.13-.13-8.45,22.35L225,109.11l-9.8.2.05-12.45Z"/></svg>