<?xml version="1.0" encoding="utf-8"?>
<!-- Generator: Adobe Illustrator 26.0.3, SVG Export Plug-In . SVG Version: 6.00 Build 0)  -->
<svg version="1.1" id="Слой_1" xmlns="http://www.w3.org/2000/svg" xmlns:xlink="http://www.w3.org/1999/xlink" x="0px" y="0px"
	 viewBox="0 0 365 200" style="enable-background:new 0 0 365 200;" xml:space="preserve">
<style type="text/css">
	.st0{clip-path:url(#SVGID_00000042711045289947132400000011240219841246236597_);}
	.st1{clip-path:url(#SVGID_00000087414714322493378570000002499160738286170776_);}
	.st2{clip-path:url(#SVGID_00000179613337633044159130000000592286385833245597_);}
	.st3{fill:#343434;}
	.st4{fill:#F3E600;}
	.st5{fill:#FFFFFF;}
	.st6{clip-path:url(#SVGID_00000170979581898543519340000012429200762411329963_);}
	.st7{fill:#163354;}
	.st8{clip-path:url(#SVGID_00000170993203507286075150000010960161657952697021_);}
	.st9{opacity:0.4;fill:#FFFFFF;enable-background:new    ;}
	.st10{fill:none;stroke:#FFFFFF;stroke-width:0.37;stroke-miterlimit:10;}
	.st11{clip-path:url(#SVGID_00000103232456995286015970000011442498067450933657_);}
	.st12{fill:none;stroke:#F1E511;stroke-width:0.37;stroke-miterlimit:10;}
	.st13{fill:#9A9999;stroke:#FFFFFF;stroke-width:0.56;stroke-miterlimit:10;}
	.st14{fill:#9A9999;stroke:#F1E511;stroke-width:0.56;stroke-miterlimit:10;}
	.st15{fill:none;stroke:#F1E511;stroke-width:0.36;stroke-miterlimit:10;}
	.st16{fill:none;stroke:#F1E511;stroke-width:0.34;stroke-miterlimit:10;}
	.st17{opacity:0.5;fill:none;stroke:#FFFFFF;stroke-width:0.37;stroke-miterlimit:10;enable-background:new    ;}
	.st18{fill:#FFFFFF;stroke:#FFFFFF;stroke-width:0.56;stroke-miterlimit:10;}
	.st19{opacity:0.5;}
	.st20{fill:none;stroke:#FFFFFF;stroke-width:9.5;stroke-miterlimit:10;stroke-dasharray:0.15,2.92;}
	.st21{opacity:0.13;}
	.st22{fill:#313132;}
	.st23{enable-background:new    ;}
</style>
<g>
	<g id="Слой_1_00000072275416033656497060000003355031067213862047_">
		<g>
			<defs>
				<rect id="SVGID_1_" x="-9.5" y="-5.9" width="382.5" height="220.9"/>
			</defs>
			<clipPath id="SVGID_00000066491546178893648520000005572558753135603849_">
				<use xlink:href="#SVGID_1_"  style="overflow:visible;"/>
			</clipPath>
			<g style="clip-path:url(#SVGID_00000066491546178893648520000005572558753135603849_);">
				<g>
					<defs>
						<rect id="SVGID_00000044888185163026759570000010267455576252139690_" x="-66.2" y="-37.9" width="519.3" height="275.8"/>
					</defs>
					<clipPath id="SVGID_00000104686741842067180550000007214811384091301300_">
						<use xlink:href="#SVGID_00000044888185163026759570000010267455576252139690_"  style="overflow:visible;"/>
					</clipPath>
					<g style="clip-path:url(#SVGID_00000104686741842067180550000007214811384091301300_);">
						<g>
							<defs>
								<rect id="SVGID_00000131368805046155888650000014965407103888702392_" x="191.9" y="-44" width="281.4" height="283.3"/>
							</defs>
							<clipPath id="SVGID_00000124156852649995624450000008624615726344821949_">
								<use xlink:href="#SVGID_00000131368805046155888650000014965407103888702392_"  style="overflow:visible;"/>
							</clipPath>
							<g style="clip-path:url(#SVGID_00000124156852649995624450000008624615726344821949_);">
								<rect x="187.1" y="177.2" class="st3" width="309.6" height="72.3"/>
								<rect x="187.1" y="-49.2" class="st3" width="309.6" height="72.3"/>
								<polygon class="st4" points="453.5,19.4 226.7,19.4 207,5.8 176.4,5.8 176.4,112.7 476.4,112.7 476.4,27.1 464.7,27.1 
																	"/>
								<polygon class="st4" points="453.5,197.8 226.7,197.8 207,211.4 176.4,211.4 176.4,104.4 476.4,104.4 476.4,190 464.7,190 
																	"/>
								<polygon class="st5" points="202.6,34 429.8,34 449.5,19.8 480.2,19.8 480.2,131.2 179.7,131.2 179.7,42 191.3,42 								
									"/>
								<polygon class="st5" points="197.5,149.7 428.9,149.7 448.9,163.8 480.2,163.8 480.2,52.4 174.2,52.4 174.2,141.6 
									186.1,141.6 								"/>
								<rect x="170" y="72.6" class="st4" width="312" height="35.5"/>
								<rect x="187" y="39.6" class="st4" width="9.9" height="108.4"/>
								
									<rect x="224.9" y="81.5" transform="matrix(0.7071 -0.7071 0.7071 0.7071 -24.8546 209.5309)" class="st4" width="31.3" height="106.6"/>
								<rect x="192" y="19.4" class="st4" width="304.6" height="170.6"/>
								<g>
									<defs>
										<rect id="SVGID_00000150104036671974203820000012654680209474283146_" x="192.1" y="-46.8" width="427" height="284.6"/>
									</defs>
									<clipPath id="SVGID_00000125584196961238213870000000003018260402660531_">
										<use xlink:href="#SVGID_00000150104036671974203820000012654680209474283146_"  style="overflow:visible;"/>
									</clipPath>
									<g style="clip-path:url(#SVGID_00000125584196961238213870000000003018260402660531_);">
										<path class="st4" d="M381.9,5.8L381.9,5.8v-48.3l-31.7,1.1l-4.1,1.6c-0.5,1-7.6,16.9,1.6,31.4
											C354.8,2.7,368.4,8.4,381.9,5.8z"/>
										<path class="st5" d="M360.9,0.7h-5.6c-11.5,0-20.9-9.4-20.9-20.9v-5.6c0-11.5,9.4-20.9,20.9-20.9h5.6
											c11.5,0,20.9,9.4,20.9,20.9v5.6C381.8-8.7,372.5,0.7,360.9,0.7z"/>
										<rect x="334.4" y="0.7" class="st5" width="47.4" height="47.4"/>
										<rect x="347.9" y="14.2" class="st3" width="20.3" height="20.3"/>
										<rect x="286.9" y="0.7" class="st4" width="47.4" height="47.4"/>
										<path class="st4" d="M334.4,48.1h-47.4l0,0V0.7l0,0h5.6c23.1,0,41.8,18.7,41.8,41.8c0,0,0,0,0,0V48.1L334.4,48.1z"/>
										<path class="st3" d="M239.5,48.1h-47.4l0,0V0.7l0,0h5.6c23.1,0,41.8,18.7,41.8,41.8c0,0,0,0,0,0V48.1L239.5,48.1z"/>
										<path class="st3" d="M286.9,48.1h-47.4l0,0v-5.7c0-23.1,18.7-41.8,41.8-41.8l0,0h5.6l0,0L286.9,48.1L286.9,48.1
											L286.9,48.1z"/>
										<path class="st3" d="M292.6,95.5h-5.6l0,0V48.1l0,0h47.4l0,0v5.6C334.4,76.8,315.7,95.5,292.6,95.5L292.6,95.5z"/>
										<path class="st3" d="M286.9,95.5h-5.6c-23.1,0-41.8-18.7-41.8-41.8l0,0v-5.6l0,0h47.4l0,0V95.5L286.9,95.5z"/>
										<path class="st3" d="M286.9,48.1h23.5c0-13-10.5-23.5-23.5-23.5l0,0V48.1z"/>
										<path class="st3" d="M286.9,48.1h-23.5l0,0v-2.8c0-11.4,9.3-20.7,20.7-20.7l0,0h2.8l0,0L286.9,48.1L286.9,48.1z"/>
										<path class="st3" d="M286.9,71.6L286.9,71.6V48.1h-23.5C263.5,61.1,274,71.6,286.9,71.6z"/>
										<path class="st3" d="M239.5,95.5V48.1h-47.4C192.1,74.3,213.3,95.5,239.5,95.5C239.5,95.5,239.5,95.5,239.5,95.5
											L239.5,95.5z"/>
										<path class="st3" d="M192.1,143h47.4V95.5l0,0C213.3,95.5,192.1,116.8,192.1,143C192.1,143,192.1,143,192.1,143z"/>
										<path class="st7" d="M286.9,143h-47.4l0,0V95.5l0,0h5.6c23.1,0,41.8,18.7,41.8,41.8l0,0L286.9,143L286.9,143z"/>
										<path class="st3" d="M286.9,143h-47.4l0,0V95.5l0,0h5.6c23.1,0,41.8,18.7,41.8,41.8l0,0L286.9,143L286.9,143z"/>
										<path class="st4" d="M381.8,190.4L381.8,190.4v47.4h-47.4C334.4,211.7,355.6,190.4,381.8,190.4
											C381.8,190.4,381.8,190.4,381.8,190.4z"/>
										<path class="st4" d="M334.4,190.4L334.4,190.4c0,26.2-21.2,47.4-47.4,47.4l0,0C286.9,211.7,308.2,190.4,334.4,190.4
											C334.4,190.4,334.4,190.4,334.4,190.4z"/>
										<path class="st5" d="M384.6,130.2L384.6,130.2c2.7,30.6-20,57.6-50.6,60.3c0,0,0,0,0,0l0,0
											C331.3,159.9,354,132.9,384.6,130.2C384.6,130.2,384.6,130.2,384.6,130.2z"/>
										<path class="st3" d="M286.9,143L286.9,143c26.2,0,47.4,21.2,47.4,47.4l0,0l0,0C308.2,190.4,286.9,169.2,286.9,143
											C286.9,143,286.9,143,286.9,143z"/>
										<path class="st3" d="M279.5,137.2L279.5,137.2c6.5,0,11.8,5.3,11.9,11.8l0,0c0,6.6-5.3,11.9-11.9,11.9l0,0
											c-6.6,0-11.9-5.3-11.9-11.9l0,0C267.7,142.5,273,137.2,279.5,137.2z"/>
										<rect x="205.7" y="156.6" class="st4" width="20.2" height="20.2"/>
									</g>
								</g>
								<path class="st3" d="M347.4,66.7h154.9c0,42.8-34.7,77.4-77.4,77.4H270C270,101.4,304.7,66.7,347.4,66.7z"/>
							</g>
						</g>
						<rect x="-111.1" y="-54.2" class="st3" width="309.6" height="72.3"/>
						<rect x="-111.1" y="172.2" class="st3" width="309.6" height="72.3"/>
						
							<rect x="129.5" y="7.3" transform="matrix(0.7071 -0.7071 0.7071 0.7071 -0.2976 120.3416)" class="st4" width="31.3" height="106.5"/>
						<rect x="-111.1" y="5.3" class="st4" width="303.2" height="170.6"/>
						<g>
							<defs>
								<rect id="SVGID_00000097486377374617133310000007258780864140349586_" x="-233.4" y="-42.6" width="427" height="284.6"/>
							</defs>
							<clipPath id="SVGID_00000150820382621852426160000006278239989772340670_">
								<use xlink:href="#SVGID_00000097486377374617133310000007258780864140349586_"  style="overflow:visible;"/>
							</clipPath>
							<g style="clip-path:url(#SVGID_00000150820382621852426160000006278239989772340670_);">
								<path class="st4" d="M3.8,194.6h-47.4c0,26.2,21.2,47.4,47.4,47.4c0,0,0,0,0,0l0,0V194.6z"/>
								<path class="st4" d="M3.8,189.6L3.8,189.6v48.3l40-2.8c0.8-1.9,1.4-4,1.7-6.1c2.1-12.9-6.1-23.4-7.6-25.3
									C26.2,188.7,5.9,189.4,3.8,189.6z"/>
								<path class="st5" d="M24.7,194.6h5.6c11.5,0,20.9,9.4,20.9,20.9v5.6c0,11.5-9.4,20.9-20.9,20.9h-5.6
									c-11.5,0-20.9-9.4-20.9-20.9v-5.6C3.8,204,13.2,194.6,24.7,194.6z"/>
								<path class="st5" d="M3.8,147.2L3.8,147.2c-26.2,0-47.4,21.2-47.4,47.4c0,0,0,0,0,0H3.8V147.2z"/>
								<path class="st4" d="M3.8,167.7L3.8,167.7c-14.9,0-27,12.1-27,27l0,0h27L3.8,167.7z"/>
								<rect x="3.8" y="147.2" class="st5" width="47.4" height="47.4"/>
								<rect x="17.4" y="160.8" class="st3" width="20.3" height="20.3"/>
								<rect x="51.2" y="147.2" class="st4" width="47.4" height="47.4"/>
								<path class="st5" d="M51.2,147.2h47.4l0,0v47.4l0,0H93c-23.1,0-41.8-18.7-41.8-41.8c0,0,0,0,0,0L51.2,147.2L51.2,147.2z"/>
								<path class="st3" d="M98.7,147.2h47.4l0,0v5.6c0,23.1-18.7,41.8-41.8,41.8h-5.7l0,0V147.2L98.7,147.2z"/>
								<path class="st3" d="M93,99.8h5.6l0,0v47.4l0,0H51.2l0,0v-5.6C51.2,118.5,69.9,99.8,93,99.8z"/>
								<path class="st3" d="M98.7,99.8h5.6c23.1,0,41.8,18.7,41.8,41.8l0,0v5.6l0,0H98.7l0,0V99.8L98.7,99.8z"/>
								<path class="st3" d="M98.7,147.2H75.2c0,13,10.5,23.5,23.5,23.5c0,0,0,0,0,0l0,0V147.2z"/>
								<path class="st3" d="M98.7,147.2h23.5l0,0v2.8c0,11.4-9.3,20.7-20.7,20.7c0,0,0,0,0,0h-2.8l0,0V147.2L98.7,147.2z"/>
								<path class="st4" d="M98.7,123.7L98.7,123.7v23.5h23.5C122.2,134.2,111.6,123.7,98.7,123.7z"/>
								<path class="st3" d="M193.5,52.3h-47.4v47.4l0,0C172.3,99.8,193.5,78.5,193.5,52.3C193.5,52.3,193.5,52.3,193.5,52.3
									L193.5,52.3z"/>
								<path class="st7" d="M98.7,52.3h47.4l0,0v47.4l0,0h-5.6c-23.1,0-41.8-18.7-41.8-41.8V52.3L98.7,52.3z"/>
								<path class="st3" d="M98.7,52.3h47.4l0,0v47.4l0,0h-5.6c-23.1,0-41.8-18.7-41.8-41.8V52.3L98.7,52.3z"/>
								<path class="st3" d="M175.9,52.3h-29.8v29.8l0,0C162.6,82.1,175.9,68.8,175.9,52.3z"/>
								<path class="st4" d="M115.8,52h30.1l0,0v30.1l0,0h-3.6c-14.6,0-26.5-11.9-26.5-26.5v0L115.8,52L115.8,52z"/>
								<path class="st5" d="M3.8,4.9L3.8,4.9c-26.2,0-47.4-21.2-47.4-47.4c0,0,0,0,0,0H3.8V4.9z"/>
								<path class="st4" d="M3.8,4.9L3.8,4.9v-47.4h47.4C51.2-16.3,30,4.9,3.8,4.9C3.8,4.9,3.8,4.9,3.8,4.9z"/>
								<path class="st4" d="M51.2,4.9L51.2,4.9c0-26.2,21.2-47.4,47.4-47.4c0,0,0,0,0,0l0,0C98.7-16.4,77.4,4.9,51.2,4.9
									C51.2,4.9,51.2,4.9,51.2,4.9z"/>
								<path class="st5" d="M1,65.1L1,65.1C-1.7,34.4,21,7.5,51.6,4.8c0,0,0,0,0,0l0,0C54.3,35.4,31.6,62.4,1,65.1
									C1,65.1,1,65.1,1,65.1z"/>
								<path class="st3" d="M98.7,52.3L98.7,52.3c-26.2,0-47.4-21.2-47.4-47.4c0,0,0,0,0,0l0,0C77.4,4.9,98.7,26.1,98.7,52.3
									C98.7,52.3,98.7,52.3,98.7,52.3z"/>
								<path class="st3" d="M106.1,58.2L106.1,58.2c-6.6,0-11.9-5.3-11.9-11.9c0,0,0,0,0,0l0,0c0-6.6,5.3-11.9,11.9-11.9l0,0l0,0
									c6.6,0,11.9,5.3,11.9,11.8c0,0,0,0,0,0l0,0C118,52.8,112.7,58.2,106.1,58.2C106.1,58.2,106.1,58.2,106.1,58.2z"/>
								<rect x="146.1" y="4.9" class="st3" width="47.4" height="47.4"/>
								<rect x="159.7" y="18.5" class="st3" width="20.2" height="20.2"/>
							</g>
						</g>
						<path class="st3" d="M38.2,128.6h-154.9c0-42.8,34.7-77.4,77.4-77.4h154.9C115.6,93.9,80.9,128.6,38.2,128.6z"/>
						<path class="st3" d="M146.1,147.2h52.3l0,0v52.3l0,0h-6.2c-25.4,0-46-20.6-46-46l0,0L146.1,147.2L146.1,147.2z"/>
						<path class="st3" d="M146.1,94.9v52.3h52.3C198.4,118.3,175,94.9,146.1,94.9z"/>
						<ellipse class="st3" cx="147" cy="166.6" rx="16.6" ry="19.4"/>
						<rect x="184.1" y="139" class="st3" width="78.7" height="86.2"/>
						<path class="st9" d="M263.6,142.7h-24.2c0,13.4,10.8,24.3,24.2,24.3c0,0,0,0,0,0l0,0V142.7z"/>
						<path class="st3" d="M292.5,125L98.5,156.4l-1.5-85.3c12.1,9.5,29.1,19.4,45.7,15.2c13.5-3.4,15.2-13.1,31.4-23.7
							c30-19.5,64.7-12.6,66.5-12.2c29.5,6.3,46.6,26.9,52,34L292.5,125z"/>
						<rect x="225" y="9.5" class="st3" width="32" height="44.3"/>
						<polygon class="st10" points="171.8,6.1 166.2,6.1 163.4,10.9 166.2,15.7 171.8,15.7 174.5,10.9 						"/>
						<polygon class="st10" points="78.7,25.7 73.5,25.7 71,30.1 73.5,34.6 78.7,34.6 81.3,30.1 						"/>
						<polygon class="st10" points="27.9,95.6 23.8,95.6 21.7,99.2 23.8,102.7 27.9,102.7 29.9,99.2 						"/>
						<polygon class="st10" points="32.6,189.2 28.5,189.2 26.4,192.8 28.5,196.4 32.6,196.4 34.7,192.8 						"/>
						<polygon class="st10" points="253.7,20.1 230.9,20.1 219.5,39.8 230.9,59.5 253.7,59.5 265,39.8 						"/>
						<polygon class="st10" points="356.1,184.6 349.9,184.6 346.7,190 349.9,195.4 356.1,195.4 359.3,190 						"/>
						<g>
							<defs>
								
									<rect id="SVGID_00000072238477255563445270000004672318083872960440_" x="-118.9" y="-109.8" width="622.4" height="414.9"/>
							</defs>
							<clipPath id="SVGID_00000024688377771906569230000007818730279985355672_">
								<use xlink:href="#SVGID_00000072238477255563445270000004672318083872960440_"  style="overflow:visible;"/>
							</clipPath>
							<g style="clip-path:url(#SVGID_00000024688377771906569230000007818730279985355672_);">
								<polygon class="st4" points="68.3,67.8 -47.4,67.8 -64.1,51.1 -188,51.1 -188,53 -81.8,53 -64.2,70.6 69.1,70.6 								"/>
								<polygon class="st4" points="-67.7,77.3 10.9,77.3 12.4,78.8 -72.8,78.8 -87.5,64.2 -142.7,64.2 -144.5,62.3 -82,62.3 
																	"/>
								<polygon class="st4" points="51.9,138.2 -48.5,138.2 -52.1,141.7 48.5,141.7 								"/>
								<path class="st4" d="M343.9,164.2l-17.6-17.6h-34.7c0.9,0.9,1.7,1.8,2.5,2.8h15.3l16.8,16.8h123.9v-1.9H343.9z"/>
								<polygon class="st4" points="547.8,69.9 458,69.9 451,63 317.7,63 302.8,48.1 292,48.1 289.9,46 314.7,46 328.7,60.1 
									490.5,60.1 498.5,68.1 551.3,68.1 								"/>
								<polygon class="st4" points="352.6,56.9 453,56.9 456.5,53.4 356,53.4 								"/>
								<polygon class="st4" points="361.6,144.3 347.9,144.3 344.4,140.8 358.2,140.8 								"/>
							</g>
						</g>
						<polygon class="st4" points="14.6,87.1 6.9,94.9 -61.9,94.9 -55.7,88.7 -55.7,93.2 6.3,93.2 12.4,87.1 						"/>
						<path class="st4" d="M314.2,125.9l7.7-14l125,0.2l-11.2,11.2v-8.2H323.9l-6.2,10.6L314.2,125.9z"/>
						<polygon class="st4" points="454.4,171.8 371,171.8 349.4,150.2 349.4,157.8 351.9,155.4 369.9,173.4 454.4,173.4 						"/>
						<polyline class="st12" points="117.7,87.7 18.5,87.7 8.7,97.5 -63.7,97.5 -96.6,64.6 -118.9,64.6 						"/>
						<polyline class="st12" points="121.2,120.8 72,120.8 29.5,163.4 -71.6,163.4 -84.3,176.1 -118.9,176.1 						"/>
						<line class="st12" x1="124.6" y1="131.3" x2="61.6" y2="131.3"/>
						<path class="st10" d="M-118.9,39.8H13.1l5.5,5.5"/>
						<polygon class="st13" points="20.4,47 20.1,43.8 18.6,45.2 17.1,46.7 						"/>
						<polyline class="st12" points="116.1,107.6 45.5,107.6 33.2,119.9 12,119.9 						"/>
						<path class="st14" d="M12.7,119.9c0,0.7-0.6,1.3-1.3,1.3c-0.7,0-1.3-0.6-1.3-1.3c0-0.7,0.6-1.3,1.3-1.3c0,0,0,0,0,0
							C12.1,118.6,12.7,119.1,12.7,119.9C12.7,119.9,12.7,119.9,12.7,119.9z"/>
						<polyline class="st10" points="117.8,73.6 2.7,73.6 -40.8,30.1 						"/>
						<polyline class="st12" points="128.2,54.5 0.1,54.5 -8.1,62.8 						"/>
						<polyline class="st12" points="113.5,102.3 41.8,102.3 33.8,110.4 -61.9,110.4 						"/>
						<polygon class="st14" points="48.1,159.2 44.9,159.5 46.3,161 47.8,162.4 						"/>
						<polyline class="st12" points="-57,172.9 34.3,172.9 46.3,160.9 						"/>
						<polyline class="st12" points="265.8,117.2 365.1,117.2 374.9,107.4 447.2,107.4 480.1,140.3 502.4,140.3 						"/>
						<polyline class="st15" points="269.1,84 316.9,84 358.2,41.5 456.5,41.5 468.8,28.8 504.5,28.8 						"/>
						<path class="st12" d="M503.5,175.7H344.6l-5.5-5.5"/>
						<polygon class="st14" points="337.4,168.6 337.7,171.8 339.1,170.3 340.6,168.9 						"/>
						<polyline class="st16" points="280.8,97.3 342.4,97.3 353.1,85 371.6,85 						"/>
						<polyline class="st12" points="265.8,131.3 380.8,131.3 424.3,174.8 						"/>
						<polyline class="st15" points="279.6,102.5 347.3,102.5 354.9,94.5 445.4,94.5 						"/>
						<polygon class="st14" points="335.5,45.7 338.7,45.4 337.2,43.9 335.8,42.5 						"/>
						<polyline class="st12" points="440.5,32 349.2,32 337.2,43.9 						"/>
						<circle class="st10" cx="192.8" cy="98.1" r="136"/>
						<path class="st10" d="M315,19.7c28.3,44.1,30.6,100.1,6.1,146.4"/>
						<path class="st17" d="M82.7,192.8C30.4,132,37.3,40.3,98.1-12c4.1-3.6,8.5-6.9,13-10"/>
						<path class="st4" d="M92.5,179.3c-0.3-0.4-0.2-0.9,0.1-1.2l0,0c0.4-0.3,0.9-0.2,1.2,0.1c0,0,0,0,0,0l0,0
							c0.3,0.4,0.2,0.9-0.1,1.2c0,0,0,0,0,0l0,0c-0.1,0.1-0.3,0.2-0.5,0.2l0,0C92.9,179.6,92.6,179.5,92.5,179.3z M87.5,172.6
							c-0.3-0.4-0.2-0.9,0.2-1.2l0,0c0.4-0.3,0.9-0.2,1.2,0.2c0,0,0,0,0,0l0,0c0.3,0.4,0.2,0.9-0.2,1.2l0,0
							c-0.1,0.1-0.3,0.2-0.5,0.1l0,0C87.9,173,87.6,172.9,87.5,172.6L87.5,172.6z M82.9,165.6c-0.2-0.4-0.1-0.9,0.3-1.1l0,0
							c0.4-0.2,0.9-0.1,1.2,0.3l0,0c0.2,0.4,0.1,0.9-0.3,1.1c0,0,0,0,0,0l0,0c-0.1,0.1-0.3,0.1-0.4,0.1l0,0
							C83.3,166,83,165.9,82.9,165.6L82.9,165.6z M78.7,158.4c-0.2-0.4-0.1-0.9,0.3-1.1l0,0c0.4-0.2,0.9-0.1,1.1,0.3l0,0
							c0.2,0.4,0.1,0.9-0.3,1.1l0,0c-0.1,0.1-0.3,0.1-0.4,0.1l0,0C79.1,158.9,78.8,158.7,78.7,158.4L78.7,158.4z M75,150.9
							c-0.2-0.4,0-0.9,0.4-1.1l0,0c0.4-0.2,0.9,0,1.1,0.4l0,0c0.2,0.4,0,0.9-0.4,1.1l0,0c-0.1,0-0.2,0.1-0.3,0.1l0,0
							C75.4,151.4,75.1,151.2,75,150.9z M299,27.7c-0.2-0.4-0.1-0.9,0.2-1.2l0,0c0.4-0.3,0.9-0.2,1.1,0.2l0,0
							c0.2,0.4,0.1,0.9-0.2,1.2l0,0c-0.1,0.1-0.3,0.1-0.5,0.1l0,0C299.4,28.1,299.2,28,299,27.7z M294.2,21
							c-0.3-0.3-0.2-0.9,0.1-1.1c0,0,0,0,0,0l0,0c0.4-0.3,0.9-0.2,1.2,0.2l0,0c0.3,0.4,0.2,0.9-0.1,1.2l0,0
							c-0.1,0.1-0.3,0.2-0.5,0.2l0,0C294.6,21.3,294.3,21.2,294.2,21z M289,14.6L289,14.6c-0.3-0.3-0.3-0.9,0.1-1.2c0,0,0,0,0,0l0,0
							c0.3-0.3,0.9-0.3,1.2,0.1l0,0c0.3,0.3,0.3,0.9-0.1,1.2l0,0c-0.2,0.1-0.3,0.2-0.5,0.2l0,0C289.4,14.9,289.2,14.8,289,14.6z
							 M283.4,8.6c-0.3-0.3-0.3-0.9,0-1.2l0,0c0.3-0.3,0.9-0.3,1.2,0l0,0c0.3,0.3,0.3,0.8,0,1.2l0,0c-0.2,0.2-0.4,0.2-0.6,0.2l0,0
							C283.8,8.8,283.5,8.7,283.4,8.6L283.4,8.6z M277.4,2.9c-0.3-0.3-0.4-0.8-0.1-1.2l0,0c0.3-0.3,0.8-0.4,1.2-0.1l0,0
							c0.3,0.3,0.4,0.8,0.1,1.2l0,0c-0.2,0.2-0.4,0.3-0.6,0.3l0,0C277.7,3.1,277.5,3,277.4,2.9L277.4,2.9z M109.8,0.3
							c-0.3-0.4-0.3-0.9,0.1-1.2c0,0,0,0,0,0l0,0c0.4-0.3,0.9-0.2,1.2,0.1l0,0c0.3,0.4,0.3,0.9-0.1,1.2c0,0,0,0,0,0l0,0
							c-0.1,0.1-0.3,0.2-0.5,0.2l0,0C110.1,0.6,109.9,0.5,109.8,0.3z M271.1-2.4L271.1-2.4c-0.4-0.3-0.4-0.8-0.2-1.1c0,0,0,0,0,0
							l0,0c0.3-0.4,0.8-0.4,1.2-0.1l0,0c0.4,0.3,0.4,0.8,0.1,1.2l0,0c-0.2,0.2-0.4,0.3-0.7,0.3l0,0C271.4-2.2,271.2-2.3,271.1-2.4z
							 M116.2-4.8c-0.3-0.4-0.2-0.9,0.2-1.2l0,0c0.4-0.3,0.9-0.2,1.2,0.2l0,0c0.3,0.4,0.2,0.9-0.2,1.1c0,0,0,0,0,0l0,0
							c-0.1,0.1-0.3,0.2-0.5,0.2l0,0C116.6-4.5,116.4-4.6,116.2-4.8z M264.4-7.3L264.4-7.3c-0.4-0.2-0.5-0.7-0.2-1.1c0,0,0,0,0,0
							l0,0c0.3-0.4,0.8-0.5,1.1-0.2l0,0c0.4,0.3,0.5,0.8,0.2,1.2l0,0c-0.2,0.2-0.4,0.4-0.7,0.4l0,0C264.7-7.1,264.5-7.2,264.4-7.3z
							 M123.1-9.6c-0.2-0.4-0.1-0.9,0.2-1.1c0,0,0,0,0,0l0,0c0.4-0.2,0.9-0.1,1.2,0.2l0,0c0.2,0.4,0.1,0.9-0.3,1.1l0,0
							c-0.1,0.1-0.3,0.1-0.4,0.1l0,0C123.5-9.2,123.2-9.3,123.1-9.6z M257.4-11.7L257.4-11.7c-0.4-0.2-0.5-0.7-0.3-1.1l0,0
							c0.2-0.4,0.7-0.5,1.1-0.3c0,0,0,0,0,0l0,0c0.4,0.2,0.5,0.7,0.3,1.1c0,0,0,0,0,0l0,0c-0.1,0.3-0.4,0.4-0.7,0.4l0,0
							C257.7-11.6,257.6-11.6,257.4-11.7z M130.2-13.9c-0.2-0.4-0.1-0.9,0.3-1.1c0,0,0,0,0,0l0,0c0.4-0.2,0.9-0.1,1.1,0.3
							c0,0,0,0,0,0l0,0c0.2,0.4,0.1,0.9-0.3,1.1l0,0c-0.1,0.1-0.3,0.1-0.4,0.1l0,0C130.6-13.4,130.3-13.6,130.2-13.9z M250.2-15.7
							L250.2-15.7c-0.4-0.2-0.6-0.7-0.4-1.1c0,0,0,0,0,0l0,0c0.2-0.4,0.7-0.6,1.1-0.4l0,0c0.4,0.2,0.6,0.7,0.4,1.1c0,0,0,0,0,0l0,0
							c-0.1,0.3-0.4,0.5-0.7,0.4l0,0C250.4-15.6,250.3-15.6,250.2-15.7L250.2-15.7z M137.5-17.7c-0.2-0.4,0-0.9,0.4-1.1l0,0
							c0.4-0.2,0.9,0,1.1,0.4l0,0c0.2,0.4,0,0.9-0.4,1.1c0,0,0,0,0,0l0,0c-0.1,0.1-0.2,0.1-0.4,0.1l0,0
							C137.9-17.2,137.6-17.4,137.5-17.7L137.5-17.7z M242.7-19.1c-0.4-0.2-0.6-0.7-0.4-1.1c0,0,0,0,0,0l0,0
							c0.2-0.4,0.7-0.6,1.1-0.4c0,0,0,0,0,0l0,0c0.4,0.2,0.6,0.7,0.4,1.1c0,0,0,0,0,0l0,0c-0.1,0.3-0.4,0.5-0.8,0.5l0,0
							C242.9-19.1,242.8-19.1,242.7-19.1L242.7-19.1z M145.1-21c-0.2-0.4,0-0.9,0.5-1.1l0,0c0.4-0.2,0.9,0,1.1,0.5l0,0
							c0.2,0.4,0,0.9-0.5,1.1l0,0c-0.1,0-0.2,0.1-0.3,0.1l0,0C145.5-20.5,145.2-20.7,145.1-21z M235-22.1c-0.4-0.2-0.7-0.6-0.5-1
							l0,0c0.2-0.4,0.6-0.7,1.1-0.5c0,0,0,0,0,0l0,0c0.4,0.2,0.7,0.6,0.5,1.1l0,0c-0.1,0.3-0.4,0.6-0.8,0.5l0,0
							C235.2-22.1,235.1-22.1,235-22.1z M152.9-23.8c-0.1-0.4,0.1-0.9,0.5-1l0,0c0.4-0.1,0.9,0.1,1,0.5c0,0,0,0,0,0l0,0
							c0.1,0.4-0.1,0.8-0.5,1l0,0c-0.1,0-0.2,0-0.2,0l0,0C153.4-23.3,153-23.5,152.9-23.8L152.9-23.8z M227.1-24.6
							c-0.4-0.1-0.7-0.6-0.6-1l0,0c0.1-0.4,0.6-0.7,1-0.6l0,0c0.4,0.1,0.7,0.6,0.6,1l0,0c-0.1,0.4-0.4,0.6-0.8,0.6l0,0
							C227.3-24.6,227.2-24.6,227.1-24.6L227.1-24.6z M160.9-26.2c-0.1-0.4,0.2-0.9,0.6-1l0,0c0.4-0.1,0.9,0.2,1,0.6l0,0
							c0.1,0.4-0.2,0.9-0.6,1c0,0,0,0,0,0l0,0c-0.1,0-0.1,0-0.2,0l0,0C161.3-25.6,161-25.8,160.9-26.2L160.9-26.2z M219.1-26.6
							c-0.5-0.1-0.7-0.5-0.6-1l0,0c0.1-0.4,0.5-0.7,1-0.6c0,0,0,0,0,0l0,0c0.4,0.1,0.7,0.5,0.6,1c0,0,0,0,0,0l0,0
							c-0.1,0.4-0.4,0.7-0.8,0.7l0,0L219.1-26.6z M169-28c-0.1-0.4,0.2-0.9,0.6-1c0,0,0,0,0.1,0l0,0c0.4-0.1,0.9,0.2,1,0.6
							c0,0,0,0,0,0l0,0c0.1,0.4-0.2,0.9-0.6,1c0,0,0,0,0,0h-0.1C169.4-27.3,169.1-27.6,169-28z M211-28L211-28
							c-0.5-0.1-0.8-0.5-0.7-0.9l0,0c0.1-0.5,0.5-0.8,0.9-0.7l0,0c0.5,0.1,0.8,0.5,0.7,0.9l0,0c-0.1,0.4-0.4,0.7-0.8,0.7H211z
							 M177.2-29.2c0-0.5,0.3-0.9,0.7-0.9l0,0c0.5,0,0.9,0.3,0.9,0.7l0,0c0,0.5-0.3,0.9-0.7,0.9H178
							C177.6-28.5,177.2-28.8,177.2-29.2L177.2-29.2z M202.8-28.9c-0.4,0-0.8-0.4-0.8-0.9c0,0,0,0,0,0l0,0c0-0.5,0.4-0.8,0.9-0.8
							c0,0,0,0,0,0l0,0c0.5,0,0.8,0.4,0.8,0.9l0,0C203.7-29.2,203.3-28.9,202.8-28.9L202.8-28.9L202.8-28.9z M185.4-29.9
							c0-0.5,0.3-0.8,0.8-0.9l0,0c0.5,0,0.8,0.3,0.9,0.8l0,0c0,0.5-0.3,0.8-0.8,0.9c0,0,0,0,0,0l0,0
							C185.9-29.1,185.5-29.5,185.4-29.9C185.5-29.9,185.5-29.9,185.4-29.9L185.4-29.9z M194.6-29.3L194.6-29.3
							c-0.5,0-0.8-0.4-0.8-0.8c0,0,0,0,0,0l0,0c0-0.5,0.4-0.8,0.8-0.8c0,0,0,0,0,0l0,0c0.5,0,0.8,0.4,0.8,0.8c0,0,0,0,0,0l0,0
							C195.4-29.6,195-29.3,194.6-29.3L194.6-29.3L194.6-29.3L194.6-29.3z"/>
						<path class="st10" d="M156.4,35.2L133.9-3.5c27.4-15.8,60-20,90.4-11.5l-12,43.2C193.5,22.9,173.4,25.5,156.4,35.2L156.4,35.2
							z"/>
						<path class="st18" d="M193.3,231l-0.1-6.6c19.2-0.2,38.1-4.8,55.3-13.4l3,5.9C233.5,225.9,213.5,230.8,193.3,231z M279.7,9.6
							C266-3.9,249.4-14,231.2-20l2.1-6.3c19.2,6.3,36.6,16.9,51,31.1l0.1,0.1L279.7,9.6L279.7,9.6z M68.6,138
							c-6.1-19.3-7.7-39.7-4.7-59.7l6.6,1c-2.9,19-1.3,38.4,4.5,56.7L68.6,138z"/>
						<g class="st19">
							<path class="st20" d="M304,98.1c0,61.4-49.8,111.2-111.2,111.2c-147.5-5.9-147.5-216.6,0-222.4C254.2-13.1,304,36.7,304,98.1
								L304,98.1z"/>
						</g>
						<circle class="st18" cx="321.1" cy="166.1" r="1.2"/>
						<circle class="st13" cx="315" cy="19.7" r="1.2"/>
						<circle class="st13" cx="82.8" cy="192.8" r="1.2"/>
						<circle class="st9" cx="192.3" cy="97.7" r="81.3"/>
						<g class="st21">
							<path class="st22" d="M309.2,106.5c-0.2-0.6-0.8-0.9-1.4-0.8c-0.3,0.1-0.5,0.3-0.6,0.5c-2,3.6-4.1,7.1-6.2,10.7
								c-1,1.3-1.9,2.8-2.7,4.2c-0.3,0.4-0.4,0.8-0.5,1.2c-0.1,0.9,0.5,1.8,1.4,1.9c0.4,0,0.7,0,1.1-0.2c0.4-0.3,0.7-0.6,0.8-1.1
								c0.2-0.2,0.4-0.4,0.5-0.6c2.1-3,3.1-6.7,4.9-9.9c0.9-1.7,1.8-3.4,2.6-5.1C309.2,107.2,309.3,106.8,309.2,106.5z"/>
						</g>
						<g class="st21">
							<path class="st22" d="M275.9,138c-0.8-0.2-1.6,0.2-2.4,0.4c-5.3,1.5-8.8,1.5-14.8,1.3c-1.1,0-2.1,0.9-2.1,2.1
								c0,1.1,0.9,2.1,2.1,2.1c4.6,0.1,9.2,0.2,13.7-1c1-0.2,2.1-0.5,3.1-0.8c0.7-0.1,1.2-0.5,1.6-1.1c0.6-1,0.2-2.3-0.8-2.8
								C276.2,138.1,276.1,138,275.9,138z"/>
						</g>
						<g class="st21">
							<path class="st22" d="M309.2,106.5c-0.2-0.6-0.8-0.9-1.4-0.8c-0.3,0.1-0.5,0.3-0.6,0.5c-2,3.6-4.1,7.1-6.2,10.7
								c-1,1.3-1.9,2.8-2.7,4.2c-0.3,0.4-0.4,0.8-0.5,1.2c-0.1,0.9,0.5,1.8,1.4,1.9c0.4,0,0.7,0,1.1-0.2c0.4-0.3,0.7-0.6,0.8-1.1
								c0.2-0.2,0.4-0.4,0.5-0.6c2.1-3,3.1-6.7,4.9-9.9c0.9-1.7,1.8-3.4,2.6-5.1C309.2,107.2,309.3,106.8,309.2,106.5z"/>
						</g>
						<g class="st21">
							<path class="st22" d="M275.9,138c-0.8-0.2-1.6,0.2-2.4,0.4c-5.3,1.5-8.8,1.5-14.8,1.3c-1.1,0-2.1,0.9-2.1,2.1
								c0,1.1,0.9,2.1,2.1,2.1c4.6,0.1,9.2,0.2,13.7-1c1-0.2,2.1-0.5,3.1-0.8c0.7-0.1,1.2-0.5,1.6-1.1c0.6-1,0.2-2.3-0.8-2.8
								C276.2,138.1,276.1,138,275.9,138z"/>
						</g>
						<path class="st5" d="M269.4,199h-6.6l0,0v-55.5l0,0h55.5l0,0v6.6C318.3,177.1,296.4,199,269.4,199z"/>
						<path class="st3" d="M261.3,142h29c0,16-13,29-29,29l0,0l0,0V142z"/>
						<g class="st23">
							<path class="st5" d="M113.5,149.9h23.7l-4.8,6h-13.3l-1.4,6.7h6.6l1.1,6h-8.9l-2.3,10.9l-7.8,4.2L113.5,149.9z"/>
							<path class="st5" d="M138.8,150H159c1.6,0.5,2.2,1.7,1.7,3.7l-5.5,25.8h-7.4l2.9-13.6l-8.7,4l-2.9,13.7l-6.5-4.2l2.7-13
								l17-8.2l0.4-2.1h-7.8l-1.1,4.9l-8.3,4.1L138.8,150z"/>
							<path class="st5" d="M163.4,150h19c1.6,0,2.6,0.8,2.9,2.5l-1.9,8.9l-4.8,3.1l3.6,2.4l-2.7,12.6h-13.6l1.4-6.6h6.3l1-4.6
								l-7.3-3l-3,14.1l-8.2,4.4L163.4,150z M169.3,156.5l-1.5,7l8.7-3.8l0.7-3.1H169.3z"/>
							<path class="st5" d="M187.8,150h7.6l-5,23.4h8.5l6,6.2h-23.4L187.8,150z"/>
							<path class="st5" d="M213.2,150h20.2c1.6,0.5,2.2,1.7,1.7,3.7l-5.5,25.8h-7.4l2.9-13.6l-8.7,4l-2.9,13.7l-6.5-4.2l2.7-13
								l17-8.2l0.4-2.1h-7.8l-1.1,4.9l-8.3,4.1L213.2,150z"/>
							<path class="st5" d="M237.9,150h19c1.6,0,2.6,0.8,2.9,2.5l-1.9,8.9l-4.8,3.1l3.6,2.4l-2.7,12.6h-13.6l1.4-6.6h6.3l1-4.6
								l-7.3-3l-3,14.1l-8.2,4.4L237.9,150z M243.7,156.5l-1.5,7l8.7-3.8l0.7-3.1H243.7z"/>
						</g>
						<path class="st5" d="M309.8,105.8c-0.1-0.1-0.1-0.2-0.2-0.2c-0.1-0.1-0.2-0.1-0.3-0.2c-6.2-1.6-11.1-6.4-12.7-12.7
							c-0.1-0.4-0.1-0.8-0.2-1.1c-0.1-0.8-0.1-1.5-0.1-2.3c0-1.5,0.2-3.1,0.7-4.5c0.1-0.4,0.2-0.7,0.4-1.1c0.3-0.7,0.6-1.4,1-2.1
							c1.1-2,2.6-3.8,4.5-5.2c0.2-0.1,0.3-0.3,0.3-0.5c0-0.2,0-0.4-0.1-0.6c-0.5-0.8-1.1-1.5-1.6-2.3s-1.1-1.5-1.7-2.2
							c-3.6-4.6-7.5-9.1-11.6-13.2l0,0l0,0c-0.1-0.1-0.3-0.2-0.4-0.2h-0.2c-0.2,0-0.5,0.1-0.6,0.3c-1,1.2-2.2,2.3-3.5,3.2
							c-1.1,0.8-2.3,1.4-3.5,2l-0.7,0.2c-1.2,0.4-2.5,0.7-3.9,0.8c-3.4,0.2-6.8-0.6-9.8-2.2c-1-0.5-1.9-1.1-2.7-1.8
							c-3-2.5-5-6-5.4-7.7c-0.1-0.2-0.1-0.5,0-0.7c0.1-0.3,0-0.6-0.2-0.8c-0.2-0.2-0.5-0.3-0.8-0.2c-1.9,0.6-3.8,1.1-5.7,1.7
							c-6,1.8-11.7,3.4-15.1,5c-0.3,0.1-0.4,0.4-0.5,0.7l0,0c0,0,0,0,0,0.1c0,0.1,0,0.2,0.1,0.3c0.4,1,0.8,2.1,1,3.2
							c0.1,0.5,0.2,1,0.3,1.5c0.1,0.4,0.1,0.7,0.1,1.1s0.1,0.8,0.1,1.2c0.1,1.7-0.2,3.5-0.7,5.2c-0.1,0.2-0.1,0.4-0.2,0.7
							c-0.4,1.2-1,2.3-1.8,3.4c-0.3,0.5-0.6,0.9-1,1.3c-0.2,0.3-0.5,0.5-0.7,0.8c-0.4,0.4-0.9,0.7-1.4,1c-0.7,0.4-1.4,0.7-2.2,1
							l-0.6,0.2c-2.8,0.8-5.7,1-8.6,0.6c-0.8-0.1-1.7-0.3-2.5-0.6c-0.4-0.2-0.9,0.1-1.1,0.5c-1,2.5-1.9,5-2.6,7.5
							c-1,3.3-1.9,6.6-2.5,10c-0.2,0.8-0.3,1.7-0.4,2.5c0,0.2,0,0.4,0.1,0.6c0.1,0.2,0.3,0.3,0.6,0.3c3.1,0.5,6,1.4,8.8,2.7
							c1.3,0.6,2.5,1.4,3.6,2.3c0.2,0.2,0.4,0.4,0.6,0.7c0.4,0.4,0.7,0.9,0.9,1.4c0.1,0.2,0.2,0.5,0.3,0.7c0.1,0.4,0.2,0.9,0.3,1.4
							c0.1,0.9,0,1.9-0.2,2.8c-0.8,4.4-3.2,8.4-6.6,11.3c-0.2,0.1-0.3,0.3-0.3,0.6c0,0.2,0,0.4,0.2,0.6c0.9,1.1,1.8,2.2,2.8,3.3
							c3.3,3.6,6.9,6.9,10.8,9.8c0.1,0.1,0.2,0.1,0.3,0.1c0.1,0,0.1,0,0.2,0h0.2c0.2,0,0.4-0.2,0.6-0.4c0.2-0.3,0.5-0.7,0.7-1
							c0.3-0.3,0.5-0.6,0.8-0.9l0.1-0.1c0.5-0.5,1.1-0.9,1.7-1.3c0.5-0.3,1-0.6,1.5-0.9c0.5-0.3,1.1-0.5,1.6-0.7l1.1-0.4
							c1.8-0.8,3.8-1.2,5.8-1.2c1.1,0.1,2.1,0.5,3.1,1c0.8,0.5,1.6,1,2.3,1.7c1.3,1.2,2.3,2.6,3.1,4.1c0.2,0.4,0.4,0.9,0.6,1.3
							c0.2,0.5,0.4,0.9,0.5,1.4c0.4,1.2,0.6,2.4,0.6,3.6c0,0.3,0.2,0.6,0.5,0.7c0.1,0,0.2,0.1,0.3,0.1l0,0c2.5-0.1,4.9-0.2,7.4-0.4
							c0.8-0.1,1.7-0.2,2.5-0.3c3.4-0.4,6.8-1,10.3-1.7c0.1,0,0.2,0,0.2-0.1c0.1,0,0.1-0.1,0.2-0.2c0.1-0.1,0.2-0.3,0.2-0.5
							c0.1-0.7,0.2-1.4,0.2-2c0.1-1.2,0.3-2.3,0.4-3.5c0.2-1.8,0.7-3.6,1.3-5.4c0.2-0.7,0.5-1.3,0.9-1.9c0.5-1,1.2-1.9,1.9-2.7
							c0.3-0.3,0.6-0.6,0.9-0.9l0.5-0.4c0.3-0.2,0.7-0.5,1-0.7c0.5-0.3,1-0.5,1.6-0.7c0.7-0.3,1.5-0.4,2.3-0.5
							c0.8-0.1,1.6-0.1,2.4,0l0.8,0.1c0.5,0.1,1.1,0.2,1.6,0.4l0.8,0.2c1.1,0.3,2.2,0.8,3.3,1.2l0.8,0.3l0.8,0.4
							c0.1,0,0.2,0.1,0.3,0.1c0.3,0,0.6-0.1,0.8-0.4c1.3-2.2,2.5-4.4,3.6-6.8s2.1-4.8,3-7.3c0.6-1.7,1.2-3.3,1.7-5
							c0-0.1,0-0.2,0-0.3C309.8,106,309.8,105.9,309.8,105.8z M249.3,96.1c1-4.3,3.5-8.1,7.1-10.6c3.7-2.5,8.4-2.9,12.4-1
							c4.8,2.6,7.8,7.6,8,13c0.1,6.2-3.7,11.8-9.6,13.9c-5.9,1.9-12.4-0.2-16.1-5.1c-1.1-1.4-1.8-3.1-2.1-4.8
							C248.7,99.7,248.8,97.9,249.3,96.1L249.3,96.1z"/>
						<circle class="st3" cx="136.7" cy="70.6" r="27.5"/>
						<path class="st5" d="M151.4,51.9h20.6l-5.8,27.7l14.2,9.5l-5.7,26.9l-32.2-22.5L151.4,51.9z M192.1,50.8h20.7l-19.9,93.8
							L176.1,126L192.1,50.8z"/>
						<path class="st5" d="M84.5,51.9h20.6l-5.8,27.7l14.2,9.5l-5.7,26.9L75.7,93.5L84.5,51.9z M125.2,50.8h20.7L126,144.6
							L109.2,126L125.2,50.8z"/>
					</g>
				</g>
			</g>
		</g>
	</g>
</g>
</svg>
