<svg id="Слой_1" data-name="Слой 1" xmlns="http://www.w3.org/2000/svg" viewBox="0 0 141.73 141.73"><defs><style>.cls-1{fill:#fff;}</style></defs><path class="cls-1" d="M36.09,127.74H20.3a5.31,5.31,0,0,1-5.36-6.5L32.71,20.49A8.08,8.08,0,0,1,40.35,14H56.14a5.31,5.31,0,0,1,5.36,6.5L43.73,121.24A8.08,8.08,0,0,1,36.09,127.74Z"/><path class="cls-1" d="M68.73,127.74H52.94a5.3,5.3,0,0,1-5.35-6.5L65.35,20.49A8.1,8.1,0,0,1,73,14H88.79a5.3,5.3,0,0,1,5.35,6.5L76.38,121.24A8.09,8.09,0,0,1,68.73,127.74Z"/><path class="cls-1" d="M101.38,127.74H85.59a5.31,5.31,0,0,1-5.36-6.5L98,20.49a8.09,8.09,0,0,1,7.65-6.5h15.79a5.3,5.3,0,0,1,5.35,6.5L109,121.24A8.1,8.1,0,0,1,101.38,127.74Z"/></svg>