<svg id="Слой_1" data-name="Слой 1" xmlns="http://www.w3.org/2000/svg" viewBox="0 0 141.73 141.73"><defs><style>.cls-1{fill:#fff;}</style></defs><path class="cls-1" d="M6.25,83.48H30.13a44.21,44.21,0,0,0,3.06,12.08,40.43,40.43,0,0,0,8,12.25c.26.28.53.55.77.83a3.75,3.75,0,0,1-.11,5.43q-5.64,5.7-11.33,11.32a3.72,3.72,0,0,1-5.59,0,63.75,63.75,0,0,1-18-35c-.26-1.61-.5-3.22-.75-4.83Z"/><path class="cls-1" d="M6.25,73.89c.43-2.56.76-5.14,1.29-7.67A63.59,63.59,0,0,1,22.35,36.88l16.89,17a40.77,40.77,0,0,0-9.08,22.07H6.25Z"/><path class="cls-1" d="M59,79.76a11.83,11.83,0,0,1,7.51-11.08,11.54,11.54,0,0,1,12.94,2.89,107.77,107.77,0,0,1,7.92,10.26c6.1,9,12,18,18,27.05a3.82,3.82,0,0,1-.27,5.07,3.78,3.78,0,0,1-5,.42Q83.07,102.85,66,91.24A25.87,25.87,0,0,1,62.23,88,11.25,11.25,0,0,1,59,79.76Z"/><path class="cls-1" d="M96.74,48.14a40.69,40.69,0,0,0-22-9.09V15.11a64.23,64.23,0,0,1,39,16.09Z"/><path class="cls-1" d="M67,15.1V39A40.87,40.87,0,0,0,44.87,48.2L27.94,31.28A64.41,64.41,0,0,1,67,15.1Z"/><path class="cls-1" d="M102.4,53.81l16.89-17a64.35,64.35,0,0,1,16.17,39H111.53A40.8,40.8,0,0,0,102.4,53.81Z"/><path class="cls-1" d="M107.13,121.63c3.79-2.11,5.91-5,6.47-8.91a10.92,10.92,0,0,0-1.66-7.45c-1.32-2.15-2.73-4.23-4-6.38a1.69,1.69,0,0,1-.26-1.33,43,43,0,0,0,3.88-14h24c-.21,2-.33,4-.64,5.95A64,64,0,0,1,121,120.6c-1.35,1.66-2.81,3.24-4.31,4.77a3.73,3.73,0,0,1-5.5.09Z"/></svg>