<svg id="Слой_1" data-name="Слой 1" xmlns="http://www.w3.org/2000/svg" viewBox="0 0 283.46 141.73"><defs><style>.cls-1{fill:#db2878;}.cls-2{fill:#1d1e1b;}</style></defs><path class="cls-1" d="M7.83,78.84H22.94a28.27,28.27,0,0,0,1.93,7.65A25.63,25.63,0,0,0,30,94.24c.17.17.33.34.49.52a2.37,2.37,0,0,1-.07,3.43C28,100.6,25.61,103,23.2,105.36a2.36,2.36,0,0,1-3.54,0A40.34,40.34,0,0,1,8.31,83.17c-.17-1-.32-2-.48-3Z"/><path class="cls-1" d="M7.83,72.78c.27-1.62.48-3.25.82-4.85A40.12,40.12,0,0,1,18,49.37L28.7,60.1A25.69,25.69,0,0,0,23,74.05H7.83Z"/><path class="cls-2" d="M41.18,76.49a7.48,7.48,0,0,1,4.74-7,7.31,7.31,0,0,1,8.19,1.83,71.42,71.42,0,0,1,5,6.49c3.86,5.66,7.61,11.4,11.4,17.11a2.43,2.43,0,0,1-.17,3.21,2.4,2.4,0,0,1-3.14.27Q56.41,91.1,45.65,83.76a17.06,17.06,0,0,1-2.41-2.08A7.08,7.08,0,0,1,41.18,76.49Z"/><path class="cls-1" d="M65.07,56.49a25.65,25.65,0,0,0-13.94-5.75V35.6A40.58,40.58,0,0,1,75.78,45.78C72.19,49.36,68.65,52.9,65.07,56.49Z"/><path class="cls-1" d="M46.26,35.59V50.74a25.82,25.82,0,0,0-14,5.79L21.55,45.82A40.78,40.78,0,0,1,46.26,35.59Z"/><path class="cls-1" d="M68.65,60.07,79.34,49.33A40.73,40.73,0,0,1,89.56,74H74.42A25.85,25.85,0,0,0,68.65,60.07Z"/><path class="cls-1" d="M71.64,103a7.37,7.37,0,0,0,4.1-5.63,6.92,6.92,0,0,0-1.06-4.71c-.83-1.36-1.72-2.68-2.56-4a1.09,1.09,0,0,1-.16-.84,27.1,27.1,0,0,0,2.45-8.87H89.58c-.14,1.27-.21,2.53-.41,3.77a40.54,40.54,0,0,1-8.76,19.68c-.86,1-1.78,2-2.72,3a2.37,2.37,0,0,1-3.49.06Z"/><path class="cls-1" d="M118.83,66.72h-14a7.72,7.72,0,0,1-5.09-1.61,5,5,0,0,1-2-4,5.76,5.76,0,0,1,.28-1.75l5.13-17.07-3.3-4h36.5l-2.2,7.37H122.7l1.06-3.5h-8.92L109.3,60.49a3,3,0,0,0-.16.94c0,1,.66,1.42,2,1.42h.73a7.55,7.55,0,0,0,4.36-1.44,6.66,6.66,0,0,0,2.68-3.28l.49-1.67h11.53l-.86,2.85a10,10,0,0,1-4.25,5.27A12.42,12.42,0,0,1,118.83,66.72Z"/><path class="cls-1" d="M164,66.72H152.39L149.75,53h-2l-4.2,13.76H132L136.26,53l1-3.79h.16l2.12-6.89-3.26-4.07H162.9a7.62,7.62,0,0,1,4.85,1.69,5,5,0,0,1,1.79,3.93,5.73,5.73,0,0,1-.29,1.75,9.23,9.23,0,0,1-2.95,4.3,13.14,13.14,0,0,1-5.07,2.67l1.39,7.17h-.05ZM150.52,49.17a7.37,7.37,0,0,0,4.34-1.47,7,7,0,0,0,2.7-3.3,4.51,4.51,0,0,0,.17-.89c0-1-.69-1.51-2.08-1.51h-4.48L149,49.17Z"/><path class="cls-1" d="M202.77,66.72H191.25L191,64h-5.7L182,60h8.64l-1.1-13.15L175.73,66.72H164.16l17-24.44-3.3-4.07h22.56Z"/><path class="cls-1" d="M229.57,66.72H203.79L222,42.28h-8.92l-3.26-4.07h27.37L219.1,62.93h11.61Z"/><path class="cls-1" d="M252.54,66.72H241l2.37-7.82-2.89-16.66-3.26-4h14.13l.73,11.24,7.62-11.24h11.57L254.94,58.9Z"/><path class="cls-1" d="M119.73,103.72h-24l7.49-24.43L100,75.21H116.1l-7.61,24.73h12.38Z"/><path class="cls-1" d="M134.55,103.72H123l7.49-24.43-3.26-4.08h16.09Z"/><path class="cls-1" d="M188.15,103.72H176.58l5.22-17-11.85,17H157.73l-1.43-17-5.21,17H139.52L147,79.29l-3.26-4.08h20.48L166,96.6,180.9,75.21h16Z"/><path class="cls-1" d="M204.69,103.72H193.12l7.49-24.43-3.26-4.08h16.09Z"/><path class="cls-1" d="M227.94,103.72H216.37l7.5-24.43h-6.72l-.21-.29h-.08v0l-3-3.75h29.93L242.6,79h-7.08Z"/><path class="cls-1" d="M261,103.72H246.64a7.7,7.7,0,0,1-4.18-1,6.33,6.33,0,0,1-2.38-2.56A7,7,0,0,1,239.3,97a6.82,6.82,0,0,1,.94-3.5H252.3a3.94,3.94,0,0,0-1,1.57,5.89,5.89,0,0,0-.43,2.22A2.32,2.32,0,0,0,253,99.9l1.14,0a10.8,10.8,0,0,0,3.91-.72,7.61,7.61,0,0,0,3-2,3.16,3.16,0,0,0,.9-2.12,2.49,2.49,0,0,0-1.65-2A21.35,21.35,0,0,0,257.22,92l-6.15-2a21.55,21.55,0,0,1-3.58-1.59q-3.47-2-3.46-5.13a6,6,0,0,1,1.71-4.2l-3.1-3.83h10.88v.13h.08a2.23,2.23,0,0,1,.55-.11q.3,0,14.15,0a8.08,8.08,0,0,1,5.3,1.69,5.3,5.3,0,0,1,2,4.22,6,6,0,0,1-.2,1.47H264.35a3.47,3.47,0,0,0,.53-1.76c0-1-.76-1.67-2.28-1.83-.6,0-1.26-.08-2-.08s-1.18,0-1.75.08A2.93,2.93,0,0,0,256,81a1.93,1.93,0,0,0-.16.73,1.28,1.28,0,0,0,.77,1.2,8.24,8.24,0,0,0,1.8.63l.61.21c1.11.32,2.28.65,3.5,1q3.54.94,6.68,2.08,3.92,1.59,3.91,5.38a9.19,9.19,0,0,1-.73,3.5,12.93,12.93,0,0,1-1.8,3.09,13.21,13.21,0,0,1-4,3.47A12.12,12.12,0,0,1,261,103.72Z"/></svg>