<?xml version="1.0" encoding="utf-8"?>
<!-- Generator: Adobe Illustrator 26.0.3, SVG Export Plug-In . SVG Version: 6.00 Build 0)  -->
<svg version="1.1" id="Слой_1" xmlns="http://www.w3.org/2000/svg" xmlns:xlink="http://www.w3.org/1999/xlink" x="0px" y="0px"
	 viewBox="0 0 420 420" style="enable-background:new 0 0 420 420;" xml:space="preserve">
<style type="text/css">
	.st0{fill:#18181B;}
	.st1{fill:#EA580C;}
	.st2{fill:#FDE047;}
</style>
<rect x="-6" y="-8.7" class="st0" width="432" height="437.5"/>
<g>
	<g>
		<g>
			<path class="st1" d="M23.7,106.4c6.8,0,13.6,0,20.4,0c0.4,3.6,1.2,7,2.6,10.3c1.6,3.9,4,7.4,6.9,10.5c0.3,0.3,0.4,0.4,0.7,0.7
				c1.3,1.5,1.3,3.3-0.1,4.6c-3.2,3.3-6.4,6.4-9.7,9.7c-1.5,1.5-3.3,1.4-4.8,0c-8.2-8.4-13.3-18.3-15.3-30c-0.3-1.4-0.4-2.7-0.6-4.1
				C23.7,107.6,23.7,107,23.7,106.4z"/>
			<path class="st1" d="M23.7,98.2c0.3-2.1,0.7-4.4,1.1-6.5c2-9.5,6.3-17.9,12.6-25.1c4.8,4.8,9.6,9.6,14.4,14.5
				c-4.4,5.3-7,11.6-7.7,18.8c-6.8,0-13.7,0-20.4,0C23.7,99.3,23.7,98.8,23.7,98.2z"/>
			<path class="st2" d="M68.7,103.2c0-4.2,2.5-7.9,6.4-9.4c3.8-1.5,8.3-0.7,11.1,2.5c2.4,2.7,4.7,5.8,6.8,8.8
				c5.2,7.6,10.3,15.4,15.4,23.1c1,1.5,0.9,3.2-0.3,4.3c-1.1,1.1-2.8,1.4-4.2,0.3c-9.7-6.5-19.4-13.1-29.1-19.8
				c-1.2-0.8-2.2-1.8-3.3-2.8C69.6,108.3,68.7,105.9,68.7,103.2z"/>
			<path class="st1" d="M101,76.2c-5.4-4.4-11.7-7-18.8-7.7c0-6.8,0-13.6,0-20.4c12.7,0.9,23.8,5.5,33.2,13.7
				C110.6,66.6,105.8,71.4,101,76.2z"/>
			<path class="st1" d="M75.6,48c0,6.9,0,13.7,0,20.4c-7.1,0.8-13.5,3.3-18.9,7.8c-4.8-4.8-9.6-9.5-14.4-14.4
				C51.7,53.5,62.9,48.9,75.6,48z"/>
			<path class="st1" d="M105.8,81c4.9-4.9,9.6-9.7,14.4-14.5c8.3,9.5,12.9,20.6,13.8,33.3c-6.9,0-13.6,0-20.4,0
				C112.8,92.8,110.3,86.4,105.8,81z"/>
			<path class="st1" d="M109.8,139c3.3-1.8,5.1-4.2,5.5-7.6c0.3-2.3-0.3-4.4-1.5-6.4c-1.1-1.8-2.3-3.6-3.4-5.4
				c-0.2-0.3-0.3-0.9-0.3-1.1c1.8-3.8,2.8-7.7,3.3-11.9c6.8,0,13.6,0,20.4,0c-0.2,1.7-0.3,3.4-0.5,5.1c-1.5,9.9-5.5,18.8-11.9,26.5
				c-1.1,1.4-2.4,2.7-3.7,4c-1.4,1.5-3.3,1.4-4.7,0.1C112.2,141.2,111,140.1,109.8,139z"/>
		</g>
		<g>
			<g>
				<path class="st1" d="M173.6,90h-18.9c-2.8,0-5.2-0.7-6.9-2.1c-1.7-1.5-2.7-3.3-2.7-5.5c0-0.8,0.1-1.5,0.3-2.4l7-23l-4.5-5.4
					h49.3l-3,10h-15.5l1.5-4.7h-12l-7.5,24.8c-0.2,0.4-0.3,0.9-0.3,1.3c0,1.3,0.9,1.9,2.7,1.9h1c2.1,0,4-0.7,5.9-2
					c1.9-1.3,3.1-2.7,3.6-4.5l0.7-2.2h15.5l-1.1,3.9c-0.9,2.8-2.8,5.2-5.8,7.1C180.1,89.1,176.9,90,173.6,90z"/>
				<path class="st1" d="M234.5,90h-15.6l-3.6-18.6h-2.6L207,90h-15.6l5.8-18.6l1.3-5.2h0.3l2.8-9.3l-4.4-5.5h36
					c2.7,0.1,4.9,0.9,6.5,2.3c1.6,1.4,2.4,3.2,2.4,5.3c0,0.8-0.1,1.5-0.3,2.4c-0.7,2.2-2.1,4.1-4,5.8c-2,1.6-4.2,2.8-6.9,3.6
					l1.9,9.7h-0.1L234.5,90z M216.3,66.3c2.1,0,4-0.7,5.8-2c1.9-1.3,3.1-2.8,3.7-4.5c0.2-0.6,0.3-1,0.3-1.2c0-1.4-0.9-2.1-2.8-2.1
					h-6l-3,9.7H216.3z"/>
				<path class="st1" d="M287,90h-15.5l-0.3-3.6h-7.7l-4.4-5.5h11.7l-1.5-17.8L250.4,90h-15.6l23-33l-4.5-5.5h30.5L287,90z"/>
				<path class="st1" d="M323.1,90h-34.8l24.7-33h-12l-4.4-5.5h36.9L309,85h15.6L323.1,90z"/>
				<path class="st1" d="M354.1,90h-15.5l3.2-10.6L337.9,57l-4.4-5.4h19.1l0.9,15.1l10.3-15.2h15.6l-22.1,27.9L354.1,90z"/>
			</g>
			<g>
				<path class="st1" d="M174.8,139.9h-32.3l10.1-33l-4.4-5.5H170l-10.3,33.4h16.7L174.8,139.9z"/>
				<path class="st1" d="M194.8,139.9h-15.6l10.1-33l-4.4-5.5h21.7L194.8,139.9z"/>
				<path class="st1" d="M267.2,139.9h-15.6l7-23l-16,23h-16.5l-1.9-23l-7,23h-15.7l10.1-33l-4.4-5.5h27.7l2.4,28.9l20.1-28.9H279
					L267.2,139.9z"/>
				<path class="st1" d="M289.5,139.9h-15.6l10.1-33l-4.4-5.5h21.7L289.5,139.9z"/>
				<path class="st1" d="M320.9,139.9h-15.6l10.1-33h-9.1l-0.3-0.3h-0.1v-0.1l-4-5.1h40.5l-1.6,5.2h-9.5L320.9,139.9z"/>
				<path class="st1" d="M365.5,139.9h-19.4c-2.3,0-4.2-0.4-5.7-1.4c-1.5-0.9-2.5-2.1-3.2-3.4c-0.7-1.4-1-2.8-1-4.3
					c0-1.7,0.4-3.3,1.3-4.7h16.3c-0.5,0.4-0.9,1.1-1.4,2.1c-0.3,0.9-0.6,2-0.6,3c0,2.1,0.9,3.3,2.8,3.6l1.5,0.1
					c1.8,0,3.6-0.3,5.2-0.9c1.7-0.6,3.1-1.5,4.1-2.7c0.8-0.8,1.2-1.7,1.2-2.8c-0.1-1.1-0.9-2.1-2.2-2.7c-1.4-0.6-2.7-1.2-4.2-1.5
					l-8.3-2.7c-1.8-0.6-3.4-1.4-4.8-2.1c-3.1-1.8-4.6-4.1-4.6-7c0-2.1,0.8-4,2.3-5.7l-4.2-5.2h14.7v0.2h0.1c0.3-0.1,0.4-0.1,0.8-0.2
					c0.3,0,6.6,0,19.1,0c2.9,0,5.3,0.8,7.1,2.3c1.8,1.5,2.7,3.4,2.7,5.7c0,0.6-0.1,1.3-0.3,2H370c0.5-0.8,0.7-1.6,0.7-2.4
					c0-1.5-1-2.2-3.1-2.5c-0.8-0.1-1.7-0.1-2.7-0.1c-0.8,0-1.6,0-2.4,0.1c-2.1,0.3-3.3,1.1-3.8,2.7c-0.2,0.3-0.3,0.7-0.3,1
					c0,0.8,0.3,1.3,1,1.6s1.5,0.6,2.4,0.9l0.9,0.3c1.5,0.4,3.1,0.9,4.7,1.3c3.2,0.9,6.2,1.8,9,2.8c3.5,1.5,5.2,3.9,5.2,7.3
					c0,1.5-0.3,3.2-1,4.7c-0.7,1.5-1.5,3-2.4,4.2c-1.5,1.9-3.3,3.4-5.4,4.6C370.9,139.2,368.4,139.9,365.5,139.9z"/>
			</g>
		</g>
	</g>
	<g>
		<path class="st1" d="M250.2,163.7c3.3,15.5,1.9,27.8,1.5,30.8c-1.4,10.3-4.4,18.8-7.5,25.3c-10.1-5.4-20.2-10.7-30.4-16.2
			c1.5-3.8,2.8-8.2,3.7-13.3c2.9-17.1-1.2-31.4-4.3-39.4c11-0.3,22-0.4,33.1-0.7C247.5,153.4,249,158,250.2,163.7z"/>
		<path class="st2" d="M175.7,176.2c2.1,6.8-0.1,14-5.7,18.4c-5.4,4.3-13.1,5.2-19.1,1.5c-5.3-3.3-10.4-6.9-15.3-10.7
			c-12.2-9.7-24.2-19.7-36.2-29.6c-2.5-2-3-4.6-1.8-7.1c1.2-2.4,3.9-3.5,6.6-2.7c18.9,5.8,37.8,11.5,56.7,17.4
			c2.3,0.7,4.6,1.8,6.6,2.9C171.8,168.5,174.3,171.9,175.7,176.2z"/>
		<path class="st1" d="M137.2,235.7c10.9,4.5,22.3,5.5,34.2,3.2c3.3,10.9,6.7,21.8,10.1,33c-20.9,4.9-41.1,3-60.5-5.7
			C126.4,256,131.7,245.9,137.2,235.7z"/>
		<path class="st1" d="M192,268.6c-3.4-11.1-6.8-22-10.1-33c11.1-4.7,20-12,26.5-22c10.2,5.4,20.3,10.7,30.4,16.1
			C227.7,247.9,212.1,260.8,192,268.6z"/>
		<path class="st1" d="M126.9,230.3c-5.4,10.3-10.7,20.4-16.1,30.5c-18.1-11.2-31-26.8-38.7-46.9c11-3.4,21.9-6.7,32.9-10.1
			C109.8,214.8,117.1,223.8,126.9,230.3z"/>
		<path class="st1" d="M91.7,139c-4.3,4.5-6,9.4-5.2,15c0.6,3.9,2.6,7,5.4,9.5c2.7,2.4,5.6,4.6,8.2,7c0.4,0.4,0.9,1.2,0.9,1.7
			c-1,7-0.8,13.9,0.6,21c-10.9,3.3-21.8,6.7-33,10.1c-0.5-2.8-1.2-5.7-1.6-8.4c-2.4-16.7-0.5-33,5.9-48.7c1.2-2.8,2.5-5.7,4-8.4
			c1.5-3,4.6-3.9,7.6-2.5C86.8,136.6,89.1,137.7,91.7,139z"/>
	</g>
</g>
</svg>
