<?xml version="1.0" encoding="utf-8"?>
<!-- Generator: Adobe Illustrator 26.0.1, SVG Export Plug-In . SVG Version: 6.00 Build 0)  -->
<svg version="1.1" id="Слой_1" xmlns="http://www.w3.org/2000/svg" xmlns:xlink="http://www.w3.org/1999/xlink" x="0px" y="0px"
	 viewBox="0 0 204.6 133.5" style="enable-background:new 0 0 204.6 133.5;" xml:space="preserve">
<style type="text/css">
	.st0{fill:#DE7C29;}
</style>
<g>
	<path class="st0" d="M58.1,130.6c0,0.3-0.3,0.3-0.3,0.7c0-1.4-3.1-3.1-4.1-3.4c-0.7-0.3-1.7-0.7-2.4-1c-4.1-1-7.5,1.4-11.6,2.7
		c-5.4,2-11.6,1.4-16.7-1c-7.1-3.1-14-9.9-14-17.7V12.4C9.1,8,6.4,3.9,2.3,2.2h28.6c-2,0.7-3.7,2-5.1,4.1c-0.3,0.3-0.3,0.7-0.7,1
		c-0.7,1.7-1.4,3.4-1.4,5.1c0,0,0,8.5,0,20.4c1.4,0.3,2.7,0.3,4.1-0.3c5.4-1.7,10.6-7.5,16.7-4.8s4.1,8.5,4.1,8.5s-3.7-3.1-8.2-0.7
		c-0.3,0.3-0.7,0.3-0.7,0.3c-4.8,2.4-10.6,2.7-16,1.4c0,30.6,0,78.3,0,78.6c0,3.1,0.3,11.6,5.1,11.2c3.1,0,6.1-3.4,8.2-5.4
		c4.1-4.8,9.9-10.9,17-7.1C59.1,117.3,60.5,125.1,58.1,130.6z"/>
	<path class="st0" d="M135.7,130.9h-16c-0.7-2-1-4.1-1.7-5.8v-0.3c-1-3.7-10.2-34-6.8-50.4c0.3-1.7,0.7-4.4,1-7.1
		c2-12.9-4.1-21.1-11.6-22.1c-0.3,0-2,0-2.4,0c-3.7,1.4-6.5,4.1-8.5,7.5c-1.4,2-2,5.1-2.7,8.2c0,0.7,0,1,0,1.7c0,7.5,0,15,0,22.5
		c0,9.2,0,18.7,0,27.9c0,2.7,0,5.1,0,7.5c0,1,0,1.7,0.3,2.7c0.3,1.7,1.7,3.1,2.7,4.8c1,1,2.4,2.7,3.7,3.4c0,0,0,0,0.3,0l0,0l0,0
		H65.6l0,0l0,0c0,0,0,0,0.3,0l4.1-3.7l0.3-0.3c1.7-1.7,2.7-4.4,2.7-6.8c0-5.4,0-11.2,0-17c0-9.5,0-19.4,0-28.6c0-8.9,0-18,0-26.9
		c0-4.1,0-8.2,0-11.9c0-0.3,0-0.3,0-0.7c0.3-13.6,6.1-17,8.5-18c4.8-2,8.5-4.8,8.5-10.2l0,0c0-2.4-0.7-4.1-0.7-4.4l0,0
		c5.4,1,11.6,4.1,12.3,10.2c0.3,2,0,4.4-1.4,7.1C96.3,30.1,87.7,25,87.4,38.3c0,0.3,0,0.3,0,0.3v10.9c0.3-0.7,0.7-1.4,1-1.7
		c5.1-7.1,16-14,24.5-8.9c0,0,0.3,0,0.3,0.3c5.4,3.4,9.9,9.9,12.3,18.4c0.3,18.7-8.2,19.4-8.2,34.7c0,1.4,0.3,2.7,0.7,4.1
		c1.7,7.5,6.1,13.6,10.6,19.7C131.7,120.7,134.4,125.5,135.7,130.9z"/>
	<path class="st0" d="M196.7,120c-8.9,11.9-24.2,11.2-31,11.2h-0.3c-17.4-1.4-30.3-13.3-33.7-30.3c-3.1-16,3.7-36.4,19.7-42.6
		c1.7-0.7,2.7-0.7,2.7-0.7c-1-0.3-1.7-0.7-2.7-1c-10.2-5.1-13.3-18.7-11.6-28.9c0.7-3.7,1.7-6.8,3.7-9.9
		c4.8-7.1,12.3-11.6,20.8-12.9c4.1-1,8.5-1.4,12.9-0.3c4.4,1,9.5,4.1,14,1.7c1-0.7,4.1-2,4.1-3.4c0,0.3,0.3,0.3,0.3,0.7
		c0.7,1.4,1,3.1,1.4,4.8c0.3,7.5-5.8,16-13.3,11.6c-5.1-2.7-9.2-9.5-15.3-9.9C157.2,9.7,147,18.2,147,29.5c0,8.9,2.7,14.3,6.1,18
		c3.7,3.7,8.9,5.1,12.3,5.4c3.1,0.3,5.1,3.1,5.1,5.8c0,2-1.4,4.4-3.4,5.4c-5.1,2.4-21.1,5.4-21.1,31c0,43.9,40.5,33.4,46.6,21.4
		c1.7-3.1,2-6.8,1.4-10.2c-2-7.5-10.6-15-6.8-23.5c4.1-8.5,11.9-5.4,11.9-5.4s-4.4,5.4-0.7,11.2c0.3,0.3,0.3,0.7,0.7,1
		C204.2,98.2,203.1,111.2,196.7,120z"/>
</g>
</svg>
