<svg id="Слой_1" data-name="Слой 1" xmlns="http://www.w3.org/2000/svg" viewBox="0 0 50 50"><defs><style>.cls-1{fill:#1d1e1b;}.cls-2{fill:#fff;}</style></defs><rect class="cls-1" x="17.1" y="6.25" width="26.93" height="36.49" rx="10.49"/><path class="cls-2" d="M5.4,15.58V6.09a9.49,9.49,0,0,1,9.49,9.49V34.49A9.46,9.46,0,0,1,5.4,43.91V34.49a9.45,9.45,0,0,1,9.49-9.41A9.49,9.49,0,0,1,5.4,15.58Z"/><path class="cls-2" d="M44.6,14.34v20.1a9.48,9.48,0,0,1-9.49,9.47V23.81a9.48,9.48,0,0,1,9.47-9.47H33.79a8.17,8.17,0,0,1-8.18-8.17V26.28a9.49,9.49,0,0,1-9.49,9.48V15.64a9.49,9.49,0,0,1,9.49-9.48H36.42a8.17,8.17,0,0,1,8.18,8.17ZM35.11,43.91H24.29a8.16,8.16,0,0,1-8.17-8.15H26.93A8.16,8.16,0,0,1,35.11,43.91Z"/></svg>