<svg id="Слой_1" data-name="Слой 1" xmlns="http://www.w3.org/2000/svg" viewBox="0 0 599.73 239.63"><defs><style>.cls-1{fill:#1d1e1b;}.cls-2{fill:#db2878;}</style></defs><rect class="cls-1" x="408.37" y="23.87" width="137.4" height="192.92" rx="54.82"/><path class="cls-2" d="M105.28,39.45v39.6A18.68,18.68,0,0,1,86.58,97.7V58.11a18.67,18.67,0,0,1,18.66-18.65H84A16.12,16.12,0,0,1,67.87,23.35V63a18.68,18.68,0,0,1-18.7,18.67V42a18.69,18.69,0,0,1,18.7-18.68h21.3a16.1,16.1,0,0,1,16.11,16.1ZM86.58,97.71H65.28A16.1,16.1,0,0,1,49.17,81.64h21.3A16.09,16.09,0,0,1,86.58,97.71Z"/><path class="cls-2" d="M105.28,156.93v39.59a18.68,18.68,0,0,1-18.7,18.66v-39.6a18.68,18.68,0,0,1,18.66-18.65H84a16.11,16.11,0,0,1-16.11-16.11v39.63a18.68,18.68,0,0,1-18.7,18.66V159.49a18.68,18.68,0,0,1,18.7-18.67h21.3a16.11,16.11,0,0,1,16.11,16.11Zm-18.7,58.25H65.28a16.09,16.09,0,0,1-16.11-16.07h21.3A16.09,16.09,0,0,1,86.58,215.18Z"/><path class="cls-2" d="M164.64,51V90.54a18.68,18.68,0,0,1-18.7,18.65V69.6A18.68,18.68,0,0,1,164.6,51H143.34a16.11,16.11,0,0,1-16.11-16.11V74.46a18.68,18.68,0,0,1-18.7,18.67V53.51a18.69,18.69,0,0,1,18.7-18.68h21.3A16.11,16.11,0,0,1,164.64,51Zm-18.7,58.25h-21.3a16.09,16.09,0,0,1-16.11-16.07h21.3A16.09,16.09,0,0,1,145.94,109.2Z"/><path class="cls-2" d="M164.64,145.44V185a18.67,18.67,0,0,1-18.7,18.65V164.09a18.68,18.68,0,0,1,18.66-18.65H143.34a16.11,16.11,0,0,1-16.11-16.11V169a18.68,18.68,0,0,1-18.7,18.66V148a18.68,18.68,0,0,1,18.7-18.67h21.3a16.11,16.11,0,0,1,16.11,16.11Zm-18.7,58.25h-21.3a16.09,16.09,0,0,1-16.11-16.07h21.3A16.09,16.09,0,0,1,145.94,203.69Z"/><path class="cls-2" d="M224,39.45v39.6A18.68,18.68,0,0,1,205.3,97.7V58.11A18.67,18.67,0,0,1,224,39.46H202.7a16.11,16.11,0,0,1-16.11-16.11V63a18.68,18.68,0,0,1-18.7,18.67V42a18.69,18.69,0,0,1,18.7-18.68h21.3A16.1,16.1,0,0,1,224,39.45ZM205.3,97.71H184a16.09,16.09,0,0,1-16.11-16.07h21.3A16.09,16.09,0,0,1,205.3,97.71Z"/><path class="cls-2" d="M224,156.93v39.59a18.68,18.68,0,0,1-18.7,18.66v-39.6A18.68,18.68,0,0,1,224,156.93H202.7a16.11,16.11,0,0,1-16.11-16.11v39.63a18.68,18.68,0,0,1-18.7,18.66V159.49a18.68,18.68,0,0,1,18.7-18.67h21.3A16.11,16.11,0,0,1,224,156.93Zm-18.7,58.25H184a16.09,16.09,0,0,1-16.11-16.07h21.3A16.09,16.09,0,0,1,205.3,215.18Z"/><path class="cls-2" d="M283.36,51V90.54a18.68,18.68,0,0,1-18.7,18.65V69.6A18.68,18.68,0,0,1,283.32,51H262.06A16.11,16.11,0,0,1,246,34.84V74.46a18.68,18.68,0,0,1-18.7,18.67V53.51A18.69,18.69,0,0,1,246,34.83h21.3A16.11,16.11,0,0,1,283.36,51Zm-18.7,58.25h-21.3a16.09,16.09,0,0,1-16.11-16.07h21.3A16.09,16.09,0,0,1,264.66,109.2Z"/><path class="cls-2" d="M283.36,145.44V185a18.67,18.67,0,0,1-18.7,18.65V164.09a18.68,18.68,0,0,1,18.66-18.65H262.06A16.11,16.11,0,0,1,246,129.33V169a18.68,18.68,0,0,1-18.7,18.66V148A18.68,18.68,0,0,1,246,129.33h21.3a16.11,16.11,0,0,1,16.11,16.11Zm-18.7,58.25h-21.3a16.09,16.09,0,0,1-16.11-16.07h21.3A16.09,16.09,0,0,1,264.66,203.69Z"/><path class="cls-2" d="M342.72,39.45v39.6A18.68,18.68,0,0,1,324,97.7V58.11a18.67,18.67,0,0,1,18.66-18.65H321.42a16.11,16.11,0,0,1-16.11-16.11V63a18.68,18.68,0,0,1-18.7,18.67V42a18.69,18.69,0,0,1,18.7-18.68h21.3a16.11,16.11,0,0,1,16.11,16.1ZM324,97.71h-21.3a16.09,16.09,0,0,1-16.11-16.07h21.3A16.09,16.09,0,0,1,324,97.71Z"/><path class="cls-2" d="M342.72,156.93v39.59A18.68,18.68,0,0,1,324,215.18v-39.6a18.67,18.67,0,0,1,18.66-18.65H321.42a16.11,16.11,0,0,1-16.11-16.11v39.63a18.68,18.68,0,0,1-18.7,18.66V159.49a18.68,18.68,0,0,1,18.7-18.67h21.3a16.11,16.11,0,0,1,16.11,16.11ZM324,215.18h-21.3a16.09,16.09,0,0,1-16.11-16.07h21.3A16.1,16.1,0,0,1,324,215.18Z"/><path class="cls-2" d="M350.78,71.92V23.53a48.39,48.39,0,0,1,48.39,48.39v96.37a48.19,48.19,0,0,1-48.39,48v-48a48.2,48.2,0,0,1,48.39-48A48.38,48.38,0,0,1,350.78,71.92Z"/><path class="cls-2" d="M550.55,65.6V168a48.32,48.32,0,0,1-48.38,48.26V113.85A48.32,48.32,0,0,1,550.45,65.6h-55a41.67,41.67,0,0,1-41.67-41.67V126.44a48.33,48.33,0,0,1-48.38,48.28V72.23a48.34,48.34,0,0,1,48.38-48.31h55.1A41.67,41.67,0,0,1,550.55,65.6ZM502.17,216.29h-55.1a41.62,41.62,0,0,1-41.67-41.57h55.1A41.62,41.62,0,0,1,502.17,216.29Z"/></svg>