<?xml version="1.0" encoding="utf-8"?>
<!-- Generator: Adobe Illustrator 26.0.1, SVG Export Plug-In . SVG Version: 6.00 Build 0)  -->
<svg version="1.1" id="Слой_1" xmlns="http://www.w3.org/2000/svg" xmlns:xlink="http://www.w3.org/1999/xlink" x="0px" y="0px"
	 viewBox="0 0 64.5 59.7" style="enable-background:new 0 0 64.5 59.7;" xml:space="preserve">
<style type="text/css">
	.st0{fill:#FFFFFF;}
</style>
<g>
	<g>
		<g>
			<g>
				<g id="_x31_58_x2C__Helmet_x2C__Space_x2C__Safety">
					<g>
						<g>
							<path class="st0" d="M45.8,48.1c-8.1,6.2-19.3,6.2-27.4,0l-1.8,6c-0.6,2,0.9,4.1,3.1,4.1h24.8c0.9,0,1.9-0.5,2.6-1.3
								c0.6-0.7,0.7-1.9,0.6-2.8L45.8,48.1z"/>
							<path class="st0" d="M52.7,15.5c0,12.9,0,12,0,12.1c0,0,0,0,0,0.1c0,0.1,0,0.1,0,0.1c0.1,0.1,0.2,0.2,0.3,0.2c0,0,0,0,0.1,0
								l0,0c0.5,0.1,0.7-0.1,0.7-0.4c0-3.4,0-8.5,0-12c0-0.2-0.3-0.4-0.6-0.4C53.1,15.1,52.7,15.3,52.7,15.5z"/>
							<path class="st0" d="M10.1,15.5c0,3.4,0,8.5,0,12c0,0.3,0.5,0.5,0.7,0.4l0,0c0,0,0,0,0.1,0c0,0,0.1,0,0.1-0.1
								c0,0,0.1,0,0.1-0.1c0.1,0,0.1-0.1,0.1-0.1v-0.1c0,0,0,0,0-0.1s0,0.1,0-2.9c0-2.9,0-6.6,0-9.2c0-0.2-0.3-0.4-0.6-0.4
								C10.5,15.1,10.1,15.3,10.1,15.5z"/>
							<path class="st0" d="M52.2,15.1c0.6-0.6,1.5-0.6,2,0c0.9-0.5,1.8-1.4,1.8-2.5c0-1.5-1.2-2.7-2.7-2.7c-1.5,0-2.7,1.2-2.7,2.7
								C50.5,13.8,51.2,14.9,52.2,15.1z"/>
							<path class="st0" d="M9.7,15.1c0.6-0.6,1.5-0.6,2,0c0.9-0.5,1.8-1.4,1.8-2.5c0-1.5-1.2-2.7-2.7-2.7s-2.7,1.2-2.7,2.7
								C7.9,13.8,8.7,14.9,9.7,15.1z"/>
							<path class="st0" d="M57.6,30.6c0-1.5-1.2-2.7-2.7-2.7h-0.5c-0.2,0.5-0.6,0.6-1.2,0.6c-0.3,0-0.7-0.1-0.9-0.5
								c-0.2-0.2-0.3-0.6-0.3-0.8v-2.8C49.4,15.9,41.4,9.8,32.1,9.8c-9.4,0-17.2,6-19.9,14.7c0,3.1,0,2.9,0,3.2c0,0.1,0,0.2-0.1,0.2
								C12,28,12,28.1,11.9,28.3c-0.1,0.1-0.2,0.2-0.5,0.3c-0.1,0-0.1,0.1-0.2,0.1s-0.2,0-0.3,0c-0.6,0-0.9-0.3-1.2-0.6H9.3
								c-1.5,0-2.7,1.2-2.7,2.7c0,1.5,1.2,2.7,2.7,2.7h1.6c0.3,0,0.6,0.2,0.6,0.6c1.6,10.2,10.2,17.5,20.6,17.5
								c5.3,0,10.1-1.9,13.8-5.2c3.5-3.2,6-7.4,6.8-12.5c0-0.3,0.3-0.6,0.6-0.6h1.6C56.5,33.3,57.6,32,57.6,30.6z M32.1,47.4
								c-9.3,0-16.8-7.5-16.8-16.8s7.5-16.8,16.8-16.8s16.8,7.5,16.8,16.8S41.4,47.4,32.1,47.4z"/>
							<path class="st0" d="M44.9,3.7c0.7,0,1.4,0.6,1.4,1.4s-0.6,1.4-1.4,1.4c-0.7,0-1.4-0.6-1.4-1.4S44.2,3.7,44.9,3.7z"/>
							<path class="st0" d="M17.7,6.5c0.8,0,1.5,0.6,1.5,1.4s-0.6,1.4-1.4,1.4c-0.7,0-1.4-0.6-1.4-1.4C16.3,7.2,17,6.5,17.7,6.5z"/>
							<path class="st0" d="M5.2,14.4c0.7,0,1.4,0.6,1.4,1.4S6,17.2,5.2,17.2c-0.7,0-1.4-0.6-1.4-1.4S4.5,14.4,5.2,14.4z"/>
							<path class="st0" d="M60.4,18.5c0.7,0,1.4,0.6,1.4,1.4s-0.6,1.4-1.4,1.4S59,20.6,59,19.9C58.9,19,59.6,18.5,60.4,18.5z"/>
						</g>
					</g>
				</g>
				<g id="Layer_1_00000116235835310096768750000005446174284839600565_">
				</g>
			</g>
		</g>
	</g>
</g>
</svg>
