<?xml version="1.0" encoding="utf-8"?>
<!-- Generator: Adobe Illustrator 26.0.1, SVG Export Plug-In . SVG Version: 6.00 Build 0)  -->
<svg version="1.1" id="Слой_1" xmlns="http://www.w3.org/2000/svg" xmlns:xlink="http://www.w3.org/1999/xlink" x="0px" y="0px"
	 viewBox="0 0 46.1 50" style="enable-background:new 0 0 46.1 50;" xml:space="preserve">
<style type="text/css">
	.st0{fill:#FFFFFF;}
	.st1{fill:none;stroke:#FFFFFF;stroke-width:0.7039;stroke-miterlimit:10;}
	.st2{clip-path:url(#SVGID_00000150785292958258442180000002258394630538475396_);}
	.st3{fill:none;stroke:#020203;stroke-width:0.4223;stroke-linecap:round;stroke-linejoin:round;stroke-miterlimit:10;}
	.st4{fill:#020203;}
	.st5{fill:#FFFFFF;stroke:#020203;stroke-width:0.4223;stroke-linecap:round;stroke-linejoin:round;stroke-miterlimit:10;}
	.st6{fill:none;stroke:#020203;stroke-width:0.7039;stroke-miterlimit:10;}
</style>
<g>
	<polygon class="st0" points="35.2,25 41.7,14.3 28.6,14.3 22.6,4.3 16.5,14.3 3.5,14.3 10,25 3.5,35.7 16.5,35.7 22.6,45.7 
		28.6,35.7 41.7,35.7 	"/>
	<g>
		<polygon class="st1" points="16.2,36.3 2.5,36.3 9.3,25 2.5,13.7 16.2,13.7 22.6,3.2 29,13.7 42.7,13.7 35.8,25 42.7,36.3 
			29,36.3 22.6,46.8 		"/>
		<g>
			<g>
				<defs>
					<polygon id="SVGID_1_" points="10,25 16.5,35.7 28.6,35.7 35.2,25 28.6,14.3 16.5,14.3 					"/>
				</defs>
				<clipPath id="SVGID_00000176729502572419164460000013512791117915829683_">
					<use xlink:href="#SVGID_1_"  style="overflow:visible;"/>
				</clipPath>
				<g style="clip-path:url(#SVGID_00000176729502572419164460000013512791117915829683_);">
					<g>
						<line class="st3" x1="8.6" y1="19.3" x2="36.7" y2="19.3"/>
						<line class="st3" x1="27" y1="30.7" x2="36.7" y2="30.7"/>
						<line class="st3" x1="8.6" y1="30.7" x2="18.4" y2="30.7"/>
						<g>
							<line class="st3" x1="8.6" y1="25" x2="36.7" y2="25"/>
							<path class="st4" d="M15.1,25.4c-0.1-0.1-0.2-0.3-0.3-0.4c0-0.1,0.1-0.2,0.1-0.2c0.1-0.2-0.1-0.3-0.2-0.2
								c-0.1,0.1-0.2,0.2-0.3,0.3c0-0.1,0-0.1,0-0.2s-0.2-0.2-0.3-0.1s-0.1,0.2-0.2,0.3l0,0c-0.1-0.2-0.2-0.3-0.3-0.5
								s-0.4,0-0.3,0.1c0.1,0.1,0.2,0.3,0.3,0.4c-0.1,0.1-0.2,0.2-0.3,0.2c-0.1,0.1,0.1,0.3,0.2,0.2c0.1-0.1,0.2-0.1,0.2-0.2
								c0,0,0,0.1,0.1,0.1c0.1,0.1,0.2,0.1,0.3,0c0-0.1,0.1-0.2,0.1-0.2c0,0.1,0.1,0.1,0.1,0.2c0.1,0.1,0.2,0.1,0.3,0l0,0
								c0.1,0.1,0.2,0.2,0.2,0.3C15,25.7,15.2,25.5,15.1,25.4z"/>
							<path class="st4" d="M32.1,25.4c-0.1-0.1-0.2-0.3-0.3-0.4c0-0.1,0.1-0.2,0.1-0.2c0.1-0.2-0.1-0.3-0.2-0.2
								c-0.1,0.1-0.2,0.2-0.3,0.3c0-0.1,0-0.1,0-0.2s-0.2-0.2-0.3-0.1s-0.1,0.2-0.2,0.3l0,0c-0.1-0.2-0.2-0.3-0.3-0.5
								s-0.4,0-0.3,0.1c0.1,0.1,0.2,0.3,0.3,0.4c-0.1,0.1-0.2,0.2-0.3,0.2c-0.1,0.1,0.1,0.3,0.2,0.2c0.1-0.1,0.2-0.1,0.2-0.2
								c0,0,0,0.1,0.1,0.1c0.1,0.1,0.2,0.1,0.3,0c0-0.1,0.1-0.2,0.1-0.2c0,0.1,0.1,0.1,0.1,0.2c0.1,0.1,0.2,0.1,0.3,0l0,0
								c0.1,0.1,0.2,0.2,0.2,0.3C31.9,25.7,32.2,25.5,32.1,25.4z"/>
						</g>
						<path class="st4" d="M28.1,30.3c0.1,0.1,0.2,0.3,0.3,0.4c0,0.1-0.1,0.2-0.1,0.2c-0.1,0.2,0.1,0.3,0.2,0.2
							c0.1-0.1,0.2-0.2,0.3-0.3c0,0.1,0,0.1,0,0.2s0.2,0.2,0.3,0.1s0.1-0.2,0.2-0.3l0,0c0.1,0.2,0.2,0.3,0.3,0.5s0.4,0,0.3-0.1
							c-0.1-0.1-0.2-0.3-0.3-0.4c0.1-0.1,0.2-0.2,0.3-0.2c0.1-0.1-0.1-0.3-0.2-0.2c-0.1,0.1-0.2,0.1-0.2,0.2c0,0,0-0.1-0.1-0.1
							c-0.1-0.1-0.2-0.1-0.3,0c0,0.1-0.1,0.2-0.1,0.2c0-0.1-0.1-0.1-0.1-0.2c-0.1-0.1-0.2-0.1-0.3,0l0,0c-0.1-0.1-0.2-0.2-0.2-0.3
							C28.3,29.9,28,30.1,28.1,30.3z"/>
						<path class="st4" d="M15.6,30.3c0.1,0.1,0.2,0.3,0.3,0.4c0,0.1-0.1,0.2-0.1,0.2C15.7,31,15.9,31.1,16,31
							c0.1-0.1,0.2-0.2,0.3-0.3c0,0.1,0,0.1,0,0.2s0.2,0.2,0.3,0.1s0.1-0.2,0.2-0.3l0,0c0.1,0.2,0.2,0.3,0.3,0.5s0.4,0,0.3-0.1
							c-0.1-0.1-0.2-0.3-0.3-0.4c0.1-0.1,0.2-0.2,0.3-0.2c0.1-0.1-0.1-0.3-0.2-0.2c-0.1,0.1-0.2,0.1-0.2,0.2c0,0,0-0.1-0.1-0.1
							c-0.1-0.1-0.2-0.1-0.3,0c0,0.1-0.1,0.2-0.1,0.2c0-0.1-0.1-0.1-0.1-0.2c-0.1-0.1-0.2-0.1-0.3,0l0,0c-0.1-0.1-0.2-0.2-0.2-0.3
							C15.8,29.9,15.5,30.1,15.6,30.3z"/>
						<path class="st4" d="M28,18.9c0.1,0.1,0.2,0.3,0.3,0.4c0,0.1-0.1,0.2-0.1,0.2c-0.1,0.2,0.1,0.3,0.2,0.2
							c0.1-0.1,0.2-0.2,0.3-0.3c0,0.1,0,0.1,0,0.2s0.2,0.2,0.3,0.1s0.1-0.2,0.2-0.3l0,0c0.1,0.2,0.2,0.3,0.3,0.5s0.4,0,0.3-0.1
							c-0.1-0.1-0.2-0.3-0.3-0.4c0.1-0.1,0.2-0.2,0.3-0.2c0.1-0.1-0.1-0.3-0.2-0.2c-0.1,0.1-0.2,0.1-0.2,0.2c0,0,0-0.1-0.1-0.1
							c-0.1-0.1-0.2-0.1-0.3,0c0,0.1-0.1,0.2-0.1,0.2c0-0.1-0.1-0.1-0.1-0.2c-0.1-0.1-0.2-0.1-0.3,0l0,0c-0.1-0.1-0.2-0.2-0.2-0.3
							C28.1,18.6,27.9,18.8,28,18.9z"/>
						<path class="st4" d="M15.3,18.9c0.1,0.1,0.2,0.3,0.3,0.4c0,0.1-0.1,0.2-0.1,0.2c-0.1,0.2,0.1,0.3,0.2,0.2
							c0.1-0.1,0.2-0.2,0.3-0.3c0,0.1,0,0.1,0,0.2s0.2,0.2,0.3,0.1s0.1-0.2,0.2-0.3l0,0c0.1,0.2,0.2,0.3,0.3,0.5s0.4,0,0.3-0.1
							c-0.1-0.1-0.2-0.3-0.3-0.4c0.1-0.1,0.2-0.2,0.3-0.2c0.1-0.1-0.1-0.3-0.2-0.2c-0.1,0.1-0.2,0.1-0.2,0.2c0,0,0-0.1-0.1-0.1
							c-0.1-0.1-0.2-0.1-0.3,0c0,0.1-0.1,0.2-0.1,0.2c0-0.1-0.1-0.1-0.1-0.2c-0.1-0.1-0.2-0.1-0.3,0l0,0c-0.1-0.1-0.2-0.2-0.2-0.3
							C15.5,18.6,15.2,18.8,15.3,18.9z"/>
					</g>
					<g>
						<g>
							<path class="st5" d="M19.7,27.4l0.1-1.6c0,0-2.2-2.3-2.1-2.8c0-0.5,0.6-3.2,0.7-3.3l8.6,0.5c0,0,0.2,2.9,0.1,3.2
								c-0.1,0.3-1.4,2.4-1.4,2.4v1.6C25.7,27.4,19.7,27.4,19.7,27.4z"/>
							<polygon class="st4" points="19.6,21.7 19.9,22.1 22.1,22.6 22.6,24.2 23.2,22.7 25.6,22.8 26.3,21.7 22.7,20.9 							"/>
							<path class="st5" d="M25.2,22.1c-0.7-0.2-0.5-0.7-0.2-1.7c0.2-1,0.2-2.2,0.4-2.3s2,0.2,1.9,1s-1.1,2.9-1.3,3
								S25.4,22.1,25.2,22.1z"/>
							<path class="st5" d="M23.3,21.8c-0.6-0.2-0.6-0.2-0.5-1.3c0.2-1.1,0.4-2.6,0.4-3s2.3-0.2,2.2,0.5c-0.1,0.8-0.7,3.5-0.8,3.8
								C24.4,22.1,23.7,21.9,23.3,21.8z"/>
							<path class="st5" d="M20.6,21.2c0.1-0.4,0.6-3.6,0.6-4.1s2.1-0.5,2.1,0.3s-0.5,4-0.7,4.2C22.4,21.9,20.5,21.8,20.6,21.2z"/>
							<path class="st5" d="M19.3,16.8c-0.1,0.2-0.8,3.6-0.7,4c0,0.4,2.1,0.6,2.2,0.3c0.2-0.2,0.4-3.6,0.4-4
								C21.1,16.7,19.4,16.6,19.3,16.8z"/>
							<path class="st4" d="M21.6,25.4l3.6,0.9l-2.3,0.1l2.7,0.4v-1c0,0,0.1-0.1,0.2-0.3L21.6,25.4z"/>
							<path class="st5" d="M19.7,27.4l0.1-1.6c0,0-2.2-2.3-2.1-2.8c0-0.5,0.6-3.2,0.7-3.3c0.1-0.2,3.4,0.2,3.9,0.3
								c0.5,0,0.6,1.5,0,1.7c-0.7,0.2-2.7,0.3-2.7,0.3"/>
						</g>
						<g>
							<g>
								<path class="st0" d="M18.4,40.2c-0.1,0-0.2-0.1-0.2-0.2V27.2c0-0.1,0.1-0.2,0.2-0.2H27c0.1,0,0.2,0.1,0.2,0.2V40
									c0,0.1-0.1,0.2-0.2,0.2H18.4z"/>
								<path class="st4" d="M27,27.2V40h-8.6V27.2H27 M27,26.8h-8.6c-0.2,0-0.4,0.2-0.4,0.4V40c0,0.2,0.2,0.4,0.4,0.4H27
									c0.2,0,0.4-0.2,0.4-0.4V27.2C27.4,27,27.2,26.8,27,26.8L27,26.8z"/>
							</g>
							<g>
								<rect x="19.6" y="27.2" class="st4" width="1.2" height="12.8"/>
								<rect x="22.1" y="27.2" class="st4" width="1.2" height="12.8"/>
								<rect x="24.6" y="27.2" class="st4" width="1.2" height="12.8"/>
							</g>
						</g>
					</g>
				</g>
			</g>
		</g>
		<g>
			<g>
				<path class="st6" d="M41.7,35.7H3.5L22.6,4.3L41.7,35.7z"/>
			</g>
			<g>
				<path class="st6" d="M22.6,45.7L3.5,14.3h38.2L22.6,45.7z"/>
			</g>
		</g>
	</g>
</g>
</svg>
