<?xml version="1.0" encoding="utf-8"?>
<!-- Generator: Adobe Illustrator 26.0.1, SVG Export Plug-In . SVG Version: 6.00 Build 0)  -->
<svg version="1.1" id="Слой_1" xmlns="http://www.w3.org/2000/svg" xmlns:xlink="http://www.w3.org/1999/xlink" x="0px" y="0px"
	 viewBox="0 0 64.6 100" style="enable-background:new 0 0 64.6 100;" xml:space="preserve">
<style type="text/css">
	.st0{fill:#FFFFFF;}
</style>
<g>
	<path class="st0" d="M57.9,56.4c-0.2-0.5,0.7-0.4-4.3-6.2c-2.8-3.3-4.9-6.9-5.5-11.2c-0.3-2.3-0.3-4.6-0.4-6.9c0-0.1,0-0.1,0-0.2
		c0-0.3,0-0.6-0.1-1c-0.2,0.3-0.4,0.5-0.6,0.8c-0.7,0.9-1.3,1.7-1.9,2.5c-1.2-1.5-2.2-2.9-3.3-4.2c-0.4-0.5-0.8-1-1.2-1.5
		c-1.3-1.9-2.3-3.9-3-6.1c-0.8-2.6-0.9-5.2-0.9-7.8c0-3.4-0.4-6.6-2-9.7c-0.6-1.2-1.3-2.3-2-3.5c-0.1,0-0.2,0.1-0.2,0.1
		c0,0.3,0,0.5,0,0.8c-0.2,1.4-0.3,2.8-0.6,4.1c-0.7,3.3-2.5,6-4.6,8.5c-1.6,2-3.2,3.9-4.2,6.3c-1.2,2.6-1.7,5.2-1.9,8
		c0,0.7-0.1,1.4-0.1,2.2c0,0.7,0,1.3,0,2c-0.1,0-0.1,0-0.2,0c-0.8-1-1.5-1.9-2.3-2.9c-0.8-1.1-1.6-2.1-2.5-3.2
		c0,0.3-0.1,0.6-0.1,0.9c-0.1,1.3-0.1,2.5-0.1,3.8c0,0.1,0,0.2,0,0.3c0,2.9-0.4,5.7-1.6,8.4c-1,2.5-2.7,4.6-4.4,6.7
		c-2.7,3.5-2.6,3.6-3,4.3C4.2,56,3.8,60.8,3.6,64.1C3.4,66.4,3.2,72,5.4,78.6c1,2.9,2.5,7.4,6.2,11.4c7.8,8.3,19.3,8.1,20.7,8.1
		c11.9-0.4,21.8-8.4,25.7-17.2c1.7-3.9,2.1-7.6,2.2-9.2C60.5,68.5,61,62.4,57.9,56.4z"/>
</g>
<path d="M32.6,49.5c-11,0-20,9-20,20s9,20,20,20s20-9,20-20S43.6,49.5,32.6,49.5z M35.3,54c8.6,1.5,14.3,9.6,12.8,18.2
	c-0.3,1.8-1,3.6-1.9,5.2L35.3,54z M30,54L19,77.5c-4.4-7.5-1.8-17.2,5.7-21.6C26.4,55,28.1,54.3,30,54L30,54z M32.6,58.4l5.1,10.9
	H27.6L32.6,58.4z M25.6,73.5h14.1l3.6,7.6c-6,5.5-15.2,5.5-21.2,0L25.6,73.5z"/>
</svg>
