<?xml version="1.0" encoding="utf-8"?>
<!-- Generator: Adobe Illustrator 26.0.1, SVG Export Plug-In . SVG Version: 6.00 Build 0)  -->
<svg version="1.1" id="Слой_1" xmlns="http://www.w3.org/2000/svg" xmlns:xlink="http://www.w3.org/1999/xlink" x="0px" y="0px"
	 viewBox="0 0 58.1 108.4" style="enable-background:new 0 0 58.1 108.4;" xml:space="preserve">
<style type="text/css">
	.st0{fill:#FFFFFF;}
</style>
<g>
	<g>
		<path class="st0" d="M45.8,58.5c-0.1-0.3,0.5-0.3-2.8-4c-1.8-2.1-3.2-4.5-3.6-7.2c-0.2-1.5-0.2-3-0.3-4.5c0-0.1,0-0.1,0-0.1
			c0-0.2,0-0.4-0.1-0.6c-0.1,0.2-0.3,0.3-0.4,0.5c-0.5,0.6-0.8,1.1-1.2,1.6c-0.8-1-1.4-1.9-2.1-2.7c-0.3-0.3-0.5-0.6-0.8-1
			c-0.8-1.2-1.5-2.5-1.9-3.9c-0.5-1.7-0.6-3.4-0.6-5c0-2.2-0.3-4.3-1.3-6.3c-0.4-0.8-0.8-1.5-1.3-2.3c-0.1,0-0.1,0.1-0.1,0.1
			c0,0.2,0,0.3,0,0.5c-0.1,0.9-0.2,1.8-0.4,2.7c-0.5,2.1-1.6,3.9-3,5.5c-1,1.3-2.1,2.5-2.7,4.1c-0.8,1.7-1.1,3.4-1.2,5.2
			c0,0.5-0.1,0.9-0.1,1.4c0,0.5,0,0.8,0,1.3c-0.1,0-0.1,0-0.1,0c-0.5-0.6-1-1.2-1.5-1.9c-0.5-0.7-1-1.4-1.6-2.1
			c0,0.2-0.1,0.4-0.1,0.6c-0.1,0.8-0.1,1.6-0.1,2.5c0,0.1,0,0.1,0,0.2c0,1.9-0.3,3.7-1,5.4c-0.6,1.6-1.7,3-2.8,4.3
			c-1.7,2.3-1.7,2.3-1.9,2.8c-1.7,2.8-2,5.9-2.1,8c-0.1,1.5-0.3,5.1,1.2,9.4c0.6,1.9,1.6,4.8,4,7.4c5,5.4,12.5,5.2,13.4,5.2
			C37,85.2,43.4,80,45.9,74.3c1.1-2.5,1.4-4.9,1.4-6C47.5,66.3,47.8,62.4,45.8,58.5z"/>
	</g>
	<path d="M29,54c-7.1,0-12.9,5.8-12.9,12.9S21.9,79.9,29,79.9S42,74.1,42,67S36.2,54,29,54z M30.8,56.9c5.6,1,9.3,6.2,8.3,11.8
		c-0.2,1.2-0.6,2.3-1.2,3.4L30.8,56.9z M27.4,56.9l-7.1,15.2c-2.8-4.9-1.2-11.1,3.7-14C25,57.6,26.1,57.1,27.4,56.9L27.4,56.9z
		 M29,59.8l3.3,7.1h-6.5L29,59.8z M24.5,69.6h9.1l2.3,4.9c-3.9,3.6-9.8,3.6-13.7,0L24.5,69.6z"/>
</g>
</svg>
