<svg id="Слой_1" data-name="Слой 1" xmlns="http://www.w3.org/2000/svg" viewBox="0 0 141.73 141.73"><defs><style>.cls-1{fill:#fff;}</style></defs><path class="cls-1" d="M110.28,23.31c-8.16-7.55-20.34-12.65-33.19-12.9l-.3,47.41Z"/><path class="cls-1" d="M68.17,10.09C34.6,10.09,9.81,37.3,9.81,70.87a60.78,60.78,0,0,0,60.78,60.78c23.54,0,45.43-13.9,53.49-31.84L69.39,70.87V10.12C69,10.11,68.58,10.09,68.17,10.09Z"/><polygon class="cls-1" points="99.51 45.09 90.71 73.14 95.78 75.86 108.26 36.1 99.51 45.09"/><polygon class="cls-1" points="88.16 56.76 84.13 69.61 89.2 72.33 96.92 47.76 88.16 56.76"/><path class="cls-1" d="M124.21,39.87,110.45,83.71l5.08,2.72,12.31-39.22A56.25,56.25,0,0,0,124.21,39.87Z"/><path class="cls-1" d="M128.81,49.74,117,87.24,122.11,90l9.3-29.62A54.54,54.54,0,0,0,128.81,49.74Z"/><path class="cls-1" d="M131.92,67.42c0-1,0-1.9-.08-2.85l-8.22,26.19,3,1.6C130.41,85,131.92,76.3,131.92,67.42Z"/><path class="cls-1" d="M115.56,28.6l-4.7,4.83L97.29,76.66l5.08,2.72,15.25-48.59C117,30,116.27,29.3,115.56,28.6Z"/><polygon class="cls-1" points="78.55 66.63 82.62 68.81 85.57 59.42 78.55 66.63"/><path class="cls-1" d="M118.91,32.28l-15,47.91L109,82.91,123.05,38A55.9,55.9,0,0,0,118.91,32.28Z"/></svg>