<svg xmlns="http://www.w3.org/2000/svg" xmlns:xlink="http://www.w3.org/1999/xlink" viewBox="0 0 420 420"><defs><style>.cls-1{fill:none;}.cls-2{isolation:isolate;}.cls-3,.cls-6{fill:#eb5b54;}.cls-3{opacity:0.78;}.cls-4{font-size:41.85px;font-family:MontserratAlternates-Black, Montserrat Alternates;font-weight:800;}.cls-10,.cls-4{fill:#fff;}.cls-5{letter-spacing:-0.01em;}.cls-7{fill:#1b1b1b;}.cls-8{fill:#b62324;mix-blend-mode:multiply;opacity:0.6;}.cls-9{fill:#454545;mix-blend-mode:screen;}.cls-11{fill:#af1a3a;}.cls-12{fill:#eb5876;}.cls-13{fill:#bbdcea;}.cls-14{fill:#8bb0cc;}.cls-15{fill:#f294a3;}.cls-16{fill:#5b5a5a;}.cls-17{fill:#79797a;}.cls-18{fill:#3f3f3f;}.cls-19{clip-path:url(#clip-path);}</style><clipPath id="clip-path"><rect class="cls-1" x="-458.83" y="-477.79" width="428.7" height="429.53"/></clipPath></defs><g class="cls-2"><g id="Слой_1" data-name="Слой 1"><rect class="cls-3" x="-7.04" y="-2.92" width="430.35" height="426.23"/><text class="cls-4" transform="translate(304.8 127.83)"><tspan class="cls-5">P</tspan><tspan x="30.68" y="0">L</tspan></text><text class="cls-4" transform="translate(40.65 127.83)">BY</text><path class="cls-6" d="M206.1,94.5c-10-46.22-82.55-50.28-82.55,12.74,0,53.7,82.55,98.28,82.55,98.28s82.54-44.58,82.54-98.28C288.64,44.22,216.08,48.28,206.1,94.5Z"/><path class="cls-7" d="M248.79,59.84c20.24,0,39.85,14.64,39.85,47.4,0,53.7-82.54,98.28-82.54,98.28s-82.55-44.58-82.55-98.28c0-32.77,19.62-47.4,39.86-47.4A43.63,43.63,0,0,1,206.1,94.5a43.6,43.6,0,0,1,42.69-34.66M163.4,57.06a40.38,40.38,0,0,0-29.52,12.27c-8.58,9-13.11,22.06-13.11,37.91,0,12.8,4.49,26.11,13.36,39.54,7,10.59,16.7,21.3,28.87,31.84A265.44,265.44,0,0,0,204.78,208l1.32.71,1.32-.71a265.63,265.63,0,0,0,41.77-29.35c12.17-10.54,21.89-21.25,28.88-31.84,8.86-13.43,13.35-26.74,13.35-39.54,0-15.85-4.53-29-13.11-37.91a40.4,40.4,0,0,0-29.52-12.27,46.88,46.88,0,0,0-28.24,9.58A45.35,45.35,0,0,0,206.1,85.27a45.52,45.52,0,0,0-14.45-18.63,46.9,46.9,0,0,0-28.24-9.58Z"/><path class="cls-8" d="M206.1,98.15V94.5a43.56,43.56,0,0,0-43.63-34.64C178.27,61,197.1,73.85,206.1,98.15Z"/><path class="cls-8" d="M245.58,60c18.13,1.38,34.89,15.4,34.89,44.93,0,51-78.46,88-78.46,88s-77.41-36.41-78.43-87c0,.44,0,.88,0,1.33,0,53.7,82.55,98.28,82.55,98.28s82.54-44.58,82.54-98.28C288.64,72.75,266.9,58.35,245.58,60Z"/><path class="cls-9" d="M128.56,117.61c-7.1-48.13,31.53-65.86,55.73-47.56C166.52,60.18,129,74.1,128.56,117.61Z"/><path class="cls-6" d="M322.79,323.94c0-14.83,6.52-17.79,11-17.79s11.05,3,11.05,17.79-4.95,35.89-11.05,35.89S322.79,338.74,322.79,323.94Z"/><path class="cls-7" d="M333.83,303.06a12.55,12.55,0,0,0-9.57,4.43c-2.83,3.35-4.56,8.58-4.56,16.45a96.28,96.28,0,0,0,3.35,24.35,41.13,41.13,0,0,0,3.84,9.63c1.56,2.65,3.65,5,6.94,5s5.4-2.43,6.95-5a39.84,39.84,0,0,0,3.83-9.63A95.39,95.39,0,0,0,348,323.94c0-7.87-1.71-13.1-4.56-16.45A12.47,12.47,0,0,0,333.83,303.06Zm0,6.17a5.94,5.94,0,0,1,4.87,2.24c1.56,1.84,3.09,5.51,3.09,12.47a91,91,0,0,1-3.11,22.68,35,35,0,0,1-3.19,8.12,6.42,6.42,0,0,1-1.66,2,6.39,6.39,0,0,1-1.65-2,35.9,35.9,0,0,1-3.19-8.12,91,91,0,0,1-3.12-22.68c0-7,1.54-10.63,3.1-12.47a6,6,0,0,1,4.86-2.24Z"/><path class="cls-6" d="M266.94,323.94c0-14.83,6.52-17.79,11-17.79s11.07,3,11.07,17.79-4.94,35.89-11,35.89S267,338.74,267,323.94Z"/><path class="cls-7" d="M278,303.06a12.47,12.47,0,0,0-9.57,4.43c-2.83,3.35-4.61,8.58-4.61,16.45a95.39,95.39,0,0,0,3.35,24.35,40.42,40.42,0,0,0,3.83,9.63c1.55,2.65,3.65,5,6.95,5s5.31-2.43,6.94-5a40.28,40.28,0,0,0,3.84-9.63,96.28,96.28,0,0,0,3.4-24.35c0-7.87-1.73-13.1-4.56-16.45A12.47,12.47,0,0,0,278,303.06Zm0,6.17a6,6,0,0,1,4.87,2.24c1.55,1.84,3.09,5.51,3.09,12.47a91,91,0,0,1-3.12,22.68,34.81,34.81,0,0,1-3.19,8.12,6.39,6.39,0,0,1-1.65,2,6.56,6.56,0,0,1-1.66-2,36.08,36.08,0,0,1-3.19-8.12A91,91,0,0,1,270,323.94c0-7,1.53-10.63,3.1-12.47a5.93,5.93,0,0,1,4.86-2.28Z"/><path class="cls-6" d="M378.33,250.31c-4.29-14.2,1.09-18.93,5.42-20.23s11.43-.37,15.73,13.82,5.67,35.81-.17,37.58S382.62,264.5,378.33,250.31Z"/><path class="cls-7" d="M382.8,228.76a12.56,12.56,0,0,0-7.88,7c-1.75,4-1.88,9.54.41,17.06a95.44,95.44,0,0,0,10.26,22.35,40,40,0,0,0,6.46,8.09c2.23,2,4.94,3.75,8.09,2.79s4.46-3.88,5.2-6.82a40.56,40.56,0,0,0,.88-10.31,96.41,96.41,0,0,0-3.84-24.28c-2.29-7.53-5.45-12.05-9.14-14.43a12.53,12.53,0,0,0-10.44-1.46Zm1.79,5.9a6,6,0,0,1,5.32.73c2,1.33,4.56,4.38,6.58,11.05a90.55,90.55,0,0,1,3.57,22.6,35.23,35.23,0,0,1-.69,8.69,6.52,6.52,0,0,1-1,2.36,6.37,6.37,0,0,1-2.15-1.39,36.26,36.26,0,0,1-5.41-6.86,91,91,0,0,1-9.56-20.8c-2-6.65-1.61-10.63-.65-12.84a5.91,5.91,0,0,1,4-3.55Z"/><path class="cls-6" d="M215.36,243.29c5.68-13.7,12.86-13.94,17-12.22s9.07,7,3.39,20.67S217.46,283,211.86,280.69s-2.14-23.7,3.53-37.4Z"/><path class="cls-7" d="M233.56,228.22a12.52,12.52,0,0,0-10.53.44c-3.9,2-7.49,6.18-10.51,13.45a95.28,95.28,0,0,0-6.22,23.78,39.85,39.85,0,0,0-.15,10.35c.46,3,1.45,6,4.5,7.3s5.91-.18,8.34-2a40.32,40.32,0,0,0,7.23-7.42,96,96,0,0,0,12.42-21.27c3-7.27,3.41-12.77,2.07-16.94a12.55,12.55,0,0,0-7.15-7.77Zm-2.35,5.7a5.94,5.94,0,0,1,3.63,4c.74,2.3.75,6.27-1.9,12.7a91.33,91.33,0,0,1-11.57,19.77,35.33,35.33,0,0,1-6.06,6.28,6.34,6.34,0,0,1-2.27,1.19,6.52,6.52,0,0,1-.79-2.46,36.87,36.87,0,0,1,.16-8.72,91.7,91.7,0,0,1,5.81-22.21c2.66-6.43,5.49-9.23,7.63-10.33a6,6,0,0,1,5.32-.21Z"/><path class="cls-7" d="M305.91,164.05a86.53,86.53,0,1,0,86.52,86.52h0A86.58,86.58,0,0,0,305.91,164.05Zm0,9.86a76.67,76.67,0,1,1-76.67,76.66h0a76.57,76.57,0,0,1,76.49-76.65Z"/><path class="cls-10" d="M224.32,250.56a81.6,81.6,0,1,1,23.93,57.7A81.6,81.6,0,0,1,224.32,250.56Z"/><path class="cls-10" d="M234.69,246.31a75.45,75.45,0,1,1,22.1,53.38A75.47,75.47,0,0,1,234.69,246.31Z"/><path class="cls-6" d="M224.32,250.56a81.59,81.59,0,0,0,163.17.05v-.05Z"/><path class="cls-6" d="M234.9,250.56a75.4,75.4,0,0,0,150.58,0Z"/><path class="cls-7" d="M305.91,167.74a82.84,82.84,0,1,0,82.83,82.83h0A82.85,82.85,0,0,0,305.91,167.74Zm0,2.47a80.36,80.36,0,1,1-80.36,80.36h0a80.33,80.33,0,0,1,80.32-80.35Z"/><path class="cls-7" d="M332.13,221a12.7,12.7,0,0,1,12.75,12.64v6.43a12.72,12.72,0,0,1-25.43,0v-6.36A12.7,12.7,0,0,1,332.13,221h0Z"/><path class="cls-10" d="M324.73,230.12a4.06,4.06,0,1,1,1.19,2.9A4.14,4.14,0,0,1,324.73,230.12Z"/><path class="cls-7" d="M279.75,221a12.68,12.68,0,0,1,12.7,12.68v6.39a12.73,12.73,0,1,1-25.46,0v-6.36A12.67,12.67,0,0,1,279.64,221Z"/><path class="cls-10" d="M272.29,230.12a4.11,4.11,0,1,1,4.12,4.09h0A4.11,4.11,0,0,1,272.29,230.12Z"/><path class="cls-11" d="M292.38,256.54a2.8,2.8,0,0,0-2.82,2.79v3.22a16.35,16.35,0,0,0,32.69,0h0v-3.19a2.8,2.8,0,0,0-2.79-2.82H292.38Z"/><path class="cls-12" d="M305.91,267.69a16.37,16.37,0,0,0-12.33,5.61,16.29,16.29,0,0,0,24.71,0A16.28,16.28,0,0,0,306,267.71Z"/><path class="cls-10" d="M292.38,256.54a2.8,2.8,0,0,0-2.82,2.79v2.89a37.7,37.7,0,0,0,32.69,0v-2.85a2.8,2.8,0,0,0-2.79-2.82H292.38Z"/><path class="cls-13" d="M317.87,256.54v4.37c0,1.64-.21,2.66-1.33,3.43a36.33,36.33,0,0,0,5.71-2.14v-2.84a2.8,2.8,0,0,0-2.79-2.82h-1.59Z"/><path class="cls-13" d="M292.38,256.54a2.8,2.8,0,0,0-2.82,2.79v2.89a38,38,0,0,0,11.23,3.32c-1.9-.51-2.46-2.42-2.46-4.63v-4.37Z"/><path class="cls-14" d="M293.94,256.54v4.37c0,1.64.22,2.66,1.33,3.43a37.35,37.35,0,0,1-5.71-2.14v-2.84a2.8,2.8,0,0,1,2.79-2.82h1.59Z"/><path class="cls-7" d="M292.38,255.31a4.07,4.07,0,0,0-4,4.05v3.19a17.59,17.59,0,0,0,35.17,0v-3.19a4.07,4.07,0,0,0-4-4.05Zm27.06,2.47a1.55,1.55,0,0,1,1.59,1.51v3.26a15.13,15.13,0,0,1-30.24,0v-3.19a1.54,1.54,0,0,1,1.5-1.58h27.15Z"/><path class="cls-7" d="M322.28,261.53a37.46,37.46,0,0,1-32.86,0l-.54,1.11a38.76,38.76,0,0,0,33.95,0Z"/><path class="cls-15" d="M307.66,272.11a1.68,1.68,0,0,1,.8-1.33,3.47,3.47,0,0,1,1.93-.58c1.5,0,2.65.87,2.65,1.93s-1.21,1.92-2.65,1.92a3.47,3.47,0,0,1-1.93-.58,1.67,1.67,0,0,1-.8-1.32Z"/><path class="cls-7" d="M382.73,289l-1.22-.16,2.16-16.45,1.23.16Z"/><path class="cls-7" d="M307.06,136.4c-7.85.46-15.62.5-24.32,1.14-11.52.85-19.77,4.39-25.07,9.73a26.42,26.42,0,0,0-7.38,18.84c0,11.75,7.21,20.76,17.16,25.62s22.73,6.2,35.7,4.2c1.33-.2,2.66-.44,3.91-.7v-8.62c-1.77.4-3.5.74-5.18,1-11.57,1.78-22.84.41-30.76-3.45s-12.47-9.59-12.47-18.11a17.64,17.64,0,0,1,5-12.94c3.57-3.59,9.62-6.54,19.75-7.29,8.11-.6,15.76-.69,23.71-1.21Z"/><path class="cls-7" d="M329.45,133.17a128.83,128.83,0,0,1-25,3.31v8.29a160,160,0,0,0,19.52-2.1l-2.46,6.65h6a84.11,84.11,0,0,0,23.73-3.62c-6.09,24.18-26.24,37.55-46.76,41.47v8.5c25.57-4.36,52.18-22.4,56.53-55.42l.87-6.73-6.4,2.24a123.53,123.53,0,0,1-21.75,4.73l.67-1.8,2.73-7.37Z"/><path class="cls-16" d="M330.43,137.24c-17.55,4.24-31.12,3.21-47.39,4.42-21.65,1.58-28.55,13-28.55,24.39,0,40.56,94,36.81,102.35-26.34,0,0-15.82,5.55-29.32,5.48l3-8Z"/><path class="cls-17" d="M330.43,137.24c-17.55,4.24-31.12,3.21-47.39,4.42-12.33.91-19.93,5-24.09,10.44,11.41,19.79,75.92,16.2,97.89-12.39,0,0-15.82,5.55-29.32,5.48l3-8Z"/><path class="cls-18" d="M356.84,139.71c-11,41.11-86.7,57.15-101.73,20.79a25.25,25.25,0,0,0-.62,5.55C254.49,206.61,348.49,202.86,356.84,139.71Z"/><path class="cls-7" d="M307.06,139.5c-7.88.46-15.6.49-24.1,1.11-11,.81-18.42,4.14-23.07,8.83a23,23,0,0,0-6.47,16.61c0,10.54,6.22,18.32,15.42,22.81s21.4,5.84,33.84,4c1.46-.23,2.92-.49,4.38-.81v-2.21c-1.57.35-3.13.64-4.7.88-12.1,1.86-23.93.5-32.61-3.74s-14.23-11.19-14.23-20.92a20.84,20.84,0,0,1,5.86-15.15c4.21-4.25,11.08-7.42,21.73-8.2,8.35-.61,16-.68,23.93-1.17v-2Z"/><path class="cls-7" d="M330.18,136.21a132.5,132.5,0,0,1-25.76,3.42v2.09a142.15,142.15,0,0,0,24.39-3.1L326,146.25h1.48c12.62.06,25.63-4.25,28-5.07-4.6,29.13-27.91,45-51.05,49.18v2.13c24.35-4.33,49.3-21.35,53.42-52.65l.22-1.69-1.61.58s-14.62,5-27.43,5.31l2.38-6.42.69-1.83Z"/><path class="cls-6" d="M127.09,321.57c0-14.37,6.33-17.25,10.71-17.25s10.7,2.88,10.7,17.25-4.8,34.81-10.7,34.81S127.09,336,127.09,321.57Z"/><path class="cls-7" d="M137.75,301.33a12.11,12.11,0,0,0-9.28,4.3c-2.75,3.24-4.43,8.32-4.43,15.94a92.77,92.77,0,0,0,3.26,23.6,38.27,38.27,0,0,0,3.71,9.32c1.51,2.53,3.54,4.88,6.74,4.88s5.22-2.35,6.72-4.88a39.15,39.15,0,0,0,3.73-9.32,93.2,93.2,0,0,0,3.24-23.6c0-7.62-1.68-12.7-4.42-15.94a12.14,12.14,0,0,0-9.27-4.3Zm0,6a5.81,5.81,0,0,1,4.71,2.17c1.52,1.79,3,5.35,3,12.09a88,88,0,0,1-3,21.95,34.61,34.61,0,0,1-3.1,7.84,6.37,6.37,0,0,1-1.59,1.91,6.41,6.41,0,0,1-1.61-1.91,34.61,34.61,0,0,1-3.1-7.84,88.71,88.71,0,0,1-3-22c0-6.74,1.49-10.3,3-12.09a5.78,5.78,0,0,1,4.72-2.16Z"/><path class="cls-6" d="M72.91,321.57c0-14.37,6.32-17.25,10.69-17.25s10.72,2.88,10.72,17.25-4.8,34.81-10.72,34.81S72.91,336,72.91,321.57Z"/><path class="cls-7" d="M83.6,301.33a12.14,12.14,0,0,0-9.27,4.3c-2.74,3.24-4.41,8.32-4.41,15.94a93.19,93.19,0,0,0,3.23,23.6,39.15,39.15,0,0,0,3.73,9.32c1.5,2.53,3.52,4.88,6.72,4.88s5.23-2.35,6.74-4.88a38.27,38.27,0,0,0,3.71-9.32,92.77,92.77,0,0,0,3.26-23.6c0-7.62-1.68-12.7-4.43-15.94a12.11,12.11,0,0,0-9.28-4.3Zm0,6a5.79,5.79,0,0,1,4.72,2.17c1.51,1.79,3,5.35,3,12.09a88.46,88.46,0,0,1-3,21.95,34.61,34.61,0,0,1-3.1,7.84,6.17,6.17,0,0,1-1.61,1.91A6.37,6.37,0,0,1,82,351.36a34.61,34.61,0,0,1-3.1-7.84,88.27,88.27,0,0,1-3-22c0-6.74,1.51-10.3,3-12.09a5.77,5.77,0,0,1,4.71-2.16Z"/><path class="cls-6" d="M180.86,250.21c-4.15-13.76,1.08-18.29,5.23-19.6s11.09-.35,15.26,13.41,5.48,34.7-.17,36.41S185,264,180.84,250.22Z"/><path class="cls-7" d="M185.2,229.32a12.21,12.21,0,0,0-7.64,6.79c-1.69,3.92-1.82,9.25.39,16.55a93.38,93.38,0,0,0,9.94,21.63,38.57,38.57,0,0,0,6.27,7.84c2.17,2,4.78,3.64,7.84,2.72s4.32-3.78,5-6.62a38.6,38.6,0,0,0,.86-10,92.82,92.82,0,0,0-3.74-23.51c-2.2-7.29-5.22-11.66-8.84-14a12.13,12.13,0,0,0-10.12-1.42Zm1.73,5.79a5.76,5.76,0,0,1,5.14.72c2,1.3,4.43,4.23,6.38,10.69a88,88,0,0,1,3.47,21.92,33.6,33.6,0,0,1-.68,8.43,5.94,5.94,0,0,1-1,2.28,6,6,0,0,1-2.09-1.3,34.19,34.19,0,0,1-5.22-6.64A87.52,87.52,0,0,1,183.69,251c-2-6.45-1.56-10.28-.63-12.43a5.77,5.77,0,0,1,3.92-3.45Z"/><path class="cls-6" d="M22.93,243.4c5.5-13.28,12.45-13.52,16.49-11.83s8.8,6.75,3.29,20S25,281.92,19.5,279.66,17.43,256.69,22.93,243.4Z"/><path class="cls-7" d="M40.56,228.81a12.08,12.08,0,0,0-10.21.41c-3.77,1.94-7.26,6-10.19,13.06a92.72,92.72,0,0,0-6,23,39.69,39.69,0,0,0-.14,10c.43,2.9,1.41,5.86,4.36,7.07s5.72-.17,8.08-1.92a39.18,39.18,0,0,0,7-7.2,92.29,92.29,0,0,0,12-20.56c2.91-7,3.31-12.37,2-16.41a12.1,12.1,0,0,0-6.93-7.52Zm-2.29,5.51a5.79,5.79,0,0,1,3.52,3.82c.71,2.23.73,6.08-1.85,12.32a88.45,88.45,0,0,1-11.21,19.16,35.13,35.13,0,0,1-5.86,6.08,6,6,0,0,1-2.21,1.14,5.85,5.85,0,0,1-.76-2.36,34.62,34.62,0,0,1,.16-8.45,88.09,88.09,0,0,1,5.61-21.48c2.62-6.24,5.32-9,7.41-10a5.78,5.78,0,0,1,5.23-.21Z"/><path class="cls-7" d="M110.67,166.61a83.86,83.86,0,1,0,83.86,83.86h0A83.92,83.92,0,0,0,110.67,166.61Zm0,9.56a74.3,74.3,0,1,1-74.29,74.31v0a74.24,74.24,0,0,1,74.16-74.29Z"/><path class="cls-6" d="M188.56,248.57c0,3.28-.39,41.5-22.72,52.25-15.85,7.64-24.7-7.27-56.74-6.83-30.15.42-38,13.85-52.94,6.83-22.31-10.45-22.71-49-22.71-52.25,0-4.49.51-40.28,22.71-52.24,13.06-7.07,19.89,1.64,52.25,2,35.4.38,43.1-9.87,57.47-2C188,208.59,188.54,244.07,188.56,248.57Z"/><path class="cls-10" d="M111.52,172.84a79.87,79.87,0,0,0-75.25,53.37H186.79A79.89,79.89,0,0,0,111.52,172.84Z"/><path class="cls-10" d="M107.35,174.67A73.89,73.89,0,0,0,37,226.21H177.7A73.9,73.9,0,0,0,107.35,174.67Z"/><path class="cls-10" d="M35.65,277.91A93.33,93.33,0,0,0,72,316.09a81,81,0,0,0,39.54,11.33,75.51,75.51,0,0,0,22.21-3.07,77.07,77.07,0,0,0,36.4-24.44,83.68,83.68,0,0,0,13.55-22Z"/><path class="cls-10" d="M39.57,278a76.7,76.7,0,0,0,139.53,0Z"/><path class="cls-7" d="M110.67,170.19A80.28,80.28,0,1,0,191,250.47h0A80.3,80.3,0,0,0,110.67,170.19Zm0,2.39a77.89,77.89,0,1,1-77.88,77.9v0a77.88,77.88,0,0,1,77.88-77.88Z"/><path class="cls-7" d="M136.09,221.81a12.3,12.3,0,0,1,12.32,12.27v6.25a12.32,12.32,0,1,1-24.64,0v-6.2A12.28,12.28,0,0,1,136,221.81Z"/><path class="cls-10" d="M128.92,230.64a3.92,3.92,0,1,1,7.83.29,3.86,3.86,0,0,1-6.67,2.52A3.91,3.91,0,0,1,128.92,230.64Z"/><path class="cls-7" d="M85.29,221.81a12.28,12.28,0,0,1,12.32,12.24v6.28a12.32,12.32,0,1,1-24.64,0v-6.2a12.3,12.3,0,0,1,12.27-12.32Z"/><path class="cls-10" d="M78.09,230.64a4,4,0,1,1,1.18,2.81A3.91,3.91,0,0,1,78.09,230.64Z"/><path class="cls-11" d="M97.57,256.25A2.74,2.74,0,0,0,94.82,259h0v3.09a15.86,15.86,0,0,0,31.71,0V259a2.74,2.74,0,0,0-2.73-2.73H97.57Z"/><path class="cls-12" d="M110.68,267.06a15.83,15.83,0,0,0-12,5.43,15.86,15.86,0,0,0,22.39,1.5,15.17,15.17,0,0,0,1.5-1.5A15.84,15.84,0,0,0,110.68,267.06Z"/><path class="cls-10" d="M97.57,256.25A2.74,2.74,0,0,0,94.82,259h0v2.77a36.58,36.58,0,0,0,31.71,0V259a2.73,2.73,0,0,0-2.73-2.73h0Z"/><path class="cls-13" d="M122.27,256.25v4.24c0,1.59-.2,2.61-1.31,3.33a37.69,37.69,0,0,0,5.54-2.08V259a2.73,2.73,0,0,0-2.73-2.73h-1.5Z"/><path class="cls-13" d="M97.57,256.25A2.74,2.74,0,0,0,94.82,259h0v2.77a37.12,37.12,0,0,0,10.9,3.23c-1.84-.5-2.39-2.35-2.39-4.49v-4.24Z"/><path class="cls-14" d="M99.08,256.25v4.24c0,1.59.2,2.61,1.31,3.33a37.69,37.69,0,0,1-5.54-2.08V259a2.73,2.73,0,0,1,2.73-2.73h1.5Z"/><path class="cls-7" d="M97.57,255.05A3.92,3.92,0,0,0,93.65,259v3.08a17,17,0,0,0,34.08,0V259a3.93,3.93,0,0,0-3.92-3.92Zm26.21,2.39a1.52,1.52,0,0,1,1.54,1.49v3.14a14.65,14.65,0,0,1-29.29.87q0-.44,0-.87V259a1.52,1.52,0,0,1,1.48-1.54h26.27Z"/><path class="cls-7" d="M126.6,261.09a36.41,36.41,0,0,1-31.85,0l-.53,1.07a37.51,37.51,0,0,0,32.91,0Z"/><path class="cls-15" d="M112.43,271.33a1.65,1.65,0,0,1,.77-1.31,3.28,3.28,0,0,1,1.87-.55c1.45,0,2.61.84,2.61,1.86s-1.17,1.85-2.61,1.85a3.36,3.36,0,0,1-1.87-.53,1.67,1.67,0,0,1-.77-1.31Z"/><path class="cls-7" d="M95.33,139.75v8c7.71.5,15.13.61,23,1.18,9.83.72,15.68,3.58,19.14,7.07a17,17,0,0,1,4.79,12.54c0,8.25-4.4,13.8-12.08,17.54s-18.6,5.08-29.81,3.36c-1.68-.27-3.35-.59-5-1v8.28c1.31.26,2.54.5,3.79.69,12.58,1.94,24.95.63,34.6-4.07s16.64-13.44,16.64-24.82a25.47,25.47,0,0,0-7.15-18.29c-5.15-5.22-13.07-8.62-24.3-9.44-8.44-.62-16-.65-23.51-1.11Z"/><path class="cls-7" d="M66.24,134.9,68.86,142l.65,1.75a118.55,118.55,0,0,1-21.07-4.59L42.26,137l.86,6.53c4.21,32,30.05,49.48,54.77,53.71V189c-19.84-3.8-39.4-16.75-45.26-40.12a81.85,81.85,0,0,0,23,3.54h5.8L79,145.89a158.1,158.1,0,0,0,18.92,2v-8a125.45,125.45,0,0,1-24.24-3.22Z"/><path class="cls-16" d="M72.7,140.62l2.86,7.7c-13.06.08-28.43-5.3-28.43-5.3,8.12,61.14,99.19,64.84,99.19,25.54,0-11.08-6.72-22.1-27.7-23.65C102.84,143.75,89.69,144.74,72.7,140.62Z"/><path class="cls-17" d="M72.7,140.62l2.86,7.7c-13.06.08-28.43-5.3-28.43-5.3C68.39,170.71,130.9,174.2,142,155c-4.09-5.22-11.41-9.23-23.35-10.11C102.84,143.75,89.69,144.74,72.7,140.62Z"/><path class="cls-18" d="M47.13,143c8.12,61.14,99.19,64.84,99.19,25.54a25.06,25.06,0,0,0-.58-5.39C131.16,198.35,57.86,182.86,47.13,143Z"/><path class="cls-7" d="M95.33,142.81v2c7.68.49,15.13.55,23.22,1.14,10.31.76,17,3.83,21.06,8a20.28,20.28,0,0,1,5.69,14.69c0,9.43-5.37,16.17-13.8,20.27s-19.88,5.42-31.61,3.63c-1.51-.24-3-.52-4.56-.86v2.07c1.43.3,2.84.57,4.26.79,12.06,1.85,23.88.55,32.8-3.8s14.93-11.89,14.93-22.1a22.3,22.3,0,0,0-6.27-16.11c-4.51-4.55-11.75-7.77-22.36-8.56C110.46,143.29,103,143.27,95.33,142.81Z"/><path class="cls-7" d="M71.08,139.19l.66,1.78,2.32,6.23c-12.48-.31-26.59-5.13-26.59-5.13l-1.55-.55.18,1.63c4,30.34,28.16,46.81,51.77,51v-2c-22.36-4-45-19.46-49.45-47.68,2.31.79,14.93,5,27.14,4.9H77L74.26,142a137.3,137.3,0,0,0,23.63,3v-2a129.77,129.77,0,0,1-25-3.31Z"/></g></g></svg>