<?xml version="1.0" encoding="utf-8"?>
<!-- Generator: Adobe Illustrator 26.0.3, SVG Export Plug-In . SVG Version: 6.00 Build 0)  -->
<svg version="1.1" id="Слой_1" xmlns="http://www.w3.org/2000/svg" xmlns:xlink="http://www.w3.org/1999/xlink" x="0px" y="0px"
	 viewBox="0 0 420 420" style="enable-background:new 0 0 420 420;" xml:space="preserve">
<style type="text/css">
	.st0{clip-path:url(#SVGID_00000170262093856450173940000016462156387537473193_);}
	.st1{fill:#E83F4F;}
	.st2{fill:#8F2F7D;}
	.st3{clip-path:url(#SVGID_00000167396523821170886240000016885669464939510704_);}
	.st4{fill:#3466AF;}
	.st5{fill:#F7CF46;}
	.st6{fill:#F1AC20;}
	.st7{fill:#3BB396;}
	.st8{fill:#FFFFFF;}
	.st9{fill:none;stroke:#FFFFFF;stroke-width:0.79;stroke-miterlimit:10;}
</style>
<g>
	<g>
		<defs>
			<rect id="SVGID_1_" x="-3.8" y="-2.4" width="428.7" height="429.5"/>
		</defs>
		<clipPath id="SVGID_00000062901795671635941080000008924826604701688454_">
			<use xlink:href="#SVGID_1_"  style="overflow:visible;"/>
		</clipPath>
	</g>
	<g>
		<defs>
			<rect id="SVGID_00000009589436364389204010000009575600253430942128_" x="-3.8" y="-2.4" width="428.7" height="429.5"/>
		</defs>
		<clipPath id="SVGID_00000090980542414920917010000010068083477708143489_">
			<use xlink:href="#SVGID_00000009589436364389204010000009575600253430942128_"  style="overflow:visible;"/>
		</clipPath>
		<g style="clip-path:url(#SVGID_00000090980542414920917010000010068083477708143489_);">
			<path class="st1" d="M265.6,365.8l201.1,7.9V-2.7L299.9,0.1L265.6,365.8z"/>
			<path class="st2" d="M-2.2,379.4l215.1-12.3c0.1-47.7-7-84.5-12.9-107.9c-20.7-82.7-55.9-116.6-58.9-190.1
				c-1-24.8,1.7-49.7,8-73.7L-2.2-2.7V379.4z"/>
			<path class="st1" d="M282.5,194.6c-2.8,15.1-4,30.4-3.6,45.7c0.2,8.9,0.3,19.2,3.3,32.4c5.5,24.4,16.1,34.5,16.3,74
				c0.2,53.2-21.9,54-18.5,107.1c0.2,3.1,6-8.6,14.2-10c3.1-0.5,4.8,18.9,8,18.9s3.1-19.1,6.2-19.1c1.5,0,2.4,4.6,3.1,9.3
				c0-0.1,0-0.2,0-0.3c2.9-53.1,18.8-52.7,18.6-106c-0.2-39.5-10.7-49.6-16.3-74c-1.7-7.4-2.2-15.9-3.3-32.4
				c-0.8-11.2-1.6-26.8-2-45.6H282.5z"/>
			<path class="st1" d="M293.1,184.9h0.1H293.1z"/>
			<path class="st2" d="M173.1,261c-0.9-1.9-1.8-3.9-2.7-5.8l2.4-60.4h4.9c1.1,13.7,0.9,27.4-0.5,41
				C176.3,244.2,175,252.6,173.1,261z"/>
			<path class="st2" d="M122.3,454.5c-3.4-53.1,18.8-53.9,18.6-107.1s-19.3-53.1-19.6-106.4s18.8-53.3,18.6-106.6
				s-19.3-53.1-19.6-106.3S136-24.7,138.9-77.8c0.2-3.1-6.4-10.1-3.3-10.1c3.2,0,3.2,19.1,6.4,19s3.1-19.1,6.2-19.1
				c3.2,0,3.2,19.1,6.4,19c3.2,0,15.6-13.3,15.8-10.2c3.4,53.1-18.8,53.9-18.6,107.1s19.3,53.1,19.6,106.3
				c0.2,53.2-18.8,53.3-18.6,106.6s19.3,53.1,19.6,106.3c0.2,53.2-15.7,52.8-18.6,106c-0.2,3.1,6.4,10.1,3.3,10.1
				c-3.2,0-3.2-19.1-6.4-19c-3.2,0-3.1,19.1-6.2,19.1c-3.2,0-4.9-19.4-8-18.9C128.3,445.9,122.5,457.7,122.3,454.5z"/>
			<path class="st1" d="M280,467.2c-3.4-53.1,18.8-53.9,18.5-107.1S279.2,307,279,253.8s18.8-53.3,18.6-106.6S278.2,94.1,278,40.9
				s15.7-52.8,18.6-106c0.2-3.1-6.4-10.1-3.3-10.1s3.2,19.1,6.4,19s3.1-19.1,6.2-19.1c3.2,0,3.2,19.1,6.4,19
				c3.2,0,15.6-13.3,15.8-10.2c3.4,53.1-18.8,53.9-18.6,107.1s19.3,53.1,19.6,106.3s-18.8,53.3-18.6,106.6s19.3,53.1,19.6,106.4
				c0.2,53.2-15.7,52.8-18.6,106c-0.2,3.1,6.4,10.1,3.3,10.1c-3.2,0-3.2-19.1-6.4-19s-3.1,19.1-6.2,19.1s-4.9-19.4-8-18.9
				C286,458.6,280.2,470.3,280,467.2z"/>
			<g>
				<g>
					<defs>
						<path id="SVGID_00000093887504139671499670000016378071866091670948_" d="M174.9,190.4c0,0-11-10.6-15.9-19.5
							c-4.9-8.8-14.8-27-15.3-28.2c-0.6-1.2-6.6-16.6-7.7-21.4c-1-4.8-3.3-14.2,1.1-20.5s11.7-15.6,17.6-20.2l16.1-12.3
							c0,0-2.1-14.1-1.2-21.5s5.7-21.5,20.8-25.5s24,8.9,25.8,13.7c0,0,6-7.6,18.3-6.8c12.3,0.9,18.8,6.4,21.5,12
							c1.8,4,3.5,8.1,4.8,12.3c0,0,5.8-8.2,21.3,0.9c0,0,7.5,5,9.7,14l0.3,6c0,0,10.9,3,15.3,7.4s9.2,8.2,7.6,19.1
							c2.3,2.4,3.5,5.7,3.1,9.1c-0.8,5.5-2.9,22.2-2.9,22.2s-1.3,8.9-3,13.5s-5.4,13.3-8.6,16c-3.3,2.7-10.8,14.3-10.8,14.3
							s-4.5,7.6-6,12.8s-3.7,14.4-3.7,21.2s1.1,28,1.1,28l2.1,27.7l3.2,29.8l2.2,70.5L164,361.8c0,0-0.8-31.5,6.3-74.6
							c0.3-1.7,4.1-26.4,4.4-29.2c0.3-2.8,1.3-12.8,1.5-17.8c0.3-5,0.7-22.8,0.5-28.4C176,206.2,174.9,190.4,174.9,190.4z"/>
					</defs>
					<clipPath id="SVGID_00000073688017432835126920000004678271338226747325_">
						<use xlink:href="#SVGID_00000093887504139671499670000016378071866091670948_"  style="overflow:visible;"/>
					</clipPath>
					<g style="clip-path:url(#SVGID_00000073688017432835126920000004678271338226747325_);">
						<path class="st4" d="M153.8,467.8c-3.4-53.1,18.8-53.9,18.6-107.1s-19.3-53.1-19.6-106.3c-0.2-53.2,18.8-53.3,18.6-106.6
							s-19.3-53.1-19.6-106.4c-0.2-53.2,15.7-52.8,18.6-106c0.2-3.2-6.4-10.1-3.3-10.1c3.2,0,3.2,19.1,6.4,19
							c3.2,0,3.1-19.1,6.2-19.1c3.2,0,3.2,19.1,6.4,19c3.2,0,15.6-13.3,15.8-10.2c3.4,53.1-18.8,53.9-18.6,107.1
							s19.3,53.1,19.6,106.4c0.2,53.2-18.8,53.3-18.6,106.6s19.3,53.1,19.6,106.3s-15.7,52.8-18.6,106c-0.2,3.1,6.4,10.1,3.3,10.1
							c-3.2,0-3.2-19.1-6.4-19s-3.1,19.1-6.2,19.1c-3.2,0-4.9-19.4-8-18.9C159.9,459.2,154,470.9,153.8,467.8z"/>
						<path class="st5" d="M216.9,467.5c-3.4-53.1,18.8-53.9,18.6-107.1s-19.3-53.1-19.6-106.4c-0.2-53.2,18.8-53.3,18.6-106.6
							s-19.3-53.1-19.6-106.3c-0.2-53.2,15.7-52.8,18.6-106c0.2-3.1-6.4-10.1-3.3-10.1c3.2,0,3.2,19.1,6.4,19.1s3.1-19.1,6.2-19.1
							s3.2,19.1,6.4,19c3.2,0,15.5-13.3,15.7-10.2c3.5,53.2-18.7,54-18.5,107.2s19.3,53.1,19.6,106.4s-18.8,53.3-18.6,106.6
							s19.3,53.1,19.6,106.4s-15.7,52.8-18.6,106c-0.2,3.2,6.4,10.1,3.3,10.1c-3.2,0-3.2-19.1-6.4-19c-3.1,0-3.1,19.1-6.2,19.1
							c-3.2,0-4.9-19.4-8-18.9C223,458.9,217.1,470.6,216.9,467.5z"/>
						<path class="st6" d="M248.4,467.3c-3.8-1.4-1.3-18,1.8-33c5-24.1,17-34.9,16.8-74.1c-0.2-53.2-19.3-53.1-19.6-106.4
							c-0.2-53.2,18.8-53.3,18.6-106.6s-19.3-53-19.6-106.2c-0.2-53.2,15.7-52.8,18.5-105.9c0.2-3.1-6.4-10.1-3.3-10.1
							c3.2,0,3.3,19.1,6.4,19c3.1,0,3.1-19.1,6.2-19.1c3.2,0,3.2,19.1,6.4,19c3.2,0,15.6-13.3,15.8-10.2
							c3.4,53.1-18.8,53.9-18.6,107.1s19.3,53.1,19.6,106.3c0.1,10.9-0.9,21.7-3,32.4c-4.8,24.1-10.9,24.9-10.9,39.7
							c-0.1,16.2,7.2,17.4,6.8,34c-0.4,16.8-7.9,17.6-8.2,32.8c-0.2,15.5,7.4,17,13,41.6c1.9,8.5,3.2,18.6,3.3,32.4
							c0.2,53.2-15.7,52.8-18.6,106c-0.2,3.2,6.4,10.1,3.3,10.1c-3.2,0-3.2-19.1-6.4-19s-3.1,19.1-6.2,19.1c-2.4,0-2.1-17.4-8-18.9
							C257.4,456,251.9,468.6,248.4,467.3z"/>
						<path class="st7" d="M185.4,467.6c-3.4-53.1,18.8-53.9,18.6-107.1s-19.3-53.1-19.6-106.4c-0.2-53.2,18.8-53.3,18.6-106.6
							s-19.3-53.1-19.6-106.3s15.7-52.8,18.6-106c0.2-3.2-6.4-10.1-3.3-10.1c3.2,0,3.2,19.1,6.4,19s3.1-19.1,6.2-19.1
							c3.2,0,3.2,19.1,6.4,19c3.2,0,15.6-13.3,15.8-10.2c3.4,53.1-18.8,53.9-18.5,107.1c0.2,53.2,23,55,23.3,108.3
							c0.2,53.2-22.5,51.4-22.3,104.6s19.3,53.1,19.6,106.4c0.2,53.2-15.7,52.8-18.6,106c-0.2,3.1,6.4,10.1,3.3,10.1
							c-3.1,0-3.2-19.1-6.4-19c-3.2,0-3.1,19.1-6.2,19.1c-3.2,0-4.9-19.4-8-18.9C191.4,459,185.6,470.8,185.4,467.6z"/>
					</g>
				</g>
			</g>
			<path class="st8" d="M261.8,52.3c0.2-0.4,0.2-0.9,0-1.4l-0.1-0.5c0-0.3-0.1-0.5-0.2-0.7c-0.1-0.4-0.3-0.8-0.5-1.2
				c-0.1-0.3-0.2-0.5-0.3-0.8c-0.1-0.1-0.1-0.2-0.1-0.4l-0.1-0.5c-0.1-0.3-0.1-0.6-0.3-0.9l-0.5-1.3l-0.1-0.4
				c-0.3-0.9-0.7-1.8-1.2-2.6l-0.1-0.2c-0.2-0.3-0.4-0.6-0.6-0.9c-0.3-0.4-0.6-0.7-0.8-1.1c-0.1-0.2-0.2-0.4-0.3-0.5
				c-0.1-0.2-0.1-0.2-0.2-0.4c-0.5-0.8-1-1.6-1.7-2.2c-0.3-0.3-0.6-0.7-0.9-1l-0.9-1.1c-0.1-0.1-0.1-0.1-0.2-0.2
				c-0.1-0.1-0.2-0.2-0.3-0.3l-0.1-0.1c-0.2-0.2-0.4-0.4-0.6-0.5l-0.6-0.4c-0.2-0.1-0.5-0.3-0.7-0.4c-0.2-0.1-0.3-0.2-0.5-0.3
				c-0.2-0.1-0.4-0.3-0.6-0.4l-0.3-0.2c-0.3-0.2-0.6-0.3-0.9-0.5c-0.5-0.3-0.9-0.5-1.5-0.7l-0.5-0.2c-0.5-0.2-1-0.4-1.5-0.6
				c-0.3-0.1-0.6-0.2-0.9-0.3c-0.5-0.2-1-0.3-1.6-0.4l-1.1-0.2c-0.3-0.1-0.6-0.2-1-0.3c-1.2-0.3-2.5-0.5-3.7-0.6c-0.2,0-0.4,0-0.6,0
				l-0.4-0.1c-0.2-0.1-0.4-0.1-0.6-0.1c-0.2,0-0.5,0-0.7,0c-0.4,0-0.7,0-1.1,0s-0.8,0-1.2,0.1h-0.4l-0.9,0.1c-0.5,0-1.1,0.1-1.6,0.2
				l-0.6,0.1l-0.6,0.2c-0.4,0.1-0.8,0.2-1.2,0.2c-0.7,0.1-1.4,0.3-2,0.6l-0.3,0.2c-0.2,0.1-0.3,0.2-0.5,0.3
				c-0.1,0.1-0.3,0.1-0.6,0.2c-1,0.3-1.8,0.7-2.7,1.3c-0.4,0.2-0.7,0.5-1.1,0.8c-0.3,0.3-0.8,0.7-1.2,1.1c-0.4,0.4-0.6,0.5-0.9,0.9
				c-0.3,0.3-0.5,0.5-0.7,0.8c-0.2,0.2-0.4,0.4-0.6,0.7l-0.2,0.3c-0.2,0.2-0.3,0.4-0.5,0.5c-0.2,0.2-0.3,0.5-0.5,0.7
				c-0.2,0.3-0.4,0.7-0.6,1c-0.1,0.1-0.2,0.3-0.4,0.4c-0.2,0.3-0.4,0.6-0.6,0.9c-0.1,0.2-0.2,0.5-0.3,0.7l-0.1,0.2
				c-0.1,0.4-0.3,0.7-0.5,1.1l-0.1,0.2c-0.1,0.1-0.2,0.3-0.2,0.4l-0.4,0.9c-0.3,0.7-0.5,1.5-0.7,2.2c-0.2,0.9-0.5,1.9-0.9,2.8
				c-0.3,0.9-0.5,1.8-0.7,2.7c-0.1,0.6-0.2,1.2-0.4,1.7c-0.1,0.4-0.2,0.7-0.2,1.1c-0.1,0.4-0.1,0.5-0.2,0.8
				c-0.1,0.3-0.2,0.5-0.2,0.8c-0.1,0.2-0.2,0.7-0.3,1.1c-0.1,0.4-0.2,0.9-0.2,1.3c0,0.2-0.1,0.4-0.1,0.5l-0.1,0.3
				c-0.1,0.5-0.2,1-0.4,1.5l-0.2,0.7c-0.1,0.4-0.3,0.9-0.4,1.3c-0.2,0.8-0.4,1.7-0.5,2.6c-0.1,0.5-0.2,0.9-0.4,1.3l-0.2,0.5
				c-0.4,0.9-0.6,1.6-0.9,2.4l-0.2,0.6c-0.2,0.5-0.5,1.3-0.2,1.8c0.1,0.1,0.1,0.1,0.2,0.2c0.2,0.1,0.4,0.2,0.6,0.1
				c0.5-0.1,0.9-0.7,1-1c0.2-0.4,0.4-0.8,0.6-1.3c0.2-0.5,0.3-1,0.4-1.5c0.1-0.3,0.2-0.6,0.2-0.9l0.2-0.9c0-0.1,0.1-0.3,0.1-0.4
				l0.1-0.4c0.1-0.3,0.2-0.6,0.2-1l0.2-1c0.2-0.6,0.4-1.3,0.6-1.9c0.1-0.2,0.1-0.4,0.2-0.5l0.1-0.2l0.1-0.2c0.2-0.4,0.3-0.8,0.3-1.2
				l0.1-0.3l0.3-1.5v-0.1c0.2-1.1,0.4-2.2,0.8-3.3c0.2-0.4,0.3-0.9,0.4-1.3l0.1-0.5l0.1-0.4c0-0.2,0.1-0.4,0.1-0.6
				c0.1-0.4,0.2-0.8,0.2-1.2c0-0.2,0-0.3,0.1-0.5V48c0.1-0.5,0.2-0.9,0.4-1.4s0.4-0.9,0.5-1.4c0.1-0.2,0.1-0.4,0.1-0.6
				c0-0.1,0.1-0.3,0.1-0.4c0.1-0.3,0.2-0.7,0.3-1c0.1-0.1,0.1-0.3,0.2-0.4c0.1-0.2,0.2-0.4,0.3-0.6c0.3-0.7,0.6-1.4,1-2
				c0.9-1.6,2-3.1,3.2-4.5l0.2-0.2l0.6-0.7c0.1-0.1,0.2-0.2,0.2-0.3l0.1-0.1c0.1-0.1,0.2-0.3,0.4-0.4c0.3-0.3,0.6-0.5,1-0.7
				s0.7-0.4,1.1-0.6s0.6-0.4,0.9-0.6L222,32c0.4-0.3,0.8-0.5,1.3-0.7c0.3-0.1,0.5-0.3,0.9-0.4c0.2-0.1,0.4-0.2,0.7-0.2l0.4-0.1
				c0.4-0.1,0.9-0.2,1.3-0.4c0.4-0.1,0.6-0.2,0.9-0.3c0.5-0.1,0.9-0.2,1.3-0.4c0.4-0.2,0.8-0.3,1.3-0.2c0.5,0.1,0.9,0.1,1.4,0.1l0,0
				l1-0.1c0.5-0.1,0.9-0.1,1.4,0c2.1,0.3,3.7,0.6,5.3,0.9c0.2,0,0.5,0.1,0.7,0.1c0.5,0,0.9,0.1,1.3,0.3c0.4,0.2,0.8,0.3,1.2,0.4
				c0.2,0.1,0.5,0.1,0.7,0.1c0.1,0,0.3,0,0.4,0.1c0.4,0.1,0.9,0.3,1.2,0.5s0.7,0.4,1,0.5c0.2,0.1,0.5,0.2,0.7,0.3s0.3,0.1,0.5,0.2
				c0.2,0.1,0.3,0.2,0.5,0.3s0.4,0.3,0.6,0.4c0.8,0.5,1.6,1,2.3,1.7l0.3,0.3c0.6,0.6,1.2,1.3,1.9,2.1l0.1,0.1
				c0.6,0.7,1.1,1.4,1.7,2.2c0.1,0.1,0.2,0.2,0.3,0.3s0.1,0.1,0.1,0.2c0.1,0.1,0.1,0.2,0.2,0.3s0.2,0.3,0.2,0.5
				c0.1,0.2,0.3,0.4,0.4,0.6l0.2,0.1c0.2,0.2,0.3,0.5,0.4,0.8c0.3,0.7,0.6,1.3,0.9,2c0.1,0.2,0.1,0.4,0.2,0.6c0.2,0.5,0.4,1,0.6,1.5
				c0.1,0.2,0.2,0.4,0.3,0.5l0.1,0.2c0.1,0.1,0.1,0.2,0.1,0.3c0.2,0.3,0.3,0.7,0.4,1l0.1,0.2c0.1,0.2,0.1,0.4,0.1,0.6
				c0,0.2,0.1,0.6,0.2,0.9c0.1,0.4,0.2,0.7,0.4,1.1l0.1,0.1c0.1,0.4,0.3,0.7,0.6,1c0.2,0.2,0.5,0.2,0.7,0.1
				C261.7,52.5,261.8,52.4,261.8,52.3z"/>
			<path class="st8" d="M229.8,111.7c-0.2,0.9-0.1,1.8,0.1,2.7c0.1,0.3,0.1,0.7,0.2,1c0.1,0.5,0.2,1,0.4,1.5
				c0.3,0.8,0.6,1.6,0.9,2.3c0.2,0.5,0.5,1,0.8,1.6c0.1,0.2,0.2,0.5,0.4,0.7l0.5,1c0.2,0.5,0.5,1.1,0.9,1.6c0.5,0.8,1.1,1.5,1.7,2.2
				c0.2,0.2,0.4,0.4,0.6,0.6c1.4,1.4,3.1,2.5,4.9,3.3l0.5,0.2c0.7,0.3,1.3,0.5,2,0.6c1,0.2,1.9,0.3,2.8,0.4c0.4,0.1,0.8,0.1,1.2,0.2
				c0.3,0,0.5,0.1,0.9,0.1c1.9,0.1,3.8-0.3,5.6-1c1.7-0.7,3.3-1.6,4.8-2.7l0.4-0.3c0.2-0.2,0.4-0.3,0.6-0.5l0.3-0.2
				c0.4-0.4,0.8-0.7,1.1-1.2c0.3-0.4,0.6-0.7,0.9-1.1l0.9-1.2l0.7-0.9l0.9-1.1l0.4-0.5c0.4-0.5,0.8-1.1,1.1-1.6
				c0.6-0.9,1.2-1.7,1.7-2.6c0.2-0.3,0.4-0.6,0.6-0.9l1.7-2.6l1-1.5c0.6-1,1.1-1.8,1.6-2.7c0.3-0.6,0.7-1.2,1-1.8s0.7-1,1.1-1.7
				c1.3-2,2.7-4,4-6.1c0.2-0.4,0.4-0.7,0.6-1s0.3-0.4,0.4-0.5c0.1-0.2,0.5-0.6,0.7-0.9s0.5-0.8,0.8-1.2l1.1-1.8l1.3-2l0.4-0.6
				c0.3-0.5,0.6-1,1-1.4c0.5-0.7,1.1-1.6,1.7-2.6l0.6-1l0.6-1l1.3-2.1c0.8-1.2,1.4-2.4,1.9-3.7c0.1-0.2,0.2-0.4,0.2-0.6
				c0.1-0.4,0.2-0.7,0.4-1.1l0.5-1.2c0.7-1.8,1.1-3.8,1.1-5.8c0-0.9,0-1.8-0.2-2.6c-0.1-1-0.4-2.1-0.7-3.1c-0.2-0.7-0.5-1.5-0.8-2.2
				s-0.6-1.3-1-1.9c-0.3-0.5-0.6-1-0.9-1.5c-0.1-0.2-0.2-0.4-0.4-0.6c-0.3-0.4-0.5-0.8-0.9-1.2c-0.4-0.5-0.8-0.9-1.2-1.3
				c-0.5-0.6-1.1-1.1-1.6-1.6l-0.8-0.7c-0.5-0.5-1-0.9-1.5-1.3c-0.4-0.3-0.9-0.6-1.4-0.9l-0.4-0.2l-2.1-1.1l-0.3-0.2
				c-0.3-0.2-0.6-0.3-0.9-0.4c-0.6-0.2-1.2-0.5-1.7-0.7c-1.5-0.6-3-0.9-4.5-1.2c-2-0.3-4-0.2-5.9,0.2c-1.9,0.5-3.7,1.4-5.1,2.8
				c-0.9,0.8-1.7,1.7-2.6,2.6c-0.5,0.6-1,1.2-1.4,1.7l-0.9,1.4l-0.9,1.3c-0.4,0.6-0.9,1.2-1.2,1.8c-0.5,0.9-1,1.6-1.3,2.3l-0.5,1
				l-0.3,0.6c-0.4,0.8-0.9,1.7-1.5,2.7l-0.7,1.2c-0.5,0.8-0.9,1.6-1.4,2.4c-0.8,1.5-1.6,3.2-2.2,4.8c-0.2,0.6-0.8,1.7-1.2,2.6
				c-0.2,0.4-0.4,0.8-0.5,1.1c-0.9,1.9-1.4,3.2-2,4.8l-0.5,1.3c-0.4,0.9-1,2.7-0.7,3.4c0,0.1,0.1,0.2,0.2,0.2
				c0.2,0.1,0.5,0.1,0.7-0.1c0.6-0.7,1.1-1.5,1.4-2.3c0.3-0.7,0.7-1.5,1-2.5c0.4-1,0.7-1.8,1-2.8c0.2-0.5,0.4-1.1,0.7-1.7
				c0.2-0.6,0.5-1.1,0.7-1.7c0.1-0.2,0.2-0.5,0.3-0.7s0.2-0.4,0.3-0.7l0.8-1.7c0.3-0.6,0.6-1.2,0.9-1.8c0.6-1.2,1.2-2.3,1.8-3.4
				c0.2-0.3,0.4-0.7,0.6-1l0.2-0.3l0.3-0.4c0.4-0.7,0.8-1.4,1.2-2.1l0.3-0.6l1.5-2.7l0.1-0.2c1.1-1.9,2.3-3.7,3.7-5.4
				c0.6-0.7,1.2-1.4,1.8-2c0.2-0.2,0.4-0.4,0.6-0.6c0.2-0.2,0.3-0.3,0.5-0.5c0.3-0.3,0.5-0.6,0.9-0.8c0.6-0.4,1.2-0.9,1.9-1.3
				c0.3-0.2,0.5-0.3,0.8-0.4c0.2-0.1,0.4-0.2,0.7-0.3c0.8-0.3,1.7-0.5,2.6-0.4c1,0,1.9,0.1,2.9,0.2l1.2,0.2c0.2,0,0.5,0.1,0.8,0.1
				c0.7,0.1,1.3,0.3,1.9,0.6c0.3,0.1,0.6,0.2,0.9,0.4l1.2,0.5c1.3,0.6,2.6,1.3,3.8,2.1c3.1,2,5.6,4.7,7.5,7.9l0.3,0.5
				c0.3,0.6,0.6,1.1,0.8,1.7c0.1,0.3,0.3,0.5,0.4,0.7l0.1,0.2c0.1,0.3,0.3,0.6,0.3,1c0.2,0.8,0.3,1.6,0.4,2.4c0,0.8,0,1.6,0,2.4
				s-0.1,1.4-0.2,2.1c0,0.1,0,0.2,0,0.3c-0.1,1-0.4,1.9-0.7,2.8c-0.2,0.6-0.4,1.2-0.6,1.7c-0.2,0.4-0.4,0.8-0.6,1.2L289,80
				c-0.4,0.7-0.9,1.5-1.3,2.4c-0.4,0.7-0.7,1.2-0.9,1.6c-0.4,0.6-0.7,1.2-1.4,2.5c-0.4,0.8-0.9,1.5-1.4,2.2
				c-0.6,0.7-1.2,1.5-1.7,2.3l0,0c-0.4,0.6-0.7,1.1-1.1,1.7c-0.5,0.9-1,1.7-1.5,2.4c-2.6,3.5-4.5,6.4-6.2,9
				c-0.3,0.4-0.5,0.9-0.7,1.3s-0.4,0.8-0.7,1.2c-0.3,0.4-0.5,0.7-0.9,1.1c-0.5,0.7-1,1.4-1.5,2.1c-0.2,0.4-0.5,0.9-0.7,1.3
				c-0.1,0.2-0.3,0.5-0.4,0.8c-0.5,0.8-1,1.6-1.5,2.3c-0.5,0.6-0.9,1.3-1.4,2c-0.3,0.5-0.6,0.9-0.9,1.4c-0.2,0.3-0.4,0.6-0.6,1
				c-0.2,0.3-0.4,0.6-0.6,0.9c-0.3,0.4-0.5,0.7-0.9,1.1c-1.1,1.6-2.3,3.1-3.7,4.4c-0.2,0.2-0.4,0.4-0.6,0.5c-1.4,1.3-3,2.3-4.7,3.1
				l-0.3,0.1c-1.6,0.6-3.4,1-5.2,1c-0.3,0-0.5,0-0.8,0c-0.2,0-0.3,0-0.5,0l-0.7-0.1l-1-0.2c-0.5-0.1-0.9-0.2-1.4-0.3l-0.4-0.1
				c-0.5-0.1-1.1-0.3-1.6-0.6c-1.3-0.6-2.5-1.3-3.6-2.2c-0.3-0.2-0.6-0.5-0.8-0.8c-0.7-0.8-1.4-1.6-2-2.4c-0.2-0.3-0.4-0.6-0.6-0.9
				l-0.3-0.4c-0.2-0.2-0.2-0.4-0.3-0.5c-0.4-0.6-0.7-1.2-0.9-1.9l-0.2-0.4c-0.1-0.3-0.2-0.7-0.4-1c-0.2-0.6-0.4-1.2-0.5-1.7
				s-0.5-1.5-0.7-2.2l-0.1-0.2c-0.2-0.7-0.4-1.4-0.7-2c-0.3-0.4-0.5-0.6-0.7-0.5C229.9,111.4,229.8,111.5,229.8,111.7z"/>
			<path class="st8" d="M260,125.3c-0.2,0.6-0.1,1.2,0.2,1.7l0.2,0.6c0.1,0.3,0.3,0.6,0.4,0.9c0.2,0.5,0.5,0.9,0.9,1.3
				c0.2,0.3,0.5,0.5,0.7,0.9c0.1,0.1,0.2,0.3,0.3,0.4l0.4,0.5c0.2,0.3,0.5,0.6,0.7,0.9c0.4,0.4,0.9,0.7,1.3,1.1
				c0.1,0.1,0.3,0.2,0.4,0.3c0.9,0.7,2,1.4,3.1,1.8l0.3,0.1c0.4,0.2,0.8,0.3,1.2,0.4c0.6,0.1,1.1,0.3,1.7,0.4
				c0.2,0.1,0.5,0.2,0.7,0.2l0.5,0.1c1.1,0.3,2.2,0.4,3.4,0.3c1.1-0.1,2.1,0,3.3-0.1h0.3c0.2,0,0.3-0.1,0.5-0.1h0.2
				c0.3,0,0.6-0.1,1-0.2l0.8-0.2l0.9-0.3l0.6-0.2c0.3-0.1,0.5-0.1,0.9-0.2l0.4-0.1c0.4-0.1,0.8-0.3,1.2-0.4c0.6-0.2,1.2-0.5,1.8-0.8
				l0.6-0.3c0.6-0.3,1.1-0.6,1.7-0.9c0.3-0.2,0.6-0.4,0.9-0.6c0.5-0.4,1-0.8,1.5-1.2l1-0.9c0.3-0.2,0.6-0.5,1-0.8
				c1.2-0.9,2.3-1.9,3.3-3c0.2-0.2,0.3-0.3,0.5-0.5c0.1-0.1,0.2-0.2,0.4-0.3c0.2-0.1,0.4-0.3,0.6-0.4c0.2-0.2,0.4-0.4,0.6-0.6l0.9-1
				l0.9-1.1l0.3-0.4c0.2-0.3,0.4-0.5,0.7-0.8c0.4-0.5,0.8-0.9,1.2-1.4l0.4-0.7l0.4-0.6c0.3-0.4,0.6-0.7,1-1.1c0.6-0.6,1.1-1.3,1.5-2
				l0.2-0.3c0.1-0.2,0.2-0.4,0.3-0.6c0.1-0.1,0.3-0.3,0.5-0.6c0.8-0.8,1.5-1.8,2.1-2.7l0.9-1.3c0.3-0.5,0.6-1.1,0.9-1.6l0.7-1.2
				c0.2-0.4,0.4-0.7,0.6-1.1s0.3-0.6,0.5-0.9l0.2-0.4c0.1-0.2,0.3-0.5,0.4-0.8s0.3-0.7,0.4-1s0.3-0.9,0.5-1.3l0.3-0.6
				c0.2-0.4,0.3-0.7,0.4-1.1c0.1-0.3,0.1-0.6,0.2-1v-0.3c0.1-0.5,0.1-1,0.2-1.4v-0.2c0-0.2,0.1-0.4,0.1-0.6c0-0.4,0.1-0.8,0.1-1.2
				c0-1,0-1.9-0.2-2.8c-0.3-1.1-0.5-2.3-0.9-3.4c-0.3-1.1-0.8-2.2-1.5-3.1c-0.4-0.6-0.9-1.2-1.3-1.8c-0.3-0.4-0.5-0.7-0.9-1.1
				l-0.6-0.8l-0.6-0.8c-0.3-0.4-0.6-0.7-1-1c-0.4-0.4-0.9-0.7-1.3-1l-0.6-0.4l-0.4-0.2c-0.5-0.3-1-0.6-1.6-1.1l-0.7-0.5
				c-0.5-0.3-0.9-0.6-1.4-0.9c-0.9-0.5-1.9-1-2.9-1.3c-0.5-0.2-1.1-0.5-1.6-0.7l-0.6-0.3c-1-0.4-1.9-0.8-2.9-1.1l-0.8-0.3
				c-0.6-0.2-1.7-0.6-2.2-0.2c-0.1,0.1-0.1,0.1-0.2,0.2c-0.1,0.2-0.1,0.4,0,0.6c0.2,0.5,1,0.9,1.3,1c0.5,0.2,1,0.4,1.5,0.6l1.7,0.5
				l1.1,0.4l1,0.4c0.1,0.1,0.3,0.1,0.4,0.2l0.4,0.2l1,0.5l1.1,0.5c0.7,0.4,1.3,0.8,2,1.2c0.2,0.1,0.4,0.2,0.5,0.4l0.2,0.1l0.2,0.2
				c0.4,0.3,0.8,0.6,1.2,0.9l0.3,0.2c0.5,0.3,1,0.7,1.5,1l0.1,0.1c1,0.8,1.9,1.7,2.7,2.8c0.3,0.5,0.6,0.9,0.9,1.3L312,87l0.2,0.3
				c0.2,0.2,0.3,0.4,0.4,0.6c0.2,0.4,0.4,0.9,0.7,1.2l0.3,0.5c0.1,0.1,0.2,0.3,0.2,0.4c0.2,0.5,0.4,1,0.5,1.6s0.2,1.1,0.3,1.7
				c0,0.2,0.1,0.5,0.2,0.7l0.1,0.5c0.1,0.4,0.1,0.8,0,1.2c0,0.2,0,0.4-0.1,0.6s-0.1,0.5-0.1,0.8c-0.1,0.9-0.2,1.7-0.4,2.6
				c-0.6,2.2-1.4,4.2-2.4,6.2l-0.2,0.3l-0.5,1c-0.1,0.2-0.1,0.3-0.2,0.5l-0.1,0.2c-0.1,0.2-0.2,0.4-0.3,0.6
				c-0.3,0.4-0.6,0.8-0.9,1.2c-0.3,0.4-0.7,0.8-1,1.2c-0.3,0.4-0.5,0.8-0.7,1.1l-0.1,0.1c-0.3,0.5-0.7,1-1,1.5l-0.7,0.9
				c-0.2,0.2-0.4,0.4-0.6,0.6l-0.3,0.3c-0.4,0.4-0.7,0.9-1.1,1.3c-0.3,0.4-0.5,0.7-0.6,0.9c-0.4,0.5-0.7,0.9-1,1.5
				c-0.2,0.5-0.6,0.9-1,1.2c-0.5,0.3-0.9,0.7-1.2,1.2l0,0c-0.3,0.3-0.5,0.6-0.8,0.9c-0.3,0.4-0.7,0.9-1.1,1.3l-4.9,4.3
				c-0.2,0.2-0.4,0.4-0.6,0.6c-0.2,0.2-0.4,0.4-0.6,0.6c-0.2,0.2-0.5,0.3-0.7,0.4c-0.5,0.2-0.9,0.5-1.3,0.8
				c-0.2,0.2-0.4,0.4-0.6,0.5c-0.1,0.1-0.2,0.2-0.4,0.3c-0.4,0.3-0.9,0.6-1.4,0.8c-0.4,0.2-0.9,0.4-1.3,0.6l-0.9,0.4l-0.6,0.3
				c-0.2,0.1-0.4,0.2-0.6,0.2c-0.3,0.1-0.5,0.2-0.8,0.3c-1.1,0.4-2.2,0.7-3.3,0.9l-0.5,0.1c-1.1,0.1-2.3,0.2-3.4,0.2h-0.2
				c-1.1,0-2.2-0.1-3.2-0.3c-0.2,0-0.3,0-0.5,0c-0.1,0-0.2,0-0.3-0.1l-0.4-0.1l-0.6-0.2c-0.3-0.1-0.6-0.2-0.9-0.2l-0.2-0.1
				c-0.3-0.1-0.6-0.2-1-0.4s-0.8-0.4-1.1-0.6c-0.4-0.2-0.7-0.5-1.1-0.7l-0.5-0.4c-0.2-0.2-0.5-0.4-0.7-0.6l-0.7-0.6l-0.5-0.4
				l-0.2-0.2c-0.1-0.1-0.2-0.2-0.3-0.2c-0.3-0.3-0.6-0.6-0.9-0.9l-0.1-0.2c-0.1-0.2-0.2-0.4-0.3-0.6c-0.2-0.3-0.4-0.6-0.5-0.9
				c-0.2-0.3-0.4-0.8-0.6-1.2l-0.1-0.1c-0.2-0.4-0.4-0.8-0.7-1.1c-0.2-0.2-0.5-0.2-0.7-0.2C260.1,125,260,125.1,260,125.3z"/>
			<path class="st8" d="M291.9,364.4c0.3-1.2,0.4-2.5,0.3-3.7c0-0.5,0-0.9,0-1.4c0-0.7,0-1.4,0-2.1c0-1.2-0.1-2.3-0.1-3.4
				c-0.1-0.8-0.1-1.6-0.1-2.4c0-0.4,0-0.8,0-1.1v-1.5c0-0.8,0.1-1.7,0-2.5v-3.7v-1.2c0-2.6,0-5.3-0.1-8v-0.7c0-0.9-0.1-1.8-0.1-2.9
				c-0.1-1.3-0.2-2.6-0.2-3.8v-1.7v-1.1c0-2.6-0.1-5.2-0.2-7.7c-0.1-2.4-0.1-4.8-0.2-7.5v-0.7c0-0.4-0.1-0.7-0.1-1.1
				c0-0.2,0-0.3,0-0.5c-0.1-0.7-0.1-1.5-0.2-2.2l-0.2-1.9l-0.2-2.1c-0.1-0.5-0.1-1-0.1-1.5c0-0.6-0.1-1.3-0.1-1.9v-0.9
				c0-0.9-0.1-1.9-0.2-2.8c-0.1-1.5-0.2-3-0.4-4.5c0-0.5-0.1-1-0.1-1.6c-0.1-1.4-0.2-2.9-0.3-4.3l-0.2-2.5c-0.2-1.6-0.3-3-0.5-4.4
				c-0.1-1-0.2-2-0.4-3c-0.1-0.9-0.1-1.7-0.2-2.9c-0.2-3.4-0.5-6.9-0.9-10.4c-0.1-0.6-0.1-1.2-0.1-1.6c0-0.3,0-0.7,0-1
				c0-0.5,0-1.1,0-1.7c0-0.6-0.1-1.3-0.2-2l-0.3-3l-0.3-3.3l-0.1-1.1c-0.1-0.9-0.1-1.6-0.2-2.5c-0.1-1.3-0.2-2.9-0.3-4.5
				c-0.1-0.5-0.1-1.1-0.2-1.6l-0.2-1.7c-0.1-1.1-0.2-2.3-0.2-3.4c-0.1-1.9-0.2-3.8-0.4-5.8l-0.1-0.9c-0.1-0.5-0.1-1.1-0.1-1.6
				s0-1,0-1.8V217c0-1.3,0-2.6,0-3.8s0-2.4,0-3.6c0.1-1.4,0.1-2.8,0.2-4.3l0.3-3.2c0.1-1,0.2-1.9,0.4-2.9c0.1-0.8,0.2-1.6,0.3-2.4
				l0.2-0.9l0.4-1.9c0.2-0.8,0.3-1.6,0.5-2.4c0.3-1.1,0.5-2.1,0.9-3c0.1-0.5,0.4-0.9,0.5-1.4c0.3-0.8,0.7-1.6,1-2.5
				c0.2-0.7,0.5-1.3,0.8-2l0.2-0.6c0.4-1,0.8-2,1.4-2.9l0.3-0.4l0.6-1.1c0.4-0.8,0.8-1.5,1.3-2.3c1.1-1.7,2.4-3.5,3.6-5.3
				c1.5-2.1,3.2-4.2,5-6.3c1.7-2,3.3-4.1,4.8-6.3c0.5-0.7,0.9-1.4,1.4-2.1c0.5-0.7,0.9-1.5,1.3-2.2c0.5-0.9,1-1.9,1.4-2.8l0.9-2.1
				c0.3-0.7,0.6-1.4,0.9-2.1c0.4-1,0.7-2,1.1-3c0.4-1.3,0.7-2.7,0.9-3.7c0.1-0.5,0.2-1,0.3-1.5l0.2-0.9c0.2-1.3,0.5-2.7,0.8-4.4
				l0.4-2c0.2-1.3,0.4-2.6,0.6-3.9c0.3-2.5,0.6-5,0.7-7.4c0.1-0.9,0.3-2.7,0.5-4c0.1-0.6,0.2-1.2,0.3-1.6c0.5-2.5,0.7-5,0.6-7.5
				c-0.1-0.7-0.2-1.4-0.3-2.1c-0.2-1-0.6-1.9-1.2-2.7c-0.5-0.7-1.2-1.2-2-1.4c-0.1,0-0.2,0-0.3,0.1c-0.2,0.2-0.1,0.4,0,0.8
				c0.1,0.3,0.5,0.9,0.9,1.5c0.2,0.5,0.4,1,0.6,1.5c0.3,1.1,0.4,2.3,0.4,3.4c0,1.4-0.1,2.7-0.2,4.1c-0.1,0.9-0.2,1.7-0.3,2.7
				c-0.1,0.9-0.2,1.7-0.3,2.6c0,0.4-0.1,0.8-0.1,1.1s-0.1,0.7-0.1,1.1l-0.3,2.8l-0.3,2.9c-0.2,1.9-0.5,3.7-0.8,5.5
				c-0.1,0.5-0.2,1.1-0.3,1.6l-0.1,0.5c-0.1,0.2-0.1,0.4-0.2,0.7c-0.3,1.2-0.5,2.4-0.6,3.4c0,0.3-0.1,0.6-0.2,1l-0.4,2.1l-0.5,2.1
				l-0.1,0.4c-0.4,1.6-0.9,3.1-1.5,4.6c-0.3,0.9-0.7,1.6-1,2.3c-0.3,0.6-0.5,1.2-0.9,1.8l-1,1.7l-1,1.7c-0.2,0.4-0.4,0.8-0.7,1.1
				l-0.5,0.9c-0.4,0.6-0.7,1.1-1,1.5c-0.7,0.9-1.4,1.9-2,2.8l-0.8,1.2l-0.7,1c-0.8,1.1-1.7,2.1-2.6,3.2s-1.9,2.2-2.8,3.4
				c-0.4,0.5-0.7,1-1,1.5l-0.7,1l-1.7,2.5l-0.8,1.2c-0.4,0.6-0.7,1.1-1,1.7c-0.5,1-1.1,1.9-1.6,2.9l-1.4,3
				c-2.2,5.2-3.7,10.6-4.5,16.2l-0.1,0.9c-0.2,1-0.2,1.9-0.3,2.9c0,0.5,0,0.9,0,1.2c0,0.1,0,0.3,0,0.4c0,0.5-0.1,1-0.1,1.5
				c-0.1,1.2-0.2,2.4-0.3,3.7c-0.1,1.3-0.2,2.5-0.2,3.8c0,1.1,0,2.2,0.1,3.3v0.5c0.1,1.5,0.1,2.9,0.2,4.4c0.1,0.9,0.1,1.8,0.2,2.7
				c0,0.6,0.1,1.3,0.1,2c0,0.4,0,0.7,0,1.1c0,1.2,0.1,2.6,0.2,4c0.1,1.2,0.2,2,0.2,2.6c0.1,1.1,0.2,2,0.5,4.1
				c0.2,1.2,0.3,2.5,0.3,3.8s0,2.7,0.1,4l0,0c0.1,1,0.2,1.9,0.3,2.9c0.1,1.4,0.3,2.8,0.3,4c0.3,6.2,0.6,11.2,1,15.7
				c0.1,0.7,0.2,1.4,0.3,2.2s0.2,1.4,0.2,2s0.1,1.3,0.1,2c0,1.2,0.1,2.4,0.2,3.7c0.1,0.7,0.2,1.3,0.3,2c0.1,0.4,0.1,0.8,0.2,1.2
				c0.2,1.2,0.2,2.6,0.3,4c0,1.1,0.1,2.2,0.2,3.4c0.1,0.8,0.2,1.5,0.2,2.3l0.2,1.6c0.1,0.6,0.1,1.1,0.1,1.6c0,0.7,0.1,1.3,0.1,2
				c0.2,2.3,0.4,5.4,0.6,8.5l0.1,1.2c0.1,1.3,0.2,2.6,0.2,4c0.1,1.3,0.1,2.9,0.1,4.6v0.5c0.1,2.7,0.2,5.4,0.2,8.1
				c0,0.4,0.1,0.7,0.1,1.2c0,0.2,0,0.5,0,0.8c0,0.2,0,0.7,0,1c0,0.5,0,1,0,1.5c0,0.7,0.1,1.4,0.1,2.2v0.6c0.1,0.8,0.1,1.6,0.1,2.6
				c0,2.1,0,4.3,0,6.4v1.7c0,1.5,0,3.1,0,4.8c0,0.5,0.1,1.1,0.1,1.7c0,0.2,0,0.5,0.1,0.7c0,0.4,0.1,0.7,0.1,0.9
				c0.1,0.9,0.1,2,0.1,3.1v2.3c0,0.9,0,1.8,0,2.7c0,1.1,0.1,2.2,0.2,3.3v0.4c0,1.1,0.2,2.1,0.4,3.1c0.2,0.6,0.5,0.9,0.7,0.8
				C291.6,364.9,291.8,364.7,291.9,364.4z"/>
			<path class="st8" d="M211.5,199.9c-1.6-0.2-3.2-0.3-4.8-0.2c-0.6,0-1.2,0-1.8,0l-2.7-0.1c-1.5-0.1-3-0.1-4.4-0.3
				c-1-0.1-2-0.2-3-0.5c-0.5-0.1-0.9-0.2-1.4-0.3c-0.6-0.2-1.3-0.4-1.9-0.5c-1-0.4-2.1-0.7-2.9-1.1c-0.8-0.3-1.5-0.6-2.2-0.9
				c-0.7-0.4-1.4-0.7-2.1-1.1l-1.3-0.7c-2.9-1.7-5.6-3.7-8.2-6l-0.6-0.6c-0.9-0.7-1.6-1.5-2.7-2.5c-1.2-1.1-2.3-2.3-3.3-3.6
				c-0.4-0.6-0.9-1.1-1.3-1.7l-0.8-1.1c-1.9-2.7-3.8-5.5-5.5-8.2c-1.7-2.6-3.1-5.4-4.6-8.4l-0.4-0.9c-0.2-0.4-0.4-0.9-0.7-1.3
				l-0.3-0.6l-1.3-2.6l-1.2-2.2l-0.7-1.2l-0.1-0.1c0-0.1-0.1-0.2-0.1-0.2l-0.2-0.3l-0.4-0.6c-0.4-0.5-0.7-1.1-1-1.7
				c-0.4-0.7-0.8-1.4-1.2-2.2l-0.5-1c-0.5-1.1-1.1-2.1-1.6-3.2c-0.8-1.7-1.7-3.5-2.4-5.2c-0.3-0.6-0.5-1.2-0.8-1.8
				c-0.7-1.7-1.4-3.4-2-5.2c-0.4-1-0.7-2.1-1-3.1c-0.7-2-1.2-3.7-1.8-5.4c-0.4-1.2-0.8-2.4-1.1-3.7c-0.3-1.2-0.5-2.5-0.7-3.7
				c-0.6-4.3-0.6-8.8,1.1-12.9c0.2-0.6,0.5-1.3,0.9-1.9c0.2-0.4,0.4-0.7,0.7-1.1c0.4-0.6,0.8-1.1,1.2-1.7s1-1.4,1.5-2.1
				c0.8-1,1.6-2,2.5-3s1.9-2.1,2.9-3.1l1-1c0.7-0.8,1.5-1.5,2.3-2.3l4.2-3.9l1.5-1.4c0.5-0.5,1.1-1,1.7-1.5c1.1-1,2.2-1.9,3.4-2.9
				c1.9-1.5,3.9-3.1,5.9-4.7l0.9-0.8c0.6-0.5,1.1-0.9,1.6-1.2c0.5-0.4,1-0.6,2-1.2c2.8-1.9,5.9-3.3,9.2-4.4c3.1-1,6.5-1.1,9.7-0.3
				c1.3,0.3,2.6,0.7,3.9,1.2c1.2,0.4,2.3,0.9,3.4,1.5c0.9,0.4,1.8,0.9,2.8,1.4l1.1,0.6l2.3,1.2l2.9,1.5c1.3,0.6,2.5,1.3,3.7,1.9
				l1.7,1c1,0.6,2,1.1,3.1,1.7c0.9,0.4,1.7,0.9,2.6,1.3l0.8,0.4c1.3,0.6,2.6,1.3,3.8,2l0.6,0.3l1.5,0.8l3,1.6
				c2.4,1.3,4.9,2.6,7.5,3.8c1.6,0.7,3.1,1.5,4.5,2.4c1.4,0.8,2.6,2.1,3.3,3.5c1.2,2.8,0.9,6.3-0.4,9.2c-0.9,1.9-2.3,3.5-3.9,4.7
				c-1,0.8-2.1,1.4-3.3,2c-0.9,0.4-1.7,0.8-2.6,1.1c-0.9,0.3-1.8,0.5-2.7,0.7c-1.3,0.3-2.6,0.4-4,0.6c-1.7,0.2-3.4,0.4-4.8,0.5
				l-2,0.2l-1.2,0.1c-1.7,0.1-3.4,0.2-5.7,0.2c-0.8,0-1.7,0-2.5-0.1c-1.7-0.1-3.4-0.2-5-0.4c-3.1-0.4-6.2-1-9.3-1.9
				c-1.6-0.6-3.2-1.3-4.7-2.2c-0.7-0.4-1.3-0.8-1.7-1.1c-1.3-0.9-2.6-1.9-3.8-3.1c-1.1-1-2-2.1-2.9-3.3c-0.2-0.3-0.5-0.7-0.7-1
				l-0.6-1c-0.2-0.4-0.4-0.9-0.7-1.4l-0.7-1.6c-0.2-0.6-0.4-1.1-0.6-1.5c-0.1-0.4-0.3-0.7-0.5-1.1c-0.1-0.1-0.2-0.2-0.3-0.2
				c-0.2,0-0.4,0.2-0.5,0.7c0,0.4,0,0.8,0,1.2c0.1,0.4,0.1,0.9,0.2,1.4c0.2,0.9,0.5,1.7,0.9,2.5c0.7,1.6,1.6,3.1,2.7,4.5
				c1.2,1.5,2.6,2.8,4.1,4l1.4,1c0.5,0.3,1,0.7,1.6,1c1,0.6,2,1.1,3.1,1.6l1.4,0.6l1.3,0.5c0.6,0.2,1.2,0.4,1.8,0.6s1.2,0.3,1.8,0.5
				c1.2,0.3,2.5,0.6,3.7,0.8c2.4,0.4,4.9,0.7,7.3,0.8l2.1,0.1h0.7l0.9,0.1c1.5,0,3.1,0,4.6-0.1l1.3-0.1c1.9-0.1,3.8-0.3,5.8-0.5
				l0.5-0.1c2.2-0.2,4.3-0.6,6.4-1.2c2-0.5,4-1.3,5.8-2.2c1.6-0.8,3.1-2,4.4-3.3c0.4-0.5,0.8-0.9,1.2-1.4c0.3-0.4,0.5-0.8,0.8-1.2
				c0.4-0.8,0.8-1.6,1.1-2.4c0.6-1.6,0.8-3.2,0.8-4.9c0-0.7-0.1-1.4-0.3-2c-0.1-0.5-0.3-1.1-0.5-1.6c-0.3-0.9-0.8-1.8-1.4-2.6
				c-0.6-0.8-1.4-1.5-2.2-2.1c-1.6-1.2-3.3-2.1-5.1-3l-2.1-1l-1.3-0.6c-1-0.5-2.1-1.1-3.4-1.8l-1.6-0.9l-2.2-1.2l-7.5-3.9
				c-6.9-3.6-13-6.9-19.1-9.9l-1.1-0.5c-1.2-0.5-2.3-1-3.5-1.4c-0.5-0.2-1-0.3-1.6-0.4l-0.5-0.1c-0.6-0.1-1.3-0.3-2-0.4
				c-1.6-0.3-3.3-0.5-5-0.5s-3.4,0.3-5,0.8c-1.4,0.4-2.8,1-4.1,1.7l-0.5,0.3c-1.7,0.9-3.4,1.9-5,3c-1,0.7-2,1.4-2.9,2.1
				c-0.6,0.5-1.4,1-2.1,1.6l-1.1,0.8c-1.2,0.9-2.7,2-4.1,3.2l-2.6,2.3c-1.1,0.9-2,1.7-3.9,3.7c-1.1,1.2-2.3,2.3-3.6,3.4
				c-1.4,1.1-2.6,2.3-3.8,3.6l0,0c-0.9,0.9-1.7,1.8-2.6,2.8c-1.2,1.4-2.4,2.8-3.4,4.1c-2.5,2.9-4.3,6.3-5.3,10
				c-0.7,3.2-0.9,6.5-0.4,9.8c0.1,1,0.3,1.9,0.6,2.8c0.2,0.9,0.5,1.7,0.7,2.6s0.4,1.7,0.6,2.6c0.4,1.5,0.8,3,1.3,4.7
				c0.3,0.9,0.6,1.7,0.9,2.5l0.6,1.5c0.6,1.5,1.1,3.2,1.8,4.9c0.5,1.4,1,2.7,1.7,4.2c0.4,0.9,0.9,1.8,1.3,2.7c0.3,0.6,0.7,1.3,1,1.9
				l0.9,1.8c0.4,0.8,0.8,1.5,1.3,2.4c0.7,1.3,1.7,2.9,2.6,4.4c0.9,1.7,1.7,3.4,2.6,5.2l0.7,1.4c1.5,3,3.2,6.2,5.4,9.9l0.4,0.6
				c1.8,3,3.8,6,6,8.8c0.3,0.4,0.6,0.8,1,1.2l0.6,0.8c0.3,0.4,0.6,0.7,0.9,1.1c0.4,0.5,0.9,1,1.3,1.6c0.6,0.7,1.3,1.4,2,2
				c0.2,0.2,0.4,0.4,0.6,0.5c0.8,0.7,1.5,1.5,2.5,2.3c2.1,1.9,4.3,3.6,6.6,5.2l1.9,1.2c1.8,1.1,3.7,2,5.7,2.7l1,0.4l1.1,0.3l0.9,0.2
				c0.5,0.1,0.9,0.2,1.1,0.3c0.6,0.1,1.2,0.3,1.9,0.4l2.1,0.4c0.3,0.1,0.5,0.1,0.8,0.1c0.7,0.1,1.4,0.2,2.2,0.3
				c1.2,0.1,2.4,0.2,3.6,0.3c1.5,0,2.9,0,4.4-0.1h0.5c1.4-0.1,2.7-0.2,4-0.6c0.8-0.2,1.2-0.5,1-0.7
				C212.2,200.1,211.9,200,211.5,199.9z"/>
			<path class="st8" d="M164.1,361.4c0.2-0.8,0.3-1.6,0.1-2.3l-0.1-0.9c0-0.4-0.1-0.9-0.1-1.3c0-0.7-0.1-1.4-0.2-2.1
				c-0.1-0.5-0.1-1-0.1-1.5c0-0.2,0-0.5,0-0.7s0-0.6,0-1c0-0.5,0.1-1.1,0.1-1.5l0.1-2.3v-0.7c0-1.6,0.2-3.3,0.3-5v-0.4
				c0-0.5,0-1.1,0-1.8c-0.1-0.8-0.1-1.6,0-2.4c0-0.4,0.1-0.7,0.1-1l0.1-0.7c0.2-1.6,0.3-3.3,0.4-4.8s0.3-3,0.6-4.6l0.1-0.4
				c0-0.2,0.1-0.5,0.1-0.7V325c0.1-0.5,0.1-0.9,0.1-1.4l0.1-1.2l0.3-1.3c0-0.3,0.1-0.6,0.1-1c0-0.3,0.1-0.8,0.2-1.2l0.1-0.6
				c0.1-0.6,0.2-1.2,0.3-1.7c0.2-0.9,0.3-1.9,0.4-2.8c0-0.3,0.1-0.7,0.1-1l0.4-2.7l0.2-1.6c0.1-1,0.2-1.9,0.3-2.8
				c0.1-0.6,0.1-1.2,0.2-1.9c0.1-0.6,0.2-1.1,0.3-1.8c0.4-2.1,0.7-4.3,1-6.5c0.1-0.4,0.1-0.7,0.2-1c0.1-0.3,0.1-0.4,0.2-0.6
				s0.2-0.7,0.3-1c0.1-0.4,0.1-0.9,0.2-1.2l0.3-1.9l0.3-2.1l0.1-0.7c0.1-0.5,0.2-1,0.3-1.5c0.2-0.8,0.3-1.8,0.5-2.8l0.1-1l0.1-1.1
				c0.1-0.7,0.2-1.4,0.4-2.2c0.3-1.2,0.5-2.4,0.6-3.6v-0.6c0-0.3,0-0.7,0.1-1c0-0.3,0.1-0.6,0.2-1.1c0.4-1.6,0.7-3.3,0.9-5l0.3-2.2
				l0.3-2.7l0.2-2l0.2-1.8c0.1-0.5,0.1-1,0.2-1.5l0.1-0.6c0.1-0.4,0.1-0.8,0.2-1.2c0.1-0.4,0.1-1,0.1-1.5c0.1-0.7,0.1-1.4,0.2-2
				c0.1-0.3,0.1-0.6,0.2-0.9c0.1-0.5,0.2-1.1,0.2-1.7c0-0.4,0.1-0.9,0.1-1.4v-0.4c0-0.7,0.1-1.4,0.1-2.1v-0.3c0-0.3,0.1-0.5,0.1-0.8
				l0.1-1.7c0.1-1.3,0.2-2.7,0.2-4.1c0-1.7,0.1-3.3,0.3-5.1c0.1-1.6,0.2-3.3,0.2-5c0-1,0-2.1,0.1-3.2c0-0.7,0-1.3,0.1-2v-1.4
				l0.1-1.4c0-0.7,0.1-1.3,0.1-2c0-0.9-0.1-1.7-0.1-2.3c0-0.3,0-0.6-0.1-1v-0.6c0-0.8-0.1-1.7-0.1-2.8v-1.2c0-0.9,0-1.7,0-2.5
				c0-1.6-0.2-3.1-0.4-4.7c-0.1-0.6-0.1-1.7-0.1-2.6c0-0.4,0-0.7,0-1c-0.1-1.8-0.2-3.1-0.4-4.6l-0.1-1.2c-0.1-0.9-0.3-2.6-0.9-3
				c-0.1-0.1-0.2-0.1-0.3-0.1c-0.2,0-0.5,0.2-0.6,0.4c-0.3,0.8-0.4,1.6-0.3,2.4c0,0.7,0.1,1.5,0.2,2.4s0.2,1.8,0.3,2.6
				c0.1,0.5,0.1,1.1,0.2,1.7c0.1,0.7,0.1,1.1,0.2,1.6c0,0.2,0,0.5,0,0.7s0,0.4,0,0.7l0.1,1.7c0.1,0.6,0.1,1.2,0.1,1.8
				c0.1,1.2,0.1,2.3,0.1,3.5c0,0.3,0,0.7,0,1v0.3c0,0.2,0,0.3,0,0.4c0,0.7,0,1.5,0,2.2v0.6l0.1,2.8v0.2c0.1,1.6,0,4.6-0.1,6
				c-0.1,0.9-0.1,1.7-0.1,2.5v0.9v0.6c0,0.4,0,0.8,0,1.2c0,0.7,0,1.5,0,2.2c0,0.3,0,0.6,0,0.9c0,0.3,0,0.5,0,0.7
				c0,0.9-0.1,1.8-0.2,2.6c-0.1,0.9-0.2,1.8-0.2,2.8c0,0.4,0,0.8,0,1.1v0.7c0,0.5,0,1.2-0.1,1.9l-0.1,0.9c-0.1,0.4-0.1,0.8-0.1,1.2
				c-0.1,1.3-0.2,2.7-0.3,4.1c-0.2,1.9-0.4,3.6-0.6,5.3c-0.1,0.9-0.2,1.7-0.3,2.5s-0.2,1.6-0.3,2.4l-0.1,0.6
				c-0.1,0.6-0.1,1.2-0.2,1.8c0,0.3,0,0.5,0,0.8v0.3c0,0.3,0,0.6-0.1,1c-0.1,0.7-0.3,1.5-0.4,2.3c-0.2,0.8-0.3,1.5-0.5,2.3
				c-0.1,0.8-0.2,1.4-0.2,2v0.3c-0.1,0.9-0.2,1.8-0.3,2.7l-0.2,1.7c-0.1,0.4-0.1,0.8-0.2,1.2l-0.2,0.7c-0.2,0.8-0.3,1.6-0.4,2.5
				c-0.1,0.8-0.2,1.2-0.2,1.6c-0.1,0.7-0.2,1.3-0.3,2.6c0,0.8-0.1,1.6-0.4,2.3c-0.3,0.8-0.5,1.6-0.6,2.5l0,0
				c-0.1,0.6-0.2,1.2-0.2,1.8c-0.1,0.9-0.2,1.7-0.4,2.5c-0.9,3.8-1.4,6.9-1.7,9.7c-0.1,0.5-0.1,0.9-0.1,1.4c0,0.4,0,0.8-0.1,1.3
				c-0.1,0.4-0.2,0.8-0.3,1.2c-0.2,0.8-0.3,1.5-0.4,2.3c0,0.4-0.1,0.8-0.1,1.3c0,0.3,0,0.5,0,0.8c-0.1,0.8-0.2,1.7-0.4,2.5
				c-0.1,0.7-0.3,1.4-0.4,2.1c-0.1,0.5-0.1,1-0.1,1.5c0,0.3-0.1,0.7-0.1,1s-0.1,0.7-0.1,1c-0.1,0.4-0.2,0.8-0.2,1.3
				c-0.2,1.5-0.4,3.4-0.7,5.3l-0.1,0.7c-0.2,1.6-0.4,3.3-0.7,5.4v0.4c-0.1,1.7-0.3,3.4-0.4,5.1c0,0.2,0,0.5,0,0.7c0,0.1,0,0.3,0,0.5
				l-0.1,0.7c-0.1,0.3-0.1,0.6-0.1,1s0,0.9,0,1.4v0.4c0,0.5,0,1-0.1,1.6c-0.1,1.3-0.2,2.7-0.3,4l-0.1,1.1c-0.1,1-0.1,2-0.1,3
				c0,0.4,0,0.7,0,1.1v0.4c0,0.3,0,0.4,0.1,0.5c0.1,0.7,0.1,1.3,0.1,2v1.3c0,0.6,0,1.1,0,1.7s0.2,1.4,0.3,2.1v0.2
				c0.1,0.7,0.3,1.3,0.6,1.9c0.2,0.4,0.5,0.5,0.7,0.4C164,361.7,164.1,361.6,164.1,361.4z"/>
			<path class="st8" d="M217.4,35.1c0.1-0.4,0.1-0.9-0.1-1.3l-0.2-0.5c-0.1-0.2-0.2-0.4-0.3-0.7c-0.2-0.3-0.4-0.7-0.6-1
				c-0.2-0.2-0.4-0.4-0.5-0.6l-0.2-0.3l-0.2-0.5c-0.1-0.3-0.3-0.5-0.5-0.7l-0.7-1l-0.2-0.3l-0.9-1c-0.3-0.3-0.6-0.6-1-0.9l-0.2-0.1
				c-0.2-0.2-0.5-0.4-0.8-0.6c-0.4-0.2-0.7-0.5-1.1-0.7c-0.1-0.1-0.3-0.2-0.4-0.4l-0.3-0.2c-0.7-0.6-1.4-1-2.2-1.4
				c-0.7-0.3-1.4-0.8-2.2-1.2l-0.2-0.1c-0.1-0.1-0.2-0.1-0.4-0.1l-0.2-0.1c-0.2-0.1-0.5-0.2-0.7-0.3c-0.2-0.1-0.4-0.1-0.6-0.2
				l-0.7-0.2c-0.2,0-0.3-0.1-0.5-0.1l-0.6-0.2l-0.3-0.1c-0.3-0.1-0.6-0.1-0.9-0.2c-0.5-0.1-1-0.2-1.5-0.2l-0.5-0.1
				c-0.5,0-1,0-1.5-0.1c-0.3,0-0.6,0-0.9,0c-0.5,0-1,0.1-1.5,0.2c-0.3,0.1-0.6,0.2-1,0.2c-0.3,0.1-0.6,0.1-1,0.1
				c-0.6,0.1-1.1,0.2-1.7,0.3s-1.1,0.3-1.7,0.5c-0.2,0.1-0.3,0.1-0.5,0.2c-0.1,0-0.2,0-0.3,0.1c-0.2,0-0.4,0.1-0.5,0.1
				c-0.2,0.1-0.4,0.1-0.6,0.3l-0.9,0.4c-0.3,0.2-0.7,0.3-1,0.5l-0.3,0.2c-0.2,0.1-0.5,0.3-0.7,0.4c-0.4,0.2-0.9,0.5-1.3,0.8
				c-0.1,0.1-0.3,0.2-0.4,0.3l-0.4,0.4c-0.3,0.2-0.6,0.4-1,0.7c-0.5,0.4-1,0.8-1.5,1.3l-0.2,0.3c-0.1,0.1-0.2,0.3-0.3,0.4
				s-0.2,0.2-0.5,0.4c-0.7,0.6-1.3,1.2-1.8,2l-0.7,1l-0.8,1.2c-0.2,0.3-0.4,0.6-0.5,0.9l-0.5,0.9c-0.1,0.2-0.2,0.5-0.4,0.7l-0.2,0.3
				l-0.3,0.6c-0.1,0.2-0.2,0.5-0.3,0.7c-0.1,0.3-0.3,0.7-0.4,1l-0.3,0.4c-0.2,0.3-0.3,0.5-0.4,0.8c-0.1,0.2-0.1,0.5-0.2,0.7
				c0,0.1,0,0.1-0.1,0.2c-0.1,0.4-0.2,0.7-0.3,1.1l-0.1,0.2c-0.1,0.1-0.1,0.3-0.2,0.4c-0.1,0.3-0.1,0.6-0.2,0.9
				c-0.2,0.7-0.3,1.4-0.4,2.1c-0.1,0.9-0.2,1.7-0.4,2.6c-0.2,0.8-0.3,1.7-0.3,2.6c0,0.6,0,1.1-0.1,1.7c0,0.3,0,0.7,0,1
				c0,0.2,0,0.5,0,0.7l-0.1,0.7c0,0.3-0.1,0.7-0.1,1c0,0.4,0,0.8,0.1,1.2c0,0.2,0,0.3,0.1,0.5v0.3c0.1,0.5,0.1,1,0.1,1.4v0.7
				c0,0.4,0,0.9,0,1.3c0.1,0.8,0.2,1.6,0.4,2.4c0.1,0.4,0.1,0.9,0.1,1.3c0,0.2,0,0.4,0,0.5c0.1,0.8,0.2,1.6,0.3,2.4l0.1,0.6
				c0.1,0.5,0.2,1.3,0.8,1.5c0.1,0,0.2,0,0.3,0c0.2,0,0.4-0.1,0.6-0.2c0.3-0.4,0.4-0.8,0.4-1.3c0-0.4-0.1-0.8-0.1-1.2
				c-0.1-0.5-0.2-0.9-0.3-1.3c-0.1-0.3-0.1-0.5-0.2-0.9l-0.2-0.9c0-0.1,0-0.2,0-0.4v-0.3l-0.1-0.9c-0.1-0.3-0.1-0.6-0.1-0.9
				c-0.1-0.6-0.1-1.2-0.1-1.8c0-0.2,0-0.4,0-0.5v-0.2v-0.2c0-0.4,0-0.7-0.1-1.1v-0.3l-0.1-1.4v-0.1c-0.1-1-0.1-2,0.1-3
				c0.1-0.4,0.1-0.9,0.1-1.3c0-0.1,0-0.3,0-0.4v-0.3c0-0.2,0-0.4,0-0.6c0.1-0.4,0.1-0.7,0.1-1.1c0-0.2,0-0.3,0-0.5
				c0-0.1,0-0.3,0-0.4c0-0.4,0.1-0.9,0.2-1.3c0.1-0.4,0.2-0.9,0.3-1.4c0-0.2,0-0.4,0-0.6v-0.4c0.1-0.3,0.1-0.6,0.2-0.9
				c0-0.1,0.1-0.3,0.2-0.4l0.2-0.6c0.2-0.6,0.4-1.3,0.6-1.9c0.7-1.6,1.4-3.1,2.2-4.6l0.1-0.2c0.2-0.3,0.3-0.5,0.4-0.8
				c0.1-0.1,0.1-0.2,0.1-0.4v-0.1c0.1-0.1,0.1-0.3,0.2-0.4c0.2-0.3,0.5-0.6,0.8-0.9s0.6-0.6,0.8-0.9s0.4-0.5,0.6-0.9l0.1-0.1
				c0.3-0.4,0.6-0.7,0.9-1.1l0.6-0.6c0.2-0.1,0.3-0.3,0.5-0.4l0.3-0.2c0.4-0.2,0.7-0.5,1-0.8s0.5-0.4,0.6-0.5c0.3-0.3,0.7-0.5,1-0.9
				c0.3-0.3,0.6-0.5,1-0.7c0.4-0.1,0.8-0.3,1.2-0.5l0,0c0.3-0.1,0.5-0.3,0.8-0.5c0.4-0.2,0.7-0.4,1.1-0.5c1.9-0.5,3.4-0.9,4.7-1.2
				c0.2-0.1,0.4-0.2,0.6-0.2c0.2-0.1,0.4-0.1,0.6-0.2c0.2,0,0.4,0,0.6,0c0.4,0,0.8,0,1.1,0c0.2,0,0.4-0.1,0.6-0.2
				c0.1,0,0.2-0.1,0.4-0.1c0.4,0,0.8,0,1.2,0.1c0.3,0,0.7,0.2,1,0.2c0.2,0,0.5,0,0.7,0s0.3,0,0.5,0s0.3,0.1,0.5,0.1
				c0.2,0.1,0.4,0.1,0.6,0.2c0.4,0.1,0.8,0.2,1.2,0.3c0.5,0.1,0.9,0.3,1.3,0.5l0.3,0.2c0.7,0.3,1.5,0.7,2.4,1.2l0.2,0.1
				c0.7,0.4,1.5,0.9,2.2,1.3c0.1,0.1,0.2,0.1,0.3,0.1s0.1,0.1,0.2,0.1c0.1,0.1,0.2,0.1,0.2,0.2c0.1,0.1,0.2,0.2,0.4,0.3
				c0.2,0.1,0.4,0.3,0.6,0.4l0.2,0.2c0.2,0.1,0.4,0.3,0.6,0.5c0.5,0.5,0.9,1,1.3,1.5l0.3,0.4c0.3,0.4,0.5,0.8,0.9,1.2
				c0.1,0.1,0.2,0.3,0.4,0.4l0.2,0.2c0.1,0.1,0.1,0.1,0.2,0.2c0.2,0.2,0.4,0.5,0.5,0.8l0.1,0.2c0.1,0.1,0.2,0.3,0.2,0.5
				c0.1,0.3,0.2,0.5,0.3,0.8s0.4,0.6,0.5,0.9l0.1,0.1c0.1,0.3,0.4,0.6,0.7,0.8c0.2,0.1,0.5,0.1,0.7,0
				C217.2,35.3,217.3,35.3,217.4,35.1z"/>
			<path class="st8" d="M149.6,112.3c0,0.3,0.2,0.5,0.4,0.5l0.2,0.1c0.1,0.1,0.2,0.1,0.3,0.1c0.2,0.1,0.4,0.1,0.5,0.1s0.3,0,0.4,0
				c0.1,0,0.1,0,0.2,0.1l0.2,0.1c0.1,0.1,0.2,0.1,0.4,0.2l0.6,0.2l0.2,0.1c0.4,0.2,0.8,0.3,1.2,0.3h0.1c0.2,0,0.3,0,0.5,0
				s0.4,0,0.6,0c0.1,0,0.2,0.1,0.2,0.1l0.2,0.1c0.4,0.1,0.8,0.2,1.2,0.2s0.8,0.1,1.1,0.3h0.1c0.1,0,0.1,0,0.2,0h0.1
				c0.1,0,0.2,0,0.4,0h0.3h0.3c0.1,0,0.2,0,0.2,0c0.1,0,0.2,0.1,0.3,0.1h0.1c0.1,0.1,0.3,0,0.4,0.1c0.2,0.1,0.5,0.1,0.7,0.1h0.2
				c0.2,0,0.5,0,0.7,0.1l0.4,0.1c0.2,0,0.5,0,0.7-0.1c0.2,0,0.3-0.1,0.5-0.1s0.3,0,0.5,0.1c0.5,0.1,1.1,0.1,1.6,0.1
				c0.1,0,0.2,0,0.3,0l0.2,0.1c0.1,0,0.2,0.1,0.3,0.1s0.2,0,0.3,0h1.2c0.1,0,0.3,0,0.4,0c0.2,0,0.5,0,0.7,0h0.3h0.3
				c0.2,0,0.4,0,0.5,0c0.3,0.1,0.6,0.1,0.9-0.1l0.1-0.1c0.1,0,0.2-0.1,0.2-0.1c0.1,0,0.2,0,0.3,0c0.4,0.1,0.9,0.1,1.3,0l0.6-0.1
				l0.7-0.2l0.5-0.1l0.5-0.1c0.1,0,0.2-0.1,0.4-0.1h0.2c0.1,0,0.2,0,0.3,0s0.3-0.1,0.4-0.1c0.2,0,0.3-0.1,0.5-0.1c0.1,0,0.2,0,0.2,0
				c0.1,0,0.3,0,0.4,0c0.1,0,0.2-0.1,0.3-0.1h0.1c0.2-0.1,0.3-0.1,0.5-0.1h0.3l0.4-0.1c0.3-0.1,0.7-0.2,1-0.3
				c0.4-0.2,0.8-0.2,1.3-0.2c0.4,0,0.8-0.1,1.2-0.2c0.2-0.1,0.5-0.2,0.8-0.2c0.2,0,0.3,0,0.5-0.1c0.1,0,0.2-0.1,0.4-0.1
				c0.1,0,0.2,0,0.4,0s0.3,0,0.5-0.1s0.4-0.1,0.5-0.2c0.1,0,0.1-0.1,0.2-0.1l0.1-0.1c0.2-0.1,0.4-0.2,0.7-0.2l0.3-0.1
				c0.2,0,0.4-0.1,0.6-0.1c0.4-0.1,0.8-0.3,1.1-0.5c0.2-0.1,0.4-0.2,0.6-0.2l0.3-0.1c0.4-0.1,0.7-0.3,1.1-0.5l0.3-0.1
				c0.4-0.1,0.6-0.5,0.5-0.9c0-0.1,0-0.2-0.1-0.3c-0.1-0.2-0.2-0.4-0.3-0.5c-0.2-0.2-0.5-0.3-0.8-0.3c-0.2,0-0.4,0.1-0.6,0.2
				c-0.2,0.1-0.4,0.2-0.6,0.3l-0.4,0.2l-0.3,0.2c-0.1,0-0.1,0-0.2,0.1h-0.2l-0.4,0.2c-0.1,0.1-0.3,0.1-0.4,0.2
				c-0.3,0.1-0.6,0.2-0.9,0.2c-0.1,0-0.2,0-0.2,0h-0.1h-0.1c-0.2,0-0.4,0-0.5,0.1l-0.1,0.1l-0.6,0.3h0c-0.5,0.2-0.9,0.3-1.4,0.3
				c-0.2,0-0.4,0-0.6,0.1l-0.2,0.1l-0.1,0.1c-0.1,0-0.2,0.1-0.3,0.1c-0.2,0-0.4,0.1-0.5,0.2l-0.2,0.1c-0.1,0-0.1,0.1-0.2,0.1
				c-0.2,0.1-0.4,0.1-0.6,0.1c-0.2,0-0.5,0-0.7,0.1c-0.1,0-0.2,0.1-0.3,0.1l-0.2,0.1c-0.1,0.1-0.3,0.1-0.4,0.1H179
				c-0.1,0-0.2,0-0.3,0c-0.3,0-0.7,0.1-1,0.1c-0.8,0-1.7,0.1-2.5,0.3h-0.1c-0.1,0-0.3,0.1-0.4,0.1c-0.1,0-0.1,0.1-0.2,0.1l-0.1,0.1
				c-0.1,0-0.2,0.1-0.2,0.1c-0.2,0-0.4,0-0.6,0c-0.2,0-0.4-0.1-0.6-0.1c-0.2,0-0.3,0-0.5,0.1h-0.1c-0.2,0.1-0.4,0.1-0.7,0.1
				l-0.4,0.1c-0.1,0-0.2,0-0.3,0h-0.2c-0.2,0-0.4,0-0.6,0c-0.1,0-0.3,0-0.4,0.1c-0.2,0-0.4,0.1-0.6,0.2c-0.2,0.1-0.4,0.2-0.6,0
				c-0.2-0.1-0.4-0.2-0.6-0.2l0,0c-0.1,0-0.3,0-0.4,0c-0.2,0-0.4,0-0.6,0c-0.8-0.2-1.6-0.3-2.4-0.3c-0.1,0-0.2,0-0.3,0.1
				c-0.1,0-0.2,0.1-0.3,0.1s-0.2-0.1-0.3-0.1c-0.2-0.1-0.4-0.1-0.6-0.1c-0.1,0-0.2,0.1-0.3,0.1s-0.1,0-0.2,0.1c-0.2,0-0.4,0-0.6-0.1
				c-0.2-0.1-0.3-0.1-0.5-0.1c-0.1,0-0.2,0-0.4,0h-0.3c-0.1,0-0.2,0-0.2,0c-0.1,0-0.2-0.1-0.3-0.1c-0.4,0-0.9-0.1-1.3-0.2h-0.2
				c-0.4-0.1-0.9-0.2-1.3-0.3h-0.1c-0.4-0.1-0.9-0.1-1.2-0.2c-0.1,0-0.1,0-0.2,0h-0.1l-0.2-0.1c-0.1,0-0.1-0.1-0.2-0.1
				c-0.1,0-0.2,0-0.3,0h-0.1c-0.1,0-0.3,0-0.4-0.1c-0.3-0.1-0.6-0.2-0.9-0.3l-0.2-0.1c-0.2-0.1-0.5-0.2-0.7-0.2h-0.3h-0.1h-0.1
				c-0.2,0-0.3,0-0.5-0.1h-0.1l-0.2-0.1c-0.1-0.1-0.3-0.1-0.4-0.2c-0.2,0-0.3-0.1-0.5-0.1h-0.1c-0.2,0-0.4,0-0.6,0.2
				c-0.2,0.2-0.3,0.4-0.3,0.6C149.5,111.8,149.5,112.1,149.6,112.3z"/>
			<path class="st8" d="M241.9,90.3c-0.3,0.1-0.6,0.3-0.7,0.7c0,0.1-0.1,0.2-0.2,0.3c-0.1,0.1-0.2,0.3-0.2,0.4
				c-0.1,0.2-0.2,0.5-0.3,0.7c0,0.2-0.1,0.3-0.2,0.5c0,0.1-0.1,0.1-0.1,0.2c-0.1,0.1-0.1,0.2-0.2,0.3c-0.1,0.1-0.2,0.3-0.3,0.4
				c-0.2,0.2-0.3,0.5-0.5,0.7l-0.2,0.2c-0.4,0.4-0.8,0.9-1.2,1.3l-0.1,0.1c-0.1,0.2-0.3,0.3-0.4,0.5c-0.1,0.2-0.3,0.5-0.5,0.7
				c-0.1,0.1-0.2,0.1-0.3,0.2l-0.2,0.1c-0.5,0.3-0.9,0.7-1.4,1c-0.4,0.3-0.9,0.6-1.5,0.8l-0.2,0.1c-0.1,0-0.1,0.1-0.2,0.1
				c0,0-0.1,0-0.1,0.1l-0.4,0.2l-0.4,0.2l-0.4,0.2c-0.1,0.1-0.2,0.1-0.3,0.1s-0.3,0.1-0.4,0.1h-0.2c-0.2,0-0.4,0.1-0.6,0.1
				c-0.3,0-0.7,0.1-1,0.2c-0.1,0-0.2,0.1-0.3,0.1c-0.3,0.1-0.6,0.1-1,0.1h-0.6c-0.4,0.1-0.7,0.1-1,0.2c-0.2,0.1-0.4,0.1-0.7,0.1
				c-0.2,0-0.4,0-0.7-0.1l-2.3-0.4c-0.1,0-0.2-0.1-0.4-0.1l-0.2-0.1c-0.1-0.1-0.2-0.1-0.3-0.2s-0.3-0.1-0.4-0.1
				c-0.2-0.1-0.4-0.1-0.6-0.2c-0.2-0.1-0.5-0.2-0.7-0.3l-0.2-0.1c-0.2-0.1-0.3-0.2-0.5-0.3c-0.3-0.2-0.6-0.4-0.9-0.5l-0.3-0.2
				c-0.1-0.1-0.2-0.1-0.3-0.2c-0.2-0.1-0.4-0.3-0.6-0.5c-0.3-0.3-0.6-0.6-1-0.9L216,97c-0.1-0.1-0.2-0.1-0.3-0.2s-0.2-0.2-0.2-0.3
				c-0.3-0.5-0.7-1-1.1-1.4c-0.2-0.2-0.3-0.4-0.5-0.6s-0.4-0.5-0.5-0.8c-0.1-0.2-0.3-0.4-0.4-0.6c-0.1-0.2-0.2-0.4-0.3-0.6
				s-0.2-0.3-0.2-0.5v-0.2c0-0.1-0.1-0.3-0.1-0.4l-0.1-0.5c-0.1-0.2-0.1-0.5-0.1-0.7c0-0.1,0-0.2,0-0.3c0-0.2,0.1-0.4,0.1-0.6
				s0-0.3-0.1-0.5v-0.1c0-0.2,0-0.5,0.1-0.7v0l0.1-0.3c0.1-0.2,0.1-0.4,0.1-0.5c0.1-0.4,0.3-0.9,0.5-1.2c0.3-0.5,0.6-0.9,1.1-1.2
				c0.4-0.3,0.9-0.6,1.4-0.9c0.3-0.2,0.6-0.4,1-0.4c0.2,0,0.4-0.1,0.6-0.2c0.2,0,0.3-0.1,0.5-0.1s0.3,0,0.5,0s0.5,0,0.7,0
				c0.3,0,0.5-0.1,0.8-0.1c0.1,0,0.2,0,0.4-0.1h0.2c0.3,0,0.7,0,1,0l0.5,0.1c0.3,0,0.6,0.1,0.9,0.1c0.6,0.1,1.1,0,1.7-0.1
				c0.3,0,0.6,0,0.9,0.1l0.4,0.1c0.7,0.1,1.1,0.2,1.7,0.2l0.4,0.1c0.3,0,0.9,0.2,1.2-0.3c0.1-0.1,0.1-0.2,0.1-0.2
				c0.1-0.2,0.1-0.4,0.1-0.6c-0.1-0.4-0.4-0.6-0.8-0.7c-0.3-0.1-0.6-0.2-0.9-0.2c-0.3,0-0.7-0.1-1-0.1h-1.3c-0.1,0-0.2,0-0.3,0h-0.2
				c-0.2,0-0.5,0-0.7,0h-0.7c-0.5,0-0.9-0.1-1.3-0.1c-0.1,0-0.3,0-0.4-0.1h-0.1l-0.2-0.1c-0.3-0.1-0.6-0.1-0.9,0h-0.2
				c-0.4,0-0.7,0.1-1.1,0.1h0c-0.7,0.1-1.9,0.3-2.4,0.4c-0.4,0-0.7,0.1-1,0.3c-0.1,0-0.2,0.1-0.3,0.2c-0.1,0-0.2,0.1-0.2,0.1
				c-0.1,0.1-0.3,0.2-0.4,0.2c-0.3,0.1-0.5,0.3-0.8,0.5c-0.1,0.1-0.2,0.2-0.3,0.3l-0.2,0.2c-0.3,0.3-0.6,0.5-0.9,0.7
				c-0.3,0.3-0.6,0.6-0.8,0.9c-0.1,0.2-0.1,0.3-0.2,0.5c0,0.1-0.1,0.2-0.1,0.3c-0.1,0.2-0.2,0.5-0.3,0.7c0,0.1-0.1,0.2-0.2,0.4
				c-0.1,0.2-0.1,0.3-0.2,0.5c-0.5,2-0.3,4.1,0.5,6l0.1,0.2c0.1,0.2,0.2,0.4,0.3,0.7c0.1,0.1,0.1,0.2,0.2,0.2l0.1,0.1
				c0.1,0.1,0.2,0.2,0.2,0.3c0.2,0.3,0.3,0.6,0.4,0.9c0.1,0.3,0.3,0.6,0.4,0.9c0.2,0.2,0.3,0.4,0.6,0.6l0.1,0.1l0.8,0.8
				c0.2,0.2,0.3,0.3,0.5,0.4c0.1,0.1,0.2,0.2,0.3,0.4c0.1,0.1,0.1,0.1,0.2,0.2c0.2,0.3,0.5,0.5,0.8,0.7l0.6,0.4
				c0.3,0.2,0.6,0.4,0.9,0.5c0.3,0.1,0.6,0.2,0.8,0.5s0.5,0.5,0.8,0.6l0,0c0.2,0.1,0.4,0.2,0.7,0.2c0.3,0.1,0.6,0.2,1,0.3
				c1.2,0.6,2.5,1,3.8,1c0.2,0,0.4,0,0.6-0.1c0.2,0,0.3-0.1,0.5-0.1s0.3,0,0.5,0.1c0.5,0.1,1,0.1,1.4-0.1c0.1,0,0.2-0.1,0.3-0.1
				c0.3-0.1,0.7-0.1,1-0.1s0.6,0,0.9-0.1c0.2-0.1,0.4-0.1,0.5-0.2l0.4-0.1c0.1-0.1,0.2-0.1,0.4-0.1s0.3-0.1,0.5-0.1
				c0.6-0.2,1.3-0.5,2-0.7l0.3-0.1c0.7-0.3,1.3-0.6,1.9-1l0.1-0.1c0.6-0.4,1.1-0.8,1.6-1.3c0.1-0.1,0.1-0.2,0.2-0.2
				c0-0.1,0.1-0.1,0.1-0.1c0.1-0.1,0.1-0.1,0.2-0.2c0.1-0.1,0.2-0.1,0.3-0.2s0.2-0.3,0.3-0.4l0.1-0.1c0.1-0.2,0.3-0.3,0.4-0.5
				c0.4-0.4,0.7-0.8,1.1-1.2l0.3-0.3c0.3-0.3,0.5-0.6,0.7-1c0.1-0.1,0.1-0.3,0.2-0.4c0-0.1,0-0.1,0.1-0.2c0-0.1,0.1-0.2,0.1-0.2
				c0.1-0.2,0.2-0.5,0.4-0.7l0.1-0.1l0.2-0.3c0.1-0.2,0.2-0.4,0.3-0.6c0.1-0.3,0.2-0.5,0.2-0.8v-0.1c0.1-0.3,0.1-0.6-0.1-0.9
				c-0.1-0.2-0.3-0.3-0.5-0.4C242.2,90.4,242.1,90.3,241.9,90.3z"/>
			<path class="st8" d="M226.8,192c0.4-0.1,0.8-0.4,1-0.8l0.3-0.4c0.1-0.2,0.3-0.3,0.4-0.5c0.2-0.3,0.3-0.6,0.5-1
				c0.1-0.2,0.2-0.5,0.3-0.7c0.1-0.1,0.1-0.2,0.2-0.3c0.1-0.1,0.2-0.3,0.3-0.4c0.2-0.2,0.3-0.4,0.4-0.7l0.6-1l0.2-0.3
				c0.4-0.7,0.8-1.5,1.1-2.2l0.1-0.2c0.1-0.3,0.2-0.6,0.3-0.9c0.1-0.4,0.2-0.8,0.4-1.2c0.1-0.2,0.2-0.3,0.3-0.5
				c0.1-0.1,0.1-0.2,0.2-0.3c0.4-0.7,0.6-1.5,0.9-2.2c0.2-0.7,0.5-1.5,0.9-2.2l0.1-0.2c0-0.1,0.1-0.2,0.1-0.3v-0.1
				c0.1-0.2,0.1-0.4,0.2-0.7l0.1-0.6c0-0.2,0.1-0.4,0.1-0.7c0.1-0.2,0.1-0.3,0.1-0.5c0.1-0.2,0.1-0.4,0.2-0.6l0.1-0.3
				c0.1-0.3,0.2-0.6,0.3-0.9c0.2-0.4,0.3-0.9,0.3-1.4l0.1-0.5l0.3-1.3l0.2-0.8c0.1-0.5,0.1-0.9,0.1-1.4c0-0.3,0-0.6,0-0.9
				c0-0.3,0.1-0.6,0.2-0.9c0.2-1.1,0.4-2.1,0.4-3.2c0-0.2,0-0.4,0.1-0.5s0.1-0.2,0.1-0.3c0.1-0.2,0.1-0.3,0.1-0.5s0-0.4,0.1-0.6
				l0.1-0.9v-1v-0.3c0-0.3,0-0.5,0-0.8c0.1-0.5,0.1-0.9,0.1-1.4v-0.5v-0.5c0-0.4,0-0.7,0-1.1c0-0.6,0-1.2-0.1-1.8
				c0-0.1,0-0.2-0.1-0.3c-0.1-0.2-0.1-0.3-0.1-0.5s0-0.4,0-0.6c0-0.8,0-1.7-0.2-2.5l-0.2-1.1c-0.1-0.4-0.2-0.9-0.3-1.3l-0.2-1
				l-0.2-0.9c-0.1-0.2-0.1-0.5-0.2-0.7v-0.3c0-0.2-0.1-0.4-0.1-0.6c0-0.2-0.1-0.5-0.2-0.7c-0.1-0.3-0.2-0.6-0.2-1c0-0.2,0-0.3,0-0.5
				c0-0.3-0.1-0.6-0.1-0.9c-0.1-0.2-0.1-0.4-0.2-0.7l-0.1-0.1c-0.1-0.3-0.2-0.6-0.3-1v0c0-0.1-0.1-0.3-0.1-0.4l-0.2-0.8
				c-0.2-0.6-0.4-1.3-0.7-1.9c-0.3-0.8-0.6-1.6-0.9-2.4c-0.2-0.8-0.5-1.6-0.9-2.3c-0.2-0.5-0.4-1-0.6-1.5c-0.1-0.3-0.2-0.6-0.4-0.9
				c-0.1-0.2-0.2-0.4-0.3-0.7s-0.1-0.4-0.2-0.7c-0.1-0.3-0.2-0.6-0.3-0.9c-0.2-0.4-0.4-0.7-0.6-1l-0.2-0.4l-0.1-0.3
				c-0.2-0.4-0.4-0.8-0.6-1.2l-0.2-0.6c-0.2-0.4-0.3-0.8-0.5-1.1c-0.3-0.7-0.8-1.4-1.3-1.9c-0.2-0.4-0.5-0.7-0.6-1.1
				c-0.1-0.2-0.2-0.3-0.2-0.5c-0.4-0.7-0.8-1.3-1.3-1.9l-0.4-0.5c-0.3-0.4-0.8-1-1.3-0.9c-0.1,0-0.2,0.1-0.3,0.1
				c-0.2,0.1-0.3,0.3-0.4,0.5c-0.1,0.4,0,0.9,0.2,1.3c0.2,0.3,0.4,0.7,0.6,1c0.2,0.4,0.5,0.7,0.8,1l0.5,0.7l0.5,0.6
				c0.1,0.1,0.1,0.2,0.2,0.3l0.2,0.3l0.5,0.7l0.5,0.7c0.3,0.5,0.5,1,0.7,1.5c0.1,0.1,0.1,0.3,0.2,0.5v0.2l0.1,0.2
				c0.1,0.3,0.3,0.7,0.5,1l0.2,0.3l0.7,1.2l0.1,0.1c0.5,0.9,0.8,1.8,1.1,2.7c0.1,0.4,0.2,0.8,0.4,1.2c0.1,0.1,0.1,0.2,0.2,0.4
				l0.1,0.3c0.1,0.2,0.2,0.3,0.2,0.5c0.1,0.3,0.3,0.7,0.4,1c0.1,0.1,0.1,0.3,0.2,0.4l0.2,0.3c0.2,0.4,0.3,0.8,0.4,1.2
				c0.1,0.4,0.2,0.9,0.4,1.3c0.1,0.2,0.2,0.3,0.2,0.5l0.2,0.3c0.1,0.3,0.2,0.6,0.3,0.9c0,0.1,0.1,0.3,0.1,0.4c0,0.1,0.1,0.4,0.1,0.6
				c0.2,0.6,0.4,1.3,0.5,1.9c0.4,1.8,0.7,3.4,1.1,4.9l0.1,0.3c0.1,0.3,0.1,0.6,0.2,0.9c0,0.1,0.1,0.2,0.2,0.3c0,0,0,0.1,0.1,0.1
				c0.1,0.1,0.1,0.3,0.1,0.4c0.1,0.4,0.1,0.7,0.1,1.1c0,0.4,0,0.8,0,1.1s0.1,0.7,0.2,1v0.1c0.1,0.4,0.2,0.9,0.2,1.3l0.1,0.9
				c0,0.2,0,0.4,0,0.6v0.3c0,0.4,0,0.8,0,1.2c0,0.3,0.1,0.5,0.1,0.8c0,0.4,0.1,0.8,0.1,1.3c0.1,0.4,0.1,0.8,0,1.2
				c-0.2,0.4-0.2,0.8-0.2,1.2l0,0c0,0.3,0,0.6,0,0.9c0,0.4,0,0.8-0.1,1.2c-0.4,1.9-0.6,3.4-0.8,4.7c0,0.2,0,0.4,0,0.7
				c0,0.2,0,0.4,0,0.6c0,0.2-0.1,0.4-0.2,0.6c-0.1,0.4-0.2,0.7-0.3,1.1c0,0.2,0,0.4,0,0.6c0,0.1,0,0.3,0,0.4c0,0.4-0.1,0.8-0.3,1.2
				c-0.1,0.3-0.2,0.7-0.3,1c-0.1,0.2-0.1,0.5-0.1,0.7s-0.1,0.3-0.1,0.5s-0.1,0.3-0.1,0.5c-0.1,0.2-0.1,0.4-0.2,0.6
				c-0.2,0.8-0.5,1.7-0.8,2.5l-0.1,0.3c-0.3,0.7-0.6,1.5-0.9,2.5l-0.1,0.2c-0.3,0.8-0.6,1.5-0.9,2.3c0,0.1-0.1,0.2-0.1,0.4
				c0,0.1,0,0.2-0.1,0.2c0,0.1-0.1,0.2-0.2,0.3c-0.1,0.1-0.2,0.3-0.2,0.4c-0.1,0.2-0.2,0.4-0.2,0.6l-0.1,0.2
				c-0.1,0.2-0.2,0.5-0.3,0.7c-0.3,0.6-0.6,1.2-0.9,1.7c-0.1,0.2-0.2,0.3-0.3,0.4c-0.3,0.4-0.5,0.8-0.7,1.3
				c-0.1,0.2-0.1,0.3-0.2,0.5c0,0.1,0,0.1-0.1,0.2c0,0.1-0.1,0.2-0.1,0.3c-0.1,0.3-0.3,0.6-0.5,0.9l-0.1,0.2l-0.3,0.4
				c-0.2,0.2-0.3,0.4-0.5,0.7s-0.3,0.6-0.5,0.9l-0.1,0.1c-0.2,0.3-0.3,0.7-0.2,1c0,0.2,0.2,0.4,0.4,0.6
				C226.5,192,226.7,192,226.8,192z"/>
			<path class="st8" d="M221,168.7c0.3,0,0.6-0.2,0.7-0.5c0.1-0.1,0.1-0.2,0.2-0.3c0.1-0.1,0.2-0.3,0.2-0.4c0.1-0.2,0.2-0.5,0.2-0.7
				s0.1-0.3,0.2-0.5c0-0.1,0.1-0.1,0.1-0.2l0.2-0.3c0.1-0.1,0.2-0.3,0.2-0.5c0.1-0.2,0.2-0.5,0.3-0.7l0.1-0.2
				c0.2-0.5,0.5-1.1,0.6-1.6v-0.1c0.1-0.2,0.1-0.4,0.1-0.6c0-0.3,0-0.6,0.1-0.9c0-0.1,0.1-0.2,0.2-0.3l0.1-0.2
				c0.2-0.5,0.4-1,0.4-1.6c0.1-0.5,0.2-1,0.4-1.5l0.1-0.1c0-0.1,0-0.2,0.1-0.2v-0.1c0-0.2,0.1-0.3,0.1-0.5v-0.4c0-0.2,0-0.3,0-0.5
				c0-0.1,0-0.2,0.1-0.3c0-0.1,0.1-0.3,0.1-0.4l0.1-0.2c0.1-0.2,0.1-0.4,0.1-0.6c0.1-0.3,0.2-0.6,0.2-1V153c0-0.3,0.1-0.6,0.2-0.9
				c0-0.2,0.1-0.4,0.1-0.5c0-0.3,0-0.6,0-1c0-0.2,0-0.4-0.1-0.6c0-0.2,0-0.4,0.1-0.6c0.1-0.7,0.2-1.5,0.2-2.2c0-0.1,0-0.2,0-0.4
				c0-0.1,0-0.1,0.1-0.2c0-0.1,0.1-0.2,0.1-0.4c0-0.1,0-0.3,0-0.4v-0.6v-0.7V144c0-0.2,0-0.4,0-0.5c0-0.3,0-0.6,0-1v-0.3
				c0-0.1,0-0.2,0-0.4s0-0.5,0-0.7c0.1-0.4,0.1-0.8-0.1-1.3l-0.1-0.2c0-0.1-0.1-0.2-0.1-0.3s0-0.3,0-0.4c0.1-0.6,0.1-1.2-0.1-1.7
				c0-0.3-0.1-0.5-0.1-0.8l-0.2-0.9l-0.1-0.7l-0.1-0.6c0-0.2-0.1-0.3-0.1-0.5v-0.2c0-0.1,0-0.3,0-0.4c0-0.2-0.1-0.3-0.1-0.5
				c-0.1-0.2-0.1-0.4-0.1-0.7c0-0.1,0-0.2,0-0.3c0-0.2,0-0.4,0-0.6c0-0.2-0.1-0.3-0.1-0.5l-0.1-0.1c-0.1-0.2-0.1-0.5-0.1-0.7v-0.1
				c0-0.1,0-0.2,0-0.3l-0.1-0.5c-0.1-0.5-0.2-0.9-0.4-1.3c-0.2-0.6-0.3-1.1-0.4-1.7c-0.1-0.6-0.2-1.1-0.4-1.6
				c-0.1-0.3-0.2-0.7-0.3-1c0-0.2-0.1-0.4-0.2-0.6l-0.1-0.5c0-0.2-0.1-0.3-0.1-0.5s-0.1-0.5-0.1-0.7c-0.1-0.3-0.2-0.5-0.4-0.7
				c-0.1-0.1-0.1-0.2-0.2-0.3l-0.1-0.2c-0.1-0.3-0.2-0.6-0.3-0.9l-0.1-0.4c-0.1-0.3-0.2-0.5-0.3-0.9c-0.2-0.5-0.5-1-0.8-1.4
				c-0.1-0.3-0.3-0.5-0.3-0.8c0-0.1-0.1-0.2-0.1-0.3c-0.2-0.5-0.5-1-0.8-1.4l-0.2-0.4c-0.2-0.3-0.4-0.8-1-0.7
				c-0.1,0-0.2,0.1-0.2,0.1c-0.2,0.1-0.3,0.2-0.5,0.4c-0.2,0.3-0.2,0.6-0.1,1c0.1,0.3,0.2,0.5,0.3,0.7c0.2,0.2,0.3,0.5,0.5,0.7
				l0.3,0.5c0.1,0.2,0.2,0.3,0.3,0.5c0,0.1,0.1,0.1,0.1,0.2l0.1,0.2c0.1,0.2,0.2,0.4,0.3,0.5c0.1,0.2,0.2,0.4,0.3,0.5
				c0.2,0.4,0.3,0.7,0.4,1.1c0,0.1,0.1,0.2,0.1,0.3v0.3c0,0.2,0.1,0.5,0.2,0.7l0.1,0.2l0.4,0.9v0.1c0.3,0.6,0.5,1.2,0.6,1.9
				c0,0.3,0.1,0.6,0.1,0.9c0,0.1,0.1,0.2,0.1,0.3l0.1,0.2c0.1,0.1,0.1,0.2,0.1,0.4c0,0.2,0.1,0.5,0.3,0.7c0,0.1,0.1,0.2,0.2,0.3
				c0,0.1,0.1,0.1,0.1,0.2c0.1,0.3,0.2,0.6,0.2,0.9s0.1,0.6,0.1,0.9c0,0.1,0.1,0.2,0.2,0.4l0.1,0.2c0.1,0.2,0.1,0.4,0.2,0.6
				c0,0.1,0,0.2,0,0.3s0,0.3,0,0.4c0.1,0.4,0.2,0.9,0.2,1.3c0.1,1.2,0.3,2.3,0.5,3.4v0.2c0,0.2,0.1,0.4,0.1,0.6
				c0,0.1,0.1,0.2,0.1,0.2l0.1,0.1c0,0.1,0.1,0.2,0.1,0.3c0,0.3,0,0.5,0,0.8s0,0.5,0,0.8c0,0.2,0.1,0.5,0.1,0.7v0.1
				c0.1,0.3,0.1,0.6,0.2,0.9l0.1,0.6c0,0.1,0,0.3,0,0.4v0.2c0,0.3,0,0.6,0,0.9c0,0.2,0.1,0.4,0.1,0.5c0,0.3,0.1,0.6,0.2,0.9
				c0.1,0.3,0.1,0.5,0,0.8s-0.2,0.6-0.2,0.9l0,0c0,0.2,0,0.4,0,0.6c0,0.3,0,0.6,0,0.9c-0.2,1.1-0.4,2.2-0.4,3.2c0,0.2,0,0.3,0.1,0.5
				c0,0.1,0,0.3,0,0.4c0,0.1-0.1,0.3-0.1,0.4c-0.1,0.2-0.2,0.5-0.2,0.8c0,0.1,0,0.3,0.1,0.4c0,0.1,0,0.2,0.1,0.3
				c0,0.3-0.1,0.6-0.2,0.8c-0.1,0.2-0.1,0.5-0.2,0.7c0,0.2,0,0.3,0,0.5c0,0.1,0,0.2,0,0.3s0,0.2-0.1,0.3s-0.1,0.3-0.1,0.4
				c-0.1,0.6-0.2,1.2-0.4,1.7l-0.1,0.2c-0.2,0.6-0.3,1.1-0.5,1.7v0.1c-0.2,0.5-0.3,1.1-0.4,1.6c0,0.1,0,0.2,0,0.3s0,0.1,0,0.2
				c0,0.1-0.1,0.1-0.1,0.2c-0.1,0.1-0.1,0.2-0.1,0.3s-0.1,0.3-0.1,0.4v0.1c0,0.2-0.1,0.4-0.1,0.5c-0.2,0.4-0.4,0.8-0.5,1.2l-0.2,0.3
				c-0.2,0.3-0.3,0.6-0.4,0.9c0,0.1-0.1,0.2-0.1,0.3s0,0.1,0,0.2c0,0.1,0,0.1,0,0.2c0,0.2-0.1,0.4-0.2,0.6l-0.1,0.1
				c-0.1,0.1-0.1,0.2-0.2,0.3c-0.1,0.2-0.2,0.3-0.3,0.5s-0.2,0.4-0.2,0.7v0.1c-0.1,0.2-0.1,0.5,0,0.7s0.3,0.4,0.5,0.5
				C220.6,168.8,220.8,168.8,221,168.7z"/>
			<path class="st8" d="M206.3,139.9c0.3,0.2,0.5,0.1,0.6,0.1l0.2-0.1c0.1,0,0.2-0.1,0.2-0.1c0.1-0.1,0.2-0.2,0.2-0.3
				s0.1-0.2,0.2-0.2l0.1-0.1c0.1,0,0.1-0.1,0.2-0.1c0.1,0,0.2-0.1,0.2-0.2c0.1-0.1,0.2-0.2,0.3-0.3l0.1-0.1c0.2-0.2,0.5-0.4,0.7-0.6
				l0.1-0.1c0.1-0.1,0.1-0.2,0.1-0.3s0.1-0.3,0.2-0.4c0,0,0.1-0.1,0.2-0.1l0.1-0.1c0.2-0.2,0.4-0.4,0.5-0.7s0.3-0.5,0.5-0.6l0.1-0.1
				l0.1-0.1c0,0,0,0,0-0.1s0.1-0.1,0.1-0.2c0-0.1,0.1-0.1,0.1-0.2c0-0.1,0.1-0.2,0.1-0.2c0-0.1,0-0.1,0.1-0.1c0-0.1,0.1-0.1,0.2-0.2
				l0.1-0.1c0.1-0.1,0.1-0.2,0.2-0.2c0.1-0.1,0.2-0.3,0.3-0.4l0.1-0.2c0.1-0.1,0.2-0.3,0.2-0.4c0.1-0.1,0.1-0.2,0.1-0.2
				c0.1-0.2,0.1-0.3,0.1-0.5c0-0.1,0-0.2,0-0.3s0.1-0.2,0.2-0.3c0.2-0.3,0.4-0.7,0.5-1c0-0.1,0-0.1,0.1-0.2l0.1-0.1
				c0.1,0,0.1-0.1,0.2-0.1c0-0.1,0.1-0.1,0.1-0.2l0.1-0.3l0.1-0.4v-0.1c0-0.1,0-0.2,0.1-0.3s0.1-0.3,0.2-0.5c0-0.1,0-0.1,0-0.2
				c0-0.1,0-0.1,0-0.2c0-0.1,0.1-0.2,0.2-0.4c0.1-0.2,0.2-0.4,0.2-0.6v-0.1c0-0.1,0-0.1,0-0.2s0.1-0.1,0.1-0.2
				c0.2-0.3,0.3-0.6,0.3-0.9c0-0.1,0-0.3,0-0.4v-0.5v-0.4v-0.3c0-0.1,0-0.2,0-0.3v-0.1c0-0.1,0-0.1,0.1-0.2c0-0.1,0-0.2,0-0.3
				c0-0.1,0-0.2,0-0.3c0-0.1,0-0.1,0.1-0.1c0.1-0.1,0.1-0.2,0.1-0.3c0-0.1,0-0.2,0-0.2v-0.1c0-0.1,0-0.2,0-0.4v-0.1v-0.1v-0.3
				c0-0.2,0-0.5,0-0.7c0-0.3,0-0.6,0.1-0.9s0.1-0.6,0.1-0.9c0-0.2,0-0.4,0-0.6c0-0.1,0-0.2,0-0.3c0-0.1,0-0.2,0-0.2
				c0-0.1,0-0.2,0.1-0.2c0-0.1,0.1-0.2,0.1-0.4c0-0.1,0-0.3-0.1-0.4c0-0.1,0-0.1-0.1-0.2v-0.1c0-0.2,0-0.3,0-0.5v-0.2
				c0-0.1,0-0.3,0-0.4c0-0.3-0.1-0.6-0.3-0.8c0-0.1,0-0.3,0-0.5v-0.2c0-0.3-0.1-0.5-0.2-0.8l-0.1-0.2c0-0.2-0.1-0.4-0.7-0.4
				c-0.1,0-0.2,0-0.3,0c-0.2,0-0.4,0.1-0.6,0.2c-0.4,0.2-0.4,0.4-0.4,0.5s0,0.3,0,0.4s0.1,0.3,0.2,0.4c0,0.1,0.1,0.2,0.1,0.3
				l0.1,0.2v0.1v0.1c0,0.1,0,0.2,0.1,0.3c0,0.1,0.1,0.2,0.1,0.3c0,0.2,0,0.4,0,0.6c0,0.1,0,0.1,0,0.2v0.1l-0.1,0.1
				c-0.1,0.1-0.1,0.3,0,0.4v0.1l0.1,0.5l0,0c0.1,0.3,0.1,0.7,0,1c-0.1,0.1-0.1,0.3-0.1,0.4v0.1v0.1c0,0.1,0,0.1,0,0.2s0,0.2,0,0.4
				c0,0.1,0,0.1,0.1,0.1l0.1,0.1c0,0.1,0,0.3-0.1,0.4s-0.1,0.3-0.1,0.4s0,0.1,0.1,0.2v0.1c0,0.1,0,0.2,0,0.3c0,0.1,0,0.1-0.1,0.1
				c0,0.1-0.1,0.1-0.1,0.2c-0.1,0.2-0.1,0.4-0.1,0.7c-0.2,0.6-0.3,1.1-0.3,1.7v0.1c0,0.1,0,0.2,0,0.3c0,0.1,0,0.1,0.1,0.1v0.1
				c0,0.1,0,0.1,0,0.2s-0.1,0.3-0.2,0.4c-0.1,0.1-0.1,0.2-0.2,0.4c0,0.1,0,0.2,0,0.3l0,0c0,0.2,0,0.3,0,0.5v0.3c0,0.1,0,0.1-0.1,0.2
				l-0.1,0.1c-0.1,0.1-0.1,0.3-0.1,0.4s0,0.2,0,0.3c0,0.1,0,0.3,0,0.5c0,0.2,0.1,0.3-0.1,0.4c-0.1,0.1-0.3,0.2-0.3,0.3l0,0
				c0,0.1,0,0.2-0.1,0.3c0,0.1-0.1,0.3-0.1,0.4c-0.4,0.4-0.7,0.9-0.9,1.4c0,0.1,0,0.2,0,0.2c0,0.1,0,0.2,0,0.2
				c0,0.1-0.1,0.1-0.2,0.1c-0.1,0.1-0.2,0.2-0.2,0.3s0,0.2,0,0.2c0,0.1,0,0.1,0,0.2c0,0.1-0.1,0.3-0.2,0.3c-0.1,0.1-0.2,0.2-0.2,0.3
				s-0.1,0.2-0.1,0.2c0,0.1,0,0.1,0,0.2c0,0.1-0.1,0.1-0.1,0.1c-0.1,0-0.1,0.1-0.1,0.2c-0.1,0.3-0.3,0.5-0.5,0.7l-0.1,0.1
				c-0.2,0.2-0.4,0.4-0.5,0.7l0,0c-0.2,0.2-0.3,0.4-0.5,0.7v0.1v0.1l-0.1,0.1l-0.1,0.1c0,0.1-0.1,0.1-0.1,0.2v0.1
				c0,0.1-0.1,0.2-0.2,0.2c-0.2,0.1-0.3,0.3-0.5,0.4l-0.2,0.1c-0.1,0.1-0.3,0.2-0.4,0.3l-0.1,0.2v0.1v0.1c0,0.1-0.1,0.2-0.2,0.2
				h-0.1c0,0-0.1,0.1-0.2,0.1c-0.1,0-0.2,0.1-0.2,0.1c-0.1,0.1-0.2,0.2-0.2,0.3l0,0c-0.1,0.1-0.1,0.3,0,0.5s0.2,0.4,0.3,0.6
				C206,139.7,206.1,139.8,206.3,139.9z"/>
			<path class="st8" d="M252.4,209.5c0.2,0.2,0.4,0.4,0.7,0.3h0.3c0.1,0,0.3,0,0.4,0c0.2,0,0.4-0.1,0.6-0.2c0.1-0.1,0.3-0.1,0.4-0.1
				h0.2h0.3c0.1,0,0.3,0,0.5,0l0.7-0.1h0.2c0.5-0.1,1-0.2,1.5-0.3h0.1c0.2,0,0.3-0.1,0.5-0.2c0.2-0.1,0.4-0.2,0.7-0.3
				c0.1,0,0.2,0,0.3,0h0.2c0.5-0.1,0.9-0.2,1.3-0.4s0.9-0.3,1.3-0.4h0.1c0.1,0,0.1,0,0.2-0.1h0.1c0.1,0,0.3-0.1,0.4-0.2l0.3-0.2
				l0.4-0.2c0.1,0,0.2-0.1,0.3-0.1c0.1,0,0.2-0.1,0.4-0.1h0.2c0.2,0,0.3-0.1,0.5-0.2c0.3-0.1,0.5-0.2,0.8-0.3l0.3-0.1
				c0.2-0.1,0.5-0.2,0.7-0.3l0.4-0.2c0.2-0.2,0.5-0.3,0.7-0.5c0.1-0.1,0.3-0.2,0.4-0.4c0.2-0.1,0.3-0.2,0.5-0.2
				c0.6-0.2,1.2-0.5,1.7-0.9c0.1-0.1,0.2-0.1,0.3-0.2c0.1,0,0.1,0,0.2,0s0.2,0,0.3-0.1c0.1-0.1,0.2-0.1,0.3-0.2l0.5-0.3l0.5-0.3
				l0.2-0.1c0.1-0.1,0.2-0.2,0.4-0.2c0.2-0.1,0.5-0.3,0.7-0.4l0.2-0.2c0.1-0.1,0.2-0.2,0.2-0.2c0.2-0.1,0.4-0.2,0.5-0.3
				c0.3-0.1,0.6-0.4,0.9-0.7l0.1-0.1c0-0.1,0.1-0.2,0.2-0.2c0.1-0.1,0.2-0.1,0.3-0.2c0.4-0.2,0.9-0.5,1.2-0.9
				c0.2-0.2,0.3-0.3,0.5-0.5l0.5-0.6l0.4-0.4l0.4-0.4c0.1-0.1,0.2-0.2,0.3-0.3l0.1-0.1l0.3-0.2c0.1-0.1,0.2-0.2,0.3-0.3
				c0.1-0.2,0.2-0.3,0.4-0.4c0.1-0.1,0.2-0.1,0.2-0.1c0.2-0.1,0.3-0.2,0.4-0.3s0.2-0.2,0.2-0.3l0.1-0.1c0.1-0.2,0.2-0.3,0.4-0.5
				l0.1-0.1c0.1,0,0.1-0.1,0.2-0.2l0.3-0.4c0.3-0.3,0.5-0.6,0.7-1c0.3-0.4,0.6-0.8,1-1.1c0.3-0.3,0.6-0.7,0.9-1.2
				c0.2-0.3,0.3-0.5,0.6-0.8c0.1-0.1,0.3-0.3,0.4-0.4l0.2-0.4c0.1-0.1,0.2-0.2,0.3-0.3c0.1-0.1,0.3-0.3,0.4-0.5s0.2-0.4,0.3-0.6
				c0-0.1,0.1-0.2,0.1-0.3l0.1-0.2c0.1-0.2,0.3-0.5,0.4-0.7l0.2-0.3c0.1-0.2,0.3-0.4,0.4-0.6c0.2-0.4,0.4-0.8,0.5-1.3
				c0.1-0.2,0.2-0.5,0.4-0.7l0.1-0.3c0.2-0.4,0.4-0.8,0.5-1.3l0.1-0.3c0.2-0.3,0.1-0.8-0.2-1c-0.1-0.1-0.2-0.1-0.2-0.1
				c-0.2-0.1-0.4-0.1-0.6-0.1c-0.3,0-0.6,0.2-0.8,0.4c-0.1,0.2-0.2,0.4-0.3,0.6c-0.1,0.2-0.1,0.5-0.2,0.7l-0.1,0.5
				c-0.1,0.2-0.1,0.3-0.1,0.4c0,0.1-0.1,0.1-0.1,0.2l-0.1,0.2c-0.1,0.2-0.1,0.3-0.2,0.5s-0.1,0.3-0.2,0.5c-0.2,0.3-0.3,0.6-0.5,0.9
				c0,0.1-0.1,0.2-0.2,0.2l-0.1,0.1l-0.1,0.1c-0.2,0.1-0.3,0.3-0.4,0.5l-0.1,0.2l-0.4,0.7v0.1c-0.2,0.5-0.6,1-1,1.4
				c-0.2,0.1-0.4,0.3-0.5,0.5l-0.1,0.2l-0.1,0.2c0,0.1-0.1,0.2-0.2,0.3c-0.1,0.2-0.3,0.3-0.3,0.5c0,0.1-0.1,0.2-0.1,0.2l-0.1,0.2
				c-0.1,0.2-0.3,0.4-0.5,0.5s-0.4,0.3-0.6,0.5c-0.1,0.1-0.1,0.2-0.2,0.3l-0.1,0.2c-0.1,0.2-0.2,0.3-0.3,0.4
				c-0.1,0.1-0.1,0.1-0.2,0.2c-0.1,0.1-0.2,0.1-0.3,0.2c-0.3,0.3-0.5,0.6-0.9,0.8c-0.8,0.7-1.5,1.4-2.1,2l-0.1,0.1
				c-0.1,0.1-0.2,0.2-0.3,0.4c0,0.1-0.1,0.1-0.1,0.2v0.1c0,0.1-0.1,0.2-0.2,0.2c-0.2,0.1-0.4,0.3-0.5,0.4c-0.2,0.1-0.4,0.2-0.6,0.3
				c-0.1,0.1-0.3,0.3-0.4,0.4l-0.1,0.1c-0.2,0.2-0.4,0.4-0.5,0.6l-0.3,0.3c-0.1,0.1-0.2,0.1-0.3,0.2l-0.2,0.1
				c-0.2,0.1-0.4,0.2-0.6,0.4c-0.2,0.1-0.3,0.2-0.4,0.3c-0.2,0.1-0.4,0.3-0.5,0.5c-0.2,0.2-0.3,0.4-0.5,0.4s-0.5,0.1-0.7,0.2l0,0
				c-0.1,0.1-0.3,0.2-0.4,0.3c-0.2,0.2-0.4,0.3-0.6,0.4c-0.9,0.3-1.8,0.7-2.6,1.2c-0.1,0.1-0.2,0.2-0.3,0.3
				c-0.1,0.1-0.2,0.2-0.3,0.2c-0.1,0-0.2,0.1-0.3,0.1c-0.2,0-0.4,0.1-0.6,0.2c-0.1,0.1-0.2,0.2-0.3,0.3c0,0.1-0.1,0.1-0.2,0.2
				c-0.2,0.1-0.4,0.2-0.7,0.3c-0.2,0-0.4,0.1-0.6,0.2c-0.1,0.1-0.2,0.1-0.4,0.2l-0.2,0.2c-0.1,0.1-0.2,0.1-0.3,0.1
				c-0.1,0-0.2,0.1-0.3,0.1c-0.5,0.2-0.9,0.4-1.4,0.5l-0.2,0.1c-0.4,0.1-0.9,0.3-1.5,0.5h-0.1c-0.4,0.1-0.9,0.3-1.4,0.5
				c-0.1,0-0.1,0.1-0.2,0.1c0,0-0.1,0-0.1,0.1h-0.2l-0.3,0.1c-0.1,0-0.2,0.1-0.4,0.2l-0.1,0.1c-0.1,0.1-0.3,0.1-0.4,0.1
				c-0.4,0.1-0.7,0.1-1.1,0.2h-0.3c-0.3,0-0.6,0.1-0.9,0.1c-0.1,0-0.2,0.1-0.3,0.1l0.1-0.1l-0.1,0.1c-0.2,0.1-0.4,0.1-0.5,0.1h-0.1
				c-0.1,0-0.2,0-0.3,0c-0.2,0-0.3,0-0.5,0s-0.4,0.1-0.6,0.2h-0.1c-0.2,0.1-0.4,0.2-0.5,0.4s-0.1,0.4-0.1,0.7
				C252.3,209.4,252.4,209.5,252.4,209.5z"/>
			<path class="st9" d="M90.4,274.9v-66.5h13.7v52.7H148v13.7L90.4,274.9z"/>
			<path class="st8" d="M92.8,210.9h8.8v52.7h43.9v8.8H92.8V210.9z"/>
			<path class="st9" d="M172.1,274.9c-18.3,0-33.2-14.9-33.2-33.2s14.9-33.2,33.2-33.2h28.8v13.7h-28.8
				c-10.8-0.2-19.7,8.3-19.9,19.1s8.3,19.7,19.1,19.9c0.3,0,0.5,0,0.8,0h15.1v-12.7h-17.6v-13.7h31.3v40.1L172.1,274.9z"/>
			<path class="st8" d="M172.1,210.9h26.4v8.8h-26.4c-12.1,0.2-21.8,10.3-21.5,22.4c0.2,11.8,9.7,21.3,21.5,21.5h17.6V246h-17.6
				v-8.8h26.4v35.2h-26.4c-17,0-30.8-13.8-30.8-30.8C141.3,224.7,155.1,210.9,172.1,210.9L172.1,210.9z"/>
			<path class="st9" d="M204.8,274.9v-13.7h42c3.5,0,6.3-2.8,6.3-6.3c0-3.5-2.8-6.3-6.3-6.3l0,0h-24.4v-13.7h24.4
				c3.5,0,6.3-2.8,6.3-6.3s-2.8-6.3-6.3-6.3h-28.4v35.2h-13.7v-48.9h42c11.1,0,20,9,20,20.1c0,4.8-1.8,9.5-4.9,13.2
				c7.3,8.3,6.4,21-1.9,28.3c-3.7,3.2-8.3,4.9-13.2,4.9L204.8,274.9z"/>
			<path class="st8" d="M216,219.7v35.2h-8.8V211h39.5c9.7,0,17.6,7.9,17.6,17.6c0,4.7-1.8,9.1-5.1,12.4c-0.3,0.3-0.5,0.5-0.8,0.7
				c0.3,0.2,0.5,0.5,0.8,0.7c6.9,6.9,6.9,18,0,24.9c-3.3,3.3-7.8,5.2-12.4,5.2h-39.5v-8.8h39.5c4.9,0,8.8-3.9,8.8-8.8
				c0-4.9-3.9-8.8-8.8-8.8l0,0h-22v-8.8h22c4.9,0,8.8-3.9,8.8-8.8c0-4.8-3.9-8.8-8.8-8.8H216z"/>
			<path class="st9" d="M286,274.9V226h13.7v48.9H286z M264,222.2v-13.7h57.6v13.7H264z"/>
			<path class="st8" d="M319.2,219.7h-52.7v-8.8h52.7V219.7z M297.3,272.4h-8.8v-44h8.8V272.4z"/>
			<polygon class="st9" points="338.8,261.7 338.8,248.5 325.6,248.5 325.6,234.8 338.8,234.8 338.8,221.6 352.5,221.6 352.5,234.8 
				365.6,234.8 365.6,248.5 352.5,248.5 352.5,261.7 			"/>
			<path class="st8" d="M350,237.3h13.2v8.8H350v13.2h-8.8v-13.2H328v-8.8h13.2v-13.2h8.8V237.3z"/>
		</g>
	</g>
</g>
<path class="st2" d="M-6.5,358c158.5,3.7,317,7.3,475.4,11c-0.4,27.3-0.8,54.6-1.1,81.9H-6.5V358z"/>
</svg>
