<?xml version="1.0" encoding="utf-8"?>
<!-- Generator: Adobe Illustrator 26.0.3, SVG Export Plug-In . SVG Version: 6.00 Build 0)  -->
<svg version="1.1" id="Слой_1" xmlns="http://www.w3.org/2000/svg" xmlns:xlink="http://www.w3.org/1999/xlink" x="0px" y="0px"
	 viewBox="0 0 420 420" style="enable-background:new 0 0 420 420;" xml:space="preserve">
<style type="text/css">
	.st0{fill:#564495;}
	.st1{fill:#FFFFFF;}
</style>
<rect x="-7" y="-3.7" class="st0" width="430.4" height="427.6"/>
<g id="_158_Helmet_Space_Safety">
	<path class="st1" d="M208.7,90.4c-53.3,0-96.4,43.2-96.4,96.4s43.2,96.4,96.4,96.4s96.4-43.2,96.4-96.4l0,0
		C305.7,133.1,261.8,90.4,208.7,90.4z"/>
	<path class="st1" d="M294.2,295.3C244,334,174,334,123.8,295.3l-11,37.5c-3.5,12.7,5.8,25.4,19.1,25.4h154.2
		c6.3-0.1,12.3-3.1,16.2-8.1c4-4.6,4.6-11.5,3.5-17.3L294.2,295.3z"/>
	<path class="st1" d="M62.1,287.2c0.1-6.9-5.3-12.6-12.2-12.7c-0.2,0-0.3,0-0.5,0c-7,0-12.7,5.7-12.7,12.7c0,7,5.7,12.7,12.7,12.7
		C56.9,299.4,62.1,294.2,62.1,287.2z"/>
	<path class="st1" d="M380.8,241.1c-9.3,0-16.8,7.5-16.8,16.7c0,9.3,7.5,16.8,16.7,16.8s16.8-7.5,16.8-16.7c0,0,0,0,0,0
		C397.5,248.5,390,241.1,380.8,241.1z"/>
	<path class="st1" d="M336.9,92.7v76.2c0.6,0.6,1.1,1.1,1.7,1.1h0.6c2.9,0.6,4.6-0.6,4.6-2.3V93.2c0-1.2-1.7-2.3-4-2.3
		C339.2,90.4,336.9,91.5,336.9,92.7z"/>
	<path class="st1" d="M78.8,167.7V91.5c0-1.2-1.7-2.3-4-2.3c-0.6,1.2-2.9,2.3-2.9,3.5v74.5c0,1.7,2.9,2.9,4.6,2.3h0.6
		c0.3,0,0.6-0.2,0.6-0.5c0,0,0,0,0,0"/>
	<path class="st1" d="M334,90.4c2.8-3.5,8-4.1,11.5-1.2c0.5,0.4,0.9,0.8,1.2,1.2c5.8-2.9,11-8.7,11-15.6c0.2-9.2-7.1-16.9-16.3-17.2
		c-9.2-0.2-16.9,7.1-17.2,16.3c0,0.3,0,0.5,0,0.8C323,81.7,327.2,88.4,334,90.4z"/>
	<path class="st1" d="M69,90.4c2.8-3.5,8-4.1,11.5-1.2c0.4,0.4,0.9,0.8,1.2,1.2c5.8-2.9,11-8.7,11-15.6c0.2-9.2-7.1-16.9-16.3-17.2
		c-9.2-0.2-16.9,7.1-17.2,16.3c0,0.3,0,0.5,0,0.8C58.3,81.7,62.4,88.2,69,90.4z"/>
	<path class="st1" d="M367.5,186.8c0-9.3-7.5-16.8-16.7-16.8c0,0,0,0,0,0h-2.9c-1.2,2.9-4,4-7.5,4c-1.7,0-4.6-0.6-5.8-2.9
		c-1.2-1.5-1.8-3.3-1.7-5.2v-17.2c-21.5-68.6-94.4-106.7-163-85.3c-40.7,12.7-72.6,44.6-85.3,85.3v19.6c0,0.6,0,1.2-0.6,1.2
		c-0.6,1.1-0.6,1.7-1.2,2.9c-0.8,0.8-1.8,1.4-2.8,1.7c-0.6,0-0.6,0.6-1.2,0.6h-1.8c-3,0-5.8-1.5-7.5-4h-2.9
		c-9.2,0.2-16.6,7.9-16.3,17.2c0.2,8.9,7.4,16.1,16.3,16.3h9.8c1.7,0,4,1.1,4,3.5c9.9,63.5,63.5,109.1,128.2,109.1
		c31.6,0,62.2-11.5,86-32.3c22.8-20.2,37.8-47.8,42.1-77.9c0.2-2,2-3.6,4-3.5h9.8C360.6,203.5,367.5,195.4,367.5,186.8z
		 M208.7,291.3c-57.7,0-104.5-46.8-104.5-104.5S151,82.3,208.7,82.3S313.2,129,313.2,186.8c0,0,0,0,0,0
		C313.2,244.5,266.5,291.3,208.7,291.3C208.7,291.3,208.7,291.3,208.7,291.3z"/>
	<path class="st1" d="M288.4,19.3c4.7,0.1,8.5,3.9,8.7,8.7c0,4.8-3.9,8.7-8.7,8.7s-8.7-3.9-8.7-8.7
		C279.8,23.3,283.7,19.5,288.4,19.3z"/>
	<path class="st1" d="M119.2,36.7c4.9-0.1,9,3.7,9.2,8.7c0,4.8-3.9,8.7-8.7,8.7c-4.8,0-8.7-3.9-8.7-8.7c0,0,0,0,0,0
		C110.6,40.7,114.6,36.7,119.2,36.7z"/>
	<path class="st1" d="M41.3,85.7c4.8,0,8.7,3.9,8.7,8.7c0,4.8-3.9,8.7-8.7,8.7c-4.8,0-8.7-3.9-8.7-8.7
		C32.6,89.6,36.5,85.7,41.3,85.7z"/>
	<path class="st1" d="M384.8,111.1c4.8,0,8.7,3.9,8.7,8.7s-3.9,8.7-8.7,8.7c-4.8,0-8.7-3.9-8.7-8.7
		C375.6,114.6,379.6,111.1,384.8,111.1z"/>
	<path class="st1" d="M367.5,304c4.5,0,8.1,3.6,8.1,8.1s-3.6,8.1-8.1,8.1s-8.1-3.6-8.1-8.1l0,0C360,307.5,363.4,304,367.5,304z"/>
	<path class="st1" d="M66.1,328.8c4.8,0,8.7,3.9,8.7,8.7s-3.9,8.7-8.7,8.7s-8.7-3.9-8.7-8.7C57.6,332.7,61.4,328.9,66.1,328.8z"/>
	<path class="st1" d="M32.6,228.4c4.8,0,8.7,3.9,8.7,8.7s-3.9,8.7-8.7,8.7s-8.7-3.9-8.7-8.7S27.8,228.4,32.6,228.4z"/>
</g>
<g>
	<path class="st0" d="M176.4,146.4v77.4h-16.8v-37.5L123.8,222v-35.8l-37.5,37.5H62.6l78-77.4v35.8L176.4,146.4z"/>
	<path class="st0" d="M198.3,176.4h11c5.8,0.1,11.5-2.2,15.5-6.4c4.5-3.9,7.1-9.6,6.9-15.6v-8.1h16.8v8.1c0,11-4,19.6-11.6,27.7
		c-1,1.1-2.2,2.1-3.5,2.9c1.1,1.2,2.3,1.7,3.5,2.9c7.5,7.3,11.7,17.3,11.6,27.7v8.7h-16.7v-8.1c0.1-5.8-2.2-11.5-6.4-15.6
		c-4.2-4.1-9.8-6.4-15.6-6.4h-11v30h-16.7v-77.9h16.7L198.3,176.4L198.3,176.4z"/>
	<path class="st0" d="M254.9,193.7c-0.5-2.7-0.7-5.4-0.6-8.1c0-11,4-19.6,11.6-27.7c7.3-7.5,17.3-11.7,27.7-11.6
		c11,0,19.6,4,27.7,11.6c3.9,3.9,6.9,8.6,8.7,13.9h-19.1l-1.7-1.8c-8.7-8.5-22.5-8.5-31.2,0c-2.2,2.1-4,4.7-5.2,7.5h58.3
		c0.5,2.7,0.7,5.4,0.6,8.1c0,11-4,19.6-11.5,27.7s-16.7,11.5-27.7,11.5s-19.6-4-27.7-11.5c-3.9-3.9-6.9-8.6-8.7-13.9h19.1l1.7,1.7
		c8.7,8.5,22.5,8.5,31.2,0c2.2-2.1,4-4.7,5.2-7.5L254.9,193.7z"/>
</g>
<polygon class="st0" points="175.2,228.9 159.6,228.9 159.6,302.2 175.2,302.2 176.4,302.2 176.4,228.9 "/>
<polygon class="st0" points="234.1,228.9 231.8,228.9 231.8,230.1 231.8,230.1 231.8,256.6 198.3,256.6 198.3,228.9 196.6,228.9 
	182.1,228.9 182.1,266.5 182.1,271.6 231.8,271.6 231.8,302.2 248.6,302.2 248.6,299.9 248.6,266.5 248.6,230.1 248.6,228.9 "/>
</svg>
