<?xml version="1.0" encoding="utf-8"?>
<!-- Generator: Adobe Illustrator 26.0.1, SVG Export Plug-In . SVG Version: 6.00 Build 0)  -->
<svg version="1.1" id="Слой_1" xmlns="http://www.w3.org/2000/svg" xmlns:xlink="http://www.w3.org/1999/xlink" x="0px" y="0px"
	 viewBox="0 0 595.3 282.8" style="enable-background:new 0 0 595.3 282.8;" xml:space="preserve">
<style type="text/css">
	.st0{fill:url(#SVGID_1_);}
	.st1{clip-path:url(#SVGID_00000101797907779552440100000018384317424744412597_);}
	.st2{fill:url(#SVGID_00000127033715797174488940000017783556115214649482_);}
	.st3{fill:url(#SVGID_00000096770684213929509540000007485022705545978501_);}
	.st4{fill:url(#SVGID_00000169518647398613545210000005573636257334998156_);}
	.st5{fill:url(#SVGID_00000034075476221270528190000009201280128183623357_);}
	.st6{fill:url(#SVGID_00000169549091024183924370000015881733049375205291_);}
	.st7{fill:url(#SVGID_00000053540341035338860100000004112418147182475193_);}
	.st8{fill:url(#SVGID_00000111906706624937691810000004814249229705813650_);}
	.st9{fill:url(#SVGID_00000132767539879609866620000009512650789959322283_);}
	.st10{opacity:0.45;fill:#FFFFFF;}
	.st11{fill:url(#SVGID_00000052810996701640260750000006035395614163705495_);}
	.st12{opacity:0.25;}
	.st13{fill:#FFFFFF;}
	.st14{fill:url(#SVGID_00000124135581806817254110000007755204284436219796_);}
	.st15{opacity:0.25;fill:#FFFFFF;}
	.st16{opacity:0.66;}
	.st17{opacity:0.36;fill:#FFFFFF;}
	.st18{fill:url(#SVGID_00000114758159277246809620000012936749265412992158_);}
</style>
<g>
	<g>
		<g>
			
				<radialGradient id="SVGID_1_" cx="366.1732" cy="-251.2692" r="668.384" gradientTransform="matrix(0.9932 0 0 0.9932 3.6905 3.36)" gradientUnits="userSpaceOnUse">
				<stop  offset="0" style="stop-color:#EE76AB"/>
				<stop  offset="0.5" style="stop-color:#E42085"/>
				<stop  offset="1" style="stop-color:#C62686"/>
			</radialGradient>
			<rect x="-20.4" y="-83.9" class="st0" width="640.9" height="427.3"/>
			<g>
				<defs>
					<rect id="SVGID_00000016046600928954086410000011438403465553857709_" x="-20.4" y="-83.9" width="640.9" height="427.3"/>
				</defs>
				<clipPath id="SVGID_00000173877464159516767620000002109881607372903312_">
					<use xlink:href="#SVGID_00000016046600928954086410000011438403465553857709_"  style="overflow:visible;"/>
				</clipPath>
				<g style="clip-path:url(#SVGID_00000173877464159516767620000002109881607372903312_);">
					
						<radialGradient id="SVGID_00000019652338878033871430000016329184116331687040_" cx="-182.0797" cy="475.8335" r="323.833" gradientTransform="matrix(0.9932 0 0 0.9932 3.6905 3.36)" gradientUnits="userSpaceOnUse">
						<stop  offset="0" style="stop-color:#EE76AB"/>
						<stop  offset="0.5" style="stop-color:#E42085"/>
						<stop  offset="1" style="stop-color:#C62686"/>
					</radialGradient>
					<path style="fill:url(#SVGID_00000019652338878033871430000016329184116331687040_);" d="M-36.9,79.3
						C-24.2,89.9-10.5,99,3.3,106.4c34,18.1,75.1,26,111.2,9.2c29.3-13.7,42.7-47.2,72.4-59.8c24.9-10.6,54.9-0.1,73.8,19.2
						c18.9,19.3,28.8,45.6,35.9,71.6c3.8,13.9,7.2,28.5,16.2,39.8c14.3,17.9,38.9,23.1,58.7,34.6c21.2,12.4,37,32.5,48.2,54.3
						c15.4,30.2,21.8,61.7,40.1,90.4c8.6,13.5,18.8,26.1,30.2,37.3c7.5,7.4,24.9,27,35.9,28.3C385,415.7,249,506.1,107.7,494
						C50.9,489.2-3,468-57.5,451.5c-27.3-8.2-55.1-15.4-80.7-27.9s-49.2-31.2-61.9-56.7c-22-44.2-6.6-97.6,14-142.5
						c20.7-44.9,46.9-89.9,46.2-139.3c-0.3-18.2-4.3-36.1-5.3-54.3c-1.3-21.2,2-46,19.5-60.3c17.2-14.1,25.2-7.1,28.2,11.7
						C-91.5,20.3-67.1,54-36.9,79.3z"/>
					
						<image style="overflow:visible;opacity:0.25;" width="417" height="284" xlink:href="A31537C5.png"  transform="matrix(1 0 0 1 -65 131.8)">
					</image>
					
						<radialGradient id="SVGID_00000139993859327146443450000018422159234504002218_" cx="290.2652" cy="58.5497" r="604.5221" gradientTransform="matrix(0.9932 0 0 0.9932 3.6905 3.36)" gradientUnits="userSpaceOnUse">
						<stop  offset="0" style="stop-color:#EE76AB"/>
						<stop  offset="0.5" style="stop-color:#E42085"/>
						<stop  offset="1" style="stop-color:#C62686"/>
					</radialGradient>
					<path style="fill:url(#SVGID_00000139993859327146443450000018422159234504002218_);" d="M-5.8,172.8c2.5,1.1,5,2.1,7.5,3
						c22.6,8.4,49.6,7.5,72.2-0.4c21.5-7.5,40.1-21.2,59.5-33.1s40.9-22.4,63.7-22c8,0.1,16.3,1.8,23,6.2c13.7,9,18,27.5,15.7,43.7
						c-2.3,16.2-10,31-15.8,46.3c-2.5,6.8-4.7,14.2-3.1,21.3c2.7,11.6,15,14.5,25.2,15c13.2,0.7,27.4,0.6,39.1,7.5
						c3.7,2.2,7,5.1,9,8.8c7.4,14.1-7.1,31.6-2,46.7c5.3,15.4,27.6,18.9,34,33.9c6.3,14.7-6.7,30.9-21,37.9
						c-34.2,16.6-74.4,4.5-111.6-3.2C129.9,372,67.6,372,7.8,384.4c-18.6,3.9-38.2,8.9-56.3,3.2c-11.4-3.6-21.3-11.2-28.8-20.5
						c-8.7-10.7-14.6-23.9-15.2-37.7c-0.9-19.7,8.8-38.1,16-56.5c8.1-20.8,13.1-43.5,9.3-65.5c-3.6-20.7-14.7-39.4-18.6-60
						c-1.5-7.7-1.9-15.9,1.4-23c13.4-28.6,27.2,3.9,34.8,14.8C-38.8,155.1-23.1,165.4-5.8,172.8z"/>
					
						<image style="overflow:visible;opacity:0.21;" width="523" height="557" xlink:href="A31537C7.png"  transform="matrix(1 0 0 1 229 -175.2)">
					</image>
					
						<radialGradient id="SVGID_00000018229821348283686230000004437791624672812469_" cx="761.7643" cy="-139.8735" r="430.9625" gradientTransform="matrix(0.9932 0 0 0.9932 3.6905 3.36)" gradientUnits="userSpaceOnUse">
						<stop  offset="0" style="stop-color:#EE76AB"/>
						<stop  offset="0.5" style="stop-color:#E42085"/>
						<stop  offset="1" style="stop-color:#C62686"/>
					</radialGradient>
					<path style="fill:url(#SVGID_00000018229821348283686230000004437791624672812469_);" d="M326.8-15.6
						c13.8,25.8,17.2,57.1,9.1,85.2c-3.8,13.3-10.1,26.3-9.3,40.1c1,18.4,14.6,34,30.4,43.4c15.8,9.4,34,13.9,51.4,20
						c29.5,10.3,58.4,26.7,74.6,53.4c15.3,25.3,17.8,57.6,36.6,80.4c14.3,17.3,36.3,26.7,58.4,30.3c26.5,4.4,54.9,1,77.6-13.2
						c23.3-14.6,39-39.9,44.5-66.9c8.3-40.3-4.4-82.2-0.2-123.1c4.7-45.7,29.8-86.4,42.7-130.5c11.6-39.8,12.8-83.5-2.3-122
						c-13.8-35.1-40.9-64.6-74.5-81.6c-33.6-17-73.4-21.2-110-12.1c-32.9,8.2-62.7,26.7-96,33.1c-64.1,12.5-133.4-20.9-194.4,2.6
						c-17.3,6.7-34.4,20.4-35.4,38.9c-0.5,8.3,2.4,16.4,5.7,24c9.7,21.9,21,39.6,42,50.3C298.4-52.8,315.8-36,326.8-15.6z"/>
					
						<image style="overflow:visible;opacity:0.28;" width="330" height="416" xlink:href="A31537C2.png"  transform="matrix(1 0 0 1 367 -123.2)">
					</image>
					
						<radialGradient id="SVGID_00000149349429647760833950000014882730473029798030_" cx="70.4846" cy="303.4093" r="1494.6442" gradientTransform="matrix(0.9932 0 0 0.9932 3.6905 3.36)" gradientUnits="userSpaceOnUse">
						<stop  offset="0" style="stop-color:#EE76AB"/>
						<stop  offset="0.5" style="stop-color:#E42085"/>
						<stop  offset="1" style="stop-color:#C62686"/>
					</radialGradient>
					<path style="fill:url(#SVGID_00000149349429647760833950000014882730473029798030_);" d="M389.3-84c0.9,6.2,2.4,12.4,4.5,18.3
						c9.7,27.8,31,54.7,24,83.2c-4.9,19.9-22.6,34-31.8,52.4c-9.4,18.9-8.9,42.5,1.3,61c27.4,49.6,100.8,34.1,138.4,73.6
						c11.7,12.3,19.7,28.4,33.7,38.2c10.4,7.3,23.3,10.2,36,11.1c19.5,1.4,39.6-1.9,56.5-11.7c16.9-9.8,30.2-26.5,33.7-45.7
						c3.9-21.4-4.3-42.9-8.6-64.2c-4.1-20.5-4.7-41.8-1.7-62.5c4.9-33.7,19.1-65.3,27.1-98.3c8.1-33.1,9.3-70.4-9.7-98.7
						c-46.8-69.8-113-7.8-174.5-10.7c-16.8-0.8-32.9-6.9-49.2-11.1c-16.3-4.2-34.2-6.3-49.6,0.6c-14.5,6.5-24.8,20.5-28.8,35.9
						C388.2-103.2,388-93.5,389.3-84z"/>
					
						<image style="overflow:visible;opacity:0.16;" width="418" height="323" xlink:href="A31537C3.png"  transform="matrix(1 0 0 1 -64 -179.2)">
					</image>
					
						<radialGradient id="SVGID_00000069375632120855519640000015626587066985120681_" cx="285.4082" cy="89.7004" r="798.8936" gradientTransform="matrix(0.9932 0 0 0.9932 3.6905 3.36)" gradientUnits="userSpaceOnUse">
						<stop  offset="0" style="stop-color:#EE76AB"/>
						<stop  offset="0.5" style="stop-color:#E42085"/>
						<stop  offset="1" style="stop-color:#C62686"/>
					</radialGradient>
					<path style="fill:url(#SVGID_00000069375632120855519640000015626587066985120681_);" d="M46.6,104.3
						c29.2-10.2,54.5-29.1,79.9-46.7c25.4-17.7,52.4-34.7,82.8-40.4c16.3-3.1,34.2-2.5,48,6.8c8.2,5.5,14.3,13.7,22.1,19.8
						c13.2,10.3,31.7,14,47.3,8c15.6-6,27.2-22.2,26.3-38.9c-1.2-21.7-20.8-37.9-27-58.7c-6-20.3,1.3-41.9,8.9-61.6
						c3.1-7.9,6.2-16.2,5.7-24.7c-0.6-8.3-4.6-15.9-9.5-22.6c-14-19.4-35-33.1-57.5-41.4c-22.5-8.3-46.5-11.6-70.4-13.4
						c-56.6-4.1-115.4,0.8-166.3,26s-92.7,73.3-99.5,129.7c-3.3,27.3,1.6,54.6,4.8,81.6c1.9,16-2,35.8,2.1,51.2
						C-45.3,118.1,18.1,114.3,46.6,104.3z"/>
					
						<radialGradient id="SVGID_00000170243416356414647660000011934759799683421595_" cx="397.1198" cy="71.4867" r="637.1197" gradientTransform="matrix(0.9932 0 0 0.9932 3.6905 3.36)" gradientUnits="userSpaceOnUse">
						<stop  offset="0" style="stop-color:#EE76AB"/>
						<stop  offset="0.5" style="stop-color:#E42085"/>
						<stop  offset="1" style="stop-color:#C62686"/>
					</radialGradient>
					<path style="fill:url(#SVGID_00000170243416356414647660000011934759799683421595_);" d="M522.9,277.9
						c-17.6-2.4-34.4-8-48.7-18.6c-17.1-12.7-28.8-31.1-42.7-47.2c-13.9-16.1-32.2-30.8-53.5-31.2c-21.2-0.4-41.6,15.5-46.3,36.2
						c-7.4,32.3,19.8,61.8,26.5,94.3c5.9,28.4-4.3,57.6-4.8,86.6c-0.5,29.7,20.7,45.3,44.2,58.9c32.2,18.6,69.4,28.4,106.6,27.6
						c55-1.2,114.7-35.9,152.2-74.8c23.9-24.7,39.4-52.5,20.6-83.8c-14.4-24-28.3-47.8-59.3-51.2c-13.6-1.5-27.4,0.9-41,2.6
						C559,279.5,540.6,280.3,522.9,277.9z"/>
					
						<image style="overflow:visible;opacity:0.32;" width="286" height="527" xlink:href="A31537CD.png"  transform="matrix(1 0 0 1 -105 -104.2)">
					</image>
					
						<radialGradient id="SVGID_00000028324492913261042520000010783861989786276756_" cx="97.5962" cy="87.7484" r="759.7605" gradientTransform="matrix(0.9932 0 0 0.9932 3.6905 3.36)" gradientUnits="userSpaceOnUse">
						<stop  offset="0" style="stop-color:#EE76AB"/>
						<stop  offset="0.5" style="stop-color:#E42085"/>
						<stop  offset="1" style="stop-color:#C62686"/>
					</radialGradient>
					<path style="fill:url(#SVGID_00000028324492913261042520000010783861989786276756_);" d="M92.5-57.8
						c-4.8,22.4-12.4,45-9.6,67.7c2.5,20.2,13.7,39.2,30.2,51.2c15.6,11.4,36.7,17.9,44.4,35.6c8.6,19.7-4.3,41.7-17.7,58.6
						c-20.1,25.4-42.8,49.6-56.1,79.2c-13.3,29.6-15.1,67.1,5.3,92.3c4.4,5.4,9.7,10.2,13.2,16.2c3.5,6.1,4.8,14.1,0.7,19.8
						c-2.1,2.9-5.3,4.9-8.4,6.6c-38.3,20.9-86.3,23-126.4,5.6c-19-8.2-37.1-21.9-43.7-41.5c-4.7-13.9-3-29.1-0.8-43.6
						c7.3-48.3,19.8-96.7,14.6-145.2c-3.7-34.4-16.1-67.3-31-98.5c-9.3-19.5-19.7-38.7-26-59.4c-6.4-20.7-8.6-43.4-1.4-63.8
						c7.7-21.9,25.9-39.2,46.9-49.2c21-10,44.7-13.1,68-12.7c28,0.5,57.7,5.9,83.8,16C102.3-113.9,96.8-78.2,92.5-57.8z"/>
					
						<image style="overflow:visible;opacity:0.2;" width="319" height="569" xlink:href="A31537CF.png"  transform="matrix(1 0 0 1 389 -97.2)">
					</image>
					
						<radialGradient id="SVGID_00000027598142416545187970000007884949675493605051_" cx="375.7017" cy="52.9759" r="989.7111" gradientTransform="matrix(0.9932 0 0 0.9932 3.6905 3.36)" gradientUnits="userSpaceOnUse">
						<stop  offset="0" style="stop-color:#EE76AB"/>
						<stop  offset="0.4192" style="stop-color:#E42085"/>
						<stop  offset="1" style="stop-color:#C62686"/>
					</radialGradient>
					<path style="fill:url(#SVGID_00000027598142416545187970000007884949675493605051_);" d="M525.8-92.8
						c-12.3,11.5-23.9,24-31.4,39S483.7-21,488.7-5c12.9,41,77.9,71.3,43.6,121c-10.1,14.7-26,24.4-42.1,32.1
						c-27.6,13.3-58.1,23.6-71.2,53.8c-5.6,13.1-7.8,27.4-8.5,41.6c-1.4,28.6,3.1,57.5,13.1,84.3c7.2,19.2,17.4,37.6,31.7,52.2
						c19.8,20.3,51.3,32.8,78.8,38.2c33,6.4,68,4.4,99.3-8.2c39.5-15.9,72.5-49.3,84.3-90.2c4.1-14.3,5.7-29.3,7.2-44.1
						c2.1-20.5-1.5-39-1.9-59c-0.5-23.1-4.3-46.3-8.1-69c-6.1-36.4-13.6-73.3-8.3-109.8c3.9-26.6,14.4-51.7,19.6-78
						c5.2-26.3,4.4-55.9-12.1-77.1c-14-18-37.4-26.9-60.2-28.4C601-148.9,563.3-127.8,525.8-92.8z"/>
					<path class="st10" d="M495.9,226.6c-11.7,0-21.2,9.5-21.2,21.2c0,11.7,9.5,21.2,21.2,21.2s21.2-9.5,21.2-21.2
						C517.1,236.1,507.6,226.6,495.9,226.6z M495.9,268.5c-11.4,0-20.7-9.3-20.7-20.7c0-11.4,9.3-20.7,20.7-20.7
						c11.4,0,20.7,9.3,20.7,20.7C516.6,259.2,507.3,268.5,495.9,268.5z M495.9,236.7c-6.1,0-11,5-11,11c0,6.1,5,11,11,11s11-5,11-11
						C506.9,241.7,502,236.7,495.9,236.7z M495.9,258.3c-5.8,0-10.5-4.7-10.5-10.5c0-5.8,4.7-10.5,10.5-10.5
						c5.8,0,10.5,4.7,10.5,10.5C506.4,253.6,501.7,258.3,495.9,258.3z M495.9,231.7c-8.9,0-16.1,7.2-16.1,16.1
						c0,8.9,7.2,16.1,16.1,16.1c8.9,0,16.1-7.2,16.1-16.1C512,238.9,504.8,231.7,495.9,231.7z M495.9,263.4c-8.6,0-15.6-7-15.6-15.6
						c0-8.6,7-15.6,15.6-15.6c8.6,0,15.6,7,15.6,15.6C511.5,256.4,504.5,263.4,495.9,263.4z M495.9,211.3
						c-20.1,0-36.5,16.4-36.5,36.5s16.4,36.5,36.5,36.5c20.1,0,36.5-16.4,36.5-36.5S516,211.3,495.9,211.3z M495.9,283.7
						c-19.8,0-35.9-16.1-35.9-35.9c0-19.8,16.1-35.9,35.9-35.9c19.8,0,35.9,16.1,35.9,35.9C531.8,267.6,515.7,283.7,495.9,283.7z
						 M495.9,191c-31.3,0-56.8,25.5-56.8,56.8s25.5,56.8,56.8,56.8s56.8-25.5,56.8-56.8S527.2,191,495.9,191z M495.9,304.1
						c-31,0-56.3-25.2-56.3-56.3c0-31,25.2-56.3,56.3-56.3c31,0,56.3,25.2,56.3,56.3C552.2,278.8,526.9,304.1,495.9,304.1z
						 M495.9,196.1c-28.5,0-51.7,23.2-51.7,51.7s23.2,51.7,51.7,51.7c28.5,0,51.7-23.2,51.7-51.7S524.4,196.1,495.9,196.1z
						 M495.9,299c-28.2,0-51.2-23-51.2-51.2s23-51.2,51.2-51.2c28.2,0,51.2,23,51.2,51.2S524.1,299,495.9,299z M495.9,185.9
						c-34.1,0-61.9,27.8-61.9,61.9c0,34.1,27.8,61.9,61.9,61.9s61.9-27.8,61.9-61.9C557.8,213.7,530,185.9,495.9,185.9z
						 M495.9,309.1c-33.8,0-61.4-27.5-61.4-61.4c0-33.8,27.5-61.4,61.4-61.4s61.4,27.5,61.4,61.4
						C557.3,281.6,529.7,309.1,495.9,309.1z M495.9,201.2c-25.7,0-46.6,20.9-46.6,46.6c0,25.7,20.9,46.6,46.6,46.6
						c25.7,0,46.6-20.9,46.6-46.6C542.5,222.1,521.6,201.2,495.9,201.2z M495.9,293.9c-25.4,0-46.1-20.7-46.1-46.1
						c0-25.4,20.7-46.1,46.1-46.1s46.1,20.7,46.1,46.1C542,273.2,521.3,293.9,495.9,293.9z M495.9,221.5
						c-14.5,0-26.3,11.8-26.3,26.3c0,14.5,11.8,26.3,26.3,26.3c14.5,0,26.3-11.8,26.3-26.3C522.2,233.3,510.4,221.5,495.9,221.5z
						 M495.9,273.6c-14.2,0-25.8-11.6-25.8-25.8c0-14.2,11.6-25.8,25.8-25.8c14.2,0,25.8,11.6,25.8,25.8
						C521.7,262,510.1,273.6,495.9,273.6z M495.9,216.4c-17.3,0-31.4,14.1-31.4,31.4c0,17.3,14.1,31.4,31.4,31.4
						c17.3,0,31.4-14.1,31.4-31.4C527.3,230.5,513.2,216.4,495.9,216.4z M495.9,278.7c-17,0-30.9-13.8-30.9-30.9
						c0-17,13.8-30.9,30.9-30.9c17,0,30.9,13.8,30.9,30.9C526.8,264.8,512.9,278.7,495.9,278.7z M495.9,206.3
						c-22.9,0-41.5,18.6-41.5,41.5c0,22.9,18.6,41.5,41.5,41.5s41.5-18.6,41.5-41.5C537.4,224.9,518.8,206.3,495.9,206.3z
						 M495.9,288.8c-22.6,0-41-18.4-41-41c0-22.6,18.4-41,41-41c22.6,0,41,18.4,41,41C536.9,270.4,518.5,288.8,495.9,288.8z"/>
					
						<radialGradient id="SVGID_00000092426549628058677400000015554823867527522743_" cx="485.3056" cy="246.3787" r="738.8304" gradientTransform="matrix(0.9932 0 0 0.9932 3.6905 3.36)" gradientUnits="userSpaceOnUse">
						<stop  offset="0" style="stop-color:#EE76AB"/>
						<stop  offset="0.5" style="stop-color:#E42085"/>
						<stop  offset="1" style="stop-color:#C62686"/>
					</radialGradient>
					<path style="fill:url(#SVGID_00000092426549628058677400000015554823867527522743_);" d="M624,175.4
						c-22.6-10.7-48.4-15.5-72.9-10.8c-12.4,2.4-24.7,7.5-33.1,16.9c-12.9,14.3-14.3,35.5-13.1,54.7c0.6,8.7,1.5,17.9-2,25.9
						c-3.1,7.2-9.5,12.5-16.5,16c-15,7.5-32.8,7.2-49.4,4.5c-16.6-2.7-32.9-7.4-49.7-8.3c-16.8-0.9-34.8,2.8-46.7,14.6
						c-10.8,10.7-15,26.5-14.7,41.7c0.3,15.1,4.6,29.9,9,44.4c1.8,6,3.6,12.1,7.4,17c6.9,8.9,18.8,12.1,29.9,13.8
						c24.7,3.9,49.8,3.4,74.8,3.5c57.9,0.4,117.3,4.2,172.2-14.3c26.4-8.9,51.6-23.3,69.5-44.7c17.9-21.4,27.7-50.4,22.3-77.8
						C702.5,228.7,662.7,193.7,624,175.4z"/>
					<g class="st12">
						<path class="st13" d="M53,41.5c-0.9,0-1.7,0.8-1.7,1.7c0,0.9,0.8,1.7,1.7,1.7c0.9,0,1.7-0.8,1.7-1.7
							C54.7,42.3,53.9,41.5,53,41.5z"/>
						<path class="st13" d="M44.3,95.2c-0.9,0-1.7,0.8-1.7,1.7c0,0.9,0.8,1.7,1.7,1.7c0.9,0,1.7-0.8,1.7-1.7
							C46,95.9,45.2,95.2,44.3,95.2z"/>
						<path class="st13" d="M44.3,102.8c-0.9,0-1.7,0.8-1.7,1.7c0,0.9,0.8,1.7,1.7,1.7c0.9,0,1.7-0.8,1.7-1.7
							C46,103.6,45.2,102.8,44.3,102.8z"/>
						<path class="st13" d="M44.3,87.5c-0.9,0-1.7,0.8-1.7,1.7c0,0.9,0.8,1.7,1.7,1.7c0.9,0,1.7-0.8,1.7-1.7
							C46,88.3,45.2,87.5,44.3,87.5z"/>
						<path class="st13" d="M53,72.2c-0.9,0-1.7,0.8-1.7,1.7c0,0.9,0.8,1.7,1.7,1.7c0.9,0,1.7-0.8,1.7-1.7
							C54.7,73,53.9,72.2,53,72.2z"/>
						<path class="st13" d="M53,79.9c-0.9,0-1.7,0.8-1.7,1.7c0,0.9,0.8,1.7,1.7,1.7c0.9,0,1.7-0.8,1.7-1.7
							C54.7,80.6,53.9,79.9,53,79.9z"/>
						<path class="st13" d="M53,87.5c-0.9,0-1.7,0.8-1.7,1.7c0,0.9,0.8,1.7,1.7,1.7c0.9,0,1.7-0.8,1.7-1.7
							C54.7,88.3,53.9,87.5,53,87.5z"/>
						<path class="st13" d="M44.3,79.9c-0.9,0-1.7,0.8-1.7,1.7c0,0.9,0.8,1.7,1.7,1.7c0.9,0,1.7-0.8,1.7-1.7
							C46,80.6,45.2,79.9,44.3,79.9z"/>
						<path class="st13" d="M53,56.9c-0.9,0-1.7,0.8-1.7,1.7c0,0.9,0.8,1.7,1.7,1.7s1.7-0.8,1.7-1.7C54.7,57.6,53.9,56.9,53,56.9z"
							/>
						<path class="st13" d="M53,49.2c-0.9,0-1.7,0.8-1.7,1.7c0,0.9,0.8,1.7,1.7,1.7s1.7-0.8,1.7-1.7C54.7,50,53.9,49.2,53,49.2z"/>
						<path class="st13" d="M44.3,37.3c0.8,0,1.4-0.5,1.6-1.2c-1.1-0.2-2.2-0.3-3.3-0.4C42.7,36.6,43.4,37.3,44.3,37.3z"/>
						<path class="st13" d="M52,110.8c0.3-0.1,0.6-0.2,0.8-0.3C52.5,110.5,52.2,110.6,52,110.8z"/>
						<path class="st13" d="M61.6,102.8c-0.9,0-1.7,0.8-1.7,1.7c0,0.9,0.6,1.6,1.4,1.7c0.7-0.4,1.3-0.9,2-1.4c0-0.1,0-0.2,0-0.3
							C63.3,103.6,62.6,102.8,61.6,102.8z"/>
						<path class="st13" d="M61.6,49.2c-0.9,0-1.7,0.8-1.7,1.7s0.8,1.7,1.7,1.7c0.9,0,1.7-0.8,1.7-1.7C63.3,50,62.6,49.2,61.6,49.2z
							"/>
						<path class="st13" d="M44.3,49.2c-0.9,0-1.7,0.8-1.7,1.7s0.8,1.7,1.7,1.7c0.9,0,1.7-0.8,1.7-1.7C46,50,45.2,49.2,44.3,49.2z"
							/>
						<path class="st13" d="M59.9,43.3c0,0.9,0.8,1.7,1.7,1.7c0.9,0,1.6-0.6,1.7-1.5c-0.8-0.6-1.6-1.2-2.5-1.7
							C60.3,42,59.9,42.6,59.9,43.3z"/>
						<path class="st13" d="M44.3,56.9c-0.9,0-1.7,0.8-1.7,1.7c0,0.9,0.8,1.7,1.7,1.7c0.9,0,1.7-0.8,1.7-1.7
							C46,57.6,45.2,56.9,44.3,56.9z"/>
						<path class="st13" d="M44.3,41.5c-0.9,0-1.7,0.8-1.7,1.7c0,0.9,0.8,1.7,1.7,1.7c0.9,0,1.7-0.8,1.7-1.7
							C46,42.3,45.2,41.5,44.3,41.5z"/>
						<path class="st13" d="M44.3,72.2c-0.9,0-1.7,0.8-1.7,1.7c0,0.9,0.8,1.7,1.7,1.7c0.9,0,1.7-0.8,1.7-1.7
							C46,73,45.2,72.2,44.3,72.2z"/>
						<path class="st13" d="M44.3,64.5c-0.9,0-1.7,0.8-1.7,1.7c0,0.9,0.8,1.7,1.7,1.7c0.9,0,1.7-0.8,1.7-1.7
							C46,65.3,45.2,64.5,44.3,64.5z"/>
						<path class="st13" d="M70.3,72.2c-0.9,0-1.7,0.8-1.7,1.7c0,0.9,0.8,1.7,1.7,1.7c0.9,0,1.7-0.8,1.7-1.7
							C72,73,71.2,72.2,70.3,72.2z"/>
						<path class="st13" d="M70.3,64.5c-0.9,0-1.7,0.8-1.7,1.7c0,0.9,0.8,1.7,1.7,1.7c0.9,0,1.7-0.8,1.7-1.7
							C72,65.3,71.2,64.5,70.3,64.5z"/>
						<path class="st13" d="M70.3,87.5c-0.9,0-1.7,0.8-1.7,1.7c0,0.9,0.8,1.7,1.7,1.7c0.9,0,1.7-0.8,1.7-1.7
							C72,88.3,71.2,87.5,70.3,87.5z"/>
						<path class="st13" d="M70.3,56.9c-0.9,0-1.7,0.8-1.7,1.7c0,0.9,0.8,1.7,1.7,1.7c0.9,0,1.7-0.8,1.7-1.7
							C72,57.6,71.2,56.9,70.3,56.9z"/>
						<path class="st13" d="M70.3,95.2c-0.9,0-1.7,0.8-1.7,1.7c0,0.8,0.5,1.4,1.2,1.6c0.7-0.8,1.3-1.7,1.9-2.6
							C71.4,95.5,70.9,95.2,70.3,95.2z"/>
						<path class="st13" d="M70.3,79.9c-0.9,0-1.7,0.8-1.7,1.7c0,0.9,0.8,1.7,1.7,1.7c0.9,0,1.7-0.8,1.7-1.7
							C72,80.6,71.2,79.9,70.3,79.9z"/>
						<path class="st13" d="M77.2,73.9c0,0.8,0.5,1.4,1.2,1.6c0-0.5,0-0.9,0-1.4c0-0.6,0-1.3,0-1.9C77.7,72.5,77.2,73.1,77.2,73.9z"
							/>
						<path class="st13" d="M68.6,50.9c0,0.9,0.8,1.7,1.7,1.7c0.5,0,0.9-0.2,1.2-0.5c-0.6-0.9-1.3-1.8-2-2.7
							C68.9,49.7,68.6,50.3,68.6,50.9z"/>
						<path class="st13" d="M77.9,67.6c-0.1-0.7-0.3-1.5-0.4-2.2c-0.1,0.3-0.2,0.5-0.2,0.9C77.2,66.8,77.5,67.3,77.9,67.6z"/>
						<path class="st13" d="M53,95.2c-0.9,0-1.7,0.8-1.7,1.7c0,0.9,0.8,1.7,1.7,1.7c0.9,0,1.7-0.8,1.7-1.7
							C54.7,95.9,53.9,95.2,53,95.2z"/>
						<path class="st13" d="M61.6,64.5c-0.9,0-1.7,0.8-1.7,1.7c0,0.9,0.8,1.7,1.7,1.7s1.7-0.8,1.7-1.7
							C63.3,65.3,62.6,64.5,61.6,64.5z"/>
						<path class="st13" d="M61.6,56.9c-0.9,0-1.7,0.8-1.7,1.7c0,0.9,0.8,1.7,1.7,1.7c0.9,0,1.7-0.8,1.7-1.7
							C63.3,57.6,62.6,56.9,61.6,56.9z"/>
						<path class="st13" d="M61.6,72.2c-0.9,0-1.7,0.8-1.7,1.7c0,0.9,0.8,1.7,1.7,1.7c0.9,0,1.7-0.8,1.7-1.7
							C63.3,73,62.6,72.2,61.6,72.2z"/>
						<path class="st13" d="M53,102.8c-0.9,0-1.7,0.8-1.7,1.7c0,0.9,0.8,1.7,1.7,1.7c0.9,0,1.7-0.8,1.7-1.7S53.9,102.8,53,102.8z"/>
						<path class="st13" d="M61.6,95.2c-0.9,0-1.7,0.8-1.7,1.7c0,0.9,0.8,1.7,1.7,1.7c0.9,0,1.7-0.8,1.7-1.7
							C63.3,95.9,62.6,95.2,61.6,95.2z"/>
						<path class="st13" d="M61.6,79.9c-0.9,0-1.7,0.8-1.7,1.7c0,0.9,0.8,1.7,1.7,1.7c0.9,0,1.7-0.8,1.7-1.7
							C63.3,80.6,62.6,79.9,61.6,79.9z"/>
						<path class="st13" d="M46,112.2c0-0.9-0.8-1.7-1.7-1.7c-0.9,0-1.7,0.8-1.7,1.7c0,0.1,0,0.3,0.1,0.4
							C43.8,112.6,44.9,112.4,46,112.2C46,112.3,46,112.2,46,112.2z"/>
						<path class="st13" d="M61.6,87.5c-0.9,0-1.7,0.8-1.7,1.7c0,0.9,0.8,1.7,1.7,1.7c0.9,0,1.7-0.8,1.7-1.7
							C63.3,88.3,62.6,87.5,61.6,87.5z"/>
						<path class="st13" d="M77.2,81.6c0,0.4,0.1,0.7,0.3,1c0.2-0.8,0.3-1.6,0.5-2.4C77.6,80.4,77.2,81,77.2,81.6z"/>
						<path class="st13" d="M53,64.5c-0.9,0-1.7,0.8-1.7,1.7c0,0.9,0.8,1.7,1.7,1.7c0.9,0,1.7-0.8,1.7-1.7
							C54.7,65.3,53.9,64.5,53,64.5z"/>
						<path class="st13" d="M37.3,112.2c0-0.9-0.8-1.7-1.7-1.7c-0.9,0-1.7,0.8-1.7,1.7c0,0,0,0,0,0.1c1.1,0.2,2.2,0.3,3.4,0.4
							C37.3,112.5,37.3,112.4,37.3,112.2z"/>
						<path class="st13" d="M27,110.5C27,110.5,27,110.5,27,110.5c0.3,0.1,0.7,0.2,1,0.4C27.7,110.6,27.4,110.5,27,110.5z"/>
						<path class="st13" d="M9.6,52.6c0.9,0,1.7-0.8,1.7-1.7c0-0.7-0.4-1.3-1-1.5c-0.7,0.8-1.4,1.7-2,2.6
							C8.7,52.4,9.1,52.6,9.6,52.6z"/>
						<path class="st13" d="M35.6,37.3c0.9,0,1.7-0.7,1.7-1.6c-1.1,0.1-2.2,0.2-3.3,0.4C34.2,36.8,34.8,37.3,35.6,37.3z"/>
						<path class="st13" d="M35.6,41.5c-0.9,0-1.7,0.8-1.7,1.7c0,0.9,0.8,1.7,1.7,1.7c0.9,0,1.7-0.8,1.7-1.7
							C37.3,42.3,36.6,41.5,35.6,41.5z"/>
						<path class="st13" d="M20,104.6c0-0.9-0.8-1.7-1.7-1.7c-0.9,0-1.7,0.8-1.7,1.7c0,0.1,0,0.3,0,0.4c0.6,0.5,1.2,0.9,1.8,1.3
							C19.3,106.2,20,105.4,20,104.6z"/>
						<path class="st13" d="M18.3,79.9c-0.9,0-1.7,0.8-1.7,1.7c0,0.9,0.8,1.7,1.7,1.7c0.9,0,1.7-0.8,1.7-1.7
							C20,80.6,19.3,79.9,18.3,79.9z"/>
						<path class="st13" d="M18.3,72.2c-0.9,0-1.7,0.8-1.7,1.7c0,0.9,0.8,1.7,1.7,1.7c0.9,0,1.7-0.8,1.7-1.7
							C20,73,19.3,72.2,18.3,72.2z"/>
						<path class="st13" d="M18.3,64.5c-0.9,0-1.7,0.8-1.7,1.7c0,0.9,0.8,1.7,1.7,1.7c0.9,0,1.7-0.8,1.7-1.7
							C20,65.3,19.2,64.5,18.3,64.5z"/>
						<path class="st13" d="M18.3,56.9c-0.9,0-1.7,0.8-1.7,1.7c0,0.9,0.8,1.7,1.7,1.7c0.9,0,1.7-0.8,1.7-1.7
							C20,57.6,19.2,56.9,18.3,56.9z"/>
						<path class="st13" d="M9.6,79.9c-0.9,0-1.7,0.8-1.7,1.7c0,0.9,0.8,1.7,1.7,1.7c0.9,0,1.7-0.8,1.7-1.7
							C11.4,80.6,10.6,79.9,9.6,79.9z"/>
						<path class="st13" d="M18.3,95.2c-0.9,0-1.7,0.8-1.7,1.7c0,0.9,0.8,1.7,1.7,1.7c0.9,0,1.7-0.8,1.7-1.7
							C20,95.9,19.3,95.2,18.3,95.2z"/>
						<path class="st13" d="M2.7,73.9c0-0.8-0.6-1.5-1.3-1.7c0,0.6,0,1.3,0,1.9c0,0.5,0,0.9,0,1.4C2.1,75.4,2.7,74.7,2.7,73.9z"/>
						<path class="st13" d="M11.4,96.9c0-0.9-0.8-1.7-1.7-1.7c-0.6,0-1.2,0.4-1.5,0.9c0.6,0.9,1.2,1.7,1.9,2.5
							C10.8,98.4,11.4,97.7,11.4,96.9z"/>
						<path class="st13" d="M2.7,66.2c0-0.4-0.1-0.7-0.3-1c-0.2,0.8-0.4,1.6-0.5,2.4C2.4,67.4,2.7,66.9,2.7,66.2z"/>
						<path class="st13" d="M1.8,80.1c0.1,0.9,0.3,1.7,0.5,2.6c0.2-0.3,0.4-0.7,0.4-1.1C2.7,80.9,2.3,80.4,1.8,80.1z"/>
						<path class="st13" d="M9.6,87.5c-0.9,0-1.7,0.8-1.7,1.7c0,0.9,0.8,1.7,1.7,1.7c0.9,0,1.7-0.8,1.7-1.7
							C11.4,88.3,10.6,87.5,9.6,87.5z"/>
						<path class="st13" d="M9.6,72.2c-0.9,0-1.7,0.8-1.7,1.7c0,0.9,0.8,1.7,1.7,1.7c0.9,0,1.7-0.8,1.7-1.7
							C11.4,73,10.6,72.2,9.6,72.2z"/>
						<path class="st13" d="M9.6,64.5c-0.9,0-1.7,0.8-1.7,1.7c0,0.9,0.8,1.7,1.7,1.7c0.9,0,1.7-0.8,1.7-1.7
							C11.4,65.3,10.6,64.5,9.6,64.5z"/>
						<path class="st13" d="M9.6,56.9c-0.9,0-1.7,0.8-1.7,1.7c0,0.9,0.8,1.7,1.7,1.7c0.9,0,1.7-0.8,1.7-1.7
							C11.4,57.6,10.6,56.9,9.6,56.9z"/>
						<path class="st13" d="M18.3,49.2c-0.9,0-1.7,0.8-1.7,1.7c0,0.9,0.8,1.7,1.7,1.7c0.9,0,1.7-0.8,1.7-1.7
							C20,50,19.2,49.2,18.3,49.2z"/>
						<path class="st13" d="M35.6,56.9c-0.9,0-1.7,0.8-1.7,1.7c0,0.9,0.8,1.7,1.7,1.7c0.9,0,1.7-0.8,1.7-1.7
							C37.3,57.6,36.6,56.9,35.6,56.9z"/>
						<path class="st13" d="M35.6,72.2c-0.9,0-1.7,0.8-1.7,1.7c0,0.9,0.8,1.7,1.7,1.7c0.9,0,1.7-0.8,1.7-1.7
							C37.3,73,36.6,72.2,35.6,72.2z"/>
						<path class="st13" d="M35.6,64.5c-0.9,0-1.7,0.8-1.7,1.7c0,0.9,0.8,1.7,1.7,1.7c0.9,0,1.7-0.8,1.7-1.7
							C37.3,65.3,36.6,64.5,35.6,64.5z"/>
						<path class="st13" d="M35.6,49.2c-0.9,0-1.7,0.8-1.7,1.7c0,0.9,0.8,1.7,1.7,1.7s1.7-0.8,1.7-1.7C37.3,50,36.6,49.2,35.6,49.2z
							"/>
						<path class="st13" d="M35.6,79.9c-0.9,0-1.7,0.8-1.7,1.7c0,0.9,0.8,1.7,1.7,1.7c0.9,0,1.7-0.8,1.7-1.7
							C37.3,80.6,36.6,79.9,35.6,79.9z"/>
						<path class="st13" d="M35.6,102.8c-0.9,0-1.7,0.8-1.7,1.7c0,0.9,0.8,1.7,1.7,1.7c0.9,0,1.7-0.8,1.7-1.7
							C37.3,103.6,36.6,102.8,35.6,102.8z"/>
						<path class="st13" d="M27,95.2c-0.9,0-1.7,0.8-1.7,1.7c0,0.9,0.8,1.7,1.7,1.7c0.9,0,1.7-0.8,1.7-1.7
							C28.7,95.9,27.9,95.2,27,95.2z"/>
						<path class="st13" d="M35.6,95.2c-0.9,0-1.7,0.8-1.7,1.7c0,0.9,0.8,1.7,1.7,1.7c0.9,0,1.7-0.8,1.7-1.7
							C37.3,95.9,36.6,95.2,35.6,95.2z"/>
						<path class="st13" d="M18.3,87.5c-0.9,0-1.7,0.8-1.7,1.7c0,0.9,0.8,1.7,1.7,1.7c0.9,0,1.7-0.8,1.7-1.7S19.3,87.5,18.3,87.5z"
							/>
						<path class="st13" d="M35.6,87.5c-0.9,0-1.7,0.8-1.7,1.7c0,0.9,0.8,1.7,1.7,1.7c0.9,0,1.7-0.8,1.7-1.7
							C37.3,88.3,36.6,87.5,35.6,87.5z"/>
						<path class="st13" d="M27,41.5c-0.9,0-1.7,0.8-1.7,1.7c0,0.9,0.8,1.7,1.7,1.7c0.9,0,1.7-0.8,1.7-1.7
							C28.7,42.3,27.9,41.5,27,41.5z"/>
						<path class="st13" d="M27,56.9c-0.9,0-1.7,0.8-1.7,1.7c0,0.9,0.8,1.7,1.7,1.7c0.9,0,1.7-0.8,1.7-1.7
							C28.7,57.6,27.9,56.9,27,56.9z"/>
						<path class="st13" d="M27,49.2c-0.9,0-1.7,0.8-1.7,1.7c0,0.9,0.8,1.7,1.7,1.7c0.9,0,1.7-0.8,1.7-1.7
							C28.7,50,27.9,49.2,27,49.2z"/>
						<path class="st13" d="M18.3,45c0.9,0,1.7-0.8,1.7-1.7c0-0.7-0.4-1.3-1-1.5c-0.8,0.5-1.7,1.1-2.4,1.7
							C16.7,44.3,17.4,45,18.3,45z"/>
						<path class="st13" d="M27,72.2c-0.9,0-1.7,0.8-1.7,1.7c0,0.9,0.8,1.7,1.7,1.7c0.9,0,1.7-0.8,1.7-1.7
							C28.7,73,27.9,72.2,27,72.2z"/>
						<path class="st13" d="M27,79.9c-0.9,0-1.7,0.8-1.7,1.7c0,0.9,0.8,1.7,1.7,1.7s1.7-0.8,1.7-1.7C28.7,80.6,27.9,79.9,27,79.9z"
							/>
						<path class="st13" d="M27,87.5c-0.9,0-1.7,0.8-1.7,1.7c0,0.9,0.8,1.7,1.7,1.7c0.9,0,1.7-0.8,1.7-1.7
							C28.7,88.3,27.9,87.5,27,87.5z"/>
						<path class="st13" d="M27,64.5c-0.9,0-1.7,0.8-1.7,1.7c0,0.9,0.8,1.7,1.7,1.7c0.9,0,1.7-0.8,1.7-1.7
							C28.7,65.3,27.9,64.5,27,64.5z"/>
						<path class="st13" d="M27,102.8c-0.9,0-1.7,0.8-1.7,1.7c0,0.9,0.8,1.7,1.7,1.7c0.9,0,1.7-0.8,1.7-1.7
							C28.7,103.6,27.9,102.8,27,102.8z"/>
					</g>
					
						<radialGradient id="SVGID_00000119807164903482636650000000832043641772253082_" cx="188.1579" cy="30.3796" r="848.2067" gradientTransform="matrix(0.9932 0 0 0.9932 3.6905 3.36)" gradientUnits="userSpaceOnUse">
						<stop  offset="0" style="stop-color:#EE76AB"/>
						<stop  offset="0.5" style="stop-color:#E42085"/>
						<stop  offset="1" style="stop-color:#C62686"/>
					</radialGradient>
					<path style="fill:url(#SVGID_00000119807164903482636650000000832043641772253082_);" d="M189-33.5
						C153.2-3.1,97.7-1.5,55.2,20.8C34.8,31.4,16.5,49.7,13.8,72.5c-3,25.4,13.7,49.6,12.9,75.2c-0.7,21.1-13.9,40.6-31.8,51.7
						C-23.1,210.6-45,214-66,211.9c-2.5-0.3-5.2-0.6-7.3-2.1c-3.9-2.9-4.2-8.5-4.1-13.3c0.2-32.3-3.1-64.7-11-96
						c-10.1-39.8-27.5-77.3-38.8-116.7c-11.3-39.4-16-82.7-0.8-120.8c19.2-47.8,66.9-79,116.3-93.4c46.4-13.5,96.4-14.7,143.4-3.3
						c17.3,4.2,35.4,10,46.5,24.2c13.8,17.5,26.1,37.3,34.2,58.1c10,25.6,13.1,54.9,3.1,80.5C209.1-54.8,200-42.8,189-33.5z"/>
					<path class="st15" d="M7.1-77.7c-12.5,0-22.6,10.1-22.6,22.6c0,12.5,10.1,22.6,22.6,22.6c12.5,0,22.6-10.1,22.6-22.6
						C29.7-67.5,19.5-77.7,7.1-77.7z M7.1-33c-12.2,0-22-9.9-22-22c0-12.2,9.9-22,22-22c12.2,0,22,9.9,22,22
						C29.1-42.9,19.2-33,7.1-33z M7.1-66.9c-6.5,0-11.8,5.3-11.8,11.8c0,6.5,5.3,11.8,11.8,11.8c6.5,0,11.8-5.3,11.8-11.8
						C18.8-61.6,13.6-66.9,7.1-66.9z M7.1-43.9c-6.2,0-11.2-5-11.2-11.2c0-6.2,5-11.2,11.2-11.2s11.2,5,11.2,11.2
						C18.3-48.9,13.3-43.9,7.1-43.9z M7.1-72.3c-9.5,0-17.2,7.7-17.2,17.2c0,9.5,7.7,17.2,17.2,17.2c9.5,0,17.2-7.7,17.2-17.2
						C24.3-64.6,16.6-72.3,7.1-72.3z M7.1-38.5c-9.2,0-16.6-7.5-16.6-16.6c0-9.2,7.5-16.6,16.6-16.6c9.2,0,16.6,7.5,16.6,16.6
						C23.7-45.9,16.3-38.5,7.1-38.5z M7.1-93.9c-21.4,0-38.8,17.4-38.8,38.8c0,21.4,17.4,38.8,38.8,38.8c21.4,0,38.8-17.4,38.8-38.8
						C45.9-76.5,28.5-93.9,7.1-93.9z M7.1-16.8C-14-16.8-31.2-34-31.2-55.1c0-21.1,17.2-38.3,38.3-38.3c21.1,0,38.3,17.2,38.3,38.3
						C45.4-34,28.2-16.8,7.1-16.8z M7.1-115.6c-33.3,0-60.5,27.1-60.5,60.5c0,33.3,27.1,60.5,60.5,60.5c33.3,0,60.5-27.1,60.5-60.5
						C67.6-88.4,40.4-115.6,7.1-115.6z M7.1,4.8c-33,0-59.9-26.9-59.9-59.9c0-33,26.9-59.9,59.9-59.9c33,0,59.9,26.9,59.9,59.9
						C67-22,40.1,4.8,7.1,4.8z M7.1-110.2c-30.4,0-55.1,24.7-55.1,55.1C-48-24.7-23.3,0,7.1,0c30.4,0,55.1-24.7,55.1-55.1
						C62.1-85.5,37.4-110.2,7.1-110.2z M7.1-0.6C-23-0.6-47.4-25-47.4-55.1c0-30.1,24.5-54.5,54.5-54.5c30.1,0,54.5,24.5,54.5,54.5
						C61.6-25,37.1-0.6,7.1-0.6z M7.1-121c-36.3,0-65.9,29.6-65.9,65.9c0,36.3,29.6,65.9,65.9,65.9S73-18.8,73-55.1
						C73-91.4,43.4-121,7.1-121z M7.1,10.3c-36,0-65.3-29.3-65.3-65.3c0-36,29.3-65.3,65.3-65.3c36,0,65.3,29.3,65.3,65.3
						C72.4-19.1,43.1,10.3,7.1,10.3z M7.1-104.7c-27.4,0-49.7,22.3-49.7,49.7c0,27.4,22.3,49.7,49.7,49.7s49.7-22.3,49.7-49.7
						C56.7-82.5,34.5-104.7,7.1-104.7z M7.1-6C-20-6-42-28-42-55.1c0-27.1,22-49.1,49.1-49.1c27.1,0,49.1,22,49.1,49.1
						C56.2-28,34.2-6,7.1-6z M7.1-83.1c-15.4,0-28,12.6-28,28c0,15.4,12.6,28,28,28c15.4,0,28-12.6,28-28
						C35.1-70.5,22.5-83.1,7.1-83.1z M7.1-27.6c-15.1,0-27.5-12.3-27.5-27.5c0-15.1,12.3-27.5,27.5-27.5s27.5,12.3,27.5,27.5
						C34.5-39.9,22.2-27.6,7.1-27.6z M7.1-88.5c-18.4,0-33.4,15-33.4,33.4c0,18.4,15,33.4,33.4,33.4s33.4-15,33.4-33.4
						C40.5-73.5,25.5-88.5,7.1-88.5z M7.1-22.2C-11-22.2-25.8-37-25.8-55.1C-25.8-73.2-11-88,7.1-88C25.2-88,40-73.2,40-55.1
						C40-37,25.2-22.2,7.1-22.2z M7.1-99.3c-24.4,0-44.2,19.8-44.2,44.2c0,24.4,19.8,44.2,44.2,44.2c24.4,0,44.2-19.8,44.2-44.2
						C51.3-79.5,31.5-99.3,7.1-99.3z M7.1-11.4C-17-11.4-36.6-31-36.6-55.1c0-24.1,19.6-43.7,43.7-43.7s43.7,19.6,43.7,43.7
						C50.8-31,31.2-11.4,7.1-11.4z"/>
					<g class="st12">
						<g>
							<path class="st13" d="M260.5,539.2c-14.2-27.4-21.8-57.8-29.2-87.3c-3-12-6.1-24.5-9.7-36.5c-15.4-52.6-37.8-87.5-68.5-106.6
								c-38.5-24-86.6-21.9-136.5-17.3c-42.7,3.9-95.9,8.8-137.5-15.7c-17.2-10.1-32.2-26.6-46.7-42.4
								c-21.7-23.9-44.2-48.6-75.2-53.1l0.1-0.8c31.3,4.6,53.9,29.4,75.7,53.4c14.4,15.8,29.3,32.2,46.5,42.3
								c41.4,24.3,94.4,19.5,137,15.6c50.1-4.6,98.3-6.7,137.1,17.5c30.9,19.3,53.4,54.3,68.8,107.1c3.5,12.1,6.6,24.5,9.7,36.5
								c7.4,29.4,15,59.8,29.1,87.1L260.5,539.2z"/>
						</g>
						<g>
							<path class="st13" d="M264.7,532.5c-14.5-26.8-22.9-56.5-31.1-85.3c-3.5-12.2-7.1-24.9-11.1-37.1c-7.9-24-16.8-43.6-27.3-60
								c-12.4-19.3-27.2-34.3-44-44.5c-16.2-9.8-35.1-16-58-19c-25.3-3.3-51.7-2.1-78.8-0.6c-37.4,2.1-71,3.2-102.4-5.7
								c-12.3-3.4-23.6-8.4-33.6-14.6c-17.4-10.9-32.3-28-46.8-44.7c-20.8-23.9-42.3-48.5-71-54.3l0.2-0.8
								c29,5.9,50.6,30.6,71.4,54.6c14.4,16.6,29.3,33.7,46.6,44.5c9.9,6.2,21.2,11.1,33.3,14.5c31.3,8.9,64.8,7.8,102.1,5.7
								c27.2-1.6,53.6-2.7,79,0.6c23,3,42,9.2,58.3,19.1c17,10.3,31.9,25.4,44.3,44.8c10.6,16.5,19.5,36.2,27.4,60.2
								c4,12.3,7.6,24.9,11.1,37.2c8.2,28.7,16.6,58.4,31.1,85.1L264.7,532.5z"/>
						</g>
						<g>
							<path class="st13" d="M268.9,525.9c-14.8-26.2-24-55.2-32.9-83.1c-4-12.5-8.1-25.4-12.6-37.8c-8.6-23.6-18.2-42.9-29.1-58.9
								c-12.8-18.8-28-33.5-45.1-43.6c-16.3-9.6-35.3-15.9-58.3-19.2c-26.5-3.8-54.2-3.2-78.7-2.6c-35.6,0.8-70.1,0.7-101.5-9.3
								c-12-3.8-23.2-9.1-33-15.6c-17.5-11.6-32.5-29.7-47-47.1c-20.7-24.9-40.2-48.3-66.6-55.3l0.2-0.8c26.7,7,47.2,31.7,67,55.6
								c14.5,17.4,29.4,35.3,46.8,46.9c9.8,6.5,20.8,11.7,32.8,15.5c31.2,10,65.7,10.1,101.2,9.3c24.5-0.5,52.3-1.2,78.9,2.6
								c23.1,3.3,42.2,9.6,58.6,19.3c17.2,10.2,32.5,24.9,45.4,43.8c11,16.1,20.6,35.4,29.2,59.1c4.6,12.5,8.7,25.4,12.7,37.9
								c8.9,27.9,18.1,56.8,32.8,83L268.9,525.9z"/>
						</g>
						<g>
							<path class="st13" d="M273.1,519.2c-15-25.6-24.9-53.7-34.6-80.9c-4.5-12.8-9.2-26-14.3-38.7c-9.4-23.2-19.5-42.1-30.9-57.8
								c-13.3-18.3-28.8-32.6-46.2-42.6c-16.3-9.4-35.5-15.7-58.6-19.4c-25.4-4-51.5-4.3-76.8-4.7l-1.8,0
								c-33.5-0.4-68.9-1.8-100.5-13c-12.1-4.3-22.7-9.7-32.5-16.6c-17.8-12.5-32.8-31.5-47.4-49.8c-19.6-24.6-38-47.9-62.1-56
								l0.3-0.8c24.3,8.2,42.9,31.5,62.5,56.3c14.5,18.3,29.5,37.2,47.2,49.6c9.7,6.8,20.2,12.2,32.3,16.4
								c31.5,11.2,66.8,12.5,100.3,12.9l1.8,0c25.3,0.3,51.5,0.7,77,4.7c23.2,3.7,42.5,10,58.9,19.5c17.4,10,33.1,24.4,46.4,42.8
								c11.5,15.7,21.6,34.7,31,58c5.1,12.7,9.8,25.9,14.3,38.7c9.6,27.1,19.5,55.2,34.5,80.7L273.1,519.2z"/>
						</g>
						<g>
							<path class="st13" d="M277.4,512.6c-15.2-25-25.8-52.2-36.1-78.5c-5.1-13.1-10.4-26.7-16.2-39.7
								c-10.2-22.8-20.9-41.4-32.7-56.7c-13.7-17.8-29.6-31.8-47.2-41.6c-16.4-9.2-35.6-15.6-58.9-19.6c-24.1-4.2-48.9-5.3-72.9-6.5
								l-5.7-0.3c-33-1.6-67.9-4.1-99.6-16.6c-11.9-4.7-22.4-10.4-31.9-17.5c-18.1-13.4-33.2-33.5-47.8-52.9
								c-18.4-24.3-35.7-47.3-57.5-56.4l0.3-0.8c22,9.2,39.4,32.2,57.9,56.6c14.6,19.3,29.7,39.3,47.7,52.7
								c9.5,7,19.9,12.7,31.7,17.4c31.6,12.4,66.4,15,99.3,16.6l5.7,0.3c24,1.1,48.8,2.3,73,6.5c23.4,4,42.7,10.4,59.2,19.6
								c17.7,9.9,33.7,24,47.5,41.9c11.9,15.3,22.7,33.9,32.8,56.8c5.8,13,11.1,26.6,16.2,39.7c10.3,26.3,20.9,53.5,36,78.4
								L277.4,512.6z"/>
						</g>
						<g>
							<path class="st13" d="M281.6,505.9c-15.3-24.3-26.5-50.6-37.4-76c-5.8-13.5-11.7-27.4-18.2-40.8
								c-10.9-22.4-22.2-40.6-34.5-55.5c-14.2-17.3-30.4-30.9-48.3-40.7c-16.6-9.1-35.4-15.3-59.2-19.7c-22.7-4.2-46-6.1-68.5-8
								c-3.4-0.3-6.7-0.5-10-0.8c-31.1-2.6-66.9-6.5-98.7-20.3c-11.6-5-22.1-11.2-31.4-18.5c-18.5-14.5-33.7-35.8-48.5-56.3
								c-17.1-23.8-33.2-46.3-52.7-56.3l0.4-0.8c19.6,10.1,35.9,32.7,53,56.6c14.7,20.5,30,41.7,48.3,56.2
								c9.2,7.2,19.7,13.4,31.2,18.4c31.7,13.8,67.4,17.6,98.4,20.2c3.3,0.3,6.6,0.5,10,0.8c22.5,1.8,45.8,3.7,68.6,8
								c23.9,4.4,42.8,10.7,59.5,19.8c18,9.8,34.3,23.5,48.6,40.9c12.4,15,23.7,33.2,34.6,55.7c6.5,13.3,12.4,27.3,18.2,40.8
								c10.8,25.4,22.1,51.7,37.3,75.9L281.6,505.9z"/>
						</g>
						<g>
							<path class="st13" d="M285.8,499.3c-15.4-23.5-27.2-48.8-38.5-73.3c-6.5-13.9-13.2-28.3-20.4-42
								c-11.7-22-23.5-39.8-36.3-54.4c-14.6-16.7-31.2-30.1-49.4-39.7c-16.6-8.8-35.5-15.1-59.5-19.9c-21.1-4.3-42.8-6.7-63.7-9.1
								c-5-0.6-9.9-1.1-14.8-1.7c-32.8-3.9-67.3-9.5-97.7-23.9c-11.4-5.4-21.7-11.9-30.8-19.5c-19-15.7-34.4-38.4-49.4-60.4
								c-15.7-23.1-30.6-44.9-47.7-55.7l0.5-0.7c17.3,10.9,32.2,32.7,48,55.9c14.9,21.9,30.3,44.5,49.2,60.2
								c9,7.5,19.4,14,30.7,19.3c30.3,14.4,64.8,20,97.5,23.8c4.9,0.6,9.8,1.1,14.8,1.7c20.9,2.4,42.6,4.9,63.7,9.1
								c24.1,4.8,43,11.2,59.8,20c18.3,9.7,35,23.1,49.6,39.9c12.8,14.6,24.8,32.5,36.4,54.6c7.2,13.7,13.9,28.1,20.4,42.1
								c11.4,24.5,23.1,49.8,38.5,73.2L285.8,499.3z"/>
						</g>
						<g>
							<path class="st13" d="M290,492.6c-15.4-22.7-27.6-47-39.4-70.5c-7.3-14.4-14.7-29.3-22.8-43.4
								c-12.4-21.6-24.9-39.1-38.1-53.3c-15-16.2-32-29.2-50.5-38.7c-16.6-8.6-35.6-14.9-59.8-20.1c-19.4-4.2-39.2-7.1-58.3-9.9
								c-6.6-1-13.5-2-20.1-3c-32.2-5-66.2-11.8-96.8-27.6c-11.2-5.8-21.4-12.6-30.3-20.4c-19.6-17.2-35.3-41.6-50.5-65.2
								c-14.2-22.1-27.7-43-42.5-54.3l0.5-0.7c14.9,11.4,28.4,32.4,42.7,54.6c15.1,23.5,30.8,47.9,50.3,65
								c8.9,7.7,19,14.6,30.1,20.3c30.4,15.8,64.4,22.5,96.5,27.5c6.6,1,13.4,2,20,3c19.1,2.8,38.9,5.7,58.3,9.9
								c24.3,5.2,43.4,11.6,60,20.2c18.6,9.6,35.6,22.7,50.7,38.9c13.3,14.3,25.8,31.7,38.2,53.4c8.1,14.1,15.6,29.1,22.8,43.5
								c11.8,23.5,24,47.8,39.4,70.4L290,492.6z"/>
						</g>
						<g>
							<path class="st13" d="M294.3,486c-15.3-21.8-27.9-45-40.1-67.5c-8.1-15-16.5-30.4-25.5-45c-13.1-21.2-26.2-38.3-39.9-52.2
								c-15.4-15.6-32.7-28.3-51.5-37.8c-16.5-8.3-35.7-14.7-60.1-20.3c-17.4-4-35.1-7.1-52.2-10.2c-8.6-1.5-17.5-3.1-26-4.7
								c-30.1-5.7-65.1-13.9-95.8-31.2c-11-6.2-21-13.4-29.7-21.4c-20.5-18.9-37.2-46.5-51.9-70.9c-12.6-20.8-24.5-40.4-36.9-52
								l0.6-0.6c12.5,11.7,24.4,31.4,37,52.2c14.7,24.3,31.4,51.9,51.8,70.7c8.7,8,18.7,15.1,29.6,21.3
								C-66,233.6-31.1,241.7-1,247.5c8.5,1.6,17.4,3.2,26,4.7c17.1,3,34.9,6.2,52.3,10.2c24.6,5.6,43.7,12.1,60.3,20.4
								c18.9,9.5,36.3,22.2,51.8,37.9c13.8,13.9,26.9,31,40,52.3c9,14.6,17.4,30.1,25.5,45.1c12.2,22.4,24.8,45.7,40,67.4L294.3,486
								z"/>
						</g>
						<g>
							<path class="st13" d="M298.5,479.3c-15.1-20.8-28-42.9-40.4-64.3c-9.1-15.6-18.5-31.7-28.5-46.8
								c-13.9-20.8-27.5-37.5-41.7-51c-15.7-15.1-33.4-27.5-52.6-36.8c-16.6-8.1-35.3-14.4-60.5-20.5c-15.1-3.7-30.5-6.9-45.3-9.9
								c-10.9-2.3-22.1-4.6-32.9-7c-53-12-78.6-25-94.9-34.9c-10.8-6.5-20.6-14.1-29.2-22.4c-21.6-21-38.7-51.3-53.8-78
								c-10.7-19-20.8-36.9-30.9-48.3l0.6-0.6c10.1,11.6,20.2,29.5,31,48.5c15.1,26.7,32.1,56.9,53.7,77.8
								c8.6,8.3,18.3,15.7,29.1,22.2c16.3,9.9,41.7,22.7,94.6,34.8c10.7,2.4,22,4.8,32.8,7c14.9,3.1,30.2,6.3,45.4,9.9
								c25.2,6.1,43.9,12.5,60.6,20.6c19.3,9.4,37,21.8,52.8,36.9c14.3,13.6,28,30.3,41.8,51.2c10,15.2,19.4,31.3,28.5,46.9
								c12.4,21.3,25.3,43.4,40.4,64.2L298.5,479.3z"/>
						</g>
						<g>
							<path class="st13" d="M302.7,472.7c-14.9-19.8-27.9-40.7-40.5-60.9c-10.1-16.3-20.6-33.1-31.8-48.8
								c-14.6-20.4-28.8-36.7-43.5-49.9c-16.1-14.5-34.1-26.6-53.7-35.8c-21.1-9.9-43.5-16.3-60.8-20.7c-12.5-3.2-25.1-6.2-37.3-9
								c-13.5-3.2-27.5-6.5-40.8-10c-27.4-7.2-62.8-18.1-94-38.5c-10.6-6.9-20.2-14.7-28.7-23.3c-23.2-23.7-40.8-57.4-56.3-87.2
								c-8.5-16.4-16.6-31.8-24.2-42.6l0.7-0.5c7.7,10.9,15.7,26.3,24.3,42.7c15.5,29.7,33,63.4,56.2,87c8.4,8.5,18,16.3,28.5,23.2
								c31.1,20.3,66.4,31.2,93.7,38.4c13.2,3.5,26.6,6.6,40.8,10c12.2,2.9,24.9,5.8,37.3,9c17.3,4.4,39.8,10.8,60.9,20.8
								c19.6,9.3,37.8,21.4,53.9,36c14.8,13.3,29,29.6,43.6,50.1c11.2,15.7,21.7,32.6,31.8,48.9c12.6,20.2,25.6,41.1,40.4,60.8
								L302.7,472.7z"/>
						</g>
						<g>
							<path class="st13" d="M306.9,466c-14.5-18.7-27.5-38.3-40.1-57.2c-11.3-17.1-23-34.7-35.5-51.1
								c-15.3-19.9-30.1-35.9-45.3-48.8c-16.4-14-34.8-25.7-54.8-34.9c-20.5-9.4-42.4-15.8-61.1-20.9c-9.3-2.5-18.8-5-27.9-7.4
								c-16.7-4.3-33.9-8.8-50.1-13.7c-39.4-11.8-68.9-25.2-93-42.1c-10.3-7.3-19.8-15.4-28.1-24.3c-25.5-27.4-44.4-67.4-59.6-99.5
								c-6-12.6-11.6-24.6-16.8-33.7l0.7-0.4c5.2,9.2,10.8,21.1,16.8,33.8c15.2,32.1,34.1,72,59.5,99.3c8.3,8.8,17.7,16.9,28,24.2
								c24,16.9,53.5,30.2,92.8,42c16.2,4.9,33.4,9.4,50.1,13.7c9.2,2.4,18.6,4.8,28,7.4c18.7,5.1,40.6,11.5,61.2,20.9
								c20,9.2,38.5,21,55,35c15.3,12.9,30.1,28.9,45.4,48.9c12.5,16.4,24.2,34.1,35.5,51.1c12.6,18.9,25.6,38.5,40,57.2L306.9,466z
								"/>
						</g>
						<g>
							<path class="st13" d="M311.2,459.4c-14-17.4-26.9-35.7-39.3-53.3c-12.6-17.9-25.7-36.5-39.6-53.6
								c-16-19.5-31.4-35.1-47.1-47.7c-16.6-13.4-35.4-24.8-55.9-33.9c-18.8-8.4-38.1-14.5-61.4-21.1c-5.6-1.6-11.1-3.2-16.7-4.7
								c-20.4-5.8-41.6-11.7-61.3-18.4c-38.7-13.1-67.9-27.6-92.1-45.8c-10.1-7.6-19.4-16.1-27.6-25.3
								c-29.3-33-49.5-81.9-64.3-117.7c-2.8-6.9-5.5-13.4-8-19.1l0.8-0.3c2.5,5.7,5.2,12.2,8,19.1c14.7,35.7,34.9,84.5,64.1,117.4
								c8.1,9.1,17.3,17.5,27.4,25.1c24.1,18.1,53.2,32.6,91.8,45.7c19.7,6.7,40.8,12.6,61.2,18.4c5.6,1.6,11.1,3.1,16.7,4.7
								c23.3,6.6,42.7,12.7,61.5,21.1c20.5,9.1,39.3,20.6,56,34c15.8,12.6,31.3,28.3,47.3,47.8c13.9,17.1,27,35.7,39.7,53.6
								c12.4,17.6,25.3,35.8,39.2,53.3L311.2,459.4z"/>
						</g>
						<g>
							<path class="st13" d="M315.4,452.8c-13.4-16.1-25.9-32.9-38-49.1c-14.1-18.9-28.7-38.5-44.3-56.4
								c-16.6-19.1-32.6-34.3-48.9-46.6c-16.9-12.8-36-23.9-56.9-32.9c-19.9-8.6-40.5-15-61.7-21.3l-2.8-0.8
								c-25.1-7.5-51.1-15.3-75-24.3c-38-14.3-67-30-91.1-49.4c-9.9-8-19-16.8-27-26.2c-33-39.1-54.7-98.7-68.1-140.2l0.8-0.3
								c13.4,41.4,35,100.8,67.9,139.9c8,9.4,17,18.2,26.9,26.1c24.1,19.4,53,35.1,90.9,49.3c24,9,49.9,16.8,75,24.3l2.8,0.8
								c21.2,6.3,41.9,12.7,61.8,21.3c21,9.1,40.2,20.2,57.1,33c16.3,12.3,32.4,27.6,49.1,46.7c15.6,17.9,30.2,37.5,44.3,56.4
								c12.1,16.2,24.6,33,37.9,49.1L315.4,452.8z"/>
						</g>
						<g>
							<path class="st13" d="M319.6,446.1c-12.5-14.7-24.5-29.9-36.1-44.6c-16.5-21-32.1-40.7-49.5-59.5
								c-17.3-18.6-33.9-33.5-50.7-45.4c-17.3-12.4-36.3-22.8-58-31.9c-19.8-8.3-40.6-14.8-60.8-21.1l-1.2-0.4
								c-24-7.5-51.9-16.5-77.8-27.2c-36.8-15.2-66.3-32.6-90.2-53.1c-9.7-8.3-18.6-17.5-26.5-27.2c-32.3-40.2-54.2-100.5-64-143.6
								l0.8-0.2c9.7,43,31.6,103.2,63.8,143.2c7.8,9.7,16.7,18.8,26.4,27.1c23.8,20.4,53.2,37.7,90,52.9
								c25.9,10.7,53.7,19.7,77.7,27.2l1.2,0.4c20.2,6.3,41,12.8,60.9,21.1c21.8,9.1,40.9,19.6,58.2,32c16.9,12,33.5,26.9,50.9,45.6
								c17.4,18.8,33.7,39.5,49.5,59.6c11.6,14.7,23.6,29.9,36.1,44.5L319.6,446.1z"/>
						</g>
						<g>
							<path class="st13" d="M323.9,439.5c-11.5-13.1-22.8-26.6-33.6-39.7c-18.5-22.3-35.9-43.3-55.3-63
								c-18-18.2-35.1-32.7-52.5-44.3c-17.4-11.7-36.7-21.9-59.1-31c-17.7-7.2-36.2-13.2-54.1-19c-2.7-0.9-5.5-1.8-8.2-2.7
								c-32.5-10.6-56.5-19.7-77.7-29.3c-36.2-16.4-65.4-34.9-89.3-56.7c-9.5-8.7-18.2-18.1-25.9-28.2
								c-33.1-43.1-54.2-106.5-59.8-147l0.8-0.1c5.6,40.5,26.6,103.6,59.6,146.6c7.7,10,16.4,19.4,25.8,28
								c23.8,21.8,52.9,40.3,89,56.6c21.2,9.6,45.1,18.6,77.6,29.2c2.7,0.9,5.5,1.8,8.2,2.7c17.9,5.8,36.4,11.8,54.2,19
								c22.4,9.1,41.8,19.3,59.2,31.1c17.4,11.7,34.7,26.2,52.7,44.4c19.4,19.7,37.7,41.8,55.4,63c10.8,13.1,22,26.6,33.6,39.7
								L323.9,439.5z"/>
						</g>
						<g>
							<path class="st13" d="M328.1,432.8c-10.3-11.4-20.5-23.1-30.4-34.4c-19.7-22.7-40.1-46.1-61.9-66.9
								c-18.6-17.7-36.4-31.8-54.3-43.2c-17.4-11.1-37.1-20.9-60.2-30c-15.5-6.1-31.7-11.5-47.2-16.7c-5.1-1.7-10.3-3.4-15.4-5.2
								C27.9,226,3.2,216.1-18.9,205.2c-35.6-17.5-64.5-37.2-88.3-60.4c-9.3-9-17.8-18.8-25.4-29.1C-167.5,68-185.9,4.3-188.3-34.8
								l0.9-0.1c2.3,38.9,20.7,102.4,55.5,150c7.6,10.3,16.1,20,25.3,29c23.7,23.1,52.6,42.8,88.1,60.2
								c22.1,10.8,46.7,20.8,77.5,31.3c5.1,1.7,10.3,3.4,15.4,5.2c15.6,5.2,31.7,10.6,47.3,16.7c23.1,9.1,42.8,18.9,60.3,30.1
								c18,11.4,35.8,25.6,54.5,43.3c21.8,20.8,42.2,44.3,61.9,67c9.8,11.3,20,23,30.3,34.3L328.1,432.8z"/>
						</g>
						<g>
							<path class="st13" d="M332.3,426.2c-8.9-9.5-17.7-19.2-26.3-28.6c-22.1-24.3-44.9-49.3-69.3-71.3
								c-19.2-17.2-37.6-31-56.1-42.1c-17.4-10.4-37.4-19.9-61.2-29c-13.2-5.1-26.9-9.7-40.1-14.2c-7.5-2.5-15.3-5.2-22.8-7.9
								c-29.6-10.5-54.9-21.4-77.6-33.4c-34.6-18.3-64-39.8-87.4-64c-9-9.3-17.4-19.5-24.8-30.1c-30.8-44.2-52-107.5-51.5-153.9
								l0.9,0c-0.5,46.3,20.6,109.4,51.3,153.4c7.4,10.6,15.8,20.7,24.8,30c23.4,24.1,52.7,45.6,87.2,63.8
								c22.6,12,47.9,22.8,77.4,33.3c7.6,2.7,15.3,5.3,22.8,7.9c13.2,4.5,26.9,9.1,40.1,14.2c23.9,9.1,44,18.6,61.4,29.1
								c18.6,11.1,37,24.9,56.3,42.2c24.4,22,47.3,47.1,69.4,71.3c8.5,9.4,17.4,19.1,26.3,28.6L332.3,426.2z"/>
						</g>
						<g>
							<path class="st13" d="M336.5,419.5c-7.1-7.4-14.3-14.9-21.2-22.2c-24.7-26-50.3-53-77.7-76.2c-19.8-16.8-38.8-30.2-57.9-41
								c-17.5-9.9-37.3-18.8-62.3-28.1c-10.8-4-21.9-7.8-32.7-11.5c-10.1-3.4-20.4-7-30.6-10.7c-28.5-10.5-54.6-22.4-77.5-35.4
								c-34-19.3-63.1-42.1-86.4-67.6c-8.8-9.6-17-20.1-24.3-31.1c-31.8-47.8-50.8-111-47.3-157.4l0.9,0.1
								c-3.5,46.2,15.5,109.2,47.2,156.8c7.3,10.9,15.4,21.3,24.2,30.9c23.3,25.5,52.3,48.2,86.2,67.5c22.8,13,48.9,24.9,77.3,35.3
								c10.1,3.7,20.5,7.3,30.6,10.7c10.7,3.7,21.9,7.5,32.7,11.5c25.1,9.3,44.9,18.2,62.4,28.1c19.2,10.8,38.2,24.2,58.1,41.1
								c27.5,23.3,53,50.2,77.8,76.3c6.9,7.3,14.1,14.8,21.2,22.2L336.5,419.5z"/>
						</g>
						<g>
							<path class="st13" d="M340.8,412.9c-5-5-10-10.1-15-15.2c-27.7-28.1-56.4-57.2-87.2-81.9c-20.4-16.3-40-29.4-59.7-39.8
								c-22.3-11.8-45.6-20.7-63.4-27.1c-8.3-3-16.8-5.9-24.9-8.7c-12.7-4.4-25.9-8.9-38.6-13.7c-28-10.7-54.1-23.3-77.4-37.5
								c-33.7-20.5-62.5-44.4-85.5-71.3c-8.5-9.8-16.5-20.6-23.7-32c-15.4-24.3-27.7-51.8-35.5-79.6c-8.2-29.3-10.9-57.4-7.7-81.2
								l0.8,0.1c-3.2,23.7-0.5,51.7,7.7,80.9c7.7,27.7,20,55.1,35.4,79.3c7.2,11.4,15.2,22.1,23.7,31.9c23,26.8,51.7,50.7,85.3,71.1
								c23.3,14.1,49.3,26.7,77.3,37.4c12.7,4.8,25.9,9.4,38.6,13.7c8.2,2.8,16.7,5.7,25,8.7c17.8,6.4,41.2,15.3,63.5,27.1
								c19.8,10.5,39.4,23.6,59.9,39.9c30.9,24.7,59.6,53.8,87.3,81.9c5,5.1,10,10.1,15,15.2L340.8,412.9z"/>
						</g>
						<g>
							<path class="st13" d="M345,406.2l-7.5-7.3c-31.1-30.5-63.3-62-98.1-88.3c-21-15.9-41.2-28.5-61.5-38.7
								c-21.5-10.7-43.7-18.9-64.5-26.1c-5.6-1.9-11.2-3.9-16.9-5.8c-15.5-5.3-31.5-10.7-47-16.8C21.9,212.2-4.1,199-27.8,183.7
								c-33.2-21.4-61.6-46.7-84.6-74.9c-8.3-10.2-16.1-21.3-23.2-33c-15.4-25.4-27.3-53.4-34.3-80.9c-7.7-30-9.3-58.8-4.7-83.3
								l0.8,0.2c-4.6,24.4-2.9,53.1,4.7,83c7,27.4,18.8,55.3,34.2,80.7c7.1,11.7,14.9,22.7,23.1,32.9c22.9,28.2,51.3,53.4,84.4,74.8
								c23.6,15.3,49.6,28.5,77.2,39.4c15.4,6.1,31.5,11.5,47,16.8c5.6,1.9,11.3,3.8,16.9,5.8c20.8,7.2,43.1,15.4,64.6,26.2
								c20.4,10.2,40.6,22.9,61.7,38.8c34.9,26.4,67.1,57.9,98.2,88.4l7.5,7.3L345,406.2z"/>
						</g>
						<g>
							<path class="st13" d="M349.2,399.6c-52-49.5-105.9-100.6-172.2-131.8c-23.9-11.2-49.4-19.7-74-28
								c-18.4-6.2-37.5-12.5-55.8-20c-65.3-26.6-120.9-68.2-160.9-120.1c-21.6-28.1-39.4-62-50-95.3c-12.2-38.3-14.8-75.1-7.4-106.3
								l0.8,0.2c-10.5,44.6-1.8,123.9,57.3,200.9C-73.1,151-17.6,192.4,47.6,219c18.3,7.4,37.3,13.8,55.7,20
								c24.7,8.2,50.2,16.8,74.1,28c66.5,31.2,120.4,82.4,172.5,132L349.2,399.6z"/>
						</g>
					</g>
					<g class="st12">
						<g>
							<path class="st13" d="M718.4,254.9c-14.2-27.4-21.8-57.8-29.2-87.3c-3-12-6.1-24.5-9.7-36.5c-15.4-52.6-37.8-87.5-68.5-106.6
								c-38-23.7-76.4-20-117.1-16c-20.9,2.1-42.6,4.2-64.1,2.2c-30-2.8-60-11.7-89.1-26.4c-27.4-13.9-52.8-32.3-75.5-54.6
								c-27.1-26.8-50.8-58.9-72.3-97.9c-17.4-31.6-33.6-68.4-49.5-112.4l0.8-0.3c15.9,44,32,80.7,49.4,112.3
								c21.5,39,45.1,71,72.1,97.7c22.6,22.3,47.9,40.7,75.2,54.5C370.1-1.8,400,7,430,9.8c21.4,2,43-0.1,63.9-2.2
								c40.8-4,79.4-7.8,117.6,16.1C642.4,43,665,78,680.4,130.8c3.5,12.1,6.7,24.5,9.7,36.5c7.4,29.4,15,59.8,29.1,87.1
								L718.4,254.9z"/>
						</g>
						<g>
							<path class="st13" d="M721,240.4c-14.8-26.1-23.4-55.1-31.8-83.1c-3.4-11.4-6.9-23.3-10.8-34.7
								c-7.4-21.8-15.6-39.8-25.2-55.2c-12.7-20.4-28-36.1-45.5-46.6C570.2-1.8,532.4,1,492.5,4.1c-2,0.1-3.9,0.3-5.9,0.4
								c-19.7,1.5-39.1,2.6-58.8,0.3c-12.8-1.5-25.7-4.2-38.4-8C365.8-10.3,342.5-21.3,320-36c-19-12.4-36.8-27-52.8-43.3
								c-47.9-48.6-84.9-114.2-116.7-206.5l0.8-0.3c31.7,92.1,68.7,157.7,116.5,206.2c16,16.3,33.7,30.8,52.7,43.1
								c22.4,14.6,45.7,25.6,69.2,32.7c12.6,3.8,25.5,6.5,38.3,8c19.6,2.3,38.9,1.2,58.6-0.3c2-0.1,3.9-0.3,5.9-0.4
								c38.3-2.9,78-5.9,115.7,16.8c17.6,10.6,33,26.4,45.8,46.9c9.6,15.4,17.9,33.5,25.3,55.3c3.9,11.5,7.4,23.3,10.8,34.8
								c8.3,28,16.9,56.9,31.7,82.9L721,240.4z"/>
						</g>
						<g>
							<path class="st13" d="M723.6,225.9c-15.5-24.8-25.1-52.3-34.3-78.9c-3.8-10.8-7.7-22.1-12-32.9
								c-8.1-20.8-16.9-37.9-26.8-52.4c-13.2-19.5-28.8-34.5-46.3-44.6c-37-21.4-75.7-19.4-113.2-17.3c-2.4,0.1-4.9,0.3-7.3,0.4
								c-18.6,1-38.4,1.7-58.1-1.2c-12.7-1.8-25.3-4.8-37.7-8.9c-22.7-7.5-45.4-19-67.5-34.3c-18.7-12.9-36-27.6-51.6-43.9
								c-46.4-48.5-82.9-114.7-111.7-202.7l0.8-0.3c28.7,87.8,65.2,154,111.5,202.4C285-72.5,302.3-57.8,321-44.9
								c22.1,15.2,44.7,26.7,67.3,34.2c12.3,4.1,25,7,37.6,8.9c19.6,2.8,39.4,2.1,57.9,1.2c2.4-0.1,4.9-0.3,7.3-0.4
								c37.6-2,76.5-4.1,113.7,17.5c17.6,10.2,33.3,25.2,46.5,44.8c9.9,14.6,18.7,31.8,26.8,52.6c4.3,10.9,8.2,22.1,12,33
								c9.3,26.6,18.9,54,34.3,78.8L723.6,225.9z"/>
						</g>
						<g>
							<path class="st13" d="M726.2,211.4c-16.1-23.5-26.7-49.6-36.9-74.8c-4.2-10.3-8.5-20.9-13.1-31.1
								c-8.9-19.7-18.2-36-28.3-49.7c-13.6-18.4-29.4-32.7-47-42.5C564.4-6.9,526.3-5.7,489.6-4.6c-2.8,0.1-5.7,0.2-8.5,0.3
								c-17.5,0.5-37.7,0.7-57.4-2.6c-12.5-2.1-25-5.4-37-9.8c-22-8-43.5-19.7-65.6-35.8c-18.4-13.3-35.3-28.3-50.4-44.5
								c-45.5-48.9-80.4-114-106.7-198.9l0.8-0.3c26.2,84.8,61,149.7,106.5,198.5c15,16.1,31.9,31,50.2,44.3
								c22,16,43.4,27.7,65.4,35.7c12,4.3,24.4,7.6,36.9,9.7c19.6,3.3,39.8,3.1,57.2,2.6c2.8-0.1,5.7-0.2,8.5-0.3
								c36.9-1.1,75.1-2.3,111.8,18c17.7,9.8,33.6,24.2,47.3,42.7c10.2,13.7,19.5,30,28.4,49.8c4.6,10.3,8.9,20.9,13.1,31.2
								c10.2,25.1,20.8,51.1,36.8,74.6L726.2,211.4z"/>
						</g>
						<g>
							<path class="st13" d="M728.8,196.9c-16.8-22.3-28.3-46.8-39.5-70.6c-4.5-9.7-9.2-19.7-14.2-29.3
								c-9.7-18.7-19.4-34.1-29.9-46.9c-14-17.4-30.1-31-47.7-40.4C561.6-9.4,524.4-9.1,488.4-8.8c-3.4,0-6.7,0.1-10.1,0.1
								c-21.2,0.1-39-0.6-56.7-4.1c-12.3-2.4-24.6-6-36.3-10.7c-21.1-8.4-41.9-20.6-63.7-37.3c-18.1-13.9-34.7-29-49.1-45.1
								c-44-48.7-78.2-114.3-101.6-195l0.8-0.2c23.4,80.6,57.6,146.1,101.4,194.7c14.4,16,30.9,31.1,49,44.9
								c21.7,16.7,42.4,28.8,63.4,37.2c11.7,4.6,23.9,8.2,36.2,10.6c17.6,3.5,35.3,4.1,56.5,4c3.4,0,6.7,0,10.1-0.1
								c36.1-0.3,73.4-0.6,109.5,18.6c17.7,9.4,33.9,23.1,48,40.6c10.5,12.9,20.3,28.3,30,47.1c5,9.7,9.7,19.7,14.2,29.4
								c11.2,23.7,22.7,48.2,39.4,70.4L728.8,196.9z"/>
						</g>
						<g>
							<path class="st13" d="M731.4,182.5c-17.4-21-29.9-44.1-42.1-66.4c-4.9-9.1-10-18.4-15.4-27.6c-10.4-17.7-20.7-32.1-31.4-44.2
								C628,27.9,611.7,15,594.1,6c-35.2-17.9-71.5-18.4-106.6-18.9c-4-0.1-8-0.1-11.9-0.2c-18-0.4-37.3-1.3-56-5.5
								c-12.2-2.8-24.2-6.6-35.6-11.6c-20.4-8.8-40-21.2-61.7-38.8c-17.9-14.5-34-29.8-47.9-45.7c-43-49.1-75.5-113.4-96.6-191.2
								l0.8-0.2c21.1,77.6,53.5,141.8,96.4,190.8c13.8,15.8,29.9,31.1,47.8,45.6c21.7,17.6,41.2,29.9,61.5,38.7
								c11.4,4.9,23.4,8.8,35.5,11.5c18.6,4.2,37.9,5.1,55.8,5.5c4,0.1,8,0.1,11.9,0.2c35.2,0.5,71.6,1.1,107,19
								c17.8,9,34.1,22,48.7,38.5c10.7,12.1,21.1,26.6,31.5,44.3c5.4,9.1,10.5,18.5,15.4,27.6c12.1,22.3,24.6,45.3,42,66.3
								L731.4,182.5z"/>
						</g>
						<g>
							<path class="st13" d="M733.9,168c-18.1-19.7-31.6-41.3-44.6-62.2c-5.3-8.5-10.8-17.2-16.5-25.8c-11.1-16.5-21.9-30-33-41.5
								C624.6,22.8,608.5,11,590.7,2.3C556.3-14.3,521-15.7,486.8-17c-4.7-0.2-9.3-0.4-14-0.6c-17.7-0.8-36.6-2.2-55.3-6.9
								c-12-3.1-23.8-7.3-35-12.5c-19.6-9.2-38.1-21.7-59.8-40.3c-17.8-15.2-33.5-30.7-46.6-46.3c-41.4-48.8-73.1-113.6-91.6-187.4
								l0.8-0.2c18.5,73.7,50.1,138.3,91.4,187c13.1,15.5,28.8,31,46.5,46.2c21.7,18.6,40.1,31,59.6,40.2
								c11.1,5.2,22.8,9.4,34.8,12.4c18.6,4.7,37.5,6.1,55.2,6.9c4.7,0.2,9.3,0.4,14,0.6c34.3,1.3,69.7,2.6,104.2,19.4
								c17.9,8.7,34.1,20.6,49.4,36.4c11.1,11.5,21.9,25.1,33.1,41.6c5.7,8.5,11.2,17.3,16.5,25.8c13.1,20.9,26.5,42.4,44.5,62.1
								L733.9,168z"/>
						</g>
						<g>
							<path class="st13" d="M736.5,153.5c-18.7-18.5-33.2-38.6-47.2-58.1c-5.7-7.9-11.5-16-17.6-23.9c-12-15.6-23-27.9-34.5-38.7
								c-15.7-14.7-32-25.9-49.9-34.1c-33.5-15.5-67.7-17.5-100.9-19.5c-5.4-0.3-10.9-0.7-16.4-1.1c-16.5-1.2-35.9-3.1-54.6-8.4
								c-12-3.4-23.5-7.9-34.3-13.4c-23.5-11.9-42.4-27.8-57.9-41.8c-17.9-16.2-32.8-31.5-45.4-46.8
								c-40.3-49.1-70.3-112.6-86.5-183.5l0.8-0.2c16.3,70.8,46.1,134.2,86.4,183.2c12.6,15.3,27.4,30.6,45.3,46.8
								c15.4,13.9,34.3,29.8,57.7,41.7c10.7,5.4,22.2,9.9,34.1,13.3c18.6,5.3,38,7.2,54.5,8.4c5.4,0.4,11,0.7,16.4,1.1
								c33.2,2,67.6,4.1,101.2,19.6c17.9,8.3,34.3,19.5,50.1,34.3C649.3,43,660.3,55.3,672.4,71c6.1,7.9,11.9,16.1,17.6,24
								c14,19.4,28.5,39.5,47.1,57.9L736.5,153.5z"/>
						</g>
						<g>
							<path class="st13" d="M739.1,139c-19.4-17.2-34.9-35.8-49.8-53.9c-6-7.3-12.3-14.8-18.7-22.1c-12.8-14.6-24.3-26-36.1-36
								c-16.2-13.7-32.8-24.2-50.6-32c-32.4-14.2-65.5-17-97.5-19.6c-6.3-0.5-12.7-1.1-19.1-1.7c-16.2-1.6-35.3-4-54-9.8
								c-11.8-3.7-23.1-8.5-33.6-14.3c-22.1-12.1-39.9-28-55.9-43.3c-18-17.1-32.4-32.6-44.1-47.4c-39.2-49.4-67.4-111.5-81.5-179.7
								l0.8-0.2c14.1,68,42.2,130,81.4,179.3c11.7,14.8,26.1,30.3,44.1,47.4c16,15.3,33.7,31.1,55.7,43.2
								c10.4,5.7,21.6,10.5,33.4,14.2c18.6,5.9,37.6,8.2,53.8,9.8c6.3,0.6,12.8,1.2,19.1,1.7c32.1,2.7,65.2,5.4,97.8,19.7
								c17.9,7.9,34.6,18.4,50.8,32.2c11.8,10,23.3,21.5,36.2,36.1c6.4,7.3,12.7,14.9,18.7,22.2c15,18,30.4,36.7,49.7,53.8
								L739.1,139z"/>
						</g>
						<g>
							<path class="st13" d="M741.7,124.5c-20-15.9-36.5-33.1-52.5-49.7c-6.4-6.7-13-13.6-19.8-20.3c-13.7-13.5-25.6-24.1-37.7-33.2
								C615.1,8.5,598.3-1.3,580.5-8.7c-31.2-13-63-16.3-93.7-19.6c-7.3-0.8-14.8-1.6-22.2-2.5c-15-1.8-34.5-4.8-53.3-11.3
								c-11.7-4.1-22.8-9.2-32.9-15.2c-19.6-11.6-35.7-26.3-54-44.8c-12.5-12.6-28.7-29.5-42.9-48C244-199,216.8-261.4,205-325.9
								l0.8-0.2c11.8,64.3,38.9,126.7,76.3,175.5c14.2,18.5,30.3,35.4,42.8,48c18.2,18.5,34.3,33.2,53.8,44.7
								c10.1,6,21.1,11,32.7,15.1c18.7,6.5,38.2,9.4,53.1,11.2c7.4,0.9,14.9,1.7,22.2,2.5c30.8,3.3,62.6,6.6,94,19.6
								c17.9,7.5,34.8,17.3,51.5,30c12.1,9.2,24.1,19.8,37.7,33.3c6.8,6.7,13.4,13.7,19.8,20.3c15.9,16.6,32.4,33.8,52.4,49.7
								L741.7,124.5z"/>
						</g>
						<g>
							<path class="st13" d="M744.3,110.1c-20.7-14.7-38.2-30.4-55.1-45.6c-6.8-6.1-13.7-12.4-20.9-18.5
								c-14.5-12.4-27-22.1-39.2-30.5C612,3.7,594.9-5.4,577.1-12.4c-29.9-11.7-60.1-15.6-89.4-19.3c-8.5-1.1-17.3-2.2-25.9-3.5
								c-21.8-3.3-38-7.2-52.6-12.7c-11.5-4.4-22.4-9.8-32.2-16c-20.3-12.9-36.2-29.3-52.1-46.3c-16.3-17.5-29.7-32.4-41.7-48.6
								c-36.3-49.1-61.7-110.2-71.5-172l0.8-0.1c9.8,61.7,35.1,122.6,71.3,171.6c11.9,16.2,25.3,31.1,41.6,48.6
								c15.8,17,31.6,33.3,51.9,46.2c9.8,6.2,20.6,11.6,32,16c14.5,5.5,30.7,9.4,52.4,12.7c8.6,1.3,17.4,2.4,25.9,3.5
								c29.3,3.7,59.7,7.6,89.6,19.3c17.9,7,35,16.2,52.2,27.9c12.3,8.4,24.8,18.1,39.3,30.6c7.1,6.1,14.1,12.4,20.9,18.5
								c16.9,15.2,34.4,30.9,55,45.5L744.3,110.1z"/>
						</g>
						<g>
							<path class="st13" d="M746.9,95.6c-21.4-13.4-39.9-27.7-57.8-41.5c-7.1-5.5-14.4-11.1-21.9-16.7
								c-15.6-11.5-28.2-20.1-40.8-27.8C608.8-1,591.5-9.5,573.7-16.1c-28.3-10.4-56.8-14.7-84.5-18.7c-9.9-1.5-20.2-3-30.2-4.8
								c-21.4-3.8-37.4-8.2-51.9-14.2c-11.4-4.7-22-10.4-31.5-16.9c-19-13-33.3-28.7-50.1-47.8c-13.1-14.8-27.9-31.6-40.4-49.2
								c-35-49.2-58.6-109-66.4-168.2l0.8-0.1c7.8,59.1,31.4,118.7,66.3,167.8c12.5,17.6,27.3,34.4,40.4,49.2
								c16.8,19.1,31.1,34.8,50,47.7c9.5,6.5,20,12.2,31.3,16.9c14.5,6,30.4,10.3,51.7,14.1c10,1.8,20.2,3.3,30.1,4.8
								c27.7,4.1,56.3,8.3,84.6,18.8c17.9,6.6,35.3,15.1,52.9,25.8c12.6,7.7,25.2,16.3,40.8,27.8c7.4,5.5,14.8,11.2,21.9,16.7
								c17.9,13.8,36.4,28,57.7,41.4L746.9,95.6z"/>
						</g>
						<g>
							<path class="st13" d="M749.5,81.1c-22.1-12.2-41.7-25-60.6-37.4c-7.4-4.9-15.1-9.9-22.8-14.8c-11.1-7-26-16.2-42.3-25
								c-18.1-9.7-35.6-17.5-53.5-23.7c-26.4-9.1-53-13.6-78.7-17.9c-11.6-1.9-23.6-4-35.3-6.4c-20.7-4.2-37-9.2-51.2-15.6
								c-11.2-5.1-21.6-11.1-30.8-17.8c-18.9-13.9-33-31-48-49.1l-0.2-0.3c-1.4-1.7-2.8-3.4-4.2-5.1c-11.9-14.3-24.2-29-34.9-44.7
								c-33.7-49.3-55.5-107.7-61.4-164.4l0.8-0.1c5.9,56.6,27.7,114.8,61.3,164c10.7,15.7,23,30.4,34.9,44.7
								c1.4,1.7,2.8,3.4,4.2,5.1l0.2,0.3c14.9,18.1,29,35.1,47.8,48.9c9.2,6.7,19.5,12.7,30.6,17.7c14.2,6.4,30.4,11.3,51,15.6
								c11.6,2.4,23.6,4.4,35.2,6.3c25.8,4.3,52.4,8.8,78.9,17.9c17.9,6.2,35.5,14,53.7,23.7c16.3,8.8,31.2,18,42.4,25
								c7.7,4.9,15.4,9.9,22.8,14.8c18.9,12.4,38.4,25.2,60.5,37.3L749.5,81.1z"/>
						</g>
						<g>
							<path class="st13" d="M752.1,66.6c-22.9-10.9-43.6-22.3-63.5-33.3c-7.7-4.2-15.6-8.6-23.5-12.9
								c-12.6-6.7-27.7-14.6-43.9-22.3c-18.6-8.8-36.4-15.8-54.3-21.6c-24.1-7.8-48.5-12.3-72-16.6c-13.6-2.5-27.7-5.1-41.4-8.3
								c-20.3-4.7-36.4-10.2-50.5-17.1c-11-5.4-21.1-11.7-30.1-18.7c-17.5-13.8-30.3-30.3-43.9-47.8l-2.3-3c-2.5-3.2-5-6.4-7.6-9.6
								c-10.3-13.1-21-26.6-30.3-40.8c-32.3-49.3-52.3-106.3-56.4-160.5l0.9-0.1c4.1,54.1,24.1,111,56.2,160.1
								c9.3,14.2,20,27.7,30.3,40.7c2.6,3.2,5.1,6.4,7.6,9.6l2.3,3c13.6,17.5,26.4,34,43.8,47.7c8.9,7,19,13.3,29.9,18.6
								c14.1,6.9,30.1,12.3,50.3,17c13.6,3.2,27.7,5.8,41.3,8.3c23.6,4.4,47.9,8.9,72.1,16.7c17.9,5.8,35.7,12.8,54.4,21.6
								c16.2,7.6,31.3,15.6,43.9,22.3c8,4.3,15.9,8.7,23.5,12.9c20,11,40.6,22.4,63.5,33.3L752.1,66.6z"/>
						</g>
						<g>
							<path class="st13" d="M754.7,52.1c-23.8-9.7-45.7-19.7-66.9-29.4c-7.8-3.6-15.9-7.2-23.9-10.8C650.6,6,635-0.9,618.4-7.6
								c-19.2-7.8-37.1-14.2-55-19.5c-21.4-6.4-43-10.7-63.9-14.9c-16.1-3.2-32.8-6.6-48.8-10.8C430.8-58,415-63.9,400.9-71.3
								c-10.8-5.7-20.7-12.3-29.4-19.6c-16.3-13.7-28-29.8-40.4-46.9c-1.3-1.8-2.6-3.6-4-5.4c-3.2-4.4-6.6-8.9-9.9-13.3
								c-9.1-12.1-18.6-24.6-26.8-37.8c-30.8-49.2-49-104.9-51.4-156.7l0.9,0c2.3,51.7,20.5,107.2,51.2,156.3
								c8.2,13.1,17.6,25.6,26.7,37.7c3.3,4.4,6.7,8.9,9.9,13.3c1.3,1.8,2.6,3.6,4,5.4c12.4,17,24.1,33.1,40.2,46.8
								c8.6,7.3,18.5,13.8,29.3,19.5c14,7.4,29.8,13.2,49.7,18.4c16,4.2,32.6,7.5,48.7,10.8c20.9,4.2,42.5,8.5,64,14.9
								c17.9,5.3,35.9,11.7,55.1,19.5c16.6,6.7,32.2,13.6,45.5,19.5c8.1,3.6,16.1,7.3,23.9,10.8c21.1,9.6,43,19.6,66.8,29.3
								L754.7,52.1z"/>
						</g>
						<g>
							<path class="st13" d="M757.3,37.6c-25.2-8.7-48.7-17.3-71.5-25.7c-7.6-2.8-15.3-5.6-23-8.5l-1.3-0.5
								c-14.7-5.3-29.9-10.8-45.8-16.3c-19.8-6.8-38-12.5-55.7-17.4c-18.1-5-36.4-8.9-54.1-12.6c-20.1-4.3-39.1-8.3-58-13.8
								c-19.3-5.6-35.4-12.2-49.2-20c-10.7-6-20.3-12.9-28.7-20.5c-15.2-13.7-25.9-29.5-37.2-46.2c-1.7-2.5-3.4-5.1-5.2-7.6
								c-3.7-5.4-7.7-10.9-11.5-16.2c-8.2-11.4-16.6-23.2-24-35.4c-29.3-49-45.7-103.3-46.3-152.9l0.9,0
								c0.6,49.4,17,103.5,46.2,152.4c7.3,12.3,15.8,24,23.9,35.4c3.8,5.3,7.8,10.8,11.5,16.2c1.7,2.5,3.5,5.1,5.2,7.6
								c11.3,16.7,22,32.5,37.1,46.1c8.4,7.5,18,14.4,28.6,20.4c13.7,7.8,29.7,14.3,49,19.9c18.9,5.5,37.9,9.6,57.9,13.8
								c17.7,3.7,36,7.6,54.1,12.6c17.7,4.9,36,10.6,55.8,17.4c15.9,5.5,31.1,11,45.8,16.3l1.3,0.5c7.7,2.8,15.4,5.7,23,8.5
								c22.7,8.4,46.3,17.1,71.4,25.7L757.3,37.6z"/>
						</g>
						<g>
							<path class="st13" d="M759.9,23.1c-31.9-9-60.7-17.4-91.2-26.2l-7-2c-7.5-2.1-15-4.3-22.7-6.6c-8.5-2.5-17.1-5-25.9-7.5
								c-20.9-6-38.8-10.9-56.4-15.3c-14-3.5-28.1-6.6-41.8-9.6c-24.2-5.3-47.1-10.3-69.6-17.6c-19-6.1-34.8-13.1-48.5-21.4
								c-10.4-6.3-19.8-13.5-28-21.4c-14.2-13.8-24.1-29.4-34.5-46c-2-3.1-3.9-6.2-5.9-9.4c-4-6.2-8.3-12.5-12.5-18.5
								c-7.4-10.8-15.1-22-21.7-33.7c-27.7-48.8-42.4-101.7-41.3-149l0.9,0c-1.1,47.2,13.5,99.9,41.2,148.6
								c6.6,11.6,14.3,22.8,21.7,33.6c4.2,6.1,8.5,12.4,12.5,18.6c2,3.1,4,6.3,6,9.4c10.4,16.5,20.2,32.1,34.4,45.8
								c8.2,7.9,17.5,15,27.9,21.3c13.6,8.2,29.4,15.2,48.3,21.3c22.5,7.3,45.4,12.3,69.6,17.5c13.7,3,27.8,6.1,41.8,9.6
								c17.6,4.4,35.6,9.3,56.5,15.3c8.8,2.5,17.4,5,25.9,7.5c7.7,2.2,15.3,4.4,22.7,6.6l7,2c30.5,8.8,59.3,17.2,91.2,26.2
								L759.9,23.1z"/>
						</g>
						<g>
							<path class="st13" d="M762.5,8.6c-21.7-4.9-42.8-9.4-63.2-13.9c-12.7-2.7-25.7-5.6-38.7-8.4c-15.5-3.4-31.2-7-50.2-11.3
								c-17.8-4.2-37.1-8.6-57.2-13.2c-8.7-2-17.5-3.9-25.9-5.7c-29.6-6.4-57.5-12.5-84.8-22.2c-18.6-6.6-34.3-14.1-47.8-22.8
								c-10.2-6.6-19.4-14.2-27.3-22.3c-13.4-13.8-22.4-29.3-32-45.7c-2.1-3.7-4.3-7.4-6.6-11.2c-4.1-6.9-8.7-13.8-13.1-20.5
								c-6.8-10.4-13.9-21.2-19.9-32.4c-18.5-34.3-39.8-87.3-36.3-145.2l0.9,0.1c-3.5,57.7,17.7,110.6,36.2,144.8
								c6,11.2,13.1,21.9,19.9,32.3c4.4,6.7,8.9,13.6,13.1,20.5c2.3,3.8,4.5,7.5,6.6,11.2c9.5,16.3,18.5,31.8,31.8,45.5
								c7.9,8.1,17,15.6,27.2,22.2c13.5,8.7,29,16.2,47.6,22.8c27.2,9.6,55.2,15.7,84.7,22.1c8.5,1.8,17.3,3.7,26,5.7
								c20.1,4.6,39.4,9,57.2,13.2c18.9,4.3,34.7,7.9,50.1,11.3c13,2.9,26.1,5.7,38.7,8.4c20.4,4.4,41.4,9,63.2,13.9L762.5,8.6z"/>
						</g>
						<g>
							<path class="st13" d="M765.1-5.8c-24.1-4.1-47.7-7.6-70.6-11c-11.5-1.7-23.3-3.5-35-5.3c-16.9-2.6-34.3-5.5-51.7-8.5
								c-20.8-3.8-39.8-7.4-57.9-11.1l-4.6-0.9c-37-7.6-71.9-14.7-105.5-27.7c-18.3-7.1-33.7-15-47.1-24.3c-10-7-19-14.8-26.6-23.2
								c-12.6-13.9-20.8-29.3-29.6-45.5c-2.3-4.2-4.6-8.5-7-12.8c-4.2-7.4-8.8-14.9-13.3-22c-6.3-10.1-12.9-20.5-18.4-31.4
								c-17.3-34-36.8-86.1-31.2-141.4l0.9,0.1c-5.5,55,13.9,107,31.1,140.9c5.5,10.8,12,21.2,18.4,31.3c4.5,7.2,9.2,14.6,13.4,22.1
								c2.4,4.3,4.8,8.6,7,12.8c8.7,16.2,17,31.5,29.5,45.4c7.6,8.4,16.5,16.1,26.5,23.1c13.3,9.3,28.7,17.2,46.9,24.2
								c33.5,12.9,68.4,20.1,105.4,27.6l4.6,0.9c18.1,3.7,37.1,7.3,57.9,11.1c17.4,3.1,34.8,6,51.7,8.5c11.7,1.8,23.6,3.6,35,5.3
								c22.9,3.4,46.5,6.9,70.6,11L765.1-5.8z"/>
						</g>
						<g>
							<path class="st13" d="M767.6-20.3c-25.2-2.9-50.2-5.1-74.4-7.2c-11.4-1-23.3-2-34.9-3.1c-19.1-1.8-36.5-3.7-53.3-5.8
								c-20-2.6-39.7-5.6-58.6-9c-42-7.7-76.7-15.6-109.5-29.3c-18-7.5-33.2-15.9-46.4-25.7c-9.8-7.3-18.6-15.4-25.9-24.1
								c-11.9-14-19.4-29.3-27.5-45.5c-2.3-4.7-4.7-9.5-7.2-14.3c-4.1-7.9-8.8-15.7-13.4-23.3c-5.9-9.9-12-20.1-17.1-30.7
								c-16.1-33.7-33.7-84.9-26.2-137.6l0.8,0.1c-7.5,52.5,10.1,103.5,26.1,137.1c5.1,10.6,11.2,20.8,17.1,30.6
								c4.6,7.6,9.3,15.5,13.4,23.4c2.5,4.8,4.9,9.7,7.2,14.3c8,16.2,15.6,31.4,27.3,45.4c7.3,8.6,16,16.7,25.8,24
								c13.2,9.8,28.3,18.1,46.2,25.6C470-62,504.7-54,546.6-46.3c18.9,3.4,38.6,6.4,58.6,9c16.7,2.1,34.2,4,53.3,5.8
								c11.7,1.1,23.5,2.1,34.9,3.1c24.2,2.1,49.2,4.3,74.4,7.2L767.6-20.3z"/>
						</g>
						<g>
							<path class="st13" d="M770.2-34.8c-26-1.7-52.2-2.5-77.4-3.2c-11.6-0.3-23.7-0.7-35.6-1.1C636.4-40,619-41,602.4-42.3
								c-21.1-1.7-40.5-4-59.4-6.9c-44.4-7.1-79-16.6-108.8-30.1c-17.5-7.9-32.9-17-45.7-27.2c-9.7-7.6-18.2-16.1-25.2-25
								c-11.2-14.2-18.1-29.5-25.5-45.7c-2.3-5.1-4.7-10.5-7.3-15.7c-4-8.3-8.7-16.4-13.2-24.4c-5.6-9.7-11.3-19.8-16-30.3
								c-14.9-33.3-30.6-83.5-21.2-133.7l0.8,0.2c-9.4,50.1,6.3,100.1,21.1,133.2c4.7,10.4,10.4,20.5,16,30.2
								c4.5,7.9,9.2,16.1,13.3,24.4c2.5,5.3,5,10.6,7.3,15.7c7.3,16.2,14.2,31.4,25.4,45.5c7,8.9,15.5,17.3,25.1,24.9
								C401.8-97,417.1-87.9,434.5-80c29.8,13.4,64.3,23,108.6,30c18.8,2.9,38.2,5.2,59.3,6.9c16.6,1.3,34,2.3,54.8,3.1
								c11.9,0.4,23.9,0.8,35.5,1.1c25.3,0.7,51.4,1.5,77.5,3.2L770.2-34.8z"/>
						</g>
						<g>
							<path class="st13" d="M632.2-47.5c-10.8,0-21.7-0.1-32.5-0.5c-69.4-2.3-122.9-13.6-168.3-35.6c-30.2-14.6-53.6-33-69.6-54.5
								c-10.6-14.3-16.9-29.7-23.6-45.9c-2.3-5.6-4.7-11.3-7.2-17c-3.9-8.6-8.5-17-12.9-25.2c-5.3-9.6-10.7-19.6-15.1-30
								c-19.5-47-25.1-91.9-16.1-129.9l0.8,0.2c-8.9,37.8-3.4,82.5,16.1,129.4c4.3,10.4,9.8,20.3,15,29.9c4.5,8.2,9.1,16.6,13,25.3
								c2.5,5.7,4.9,11.4,7.2,17c6.7,16.2,13,31.5,23.5,45.7c15.9,21.4,39.2,39.7,69.3,54.3c45.3,21.9,98.6,33.2,168,35.5
								c30.9,1,62.4,0.3,92.8-0.5c26.3-0.6,53.5-1.3,80.3-0.8l0,0.9c-26.7-0.5-53.9,0.2-80.3,0.8C672.8-48,652.5-47.5,632.2-47.5z"
								/>
						</g>
					</g>
					<g class="st16">
						<path class="st13" d="M144,360.5c-9.5,0-17.2-7.7-17.2-17.2c0-9.5,7.7-17.2,17.2-17.2c9.5,0,17.2,7.7,17.2,17.2
							C161.2,352.8,153.5,360.5,144,360.5z M144,335.6c-4.3,0-7.7,3.5-7.7,7.7c0,4.3,3.5,7.7,7.7,7.7c4.3,0,7.7-3.5,7.7-7.7
							C151.7,339.1,148.2,335.6,144,335.6z"/>
					</g>
					<g class="st16">
						<path class="st13" d="M528-66.7c-9.5,0-17.2-7.7-17.2-17.2c0-9.5,7.7-17.2,17.2-17.2c9.5,0,17.2,7.7,17.2,17.2
							C545.2-74.5,537.4-66.7,528-66.7z M528-91.6c-4.3,0-7.7,3.5-7.7,7.7c0,4.3,3.5,7.7,7.7,7.7c4.3,0,7.7-3.5,7.7-7.7
							C535.7-88.2,532.2-91.6,528-91.6z"/>
					</g>
				</g>
			</g>
			<path class="st17" d="M101.4,128c0,1.8-1.5,3.3-3.3,3.3c-1.8,0-3.3-1.5-3.3-3.3c0-1.8,1.5-3.3,3.3-3.3
				C99.9,124.7,101.4,126.1,101.4,128z"/>
			<path class="st17" d="M468,306.5c0,1.8-1.5,3.3-3.3,3.3s-3.3-1.5-3.3-3.3s1.5-3.3,3.3-3.3S468,304.6,468,306.5z"/>
			<path class="st17" d="M300.1-8.4c0,1.8-1.5,3.3-3.3,3.3s-3.3-1.5-3.3-3.3s1.5-3.3,3.3-3.3S300.1-10.3,300.1-8.4z"/>
			<path class="st17" d="M509.4,99.1c0,1.8-1.5,3.3-3.3,3.3c-1.8,0-3.3-1.5-3.3-3.3s1.5-3.3,3.3-3.3
				C507.9,95.8,509.4,97.3,509.4,99.1z"/>
			<path class="st17" d="M249.8,202.5c0,1.8-1.5,3.3-3.3,3.3c-1.8,0-3.3-1.5-3.3-3.3s1.5-3.3,3.3-3.3
				C248.3,199.2,249.8,200.7,249.8,202.5z"/>
			<path class="st17" d="M571.9,129.7c0,1.8-1.5,3.3-3.3,3.3c-1.8,0-3.3-1.5-3.3-3.3s1.5-3.3,3.3-3.3
				C570.5,126.4,571.9,127.9,571.9,129.7z"/>
			<path class="st17" d="M408,284c0,1.8-1.5,3.3-3.3,3.3s-3.3-1.5-3.3-3.3c0-1.8,1.5-3.3,3.3-3.3S408,282.2,408,284z"/>
			<circle class="st17" cx="300.1" cy="129.7" r="3.3"/>
			<path class="st17" d="M217.6,282.2c0,1-0.8,1.9-1.9,1.9c-1,0-1.9-0.8-1.9-1.9c0-1,0.8-1.9,1.9-1.9
				C216.8,280.3,217.6,281.1,217.6,282.2z"/>
			<path class="st17" d="M31.1,97.3c0,1-0.8,1.9-1.9,1.9s-1.9-0.8-1.9-1.9c0-1,0.8-1.9,1.9-1.9S31.1,96.3,31.1,97.3z"/>
			<circle class="st17" cx="300.1" cy="129.7" r="1.9"/>
			<path class="st17" d="M144.5,185.1c0,1-0.8,1.9-1.9,1.9c-1,0-1.9-0.8-1.9-1.9c0-1,0.8-1.9,1.9-1.9
				C143.6,183.2,144.5,184,144.5,185.1z"/>
			<path class="st17" d="M110.5-53.2c0,1-0.8,1.9-1.9,1.9c-1,0-1.9-0.8-1.9-1.9c0-1,0.8-1.9,1.9-1.9
				C109.6-55.1,110.5-54.2,110.5-53.2z"/>
			<path class="st17" d="M221.4-10.3c0,1-0.8,1.9-1.9,1.9c-1,0-1.9-0.8-1.9-1.9s0.8-1.9,1.9-1.9C220.5-12.2,221.4-11.4,221.4-10.3z"
				/>
			<path class="st17" d="M574.3,42.3c0,1-0.8,1.9-1.9,1.9c-1,0-1.9-0.8-1.9-1.9c0-1,0.8-1.9,1.9-1.9
				C573.4,40.4,574.3,41.3,574.3,42.3z"/>
			<circle class="st17" cx="599.5" cy="128" r="1.9"/>
			<path class="st17" d="M337.7,162.1c0,1-0.8,1.9-1.9,1.9s-1.9-0.8-1.9-1.9c0-1,0.8-1.9,1.9-1.9S337.7,161.1,337.7,162.1z"/>
			<path class="st17" d="M285.9,65.7c0,1-0.8,1.9-1.9,1.9c-1,0-1.9-0.8-1.9-1.9s0.8-1.9,1.9-1.9C285,63.8,285.9,64.6,285.9,65.7z"/>
			<path class="st17" d="M-4.2,21.3c0,1-0.8,1.9-1.9,1.9c-1,0-1.9-0.8-1.9-1.9c0-1,0.8-1.9,1.9-1.9C-5.1,19.4-4.2,20.3-4.2,21.3z"/>
			<path class="st17" d="M383.4,13.4c0,1-0.8,1.9-1.9,1.9c-1,0-1.9-0.8-1.9-1.9c0-1,0.8-1.9,1.9-1.9
				C382.5,11.6,383.4,12.4,383.4,13.4z"/>
			<path class="st17" d="M33,172.7c0,1-0.8,1.9-1.9,1.9s-1.9-0.8-1.9-1.9c0-1,0.8-1.9,1.9-1.9S33,171.6,33,172.7z"/>
			<path class="st17" d="M620-12.2c0,1-0.8,1.9-1.9,1.9c-1,0-1.9-0.8-1.9-1.9c0-1,0.8-1.9,1.9-1.9C619.2-14.1,620-13.3,620-12.2z"/>
			<path class="st17" d="M518.2,233.2c0,1-0.8,1.9-1.9,1.9s-1.9-0.8-1.9-1.9c0-1,0.8-1.9,1.9-1.9S518.2,232.1,518.2,233.2z"/>
			<path class="st17" d="M182.9,229.4c0,1-0.8,1.9-1.9,1.9c-1,0-1.9-0.8-1.9-1.9c0-1,0.8-1.9,1.9-1.9
				C182.1,227.5,182.9,228.4,182.9,229.4z"/>
			<path class="st17" d="M379.6,164c0,1-0.8,1.9-1.9,1.9s-1.9-0.8-1.9-1.9c0-1,0.8-1.9,1.9-1.9S379.6,163,379.6,164z"/>
			<circle class="st17" cx="326.2" cy="266.3" r="1"/>
			<g class="st16">
				<path class="st13" d="M201.7,100.2c-9.5,0-17.2-7.7-17.2-17.2c0-9.5,7.7-17.2,17.2-17.2c9.5,0,17.2,7.7,17.2,17.2
					C218.9,92.5,211.2,100.2,201.7,100.2z M201.7,75.3c-4.3,0-7.7,3.5-7.7,7.7c0,4.3,3.5,7.7,7.7,7.7s7.7-3.5,7.7-7.7
					C209.4,78.8,206,75.3,201.7,75.3z"/>
			</g>
			<g class="st16">
				<path class="st13" d="M469.1,248.5c-9.5,0-17.2-7.7-17.2-17.2c0-9.5,7.7-17.2,17.2-17.2c9.5,0,17.2,7.7,17.2,17.2
					C486.3,240.8,478.6,248.5,469.1,248.5z M469.1,223.6c-4.3,0-7.7,3.5-7.7,7.7c0,4.3,3.5,7.7,7.7,7.7c4.3,0,7.7-3.5,7.7-7.7
					C476.8,227,473.3,223.6,469.1,223.6z"/>
			</g>
			<g>
				<path class="st13" d="M592.1,194.6c-0.7,0-1.2,0.5-1.2,1.2c0,0.7,0.5,1.2,1.2,1.2s1.2-0.5,1.2-1.2S592.8,194.6,592.1,194.6z"/>
				<path class="st13" d="M585.9,232.8c-0.7,0-1.2,0.5-1.2,1.2c0,0.7,0.5,1.2,1.2,1.2s1.2-0.5,1.2-1.2S586.6,232.8,585.9,232.8z"/>
				<path class="st13" d="M585.9,238.2c-0.7,0-1.2,0.5-1.2,1.2s0.5,1.2,1.2,1.2s1.2-0.5,1.2-1.2
					C587.1,238.8,586.6,238.2,585.9,238.2z"/>
				<path class="st13" d="M585.9,227.3c-0.7,0-1.2,0.5-1.2,1.2c0,0.7,0.5,1.2,1.2,1.2s1.2-0.5,1.2-1.2
					C587.1,227.9,586.6,227.3,585.9,227.3z"/>
				<path class="st13" d="M592.1,216.4c-0.7,0-1.2,0.5-1.2,1.2c0,0.7,0.5,1.2,1.2,1.2s1.2-0.5,1.2-1.2
					C593.3,217,592.8,216.4,592.1,216.4z"/>
				<path class="st13" d="M592.1,221.9c-0.7,0-1.2,0.5-1.2,1.2s0.5,1.2,1.2,1.2c0.7,0,1.2-0.5,1.2-1.2S592.8,221.9,592.1,221.9z"/>
				<path class="st13" d="M592.1,227.3c-0.7,0-1.2,0.5-1.2,1.2c0,0.7,0.5,1.2,1.2,1.2s1.2-0.5,1.2-1.2
					C593.3,227.9,592.8,227.3,592.1,227.3z"/>
				<path class="st13" d="M585.9,221.9c-0.7,0-1.2,0.5-1.2,1.2c0,0.7,0.5,1.2,1.2,1.2c0.7,0,1.2-0.5,1.2-1.2
					C587.1,222.4,586.6,221.9,585.9,221.9z"/>
				<path class="st13" d="M592.1,205.5c-0.7,0-1.2,0.5-1.2,1.2c0,0.7,0.5,1.2,1.2,1.2s1.2-0.5,1.2-1.2
					C593.3,206.1,592.8,205.5,592.1,205.5z"/>
				<path class="st13" d="M592.1,200.1c-0.7,0-1.2,0.5-1.2,1.2c0,0.7,0.5,1.2,1.2,1.2s1.2-0.5,1.2-1.2
					C593.3,200.6,592.8,200.1,592.1,200.1z"/>
				<path class="st13" d="M585.9,191.6c0.6,0,1-0.4,1.2-0.9c-0.8-0.1-1.6-0.2-2.4-0.3C584.8,191.1,585.3,191.6,585.9,191.6z"/>
				<path class="st13" d="M591.4,243.9c0.2-0.1,0.4-0.1,0.6-0.2C591.8,243.7,591.6,243.8,591.4,243.9z"/>
				<path class="st13" d="M598.3,238.2c-0.7,0-1.2,0.5-1.2,1.2c0,0.6,0.4,1.1,1,1.2c0.5-0.3,0.9-0.7,1.4-1c0-0.1,0-0.1,0-0.2
					C599.5,238.8,598.9,238.2,598.3,238.2z"/>
				<path class="st13" d="M598.3,200.1c-0.7,0-1.2,0.5-1.2,1.2c0,0.7,0.5,1.2,1.2,1.2c0.7,0,1.2-0.5,1.2-1.2
					S598.9,200.1,598.3,200.1z"/>
				<path class="st13" d="M585.9,200.1c-0.7,0-1.2,0.5-1.2,1.2s0.5,1.2,1.2,1.2s1.2-0.5,1.2-1.2
					C587.1,200.6,586.6,200.1,585.9,200.1z"/>
				<path class="st13" d="M597,195.8c0,0.7,0.5,1.2,1.2,1.2c0.6,0,1.1-0.5,1.2-1c-0.6-0.4-1.2-0.9-1.8-1.2
					C597.3,195,597,195.4,597,195.8z"/>
				<path class="st13" d="M585.9,205.5c-0.7,0-1.2,0.5-1.2,1.2c0,0.7,0.5,1.2,1.2,1.2s1.2-0.5,1.2-1.2
					C587.1,206.1,586.6,205.5,585.9,205.5z"/>
				<path class="st13" d="M585.9,194.6c-0.7,0-1.2,0.5-1.2,1.2c0,0.7,0.5,1.2,1.2,1.2s1.2-0.5,1.2-1.2
					C587.1,195.2,586.6,194.6,585.9,194.6z"/>
				<path class="st13" d="M585.9,216.4c-0.7,0-1.2,0.5-1.2,1.2c0,0.7,0.5,1.2,1.2,1.2s1.2-0.5,1.2-1.2S586.6,216.4,585.9,216.4z"/>
				<path class="st13" d="M585.9,211c-0.7,0-1.2,0.5-1.2,1.2c0,0.7,0.5,1.2,1.2,1.2s1.2-0.5,1.2-1.2
					C587.1,211.5,586.6,211,585.9,211z"/>
				<path class="st13" d="M604.4,216.4c-0.7,0-1.2,0.5-1.2,1.2s0.5,1.2,1.2,1.2s1.2-0.5,1.2-1.2S605.1,216.4,604.4,216.4z"/>
				<path class="st13" d="M604.4,211c-0.7,0-1.2,0.5-1.2,1.2c0,0.7,0.5,1.2,1.2,1.2s1.2-0.5,1.2-1.2
					C605.6,211.5,605.1,211,604.4,211z"/>
				<path class="st13" d="M604.4,227.3c-0.7,0-1.2,0.5-1.2,1.2c0,0.7,0.5,1.2,1.2,1.2s1.2-0.5,1.2-1.2
					C605.6,227.9,605.1,227.3,604.4,227.3z"/>
				<path class="st13" d="M604.4,205.5c-0.7,0-1.2,0.5-1.2,1.2c0,0.7,0.5,1.2,1.2,1.2s1.2-0.5,1.2-1.2
					C605.6,206.1,605.1,205.5,604.4,205.5z"/>
				<path class="st13" d="M604.4,232.8c-0.7,0-1.2,0.5-1.2,1.2c0,0.6,0.4,1,0.9,1.2c0.5-0.6,0.9-1.2,1.4-1.8
					C605.2,233,604.9,232.8,604.4,232.8z"/>
				<path class="st13" d="M604.4,221.9c-0.7,0-1.2,0.5-1.2,1.2c0,0.7,0.5,1.2,1.2,1.2c0.7,0,1.2-0.5,1.2-1.2
					C605.6,222.4,605.1,221.9,604.4,221.9z"/>
				<path class="st13" d="M609.4,217.6c0,0.5,0.4,1,0.9,1.2c0-0.3,0-0.6,0-1c0-0.5,0-0.9,0-1.3C609.7,216.6,609.4,217.1,609.4,217.6
					z"/>
				<path class="st13" d="M603.2,201.3c0,0.7,0.5,1.2,1.2,1.2c0.4,0,0.7-0.2,0.9-0.4c-0.5-0.7-0.9-1.3-1.5-1.9
					C603.5,200.4,603.2,200.8,603.2,201.3z"/>
				<path class="st13" d="M609.9,213.2c-0.1-0.5-0.2-1.1-0.3-1.6c-0.1,0.2-0.2,0.4-0.2,0.6C609.4,212.6,609.6,212.9,609.9,213.2z"/>
				<path class="st13" d="M592.1,232.8c-0.7,0-1.2,0.5-1.2,1.2s0.5,1.2,1.2,1.2s1.2-0.5,1.2-1.2
					C593.3,233.3,592.8,232.8,592.1,232.8z"/>
				<path class="st13" d="M598.3,211c-0.7,0-1.2,0.5-1.2,1.2s0.5,1.2,1.2,1.2c0.7,0,1.2-0.5,1.2-1.2S598.9,211,598.3,211z"/>
				<path class="st13" d="M598.3,205.5c-0.7,0-1.2,0.5-1.2,1.2c0,0.7,0.5,1.2,1.2,1.2c0.7,0,1.2-0.5,1.2-1.2
					S598.9,205.5,598.3,205.5z"/>
				<path class="st13" d="M598.3,216.4c-0.7,0-1.2,0.5-1.2,1.2c0,0.7,0.5,1.2,1.2,1.2s1.2-0.5,1.2-1.2
					C599.5,217,598.9,216.4,598.3,216.4z"/>
				<path class="st13" d="M592.1,238.2c-0.7,0-1.2,0.5-1.2,1.2c0,0.7,0.5,1.2,1.2,1.2s1.2-0.5,1.2-1.2
					C593.3,238.8,592.8,238.2,592.1,238.2z"/>
				<path class="st13" d="M598.3,232.8c-0.7,0-1.2,0.5-1.2,1.2c0,0.7,0.5,1.2,1.2,1.2s1.2-0.5,1.2-1.2
					C599.5,233.3,598.9,232.8,598.3,232.8z"/>
				<path class="st13" d="M598.3,221.9c-0.7,0-1.2,0.5-1.2,1.2c0,0.7,0.5,1.2,1.2,1.2c0.7,0,1.2-0.5,1.2-1.2
					C599.5,222.4,598.9,221.9,598.3,221.9z"/>
				<path class="st13" d="M587.1,244.9c0-0.7-0.5-1.2-1.2-1.2c-0.7,0-1.2,0.5-1.2,1.2c0,0.1,0,0.2,0,0.3
					C585.6,245.2,586.4,245.1,587.1,244.9C587.1,244.9,587.1,244.9,587.1,244.9z"/>
				<path class="st13" d="M598.3,227.3c-0.7,0-1.2,0.5-1.2,1.2s0.5,1.2,1.2,1.2s1.2-0.5,1.2-1.2S598.9,227.3,598.3,227.3z"/>
				<path class="st13" d="M609.4,223.1c0,0.3,0.1,0.5,0.2,0.7c0.1-0.6,0.2-1.1,0.3-1.7C609.6,222.3,609.4,222.7,609.4,223.1z"/>
				<path class="st13" d="M592.1,211c-0.7,0-1.2,0.5-1.2,1.2c0,0.7,0.5,1.2,1.2,1.2s1.2-0.5,1.2-1.2
					C593.3,211.5,592.8,211,592.1,211z"/>
				<path class="st13" d="M581,244.9c0-0.7-0.5-1.2-1.2-1.2s-1.2,0.5-1.2,1.2c0,0,0,0,0,0c0.8,0.1,1.6,0.2,2.4,0.3
					C581,245.1,581,245,581,244.9z"/>
				<path class="st13" d="M573.6,243.7C573.6,243.7,573.6,243.7,573.6,243.7c0.2,0.1,0.5,0.2,0.7,0.3
					C574.1,243.8,573.9,243.7,573.6,243.7z"/>
				<path class="st13" d="M561.3,202.5c0.7,0,1.2-0.5,1.2-1.2c0-0.5-0.3-0.9-0.7-1.1c-0.5,0.6-1,1.2-1.4,1.9
					C560.6,202.3,560.9,202.5,561.3,202.5z"/>
				<path class="st13" d="M579.8,191.6c0.6,0,1.2-0.5,1.2-1.2c-0.8,0.1-1.6,0.1-2.4,0.3C578.7,191.2,579.2,191.6,579.8,191.6z"/>
				<path class="st13" d="M579.8,194.6c-0.7,0-1.2,0.5-1.2,1.2s0.5,1.2,1.2,1.2s1.2-0.5,1.2-1.2C581,195.2,580.4,194.6,579.8,194.6z
					"/>
				<path class="st13" d="M568.6,239.5c0-0.7-0.5-1.2-1.2-1.2s-1.2,0.5-1.2,1.2c0,0.1,0,0.2,0,0.3c0.4,0.3,0.9,0.6,1.3,0.9
					C568.2,240.6,568.6,240.1,568.6,239.5z"/>
				<path class="st13" d="M567.4,221.9c-0.7,0-1.2,0.5-1.2,1.2c0,0.7,0.5,1.2,1.2,1.2c0.7,0,1.2-0.5,1.2-1.2
					C568.6,222.4,568.1,221.9,567.4,221.9z"/>
				<path class="st13" d="M567.4,216.4c-0.7,0-1.2,0.5-1.2,1.2c0,0.7,0.5,1.2,1.2,1.2c0.7,0,1.2-0.5,1.2-1.2
					C568.6,217,568.1,216.4,567.4,216.4z"/>
				<path class="st13" d="M567.4,211c-0.7,0-1.2,0.5-1.2,1.2s0.5,1.2,1.2,1.2c0.7,0,1.2-0.5,1.2-1.2S568.1,211,567.4,211z"/>
				<path class="st13" d="M567.4,205.5c-0.7,0-1.2,0.5-1.2,1.2c0,0.7,0.5,1.2,1.2,1.2c0.7,0,1.2-0.5,1.2-1.2
					C568.6,206.1,568.1,205.5,567.4,205.5z"/>
				<path class="st13" d="M561.3,221.9c-0.7,0-1.2,0.5-1.2,1.2c0,0.7,0.5,1.2,1.2,1.2s1.2-0.5,1.2-1.2S561.9,221.9,561.3,221.9z"/>
				<path class="st13" d="M567.4,232.8c-0.7,0-1.2,0.5-1.2,1.2c0,0.7,0.5,1.2,1.2,1.2s1.2-0.5,1.2-1.2
					C568.6,233.3,568.1,232.8,567.4,232.8z"/>
				<path class="st13" d="M556.3,217.6c0-0.6-0.4-1.1-0.9-1.2c0,0.5,0,0.9,0,1.4c0,0.3,0,0.7,0,1
					C555.9,218.7,556.3,218.2,556.3,217.6z"/>
				<path class="st13" d="M562.5,234c0-0.7-0.5-1.2-1.2-1.2c-0.5,0-0.9,0.3-1.1,0.6c0.4,0.6,0.9,1.2,1.3,1.8
					C562.1,235.1,562.5,234.6,562.5,234z"/>
				<path class="st13" d="M556.3,212.2c0-0.3-0.1-0.5-0.2-0.7c-0.1,0.6-0.3,1.1-0.4,1.7C556.1,213,556.3,212.6,556.3,212.2z"/>
				<path class="st13" d="M555.7,222c0.1,0.6,0.2,1.2,0.4,1.8c0.2-0.2,0.3-0.5,0.3-0.8C556.3,222.6,556,222.2,555.7,222z"/>
				<path class="st13" d="M561.3,227.3c-0.7,0-1.2,0.5-1.2,1.2c0,0.7,0.5,1.2,1.2,1.2s1.2-0.5,1.2-1.2
					C562.5,227.9,561.9,227.3,561.3,227.3z"/>
				<path class="st13" d="M561.3,216.4c-0.7,0-1.2,0.5-1.2,1.2c0,0.7,0.5,1.2,1.2,1.2c0.7,0,1.2-0.5,1.2-1.2
					C562.5,217,561.9,216.4,561.3,216.4z"/>
				<path class="st13" d="M561.3,211c-0.7,0-1.2,0.5-1.2,1.2c0,0.7,0.5,1.2,1.2,1.2c0.7,0,1.2-0.5,1.2-1.2
					C562.5,211.5,561.9,211,561.3,211z"/>
				<path class="st13" d="M561.3,205.5c-0.7,0-1.2,0.5-1.2,1.2c0,0.7,0.5,1.2,1.2,1.2c0.7,0,1.2-0.5,1.2-1.2
					C562.5,206.1,561.9,205.5,561.3,205.5z"/>
				<path class="st13" d="M567.4,200.1c-0.7,0-1.2,0.5-1.2,1.2c0,0.7,0.5,1.2,1.2,1.2c0.7,0,1.2-0.5,1.2-1.2
					C568.6,200.6,568.1,200.1,567.4,200.1z"/>
				<path class="st13" d="M579.8,205.5c-0.7,0-1.2,0.5-1.2,1.2c0,0.7,0.5,1.2,1.2,1.2s1.2-0.5,1.2-1.2
					C581,206.1,580.4,205.5,579.8,205.5z"/>
				<path class="st13" d="M579.8,216.4c-0.7,0-1.2,0.5-1.2,1.2c0,0.7,0.5,1.2,1.2,1.2s1.2-0.5,1.2-1.2
					C581,217,580.4,216.4,579.8,216.4z"/>
				<path class="st13" d="M579.8,211c-0.7,0-1.2,0.5-1.2,1.2s0.5,1.2,1.2,1.2s1.2-0.5,1.2-1.2S580.4,211,579.8,211z"/>
				<path class="st13" d="M579.8,200.1c-0.7,0-1.2,0.5-1.2,1.2c0,0.7,0.5,1.2,1.2,1.2s1.2-0.5,1.2-1.2
					C581,200.6,580.4,200.1,579.8,200.1z"/>
				<path class="st13" d="M579.8,221.9c-0.7,0-1.2,0.5-1.2,1.2s0.5,1.2,1.2,1.2c0.7,0,1.2-0.5,1.2-1.2S580.4,221.9,579.8,221.9z"/>
				<path class="st13" d="M579.8,238.2c-0.7,0-1.2,0.5-1.2,1.2c0,0.7,0.5,1.2,1.2,1.2s1.2-0.5,1.2-1.2S580.4,238.2,579.8,238.2z"/>
				<path class="st13" d="M573.6,232.8c-0.7,0-1.2,0.5-1.2,1.2c0,0.7,0.5,1.2,1.2,1.2c0.7,0,1.2-0.5,1.2-1.2
					S574.3,232.8,573.6,232.8z"/>
				<path class="st13" d="M579.8,232.8c-0.7,0-1.2,0.5-1.2,1.2s0.5,1.2,1.2,1.2s1.2-0.5,1.2-1.2C581,233.3,580.4,232.8,579.8,232.8z
					"/>
				<path class="st13" d="M567.4,227.3c-0.7,0-1.2,0.5-1.2,1.2c0,0.7,0.5,1.2,1.2,1.2s1.2-0.5,1.2-1.2S568.1,227.3,567.4,227.3z"/>
				<path class="st13" d="M579.8,227.3c-0.7,0-1.2,0.5-1.2,1.2c0,0.7,0.5,1.2,1.2,1.2s1.2-0.5,1.2-1.2S580.4,227.3,579.8,227.3z"/>
				
					<ellipse transform="matrix(0.9675 -0.2527 0.2527 0.9675 -30.8704 151.3273)" class="st13" cx="573.6" cy="195.8" rx="1.2" ry="1.2"/>
				<path class="st13" d="M573.6,205.5c-0.7,0-1.2,0.5-1.2,1.2c0,0.7,0.5,1.2,1.2,1.2s1.2-0.5,1.2-1.2
					C574.8,206.1,574.3,205.5,573.6,205.5z"/>
				<path class="st13" d="M573.6,200.1c-0.7,0-1.2,0.5-1.2,1.2s0.5,1.2,1.2,1.2s1.2-0.5,1.2-1.2
					C574.8,200.6,574.3,200.1,573.6,200.1z"/>
				<path class="st13" d="M567.4,197c0.7,0,1.2-0.5,1.2-1.2c0-0.5-0.3-0.9-0.7-1.1c-0.6,0.4-1.2,0.8-1.7,1.2
					C566.3,196.6,566.8,197,567.4,197z"/>
				<path class="st13" d="M573.6,216.4c-0.7,0-1.2,0.5-1.2,1.2s0.5,1.2,1.2,1.2c0.7,0,1.2-0.5,1.2-1.2S574.3,216.4,573.6,216.4z"/>
				<path class="st13" d="M573.6,221.9c-0.7,0-1.2,0.5-1.2,1.2c0,0.7,0.5,1.2,1.2,1.2c0.7,0,1.2-0.5,1.2-1.2
					C574.8,222.4,574.3,221.9,573.6,221.9z"/>
				<path class="st13" d="M573.6,227.3c-0.7,0-1.2,0.5-1.2,1.2c0,0.7,0.5,1.2,1.2,1.2c0.7,0,1.2-0.5,1.2-1.2
					C574.8,227.9,574.3,227.3,573.6,227.3z"/>
				<path class="st13" d="M573.6,211c-0.7,0-1.2,0.5-1.2,1.2c0,0.7,0.5,1.2,1.2,1.2s1.2-0.5,1.2-1.2
					C574.8,211.5,574.3,211,573.6,211z"/>
				<path class="st13" d="M573.6,238.2c-0.7,0-1.2,0.5-1.2,1.2s0.5,1.2,1.2,1.2c0.7,0,1.2-0.5,1.2-1.2
					C574.8,238.8,574.3,238.2,573.6,238.2z"/>
			</g>
		</g>
		
			<radialGradient id="SVGID_00000065063356513174381530000002390035815945387453_" cx="298.4122" cy="127.2037" r="625.1608" gradientTransform="matrix(0.9932 0 0 0.5211 3.6905 63.4123)" gradientUnits="userSpaceOnUse">
			<stop  offset="0.3391" style="stop-color:#110C0E;stop-opacity:0"/>
			<stop  offset="0.9759" style="stop-color:#110C0E;stop-opacity:0.6512"/>
		</radialGradient>
		
			<rect x="-20.4" y="-83.9" style="fill:url(#SVGID_00000065063356513174381530000002390035815945387453_);" width="640.9" height="427.3"/>
	</g>
</g>
<g>
	<g>
		<g>
			<path class="st13" d="M100.4,137.1l-1.4,6.7l7.7,0l0,14.2l-10.8,0l-1.8,8.7l-14.4,0l1.8-8.7l-9.7,0l-1.8,8.7l-14.4,0l1.8-8.7
				l-9.9,0l0-14.2l13,0l1.4-6.7l-9.6,0l0-14.2l12.6,0l1.7-8.2l14.4,0l-1.7,8.2l9.7,0l1.7-8.2l14.4,0l-1.7,8.2l8.1,0l0,14.2
				L100.4,137.1z M86,137.1l-9.7,0l-1.4,6.7l9.7,0L86,137.1z"/>
		</g>
	</g>
	<g>
		<path class="st13" d="M118.8,127.4c1.7-3.6,4-6.4,6.9-8.3c2.9-1.9,6.2-2.9,9.8-2.9c3,0,5.6,0.6,7.8,1.8c2.2,1.2,3.9,2.9,5,5.1
			l0-6.4l18.2,0l0.1,46.6l-18.2,0l0-6.4c-1.2,2.1-2.8,3.8-5,5.1c-2.2,1.2-4.8,1.9-7.8,1.9c-3.6,0-6.9-0.9-9.8-2.8
			c-2.9-1.9-5.2-4.6-6.9-8.2c-1.7-3.6-2.5-7.9-2.5-12.8C116.3,135.3,117.2,131,118.8,127.4z M146.5,134.3c-1.3-1.4-2.9-2.1-4.9-2.1
			c-2,0-3.6,0.7-4.9,2.1c-1.3,1.4-1.9,3.3-1.9,5.8c0,2.5,0.6,4.4,1.9,5.8c1.3,1.4,2.9,2.1,4.9,2.1c2,0,3.6-0.7,4.9-2.1
			c1.3-1.4,1.9-3.3,1.9-5.8C148.4,137.6,147.8,135.7,146.5,134.3z"/>
		<path class="st13" d="M199.5,118c2.2,1.2,3.9,2.9,5,5.1l0-6.4l18.2,0l0.1,45.7c0,4.3-0.8,8.3-2.4,11.9c-1.6,3.6-4.2,6.4-7.7,8.6
			c-3.5,2.2-8.1,3.2-13.7,3.2c-7.5,0-13.4-1.7-17.8-5.2c-4.4-3.5-6.9-8.2-7.5-14.2l18,0c0.5,2.4,2.5,3.6,6,3.6c2.1,0,3.8-0.6,5-1.7
			c1.2-1.1,1.8-3.2,1.8-6.2l0-5.5c-1.2,2.1-2.8,3.8-5,5.1c-2.2,1.2-4.8,1.9-7.8,1.9c-3.6,0-6.9-0.9-9.8-2.8
			c-2.9-1.9-5.2-4.6-6.9-8.2c-1.7-3.6-2.5-7.9-2.5-12.8c0-4.9,0.8-9.2,2.5-12.8c1.7-3.6,4-6.4,6.9-8.3c2.9-1.9,6.2-2.9,9.8-2.9
			C194.7,116.2,197.3,116.8,199.5,118z M202.7,134.2c-1.3-1.4-2.9-2.1-4.9-2.1c-2,0-3.6,0.7-4.9,2.1c-1.3,1.4-1.9,3.3-1.9,5.8
			c0,2.5,0.6,4.4,1.9,5.8c1.3,1.4,2.9,2.1,4.9,2.1c2,0,3.6-0.7,4.9-2.1c1.3-1.4,1.9-3.3,1.9-5.8
			C204.6,137.5,203.9,135.6,202.7,134.2z"/>
		<path class="st13" d="M232.6,110.4c-1.9-1.7-2.9-3.8-2.9-6.4c0-2.6,1-4.8,2.9-6.6c1.9-1.7,4.5-2.6,7.7-2.6c3.1,0,5.7,0.9,7.6,2.6
			c1.9,1.7,2.9,3.9,2.9,6.6c0,2.6-1,4.7-2.9,6.4c-1.9,1.7-4.5,2.6-7.6,2.6C237.1,113,234.5,112.1,232.6,110.4z M249.4,116.7
			l0.1,46.6l-18.3,0l-0.1-46.6L249.4,116.7z"/>
		<path class="st13" d="M275.9,102.1l0.1,61.1l-18.3,0l-0.1-61.1L275.9,102.1z"/>
		<path class="st13" d="M329.1,143l-29.5,0.1c0.3,4,2,6,5,6c2,0,3.4-0.9,4.3-2.7l19.4,0c-0.7,3.3-2,6.3-4.2,8.9
			c-2.1,2.6-4.8,4.7-8,6.2c-3.2,1.5-6.8,2.3-10.6,2.3c-4.6,0-8.7-0.9-12.3-2.9c-3.6-1.9-6.4-4.7-8.4-8.3c-2-3.6-3-7.8-3-12.7
			c0-4.8,1-9.1,3-12.7c2-3.6,4.8-6.4,8.4-8.3c3.6-1.9,7.7-2.9,12.3-2.9c4.6,0,8.7,0.9,12.3,2.8c3.6,1.9,6.4,4.6,8.4,8.1
			c2,3.5,3,7.7,3,12.5C329.3,140.7,329.2,141.9,329.1,143z M310.7,135c0-1.5-0.5-2.7-1.5-3.5c-1-0.8-2.2-1.2-3.7-1.2
			c-3.2,0-5.1,1.6-5.7,4.7L310.7,135z"/>
		<path class="st13" d="M336.5,161.2c-1.9-1.7-2.9-3.8-2.9-6.4c0-2.6,1-4.8,2.9-6.6c1.9-1.7,4.5-2.6,7.7-2.6c3.1,0,5.7,0.9,7.6,2.6
			c1.9,1.7,2.9,3.9,2.9,6.6c0,2.6-1,4.7-2.9,6.4c-1.9,1.7-4.5,2.6-7.6,2.6C341,163.7,338.5,162.9,336.5,161.2z"/>
		<path class="st13" d="M386.2,112.9c-1.4,0-2.4,0.3-3.1,0.8c-0.7,0.5-1.2,1.4-1.5,2.7l6.7,0l0,15.3l-6.9,0l0.1,31.3l-18.3,0
			l-0.1-31.3l-5,0l0-15.3l5,0c0.1-6.1,2-10.7,5.7-14.1c3.7-3.3,8.9-5,15.6-5c0.8,0,2,0.1,3.8,0.2l0,15.6
			C387.2,113,386.5,112.9,386.2,112.9z"/>
		<path class="st13" d="M393.2,126.9c1.7-3.6,4-6.4,6.9-8.3c2.9-1.9,6.2-2.9,9.8-2.9c3,0,5.6,0.6,7.8,1.8c2.2,1.2,3.9,2.9,5,5.1
			l0-6.4l18.2,0l0.1,46.6l-18.2,0l0-6.4c-1.2,2.1-2.8,3.8-5,5.1c-2.2,1.2-4.8,1.9-7.8,1.9c-3.6,0-6.9-0.9-9.8-2.8
			c-2.9-1.9-5.2-4.6-6.9-8.2c-1.7-3.6-2.5-7.9-2.5-12.8C390.7,134.8,391.6,130.5,393.2,126.9z M420.9,133.9
			c-1.3-1.4-2.9-2.1-4.9-2.1c-2,0-3.6,0.7-4.9,2.1c-1.3,1.4-1.9,3.3-1.9,5.8c0,2.5,0.6,4.4,1.9,5.8c1.3,1.4,2.9,2.1,4.9,2.1
			c2,0,3.6-0.7,4.9-2.1c1.3-1.4,1.9-3.3,1.9-5.8C422.9,137.2,422.2,135.2,420.9,133.9z"/>
		<path class="st13" d="M494.4,121.3c3,3.6,4.5,8.4,4.5,14.5l0,27l-18.2,0l0-24.7c0-2.2-0.6-3.9-1.8-5.2c-1.2-1.3-2.8-1.9-4.8-1.9
			c-2,0-3.6,0.7-4.8,1.9c-1.2,1.3-1.7,3-1.7,5.2l0,24.7l-18.3,0l-0.1-46.6l18.3,0l0,7.1c1.4-2.2,3.3-4,5.7-5.4
			c2.4-1.4,5.2-2.1,8.5-2.1C487.3,115.9,491.4,117.7,494.4,121.3z"/>
		<path class="st13" d="M516,161.2c-3.4-1.4-6.1-3.4-8.1-5.9c-2-2.5-3.1-5.4-3.4-8.6l17.6,0c0.2,1.4,0.8,2.4,1.8,3.1
			c1,0.7,2.2,1,3.7,1c0.9,0,1.7-0.2,2.2-0.6c0.5-0.4,0.8-0.9,0.8-1.5c0-1-0.6-1.8-1.7-2.2c-1.2-0.4-3.1-0.9-5.9-1.5
			c-3.4-0.7-6.1-1.4-8.3-2.1c-2.2-0.8-4.1-2.1-5.7-4c-1.6-1.9-2.4-4.5-2.4-7.8c0-2.9,0.7-5.5,2.3-7.8c1.5-2.3,3.7-4.2,6.7-5.5
			c3-1.4,6.6-2,10.8-2c6.3,0,11.2,1.5,14.7,4.6c3.6,3.1,5.7,7.1,6.4,12l-16.3,0c-0.3-1.3-0.9-2.2-1.7-2.9c-0.9-0.7-2.1-1-3.6-1
			c-0.9,0-1.7,0.2-2.1,0.5c-0.5,0.4-0.7,0.9-0.7,1.6c0,0.9,0.6,1.6,1.7,2.1c1.2,0.5,3,0.9,5.5,1.4c3.4,0.7,6.2,1.4,8.5,2.2
			c2.3,0.8,4.3,2.2,6,4.2c1.7,2,2.6,4.8,2.6,8.3c0,2.8-0.8,5.2-2.4,7.4c-1.6,2.2-3.9,3.9-6.9,5.2c-3,1.3-6.5,1.9-10.5,1.9
			C523.3,163.3,519.4,162.6,516,161.2z"/>
	</g>
</g>
</svg>
