<svg id="Слой_1" data-name="Слой 1" xmlns="http://www.w3.org/2000/svg" viewBox="0 0 100 50"><defs><style>.cls-1{fill:#1d1e1b;}.cls-2{fill:#db2878;}</style></defs><rect class="cls-1" x="10.75" y="15.34" width="18.69" height="19.15" rx="4.86"/><path class="cls-2" d="M49.4,15.23c-.3.92-.59,1.87-.89,2.86s-.59,2-.88,3-.55,2-.79,2.85v0a.67.67,0,0,1-.2.5.73.73,0,0,1-.49.14,2,2,0,0,1-.45-.06l-.52-.14c-.2-.1-.39-.19-.57-.26a2.58,2.58,0,0,1-.47-.24.92.92,0,0,1-.32-.33,1,1,0,0,1-.12-.53,1.71,1.71,0,0,1,.07-.45h0c.07-.34.16-.73.26-1.18s.22-.93.34-1.46l-.92.14-.88.14c-.18.56-.34,1.1-.48,1.61s-.26,1-.36,1.46q-.09.32-.15.57a2.3,2.3,0,0,1-.14.4.5.5,0,0,1-.21.24.64.64,0,0,1-.36.08h-.19l-.26-.06-.74-.29A3.53,3.53,0,0,1,39,23.9a1.54,1.54,0,0,1-.46-.36.91.91,0,0,1-.17-.56,1.57,1.57,0,0,1,.11-.52c.25-.77.5-1.63.75-2.57S39.77,18,40,17s.48-1.95.7-2.9.44-1.82.65-2.61a1.34,1.34,0,0,1,.3-.5.72.72,0,0,1,.46-.14,1.58,1.58,0,0,1,.42.09,4.54,4.54,0,0,1,.61.22,5.24,5.24,0,0,1,.64.29,6,6,0,0,1,.54.32h0a2,2,0,0,1,.44.39.78.78,0,0,1,.13.43,1.55,1.55,0,0,1-.09.49c-.17.48-.36,1-.57,1.7s-.44,1.36-.68,2.12l.71-.06.67-.06h.27c.28-1,.56-1.93.83-2.88s.53-1.78.79-2.52a1.14,1.14,0,0,1,.3-.54.72.72,0,0,1,.49-.16,1.58,1.58,0,0,1,.53.1h0a6.06,6.06,0,0,1,.7.25,3.91,3.91,0,0,1,.7.38,3.29,3.29,0,0,1,.55.47.79.79,0,0,1,.22.49,1.54,1.54,0,0,1-.09.47C50,13.51,49.69,14.32,49.4,15.23Z"/><path class="cls-2" d="M51.46,11.66l1.29-.3,1.45-.29c.51-.09,1-.16,1.55-.23a14.22,14.22,0,0,1,1.58-.13h.07a1.2,1.2,0,0,1,.73.19,1.12,1.12,0,0,1,.39.57h0a5.73,5.73,0,0,1,.2.55c0,.15.08.31.11.47h0a1.34,1.34,0,0,1,.06.4.74.74,0,0,1-.18.56,1.25,1.25,0,0,1-.66.22c-.51,0-1,.1-1.57.17L54.74,14c-.12.33-.24.68-.37,1.05s-.26.76-.4,1.13c.42,0,.85-.08,1.28-.09h.11a1.56,1.56,0,0,1,.67.13,1,1,0,0,1,.41.5h0a2.72,2.72,0,0,1,.25.64l.15.61v0a2,2,0,0,1,.05.36.52.52,0,0,1-.16.4,1.14,1.14,0,0,1-.45.24,3.28,3.28,0,0,1-.63.14l-.74.11h0l-1.08.22q-.54.09-1,.21c-.08.2-.16.41-.23.64a2.83,2.83,0,0,0-.15.61l1.15-.19a8.49,8.49,0,0,1,1.26-.09,1.1,1.1,0,0,1,.64.16,1,1,0,0,1,.38.5h0a5.76,5.76,0,0,1,.31.78,2.38,2.38,0,0,1,.14.81.58.58,0,0,1-.16.47,1.42,1.42,0,0,1-.59.22L53.6,24l-1.92.42v0a2.79,2.79,0,0,1-.69.1,1.61,1.61,0,0,1-.56-.08,1.43,1.43,0,0,1-.45-.26,3.87,3.87,0,0,1-.42-.4c-.14-.15-.3-.32-.47-.52h0a1.75,1.75,0,0,1-.32-.48,1.57,1.57,0,0,1-.12-.65,2.28,2.28,0,0,1,.05-.44l2.56-9.79Z"/><path class="cls-2" d="M64.19,21.44l0-.29c-.66.09-1.32.19-2,.3s-1.21.22-1.7.34c-.16.28-.3.57-.45.89s-.28.62-.43.89a4.19,4.19,0,0,1-.44.66.63.63,0,0,1-.49.27,1.3,1.3,0,0,1-.51-.12L58,24.29,57.53,24a3.07,3.07,0,0,1-.42-.28,1.88,1.88,0,0,1-.3-.34.74.74,0,0,1-.12-.42,2.21,2.21,0,0,1,0-.35,1.84,1.84,0,0,1,.14-.44c.33-.75.74-1.6,1.21-2.54s1-1.91,1.5-2.89,1.05-1.93,1.58-2.85,1-1.73,1.44-2.42a2.82,2.82,0,0,1,.6-.64,1.58,1.58,0,0,1,1-.25,6.86,6.86,0,0,1,1.7.17c.45.11.85.22,1.2.34l.26.08a1.19,1.19,0,0,1,.62.4,1.08,1.08,0,0,1,.16.62v.17s0,.09,0,.14h0c-.08.65-.15,1.42-.22,2.31s-.12,1.84-.17,2.84-.11,2-.14,3.06-.08,2-.11,3a1,1,0,0,1-.17.65,1.11,1.11,0,0,1-.72.17c-.28,0-.53,0-.77,0a2.32,2.32,0,0,1-.73-.19v0a1.19,1.19,0,0,1-.62-.39,1.59,1.59,0,0,1-.2-.83C64.21,22.64,64.19,22.08,64.19,21.44Zm-.74-5c-.34.58-.68,1.19-1,1.81l.9-.11.89-.08.09-1.66c0-.55.06-1.09.1-1.62Z"/><path class="cls-2" d="M74.41,23.54c-.61.15-1.25.29-1.9.42s-1.27.26-1.86.41h0a1.62,1.62,0,0,1-.4.09,2.11,2.11,0,0,1-.35,0,1.14,1.14,0,0,1-.53-.1,2,2,0,0,1-.35-.25v0l-.31-.29c-.1-.09-.2-.2-.32-.33h0l-.29-.3a1.42,1.42,0,0,1-.32-.45,1.35,1.35,0,0,1-.12-.59,1.48,1.48,0,0,1,0-.21,1.58,1.58,0,0,1,.06-.26v0c.08-.42.18-.91.31-1.46s.27-1.13.43-1.75.34-1.25.52-1.92.38-1.3.57-1.94.38-1.23.57-1.81.37-1.09.54-1.55.47-.66.82-.66a2.46,2.46,0,0,1,.82.16,5,5,0,0,1,.87.41,3.68,3.68,0,0,1,.7.54.83.83,0,0,1,.29.55.85.85,0,0,1,0,.23c0,.07-.06.16-.1.27h0c-.2.53-.41,1.11-.63,1.76s-.45,1.31-.68,2-.45,1.42-.67,2.15-.45,1.45-.65,2.14l1.09-.17a7.29,7.29,0,0,1,1.19-.09,1.14,1.14,0,0,1,.59.14,1.24,1.24,0,0,1,.41.5h0a2.89,2.89,0,0,1,.36.86,3,3,0,0,1,.13.8.45.45,0,0,1-.16.38,2.05,2.05,0,0,1-.59.24Z"/><path class="cls-2" d="M87.06,13.33a1.1,1.1,0,0,1-.6.17c-.35.05-.7.09-1.07.12l-1.15.1c-.25.79-.5,1.63-.77,2.51s-.53,1.76-.79,2.64-.52,1.77-.76,2.64-.46,1.7-.67,2.49l0,0a.84.84,0,0,1-.25.48.79.79,0,0,1-.44.13,2,2,0,0,1-.52-.09l-.62-.21h0a3.58,3.58,0,0,1-1-.47,1,1,0,0,1-.38-.84,2,2,0,0,1,.07-.47v0q.14-.74.36-1.77l.51-2.15c.19-.75.39-1.51.6-2.27s.41-1.46.61-2.11l-.74.15a2.46,2.46,0,0,1-.59.08.87.87,0,0,1-.55-.2,2.35,2.35,0,0,1-.43-.5,4.42,4.42,0,0,1-.32-.61c-.09-.22-.17-.42-.23-.59l0-.13h0a1.15,1.15,0,0,1-.06-.37.49.49,0,0,1,.15-.4,1,1,0,0,1,.45-.19c.52-.09,1.11-.19,1.76-.27S81,11,81.66,11l2-.18c.65,0,1.23-.08,1.75-.1a1.85,1.85,0,0,1,.71.11,1.24,1.24,0,0,1,.41.32,2.91,2.91,0,0,1,.25.39A4.09,4.09,0,0,1,87,12a3,3,0,0,1,.16.48,1.72,1.72,0,0,1,.06.44A.53.53,0,0,1,87.06,13.33Z"/><path class="cls-2" d="M96.38,15.23c-.29.92-.59,1.87-.89,2.86s-.59,2-.88,3-.55,2-.78,2.85v0a.67.67,0,0,1-.21.5.71.71,0,0,1-.48.14,1.86,1.86,0,0,1-.45-.06l-.52-.14c-.21-.1-.4-.19-.58-.26a3,3,0,0,1-.47-.24,1.12,1.12,0,0,1-.32-.33,1,1,0,0,1-.12-.53,1.78,1.78,0,0,1,.08-.45h0c.06-.34.15-.73.25-1.18s.22-.93.35-1.46l-.92.14-.89.14c-.18.56-.33,1.1-.47,1.61s-.26,1-.37,1.46a5.84,5.84,0,0,0-.14.57,2.3,2.3,0,0,1-.14.4.57.57,0,0,1-.22.24.61.61,0,0,1-.35.08h-.2l-.26-.06c-.25-.11-.5-.2-.74-.29A3.53,3.53,0,0,1,86,23.9a1.38,1.38,0,0,1-.45-.36A.91.91,0,0,1,85.4,23a1.53,1.53,0,0,1,.1-.52c.26-.77.51-1.63.76-2.57S86.76,18,87,17s.48-1.95.71-2.9.44-1.82.64-2.61a1.23,1.23,0,0,1,.31-.5.7.7,0,0,1,.46-.14,1.58,1.58,0,0,1,.42.09,5.1,5.1,0,0,1,.61.22,6,6,0,0,1,.64.29,6,6,0,0,1,.54.32h0a1.76,1.76,0,0,1,.44.39.71.71,0,0,1,.13.43,1.85,1.85,0,0,1-.08.49c-.17.48-.36,1-.58,1.7s-.44,1.36-.67,2.12l.7-.06.68-.06h.26c.29-1,.56-1.93.83-2.88s.54-1.78.79-2.52a1.15,1.15,0,0,1,.31-.54.71.71,0,0,1,.48-.16,1.54,1.54,0,0,1,.53.1h0a5.37,5.37,0,0,1,.69.25,4,4,0,0,1,.71.38,3.64,3.64,0,0,1,.54.47.74.74,0,0,1,.22.49,1.54,1.54,0,0,1-.09.47C97,13.51,96.68,14.32,96.38,15.23Z"/><path class="cls-2" d="M44.08,35.75a.8.8,0,0,1,.16.51,1.35,1.35,0,0,1-.08.43c-.06.16-.13.31-.21.48a5.35,5.35,0,0,1-1.62,2,3.89,3.89,0,0,1-2.42.77H39.7l-.16,0h0a5.67,5.67,0,0,1-1.19-.25l-1-.34h0a1.7,1.7,0,0,1-.46-.21,3,3,0,0,1-.44-.37,3.11,3.11,0,0,1-.39-.49,2.54,2.54,0,0,1-.25-.53v0a3.77,3.77,0,0,1-.26-.95,7.66,7.66,0,0,1-.08-1.09,9.74,9.74,0,0,1,.22-2,14.95,14.95,0,0,1,1.62-4.32,10.4,10.4,0,0,1,1.27-1.83,6.48,6.48,0,0,1,1.51-1.29,3.26,3.26,0,0,1,1.69-.48h.29c.25,0,.5.08.77.14a4.75,4.75,0,0,1,.76.22,4.91,4.91,0,0,1,.7.3,3.1,3.1,0,0,1,.57.36,2.16,2.16,0,0,1,.77,1,3.21,3.21,0,0,1,.18,1.1c0,.22,0,.45,0,.7s0,.5-.09.74-.08.49-.14.72a4,4,0,0,1-.18.61l0,.06a1.06,1.06,0,0,1-.22.38c-.08.1-.25.14-.5.14h-.17l-.19,0a3.31,3.31,0,0,1-.84-.28,1.8,1.8,0,0,1-.55-.41A1.68,1.68,0,0,1,42.6,31a2.77,2.77,0,0,1-.16-.74,5.43,5.43,0,0,1,0-.57c0-.19,0-.36,0-.5a1.55,1.55,0,0,0,0-.31.31.31,0,0,0-.1-.19c-.15,0-.34.15-.58.43a9.23,9.23,0,0,0-.72,1,15.2,15.2,0,0,0-.73,1.34,15,15,0,0,0-.59,1.38,11.45,11.45,0,0,0-.46,1.69,8.93,8.93,0,0,0-.16,1.5,2.84,2.84,0,0,0,.08.71.46.46,0,0,0,.25.36h.05c.31,0,.8-.37,1.47-1.1a2.32,2.32,0,0,1,1.7-.77,3.29,3.29,0,0,1,.42,0,4,4,0,0,1,.44.11A1.16,1.16,0,0,1,44.08,35.75Z"/><path class="cls-2" d="M58,30.47q-.45,1.37-.9,2.85c-.29,1-.59,2-.88,3s-.55,2-.78,2.85v0a.71.71,0,0,1-.2.5.73.73,0,0,1-.49.14,1.86,1.86,0,0,1-.45-.06l-.52-.14-.57-.26a2.29,2.29,0,0,1-.47-.24,1,1,0,0,1-.33-.33,1,1,0,0,1-.12-.52,1.78,1.78,0,0,1,.08-.46h0c.07-.34.15-.73.25-1.18s.22-.93.35-1.46l-.92.14-.89.14c-.18.57-.33,1.1-.47,1.61s-.26,1-.37,1.46c-.06.22-.11.4-.14.57a2.3,2.3,0,0,1-.14.4.57.57,0,0,1-.22.24.61.61,0,0,1-.35.08h-.2L49,39.7c-.25-.11-.5-.2-.74-.29a3.85,3.85,0,0,1-.65-.28,1.38,1.38,0,0,1-.45-.36.9.9,0,0,1-.17-.55,1.54,1.54,0,0,1,.1-.53c.26-.77.51-1.62.76-2.57s.5-1.91.74-2.9.48-1.95.71-2.9.44-1.82.64-2.6a1.1,1.1,0,0,1,.31-.5.65.65,0,0,1,.46-.15,1.58,1.58,0,0,1,.42.09c.19.06.39.13.61.22s.43.18.64.29a4.26,4.26,0,0,1,.54.33l0,0a1.76,1.76,0,0,1,.44.39.71.71,0,0,1,.14.43,1.55,1.55,0,0,1-.09.49c-.17.48-.36,1.05-.58,1.7s-.44,1.36-.67,2.12l.7-.06.68,0h0l.28,0c.29-1,.56-1.93.83-2.87s.54-1.79.79-2.53a1.15,1.15,0,0,1,.31-.54.72.72,0,0,1,.49-.16,1.63,1.63,0,0,1,.53.1h0a5.37,5.37,0,0,1,.69.25,4.78,4.78,0,0,1,.71.38,3.64,3.64,0,0,1,.54.47.74.74,0,0,1,.22.49,1.49,1.49,0,0,1-.09.47C58.56,28.75,58.29,29.55,58,30.47Z"/><path class="cls-2" d="M62.27,26.89l1.29-.3c.47-.1,1-.2,1.46-.29l1.55-.23c.53-.07,1.05-.11,1.57-.13h.08a1.16,1.16,0,0,1,.72.19,1,1,0,0,1,.39.57h0a3.73,3.73,0,0,1,.21.56,4.8,4.8,0,0,1,.1.47v0a1.34,1.34,0,0,1,.06.4.74.74,0,0,1-.18.56,1.32,1.32,0,0,1-.66.22c-.51.05-1,.1-1.58.17l-1.72.22c-.11.33-.24.68-.36,1.06s-.26.75-.4,1.12c.42-.05.85-.08,1.28-.09h.1a1.44,1.44,0,0,1,.68.14,1,1,0,0,1,.41.5v0a2.9,2.9,0,0,1,.25.64l.15.61h0a1.34,1.34,0,0,1,.06.35.51.51,0,0,1-.17.4,1.11,1.11,0,0,1-.44.25,6.07,6.07,0,0,1-.63.14l-.74.11h0l-1.09.21c-.35.06-.7.13-1,.21-.08.2-.16.41-.24.64a2.88,2.88,0,0,0-.14.61L64.37,36a8.49,8.49,0,0,1,1.26-.09,1.13,1.13,0,0,1,.64.16,1,1,0,0,1,.37.5h0a5.07,5.07,0,0,1,.32.78,2.65,2.65,0,0,1,.14.81.62.62,0,0,1-.16.47,1.48,1.48,0,0,1-.59.22l-1.94.42-1.91.42v0a2.94,2.94,0,0,1-.69.11,1.62,1.62,0,0,1-.57-.09,1.7,1.7,0,0,1-.45-.26c-.13-.11-.27-.25-.42-.4l-.46-.52v0A1.73,1.73,0,0,1,59.6,38a1.57,1.57,0,0,1-.12-.65,3.42,3.42,0,0,1,0-.44l2.56-9.79Z"/><path class="cls-2" d="M79,35.75a.8.8,0,0,1,.17.51,1.14,1.14,0,0,1-.09.43c-.06.16-.13.31-.21.48a5.42,5.42,0,0,1-1.61,2,3.94,3.94,0,0,1-2.43.77h-.21l-.16,0h0a5.67,5.67,0,0,1-1.19-.25c-.36-.12-.68-.23-1-.34h0a1.64,1.64,0,0,1-.45-.21,2.6,2.6,0,0,1-.45-.37,3.05,3.05,0,0,1-.38-.49,2.16,2.16,0,0,1-.26-.53v0a4.24,4.24,0,0,1-.26-.95,7.66,7.66,0,0,1-.08-1.09,10.51,10.51,0,0,1,.22-2,15.78,15.78,0,0,1,.63-2.19,17.12,17.12,0,0,1,1-2.13,11,11,0,0,1,1.27-1.83A6.69,6.69,0,0,1,75,26.3a3.26,3.26,0,0,1,1.69-.48H77c.25,0,.5.08.77.14a4.75,4.75,0,0,1,.76.22,4.91,4.91,0,0,1,.7.3,3.1,3.1,0,0,1,.57.36,2.26,2.26,0,0,1,.78,1,3.21,3.21,0,0,1,.17,1.1c0,.22,0,.45,0,.7s0,.5-.09.74-.09.49-.14.72a5.56,5.56,0,0,1-.19.61l0,.06a1.22,1.22,0,0,1-.21.38.68.68,0,0,1-.51.14h-.16l-.19,0a3.06,3.06,0,0,1-.84-.28,1.85,1.85,0,0,1-.56-.41,1.68,1.68,0,0,1-.34-.56,3.22,3.22,0,0,1-.16-.74c0-.19,0-.38,0-.57a4.62,4.62,0,0,0,0-.5,1.55,1.55,0,0,0,0-.31.31.31,0,0,0-.1-.19c-.15,0-.34.15-.57.43a8.07,8.07,0,0,0-.73,1c-.25.41-.49.86-.73,1.34s-.43,1-.59,1.38a11.4,11.4,0,0,0-.45,1.69,8,8,0,0,0-.16,1.5,2.88,2.88,0,0,0,.07.71.49.49,0,0,0,.25.36h.06c.3,0,.79-.37,1.47-1.1a2.28,2.28,0,0,1,1.69-.77,3,3,0,0,1,.42,0c.14,0,.29.06.45.11A1.12,1.12,0,0,1,79,35.75Z"/><path class="cls-2" d="M92.44,30.22c-.36.44-.75.89-1.19,1.36s-.88.93-1.35,1.4-.92.92-1.36,1.34c.22.45.47.9.75,1.36L90.05,37c.24.39.44.73.59,1a1.62,1.62,0,0,1,.24.53.54.54,0,0,1-.14.38,2.91,2.91,0,0,1-.42.3v0a3.59,3.59,0,0,1-.84.32,3.44,3.44,0,0,1-.8.12,1.29,1.29,0,0,1-.67-.19,3,3,0,0,1-.67-.6,10.19,10.19,0,0,1-.77-1.06c-.27-.43-.58-.95-.94-1.56-.15.57-.3,1.1-.44,1.6s-.26,1-.38,1.39v0a.75.75,0,0,1-.2.54.72.72,0,0,1-.47.15,1.64,1.64,0,0,1-.42-.06l-.49-.16a6.94,6.94,0,0,1-.67-.25,1.75,1.75,0,0,1-.49-.28.9.9,0,0,1-.29-.38,1.22,1.22,0,0,1-.1-.53,2,2,0,0,1,0-.42h0c0-.38.15-.86.27-1.45s.28-1.22.45-1.9.36-1.4.55-2.14.38-1.46.58-2.16.38-1.34.56-1.95.34-1.13.48-1.55a1.26,1.26,0,0,1,.35-.5.72.72,0,0,1,.49-.16l.21,0L86,26h0a6.64,6.64,0,0,1,.78.27,4.42,4.42,0,0,1,.75.39,2.34,2.34,0,0,1,.55.47.74.74,0,0,1,.23.48.89.89,0,0,1,0,.22,1.77,1.77,0,0,1-.11.28h0c-.14.34-.28.72-.41,1.15l-.45,1.38.18-.16,1.15-1.19,1.1-1.15,1-1c.3-.32.54-.6.74-.84l0,0a.89.89,0,0,1,.65-.41.84.84,0,0,1,.48.19,3,3,0,0,1,.54.48,3.17,3.17,0,0,1,.44.68,1.81,1.81,0,0,1,.19.75A2.18,2.18,0,0,1,93.32,29,12.75,12.75,0,0,1,92.44,30.22Z"/><path class="cls-2" d="M18.28,11.13A16.24,16.24,0,0,0,12.63,14a16.82,16.82,0,0,0-5.39,6,15.12,15.12,0,0,0-1.38,4L2.8,39.81H20.39a15.54,15.54,0,0,0,7.74-2.47,16.22,16.22,0,0,0,6.76-10c.52-2.38.59-2.74,2-9.24.65-3.14,1.26-5.7,1.68-7.39-2.28,0-4.12,0-5.31,0-4.11,0-6.45-.14-10.17,0A22,22,0,0,0,18.28,11.13Zm10,17.09H22.89v5.44H17.63V28.22H12.2V23h5.43V17.53h5.26V23h5.43Z"/></svg>