<?xml version="1.0" encoding="utf-8"?>
<!-- Generator: Adobe Illustrator 26.0.1, SVG Export Plug-In . SVG Version: 6.00 Build 0)  -->
<svg version="1.1" id="Слой_1" xmlns="http://www.w3.org/2000/svg" xmlns:xlink="http://www.w3.org/1999/xlink" x="0px" y="0px"
	 viewBox="0 0 96.9 124.7" style="enable-background:new 0 0 96.9 124.7;" xml:space="preserve">
<style type="text/css">
	.st0{fill:#FFFFFF;}
	.st1{fill-rule:evenodd;clip-rule:evenodd;fill:#FFFFFF;}
</style>
<g>
	<path class="st0" d="M66.4,107.8c0.4,2.3,0.7,3.8,1.3,4.5s1.6,1.1,2.3,0.9c1.2-0.2,2.5-0.2,3.7-0.2l-7.7,6.2c-1.8,0-3.6-0.5-5-1.6
		c-1.4-1.2-2.3-2.7-2.9-4.5c-0.7-2.1-1.2-4.5-1.2-6.8c-0.2-2.7-0.4-5.5-0.4-8.6V76.5h-4.6l2.9-6.4h1.8c0.7,0,1.3-0.5,1.6-1.1
		c0.7-0.7,1.1-1.6,1.4-2.5c0-0.7,0-1.4,0-2c0-0.7,0-1.6,0-2.3c0-2.7-0.4-5.4-1.6-7.7c-0.9-1.8-2.1-3.2-3.9-4.5
		c-1.6-0.9-3.2-1.4-4.8-1.2c-1.8,0-3.4,0.7-5,1.6c-1.6,1.1-2.9,2.7-3.7,4.5c-1.1,2.1-1.6,4.5-1.6,7c0,1.6,0.5,3,1.4,4.1
		c0.9,1.1,2,2.1,3.2,2.9c1.1,0.7,2.1,1.4,3.2,1.8c0.9,0.5,1.4,0.9,1.4,1.4l-3.9,7c-2.1-1.6-4.3-3.2-6.8-4.3c-1.6-0.7-3.2-1.1-5-0.9
		c-1.2,0-2.3,0.7-3.2,1.8c-0.7,1.1-1.1,2.5-1.1,3.9c0,1.6,0.7,3.2,1.8,4.5c1.4,1.4,2.9,2.7,4.6,3.8c1.8,1.1,3.9,2.3,5.9,3.4
		c2.1,1.1,3.9,2.3,5.9,3.6c1.6,1.2,3.2,2.5,4.6,4.1c1.2,1.4,1.8,3.2,1.8,5c0,2.1-0.5,3.9-1.6,5.7c-1.1,1.8-2.5,3.6-4.3,5
		c-1.8,1.4-3.8,2.7-5.7,3.4c-2,0.9-4.1,1.2-6.2,1.2s-3.9-0.4-6.1-0.9c-1.8-0.5-3.4-1.2-5.2-2c-1.6-0.9-3.2-1.8-4.8-3l3.9-8.4
		c1.8,1.6,3.8,2.9,5.5,4.1c1.6,0.9,3.2,1.8,4.8,2.3c1.2,0.5,2.7,0.9,3.9,1.2c1.1,0.2,2.1,0.4,3.2,0.2c2,0,3.9-0.7,5.5-2
		c1.2-1.6,1.6-2.9,0.9-3.9c-0.9-1.4-2.1-2.5-3.4-3.2c-2-1.2-3.9-2.3-6.1-3.2c-2.3-1.1-4.6-2.3-6.8-3.9c-2.1-1.4-3.9-3-5.7-4.8
		c-2.7-3.2-3.6-7.5-2.1-11.4c0.7-1.8,1.6-3.4,2.7-4.8c1.2-1.6,2.7-2.9,4.3-3.9c1.6-1.1,3.2-1.8,5-2.1c-0.5-0.5-0.9-1.1-1.2-1.8
		c-0.5-0.9-0.7-2.1-0.9-3.2c-0.4-2.5,0.2-5.2,1.6-7.3c1.4-2.3,3.2-4.3,5.4-5.9c2.1-1.6,4.6-3,7.1-3.9c2.3-0.9,4.6-1.4,7.3-1.4
		c2.3-0.2,4.5,0.4,6.4,1.2c1.6,0.9,2.9,2.1,3.4,3.9c0.9,2.1,1.2,4.5,1.4,6.8c0.2,2.7,0.4,6.2,0.4,10.2v2.3h9.8l-3,6.4h-6.8v20.7
		C66,100.6,66,104.2,66.4,107.8z"/>
	<path class="st1" d="M13.7,5.5H9.6v4.8h4.1v23.6c4.5-1.4,9.1-2.3,13.6-3.2c1.4-0.2,2.7-0.4,4.1-0.5c1.6-0.2,3.2-0.4,4.8-0.5
		c1.4-0.2,2.7-0.2,4.1-0.4c2.3-0.2,4.5-0.2,6.8-0.2s4.6,0,6.8,0.2c1.4,0,2.7,0.2,4.1,0.4c1.6,0.2,3.2,0.4,4.8,0.5
		c1.4,0.2,2.7,0.4,4.1,0.5l0,0c4.6,0.7,9.3,1.8,13.6,3.2l0,0V10.3h4.1V5.5H63v4.8h4.1v8.6c0,2.7-1.6,5-4.1,6.1
		c-0.7,0.4-1.6,0.5-2.5,0.5S58.9,25.3,58,25c-2.5-0.9-4.1-3.4-4.1-6.1v-8.4H58V5.7H36.2v4.8h4.1v8.6c0,2.7-1.6,5-4.1,6.1
		c-0.7,0.4-1.6,0.5-2.5,0.5s-1.6-0.2-2.5-0.5c-2.5-0.9-4.1-3.4-4.1-6.1v-8.6h4.1V5.7L13.7,5.5L13.7,5.5z"/>
	<path class="st1" d="M13.6,37.1c21.8-6.6,45.2-6.6,67,0v-1.6c-21.8-6.6-45.2-6.6-67,0V37.1L13.6,37.1z"/>
</g>
</svg>
