<?xml version="1.0" encoding="utf-8"?>
<!-- Generator: Adobe Illustrator 26.0.1, SVG Export Plug-In . SVG Version: 6.00 Build 0)  -->
<svg version="1.1" id="Слой_1" xmlns="http://www.w3.org/2000/svg" xmlns:xlink="http://www.w3.org/1999/xlink" x="0px" y="0px"
	 viewBox="0 0 169.2 124.7" style="enable-background:new 0 0 169.2 124.7;" xml:space="preserve">
<style type="text/css">
	.st0{fill:#18181B;}
	.st1{fill-rule:evenodd;clip-rule:evenodd;fill:#18181B;}
</style>
<g>
	<g>
		<path class="st0" d="M34,101.9c0.2,1.3,0.4,2.1,0.7,2.5c0.3,0.4,0.9,0.6,1.3,0.5c0.7-0.1,1.4-0.1,2.1-0.1l-4.3,3.5
			c-1,0-2-0.3-2.8-0.9c-0.8-0.7-1.3-1.5-1.6-2.5c-0.4-1.2-0.7-2.5-0.7-3.8c-0.1-1.5-0.2-3.1-0.2-4.8V84.4h-2.6l1.6-3.6h1
			c0.4,0,0.7-0.3,0.9-0.6c0.4-0.4,0.6-0.9,0.8-1.4c0-0.4,0-0.8,0-1.1c0-0.4,0-0.9,0-1.3c0-1.5-0.2-3-0.9-4.3c-0.5-1-1.2-1.8-2.2-2.5
			c-0.9-0.5-1.8-0.8-2.7-0.7c-1,0-1.9,0.4-2.8,0.9c-0.9,0.6-1.6,1.5-2.1,2.5c-0.6,1.2-0.9,2.5-0.9,3.9c0,0.9,0.3,1.7,0.8,2.3
			c0.5,0.6,1.1,1.2,1.8,1.6c0.6,0.4,1.2,0.8,1.8,1c0.5,0.3,0.8,0.5,0.8,0.8l-2.2,3.9c-1.2-0.9-2.4-1.8-3.8-2.4
			c-0.9-0.4-1.8-0.6-2.8-0.5c-0.7,0-1.3,0.4-1.8,1c-0.4,0.6-0.6,1.4-0.6,2.2c0,0.9,0.4,1.8,1,2.5c0.8,0.8,1.6,1.5,2.6,2.1
			c1,0.6,2.2,1.3,3.3,1.9c1.2,0.6,2.2,1.3,3.3,2c0.9,0.7,1.8,1.4,2.6,2.3c0.7,0.8,1,1.8,1,2.8c0,1.2-0.3,2.2-0.9,3.2
			c-0.6,1-1.4,2-2.4,2.8c-1,0.8-2.1,1.5-3.2,1.9c-1.1,0.5-2.3,0.7-3.5,0.7s-2.2-0.2-3.4-0.5c-1-0.3-1.9-0.7-2.9-1.1
			c-0.9-0.5-1.8-1-2.7-1.7l2.2-4.7c1,0.9,2.1,1.6,3.1,2.3c0.9,0.5,1.8,1,2.7,1.3c0.7,0.3,1.5,0.5,2.2,0.7c0.6,0.1,1.2,0.2,1.8,0.1
			c1.1,0,2.2-0.4,3.1-1.1c0.7-0.9,0.9-1.6,0.5-2.2c-0.5-0.8-1.2-1.4-1.9-1.8c-1.1-0.7-2.2-1.3-3.4-1.8c-1.3-0.6-2.6-1.3-3.8-2.2
			c-1.2-0.8-2.2-1.7-3.2-2.7c-1.5-1.8-2-4.2-1.2-6.4c0.4-1,0.9-1.9,1.5-2.7c0.7-0.9,1.5-1.6,2.4-2.2c0.9-0.6,1.8-1,2.8-1.2
			c-0.3-0.3-0.5-0.6-0.7-1c-0.3-0.5-0.4-1.2-0.5-1.8c-0.2-1.4,0.1-2.9,0.9-4.1c0.8-1.3,1.8-2.4,3-3.3c1.2-0.9,2.6-1.7,4-2.2
			c1.3-0.5,2.6-0.8,4.1-0.8c1.3-0.1,2.5,0.2,3.6,0.7c0.9,0.5,1.6,1.2,1.9,2.2c0.5,1.2,0.7,2.5,0.8,3.8c0.1,1.5,0.2,3.5,0.2,5.7v1.3
			h5.5l-1.7,3.6h-3.8v11.6C33.8,97.9,33.8,99.9,34,101.9z"/>
		<path class="st0" d="M70.1,94.4c0,1.8-0.3,3.7-0.9,5.5c-0.6,1.7-1.6,3.2-2.8,4.5c-1.3,1.3-2.9,2.3-4.7,3c-2.1,0.8-4.2,1.2-6.5,1.1
			c-2.2,0-4.4-0.3-6.4-1.1c-1.8-0.7-3.3-1.7-4.7-3c-1.3-1.3-2.2-2.8-2.9-4.5c-0.7-1.8-1-3.6-1-5.5c0-1.8,0.3-3.7,1-5.4
			c0.6-1.7,1.6-3.2,2.9-4.5c1.3-1.3,2.9-2.3,4.7-3c2-0.8,4.2-1.2,6.3-1.1c2.2,0,4.4,0.3,6.4,1.1c1.8,0.7,3.3,1.7,4.7,3
			c1.3,1.3,2.2,2.8,2.9,4.5C69.7,90.7,70.1,92.5,70.1,94.4z M55.2,107.2c1.5,0,2.9-0.3,4.2-1c1.2-0.7,2.3-1.6,3.1-2.7
			c0.9-1.2,1.5-2.6,1.8-4.1c0.4-1.6,0.6-3.3,0.6-5c0-1.7-0.2-3.4-0.7-5c-0.4-1.5-1.1-2.8-1.9-4.1c-0.9-1.2-1.8-2.1-3.1-2.8
			c-1.3-0.7-2.7-1.1-4.1-1c-1.5,0-2.9,0.3-4.2,1c-1.2,0.7-2.3,1.6-3.1,2.8c-0.9,1.2-1.5,2.6-1.8,4.1c-0.4,1.6-0.6,3.3-0.6,5
			c0,1.7,0.2,3.4,0.7,5c0.4,1.5,1.1,2.8,2,4.1c0.9,1.2,1.8,2.1,3.1,2.7C52.3,106.9,53.7,107.2,55.2,107.2L55.2,107.2z"/>
		<path class="st0" d="M79.1,108.4h-5.3V87c0-0.5-0.2-1.1-0.5-1.5c-0.3-0.4-0.8-0.8-1.3-0.9l7.1-3.7v3.8c1.1-1,2.3-1.9,3.6-2.6
			c1.2-0.6,2.5-1,3.9-1.2c1.2-0.2,2.5,0,3.6,0.4c1.2,0.4,2.2,1.2,2.9,2.2l-4.9,3.2c-0.2-0.5-0.6-0.9-1-1.3s-0.9-0.7-1.4-0.9
			c-0.7-0.3-1.4-0.4-2.2-0.4c-1.4,0-2.5,0.4-3.1,1c-0.7,0.8-1.2,1.7-1.4,2.7L79.1,108.4L79.1,108.4L79.1,108.4z"/>
		<path class="st0" d="M102.2,80.9v15.2c0,1.8,0,3.2,0.1,4.3c0,0.9,0.1,1.8,0.3,2.6c0.1,0.5,0.2,0.9,0.5,1.3
			c0.2,0.3,0.5,0.4,0.8,0.5c0.4,0,0.8,0,1.1,0c0.5,0,1-0.1,1.5-0.1l-4.3,3.5c-1,0-2-0.3-2.8-0.9c-0.8-0.7-1.3-1.5-1.6-2.5
			c-0.4-1.2-0.7-2.5-0.8-3.8c-0.1-1.5-0.2-3.1-0.2-4.8v-9.5c0-0.5-0.2-1.1-0.5-1.5c-0.3-0.4-0.8-0.8-1.3-0.9L102.2,80.9z"/>
		<path class="st0" d="M107.5,96.6c0-2,0.4-3.9,1.3-5.7c0.9-1.8,2-3.3,3.3-4.7s2.8-2.5,4.5-3.4c1.6-0.9,3.2-1.4,5-1.8
			c1.5-0.3,3.1-0.2,4.6,0.2c1.4,0.4,2.6,1.2,3.5,2.4l-4.9,3.2c-0.2-0.5-0.6-0.9-1-1.3c-0.4-0.4-0.9-0.7-1.4-0.9
			c-0.7-0.3-1.4-0.4-2.2-0.4c-1,0-2,0.2-2.9,0.6c-0.9,0.4-1.6,1-2.2,1.7c-0.6,0.8-1.2,1.6-1.5,2.5c-0.4,0.9-0.8,1.9-0.9,3h14.4
			l-2.3,5.1h-12.3c0.3,1.5,1.1,2.8,2.2,3.9c1.1,1.1,2.5,1.9,4,2.4c1.6,0.5,3.3,0.5,5,0.2c1.9-0.4,3.7-1.3,5.2-2.6
			c-0.9,1.1-1.7,2.2-2.6,3.1c-0.9,0.9-1.7,1.7-2.6,2.5c-0.9,0.7-1.9,1.3-3,1.6c-0.6,0.2-1.2,0.2-1.8,0.2c-0.9,0-1.8-0.2-2.7-0.4
			c-1-0.3-2.1-0.7-3-1.2c-1.1-0.5-2-1.3-2.8-2.2c-0.9-1-1.6-2.1-2.1-3.3C107.7,99.8,107.5,98.2,107.5,96.6z"/>
		<path class="st0" d="M136.9,102.8c0.9,0.5,1.8,1,2.7,1.3c0.7,0.3,1.5,0.5,2.2,0.7c0.6,0.1,1.2,0.2,1.8,0.1c1.1,0,2.2-0.4,3.1-1.1
			c0.7-0.9,0.9-1.6,0.5-2.2c-0.5-0.8-1.2-1.4-2-1.8c-1.1-0.7-2.2-1.3-3.4-1.8c-1.3-0.6-2.6-1.3-3.8-2.2c-1.2-0.8-2.2-1.7-3.2-2.7
			c-1.7-1.8-2.1-4.4-1.1-6.7c0.4-1.1,1.1-2.1,1.8-2.9c0.8-0.9,1.8-1.6,2.8-2.2c1-0.5,2.1-0.9,3.2-0.9c0.9,0,1.9,0.1,2.8,0.3
			c0.7,0.1,1.3,0.4,1.9,0.6c0.5,0.2,1,0.5,1.4,0.9l-2.2,3.9c-1.1-1-2.4-1.8-3.7-2.5c-0.9-0.4-1.8-0.6-2.8-0.5c-0.7,0-1.3,0.4-1.8,1
			c-0.4,0.6-0.6,1.4-0.6,2.2c0,0.9,0.4,1.8,1,2.5c0.8,0.8,1.6,1.5,2.6,2.1c1,0.6,2.2,1.3,3.3,1.9c1.2,0.6,2.2,1.3,3.3,2
			c0.9,0.7,1.8,1.4,2.6,2.3c0.7,0.8,1,1.8,1,2.8c0,1.2-0.3,2.2-0.9,3.2c-0.6,1.1-1.4,2-2.4,2.8c-1,0.8-2.1,1.5-3.2,1.9
			c-1.1,0.5-2.3,0.7-3.5,0.7c-1.2,0-2.2-0.2-3.3-0.5c-1-0.3-1.9-0.7-2.8-1.1c-0.9-0.5-1.8-1-2.7-1.7l2.1-4.7
			C134.9,101.3,135.9,102.1,136.9,102.8z"/>
		<path class="st0" d="M34.7,56c0-2,0.4-3.9,1.3-5.7c0.9-1.8,1.9-3.3,3.3-4.7c1.3-1.3,2.8-2.5,4.5-3.4c1.6-0.9,3.2-1.4,5-1.8
			c1.5-0.3,3.1-0.2,4.6,0.2C55,41,56.2,41.8,57,43l-4.9,3.2c-0.2-0.5-0.6-0.9-1-1.3c-0.4-0.4-0.9-0.7-1.4-0.9
			c-0.7-0.3-1.4-0.4-2.2-0.4c-1.3,0-2.5,0.3-3.5,1c-1,0.7-1.8,1.5-2.5,2.6c-0.7,1.1-1.2,2.3-1.4,3.5c-0.3,1.3-0.5,2.6-0.5,4
			c0,1.7,0.5,3.3,1.5,4.7s2.4,2.4,4,3c1.7,0.7,3.5,0.9,5.4,0.6c2.1-0.3,4.1-1.3,5.7-2.7c-0.9,1.1-1.7,2.2-2.6,3.1
			c-0.9,0.9-1.7,1.7-2.6,2.5c-0.9,0.8-1.9,1.3-3,1.6c-0.6,0.2-1.2,0.2-1.8,0.2c-0.9,0-1.8-0.2-2.7-0.4c-1-0.3-2.1-0.7-3-1.2
			c-2.2-1.2-4-3.1-4.9-5.5C35,59.1,34.7,57.6,34.7,56z"/>
		<path class="st0" d="M59,56c0-2,0.4-3.9,1.3-5.7c0.9-1.8,2-3.3,3.3-4.7c1.3-1.3,2.8-2.5,4.5-3.4c1.5-0.9,3.2-1.5,5-1.8
			c1.5-0.3,3.1-0.2,4.7,0.2c1.4,0.4,2.6,1.2,3.5,2.4l2.8-1.4v26.1h-5.3v-5.2c-0.4,0.4-0.9,0.9-1.3,1.5c-0.5,0.5-1.1,1-1.6,1.5
			c-0.5,0.5-1.2,0.9-1.8,1.3c-0.6,0.4-1.2,0.7-1.8,0.9c-0.6,0.2-1.2,0.2-1.8,0.2c-0.9,0-1.8-0.2-2.7-0.4c-1-0.3-2.1-0.7-3-1.2
			c-1-0.6-2-1.3-2.8-2.2c-0.9-1-1.6-2.1-2.1-3.3C59.2,59.1,58.9,57.6,59,56z M63.9,54.9c0,1.5,0.4,3.1,1.3,4.4
			c0.9,1.3,2.1,2.3,3.5,3c1.5,0.7,3.1,1.1,4.8,1c1.8-0.1,3.7-0.6,5.3-1.7V47.6c0-0.4-0.1-0.9-0.3-1.2c-0.2-0.3-0.5-0.7-0.9-0.9
			l-1.2,0.9c-0.2-0.5-0.6-0.9-1-1.3s-0.9-0.7-1.4-0.9c-0.7-0.3-1.4-0.4-2.2-0.4c-1.3,0-2.5,0.3-3.5,1s-1.8,1.5-2.5,2.6
			c-0.7,1.1-1.2,2.3-1.5,3.5C64,52.2,63.9,53.6,63.9,54.9L63.9,54.9z"/>
		<path class="st0" d="M112.1,61.3c0.2,1.3,0.4,2.1,0.7,2.5c0.3,0.4,0.9,0.6,1.3,0.5c0.7-0.1,1.4-0.1,2.1-0.1l-4.3,3.5
			c-1,0-2-0.3-2.7-0.9c-0.8-0.7-1.3-1.5-1.6-2.5c-0.4-1.2-0.7-2.5-0.7-3.8c-0.1-1.5-0.2-3.1-0.2-4.9V43.8h-2.6l1.6-3.6h1
			c0.4,0,0.7-0.3,0.9-0.6c0.4-0.4,0.6-0.9,0.8-1.4c0-0.4,0-0.8,0-1.1c0-0.4,0-0.9,0-1.3c0-1.5-0.2-3-0.9-4.3c-0.5-1-1.2-1.8-2.2-2.5
			c-0.9-0.5-1.8-0.8-2.8-0.7c-1,0-1.9,0.4-2.7,0.9c-0.9,0.6-1.6,1.5-2.2,2.5c-0.6,1.2-0.9,2.5-0.9,3.9c0,0.9,0.3,1.7,0.8,2.3
			c0.5,0.6,1.1,1.2,1.8,1.6c0.6,0.4,1.2,0.7,1.8,1c0.5,0.3,0.8,0.5,0.8,0.8l-2.2,3.8c-1.2-0.9-2.4-1.8-3.8-2.4
			c-0.9-0.4-1.8-0.6-2.8-0.5c-0.7,0-1.3,0.4-1.8,1c-0.4,0.6-0.6,1.4-0.6,2.2c0,0.9,0.4,1.8,1,2.5c0.8,0.8,1.6,1.5,2.6,2.1
			c1,0.6,2.2,1.3,3.3,1.9c1.2,0.6,2.2,1.3,3.3,2c0.9,0.7,1.8,1.4,2.6,2.3c0.7,0.8,1,1.8,1,2.8c0,1.2-0.3,2.2-0.9,3.2
			c-0.6,1-1.4,2-2.4,2.8c-0.9,0.8-2.1,1.5-3.2,1.9c-1.2,0.5-2.4,0.8-3.6,0.8c-1.2,0-2.2-0.2-3.4-0.5c-1-0.3-1.9-0.7-2.9-1.1
			c-0.9-0.5-1.8-1-2.7-1.7l2.2-4.7c1,0.9,2.1,1.6,3.1,2.2c0.9,0.5,1.8,1,2.7,1.3c0.7,0.3,1.5,0.5,2.2,0.7c0.6,0.1,1.2,0.2,1.8,0.1
			c1.1,0,2.2-0.4,3-1.1c0.7-0.9,0.9-1.6,0.5-2.2c-0.5-0.8-1.2-1.4-1.9-1.8c-1.1-0.7-2.2-1.3-3.4-1.8c-1.3-0.6-2.6-1.3-3.8-2.2
			c-1.2-0.8-2.2-1.7-3.2-2.7c-1.5-1.8-2-4.2-1.2-6.4c0.4-1,0.9-1.9,1.5-2.7c0.7-0.9,1.5-1.6,2.4-2.2c0.9-0.6,1.8-1,2.9-1.2
			c-0.3-0.3-0.5-0.6-0.7-1c-0.2-0.5-0.4-1.2-0.5-1.8c-0.2-1.4,0.1-2.9,0.9-4.1c0.8-1.3,1.8-2.4,3-3.3c1.2-0.9,2.6-1.7,4-2.2
			c1.3-0.5,2.7-0.8,4.1-0.8c1.3-0.1,2.5,0.2,3.6,0.7c0.9,0.5,1.6,1.2,1.9,2.2c0.4,1.2,0.7,2.5,0.8,3.8c0.1,1.5,0.2,3.5,0.2,5.7v1.3
			h5.5l-1.7,3.6h-3.8v11.6C111.9,57.4,112,59.4,112.1,61.3z"/>
		<path class="st0" d="M124.5,32.7v22.8c0,1.8,0,3.2,0.1,4.3c0,0.9,0.2,1.8,0.3,2.6c0.1,0.5,0.2,0.9,0.5,1.3
			c0.2,0.2,0.5,0.4,0.8,0.5c0.4,0.1,0.8,0.1,1.1,0c0.5,0,1-0.1,1.5-0.1l-4.3,3.5c-1,0-2-0.3-2.7-0.9c-0.8-0.7-1.3-1.5-1.6-2.5
			c-0.4-1.2-0.7-2.5-0.8-3.8c-0.1-1.5-0.2-3.1-0.2-4.9V38.7c0-0.5-0.2-1.1-0.5-1.5c-0.3-0.4-0.8-0.8-1.3-0.9L124.5,32.7z"/>
		<path class="st0" d="M129.7,56c0-2,0.4-3.9,1.3-5.7c0.9-1.8,1.9-3.3,3.3-4.7c1.3-1.3,2.9-2.5,4.5-3.4c1.6-0.9,3.2-1.4,5-1.8
			c1.5-0.3,3.1-0.2,4.6,0.2c1.4,0.4,2.6,1.2,3.5,2.4l-4.9,3.2c-0.2-0.5-0.6-0.9-1-1.3c-0.4-0.4-0.9-0.7-1.4-0.9
			c-0.7-0.3-1.4-0.4-2.2-0.4c-1,0-2,0.2-2.9,0.6c-0.9,0.4-1.6,1-2.2,1.7c-0.6,0.8-1.2,1.6-1.5,2.5c-0.4,0.9-0.8,1.9-0.9,3h14.4
			l-2.3,5.1H135c0.3,1.5,1.1,2.8,2.2,3.9c1.1,1.1,2.5,1.9,4,2.4c1.6,0.5,3.3,0.5,5,0.2c1.9-0.4,3.7-1.3,5.2-2.6
			c-0.9,1.1-1.7,2.2-2.6,3.1c-0.9,0.9-1.7,1.7-2.6,2.5c-0.9,0.7-1.9,1.3-3,1.6c-0.6,0.2-1.2,0.2-1.8,0.2c-0.9,0-1.8-0.2-2.7-0.4
			c-1-0.3-2.1-0.7-3-1.2c-1.1-0.5-2-1.3-2.8-2.2c-0.9-1-1.6-2.1-2.1-3.3C130,59.3,129.7,57.7,129.7,56z"/>
		<path class="st1" d="M87.4,6.5h-2.3v2.7h2.3v13.2c2.5-0.8,5.1-1.3,7.6-1.8c0.8-0.1,1.5-0.2,2.3-0.3c0.9-0.1,1.8-0.2,2.7-0.3
			c0.8-0.1,1.5-0.1,2.3-0.2c1.3-0.1,2.5-0.1,3.8-0.1c1.3,0,2.6,0,3.8,0.1c0.8,0,1.5,0.1,2.3,0.2c0.9,0.1,1.8,0.2,2.7,0.3
			c0.8,0.1,1.5,0.2,2.3,0.3l0,0c2.6,0.4,5.2,1,7.6,1.8l0,0V9.2h2.3V6.5H115v2.7h2.3v4.8c0,1.5-0.9,2.8-2.3,3.4
			c-0.4,0.2-0.9,0.3-1.4,0.3c-0.5,0-0.9-0.1-1.4-0.3c-1.4-0.5-2.3-1.9-2.3-3.4V9.3h2.3V6.6H100v2.7h2.3v4.8c0,1.5-0.9,2.8-2.3,3.4
			c-0.4,0.2-0.9,0.3-1.4,0.3c-0.5,0-0.9-0.1-1.4-0.3c-1.4-0.5-2.3-1.9-2.3-3.4V9.3h2.3V6.6L87.4,6.5L87.4,6.5z"/>
		<path class="st1" d="M87.4,24.2c12.2-3.7,25.3-3.7,37.5,0v-0.9c-12.2-3.7-25.3-3.7-37.5,0L87.4,24.2L87.4,24.2z"/>
	</g>
	<g>
		<path class="st1" d="M7.5,114.2H4.9v3.1h2.6v15c2.8-0.9,5.7-1.5,8.7-2c0.9-0.1,1.8-0.3,2.6-0.4c1-0.1,2.1-0.2,3.1-0.4
			c0.9-0.1,1.7-0.1,2.6-0.2c1.4-0.1,2.9-0.1,4.4-0.1c1.5,0,2.9,0,4.4,0.1c0.9,0,1.8,0.1,2.6,0.2c1,0.1,2.1,0.2,3.1,0.4
			c0.9,0.1,1.8,0.2,2.6,0.4l0,0c2.9,0.5,5.8,1.1,8.7,2l0,0v-15h2.6v-3.1H38.9v3.1h2.6v5.4c0,1.7-1,3.2-2.6,3.9
			c-0.5,0.2-1,0.3-1.6,0.3c-0.5,0-1.1-0.1-1.6-0.3c-1.6-0.6-2.6-2.2-2.6-3.9v-5.4h2.6v-3.1H21.8v3.1h2.6v5.4c0,1.7-1,3.2-2.6,3.9
			c-0.5,0.2-1,0.3-1.6,0.3s-1.1-0.1-1.6-0.3c-1.6-0.6-2.6-2.2-2.6-3.9v-5.4h2.6v-3.1L7.5,114.2L7.5,114.2z"/>
		<path class="st1" d="M41.5,114.2h-2.6v3.1h2.6v15c2.8-0.9,5.7-1.5,8.7-2c0.9-0.1,1.8-0.3,2.6-0.4c1-0.1,2.1-0.2,3.1-0.4
			c0.9-0.1,1.7-0.1,2.6-0.2c1.4-0.1,2.9-0.1,4.4-0.1s2.9,0,4.4,0.1c0.9,0,1.8,0.1,2.6,0.2c1,0.1,2.1,0.2,3.1,0.4
			c0.9,0.1,1.8,0.2,2.6,0.4l0,0c2.9,0.5,5.8,1.1,8.7,2l0,0v-15h2.6v-3.1H72.9v3.1h2.6v5.4c0,1.7-1,3.2-2.6,3.9
			c-0.5,0.2-1,0.3-1.6,0.3c-0.5,0-1.1-0.1-1.6-0.3c-1.6-0.6-2.6-2.2-2.6-3.9v-5.4h2.6v-3.1H55.8v3.1h2.6v5.4c0,1.7-1,3.2-2.6,3.9
			c-0.5,0.2-1,0.3-1.6,0.3s-1.1-0.1-1.6-0.3c-1.6-0.6-2.6-2.2-2.6-3.9v-5.4h2.6v-3.1L41.5,114.2L41.5,114.2z"/>
		<path class="st1" d="M75.5,114.2h-2.6v3.1h2.6v15c2.8-0.9,5.7-1.5,8.7-2c0.9-0.1,1.8-0.3,2.6-0.4c1-0.1,2.1-0.2,3.1-0.4
			c0.9-0.1,1.7-0.1,2.6-0.2c1.4-0.1,2.9-0.1,4.4-0.1c1.5,0,2.9,0,4.4,0.1c0.9,0,1.8,0.1,2.6,0.2c1,0.1,2.1,0.2,3.1,0.4
			c0.9,0.1,1.8,0.2,2.6,0.4l0,0c2.9,0.5,5.8,1.1,8.7,2l0,0v-15h2.6v-3.1h-13.9v3.1h2.6v5.4c0,1.7-1,3.2-2.6,3.9
			c-0.5,0.2-1,0.3-1.6,0.3c-0.5,0-1.1-0.1-1.6-0.3c-1.6-0.6-2.6-2.2-2.6-3.9v-5.4h2.6v-3.1H89.9v3.1h2.6v5.4c0,1.7-1,3.2-2.6,3.9
			c-0.5,0.2-1,0.3-1.6,0.3c-0.5,0-1.1-0.1-1.6-0.3c-1.6-0.6-2.6-2.2-2.6-3.9v-5.4h2.6v-3.1L75.5,114.2L75.5,114.2z"/>
		<g>
			<path class="st1" d="M109.6,114.2H107v3.1h2.6v15c2.8-0.9,5.7-1.5,8.7-2c0.9-0.1,1.8-0.3,2.6-0.4c1-0.1,2.1-0.2,3.1-0.4
				c0.9-0.1,1.7-0.1,2.6-0.2c1.4-0.1,2.9-0.1,4.4-0.1c1.5,0,2.9,0,4.4,0.1c0.9,0,1.8,0.1,2.6,0.2c1,0.1,2.1,0.2,3.1,0.4
				c0.9,0.1,1.8,0.2,2.6,0.4l0,0c2.9,0.5,5.8,1.1,8.7,2l0,0v-15h2.6v-3.1H141v3.1h2.6v5.4c0,1.7-1,3.2-2.6,3.9
				c-0.5,0.2-1,0.3-1.6,0.3s-1.1-0.1-1.6-0.3c-1.6-0.6-2.6-2.2-2.6-3.9v-5.4h2.6v-3.1H124v3.1h2.6v5.4c0,1.7-1,3.2-2.6,3.9
				c-0.5,0.2-1,0.3-1.6,0.3c-0.5,0-1.1-0.1-1.6-0.3c-1.6-0.6-2.6-2.2-2.6-3.9v-5.4h2.6v-3.1L109.6,114.2L109.6,114.2z"/>
		</g>
	</g>
</g>
</svg>
